<svg width="81" height="66" viewBox="0 0 81 66" fill="none" xmlns="http://www.w3.org/2000/svg">
<path d="M54.7346 27.6079H51.1162V24.3752H52.7326V22.7588H51.1162V19.5261H54.7346V21.1425H56.3509V22.7588H57.9673V24.3752H56.3509V25.9916H54.7346V27.6079Z" fill="#DCDCDC"/>
<path d="M63.4107 17.909V14.6763H61.7943H60.178V16.2926H58.5616V17.909H56.9452V19.5254H55.3289V21.1417H53.7125V22.7581H52.0962V24.3744H53.7125V25.9908H55.3289V27.6072H56.9452V29.2235H58.5616V30.8399H60.178V32.4562H61.7943H63.4111L63.4107 29.2235V17.909Z" fill="#DCDCDC"/>
<path d="M67.3701 19.366V20.0945H68.0986V20.822H68.8262V21.5505H69.5547V22.2781H70.2822V23.0066H70.6201V22.2781H71.3486V21.5505H72.0762V20.822H72.8047V20.0945H73.5322V19.366H74.6514V20.4841H73.9229V21.2126H73.1953V21.9402H72.4668V22.6687H71.7393V23.3962H71.0107V23.7341H71.7393V24.4626H72.4668V25.1902H73.1953V25.9187H73.9229V26.6462H74.6514V27.7654H73.5322V27.0369H72.8047V26.3093H72.0762V25.5808H71.3486V24.8533H70.6201V24.1248H70.2822V24.8533H69.5547V25.5808H68.8262V26.3093H68.0986V27.0369H67.3701V27.7654H66.252V26.6462H66.9805V25.9187H67.708V25.1902H68.4365V24.4626H69.1641V23.7341H69.8926V23.3962H69.1641V22.6687H68.4365V21.9402H67.708V21.2126H66.9805V20.4841H66.252V19.366H67.3701Z" fill="#DCDCDC" stroke="#DCDCDC" stroke-width="0.390254"/>
<path d="M62.5538 53.769C62.6782 53.9003 62.8092 54.0095 62.9454 54.0991L63.4542 54.4341C63.6492 54.5625 63.8317 54.7088 64.001 54.8716L64.4444 55.2983C64.6364 55.4828 64.791 55.6981 64.9073 55.9409L65.1817 56.5161C65.302 56.7676 65.3689 57.0334 65.377 57.3101L65.3946 57.9282C65.4032 58.2233 65.3345 58.5045 65.1905 58.7622L64.8868 59.3042C64.8545 59.3619 64.8191 59.4172 64.7823 59.4712L64.3614 59.1704C64.0913 58.9755 63.9719 58.8442 63.9317 58.7856L63.752 58.5239L63.5733 58.2671C63.3834 57.9901 63.1356 57.7594 62.8428 57.5942L62.293 57.2876C62.1766 57.2217 62.0739 57.1386 61.9796 57.0435L61.5303 56.5962C61.5177 56.5834 61.5095 56.5681 61.4991 56.5571L61.5303 56.2632L61.2491 55.9878L61.1661 55.9048C60.8438 55.5885 60.3242 55.5901 60.0069 55.9106C59.7756 56.1465 59.7238 56.4851 59.834 56.7749L59.8282 56.7935L59.8721 56.9546L59.9112 57.0688C59.9645 57.2454 60.0584 57.3889 60.1221 57.4731C60.1943 57.5683 60.2831 57.6596 60.3712 57.7485L60.5899 57.9731L60.8135 58.1968C61.0147 58.3998 61.2434 58.5749 61.4922 58.7153L61.7618 58.8696L62.0372 59.0229C62.1102 59.0642 62.1726 59.1174 62.2217 59.189L62.5801 59.7144C62.7789 60.0039 63.0784 60.2651 63.4063 60.5015L63.5733 60.6216C63.5515 60.6437 63.5293 60.6654 63.5079 60.688L63.169 61.0435L62.7784 60.7524C62.5077 60.5503 62.3775 60.4159 62.3292 60.3491L62.1436 60.0942L61.9649 59.8433C61.7931 59.6046 61.5871 59.396 61.3497 59.2222L61.0938 59.0366L60.8448 58.8511C60.7058 58.7493 60.5773 58.6465 60.4659 58.5376L60.2549 58.3325L60.1143 58.1919L60.1905 57.9868L59.8321 57.6284L59.7491 57.5386C59.4315 57.2177 58.912 57.2159 58.5899 57.5327C58.3981 57.7226 58.3364 57.9816 58.3721 58.23L58.3585 58.2681L58.4171 58.5054L58.4434 58.6011C58.4935 58.8048 58.6037 58.9567 58.6602 59.0298C58.7305 59.1207 58.8128 59.2104 58.8965 59.2925L59.1085 59.5044L59.3194 59.7095C59.4897 59.8759 59.6799 60.0322 59.878 60.1772L60.127 60.3628L60.3829 60.5474C60.4812 60.6197 60.5621 60.7073 60.6319 60.8042L60.8184 61.0542L60.9981 61.3032C61.1768 61.5516 61.4344 61.7904 61.7237 62.0132C61.5281 62.099 61.3231 62.1534 61.1094 62.1714L60.4922 62.2231C60.3204 62.2376 60.1529 62.2683 59.9903 62.3169L59.4044 62.4927C59.1003 62.5836 58.7916 62.5677 58.4981 62.4477L57.9268 62.2144C57.6941 62.1192 57.4833 61.9952 57.3008 61.8384L56.8887 61.4839C56.7312 61.3484 56.5773 61.1926 56.4258 61.019L56.1954 60.7554C56.2669 60.6965 56.3309 60.6249 56.3809 60.5405L56.4454 60.438L56.4708 60.3931L56.4893 60.3413L56.5411 60.2065L56.5469 60.2144L56.6114 60.0796C56.6762 59.9475 56.7465 59.7737 56.8165 59.5796L56.918 59.2983L57.0215 59.0102C57.1026 58.7849 57.1634 58.551 57.2129 58.312L57.3419 57.6968C57.3545 57.6362 57.3737 57.5802 57.3975 57.5269C57.5207 57.4663 57.6307 57.375 57.7129 57.2534C57.8017 57.1219 57.8457 56.9736 57.8506 56.8257C57.8881 56.7802 57.9296 56.7385 57.9815 56.7046L58.2442 56.5376L58.5001 56.3657C58.7413 56.2078 58.9556 56.0161 59.1407 55.7944L59.3458 55.5522L59.545 55.3081C59.6876 55.1369 59.8282 54.9612 59.961 54.7837L60.3321 54.2847L60.3379 54.2769C60.3406 54.2758 60.3486 54.2731 60.3575 54.271L60.671 54.2007L60.9922 54.1304C61.3174 54.0559 61.6673 53.8947 62.0157 53.6948L62.3165 53.5181L62.5538 53.769ZM36.9669 0.0131783C37.2319 -0.0471618 37.4088 0.114753 37.4708 0.194819C37.5266 0.267125 37.5495 0.338366 37.5567 0.361811L37.5762 0.443842L37.6094 0.635249C37.6298 0.753623 37.6297 0.891436 37.6231 1.0249L37.6046 1.39599C37.6019 1.45091 37.6096 1.50732 37.6319 1.56787L37.7657 1.92919C37.8179 2.07097 37.8599 2.21468 37.8907 2.35986L37.9678 2.72412C38.001 2.88069 38.016 3.03924 38.0137 3.19873L38.0088 3.56689C38.0073 3.67251 38.0112 3.77863 38.0206 3.88427L38.0528 4.25244C38.0629 4.36616 38.0757 4.47989 38.0919 4.59326L38.1446 4.96044C38.1635 5.09363 38.178 5.2275 38.1876 5.36181L38.2139 5.73193C38.2267 5.91094 38.2086 6.08849 38.1622 6.2622L38.0635 6.63037C38.0486 6.68618 38.0461 6.73851 38.0547 6.7915L38.1163 7.16162C38.1422 7.31909 38.1509 7.47761 38.1426 7.63623L38.1231 8.00537C38.1171 8.12012 38.1137 8.23531 38.1133 8.35009L38.1124 8.71923C38.112 8.85535 38.106 8.99174 38.0948 9.12744L38.0645 9.4956C38.0522 9.64372 38.0283 9.79066 37.9932 9.93603L37.9053 10.3003C37.8986 10.3282 37.8975 10.3625 37.9131 10.4126L38.0333 10.7974C38.1168 11.0651 38.0789 11.3358 37.9317 11.5708L37.7139 11.9185C37.6853 11.964 37.6798 11.9953 37.6797 12.019L37.6788 12.3921C37.6785 12.4807 37.6879 12.5699 37.7071 12.6587L37.7862 13.0278C37.8146 13.1591 37.84 13.2912 37.8614 13.4233L37.921 13.7944C37.9463 13.9507 37.9561 14.1078 37.9493 14.2651L37.9327 14.6352C37.9265 14.7764 37.9131 14.9183 37.8917 15.0601L37.835 15.4351C37.8055 15.6302 37.7352 15.813 37.6309 15.98L37.418 16.3208C37.4012 16.3478 37.4026 16.3581 37.4034 16.3657L37.4434 16.7397C37.4603 16.8986 37.4604 17.058 37.4434 17.2163L37.4034 17.5854C37.3952 17.6617 37.3983 17.7384 37.4122 17.8149L37.4786 18.1821C37.5054 18.3299 37.5213 18.479 37.5245 18.6284L37.5323 18.9985C37.5336 19.0586 37.5452 19.119 37.5713 19.1821L37.7178 19.5356C37.812 19.763 37.8194 20.0024 37.751 20.2329L37.6368 20.6177C37.629 20.6437 37.632 20.6538 37.6368 20.6655L37.7813 21.0229C37.8736 21.2509 37.8818 21.4943 37.7989 21.729L37.6729 22.0854C37.6272 22.2147 37.5772 22.341 37.5235 22.4644L37.377 22.8032C37.3488 22.8683 37.3296 22.9388 37.3213 23.0171L37.2813 23.397C37.2617 23.5819 37.2086 23.7616 37.1124 23.9253L36.9581 24.186C36.9592 24.194 36.9612 24.2069 36.9659 24.2251C36.9762 24.2649 36.9924 24.3107 37.0176 24.3794L37.0977 24.6147L37.0987 24.6167H37.0977C37.1261 24.7181 37.1785 24.7903 37.2676 24.8491L37.8301 25.2202C38.1306 25.4186 38.3225 25.7101 38.3741 26.0698L38.4669 26.7153C38.4949 26.9109 38.5333 27.0996 38.5831 27.2808L38.7501 27.8872C38.8345 28.1947 38.8145 28.5049 38.6954 28.8003L38.4571 29.3921C38.4284 29.4633 38.4326 29.5078 38.46 29.563L38.7364 30.1186C38.8369 30.3206 38.9243 30.5263 38.9991 30.7349L39.2032 31.3052C39.241 31.4108 39.2862 31.5135 39.335 31.6147C39.2711 31.6813 39.2167 31.7593 39.1768 31.8481V31.854L38.8829 32.3286C38.7049 32.6143 38.5792 32.7571 38.5118 32.8149L38.2676 33.0259L38.0254 33.231C37.7265 33.4849 37.5234 33.8191 37.4415 34.2046L37.3135 34.8188C37.2675 35.0357 37.2273 35.2542 37.1915 35.4663L37.0899 36.0679C37.0674 36.2009 37.0253 36.3335 36.9678 36.4653L36.8458 36.7534L36.7188 37.0425C36.6127 37.2861 36.5322 37.5372 36.4815 37.7964L36.4239 38.105L36.3653 38.4048C36.3132 38.6732 36.2919 38.9451 36.3087 39.2183L36.3282 39.5269L36.3467 39.8403C36.3588 40.0349 36.3679 40.2225 36.3731 40.4028L36.3858 40.6987L36.3917 40.9868C36.3999 41.2652 36.4511 41.5435 36.5391 41.813L36.6407 42.1196L36.7374 42.4214C36.8904 42.8894 37.2394 43.2186 37.6915 43.3618L38.0176 43.4585L38.3379 43.5601C38.4572 43.5976 38.5399 43.6494 38.6006 43.7017L39.0626 44.0981C39.2857 44.2906 39.537 44.4478 39.8106 44.5601L40.1065 44.6743L40.4004 44.7964C40.4605 44.8214 40.5076 44.8602 40.5538 44.9185L40.7588 45.1733L40.9571 45.4243C41.1729 45.6989 41.4446 45.9161 41.7706 46.0513L42.0587 46.1665L42.3409 46.2886C42.531 46.3674 42.7262 46.4462 42.9161 46.5249L43.1993 46.6411L43.4874 46.7632C43.6794 46.8428 43.8784 46.9199 44.0762 46.9995L44.3712 47.1216L44.6651 47.2358C44.6736 47.2395 44.6753 47.2472 44.6778 47.2495C44.6819 47.2532 44.6967 47.2618 44.711 47.2876L44.8702 47.5894L45.0362 47.8833C45.2688 48.3055 45.6582 48.5764 46.1378 48.645L46.4708 48.6968L46.8106 48.7407C46.9116 48.7553 46.9731 48.7869 47.0157 48.8179L47.2657 48.9976L47.5088 49.1831C47.8043 49.4006 48.1488 49.5189 48.5137 49.5356L49.129 49.561C49.1848 49.5637 49.2458 49.5851 49.3204 49.6313L49.6016 49.8042L49.877 49.977C50.2757 50.2248 50.7309 50.2653 51.1651 50.1304L51.8184 49.9253C51.8949 49.9016 51.938 49.9111 51.9659 49.9194L52.2667 50.0093L52.5665 50.105C52.7956 50.1746 53.0283 50.2288 53.2598 50.271L53.5596 50.3227L53.8604 50.3804C54.0991 50.4238 54.3431 50.4495 54.585 50.4575L54.8858 50.4702L55.1856 50.4761C55.3326 50.481 55.4909 50.5038 55.6534 50.5405L56.2813 50.6811C56.5264 50.7366 56.9453 50.7896 57.3243 50.563C57.4804 50.6942 57.6313 50.8303 57.7754 50.9722L58.2129 51.4028C58.2982 51.4866 58.4042 51.5503 58.5401 51.5913L59.1622 51.7788C59.4262 51.8584 59.6678 51.9818 59.8799 52.1509L60.3614 52.5347C60.3812 52.5504 60.402 52.5646 60.4229 52.5786L60.3126 52.606L59.9991 52.6763C59.6067 52.7654 59.2638 52.9765 59.0186 53.3042L58.6778 53.7642L58.5674 53.7075C58.2921 53.5656 58.1569 53.4565 58.0997 53.3999L58.17 53.394L57.9659 53.2661L57.8633 53.1499L57.6524 52.9077C57.4042 52.6331 57.0864 52.4419 56.7227 52.3491L56.4229 52.2729L56.3965 52.2661L56.1846 52.1313L56.0831 52.0679C55.8208 51.9015 55.5049 51.9147 55.251 52.0552L54.9171 52.0874L54.8204 52.7085L54.8145 52.7466C54.7677 53.0445 54.8931 53.2711 54.9756 53.3804C55.0532 53.482 55.137 53.5438 55.1797 53.5727C55.2674 53.6318 55.3555 53.6716 55.3975 53.688C55.4942 53.7255 55.611 53.7562 55.7188 53.7837L56.3194 53.937C56.3575 53.9468 56.3948 53.9641 56.4356 54.0093L56.6465 54.2515L56.8643 54.4878C57.0481 54.6911 57.2914 54.8679 57.5577 55.0239L57.3419 55.1675L57.085 55.3345C56.9592 55.4169 56.844 55.5115 56.7383 55.6157C56.5674 55.4918 56.4709 55.4 56.4258 55.3452L56.2208 55.0962L56.0215 54.852C55.7742 54.5512 55.4471 54.3448 55.0684 54.2505L54.7608 54.1733L54.4473 54.0903L54.3506 54.0649L54.3126 54.0132L54.2286 53.9106L54.1202 53.8335L54.0235 53.77C53.649 53.5175 53.1385 53.6152 52.8848 53.9888C52.6946 54.2706 52.7029 54.6301 52.878 54.8979L53.1026 55.1274L53.1407 55.1792L53.1788 55.2173L53.2754 55.3071C53.4138 55.4409 53.5713 55.5187 53.6778 55.563C53.7957 55.6119 53.9232 55.6535 54.0499 55.6851L54.3633 55.7612L54.671 55.8384C54.7064 55.8472 54.729 55.8599 54.754 55.8901L55.1641 56.3892C55.3414 56.6043 55.5807 56.804 55.8487 56.9917C55.8041 57.1124 55.7669 57.2362 55.7403 57.3638L55.6114 57.979C55.5767 58.1463 55.533 58.3086 55.4786 58.4595L55.2735 59.0229C55.2128 59.1912 55.1673 59.2924 55.1426 59.3442C55.1242 59.3316 55.1049 59.3194 55.084 59.3081L54.5655 59.0278C54.4219 58.95 54.2734 58.8875 54.1202 58.8413L53.5635 58.6733C53.2518 58.5793 53.0092 58.379 52.8497 58.0991L52.5499 57.5718C52.4739 57.4384 52.3781 57.3161 52.2618 57.2046L51.8126 56.7739C51.6706 56.6379 51.5255 56.5081 51.378 56.3843L50.9102 55.9917C50.7486 55.8561 50.5892 55.7164 50.4327 55.5727L49.9796 55.1558C49.8163 55.006 49.6604 54.8486 49.5128 54.6831L49.1016 54.2222C49.0236 54.1348 48.9231 54.0665 48.7891 54.019L48.169 53.7993C47.9408 53.7186 47.7241 53.6237 47.5196 53.5151L46.9737 53.2261C46.7475 53.106 46.5428 52.9533 46.3604 52.77L45.9151 52.3218C45.7652 52.1711 45.6179 52.0211 45.4737 51.8726L45.045 51.4311C44.9058 51.2877 44.7641 51.1458 44.6202 51.0063L44.1778 50.5776C44.0322 50.4365 43.8848 50.2968 43.7374 50.1587L43.5421 49.9751L43.5733 50.1147C43.6303 50.3706 43.6456 50.6289 43.6192 50.8872L43.5567 51.5015C43.5357 51.7064 43.5144 51.9111 43.4932 52.1147L43.4297 52.7251C43.4093 52.9214 43.393 53.1186 43.3809 53.3159L43.3438 53.9292C43.3301 54.1537 43.302 54.3783 43.2608 54.602L43.1485 55.2153C43.0981 55.4888 42.9788 55.7727 42.7217 55.9585L42.3721 56.2104C42.2921 56.2683 42.1867 56.3204 42.0587 56.3364C41.9265 56.3529 41.8016 56.327 41.6954 56.2749C41.504 56.181 41.3871 56.0123 41.3165 55.8872L40.9864 55.3013C40.9093 55.1645 40.819 55.0669 40.7188 54.9976L40.2169 54.6509C40.0491 54.5348 39.8838 54.4203 39.7227 54.3081L39.2413 53.9722C39.0052 53.8077 38.8466 53.5816 38.7657 53.3149L38.7354 53.1987L38.6075 52.5903C38.5595 52.3636 38.5287 52.135 38.5157 51.9048L38.4805 51.2886C38.469 51.0858 38.4559 50.883 38.4415 50.6811L38.3975 50.0679C38.3816 49.845 38.3785 49.6093 38.3858 49.3618L38.3917 49.1323L38.2462 49.2056C38.04 49.3083 37.8221 49.3655 37.5977 49.3706L37.5967 49.3726C37.5249 49.445 37.4348 49.5451 37.3409 49.6538C37.1474 49.8778 36.9741 50.0983 36.9356 50.1558L36.5967 50.6616C36.5072 50.7952 36.4337 50.9414 36.377 51.1011L36.168 51.6919C36.066 51.9792 35.8896 52.2203 35.6446 52.4019L35.1495 52.7681C34.8835 52.9652 34.5668 53.0514 34.2305 52.9761L33.6876 52.854C33.4195 52.7939 33.1811 52.6668 32.9815 52.478L32.5743 52.0933C32.3959 51.9245 32.2484 51.7238 32.128 51.4985L31.8331 50.9468C31.6788 50.6581 31.637 50.3431 31.7051 50.0239L31.8389 49.3989C31.8685 49.2606 31.8795 49.0251 31.8497 48.6685L31.8028 48.1079L31.8008 48.0913V48.0561C31.8006 48.0444 31.8002 48.027 31.7999 48.0054C31.7992 47.9616 31.7981 47.899 31.7969 47.8237C31.7945 47.6725 31.7914 47.4696 31.7881 47.2642C31.7836 46.978 31.7788 46.6804 31.7764 46.5112C31.7426 46.4677 31.6987 46.4137 31.6495 46.3569C31.5922 46.2909 31.5344 46.2263 31.4903 46.1782L31.4376 46.1206C31.2225 45.956 31.0522 45.7509 30.9366 45.5044L30.671 44.938C30.5828 44.75 30.4946 44.5637 30.4073 44.3804L30.1436 43.8267C30.0743 43.6812 29.9844 43.5421 29.8731 43.4087L29.4639 42.9175C29.2695 42.6844 29.1471 42.4131 29.1036 42.1128L29.0128 41.4829C28.9836 41.2817 28.9494 41.0851 28.9112 40.894L28.7921 40.2935C28.7428 40.0467 28.729 39.7968 28.752 39.5454L28.8087 38.9311C28.8194 38.8132 28.8009 38.6923 28.7452 38.563L28.4864 37.9634C28.3762 37.7078 28.3158 37.4412 28.3116 37.1675L28.3028 36.5503C28.2993 36.324 28.3097 36.0973 28.335 35.8706L28.4044 35.2505C28.426 35.0566 28.4399 34.863 28.4463 34.6704L28.4669 34.0542C28.473 33.869 28.468 33.6865 28.4512 33.5073L28.4004 32.9731L28.169 32.3667L28.1348 32.2769L28.1368 32.1802L28.1504 31.6235C28.1596 31.2364 28.1949 30.8993 28.2696 30.6333L28.4444 30.0093C28.463 29.9429 28.4548 29.9116 28.4229 29.8686L28.0469 29.3618C27.9397 29.2172 27.8201 29.0851 27.6895 28.9644L27.2296 28.5386C27.0141 28.3393 26.8585 28.0961 26.7657 27.8169L26.5645 27.2095C26.4917 26.9903 26.4321 26.7719 26.3868 26.5542L26.3135 26.2046L25.2618 25.7339C25.1061 25.6768 24.9467 25.6372 24.7823 25.6157L24.1719 25.5356C23.9997 25.5132 23.8255 25.5074 23.6495 25.5181L23.0294 25.5552C22.7269 25.5734 22.437 25.5062 22.169 25.3628L21.5938 25.0542C21.4297 24.9663 21.272 24.9031 21.1221 24.8608L20.5587 24.7017C20.4433 24.6692 20.3065 24.6589 20.1426 24.6802L19.4805 24.7661C19.221 24.7998 18.9641 24.8013 18.711 24.77L18.0801 24.6919C17.7556 24.6517 17.4724 24.5068 17.2403 24.2778L16.7598 23.8052C16.7061 23.7522 16.6548 23.7306 16.5645 23.7388L15.8751 23.8013C15.5327 23.8321 15.2083 23.7483 14.9317 23.5386L14.4161 23.1479C14.3093 23.067 14.2016 23.0238 14.0879 23.0093L13.4766 22.9311C13.2956 22.9081 13.1111 22.8975 12.9229 22.8989L12.293 22.9038C12.014 22.9059 11.7447 22.8505 11.4903 22.7378L10.921 22.4849C10.7274 22.399 10.5355 22.3114 10.3458 22.2212L9.78815 21.9556C9.68229 21.9052 9.56443 21.8813 9.42584 21.8901L8.7735 21.9321C8.46483 21.9518 8.16944 21.887 7.89947 21.7368L7.34381 21.4282C7.20238 21.3496 7.05758 21.2967 6.90924 21.2681L6.30572 21.1519C6.14636 21.1211 5.98301 21.1108 5.81549 21.1216L5.19049 21.1616C4.893 21.1807 4.60578 21.1207 4.33795 20.9878L3.75982 20.7007C3.60528 20.624 3.4511 20.5728 3.29693 20.5435L2.93463 20.4731C2.76606 20.4664 2.60198 20.4343 2.44244 20.3774C2.31776 20.351 2.19291 20.3228 2.06842 20.2925L1.46783 20.146C1.32573 20.1114 1.23628 20.1188 1.18365 20.1333L0.722715 20.2602C0.684326 20.2709 0.646546 20.2812 0.618223 20.2876C0.610677 20.2893 0.599934 20.2913 0.58795 20.2935C0.582631 20.2944 0.549915 20.3009 0.509825 20.3022C0.504348 20.3024 0.423843 20.308 0.331114 20.2759C0.285965 20.2602 0.152249 20.2069 0.0654888 20.0561C-0.0385763 19.8751 0.00217215 19.6973 0.0459575 19.603C0.0840754 19.521 0.13565 19.4703 0.154356 19.4526C0.178371 19.4299 0.199892 19.4142 0.211973 19.4058C0.235982 19.3891 0.256849 19.3782 0.265684 19.3735C0.309472 19.3505 0.36549 19.3302 0.380918 19.3247C0.413843 19.3129 0.457688 19.2984 0.509825 19.2808L1.12311 19.0727C1.45157 18.9617 1.78623 18.9848 2.09772 19.1343L2.69147 19.4194C2.69914 19.4231 2.70733 19.4258 2.7149 19.4292C2.76932 19.4404 2.82356 19.4521 2.87799 19.4624L3.03522 19.4917C3.04038 19.4914 3.04564 19.4921 3.05084 19.4917L3.67584 19.4448C3.93959 19.4251 4.20084 19.45 4.45709 19.519L5.06744 19.6841C5.15776 19.7084 5.25168 19.7047 5.36627 19.6567L5.99029 19.395C6.33335 19.2515 6.69049 19.2677 7.01959 19.4409L7.61822 19.7554C7.74326 19.8212 7.85321 19.8416 7.95709 19.8335L8.5733 19.7856C8.79984 19.7678 9.02662 19.7642 9.25299 19.7759L9.86822 19.8081C10.0738 19.8187 10.2792 19.8297 10.4844 19.8413L11.0987 19.8755C11.3666 19.8906 11.626 19.9565 11.8741 20.0688L12.461 20.3345C12.5894 20.3926 12.7153 20.4167 12.8438 20.4116L13.4669 20.3872C13.7261 20.377 13.981 20.4078 14.2296 20.479L14.8233 20.6489C14.9373 20.6816 15.0642 20.687 15.212 20.6558L15.8702 20.5161C16.2096 20.4443 16.5429 20.4991 16.8379 20.687L17.3819 21.0337C17.5227 21.1233 17.6682 21.1873 17.8194 21.228L18.4229 21.3901C18.5789 21.4322 18.7367 21.4521 18.8975 21.4487L19.5206 21.436C19.7651 21.431 20.0066 21.4533 20.2442 21.5034L20.8458 21.6304C21.0761 21.679 21.3021 21.7487 21.5225 21.8394L22.1016 22.0776C22.2472 22.1375 22.3969 22.1729 22.5508 22.1841L23.17 22.229C23.3424 22.2415 23.5164 22.2366 23.6924 22.2134L24.3194 22.1304C24.6035 22.093 24.8846 22.121 25.1563 22.2134L25.7588 22.4185C25.8607 22.4531 26.064 22.4761 26.4112 22.4419L26.9698 22.3872L27.1495 22.3696L27.2979 22.4722L27.3809 22.5288L27.751 22.4302C27.8734 22.3973 27.997 22.3345 28.1212 22.2319L28.6397 21.8032C28.8975 21.5903 29.2027 21.4763 29.5391 21.4819L29.6456 21.4829C29.6315 21.2845 29.6416 21.0839 29.7042 20.9019L29.8282 20.5405C29.8425 20.4987 29.8455 20.4603 29.8379 20.4185L29.7706 20.0444C29.7409 19.8791 29.7321 19.7113 29.7442 19.5435L29.7725 19.1616C29.7864 18.9697 29.8371 18.7858 29.9258 18.6147L30.0977 18.2827C30.1282 18.2238 30.1466 18.164 30.1544 18.1011L30.1993 17.7349C30.2099 17.6483 30.2115 17.5603 30.2032 17.4712L30.169 17.0991C30.154 16.9379 30.1574 16.7767 30.1797 16.6167L30.2315 16.2495C30.2536 16.0919 30.2926 15.9365 30.3477 15.7847L30.4786 15.4224C30.4816 15.4141 30.4825 15.4096 30.4825 15.4077C30.4825 15.4054 30.4819 15.3974 30.4766 15.3823L30.3419 15.0015C30.2643 14.7812 30.2549 14.5478 30.3282 14.3188L30.4424 13.9604C30.4642 13.8924 30.4744 13.8253 30.4727 13.7583L30.4629 13.3882C30.4579 13.1894 30.4976 12.997 30.5772 12.8159L30.7335 12.4614C30.7595 12.402 30.7711 12.3471 30.7715 12.2935L30.7745 11.9224C30.7755 11.7909 30.7796 11.6593 30.7872 11.5278L30.8087 11.1567C30.8155 11.0387 30.8203 10.9198 30.8233 10.8003L30.8331 10.4253C30.8391 10.1891 30.9207 9.97432 31.0587 9.7915L31.293 9.47998L31.2198 9.10009C31.1753 8.87214 31.198 8.641 31.3008 8.42529L31.4639 8.08447C31.485 8.04027 31.4925 7.99868 31.4913 7.95458L31.4805 7.58349C31.4744 7.37237 31.5239 7.16973 31.6182 6.98388L31.7911 6.64306L31.6553 6.26123C31.5778 6.04206 31.5652 5.80878 31.6358 5.57861L31.7462 5.21826C31.7819 5.10176 31.8164 4.98556 31.8487 4.8706L31.9493 4.51415C31.9786 4.41 32.0031 4.30469 32.0225 4.19873L32.0889 3.83544C32.122 3.65492 32.1871 3.48426 32.2803 3.32568L32.4766 2.99072C32.4957 2.95823 32.5021 2.93168 32.501 2.90087L32.4874 2.52099C32.4815 2.357 32.4943 2.19428 32.5264 2.03466L32.5997 1.67236C32.6353 1.49576 32.7002 1.32902 32.794 1.17529L32.9854 0.862788C33.0187 0.8082 33.0573 0.747844 33.0958 0.699702C33.1082 0.68413 33.1538 0.625676 33.2247 0.577631C33.2535 0.558087 33.3618 0.487312 33.5186 0.490717C33.6092 0.492756 33.7064 0.519589 33.793 0.580561C33.8344 0.60969 33.8676 0.642122 33.8936 0.674311L33.9522 0.767085L33.9747 0.812006C34.0285 0.920665 34.0291 1.0274 34.0294 1.03466C34.0306 1.06855 34.029 1.10081 34.0274 1.12548C34.0241 1.17668 34.0176 1.23786 34.0088 1.30322L33.959 1.67333C33.9409 1.80932 33.9177 1.94454 33.8887 2.07861L33.8096 2.44384C33.7965 2.50476 33.7946 2.56594 33.8047 2.63037L33.8643 3.00341C33.8873 3.14818 33.9008 3.29286 33.9044 3.43701L33.9131 3.80322C33.9173 3.96935 33.8988 4.13523 33.8604 4.29931L33.7735 4.67236C33.7744 4.67431 33.7756 4.67705 33.7774 4.68017L33.9883 5.03662C34.1357 5.28522 34.1608 5.57032 34.046 5.84228L33.8887 6.21337C33.865 6.26958 33.8602 6.31323 33.8633 6.35009L33.8956 6.72021C33.901 6.78392 33.9175 6.85118 33.9503 6.92333L34.1143 7.28369C34.1869 7.44328 34.2369 7.60955 34.2598 7.78076L34.3077 8.1372C34.3327 8.32416 34.3187 8.51123 34.2725 8.69384L34.1749 9.07763C34.1588 9.14116 34.1582 9.19476 34.1671 9.24169L34.2364 9.60595C34.2624 9.74447 34.2766 9.8846 34.2813 10.0249L34.3594 9.76415C34.388 9.66806 34.4106 9.5698 34.4258 9.47021L34.4815 9.10498C34.5001 8.98401 34.5183 8.8628 34.5362 8.74169L34.5899 8.37548C34.6099 8.24016 34.6361 8.10614 34.6671 7.97412L34.7501 7.61865C34.7762 7.50681 34.7997 7.39349 34.8213 7.27978L34.8907 6.91845C34.9223 6.75284 34.9768 6.59305 35.0518 6.43994L35.2227 6.0913C35.2528 6.02989 35.2678 5.97228 35.2715 5.9165L35.296 5.54833C35.3023 5.45378 35.3002 5.35593 35.2901 5.25537L35.252 4.87548C35.2342 4.69719 35.2453 4.51939 35.2852 4.34521L35.3682 3.9829C35.4031 3.83067 35.4525 3.68254 35.5167 3.53955L35.67 3.19677C35.7157 3.09484 35.7575 2.99213 35.794 2.88915L35.9171 2.5415C35.9584 2.42467 36 2.30801 36.0421 2.19189L36.1671 1.84619C36.2069 1.73626 36.2454 1.62454 36.2823 1.51123L36.3985 1.15576C36.432 1.05281 36.4591 0.951449 36.4805 0.852045L36.5567 0.50146C36.5643 0.466253 36.5733 0.42859 36.584 0.393061C36.5898 0.373964 36.6125 0.29546 36.6641 0.22021C36.6808 0.195998 36.7748 0.057059 36.9669 0.0131783ZM56.8116 50.1362L57.0206 50.3091C56.8941 50.2578 56.7558 50.1679 56.6544 50.0024C56.7069 50.0468 56.7586 50.0922 56.8116 50.1362ZM40.3926 33.23C40.5512 33.4284 40.6778 33.6478 40.7725 33.8862L41.0049 34.4702C41.054 34.5938 41.1267 34.6992 41.2276 34.7905L41.6973 35.2153C41.8704 35.3717 42.0311 35.5377 42.1778 35.7134L42.5733 36.187C42.7432 36.3906 42.8731 36.6204 42.9629 36.8726L43.1758 37.4702C43.2129 37.5743 43.2742 37.6582 43.3712 37.729L43.8956 38.1118C44.1087 38.2676 44.2925 38.4495 44.4434 38.6577L44.7999 39.1499C44.9211 39.3172 45.0415 39.4873 45.1602 39.6597L45.5098 40.1675C45.6039 40.3041 45.7145 40.4283 45.8409 40.5415L46.3057 40.9585C46.4988 41.1315 46.6604 41.3302 46.7891 41.5532L47.0958 42.0845C47.2129 42.2875 47.3146 42.5056 47.4004 42.7378L47.6319 43.3638C47.6445 43.3976 47.6556 43.4084 47.6592 43.4116C47.6631 43.4149 47.6797 43.4274 47.7247 43.437L48.3965 43.5806C48.7453 43.6547 49.032 43.8475 49.2266 44.1479L49.5919 44.7124C49.6707 44.8341 49.7602 44.9122 49.8594 44.9624L50.4112 45.2417C50.5566 45.3152 50.7175 45.3732 50.8956 45.4136L51.5401 45.5591C51.8347 45.6259 52.0976 45.7613 52.3194 45.9644L52.7891 46.3931C52.9951 46.5817 53.1573 46.8076 53.2764 47.064L53.5547 47.6636C53.6077 47.7775 53.6778 47.8508 53.7657 47.9019L54.3077 48.2163C54.5006 48.3282 54.6869 48.4475 54.8663 48.5747L55.2354 48.8364L54.9366 48.8315L54.6348 48.8179C54.4747 48.8125 54.3154 48.7959 54.1563 48.7671L53.8546 48.7153L53.5538 48.6577C53.3868 48.6273 53.2167 48.5871 53.0469 48.5356L52.7462 48.4399L52.4463 48.3511C52.074 48.2378 51.6921 48.2519 51.3321 48.3638L51.0049 48.4653L50.7032 48.5561L50.4669 48.4077L50.1856 48.2349C49.8895 48.0509 49.5594 47.944 49.2061 47.9272L48.8917 47.9087L48.585 47.896C48.5413 47.8938 48.5119 47.8849 48.4815 47.8628L48.2383 47.6782L47.9883 47.4985C47.7051 47.2901 47.3821 47.1704 47.0411 47.1216L46.7012 47.0698L46.4317 47.0308L46.3116 46.7944L46.1446 46.5005C45.9511 46.1493 45.658 45.8731 45.2735 45.7183L44.9786 45.5972L44.6846 45.4819C44.4913 45.4041 44.3016 45.3232 44.1143 45.2456L43.8262 45.1294L43.545 45.0073C43.3547 44.9284 43.1584 44.85 42.9678 44.771L42.6866 44.6558L42.3985 44.5337C42.344 44.5109 42.2947 44.4747 42.2452 44.4116L42.046 44.1626L41.8477 43.9058C41.6293 43.6279 41.3499 43.4137 41.0215 43.2788L40.7276 43.1567L40.4317 43.0425C40.3152 42.9946 40.2151 42.9286 40.1309 42.856L39.67 42.4585C39.4237 42.2467 39.1394 42.0947 38.8311 41.9976L38.5118 41.896L38.2676 41.8188L38.0958 41.2993C38.051 41.1616 38.0343 41.0394 38.0313 40.9351L38.0176 40.647L38.0118 40.3589C38.0061 40.158 37.9996 39.9506 37.9864 39.7378L37.9669 39.4302L37.9473 39.1167C37.9392 38.982 37.9484 38.85 37.9737 38.7192L38.0313 38.4116L38.0879 38.1108C38.1154 37.9705 38.163 37.8318 38.2227 37.6948L38.3448 37.4067L38.4727 37.1186C38.5813 36.8692 38.658 36.6097 38.7032 36.3433L38.8057 35.7417C38.8375 35.5537 38.8729 35.3591 38.9141 35.1645L38.9786 34.852L39.0489 34.5435C39.0546 34.5167 39.0623 34.5017 39.0879 34.48L39.5743 34.0698C39.8317 33.8511 40.0656 33.5412 40.2784 33.1997L40.3174 33.1362L40.3926 33.23ZM30.5762 23.2993C30.4029 23.2867 30.2303 23.3047 30.0616 23.3462L29.8809 23.3892L29.7042 23.4341C29.5929 23.4614 29.4873 23.4843 29.3887 23.5034L29.2237 23.5337L29.0626 23.5659C28.9197 23.5938 28.7725 23.6639 28.6583 23.7954C28.6033 23.8588 28.5629 23.9272 28.5352 23.9956L28.4825 24.1997L28.459 24.3804L28.4356 24.564C28.3987 24.8505 28.5026 25.1067 28.6973 25.2974L28.8389 25.436L28.9776 25.5747C29.048 25.6435 29.1064 25.7111 29.1504 25.7778L29.2501 25.9282L29.3467 26.0786C29.4747 26.2732 29.6618 26.4149 29.8926 26.478L30.0577 26.5239L30.2227 26.5659C30.2935 26.5852 30.3732 26.6169 30.4571 26.6616L30.626 26.7544L30.795 26.8423C30.9832 26.9424 31.1913 26.9918 31.4063 26.981L31.5909 26.9692L31.7745 26.9614C31.9271 26.9537 32.08 26.9308 32.2286 26.896L32.4083 26.854L32.586 26.812C32.7601 26.7711 32.9254 26.7029 33.0743 26.604L33.2227 26.5044L33.3692 26.4087C33.3861 26.3974 33.4186 26.3826 33.4805 26.3784L33.6846 26.3618L33.8838 26.3511C33.9604 26.346 34.0546 26.3364 34.1387 26.313C34.1786 26.3018 34.2533 26.2783 34.3262 26.228C34.4008 26.1764 34.5345 26.0487 34.5499 25.8354L34.5528 25.7935L34.5567 25.7476C34.5638 25.6478 34.5395 25.5679 34.5264 25.5288C34.5112 25.4836 34.4913 25.4432 34.4756 25.4136C34.4448 25.3554 34.4073 25.2954 34.3682 25.2407L34.2647 25.0942L34.1602 24.9517C34.0878 24.8505 34.0124 24.7456 33.9307 24.6411L33.8116 24.4917L33.6963 24.3413C33.5628 24.1708 33.3884 24.0455 33.1856 23.9692L33.0088 23.9028L32.8321 23.8345C32.6964 23.7835 32.5563 23.7411 32.42 23.7075L32.2481 23.6655L32.0713 23.6235C31.967 23.5978 31.8624 23.567 31.7598 23.5337L31.5909 23.477L31.4171 23.4224C31.2646 23.3728 31.1061 23.3435 30.9454 23.3315L30.5762 23.2993ZM30.296 24.2993C30.2588 24.5456 30.3155 24.8694 30.5098 25.1245L30.6212 25.2661L30.7296 25.4097C30.8128 25.5185 30.9429 25.6343 31.128 25.6782C31.3147 25.7222 31.4831 25.6757 31.6085 25.6118L31.9239 25.4517C31.9911 25.4172 32.1415 25.3345 32.2305 25.1704C32.2848 25.0694 32.2157 24.8051 32.1856 24.6636C32.2824 24.6874 32.385 24.7183 32.4864 24.7563L32.6631 24.8218L32.8399 24.8911C32.8732 24.9037 32.8977 24.9204 32.92 24.9487L33.0391 25.0981L33.1544 25.2485C33.1988 25.3053 33.2406 25.3627 33.2813 25.4175C33.1213 25.4444 32.9638 25.4959 32.8233 25.5894L32.6778 25.686L32.5284 25.7866C32.4815 25.8175 32.4274 25.8408 32.3633 25.856L32.002 25.9399C31.9114 25.9611 31.8193 25.9742 31.7256 25.979L31.5401 25.9888L31.3565 25.9976C31.3253 25.9991 31.2935 25.9935 31.2569 25.9741L31.087 25.8862L30.918 25.7935C30.7775 25.7186 30.6331 25.6573 30.4844 25.6167L30.3194 25.5747L30.1612 25.5288L30.0733 25.3901L29.9737 25.2407C29.8869 25.1087 29.7818 24.9856 29.6651 24.8716L29.42 24.6255L29.4356 24.5063V24.4917L29.5743 24.4683C29.6908 24.4457 29.8128 24.4181 29.9385 24.3872L30.1192 24.3452L30.296 24.2993ZM0.403379 19.3276C0.401929 19.3279 0.40075 19.3285 0.40045 19.3286C0.400706 19.3285 0.401983 19.3282 0.404356 19.3276L0.405333 19.3267L0.403379 19.3276Z" fill="#DCDCDC"/>
<path d="M28.7243 32.1045C29.1578 31.9742 29.4036 31.5171 29.2732 31.0835C29.1428 30.65 28.6857 30.4043 28.2522 30.5346L28.4882 31.3196L28.7243 32.1045ZM28.3925 31.3484L28.5855 32.145L28.6072 32.1398L28.6285 32.1333L28.3925 31.3484ZM26.9632 31.5217L27.214 30.7414L26.9632 31.5217ZM26.3496 31.3245L26.0988 32.1049L26.3496 31.3245ZM24.6173 31.9282L24.3059 31.17L24.6173 31.9282ZM24.0589 32.1575L23.7475 31.3993L24.0589 32.1575ZM23.5149 32.3973L23.1646 31.6563L23.5149 32.3973ZM23.2502 32.5225L23.6005 33.2636L23.2502 32.5225ZM22.9854 32.6477L22.635 31.9067L22.9854 32.6477ZM22.496 33.3399L21.7339 33.038L22.496 33.3399ZM22.4131 34.142L21.7113 34.5654L22.4131 34.142ZM22.6967 34.612L21.9948 35.0355L22.6967 34.612ZM23.0973 34.9247L22.8619 35.7098L23.0973 34.9247ZM23.6149 35.0799L23.3795 35.865L23.6149 35.0799ZM24.2003 35.2068L24.0778 36.0173L24.2003 35.2068ZM24.5268 35.2562L24.4043 36.0666L24.5268 35.2562ZM26.7285 33.84L26.2078 33.2069L26.7285 33.84ZM27.0802 33.3693L27.8268 33.7076L27.0802 33.3693ZM27.3422 32.791L26.5956 32.4527L27.3422 32.791ZM27.7754 32.4121L28.009 33.1978L27.7754 32.4121ZM28.6725 32.1218L29.4162 31.7772L28.6725 32.1218ZM28.6629 32.1011L29.4066 31.7564L29.1594 31.223L28.5748 31.2861L28.6629 32.1011ZM28.5587 32.1123L28.126 31.4162L28.6467 32.9273L28.5587 32.1123ZM29.0764 32.7557C29.4608 32.5167 29.5788 32.0113 29.3398 31.6268C29.1008 31.2424 28.5954 31.1244 28.2109 31.3634L28.6436 32.0595L29.0764 32.7557ZM28.4882 31.3196L28.2522 30.5346L28.1564 30.5634L28.3925 31.3484L28.6285 32.1333L28.7243 32.1045L28.4882 31.3196ZM28.3925 31.3484L28.1995 30.5518L27.6383 30.6877L27.8313 31.4844L28.0243 32.281L28.5855 32.145L28.3925 31.3484ZM27.8313 31.4844L27.6383 30.6877C27.4871 30.7243 27.3758 30.7394 27.2984 30.7428C27.219 30.7462 27.198 30.7362 27.214 30.7414L26.9632 31.5217L26.7124 32.3021C27.1344 32.4377 27.6037 32.3829 28.0243 32.281L27.8313 31.4844ZM26.9632 31.5217L27.214 30.7414L26.9072 30.6428L26.6564 31.4231L26.4056 32.2035L26.7124 32.3021L26.9632 31.5217ZM26.6564 31.4231L26.9072 30.6428L26.6004 30.5442L26.3496 31.3245L26.0988 32.1049L26.4056 32.2035L26.6564 31.4231ZM26.3496 31.3245L26.6004 30.5442C26.1893 30.412 25.7668 30.4463 25.3823 30.6434L25.7562 31.3728L26.1302 32.1022C26.1348 32.0999 26.1352 32.1002 26.1315 32.1013C26.1277 32.1024 26.1217 32.1037 26.1144 32.1043C26.1071 32.1049 26.101 32.1045 26.0971 32.1041C26.0934 32.1036 26.0938 32.1033 26.0988 32.1049L26.3496 31.3245ZM25.7562 31.3728L25.3823 30.6434L25.0957 30.7903L25.4697 31.5197L25.8436 32.2492L26.1302 32.1022L25.7562 31.3728ZM25.4697 31.5197L25.0957 30.7903L24.8091 30.9372L25.1831 31.6667L25.557 32.3961L25.8436 32.2492L25.4697 31.5197ZM25.1831 31.6667L24.8091 30.9372C24.6372 31.0254 24.4694 31.1028 24.3059 31.17L24.6173 31.9282L24.9286 32.6864C25.1374 32.6007 25.3468 32.5038 25.557 32.3961L25.1831 31.6667ZM24.6173 31.9282L24.3059 31.17L24.0267 31.2846L24.3381 32.0429L24.6494 32.8011L24.9286 32.6864L24.6173 31.9282ZM24.3381 32.0429L24.0267 31.2846L23.7475 31.3993L24.0589 32.1575L24.3702 32.9158L24.6494 32.8011L24.3381 32.0429ZM24.0589 32.1575L23.7475 31.3993C23.5486 31.481 23.3543 31.5666 23.1646 31.6563L23.5149 32.3973L23.8653 33.1384C24.0285 33.0612 24.1969 32.987 24.3702 32.9158L24.0589 32.1575ZM23.5149 32.3973L23.1646 31.6563L22.8998 31.7815L23.2502 32.5225L23.6005 33.2636L23.8653 33.1384L23.5149 32.3973ZM23.2502 32.5225L22.8998 31.7815L22.635 31.9067L22.9854 32.6477L23.3357 33.3887L23.6005 33.2636L23.2502 32.5225ZM22.9854 32.6477L22.635 31.9067C22.2622 32.083 21.9942 32.381 21.8463 32.7545L22.6083 33.0564L23.3703 33.3583C23.3725 33.3528 23.3733 33.3521 23.3717 33.3548C23.3699 33.3576 23.3665 33.3625 23.3612 33.3683C23.3558 33.3741 23.35 33.3792 23.3445 33.3832C23.3419 33.3851 23.3397 33.3865 23.3381 33.3874C23.3365 33.3884 23.3357 33.3888 23.3357 33.3887L22.9854 32.6477ZM22.6083 33.0564L21.8463 32.7545L21.7339 33.038L22.496 33.3399L23.258 33.6418L23.3703 33.3583L22.6083 33.0564ZM22.496 33.3399L21.7339 33.038L21.6216 33.3215L22.3836 33.6234L23.1457 33.9254L23.258 33.6418L22.496 33.3399ZM22.3836 33.6234L21.6216 33.3215C21.4645 33.7181 21.4686 34.1631 21.7113 34.5654L22.4131 34.142L23.115 33.7186C23.1326 33.7478 23.1501 33.7939 23.1532 33.8483C23.1561 33.8997 23.1445 33.9283 23.1457 33.9254L22.3836 33.6234ZM22.4131 34.142L21.7113 34.5654L21.8531 34.8004L22.5549 34.377L23.2567 33.9536L23.115 33.7186L22.4131 34.142ZM22.5549 34.377L21.8531 34.8004L21.9948 35.0355L22.6967 34.612L23.3985 34.1886L23.2567 33.9536L22.5549 34.377ZM22.6967 34.612L21.9948 35.0355C22.1927 35.3634 22.4909 35.5986 22.8619 35.7098L23.0973 34.9247L23.3327 34.1395C23.3377 34.141 23.3536 34.1471 23.372 34.1615C23.3805 34.1681 23.3872 34.1747 23.392 34.1803C23.3968 34.1857 23.3988 34.189 23.3985 34.1886L22.6967 34.612ZM23.0973 34.9247L22.8619 35.7098L23.1207 35.7874L23.3561 35.0023L23.5915 34.2171L23.3327 34.1395L23.0973 34.9247ZM23.3561 35.0023L23.1207 35.7874L23.3795 35.865L23.6149 35.0799L23.8504 34.2947L23.5915 34.2171L23.3561 35.0023ZM23.6149 35.0799L23.3795 35.865C23.5961 35.93 23.83 35.9799 24.0778 36.0173L24.2003 35.2068L24.3227 34.3964C24.1352 34.368 23.9788 34.3333 23.8504 34.2947L23.6149 35.0799ZM24.2003 35.2068L24.0778 36.0173L24.4043 36.0666L24.5268 35.2562L24.6492 34.4457L24.3227 34.3964L24.2003 35.2068ZM24.5268 35.2562L24.4043 36.0666L24.7308 36.116L24.8533 35.3055L24.9758 34.495L24.6492 34.4457L24.5268 35.2562ZM24.8533 35.3055L24.7308 36.116C25.2172 36.1895 25.6733 36.0299 26.0066 35.6652L25.4015 35.1122L24.7964 34.5593C24.8015 34.5538 24.8293 34.5271 24.881 34.5088C24.9327 34.4906 24.9701 34.4942 24.9758 34.495L24.8533 35.3055ZM25.4015 35.1122L26.0066 35.6652L26.2283 35.4226L25.6232 34.8696L25.0181 34.3167L24.7964 34.5593L25.4015 35.1122ZM25.6232 34.8696L26.2283 35.4226L26.4499 35.1799L25.8448 34.627L25.2397 34.0741L25.0181 34.3167L25.6232 34.8696ZM25.8448 34.627L26.4499 35.1799C26.5753 35.0427 26.6948 34.929 26.8079 34.836L26.2872 34.2029L25.7665 33.5699C25.5853 33.7189 25.4099 33.8879 25.2397 34.0741L25.8448 34.627ZM26.2872 34.2029L26.8079 34.836L27.0285 34.6545L26.5078 34.0214L25.9872 33.3884L25.7665 33.5699L26.2872 34.2029ZM26.5078 34.0214L27.0285 34.6545L27.2492 34.473L26.7285 33.84L26.2078 33.2069L25.9872 33.3884L26.5078 34.0214ZM26.7285 33.84L27.2492 34.473C27.5035 34.2638 27.6935 34.0018 27.8268 33.7076L27.0802 33.3693L26.3336 33.031C26.2922 33.1224 26.2477 33.1741 26.2078 33.2069L26.7285 33.84ZM27.0802 33.3693L27.8268 33.7076L27.9578 33.4185L27.2112 33.0802L26.4646 32.7419L26.3336 33.031L27.0802 33.3693ZM27.2112 33.0802L27.9578 33.4185L28.0888 33.1293L27.3422 32.791L26.5956 32.4527L26.4646 32.7419L27.2112 33.0802ZM27.3422 32.791L28.0888 33.1293C28.0892 33.1285 28.0803 33.1472 28.0557 33.1687C28.0444 33.1786 28.0332 33.186 28.0235 33.1912C28.0141 33.1963 28.0086 33.1979 28.009 33.1978L27.7754 32.4121L27.5419 31.6264C27.1109 31.7545 26.7803 32.0452 26.5956 32.4527L27.3422 32.791ZM27.7754 32.4121L28.009 33.1978L28.3112 33.108L28.0777 32.3223L27.8442 31.5366L27.5419 31.6264L27.7754 32.4121ZM28.0777 32.3223L28.3112 33.108L28.6134 33.0181L28.3799 32.2324L28.1464 31.4467L27.8442 31.5366L28.0777 32.3223ZM28.3799 32.2324L28.6134 33.0181C28.7182 32.987 28.8163 32.956 28.894 32.9266C28.9266 32.9143 28.9905 32.8894 29.0564 32.8528C29.0811 32.8391 29.1655 32.792 29.2501 32.7073C29.2821 32.6752 29.6566 32.2959 29.4162 31.7772L28.6725 32.1218L27.9288 32.4665C27.8183 32.228 27.8439 31.992 27.9097 31.8247C27.9666 31.6801 28.0504 31.5886 28.09 31.5489C28.1697 31.4692 28.246 31.4277 28.2592 31.4203C28.3023 31.3963 28.3305 31.387 28.3144 31.3931C28.2945 31.4006 28.2431 31.418 28.1464 31.4467L28.3799 32.2324ZM28.6725 32.1218L29.4162 31.7772L29.4066 31.7564L28.6629 32.1011L27.9192 32.4457L27.9288 32.4665L28.6725 32.1218ZM28.6629 32.1011L28.5748 31.2861L28.4707 31.2974L28.5587 32.1123L28.6467 32.9273L28.7509 32.916L28.6629 32.1011ZM28.5587 32.1123L28.9914 32.8085L29.0764 32.7557L28.6436 32.0595L28.2109 31.3634L28.126 31.4162L28.5587 32.1123Z" fill="#DCDCDC"/>
<path d="M35.7732 53.1764C35.9453 52.7577 35.7454 52.2788 35.3267 52.1066C34.908 51.9345 34.4291 52.1344 34.257 52.5531L35.0151 52.8648L35.7732 53.1764ZM34.9771 52.9572L34.2189 52.6456L34.2118 52.6631L34.2054 52.6809L34.9771 52.9572ZM34.786 53.4909L34.0143 53.2145L34.786 53.4909ZM34.3939 54.2722L33.7573 53.7559L34.3939 54.2722ZM33.9919 54.7677L34.6285 55.2841L33.9919 54.7677ZM33.743 55.3296L32.9327 55.206L33.743 55.3296ZM33.6951 55.6437L34.5054 55.7673L33.6951 55.6437ZM33.6472 55.9578L32.8369 55.8341V55.8341L33.6472 55.9578ZM33.487 56.5614L32.7227 56.2652L33.487 56.5614ZM33.3747 56.851L32.6105 56.5547L33.3747 56.851ZM33.2625 57.1406L34.0267 57.4369L33.2625 57.1406ZM32.9901 57.6904L32.292 57.2608L32.9901 57.6904ZM32.6698 58.2109L33.3679 58.6404L32.6698 58.2109ZM32.6327 58.7384L33.3773 58.3956L32.6327 58.7384ZM32.8789 59.273L32.1343 59.6158L32.8789 59.273ZM33.3105 59.5549L33.2719 60.3736L33.3105 59.5549ZM33.9276 59.584L33.9662 58.7652L33.9276 59.584ZM33.9599 59.7291L34.3103 60.4701L33.9599 59.7291ZM33.4075 59.9904L33.0571 59.2494L33.4075 59.9904ZM32.8222 60.0306L33.0523 59.2439L32.8222 60.0306ZM32.2041 59.8498L32.4342 59.0631L32.2041 59.8498ZM31.6012 59.9126L31.2223 59.1857V59.1857L31.6012 59.9126ZM31.3073 60.0658L31.6861 60.7926L31.3073 60.0658ZM31.0134 60.2189L30.6346 59.4921L31.0134 60.2189ZM30.4106 60.388L30.4527 61.2066V61.2066L30.4106 60.388ZM30.1016 60.404L30.0594 59.5854L30.1016 60.404ZM29.7926 60.4199L29.8348 61.2385L29.7926 60.4199ZM29.191 60.5451L28.9043 59.7772L29.191 60.5451ZM28.8984 60.6543L28.6117 59.8864L28.8984 60.6543ZM28.6058 60.7635L28.8925 61.5314L28.6058 60.7635ZM27.9934 60.8288L27.8816 61.6408L27.9934 60.8288ZM27.3538 60.7407L27.242 61.5527L27.3538 60.7407ZM26.7317 60.7531L26.5814 59.9473L26.7317 60.7531ZM26.127 60.8659L26.2773 61.6716L26.127 60.8659ZM25.519 60.9651L25.6328 61.7768L25.519 60.9651ZM25.2133 61.008L25.0995 60.1962L25.2133 61.008ZM24.9077 61.0508L24.7939 60.2391L24.9077 61.0508ZM24.4241 61.2242L23.9393 60.5632L24.4241 61.2242ZM24.0683 61.4851L24.553 62.1461L24.0683 61.4851ZM23.6719 61.8353L23.0908 61.2572L23.6719 61.8353ZM23.2349 62.2745L22.6538 61.6965L23.2349 62.2745ZM22.7797 62.7006L23.3184 63.3184L22.7797 62.7006ZM22.3063 63.1134L21.7675 62.4957L22.3063 63.1134ZM21.8613 63.1929L22.2881 62.4931L21.8613 63.1929ZM21.4448 62.9388L21.018 63.6386L21.4448 62.9388ZM21.6278 61.9727L20.8849 61.6264L21.6278 61.9727ZM22.0206 61.5142L21.559 60.8368L22.0206 61.5142ZM22.2831 61.3353L22.7447 62.0126L22.2831 61.3353ZM22.5456 61.1564L22.084 60.4791L22.5456 61.1564ZM23.015 60.726L22.382 60.2053L23.015 60.726ZM23.4289 60.223L24.0619 60.7438L23.4289 60.223ZM23.9478 59.9384L24.034 60.7536L23.9478 59.9384ZM24.2596 59.9054L24.1734 59.0903L24.2596 59.9054ZM24.5715 59.8725L24.6578 60.6876L24.5715 59.8725ZM25.1899 59.7993L25.0833 58.9865L25.1899 59.7993ZM25.8028 59.7188L25.9094 60.5316L25.8028 59.7188ZM26.4112 59.6167L26.2464 58.8137L26.4112 59.6167ZM27.015 59.4928L27.1798 60.2957L27.015 59.4928ZM28.8853 59.5351L29.1801 60.2999L28.8853 59.5351ZM29.1799 59.4215L29.4747 60.1863L29.1799 59.4215ZM29.4745 59.3079L29.1796 58.5431L29.4745 59.3079ZM30.0731 59.1484L30.1955 59.9589L30.0731 59.1484ZM30.3771 59.1025L30.4995 59.913L30.3771 59.1025ZM30.6811 59.0566L30.5587 58.2461L30.6811 59.0566ZM31.2142 58.8243L30.6969 58.1885L31.2142 58.8243ZM31.6724 58.4515L32.1897 59.0873L31.6724 58.4515ZM31.8727 57.9477L32.6891 57.8738L31.8727 57.9477ZM31.8153 57.3131L32.6316 57.2391L31.8153 57.3131ZM31.8728 56.742L32.6488 57.0059L31.8728 56.742ZM31.959 56.4883L31.183 56.2245L31.959 56.4883ZM32.0453 56.2346L32.8213 56.4985L32.0453 56.2346ZM32.3389 55.4937L31.5847 55.1727L32.3389 55.4937ZM32.6671 54.7211L33.4219 55.0407L32.6671 54.7211ZM32.7879 54.4358L32.033 54.1163L32.7879 54.4358ZM32.9087 54.1505L32.1538 53.8309L32.9087 54.1505ZM33.1267 53.5719L32.3487 53.3138L33.1267 53.5719ZM33.3213 52.9853L34.0993 53.2434L33.3213 52.9853ZM33.5139 52.6184L33.0127 51.9698L33.5139 52.6184ZM33.6092 52.5447L33.3412 51.7701L33.2143 51.814L33.108 51.8961L33.6092 52.5447ZM33.7644 52.491L34.0324 53.2656L34.3956 53.14L34.5313 52.7805L33.7644 52.491ZM34.5666 52.6869C34.7265 52.2634 34.5127 51.7904 34.0892 51.6306C33.6657 51.4707 33.1927 51.6845 33.0329 52.108L33.7998 52.3975L34.5666 52.6869ZM35.0151 52.8648L34.257 52.5531L34.2189 52.6456L34.9771 52.9572L35.7352 53.2689L35.7732 53.1764L35.0151 52.8648ZM34.9771 52.9572L34.2054 52.6809L34.0143 53.2145L34.786 53.4909L35.5576 53.7672L35.7487 53.2336L34.9771 52.9572ZM34.786 53.4909L34.0143 53.2145C33.8978 53.5398 33.8044 53.6978 33.7573 53.7559L34.3939 54.2722L35.0304 54.7886C35.2513 54.5163 35.4193 54.1534 35.5576 53.7672L34.786 53.4909ZM34.3939 54.2722L33.7573 53.7559L33.5563 54.0036L34.1929 54.52L34.8295 55.0364L35.0304 54.7886L34.3939 54.2722ZM34.1929 54.52L33.5563 54.0036L33.3554 54.2514L33.9919 54.7677L34.6285 55.2841L34.8295 55.0364L34.1929 54.52ZM33.9919 54.7677L33.3554 54.2514C33.13 54.5292 32.9867 54.8519 32.9327 55.206L33.743 55.3296L34.5533 55.4532C34.5632 55.3885 34.5859 55.3366 34.6285 55.2841L33.9919 54.7677ZM33.743 55.3296L32.9327 55.206L32.8848 55.52L33.6951 55.6437L34.5054 55.7673L34.5533 55.4532L33.743 55.3296ZM33.6951 55.6437L32.8848 55.52L32.8369 55.8341L33.6472 55.9578L34.4575 56.0814L34.5054 55.7673L33.6951 55.6437ZM33.6472 55.9578L32.8369 55.8341C32.8137 55.9858 32.7755 56.1291 32.7227 56.2652L33.487 56.5614L34.2513 56.8577C34.3482 56.6077 34.4167 56.3485 34.4575 56.0814L33.6472 55.9578ZM33.487 56.5614L32.7227 56.2652L32.6105 56.5547L33.3747 56.851L34.139 57.1473L34.2513 56.8577L33.487 56.5614ZM33.3747 56.851L32.6105 56.5547L32.4982 56.8443L33.2625 57.1406L34.0267 57.4369L34.139 57.1473L33.3747 56.851ZM33.2625 57.1406L32.4982 56.8443C32.4411 56.9918 32.3723 57.1304 32.292 57.2608L32.9901 57.6904L33.6882 58.12C33.8214 57.9035 33.9342 57.6755 34.0267 57.4369L33.2625 57.1406ZM32.9901 57.6904L32.292 57.2608L32.1319 57.521L32.8299 57.9506L33.528 58.3802L33.6882 58.12L32.9901 57.6904ZM32.8299 57.9506L32.1319 57.521L31.9717 57.7813L32.6698 58.2109L33.3679 58.6404L33.528 58.3802L32.8299 57.9506ZM32.6698 58.2109L31.9717 57.7813C31.7279 58.1775 31.6863 58.6427 31.8882 59.0812L32.6327 58.7384L33.3773 58.3956C33.3873 58.4172 33.4027 58.4658 33.3981 58.5303C33.3937 58.5934 33.373 58.6322 33.3679 58.6404L32.6698 58.2109ZM32.6327 58.7384L31.8882 59.0812L32.0112 59.3485L32.7558 59.0057L33.5004 58.6629L33.3773 58.3956L32.6327 58.7384ZM32.7558 59.0057L32.0112 59.3485L32.1343 59.6158L32.8789 59.273L33.6234 58.9302L33.5004 58.6629L32.7558 59.0057ZM32.8789 59.273L32.1343 59.6158C32.2305 59.8247 32.3815 60.0207 32.6001 60.1634C32.8166 60.3048 33.0522 60.3633 33.2719 60.3736L33.3105 59.5549L33.3491 58.7361C33.3631 58.7368 33.4239 58.7434 33.4965 58.7908C33.5712 58.8397 33.6093 58.8996 33.6234 58.9302L32.8789 59.273ZM33.3105 59.5549L33.2719 60.3736L33.5804 60.3882L33.619 59.5694L33.6576 58.7507L33.3491 58.7361L33.3105 59.5549ZM33.619 59.5694L33.5804 60.3882L33.889 60.4027L33.9276 59.584L33.9662 58.7652L33.6576 58.7507L33.619 59.5694ZM33.9276 59.584L33.889 60.4027C33.9218 60.4043 33.8914 60.4059 33.8329 60.3902C33.8055 60.3828 33.7238 60.3595 33.6298 60.2983C33.5354 60.2368 33.352 60.0848 33.2899 59.8057C33.2266 59.5217 33.3318 59.3015 33.3987 59.199C33.4634 59.1001 33.5332 59.0436 33.5568 59.0252C33.6073 58.9857 33.6387 58.9743 33.6095 58.9881L33.9599 59.7291L34.3103 60.4701C34.3732 60.4404 34.4723 60.3903 34.5661 60.3169C34.6114 60.2816 34.6968 60.2094 34.7709 60.096C34.8474 59.979 34.9559 59.7454 34.89 59.4493C34.8251 59.1581 34.633 58.9952 34.5238 58.9241C34.4148 58.8533 34.3122 58.8214 34.2577 58.8068C34.145 58.7766 34.0362 58.7685 33.9662 58.7652L33.9276 59.584ZM33.9599 59.7291L33.6095 58.9881L33.3333 59.1188L33.6837 59.8597L34.0341 60.6007L34.3103 60.4701L33.9599 59.7291ZM33.6837 59.8597L33.3333 59.1188L33.0571 59.2494L33.4075 59.9904L33.7579 60.7314L34.0341 60.6007L33.6837 59.8597ZM33.4075 59.9904L33.0571 59.2494C33.0544 59.2506 33.0547 59.2503 33.0574 59.2495C33.0601 59.2488 33.0635 59.2482 33.0668 59.248C33.0701 59.2478 33.0713 59.248 33.0698 59.2478C33.0681 59.2477 33.0624 59.2468 33.0523 59.2439L32.8222 60.0306L32.5921 60.8173C32.9794 60.9306 33.382 60.9091 33.7579 60.7314L33.4075 59.9904ZM32.8222 60.0306L33.0523 59.2439L32.7433 59.1535L32.5132 59.9402L32.2831 60.7269L32.5921 60.8173L32.8222 60.0306ZM32.5132 59.9402L32.7433 59.1535L32.4342 59.0631L32.2041 59.8498L31.974 60.6365L32.2831 60.7269L32.5132 59.9402ZM32.2041 59.8498L32.4342 59.0631C32.0186 58.9415 31.5998 58.989 31.2223 59.1857L31.6012 59.9126L31.98 60.6395C31.9881 60.6352 31.992 60.6341 31.9918 60.6341C31.9914 60.6343 31.9885 60.6351 31.9837 60.6356C31.9789 60.6361 31.9746 60.636 31.9717 60.6357C31.9689 60.6354 31.9694 60.6352 31.974 60.6365L32.2041 59.8498ZM31.6012 59.9126L31.2223 59.1857L30.9285 59.3389L31.3073 60.0658L31.6861 60.7926L31.98 60.6395L31.6012 59.9126ZM31.3073 60.0658L30.9285 59.3389L30.6346 59.4921L31.0134 60.2189L31.3923 60.9458L31.6861 60.7926L31.3073 60.0658ZM31.0134 60.2189L30.6346 59.4921C30.5354 59.5438 30.4486 59.5653 30.3684 59.5695L30.4106 60.388L30.4527 61.2066C30.7844 61.1895 31.0996 61.0984 31.3923 60.9458L31.0134 60.2189ZM30.4106 60.388L30.3684 59.5695L30.0594 59.5854L30.1016 60.404L30.1438 61.2226L30.4527 61.2066L30.4106 60.388ZM30.1016 60.404L30.0594 59.5854L29.7504 59.6013L29.7926 60.4199L29.8348 61.2385L30.1438 61.2226L30.1016 60.404ZM29.7926 60.4199L29.7504 59.6013C29.46 59.6163 29.177 59.6753 28.9043 59.7772L29.191 60.5451L29.4777 61.313C29.5951 61.2691 29.7132 61.2447 29.8348 61.2385L29.7926 60.4199ZM29.191 60.5451L28.9043 59.7772L28.6117 59.8864L28.8984 60.6543L29.1851 61.4222L29.4777 61.313L29.191 60.5451ZM28.8984 60.6543L28.6117 59.8864L28.3191 59.9956L28.6058 60.7635L28.8925 61.5314L29.1851 61.4222L28.8984 60.6543ZM28.6058 60.7635L28.3191 59.9956C28.2555 60.0194 28.1887 60.0282 28.1052 60.0167L27.9934 60.8288L27.8816 61.6408C28.2246 61.688 28.5659 61.6534 28.8925 61.5314L28.6058 60.7635ZM27.9934 60.8288L28.1052 60.0167L27.7854 59.9727L27.6736 60.7847L27.5618 61.5968L27.8816 61.6408L27.9934 60.8288ZM27.6736 60.7847L27.7854 59.9727L27.4656 59.9287L27.3538 60.7407L27.242 61.5527L27.5618 61.5968L27.6736 60.7847ZM27.3538 60.7407L27.4656 59.9287C27.1696 59.888 26.8736 59.8928 26.5814 59.9473L26.7317 60.7531L26.882 61.5589C26.9929 61.5382 27.1116 61.5348 27.242 61.5527L27.3538 60.7407ZM26.7317 60.7531L26.5814 59.9473L26.2791 60.0037L26.4294 60.8095L26.5796 61.6152L26.882 61.5589L26.7317 60.7531ZM26.4294 60.8095L26.2791 60.0037L25.9767 60.0601L26.127 60.8659L26.2773 61.6716L26.5796 61.6152L26.4294 60.8095ZM26.127 60.8659L25.9767 60.0601C25.7873 60.0954 25.5968 60.1265 25.4052 60.1534L25.519 60.9651L25.6328 61.7768C25.8488 61.7466 26.0636 61.7115 26.2773 61.6716L26.127 60.8659ZM25.519 60.9651L25.4052 60.1534L25.0995 60.1962L25.2133 61.008L25.3272 61.8197L25.6328 61.7768L25.519 60.9651ZM25.2133 61.008L25.0995 60.1962L24.7939 60.2391L24.9077 61.0508L25.0215 61.8626L25.3272 61.8197L25.2133 61.008ZM24.9077 61.0508L24.7939 60.2391C24.5065 60.2794 24.2021 60.3705 23.9393 60.5632L24.4241 61.2242L24.9089 61.8851C24.895 61.8953 24.8924 61.8937 24.9105 61.8872C24.9291 61.8805 24.9644 61.8706 25.0215 61.8626L24.9077 61.0508ZM24.4241 61.2242L23.9393 60.5632L23.7614 60.6937L24.2462 61.3547L24.7309 62.0156L24.9089 61.8851L24.4241 61.2242ZM24.2462 61.3547L23.7614 60.6937L23.5835 60.8242L24.0683 61.4851L24.553 62.1461L24.7309 62.0156L24.2462 61.3547ZM24.0683 61.4851L23.5835 60.8242C23.4201 60.944 23.2554 61.0917 23.0908 61.2572L23.6719 61.8353L24.253 62.4133C24.3797 62.286 24.4792 62.2002 24.553 62.1461L24.0683 61.4851ZM23.6719 61.8353L23.0908 61.2572L22.8723 61.4768L23.4534 62.0549L24.0345 62.633L24.253 62.4133L23.6719 61.8353ZM23.4534 62.0549L22.8723 61.4768L22.6538 61.6965L23.2349 62.2745L23.816 62.8526L24.0345 62.633L23.4534 62.0549ZM23.2349 62.2745L22.6538 61.6965C22.522 61.829 22.3844 61.9578 22.241 62.0828L22.7797 62.7006L23.3184 63.3184C23.4906 63.1682 23.6565 63.013 23.816 62.8526L23.2349 62.2745ZM22.7797 62.7006L22.241 62.0828L22.0043 62.2892L22.543 62.907L23.0817 63.5248L23.3184 63.3184L22.7797 62.7006ZM22.543 62.907L22.0043 62.2892L21.7675 62.4957L22.3063 63.1134L22.845 63.7312L23.0817 63.5248L22.543 62.907ZM22.3063 63.1134L21.7675 62.4957C21.7589 62.5032 21.8142 62.4507 21.9326 62.4296C22.0718 62.4048 22.2014 62.4402 22.2881 62.4931L21.8613 63.1929L21.4345 63.8926C21.66 64.0302 21.9332 64.0947 22.2207 64.0434C22.4874 63.9958 22.6958 63.8613 22.845 63.7312L22.3063 63.1134ZM21.8613 63.1929L22.2881 62.4931L22.0799 62.3661L21.6531 63.0659L21.2263 63.7656L21.4345 63.8926L21.8613 63.1929ZM21.6531 63.0659L22.0799 62.3661L21.8717 62.2391L21.4448 62.9388L21.018 63.6386L21.2263 63.7656L21.6531 63.0659ZM21.4448 62.9388L21.8717 62.2391C21.9612 62.2937 22.088 62.4195 22.1263 62.6196C22.1425 62.704 22.1364 62.7725 22.1283 62.8149C22.1205 62.8561 22.11 62.8783 22.1099 62.8784L21.367 62.5321L20.6241 62.1858C20.5417 62.3625 20.4585 62.6262 20.5162 62.9278C20.5804 63.2634 20.7896 63.4993 21.018 63.6386L21.4448 62.9388ZM21.367 62.5321L22.1099 62.8784L22.2403 62.5987L21.4974 62.2524L20.7545 61.9061L20.6241 62.1858L21.367 62.5321ZM21.4974 62.2524L22.2403 62.5987L22.3707 62.319L21.6278 61.9727L20.8849 61.6264L20.7545 61.9061L21.4974 62.2524ZM21.6278 61.9727L22.3707 62.319C22.3934 62.2702 22.4253 62.2303 22.4822 62.1915L22.0206 61.5142L21.559 60.8368C21.266 61.0365 21.036 61.3023 20.8849 61.6264L21.6278 61.9727ZM22.0206 61.5142L22.4822 62.1915L22.7447 62.0126L22.2831 61.3353L21.8215 60.6579L21.559 60.8368L22.0206 61.5142ZM22.2831 61.3353L22.7447 62.0126L23.0071 61.8338L22.5456 61.1564L22.084 60.4791L21.8215 60.6579L22.2831 61.3353ZM22.5456 61.1564L23.0071 61.8338C23.248 61.6696 23.4618 61.473 23.648 61.2468L23.015 60.726L22.382 60.2053C22.2922 60.3144 22.1931 60.4048 22.084 60.4791L22.5456 61.1564ZM23.015 60.726L23.648 61.2468L23.8549 60.9953L23.222 60.4745L22.589 59.9537L22.382 60.2053L23.015 60.726ZM23.222 60.4745L23.8549 60.9953L24.0619 60.7438L23.4289 60.223L22.7959 59.7022L22.589 59.9537L23.222 60.4745ZM23.4289 60.223L24.0619 60.7438C24.067 60.7375 24.0692 60.736 24.0678 60.7371C24.0662 60.7384 24.0623 60.7414 24.0562 60.7448C24.0501 60.7481 24.0439 60.7506 24.0388 60.7522C24.0337 60.7538 24.0317 60.7538 24.034 60.7536L23.9478 59.9384L23.8615 59.1233C23.4308 59.1689 23.0646 59.3756 22.7959 59.7022L23.4289 60.223ZM23.9478 59.9384L24.034 60.7536L24.3459 60.7206L24.2596 59.9054L24.1734 59.0903L23.8615 59.1233L23.9478 59.9384ZM24.2596 59.9054L24.3459 60.7206L24.6578 60.6876L24.5715 59.8725L24.4853 59.0573L24.1734 59.0903L24.2596 59.9054ZM24.5715 59.8725L24.6578 60.6876C24.8724 60.6649 25.0853 60.6397 25.2965 60.612L25.1899 59.7993L25.0833 58.9865C24.8858 59.0124 24.6865 59.036 24.4853 59.0573L24.5715 59.8725ZM25.1899 59.7993L25.2965 60.612L25.603 60.5718L25.4963 59.759L25.3897 58.9463L25.0833 58.9865L25.1899 59.7993ZM25.4963 59.759L25.603 60.5718L25.9094 60.5316L25.8028 59.7188L25.6962 58.9061L25.3897 58.9463L25.4963 59.759ZM25.8028 59.7188L25.9094 60.5316C26.1332 60.5022 26.3554 60.4649 26.576 60.4196L26.4112 59.6167L26.2464 58.8137C26.0645 58.8511 25.8811 58.8819 25.6962 58.9061L25.8028 59.7188ZM26.4112 59.6167L26.576 60.4196L26.8779 60.3577L26.7131 59.5547L26.5483 58.7518L26.2464 58.8137L26.4112 59.6167ZM26.7131 59.5547L26.8779 60.3577L27.1798 60.2957L27.015 59.4928L26.8503 58.6898L26.5483 58.7518L26.7131 59.5547ZM27.015 59.4928L27.1798 60.2957C27.2765 60.2759 27.3804 60.2732 27.4972 60.2932L27.6354 59.4853L27.7736 58.6773C27.4658 58.6247 27.1561 58.6271 26.8503 58.6898L27.015 59.4928ZM27.6354 59.4853L27.4972 60.2932L27.8156 60.3477L27.9538 59.5397L28.092 58.7318L27.7736 58.6773L27.6354 59.4853ZM27.9538 59.5397L27.8156 60.3477L28.134 60.4021L28.2722 59.5942L28.4104 58.7863L28.092 58.7318L27.9538 59.5397ZM28.2722 59.5942L28.134 60.4021C28.4884 60.4628 28.8426 60.43 29.1801 60.2999L28.8853 59.5351L28.5904 58.7703C28.5352 58.7916 28.4807 58.7983 28.4104 58.7863L28.2722 59.5942ZM28.8853 59.5351L29.1801 60.2999L29.4747 60.1863L29.1799 59.4215L28.885 58.6567L28.5904 58.7703L28.8853 59.5351ZM29.1799 59.4215L29.4747 60.1863L29.7693 60.0727L29.4745 59.3079L29.1796 58.5431L28.885 58.6567L29.1799 59.4215ZM29.4745 59.3079L29.7693 60.0727C29.9116 60.0179 30.0534 59.9804 30.1955 59.9589L30.0731 59.1484L29.9507 58.338C29.6875 58.3777 29.4302 58.4465 29.1796 58.5431L29.4745 59.3079ZM30.0731 59.1484L30.1955 59.9589L30.4995 59.913L30.3771 59.1025L30.2547 58.292L29.9507 58.338L30.0731 59.1484ZM30.3771 59.1025L30.4995 59.913L30.8035 59.8671L30.6811 59.0566L30.5587 58.2461L30.2547 58.292L30.3771 59.1025ZM30.6811 59.0566L30.8035 59.8671C31.1448 59.8155 31.4603 59.6807 31.7315 59.4601L31.2142 58.8243L30.6969 58.1885C30.6626 58.2164 30.6227 58.2365 30.5587 58.2461L30.6811 59.0566ZM31.2142 58.8243L31.7315 59.4601L31.9606 59.2737L31.4433 58.6379L30.926 58.0021L30.6969 58.1885L31.2142 58.8243ZM31.4433 58.6379L31.9606 59.2737L32.1897 59.0873L31.6724 58.4515L31.1551 57.8157L30.926 58.0021L31.4433 58.6379ZM31.6724 58.4515L32.1897 59.0873C32.573 58.7755 32.7305 58.3316 32.6891 57.8738L31.8727 57.9477L31.0564 58.0217C31.0564 58.0217 31.0535 57.9844 31.0754 57.9294C31.0983 57.8719 31.1329 57.8337 31.1551 57.8157L31.6724 58.4515ZM31.8727 57.9477L32.6891 57.8738L32.6603 57.5565L31.844 57.6304L31.0277 57.7043L31.0564 58.0217L31.8727 57.9477ZM31.844 57.6304L32.6603 57.5565L32.6316 57.2391L31.8153 57.3131L30.9989 57.387L31.0277 57.7043L31.844 57.6304ZM31.8153 57.3131L32.6316 57.2391C32.6208 57.1204 32.6345 57.0479 32.6488 57.0059L31.8728 56.742L31.0967 56.4782C30.996 56.7744 30.9713 57.0825 30.9989 57.387L31.8153 57.3131ZM31.8728 56.742L32.6488 57.0059L32.7351 56.7522L31.959 56.4883L31.183 56.2245L31.0967 56.4782L31.8728 56.742ZM31.959 56.4883L32.7351 56.7522L32.8213 56.4985L32.0453 56.2346L31.2692 55.9708L31.183 56.2245L31.959 56.4883ZM32.0453 56.2346L32.8213 56.4985C32.8723 56.3485 32.9284 56.2018 32.9894 56.0583L32.2352 55.7373L31.481 55.4163C31.4038 55.5977 31.3332 55.7826 31.2692 55.9708L32.0453 56.2346ZM32.2352 55.7373L32.9894 56.0583L33.0931 55.8147L32.3389 55.4937L31.5847 55.1727L31.481 55.4163L32.2352 55.7373ZM32.3389 55.4937L33.0931 55.8147L33.1968 55.5711L32.4426 55.2501L31.6884 54.9291L31.5847 55.1727L32.3389 55.4937ZM32.4426 55.2501L33.1968 55.5711C33.2662 55.4081 33.3412 55.2313 33.4219 55.0407L32.6671 54.7211L31.9123 54.4016C31.8319 54.5914 31.7573 54.7672 31.6884 54.9291L32.4426 55.2501ZM32.6671 54.7211L33.4219 55.0407L33.5427 54.7553L32.7879 54.4358L32.033 54.1163L31.9123 54.4016L32.6671 54.7211ZM32.7879 54.4358L33.5427 54.7553L33.6635 54.47L32.9087 54.1505L32.1538 53.8309L32.033 54.1163L32.7879 54.4358ZM32.9087 54.1505L33.6635 54.47C33.7525 54.2597 33.8329 54.0463 33.9047 53.83L33.1267 53.5719L32.3487 53.3138C32.2908 53.4885 32.2258 53.6609 32.1538 53.8309L32.9087 54.1505ZM33.1267 53.5719L33.9047 53.83L34.002 53.5367L33.224 53.2786L32.446 53.0205L32.3487 53.3138L33.1267 53.5719ZM33.224 53.2786L34.002 53.5367L34.0993 53.2434L33.3213 52.9853L32.5433 52.7272L32.446 53.0205L33.224 53.2786ZM33.3213 52.9853L34.0993 53.2434C34.111 53.2082 34.1211 53.181 34.1293 53.1607C34.1377 53.1401 34.1428 53.13 34.1439 53.1278C34.1454 53.1249 34.1392 53.1374 34.1234 53.1587C34.1151 53.1698 34.1027 53.1852 34.0858 53.2032C34.0689 53.2211 34.0455 53.2434 34.0151 53.2669L33.5139 52.6184L33.0127 51.9698C32.8434 52.1006 32.7452 52.2652 32.6923 52.366C32.6321 52.4807 32.5837 52.6056 32.5433 52.7272L33.3213 52.9853ZM33.5139 52.6184L34.0151 53.2669L34.1104 53.1933L33.6092 52.5447L33.108 51.8961L33.0127 51.9698L33.5139 52.6184ZM33.6092 52.5447L33.8772 53.3194L34.0324 53.2656L33.7644 52.491L33.4965 51.7164L33.3412 51.7701L33.6092 52.5447ZM33.7644 52.491L34.5313 52.7805L34.5666 52.6869L33.7998 52.3975L33.0329 52.108L32.9976 52.2016L33.7644 52.491Z" fill="#DCDCDC"/>
<path d="M41.0145 54.8682C41.1759 54.4452 40.9639 53.9715 40.5409 53.8101C40.118 53.6487 39.6443 53.8607 39.4829 54.2837L40.2487 54.5759L41.0145 54.8682ZM40.213 54.6694L39.4472 54.3771L39.3901 54.527L39.3936 54.6873L40.213 54.6694ZM40.2255 55.2387L41.045 55.2207L40.2255 55.2387ZM40.1292 56.1078L39.3587 55.8282L40.1292 56.1078ZM39.9116 56.7074L40.6821 56.987L39.9116 56.7074ZM39.8595 57.3195L40.666 57.1732L39.8595 57.3195ZM39.9728 57.9442L39.1663 58.0905L39.9728 57.9442ZM39.9868 58.5956L40.8001 58.6979L39.9868 58.5956ZM39.9015 59.2739L39.0882 59.1716L39.9015 59.2739ZM39.529 59.6739L39.3804 58.8678L39.529 59.6739ZM38.8693 59.7955L38.7207 58.9894L38.8693 59.7955ZM38.2554 59.9744L38.5702 60.7312L38.2554 59.9744ZM37.6873 60.2106L37.3726 59.4538L37.6873 60.2106ZM37.2016 60.5477L37.8045 61.103V61.103L37.2016 60.5477ZM36.7983 60.9855L36.1954 60.4302L36.7983 60.9855ZM36.4528 61.4665L35.7343 61.072L36.4528 61.4665ZM36.3089 61.7285L37.0274 62.123L36.3089 61.7285ZM36.165 61.9905L36.8835 62.385L36.165 61.9905ZM35.72 62.3438L35.9577 63.1282L35.72 62.3438ZM35.1176 62.5263L34.8799 61.7419L35.1176 62.5263ZM34.5659 62.8358L34.0276 62.2176L34.5659 62.8358ZM34.0647 63.2721L34.6029 63.8903L34.0647 63.2721ZM33.5073 63.5294L33.4036 62.7163L33.5073 63.5294ZM32.8938 63.6076L32.7901 62.7946L32.8938 63.6076ZM32.1507 64.026L32.6885 64.6446L32.1507 64.026ZM31.9326 64.2157L31.3948 63.5971L31.9326 64.2157ZM31.4714 64.5942L31.9744 65.2414L31.4714 64.5942ZM30.9853 64.972L30.4823 64.3249L30.9853 64.972ZM30.945 65.1501L30.9012 64.3316L30.945 65.1501ZM31.1477 65.1393L31.1915 65.9578L31.1477 65.1393ZM31.3505 65.1284L31.3943 65.9469L31.3505 65.1284ZM31.7813 64.9049L31.2221 64.3056L31.7813 64.9049ZM32.0093 64.6922L31.4501 64.0929L32.0093 64.6922ZM32.719 64.0829L33.2 64.7466L32.719 64.0829ZM32.9727 63.899L33.4537 64.5627L32.9727 63.899ZM33.2264 63.7151L32.7454 63.0514L33.2264 63.7151ZM33.8101 63.4754L33.9468 64.2836L33.8101 63.4754ZM34.4701 63.3638L34.6068 64.172L34.4701 63.3638ZM34.9089 62.9833L35.6861 63.2438L34.9089 62.9833ZM35.0177 62.6587L34.2406 62.3982L35.0177 62.6587ZM35.1266 62.334L34.3494 62.0735L35.1266 62.334ZM35.5248 61.86L35.9006 62.5885L35.5248 61.86ZM36.1037 61.5614L35.7279 60.833L36.1037 61.5614ZM36.6788 61.2823L37.0179 62.0285V62.0285L36.6788 61.2823ZM37.2502 61.0227L36.9111 60.2764L37.2502 61.0227ZM37.8568 60.954L37.7034 61.7592L37.8568 60.954ZM38.4988 61.0763L38.6522 60.2711L38.4988 61.0763ZM39.096 60.9489L39.5581 61.6258L39.096 60.9489ZM39.6485 60.5717L39.1863 59.8947L39.6485 60.5717ZM40.232 60.3483L40.1398 59.5338L40.232 60.3483ZM40.5394 60.3135L40.4471 59.499L40.5394 60.3135ZM40.8467 60.2786L40.939 61.0931L40.8467 60.2786ZM41.4676 60.2307L41.4334 59.4117L41.4676 60.2307ZM41.7813 60.2176L41.8156 61.0365L41.7813 60.2176ZM42.095 60.2044L42.0607 59.3855L42.095 60.2044ZM42.7226 60.2511L42.8758 59.4459L42.7226 60.2511ZM43.0365 60.3108L42.8832 61.116L43.0365 60.3108ZM43.3504 60.3706L43.5037 59.5654L43.3504 60.3706ZM43.842 61.3956L44.6482 61.2473L43.842 61.3956ZM44.1123 61.8051L43.7978 62.562L44.1123 61.8051ZM44.3234 61.8928L44.6737 61.1518L44.656 61.1434L44.6379 61.1359L44.3234 61.8928ZM44.6479 62.0462L44.2976 62.7873L44.3796 62.826L44.4681 62.8459L44.6479 62.0462ZM44.5656 62.8679C45.0073 62.9672 45.4459 62.6897 45.5452 62.248C45.6445 61.8064 45.367 61.3678 44.9254 61.2685L44.7455 62.0682L44.5656 62.8679ZM40.2487 54.5759L39.4829 54.2837L39.4472 54.3771L40.213 54.6694L40.9788 54.9616L41.0145 54.8682L40.2487 54.5759ZM40.213 54.6694L39.3936 54.6873L39.406 55.2566L40.2255 55.2387L41.045 55.2207L41.0325 54.6514L40.213 54.6694ZM40.2255 55.2387L39.406 55.2566C39.4136 55.6017 39.3795 55.771 39.3587 55.8282L40.1292 56.1078L40.8997 56.3874C41.024 56.0449 41.0541 55.6348 41.045 55.2207L40.2255 55.2387ZM40.1292 56.1078L39.3587 55.8282L39.2499 56.128L40.0204 56.4076L40.7909 56.6872L40.8997 56.3874L40.1292 56.1078ZM40.0204 56.4076L39.2499 56.128L39.1411 56.4278L39.9116 56.7074L40.6821 56.987L40.7909 56.6872L40.0204 56.4076ZM39.9116 56.7074L39.1411 56.4278C39.0194 56.7632 38.9892 57.1142 39.053 57.4658L39.8595 57.3195L40.666 57.1732C40.6542 57.1083 40.6588 57.0512 40.6821 56.987L39.9116 56.7074ZM39.8595 57.3195L39.053 57.4658L39.1096 57.7782L39.9161 57.6318L40.7226 57.4855L40.666 57.1732L39.8595 57.3195ZM39.9161 57.6318L39.1096 57.7782L39.1663 58.0905L39.9728 57.9442L40.7793 57.7979L40.7226 57.4855L39.9161 57.6318ZM39.9728 57.9442L39.1663 58.0905C39.1881 58.2106 39.1924 58.3437 39.1735 58.4934L39.9868 58.5956L40.8001 58.6979C40.8381 58.3955 40.8331 58.0942 40.7793 57.7979L39.9728 57.9442ZM39.9868 58.5956L39.1735 58.4934L39.1309 58.8325L39.9442 58.9348L40.7574 59.0371L40.8001 58.6979L39.9868 58.5956ZM39.9442 58.9348L39.1309 58.8325L39.0882 59.1716L39.9015 59.2739L40.7148 59.3762L40.7574 59.0371L39.9442 58.9348ZM39.9015 59.2739L39.0882 59.1716C39.0901 59.1572 39.1054 59.0726 39.1872 58.9848C39.2702 58.8957 39.3574 58.872 39.3804 58.8678L39.529 59.6739L39.6776 60.4799C39.9205 60.4352 40.1797 60.3245 40.3869 60.1021C40.5928 59.881 40.6845 59.6167 40.7148 59.3762L39.9015 59.2739ZM39.529 59.6739L39.3804 58.8678L39.0506 58.9286L39.1992 59.7347L39.3478 60.5407L39.6776 60.4799L39.529 59.6739ZM39.1992 59.7347L39.0506 58.9286L38.7207 58.9894L38.8693 59.7955L39.0179 60.6016L39.3478 60.5407L39.1992 59.7347ZM38.8693 59.7955L38.7207 58.9894C38.4489 59.0395 38.1881 59.1147 37.9407 59.2176L38.2554 59.9744L38.5702 60.7312C38.7015 60.6766 38.8499 60.6325 39.0179 60.6016L38.8693 59.7955ZM38.2554 59.9744L37.9407 59.2176L37.6567 59.3357L37.9714 60.0925L38.2861 60.8494L38.5702 60.7312L38.2554 59.9744ZM37.9714 60.0925L37.6567 59.3357L37.3726 59.4538L37.6873 60.2106L38.002 60.9675L38.2861 60.8494L37.9714 60.0925ZM37.6873 60.2106L37.3726 59.4538C37.0775 59.5765 36.8162 59.7562 36.5987 59.9924L37.2016 60.5477L37.8045 61.103C37.8558 61.0473 37.9184 61.0023 38.002 60.9675L37.6873 60.2106ZM37.2016 60.5477L36.5987 59.9924L36.397 60.2113L36.9999 60.7666L37.6028 61.322L37.8045 61.103L37.2016 60.5477ZM36.9999 60.7666L36.397 60.2113L36.1954 60.4302L36.7983 60.9855L37.4012 61.5409L37.6028 61.322L36.9999 60.7666ZM36.7983 60.9855L36.1954 60.4302C36.0159 60.6251 35.8619 60.8395 35.7343 61.072L36.4528 61.4665L37.1712 61.861C37.2354 61.7442 37.3118 61.6379 37.4012 61.5409L36.7983 60.9855ZM36.4528 61.4665L35.7343 61.072L35.5904 61.334L36.3089 61.7285L37.0274 62.123L37.1712 61.861L36.4528 61.4665ZM36.3089 61.7285L35.5904 61.334L35.4465 61.596L36.165 61.9905L36.8835 62.385L37.0274 62.123L36.3089 61.7285ZM36.165 61.9905L35.4465 61.596C35.4469 61.5953 35.4492 61.5913 35.4542 61.5854C35.4592 61.5794 35.4654 61.5733 35.4722 61.5678C35.4872 61.556 35.4945 61.5556 35.4823 61.5593L35.72 62.3438L35.9577 63.1282C36.3515 63.0089 36.6786 62.7582 36.8835 62.385L36.165 61.9905ZM35.72 62.3438L35.4823 61.5593L35.1811 61.6506L35.4188 62.435L35.6565 63.2195L35.9577 63.1282L35.72 62.3438ZM35.4188 62.435L35.1811 61.6506L34.8799 61.7419L35.1176 62.5263L35.3553 63.3108L35.6565 63.2195L35.4188 62.435ZM35.1176 62.5263L34.8799 61.7419C34.5622 61.8382 34.277 62.0004 34.0276 62.2176L34.5659 62.8358L35.1041 63.454C35.1888 63.3802 35.2715 63.3362 35.3553 63.3108L35.1176 62.5263ZM34.5659 62.8358L34.0276 62.2176L33.777 62.4357L34.3153 63.0539L34.8535 63.6721L35.1041 63.454L34.5659 62.8358ZM34.3153 63.0539L33.777 62.4357L33.5265 62.6539L34.0647 63.2721L34.6029 63.8903L34.8535 63.6721L34.3153 63.0539ZM34.0647 63.2721L33.5265 62.6539C33.4722 62.7011 33.4351 62.7123 33.4036 62.7163L33.5073 63.5294L33.611 64.3425C33.9886 64.2943 34.323 64.134 34.6029 63.8903L34.0647 63.2721ZM33.5073 63.5294L33.4036 62.7163L33.0968 62.7554L33.2006 63.5685L33.3043 64.3816L33.611 64.3425L33.5073 63.5294ZM33.2006 63.5685L33.0968 62.7554L32.7901 62.7946L32.8938 63.6076L32.9975 64.4207L33.3043 64.3816L33.2006 63.5685ZM32.8938 63.6076L32.7901 62.7946C32.4366 62.8396 32.1075 62.9775 31.8311 63.2178L32.3688 63.8364L32.9066 64.455C32.9211 64.4424 32.9419 64.4278 32.9975 64.4207L32.8938 63.6076ZM32.3688 63.8364L31.8311 63.2178L31.6129 63.4074L32.1507 64.026L32.6885 64.6446L32.9066 64.455L32.3688 63.8364ZM32.1507 64.026L31.6129 63.4074L31.3948 63.5971L31.9326 64.2157L32.4703 64.8343L32.6885 64.6446L32.1507 64.026ZM31.9326 64.2157L31.3948 63.5971C31.2614 63.713 31.1193 63.8297 30.9684 63.947L31.4714 64.5942L31.9744 65.2414C32.1475 65.1068 32.3129 64.9711 32.4703 64.8343L31.9326 64.2157ZM31.4714 64.5942L30.9684 63.947L30.7253 64.1359L31.2283 64.7831L31.7313 65.4303L31.9744 65.2414L31.4714 64.5942ZM31.2283 64.7831L30.7253 64.1359L30.4823 64.3249L30.9853 64.972L31.4883 65.6192L31.7313 65.4303L31.2283 64.7831ZM30.9853 64.972L30.4823 64.3249C30.4261 64.3685 30.3587 64.4246 30.2964 64.4904C30.2619 64.5268 30.11 64.6837 30.0542 64.9301C30.0194 65.0839 30.0158 65.3062 30.139 65.5281C30.257 65.7405 30.433 65.8469 30.5488 65.8965C30.7477 65.9817 30.934 65.9715 30.9887 65.9686L30.945 65.1501L30.9012 64.3316C30.9111 64.3311 30.9395 64.3299 30.9797 64.3338C31.0147 64.3372 31.0961 64.3476 31.1941 64.3896C31.2947 64.4326 31.4602 64.5305 31.5722 64.7322C31.6895 64.9434 31.6846 65.1529 31.6531 65.2919C31.6246 65.4179 31.5721 65.5036 31.548 65.5398C31.5206 65.5811 31.4963 65.6075 31.4868 65.6176C31.4683 65.6371 31.4634 65.6385 31.4883 65.6192L30.9853 64.972ZM30.945 65.1501L30.9887 65.9686L31.1915 65.9578L31.1477 65.1393L31.104 64.3208L30.9012 64.3316L30.945 65.1501ZM31.1477 65.1393L31.1915 65.9578L31.3943 65.9469L31.3505 65.1284L31.3068 64.3099L31.104 64.3208L31.1477 65.1393ZM31.3505 65.1284L31.3943 65.9469C31.8012 65.9252 32.1196 65.7102 32.3404 65.5042L31.7813 64.9049L31.2221 64.3056C31.1859 64.3393 31.1721 64.3448 31.182 64.3396C31.1939 64.3334 31.2374 64.3136 31.3068 64.3099L31.3505 65.1284ZM31.7813 64.9049L32.3404 65.5042L32.5684 65.2915L32.0093 64.6922L31.4501 64.0929L31.2221 64.3056L31.7813 64.9049ZM32.0093 64.6922L32.5684 65.2915L32.7964 65.0788L32.2373 64.4795L31.6781 63.8801L31.4501 64.0929L32.0093 64.6922ZM32.2373 64.4795L32.7964 65.0788C32.9236 64.9602 33.0581 64.8495 33.2 64.7466L32.719 64.0829L32.2379 63.4192C32.0416 63.5615 31.8549 63.7152 31.6781 63.8801L32.2373 64.4795ZM32.719 64.0829L33.2 64.7466L33.4537 64.5627L32.9727 63.899L32.4917 63.2353L32.2379 63.4192L32.719 64.0829ZM32.9727 63.899L33.4537 64.5627L33.7074 64.3788L33.2264 63.7151L32.7454 63.0514L32.4917 63.2353L32.9727 63.899ZM33.2264 63.7151L33.7074 64.3788C33.7676 64.3352 33.8425 64.3012 33.9468 64.2836L33.8101 63.4754L33.6734 62.6672C33.3377 62.724 33.0235 62.8498 32.7454 63.0514L33.2264 63.7151ZM33.8101 63.4754L33.9468 64.2836L34.2768 64.2278L34.1401 63.4196L34.0034 62.6114L33.6734 62.6672L33.8101 63.4754ZM34.1401 63.4196L34.2768 64.2278L34.6068 64.172L34.4701 63.3638L34.3334 62.5556L34.0034 62.6114L34.1401 63.4196ZM34.4701 63.3638L34.6068 64.172C34.842 64.1322 35.0786 64.0362 35.2818 63.8601C35.484 63.6847 35.6117 63.4659 35.6861 63.2438L34.9089 62.9833L34.1317 62.7228C34.1336 62.7172 34.1519 62.67 34.2078 62.6215C34.2647 62.5722 34.3182 62.5582 34.3334 62.5556L34.4701 63.3638ZM34.9089 62.9833L35.6861 63.2438L35.7949 62.9192L35.0177 62.6587L34.2406 62.3982L34.1317 62.7228L34.9089 62.9833ZM35.0177 62.6587L35.7949 62.9192L35.9037 62.5945L35.1266 62.334L34.3494 62.0735L34.2406 62.3982L35.0177 62.6587ZM35.1266 62.334L35.9037 62.5945C35.9075 62.5834 35.9103 62.578 35.911 62.5767C35.9116 62.5756 35.9108 62.5773 35.9081 62.5805C35.9053 62.5837 35.9023 62.5866 35.8998 62.5886C35.8973 62.5906 35.8971 62.5903 35.9006 62.5885L35.5248 61.86L35.149 61.1316C34.756 61.3343 34.4859 61.6663 34.3494 62.0735L35.1266 62.334ZM35.5248 61.86L35.9006 62.5885L36.19 62.4392L35.8143 61.7107L35.4385 60.9823L35.149 61.1316L35.5248 61.86ZM35.8143 61.7107L36.19 62.4392L36.4795 62.2899L36.1037 61.5614L35.7279 60.833L35.4385 60.9823L35.8143 61.7107ZM36.1037 61.5614L36.4795 62.2899C36.6608 62.1963 36.8403 62.1093 37.0179 62.0285L36.6788 61.2823L36.3397 60.5361C36.1364 60.6284 35.9325 60.7274 35.7279 60.833L36.1037 61.5614ZM36.6788 61.2823L37.0179 62.0285L37.3036 61.8987L36.9645 61.1525L36.6254 60.4062L36.3397 60.5361L36.6788 61.2823ZM36.9645 61.1525L37.3036 61.8987L37.5893 61.7689L37.2502 61.0227L36.9111 60.2764L36.6254 60.4062L36.9645 61.1525ZM37.2502 61.0227L37.5893 61.7689C37.619 61.7554 37.6485 61.7487 37.7034 61.7592L37.8568 60.954L38.0103 60.1488C37.6372 60.0777 37.2623 60.1168 36.9111 60.2764L37.2502 61.0227ZM37.8568 60.954L37.7034 61.7592L38.0244 61.8203L38.1778 61.0151L38.3312 60.21L38.0103 60.1488L37.8568 60.954ZM38.1778 61.0151L38.0244 61.8203L38.3454 61.8815L38.4988 61.0763L38.6522 60.2711L38.3312 60.21L38.1778 61.0151ZM38.4988 61.0763L38.3454 61.8815C38.779 61.9641 39.1988 61.8712 39.5581 61.6258L39.096 60.9489L38.6338 60.2719C38.627 60.2766 38.6242 60.2776 38.6257 60.277C38.6272 60.2763 38.6314 60.2747 38.6375 60.2734C38.6437 60.2721 38.6492 60.2716 38.6531 60.2716C38.6568 60.2716 38.6568 60.272 38.6522 60.2711L38.4988 61.0763ZM39.096 60.9489L39.5581 61.6258L39.8344 61.4372L39.3722 60.7603L38.9101 60.0833L38.6338 60.2719L39.096 60.9489ZM39.3722 60.7603L39.8344 61.4372L40.1106 61.2487L39.6485 60.5717L39.1863 59.8947L38.9101 60.0833L39.3722 60.7603ZM39.6485 60.5717L40.1106 61.2487C40.1937 61.1919 40.2627 61.1697 40.3243 61.1627L40.232 60.3483L40.1398 59.5338C39.7916 59.5733 39.4715 59.7 39.1863 59.8947L39.6485 60.5717ZM40.232 60.3483L40.3243 61.1627L40.6316 61.1279L40.5394 60.3135L40.4471 59.499L40.1398 59.5338L40.232 60.3483ZM40.5394 60.3135L40.6316 61.1279L40.939 61.0931L40.8467 60.2786L40.7544 59.4642L40.4471 59.499L40.5394 60.3135ZM40.8467 60.2786L40.939 61.0931C41.1243 61.0721 41.3119 61.0576 41.5019 61.0496L41.4676 60.2307L41.4334 59.4117C41.2052 59.4213 40.9788 59.4387 40.7544 59.4642L40.8467 60.2786ZM41.4676 60.2307L41.5019 61.0496L41.8156 61.0365L41.7813 60.2176L41.747 59.3986L41.4334 59.4117L41.4676 60.2307ZM41.7813 60.2176L41.8156 61.0365L42.1292 61.0234L42.095 60.2044L42.0607 59.3855L41.747 59.3986L41.7813 60.2176ZM42.095 60.2044L42.1292 61.0234C42.2744 61.0173 42.4206 61.028 42.5693 61.0563L42.7226 60.2511L42.8758 59.4459C42.6059 59.3945 42.3338 59.3741 42.0607 59.3855L42.095 60.2044ZM42.7226 60.2511L42.5693 61.0563L42.8832 61.116L43.0365 60.3108L43.1898 59.5056L42.8758 59.4459L42.7226 60.2511ZM43.0365 60.3108L42.8832 61.116L43.1972 61.1758L43.3504 60.3706L43.5037 59.5654L43.1898 59.5056L43.0365 60.3108ZM43.3504 60.3706L43.1972 61.1758C43.1704 61.1707 43.0912 61.1472 43.0147 61.069C42.9394 60.992 42.9205 60.917 42.9175 60.9005L43.7236 60.7521L44.5297 60.6038C44.4872 60.3727 44.3864 60.1269 44.1867 59.9227C43.9858 59.7173 43.7397 59.6103 43.5037 59.5654L43.3504 60.3706ZM43.7236 60.7521L42.9175 60.9005L42.9767 61.2223L43.7828 61.0739L44.589 60.9255L44.5297 60.6038L43.7236 60.7521ZM43.7828 61.0739L42.9767 61.2223L43.0359 61.544L43.842 61.3956L44.6482 61.2473L44.589 60.9255L43.7828 61.0739ZM43.842 61.3956L43.0359 61.544C43.1021 61.9038 43.3004 62.3553 43.7978 62.562L44.1123 61.8051L44.4268 61.0482C44.5186 61.0863 44.5853 61.1497 44.6233 61.2073C44.6555 61.2561 44.6543 61.2805 44.6482 61.2473L43.842 61.3956ZM44.1123 61.8051L43.7978 62.562L44.0089 62.6497L44.3234 61.8928L44.6379 61.1359L44.4268 61.0482L44.1123 61.8051ZM44.3234 61.8928L43.973 62.6338L44.2976 62.7873L44.6479 62.0462L44.9983 61.3052L44.6737 61.1518L44.3234 61.8928ZM44.6479 62.0462L44.4681 62.8459L44.5656 62.8679L44.7455 62.0682L44.9254 61.2685L44.8278 61.2465L44.6479 62.0462Z" fill="#DCDCDC"/>
</svg>
