<svg width="81" height="66" viewBox="0 0 81 66" fill="none" xmlns="http://www.w3.org/2000/svg">
<path d="M54.7346 27.6062H51.1162V24.3735H52.7326V22.7571H51.1162V19.5244H54.7346V21.1408H56.3509V22.7571H57.9673V24.3735H56.3509V25.9899H54.7346V27.6062Z" fill="#DCDCDC"/>
<path d="M63.4107 17.9085V14.6758H61.7943H60.178V16.2921H58.5616V17.9085H56.9452V19.5249H55.3289V21.1412H53.7125V22.7576H52.0962V24.3739H53.7125V25.9903H55.3289V27.6067H56.9452V29.223H58.5616V30.8394H60.178V32.4558H61.7943H63.4111L63.4107 29.223V17.9085Z" fill="#DCDCDC"/>
<path d="M68.2402 17.6855V18.7051H67.2207V20.7432H66.2061V21.7627H65.1875V25.3672H66.2061V26.3867H67.2207V28.4248H68.2402V29.4443H69.8057V27.8789H68.7861V26.8594H67.7725V24.8203H66.7529V23.8018H65.7334V23.3281H66.7529V22.3096H67.7725V20.2705H68.7861V19.251H69.8057V17.6855H68.2402Z" fill="#DCDCDC" stroke="#DCDCDC" stroke-width="0.546356"/>
<path d="M73.8916 16.5098V17.7334H72.668V20.1797H71.4512V21.4023H70.2285V25.7275H71.4512V26.9512H72.668V29.3975H73.8916V30.6201H75.7705V28.7412H74.5469V27.5186H73.3301V25.0723H72.1074V23.8486H70.8838V23.2812H72.1074V22.0586H73.3301V19.6123H74.5469V18.3887H75.7705V16.5098H73.8916Z" fill="#DCDCDC" stroke="#DCDCDC" stroke-width="0.655627"/>
<path d="M62.5537 53.7691C62.6781 53.9002 62.8092 54.0095 62.9453 54.0991L63.4541 54.4341C63.6491 54.5625 63.8316 54.7089 64.001 54.8716L64.4444 55.2983C64.6363 55.4828 64.791 55.6981 64.9072 55.9409L65.1817 56.5161C65.3019 56.7675 65.3689 57.0335 65.377 57.3101L65.3945 57.9282C65.4031 58.2232 65.3344 58.5046 65.1904 58.7622L64.8867 59.3042C64.8545 59.3619 64.8191 59.4172 64.7822 59.4712L64.3613 59.1694C64.0915 58.9747 63.9718 58.8443 63.9317 58.7857L63.752 58.523L63.5733 58.2661C63.3834 57.9892 63.1355 57.7584 62.8428 57.5933L62.293 57.2866C62.1766 57.2207 62.0738 57.1376 61.9795 57.0425L61.5303 56.5952C61.5177 56.5824 61.5094 56.5671 61.499 56.5562L61.5303 56.2622L61.249 55.9868L61.166 55.9038C60.8438 55.5877 60.3241 55.5891 60.0069 55.9097C59.7754 56.1456 59.7237 56.485 59.834 56.7749L59.8281 56.7935L59.8721 56.9536L59.9111 57.0689C59.9645 57.2455 60.0584 57.3889 60.1221 57.4732C60.1943 57.5683 60.283 57.6596 60.3711 57.7485L60.5899 57.9722L60.8135 58.1958C61.0147 58.3989 61.2433 58.5748 61.4922 58.7153L61.7617 58.8687L62.0371 59.022C62.1103 59.0633 62.1725 59.1173 62.2217 59.189L62.5801 59.7134C62.7789 60.003 63.0783 60.2651 63.4063 60.5015L63.5733 60.6216C63.5515 60.6437 63.5293 60.6654 63.5078 60.688L63.169 61.0435L62.7783 60.7525C62.5077 60.5504 62.3775 60.4159 62.3291 60.3491L62.1436 60.0933L61.9649 59.8423C61.7931 59.6037 61.587 59.395 61.3496 59.2212L61.0938 59.0366L60.8447 58.8501C60.7058 58.7484 60.5772 58.6465 60.4658 58.5376L60.2549 58.3325L60.1143 58.1919L60.1904 57.9868L59.832 57.6275L59.749 57.5376C59.4315 57.2168 58.912 57.215 58.5899 57.5317C58.398 57.7217 58.3364 57.9806 58.3721 58.229L58.3584 58.2681L58.417 58.5044L58.4434 58.6001C58.4934 58.8039 58.6037 58.9567 58.6602 59.0298C58.7304 59.1205 58.8129 59.2096 58.8965 59.2915L59.1084 59.5044L59.3194 59.7095C59.4896 59.8759 59.6799 60.0313 59.8779 60.1763L60.127 60.3618L60.3828 60.5474C60.4809 60.6196 60.5622 60.7066 60.6319 60.8032L60.8184 61.0532L60.9981 61.3032C61.1768 61.5516 61.4343 61.7904 61.7236 62.0132C61.5281 62.099 61.323 62.1535 61.1094 62.1714L60.4922 62.2232C60.3203 62.2376 60.1528 62.2683 59.9902 62.3169L59.4043 62.4927C59.1003 62.5835 58.7915 62.5676 58.4981 62.4478L57.9268 62.2144C57.6941 62.1193 57.4832 61.9952 57.3008 61.8384L56.8887 61.4839C56.7312 61.3484 56.5772 61.1925 56.4258 61.0191L56.1944 60.7544C56.2661 60.6954 56.3308 60.6251 56.3809 60.5405L56.4453 60.437L56.4707 60.3931L56.4893 60.3413L56.541 60.2066L56.5469 60.2134L56.6113 60.0786C56.6761 59.9466 56.7464 59.7736 56.8164 59.5796L56.919 59.2983L57.0215 59.0103C57.1026 58.785 57.1633 58.551 57.2129 58.312L57.3418 57.6968C57.3545 57.6361 57.3735 57.5794 57.3975 57.5259C57.5206 57.4654 57.6307 57.3741 57.7129 57.2525C57.8017 57.1209 57.8458 56.9727 57.8506 56.8247C57.888 56.7794 57.9297 56.7375 57.9815 56.7036L58.2442 56.5376L58.501 56.3648C58.742 56.2069 58.9557 56.016 59.1406 55.7944L59.3457 55.5523L59.5449 55.3081C59.6877 55.1368 59.8281 54.9603 59.961 54.7827L60.332 54.2837L60.3379 54.2769C60.3405 54.2758 60.3492 54.2732 60.3584 54.271L60.6709 54.2007L60.9922 54.1304C61.3175 54.0559 61.6681 53.8948 62.0166 53.6948L62.3164 53.5181L62.5537 53.7691ZM36.9668 0.0131923C37.232 -0.0471934 37.4088 0.114783 37.4707 0.194833C37.5265 0.267161 37.5495 0.338502 37.5567 0.361825L37.5762 0.443856L37.6094 0.635263C37.6297 0.753589 37.6297 0.891551 37.6231 1.02491L37.6045 1.396C37.6019 1.45083 37.6096 1.50744 37.6319 1.56788L37.7656 1.92921C37.8178 2.07091 37.8599 2.21477 37.8906 2.35987L37.9678 2.72413C38.0009 2.88063 38.016 3.03933 38.0137 3.19874L38.0088 3.5669C38.0073 3.67244 38.0112 3.77874 38.0205 3.88429L38.0527 4.25245C38.0628 4.36609 38.0757 4.47999 38.0918 4.59327L38.1445 4.96046C38.1635 5.09356 38.1779 5.2276 38.1875 5.36183L38.2139 5.73194C38.2266 5.91086 38.2086 6.08859 38.1621 6.26222L38.0635 6.63038C38.0487 6.68609 38.0461 6.7386 38.0547 6.79151L38.1162 7.16163C38.1421 7.31902 38.1509 7.47771 38.1426 7.63624L38.1231 8.00538C38.117 8.12004 38.1136 8.23541 38.1133 8.35011L38.1123 8.71925C38.1119 8.85527 38.106 8.99184 38.0947 9.12745L38.0645 9.49561C38.0522 9.64364 38.0283 9.79076 37.9932 9.93604L37.9053 10.3003C37.8987 10.3282 37.8975 10.3627 37.9131 10.4126L38.0332 10.7974C38.1166 11.0651 38.0788 11.3359 37.9317 11.5708L37.7139 11.9185C37.6854 11.964 37.6798 11.9954 37.6797 12.0191L37.6787 12.3921C37.6785 12.4807 37.6879 12.57 37.707 12.6587L37.7861 13.0278C37.8145 13.159 37.8399 13.2913 37.8613 13.4233L37.9209 13.7944C37.9462 13.9506 37.9561 14.1079 37.9492 14.2651L37.9326 14.6353C37.9265 14.7764 37.913 14.9184 37.8916 15.0601L37.835 15.4351C37.8054 15.6302 37.7351 15.813 37.6309 15.98L37.418 16.3208C37.4012 16.3477 37.4025 16.3581 37.4033 16.3657L37.4434 16.7398C37.4602 16.8985 37.4603 17.0581 37.4434 17.2163L37.4033 17.5855C37.3952 17.6617 37.3982 17.7385 37.4121 17.815L37.4785 18.1821C37.5053 18.3299 37.5213 18.4791 37.5244 18.6284L37.5322 18.9985C37.5336 19.0585 37.5452 19.1191 37.5713 19.1821L37.7178 19.5357C37.8118 19.763 37.8193 20.0025 37.751 20.2329L37.6367 20.6177C37.6291 20.6436 37.632 20.6538 37.6367 20.6655L37.7813 21.023C37.8735 21.2508 37.8818 21.4944 37.7988 21.729L37.6729 22.0855C37.6272 22.2146 37.5771 22.341 37.5235 22.4644L37.377 22.8032C37.3488 22.8682 37.3296 22.9389 37.3213 23.0171L37.2813 23.397C37.2616 23.5818 37.2085 23.7617 37.1123 23.9253L36.958 24.186C36.9592 24.194 36.9612 24.2071 36.9658 24.2251C36.9762 24.2649 36.9924 24.3109 37.0176 24.3794L37.0977 24.6148L37.0986 24.6167H37.0977C37.126 24.7179 37.1786 24.7903 37.2676 24.8491L37.8301 25.2202C38.1305 25.4186 38.3225 25.7102 38.374 26.0698L38.4668 26.7153C38.4948 26.9108 38.5333 27.0997 38.583 27.2808L38.75 27.8872C38.8343 28.1946 38.8144 28.505 38.6953 28.8003L38.457 29.3921C38.4285 29.4632 38.4326 29.5079 38.46 29.563L38.7363 30.1187C38.8368 30.3206 38.9243 30.5263 38.999 30.7349L39.2031 31.3052C39.2409 31.4105 39.2863 31.5128 39.335 31.6138C39.2709 31.6804 39.2167 31.7591 39.1768 31.8482V31.854L38.8828 32.3286C38.7047 32.6146 38.5791 32.7573 38.5117 32.815L38.2676 33.0259L38.0254 33.231C37.7263 33.485 37.5233 33.8189 37.4414 34.2046L37.3135 34.8189C37.2675 35.0356 37.2272 35.2534 37.1914 35.4653L37.0899 36.0679C37.0674 36.2009 37.0253 36.3335 36.9678 36.4653L36.8457 36.7534L36.7188 37.0415C36.6126 37.2853 36.5322 37.5371 36.4815 37.7964L36.4238 38.105L36.3652 38.4048C36.3132 38.6731 36.2919 38.9452 36.3086 39.2183L36.3281 39.5259L36.3467 39.8403C36.3587 40.0349 36.3679 40.2225 36.3731 40.4028L36.3858 40.6978L36.3916 40.9858C36.3999 41.2642 36.4511 41.5426 36.5391 41.812L36.6406 42.1196L36.7373 42.4204C36.8903 42.8886 37.2393 43.2186 37.6914 43.3618L38.0176 43.4575L38.3379 43.5601C38.4572 43.5976 38.5399 43.6494 38.6006 43.7017L39.0625 44.0972C39.2857 44.2897 39.537 44.4468 39.8106 44.5591L40.1065 44.6743L40.4004 44.7964C40.4604 44.8214 40.5076 44.8595 40.5537 44.9175L40.7588 45.1733L40.957 45.4243C41.1729 45.6989 41.4446 45.9161 41.7705 46.0513L42.0586 46.1655L42.3408 46.2876C42.531 46.3664 42.7261 46.4462 42.916 46.5249L43.1992 46.6401L43.4873 46.7622C43.6795 46.8419 43.8782 46.9199 44.0762 46.9995L44.3711 47.1206L44.6651 47.2358C44.6733 47.2394 44.6753 47.2461 44.6777 47.2485C44.6817 47.2522 44.6965 47.2615 44.711 47.2876L44.8701 47.5884L45.0361 47.8823C45.2687 48.3045 45.6582 48.5754 46.1377 48.6441L46.4707 48.6958L46.8106 48.7407C46.9117 48.7554 46.9731 48.7869 47.0156 48.8179L47.2656 48.9976L47.5088 49.1821C47.8043 49.3997 48.1488 49.518 48.5137 49.5347L49.1289 49.561C49.1848 49.5637 49.2457 49.585 49.3203 49.6314L49.6016 49.8032L49.877 49.9771C50.2756 50.2248 50.7309 50.2653 51.1651 50.1304L51.8184 49.9253C51.895 49.9015 51.9379 49.9112 51.9658 49.9194L52.2666 50.0083L52.5664 50.105C52.7955 50.1746 53.0283 50.2288 53.2598 50.271L53.5596 50.3228L53.8604 50.3804C54.0991 50.4238 54.3431 50.4495 54.585 50.4575L54.8858 50.4702L55.1856 50.4761C55.3325 50.481 55.4909 50.5038 55.6533 50.5405L56.2813 50.6812C56.5261 50.7366 56.9445 50.7889 57.3233 50.563C57.4795 50.6944 57.6311 50.8302 57.7754 50.9722L58.2129 51.4028C58.2981 51.4865 58.4042 51.5504 58.5401 51.5913L59.1621 51.7788C59.4261 51.8584 59.6677 51.9818 59.8799 52.1509L60.3613 52.5347C60.3812 52.5504 60.4019 52.5646 60.4229 52.5786L60.3125 52.606L59.999 52.6763C59.6066 52.7655 59.2638 52.9764 59.0186 53.3042L58.6768 53.7632L58.5674 53.7075C58.2916 53.5655 58.1567 53.4554 58.0996 53.3989L58.1699 53.3931L57.9658 53.2651L57.8633 53.1489L57.6524 52.9067C57.4041 52.6321 57.0864 52.4419 56.7227 52.3491L56.4229 52.273L56.3965 52.2661L56.1846 52.1314L56.083 52.0679C55.8207 51.9015 55.5049 51.9145 55.251 52.0552L54.917 52.0864L54.8203 52.7075L54.8145 52.7466C54.7678 53.0445 54.8931 53.2712 54.9756 53.3804C55.0531 53.482 55.137 53.5438 55.1797 53.5728C55.2673 53.6318 55.3555 53.6706 55.3975 53.687C55.4942 53.7246 55.6109 53.7562 55.7188 53.7837L56.3194 53.937C56.3575 53.9468 56.3948 53.9632 56.4356 54.0083L56.6465 54.2505L56.8643 54.4878C57.0481 54.6912 57.2913 54.8679 57.5576 55.0239L57.3418 55.1675L57.085 55.3335C56.9592 55.4158 56.8439 55.5106 56.7383 55.6148C56.5675 55.491 56.4709 55.4 56.4258 55.3452L56.2207 55.0952L56.0215 54.8521C55.7741 54.5511 55.4472 54.3448 55.0684 54.2505L54.7608 54.1733L54.4473 54.0903L54.3506 54.064L54.3125 54.0122L54.2285 53.9107L54.1201 53.8335L54.0235 53.77C53.649 53.5173 53.1385 53.6143 52.8848 53.9878C52.6944 54.2696 52.7029 54.629 52.8779 54.897L53.1026 55.1275L53.1406 55.1782L53.1787 55.2173L53.2754 55.3062C53.4139 55.4401 53.5712 55.5187 53.6777 55.563C53.7956 55.6119 53.9231 55.6535 54.0498 55.6851L54.3633 55.7612L54.6709 55.8384C54.7064 55.8472 54.729 55.8598 54.7539 55.8901L55.1641 56.3892C55.3413 56.6043 55.5807 56.8031 55.8486 56.9907C55.8039 57.1116 55.7678 57.2361 55.7412 57.3638L55.6123 57.979C55.5776 58.1464 55.533 58.3086 55.4785 58.4595L55.2735 59.023C55.2126 59.1917 55.1673 59.2925 55.1426 59.3442C55.1242 59.3317 55.1048 59.3194 55.084 59.3081L54.5654 59.0278C54.4218 58.95 54.2733 58.8875 54.1201 58.8413L53.5635 58.6733C53.2518 58.5793 53.0092 58.3788 52.8496 58.0991L52.5498 57.5718C52.4738 57.4385 52.378 57.3161 52.2617 57.2046L51.8125 56.7739C51.6706 56.6379 51.5254 56.508 51.3779 56.3843L50.9102 55.9917C50.7486 55.8561 50.5892 55.7164 50.4326 55.5728L49.9795 55.1558C49.8163 55.006 49.6603 54.8485 49.5127 54.6831L49.1016 54.2222C49.0236 54.1348 48.9231 54.0665 48.7891 54.0191L48.169 53.7993C47.9408 53.7186 47.7241 53.6237 47.5195 53.5151L46.9736 53.2261C46.7475 53.106 46.5427 52.9533 46.3604 52.77L45.9151 52.3218C45.7652 52.1712 45.6178 52.0211 45.4736 51.8726L45.0449 51.4312C44.9058 51.2878 44.764 51.1458 44.6201 51.0064L44.1777 50.5776C44.0322 50.4366 43.8847 50.2968 43.7373 50.1587L43.542 49.9751L43.5733 50.1148C43.6302 50.3706 43.6455 50.629 43.6192 50.8872L43.5567 51.5015C43.5357 51.7063 43.5143 51.9112 43.4932 52.1148L43.4297 52.7251C43.4093 52.9214 43.393 53.1187 43.3809 53.3159L43.3438 53.9292C43.33 54.1536 43.302 54.3785 43.2608 54.6021L43.1485 55.2153C43.098 55.4887 42.9787 55.7728 42.7217 55.9585L42.3721 56.2105C42.292 56.2683 42.1866 56.3204 42.0586 56.3364C41.9265 56.3529 41.8015 56.3269 41.6953 56.2749C41.504 56.1811 41.387 56.0123 41.3164 55.8872L40.9863 55.3013C40.9092 55.1646 40.819 55.0669 40.7188 54.9976L40.2168 54.6509C40.0491 54.5348 39.8837 54.4203 39.7227 54.3081L39.2412 53.9722C39.0053 53.8078 38.8465 53.5815 38.7656 53.315L38.7354 53.1987L38.6074 52.5903C38.5595 52.3637 38.5287 52.1349 38.5156 51.9048L38.4805 51.2886C38.469 51.0859 38.4558 50.883 38.4414 50.6812L38.3975 50.0679C38.3816 49.8451 38.3785 49.6092 38.3858 49.3618L38.3916 49.1323L38.2461 49.2056C38.04 49.3083 37.822 49.3655 37.5977 49.3706L37.5967 49.3726C37.5249 49.4451 37.4347 49.5451 37.3408 49.6538C37.1474 49.8778 36.9739 50.0985 36.9356 50.1558L36.5967 50.6616C36.5073 50.7952 36.4336 50.9415 36.377 51.1011L36.168 51.6919C36.066 51.9791 35.8894 52.2204 35.6445 52.4019L35.1494 52.7681C34.8835 52.9651 34.5667 53.0514 34.2305 52.9761L33.6875 52.854C33.4196 52.7939 33.181 52.6667 32.9815 52.478L32.5742 52.0933C32.3959 51.9246 32.2483 51.7237 32.1279 51.4985L31.833 50.9468C31.6788 50.6582 31.637 50.343 31.7051 50.0239L31.8389 49.3989C31.8684 49.2607 31.8794 49.025 31.8496 48.6685L31.8027 48.1079L31.8008 48.0913V48.0562C31.8006 48.0445 31.8002 48.0269 31.7998 48.0054C31.7991 47.9617 31.7981 47.8989 31.7969 47.8237C31.7945 47.6726 31.7913 47.4695 31.7881 47.2642C31.7836 46.9782 31.7787 46.6805 31.7764 46.5112C31.7426 46.4677 31.6986 46.4137 31.6494 46.3569C31.5922 46.2909 31.5344 46.2263 31.4902 46.1782L31.4375 46.1206C31.2226 45.9561 31.0522 45.7508 30.9365 45.5044L30.6709 44.938C30.5827 44.7501 30.4945 44.5637 30.4072 44.3804L30.1436 43.8267C30.0743 43.6813 29.9843 43.5421 29.8731 43.4087L29.4639 42.9175C29.2695 42.6845 29.1471 42.4129 29.1035 42.1128L29.0127 41.4829C28.9835 41.2818 28.9493 41.0851 28.9111 40.8941L28.792 40.2935C28.7427 40.0468 28.729 39.7967 28.752 39.5454L28.8086 38.9312C28.8194 38.8133 28.8008 38.6923 28.7451 38.563L28.4863 37.9634C28.3762 37.7079 28.3158 37.4411 28.3115 37.1675L28.3027 36.5503C28.2993 36.3241 28.3097 36.0972 28.335 35.8706L28.4043 35.2505C28.426 35.0567 28.4399 34.8629 28.4463 34.6704L28.4668 34.0542C28.473 33.8691 28.4679 33.6864 28.4512 33.5073L28.4004 32.9732L28.169 32.3667L28.1348 32.2769L28.1367 32.1802L28.1504 31.6235C28.1596 31.2366 28.195 30.8992 28.2695 30.6333L28.4444 30.0093C28.463 29.943 28.4546 29.9115 28.4229 29.8687L28.0469 29.3618C27.9396 29.2173 27.82 29.0851 27.6895 28.9644L27.2295 28.5386C27.0141 28.3394 26.8585 28.096 26.7656 27.8169L26.5645 27.2095C26.4917 26.9904 26.432 26.7718 26.3867 26.5542L26.3135 26.2046L25.2617 25.7339C25.1061 25.6768 24.9466 25.6372 24.7822 25.6157L24.1719 25.5357C23.9997 25.5132 23.8255 25.5075 23.6494 25.5181L23.0293 25.5552C22.727 25.5734 22.4369 25.5062 22.169 25.3628L21.5938 25.0542C21.4296 24.9663 21.2719 24.9031 21.1221 24.8608L20.5586 24.7017C20.4433 24.6692 20.3065 24.6589 20.1426 24.6802L19.4805 24.7661C19.221 24.7998 18.964 24.8013 18.711 24.77L18.0801 24.6919C17.7556 24.6517 17.4723 24.5067 17.2402 24.2778L16.7598 23.8052C16.706 23.7521 16.6548 23.7306 16.5645 23.7388L15.875 23.8013C15.5327 23.8321 15.2082 23.7482 14.9317 23.5386L14.416 23.148C14.3092 23.067 14.2016 23.0239 14.0879 23.0093L13.4766 22.9312C13.2956 22.9081 13.1111 22.8975 12.9229 22.8989L12.293 22.9038C12.014 22.9059 11.7446 22.8505 11.4902 22.7378L10.9209 22.4849C10.7274 22.3991 10.5354 22.3114 10.3457 22.2212L9.7881 21.9556C9.68223 21.9052 9.56441 21.8813 9.4258 21.8901L8.77345 21.9321C8.46486 21.9518 8.16935 21.8869 7.89943 21.7368L7.34376 21.4282C7.20234 21.3496 7.05754 21.2967 6.90919 21.2681L6.30568 21.1519C6.1463 21.1211 5.98298 21.1108 5.81544 21.1216L5.19044 21.1616C4.89302 21.1807 4.60568 21.1206 4.33791 20.9878L3.75978 20.7007C3.60523 20.6241 3.45105 20.5728 3.29689 20.5435L2.93458 20.4732C2.76605 20.4664 2.6019 20.4343 2.4424 20.3775C2.31773 20.3511 2.19285 20.3228 2.06837 20.2925L1.46779 20.146C1.32564 20.1114 1.23623 20.1188 1.18361 20.1333L0.722671 20.2603C0.684304 20.2709 0.646476 20.2812 0.618179 20.2876C0.610629 20.2893 0.599848 20.2913 0.587905 20.2935C0.582288 20.2945 0.549641 20.301 0.50978 20.3023C0.503903 20.3025 0.423502 20.3079 0.331069 20.2759C0.285959 20.2602 0.152216 20.2068 0.0654443 20.0562C-0.0385543 19.8753 0.00217927 19.6974 0.0459131 19.603C0.0838955 19.5213 0.135427 19.4705 0.154312 19.4526C0.178222 19.43 0.1998 19.4142 0.211929 19.4058C0.235803 19.3892 0.256694 19.3783 0.26564 19.3735C0.309296 19.3506 0.365228 19.3303 0.380874 19.3247C0.413775 19.3129 0.457676 19.2984 0.50978 19.2808L1.12306 19.0728C1.45155 18.9616 1.78616 18.9848 2.09767 19.1343L2.69142 19.4194C2.69907 19.4231 2.70732 19.4259 2.71486 19.4292C2.76927 19.4404 2.82353 19.4521 2.87794 19.4624L3.03517 19.4917C3.04032 19.4914 3.0456 19.4921 3.0508 19.4917L3.6758 19.4448C3.93956 19.4251 4.20079 19.45 4.45705 19.5191L5.0674 19.6841C5.15766 19.7084 5.25174 19.7047 5.36623 19.6567L5.99025 19.395C6.33334 19.2515 6.69042 19.2677 7.01955 19.4409L7.61818 19.7554C7.74314 19.8211 7.85322 19.8416 7.95705 19.8335L8.57326 19.7857C8.7998 19.7678 9.02657 19.7642 9.25294 19.7759L9.86818 19.8081C10.0737 19.8187 10.2792 19.8297 10.4844 19.8413L11.0986 19.8755C11.3666 19.8906 11.6259 19.9565 11.874 20.0689L12.461 20.3345C12.5893 20.3926 12.7154 20.4167 12.8438 20.4116L13.4668 20.3872C13.7261 20.377 13.9809 20.4078 14.2295 20.479L14.8233 20.6489C14.9372 20.6815 15.0642 20.687 15.2119 20.6558L15.8701 20.5161C16.2096 20.4443 16.5428 20.4991 16.8379 20.687L17.3819 21.0337C17.5226 21.1233 17.6682 21.1873 17.8194 21.228L18.4229 21.3901C18.5789 21.4322 18.7367 21.4521 18.8975 21.4487L19.5205 21.436C19.7651 21.431 20.0065 21.4533 20.2442 21.5034L20.8457 21.6304C21.076 21.679 21.3021 21.7487 21.5225 21.8394L22.1016 22.0776C22.2471 22.1375 22.3969 22.1729 22.5508 22.1841L23.1699 22.229C23.3423 22.2416 23.5164 22.2366 23.6924 22.2134L24.3194 22.1304C24.6035 22.093 24.8845 22.121 25.1563 22.2134L25.7588 22.4185C25.8607 22.4531 26.0641 22.4761 26.4111 22.4419L26.9697 22.3872L27.1494 22.3696L27.2979 22.4722L27.3809 22.5288L27.751 22.4302C27.8733 22.3973 27.997 22.3344 28.1211 22.2319L28.6397 21.8032C28.8974 21.5903 29.2026 21.4763 29.5391 21.4819L29.6455 21.4829C29.6314 21.2846 29.6417 21.0839 29.7041 20.9019L29.8281 20.5405C29.8425 20.4988 29.8453 20.4602 29.8379 20.4185L29.7705 20.0444C29.7409 19.8792 29.7321 19.7112 29.7442 19.5435L29.7725 19.1616C29.7864 18.9698 29.8372 18.7858 29.9258 18.6148L30.0977 18.2827C30.1281 18.2239 30.1465 18.164 30.1543 18.1011L30.1992 17.7349C30.2099 17.6484 30.2114 17.5602 30.2031 17.4712L30.169 17.0991C30.154 16.938 30.1574 16.7767 30.1797 16.6167L30.2315 16.2495C30.2535 16.092 30.2926 15.9364 30.3477 15.7847L30.4785 15.4224C30.4814 15.4145 30.4823 15.4098 30.4824 15.4077C30.4824 15.4055 30.4818 15.3975 30.4766 15.3823L30.3418 15.0015C30.2642 14.7813 30.255 14.5477 30.3281 14.3189L30.4424 13.9605C30.4641 13.8925 30.4743 13.8253 30.4727 13.7583L30.4629 13.3882C30.4579 13.1895 30.4977 12.9969 30.5772 12.8159L30.7334 12.4614C30.7594 12.4022 30.771 12.3471 30.7715 12.2935L30.7744 11.9224C30.7755 11.791 30.7796 11.6592 30.7871 11.5278L30.8086 11.1567C30.8154 11.0388 30.8202 10.9197 30.8233 10.8003L30.833 10.4253C30.839 10.1892 30.9207 9.9743 31.0586 9.79151L31.293 9.47999L31.2197 9.10011C31.1753 8.87224 31.198 8.64096 31.3008 8.4253L31.4639 8.08448C31.4849 8.04037 31.4924 7.99858 31.4912 7.9546L31.4805 7.5835C31.4744 7.37247 31.5239 7.16969 31.6182 6.9839L31.791 6.64308L31.6553 6.26124C31.5777 6.04216 31.5652 5.80871 31.6358 5.57862L31.7461 5.21827C31.7818 5.10186 31.8163 4.98549 31.8486 4.87061L31.9492 4.51417C31.9785 4.4101 32.0031 4.30461 32.0225 4.19874L32.0889 3.83546C32.1219 3.65501 32.1871 3.48422 32.2803 3.32569L32.4766 2.99073C32.4956 2.95833 32.502 2.93156 32.501 2.90089L32.4873 2.521C32.4815 2.35711 32.4943 2.19421 32.5264 2.03468L32.5996 1.67237C32.6352 1.49584 32.7002 1.32899 32.794 1.1753L32.9854 0.862802C33.0186 0.808283 33.0573 0.747844 33.0957 0.699716C33.1081 0.684282 33.1538 0.625749 33.2246 0.577645C33.2534 0.55817 33.3617 0.487331 33.5186 0.490731C33.6091 0.492766 33.7063 0.51958 33.793 0.580575C33.8343 0.609692 33.8676 0.642158 33.8936 0.674325L33.9522 0.767099L33.9746 0.81202C34.0286 0.921182 34.0291 1.0285 34.0293 1.03468C34.0305 1.06848 34.0289 1.1009 34.0274 1.1255C34.0241 1.17665 34.0175 1.238 34.0088 1.30323L33.959 1.67335C33.9408 1.80924 33.9177 1.94465 33.8887 2.07862L33.8096 2.44386C33.7965 2.50468 33.7945 2.56604 33.8047 2.63038L33.8643 3.00343C33.8872 3.14811 33.9007 3.29296 33.9043 3.43702L33.9131 3.80323C33.9172 3.96928 33.8988 4.13533 33.8604 4.29933L33.7735 4.67237C33.7744 4.67431 33.7756 4.67719 33.7774 4.68018L33.9883 5.03663C34.1355 5.2852 34.1608 5.5704 34.0459 5.84229L33.8887 6.21339C33.8651 6.26949 33.8602 6.31329 33.8633 6.35011L33.8955 6.72022C33.901 6.78385 33.9175 6.85131 33.9502 6.92335L34.1143 7.2837C34.1868 7.44324 34.2369 7.60963 34.2598 7.78077L34.3076 8.13722C34.3326 8.32409 34.3187 8.51133 34.2725 8.69386L34.1748 9.07765C34.1588 9.14106 34.1582 9.19484 34.167 9.24171L34.2363 9.60597C34.2624 9.74441 34.2765 9.8847 34.2813 10.0249L34.3594 9.76417C34.388 9.66816 34.4105 9.56972 34.4258 9.47022L34.4815 9.10499C34.5 8.98411 34.5183 8.86272 34.5361 8.74171L34.5899 8.3755C34.6098 8.24026 34.6361 8.10607 34.667 7.97413L34.75 7.61866C34.7762 7.50691 34.7997 7.39342 34.8213 7.27979L34.8906 6.91847C34.9222 6.75293 34.9768 6.593 35.0518 6.43995L35.2227 6.09132C35.2527 6.03001 35.2677 5.97221 35.2715 5.91651L35.2959 5.54835C35.3022 5.45387 35.3001 5.35585 35.2901 5.25538L35.252 4.8755C35.2341 4.69729 35.2453 4.51933 35.2852 4.34522L35.3682 3.98292C35.4031 3.83077 35.4525 3.68249 35.5166 3.53956L35.6699 3.19679C35.7156 3.09494 35.7575 2.99206 35.794 2.88917L35.917 2.54151C35.9583 2.42477 35.9999 2.30794 36.042 2.1919L36.167 1.8462C36.2068 1.73635 36.2454 1.62447 36.2822 1.51124L36.3985 1.15577C36.4319 1.05291 36.459 0.95138 36.4805 0.852059L36.5567 0.501474C36.5642 0.466352 36.5733 0.428536 36.584 0.393075C36.5897 0.374194 36.6125 0.295536 36.6641 0.220224C36.6806 0.196269 36.7746 0.0571559 36.9668 0.0131923ZM56.8115 50.1362L57.0176 50.3071C56.8925 50.2559 56.7568 50.1663 56.6563 50.0034C56.7082 50.0473 56.7591 50.0927 56.8115 50.1362ZM40.3926 33.23C40.5511 33.4283 40.6778 33.6479 40.7725 33.8862L41.0049 34.4702C41.054 34.5936 41.1267 34.6993 41.2276 34.7905L41.6973 35.2153C41.8703 35.3717 42.0311 35.5377 42.1777 35.7134L42.5733 36.187C42.7431 36.3905 42.8731 36.6204 42.9629 36.8726L43.1758 37.4702C43.2129 37.5742 43.2743 37.6583 43.3711 37.729L43.8955 38.1118C44.1086 38.2676 44.2925 38.4495 44.4434 38.6577L44.7998 39.1499C44.921 39.3171 45.0415 39.4874 45.1602 39.6597L45.5098 40.1675C45.6039 40.304 45.7145 40.4284 45.8408 40.5415L46.3057 40.9585C46.4987 41.1315 46.6604 41.3303 46.7891 41.5532L47.0957 42.0845C47.2128 42.2875 47.3146 42.5057 47.4004 42.7378L47.6319 43.3638C47.6444 43.3975 47.6556 43.4085 47.6592 43.4116C47.6634 43.4151 47.6802 43.4276 47.7246 43.437L48.3965 43.5806C48.7453 43.6547 49.032 43.8475 49.2266 44.148L49.5918 44.7124C49.6706 44.834 49.7602 44.9122 49.8594 44.9624L50.4111 45.2417C50.5565 45.3152 50.7175 45.3732 50.8955 45.4136L51.5401 45.5591C51.8347 45.626 52.0976 45.7613 52.3194 45.9644L52.7891 46.3931C52.995 46.5817 53.1573 46.8077 53.2764 47.064L53.5547 47.6636C53.6076 47.7773 53.6778 47.8509 53.7656 47.9019L54.3076 48.2163C54.5005 48.3282 54.6869 48.4476 54.8662 48.5747L55.2344 48.8355L54.9365 48.8306L54.6348 48.8179C54.4746 48.8125 54.3153 48.7949 54.1563 48.7661L53.8545 48.7144L53.5537 48.6577C53.3868 48.6273 53.2167 48.5871 53.0469 48.5357L52.7461 48.439L52.4463 48.3501C52.074 48.2369 51.692 48.251 51.332 48.3628L51.0049 48.4653L50.7031 48.5552L50.4668 48.4077L50.1856 48.2339C49.8895 48.05 49.5593 47.944 49.2061 47.9273L48.8916 47.9087L48.585 47.896C48.5413 47.8938 48.5118 47.8849 48.4815 47.8628L48.2383 47.6773L47.9883 47.4985C47.7051 47.2901 47.3821 47.1695 47.041 47.1206L46.7012 47.0698L46.4317 47.0308L46.3115 46.7944L46.1445 46.4995C45.9511 46.1486 45.6577 45.873 45.2735 45.7183L44.9785 45.5962L44.6846 45.4819C44.4912 45.4041 44.3016 45.3223 44.1143 45.2446L43.8262 45.1284L43.5449 45.0073C43.3546 44.9284 43.1583 44.849 42.9678 44.77L42.6865 44.6558L42.3985 44.5337C42.344 44.5109 42.2947 44.4747 42.2451 44.4116L42.0459 44.1616L41.8477 43.9058C41.6292 43.6279 41.3499 43.4137 41.0215 43.2788L40.7276 43.1567L40.4317 43.0415C40.3152 42.9936 40.215 42.9276 40.1309 42.855L39.6699 42.4585C39.4236 42.2466 39.1395 42.0947 38.8311 41.9976L38.5117 41.896L38.2676 41.8179L38.0957 41.2993C38.051 41.1617 38.0343 41.0394 38.0313 40.9351L38.0176 40.646L38.0117 40.3579C38.006 40.157 37.9995 39.9497 37.9863 39.7368L37.9668 39.4302L37.9473 39.1157C37.9392 38.9811 37.9484 38.849 37.9736 38.7183L38.0313 38.4116L38.0879 38.1108C38.1154 37.9706 38.163 37.8316 38.2227 37.6948L38.3447 37.4058L38.4727 37.1177C38.5812 36.8683 38.658 36.6096 38.7031 36.3433L38.8057 35.7407C38.8374 35.5529 38.8729 35.3589 38.9141 35.1646L38.9785 34.8511L39.0488 34.5435C39.0546 34.5167 39.0623 34.5018 39.0879 34.48L39.5742 34.0698C39.8318 33.8511 40.0655 33.5404 40.2783 33.1987L40.3164 33.1353L40.3926 33.23ZM30.5762 23.2993C30.4028 23.2867 30.2303 23.3047 30.0615 23.3462L29.8809 23.3882L29.7041 23.4341C29.5928 23.4615 29.4872 23.4843 29.3887 23.5034L29.2236 23.5337L29.0625 23.565C28.9197 23.5928 28.7725 23.6629 28.6582 23.7944C28.6032 23.8579 28.5628 23.9271 28.5352 23.9956L28.4824 24.1987L28.459 24.3794L28.4356 24.564C28.3988 24.8504 28.5026 25.1068 28.6973 25.2974L28.8389 25.4351L28.9776 25.5737C29.0482 25.6428 29.1063 25.711 29.1504 25.7778L29.25 25.9273L29.3467 26.0776C29.4747 26.2724 29.6616 26.4139 29.8926 26.4771L30.0576 26.523L30.2227 26.565C30.2935 26.5843 30.3731 26.6169 30.457 26.6616L30.626 26.7534L30.7949 26.8413C30.9832 26.9415 31.1912 26.9908 31.4063 26.98L31.5908 26.9683L31.7744 26.9614C31.9271 26.9537 32.0799 26.9308 32.2285 26.896L32.4082 26.853L32.586 26.811C32.76 26.7702 32.9253 26.7029 33.0742 26.604L33.2227 26.5044L33.3692 26.4077C33.386 26.3965 33.4186 26.3816 33.4805 26.3775L33.6846 26.3608L33.8838 26.3511C33.9604 26.346 34.0546 26.3354 34.1387 26.312C34.1786 26.3008 34.2533 26.2783 34.3262 26.228C34.4006 26.1765 34.5343 26.0488 34.5498 25.8355L34.5527 25.7925L34.5567 25.7476C34.5638 25.6474 34.5394 25.5668 34.5264 25.5278C34.5112 25.4828 34.4912 25.4431 34.4756 25.4136C34.4447 25.3553 34.4073 25.2946 34.3682 25.2398L34.2647 25.0933L34.1602 24.9517C34.0877 24.8504 34.0125 24.7457 33.9307 24.6411L33.8115 24.4907L33.6963 24.3413C33.5627 24.1707 33.3885 24.0446 33.1856 23.9683L33.0088 23.9028L32.832 23.8335C32.6964 23.7826 32.5563 23.7401 32.4199 23.7066L32.2481 23.6646L32.0713 23.6226C31.967 23.5969 31.8623 23.567 31.7598 23.5337L31.5908 23.4761L31.417 23.4224C31.2645 23.3728 31.1061 23.3425 30.9453 23.3306L30.5762 23.2993ZM30.2959 24.2983C30.2587 24.5448 30.3153 24.8694 30.5098 25.1245L30.6211 25.2661L30.7295 25.4087C30.8128 25.5176 30.9427 25.6333 31.1279 25.6773C31.3148 25.7213 31.4831 25.6757 31.6084 25.6118L31.9238 25.4507C31.9911 25.4162 32.1416 25.3334 32.2305 25.1694C32.2844 25.0683 32.2157 24.805 32.1856 24.6636C32.2823 24.6874 32.3849 24.7173 32.4863 24.7554L32.6631 24.8218L32.8399 24.8901C32.8732 24.9027 32.8976 24.9194 32.9199 24.9478L33.0391 25.0982L33.1543 25.2476C33.1987 25.3043 33.2406 25.3617 33.2813 25.4165C33.1212 25.4434 32.9638 25.4959 32.8233 25.5894L32.6777 25.6851L32.5283 25.7857C32.4814 25.8165 32.4273 25.8399 32.3633 25.855L32.002 25.939C31.9113 25.9602 31.8192 25.9733 31.7256 25.978L31.5401 25.9888L31.3565 25.9966C31.3252 25.9982 31.2936 25.9927 31.2569 25.9732L31.0869 25.8853L30.918 25.7925C30.7774 25.7176 30.633 25.6564 30.4844 25.6157L30.3194 25.5737L30.1611 25.5278L30.0733 25.3901L29.9736 25.2398C29.8869 25.1077 29.7818 24.9847 29.6651 24.8706L29.4199 24.6245L29.4356 24.5064V24.4907L29.5742 24.4673C29.6908 24.4447 29.8127 24.4172 29.9385 24.3862L30.1192 24.3442L30.2959 24.2983ZM0.403335 19.3276C0.401809 19.328 0.400562 19.3286 0.400405 19.3286C0.400408 19.3286 0.401709 19.3283 0.404312 19.3276L0.405288 19.3267L0.403335 19.3276Z" fill="#DCDCDC"/>
<path d="M28.7243 32.104C29.1578 31.9737 29.4036 31.5166 29.2732 31.083C29.1428 30.6495 28.6857 30.4038 28.2522 30.5341L28.4882 31.3191L28.7243 32.104ZM28.3925 31.3479L28.5855 32.1445L28.6072 32.1393L28.6285 32.1328L28.3925 31.3479ZM26.9632 31.5212L27.214 30.7409L26.9632 31.5212ZM26.3496 31.324L26.0988 32.1044L26.3496 31.324ZM24.6173 31.9277L24.3059 31.1695L24.6173 31.9277ZM24.0589 32.157L23.7475 31.3988L24.0589 32.157ZM23.5149 32.3969L23.1646 31.6558L23.5149 32.3969ZM23.2502 32.522L23.6005 33.2631L23.2502 32.522ZM22.9854 32.6472L22.635 31.9062L22.9854 32.6472ZM22.496 33.3394L21.7339 33.0375L22.496 33.3394ZM22.4131 34.1415L21.7113 34.5649L22.4131 34.1415ZM22.6967 34.6116L21.9948 35.035L22.6967 34.6116ZM23.0973 34.9242L22.8619 35.7093L23.0973 34.9242ZM23.6149 35.0794L23.3795 35.8645L23.6149 35.0794ZM24.2003 35.2063L24.0778 36.0168L24.2003 35.2063ZM24.5268 35.2557L24.4043 36.0662L24.5268 35.2557ZM26.7285 33.8395L26.2078 33.2064L26.7285 33.8395ZM27.0802 33.3688L27.8268 33.7071L27.0802 33.3688ZM27.3422 32.7906L26.5956 32.4523L27.3422 32.7906ZM27.7754 32.4116L28.009 33.1973L27.7754 32.4116ZM28.6725 32.1214L29.4162 31.7767L28.6725 32.1214ZM28.6629 32.1006L29.4066 31.7559L29.1594 31.2225L28.5748 31.2857L28.6629 32.1006ZM28.5587 32.1118L28.126 31.4157L28.6467 32.9268L28.5587 32.1118ZM29.0764 32.7552C29.4608 32.5162 29.5788 32.0108 29.3398 31.6263C29.1008 31.2419 28.5954 31.1239 28.2109 31.3629L28.6436 32.0591L29.0764 32.7552ZM28.4882 31.3191L28.2522 30.5341L28.1564 30.5629L28.3925 31.3479L28.6285 32.1328L28.7243 32.104L28.4882 31.3191ZM28.3925 31.3479L28.1995 30.5513L27.6383 30.6872L27.8313 31.4839L28.0243 32.2805L28.5855 32.1445L28.3925 31.3479ZM27.8313 31.4839L27.6383 30.6872C27.4871 30.7239 27.3758 30.7389 27.2984 30.7423C27.219 30.7457 27.198 30.7357 27.214 30.7409L26.9632 31.5212L26.7124 32.3016C27.1344 32.4372 27.6037 32.3824 28.0243 32.2805L27.8313 31.4839ZM26.9632 31.5212L27.214 30.7409L26.9072 30.6423L26.6564 31.4226L26.4056 32.203L26.7124 32.3016L26.9632 31.5212ZM26.6564 31.4226L26.9072 30.6423L26.6004 30.5437L26.3496 31.324L26.0988 32.1044L26.4056 32.203L26.6564 31.4226ZM26.3496 31.324L26.6004 30.5437C26.1893 30.4115 25.7668 30.4458 25.3823 30.6429L25.7562 31.3723L26.1302 32.1018C26.1348 32.0994 26.1352 32.0997 26.1315 32.1008C26.1277 32.1019 26.1217 32.1032 26.1144 32.1038C26.1071 32.1044 26.101 32.1041 26.0971 32.1036C26.0934 32.1031 26.0938 32.1028 26.0988 32.1044L26.3496 31.324ZM25.7562 31.3723L25.3823 30.6429L25.0957 30.7898L25.4697 31.5193L25.8436 32.2487L26.1302 32.1018L25.7562 31.3723ZM25.4697 31.5193L25.0957 30.7898L24.8091 30.9367L25.1831 31.6662L25.557 32.3956L25.8436 32.2487L25.4697 31.5193ZM25.1831 31.6662L24.8091 30.9367C24.6372 31.0249 24.4694 31.1023 24.3059 31.1695L24.6173 31.9277L24.9286 32.686C25.1374 32.6002 25.3468 32.5033 25.557 32.3956L25.1831 31.6662ZM24.6173 31.9277L24.3059 31.1695L24.0267 31.2842L24.3381 32.0424L24.6494 32.8006L24.9286 32.686L24.6173 31.9277ZM24.3381 32.0424L24.0267 31.2842L23.7475 31.3988L24.0589 32.157L24.3702 32.9153L24.6494 32.8006L24.3381 32.0424ZM24.0589 32.157L23.7475 31.3988C23.5486 31.4805 23.3543 31.5661 23.1646 31.6558L23.5149 32.3969L23.8653 33.1379C24.0285 33.0607 24.1969 32.9865 24.3702 32.9153L24.0589 32.157ZM23.5149 32.3969L23.1646 31.6558L22.8998 31.781L23.2502 32.522L23.6005 33.2631L23.8653 33.1379L23.5149 32.3969ZM23.2502 32.522L22.8998 31.781L22.635 31.9062L22.9854 32.6472L23.3357 33.3882L23.6005 33.2631L23.2502 32.522ZM22.9854 32.6472L22.635 31.9062C22.2622 32.0825 21.9942 32.3805 21.8463 32.754L22.6083 33.0559L23.3703 33.3578C23.3725 33.3523 23.3733 33.3516 23.3717 33.3543C23.3699 33.3571 23.3665 33.362 23.3612 33.3678C23.3558 33.3737 23.35 33.3787 23.3445 33.3827C23.3419 33.3846 23.3397 33.386 23.3381 33.3869C23.3365 33.3879 23.3357 33.3883 23.3357 33.3882L22.9854 32.6472ZM22.6083 33.0559L21.8463 32.754L21.7339 33.0375L22.496 33.3394L23.258 33.6413L23.3703 33.3578L22.6083 33.0559ZM22.496 33.3394L21.7339 33.0375L21.6216 33.321L22.3836 33.623L23.1457 33.9249L23.258 33.6413L22.496 33.3394ZM22.3836 33.623L21.6216 33.321C21.4645 33.7177 21.4686 34.1626 21.7113 34.5649L22.4131 34.1415L23.115 33.7181C23.1326 33.7473 23.1501 33.7934 23.1532 33.8479C23.1561 33.8992 23.1445 33.9278 23.1457 33.9249L22.3836 33.623ZM22.4131 34.1415L21.7113 34.5649L21.8531 34.7999L22.5549 34.3765L23.2567 33.9531L23.115 33.7181L22.4131 34.1415ZM22.5549 34.3765L21.8531 34.7999L21.9948 35.035L22.6967 34.6116L23.3985 34.1881L23.2567 33.9531L22.5549 34.3765ZM22.6967 34.6116L21.9948 35.035C22.1927 35.3629 22.4909 35.5981 22.8619 35.7093L23.0973 34.9242L23.3327 34.139C23.3377 34.1405 23.3536 34.1466 23.372 34.161C23.3805 34.1676 23.3872 34.1742 23.392 34.1798C23.3968 34.1852 23.3988 34.1885 23.3985 34.1881L22.6967 34.6116ZM23.0973 34.9242L22.8619 35.7093L23.1207 35.7869L23.3561 35.0018L23.5915 34.2167L23.3327 34.139L23.0973 34.9242ZM23.3561 35.0018L23.1207 35.7869L23.3795 35.8645L23.6149 35.0794L23.8504 34.2943L23.5915 34.2167L23.3561 35.0018ZM23.6149 35.0794L23.3795 35.8645C23.5961 35.9295 23.83 35.9794 24.0778 36.0168L24.2003 35.2063L24.3227 34.3959C24.1352 34.3675 23.9788 34.3328 23.8504 34.2943L23.6149 35.0794ZM24.2003 35.2063L24.0778 36.0168L24.4043 36.0662L24.5268 35.2557L24.6492 34.4452L24.3227 34.3959L24.2003 35.2063ZM24.5268 35.2557L24.4043 36.0662L24.7308 36.1155L24.8533 35.305L24.9758 34.4946L24.6492 34.4452L24.5268 35.2557ZM24.8533 35.305L24.7308 36.1155C25.2172 36.189 25.6733 36.0294 26.0066 35.6647L25.4015 35.1118L24.7964 34.5588C24.8015 34.5533 24.8293 34.5266 24.881 34.5083C24.9327 34.4901 24.9701 34.4937 24.9758 34.4946L24.8533 35.305ZM25.4015 35.1118L26.0066 35.6647L26.2283 35.4221L25.6232 34.8691L25.0181 34.3162L24.7964 34.5588L25.4015 35.1118ZM25.6232 34.8691L26.2283 35.4221L26.4499 35.1795L25.8448 34.6265L25.2397 34.0736L25.0181 34.3162L25.6232 34.8691ZM25.8448 34.6265L26.4499 35.1795C26.5753 35.0422 26.6948 34.9285 26.8079 34.8355L26.2872 34.2024L25.7665 33.5694C25.5853 33.7184 25.4099 33.8874 25.2397 34.0736L25.8448 34.6265ZM26.2872 34.2024L26.8079 34.8355L27.0285 34.654L26.5078 34.021L25.9872 33.3879L25.7665 33.5694L26.2872 34.2024ZM26.5078 34.021L27.0285 34.654L27.2492 34.4725L26.7285 33.8395L26.2078 33.2064L25.9872 33.3879L26.5078 34.021ZM26.7285 33.8395L27.2492 34.4725C27.5035 34.2634 27.6935 34.0013 27.8268 33.7071L27.0802 33.3688L26.3336 33.0305C26.2922 33.1219 26.2477 33.1736 26.2078 33.2064L26.7285 33.8395ZM27.0802 33.3688L27.8268 33.7071L27.9578 33.418L27.2112 33.0797L26.4646 32.7414L26.3336 33.0305L27.0802 33.3688ZM27.2112 33.0797L27.9578 33.418L28.0888 33.1289L27.3422 32.7906L26.5956 32.4523L26.4646 32.7414L27.2112 33.0797ZM27.3422 32.7906L28.0888 33.1289C28.0892 33.128 28.0803 33.1467 28.0557 33.1682C28.0444 33.1781 28.0332 33.1855 28.0235 33.1907C28.0141 33.1958 28.0086 33.1974 28.009 33.1973L27.7754 32.4116L27.5419 31.6259C27.1109 31.754 26.7803 32.0447 26.5956 32.4523L27.3422 32.7906ZM27.7754 32.4116L28.009 33.1973L28.3112 33.1075L28.0777 32.3218L27.8442 31.5361L27.5419 31.6259L27.7754 32.4116ZM28.0777 32.3218L28.3112 33.1075L28.6134 33.0177L28.3799 32.2319L28.1464 31.4462L27.8442 31.5361L28.0777 32.3218ZM28.3799 32.2319L28.6134 33.0177C28.7182 32.9865 28.8163 32.9555 28.894 32.9261C28.9266 32.9138 28.9905 32.8889 29.0564 32.8523C29.0811 32.8386 29.1655 32.7915 29.2501 32.7068C29.2821 32.6747 29.6566 32.2954 29.4162 31.7767L28.6725 32.1214L27.9288 32.466C27.8183 32.2275 27.8439 31.9915 27.9097 31.8242C27.9666 31.6796 28.0504 31.5881 28.09 31.5485C28.1697 31.4687 28.246 31.4272 28.2592 31.4198C28.3023 31.3958 28.3305 31.3865 28.3144 31.3927C28.2945 31.4002 28.2431 31.4175 28.1464 31.4462L28.3799 32.2319ZM28.6725 32.1214L29.4162 31.7767L29.4066 31.7559L28.6629 32.1006L27.9192 32.4452L27.9288 32.466L28.6725 32.1214ZM28.6629 32.1006L28.5748 31.2857L28.4707 31.2969L28.5587 32.1118L28.6467 32.9268L28.7509 32.9155L28.6629 32.1006ZM28.5587 32.1118L28.9914 32.808L29.0764 32.7552L28.6436 32.0591L28.2109 31.3629L28.126 31.4157L28.5587 32.1118Z" fill="#DCDCDC"/>
<path d="M35.7732 53.1759C35.9453 52.7572 35.7454 52.2783 35.3267 52.1062C34.908 51.934 34.4291 52.1339 34.257 52.5526L35.0151 52.8643L35.7732 53.1759ZM34.9771 52.9568L34.2189 52.6451L34.2118 52.6626L34.2054 52.6804L34.9771 52.9568ZM34.786 53.4904L34.0143 53.214L34.786 53.4904ZM34.3939 54.2717L33.7573 53.7554L34.3939 54.2717ZM33.9919 54.7673L34.6285 55.2836L33.9919 54.7673ZM33.743 55.3291L32.9327 55.2055L33.743 55.3291ZM33.6951 55.6432L34.5054 55.7668L33.6951 55.6432ZM33.6472 55.9573L32.8369 55.8336V55.8336L33.6472 55.9573ZM33.487 56.5609L32.7227 56.2647L33.487 56.5609ZM33.3747 56.8505L32.6105 56.5543L33.3747 56.8505ZM33.2625 57.1401L34.0267 57.4364L33.2625 57.1401ZM32.9901 57.6899L32.292 57.2603L32.9901 57.6899ZM32.6698 58.2104L33.3679 58.64L32.6698 58.2104ZM32.6327 58.7379L33.3773 58.3951L32.6327 58.7379ZM32.8789 59.2725L32.1343 59.6153L32.8789 59.2725ZM33.3105 59.5544L33.2719 60.3731L33.3105 59.5544ZM33.9276 59.5835L33.9662 58.7647L33.9276 59.5835ZM33.9599 59.7286L34.3103 60.4696L33.9599 59.7286ZM33.4075 59.9899L33.0571 59.2489L33.4075 59.9899ZM32.8222 60.0301L33.0523 59.2434L32.8222 60.0301ZM32.2041 59.8493L32.4342 59.0626L32.2041 59.8493ZM31.6012 59.9121L31.2223 59.1852V59.1852L31.6012 59.9121ZM31.3073 60.0653L31.6861 60.7922L31.3073 60.0653ZM31.0134 60.2185L30.6346 59.4916L31.0134 60.2185ZM30.4106 60.3876L30.4527 61.2061V61.2061L30.4106 60.3876ZM30.1016 60.4035L30.0594 59.5849L30.1016 60.4035ZM29.7926 60.4194L29.8348 61.238L29.7926 60.4194ZM29.191 60.5446L28.9043 59.7767L29.191 60.5446ZM28.8984 60.6538L28.6117 59.8859L28.8984 60.6538ZM28.6058 60.7631L28.8925 61.531L28.6058 60.7631ZM27.9934 60.8283L27.8816 61.6403L27.9934 60.8283ZM27.3538 60.7402L27.242 61.5522L27.3538 60.7402ZM26.7317 60.7526L26.5814 59.9468L26.7317 60.7526ZM26.127 60.8654L26.2773 61.6711L26.127 60.8654ZM25.519 60.9646L25.6328 61.7763L25.519 60.9646ZM25.2133 61.0075L25.0995 60.1957L25.2133 61.0075ZM24.9077 61.0503L24.7939 60.2386L24.9077 61.0503ZM24.4241 61.2237L23.9393 60.5627L24.4241 61.2237ZM24.0683 61.4847L24.553 62.1456L24.0683 61.4847ZM23.6719 61.8348L23.0908 61.2567L23.6719 61.8348ZM23.2349 62.274L22.6538 61.696L23.2349 62.274ZM22.7797 62.7001L23.3184 63.3179L22.7797 62.7001ZM22.3063 63.113L21.7675 62.4952L22.3063 63.113ZM21.8613 63.1924L22.2881 62.4926L21.8613 63.1924ZM21.4448 62.9384L21.018 63.6381L21.4448 62.9384ZM21.6278 61.9722L20.8849 61.6259L21.6278 61.9722ZM22.0206 61.5137L21.559 60.8363L22.0206 61.5137ZM22.2831 61.3348L22.7447 62.0122L22.2831 61.3348ZM22.5456 61.156L22.084 60.4786L22.5456 61.156ZM23.015 60.7256L22.382 60.2048L23.015 60.7256ZM23.4289 60.2225L24.0619 60.7433L23.4289 60.2225ZM23.9478 59.938L24.034 60.7531L23.9478 59.938ZM24.2596 59.905L24.1734 59.0898L24.2596 59.905ZM24.5715 59.872L24.6578 60.6871L24.5715 59.872ZM25.1899 59.7988L25.0833 58.9861L25.1899 59.7988ZM25.8028 59.7184L25.9094 60.5311L25.8028 59.7184ZM26.4112 59.6162L26.2464 58.8133L26.4112 59.6162ZM27.015 59.4923L27.1798 60.2952L27.015 59.4923ZM28.8853 59.5346L29.1801 60.2994L28.8853 59.5346ZM29.1799 59.421L29.4747 60.1858L29.1799 59.421ZM29.4745 59.3074L29.1796 58.5426L29.4745 59.3074ZM30.0731 59.148L30.1955 59.9584L30.0731 59.148ZM30.3771 59.102L30.4995 59.9125L30.3771 59.102ZM30.6811 59.0561L30.5587 58.2456L30.6811 59.0561ZM31.2142 58.8238L30.6969 58.188L31.2142 58.8238ZM31.6724 58.451L32.1897 59.0868L31.6724 58.451ZM31.8727 57.9473L32.6891 57.8733L31.8727 57.9473ZM31.8153 57.3126L32.6316 57.2386L31.8153 57.3126ZM31.8728 56.7415L32.6488 57.0054L31.8728 56.7415ZM31.959 56.4878L31.183 56.224L31.959 56.4878ZM32.0453 56.2342L32.8213 56.498L32.0453 56.2342ZM32.3389 55.4932L31.5847 55.1722L32.3389 55.4932ZM32.6671 54.7206L33.4219 55.0402L32.6671 54.7206ZM32.7879 54.4353L32.033 54.1158L32.7879 54.4353ZM32.9087 54.15L32.1538 53.8305L32.9087 54.15ZM33.1267 53.5714L32.3487 53.3133L33.1267 53.5714ZM33.3213 52.9848L34.0993 53.2429L33.3213 52.9848ZM33.5139 52.6179L33.0127 51.9693L33.5139 52.6179ZM33.6092 52.5442L33.3412 51.7696L33.2143 51.8135L33.108 51.8957L33.6092 52.5442ZM33.7644 52.4905L34.0324 53.2652L34.3956 53.1395L34.5313 52.78L33.7644 52.4905ZM34.5666 52.6864C34.7265 52.2629 34.5127 51.79 34.0892 51.6301C33.6657 51.4703 33.1927 51.684 33.0329 52.1075L33.7998 52.397L34.5666 52.6864ZM35.0151 52.8643L34.257 52.5526L34.2189 52.6451L34.9771 52.9568L35.7352 53.2684L35.7732 53.1759L35.0151 52.8643ZM34.9771 52.9568L34.2054 52.6804L34.0143 53.214L34.786 53.4904L35.5576 53.7667L35.7487 53.2331L34.9771 52.9568ZM34.786 53.4904L34.0143 53.214C33.8978 53.5393 33.8044 53.6973 33.7573 53.7554L34.3939 54.2717L35.0304 54.7881C35.2513 54.5159 35.4193 54.1529 35.5576 53.7667L34.786 53.4904ZM34.3939 54.2717L33.7573 53.7554L33.5563 54.0031L34.1929 54.5195L34.8295 55.0359L35.0304 54.7881L34.3939 54.2717ZM34.1929 54.5195L33.5563 54.0031L33.3554 54.2509L33.9919 54.7673L34.6285 55.2836L34.8295 55.0359L34.1929 54.5195ZM33.9919 54.7673L33.3554 54.2509C33.13 54.5287 32.9867 54.8514 32.9327 55.2055L33.743 55.3291L34.5533 55.4527C34.5632 55.388 34.5859 55.3361 34.6285 55.2836L33.9919 54.7673ZM33.743 55.3291L32.9327 55.2055L32.8848 55.5196L33.6951 55.6432L34.5054 55.7668L34.5533 55.4527L33.743 55.3291ZM33.6951 55.6432L32.8848 55.5196L32.8369 55.8336L33.6472 55.9573L34.4575 56.0809L34.5054 55.7668L33.6951 55.6432ZM33.6472 55.9573L32.8369 55.8336C32.8137 55.9853 32.7755 56.1286 32.7227 56.2647L33.487 56.5609L34.2513 56.8572C34.3482 56.6072 34.4167 56.348 34.4575 56.0809L33.6472 55.9573ZM33.487 56.5609L32.7227 56.2647L32.6105 56.5543L33.3747 56.8505L34.139 57.1468L34.2513 56.8572L33.487 56.5609ZM33.3747 56.8505L32.6105 56.5543L32.4982 56.8438L33.2625 57.1401L34.0267 57.4364L34.139 57.1468L33.3747 56.8505ZM33.2625 57.1401L32.4982 56.8438C32.4411 56.9913 32.3723 57.1299 32.292 57.2603L32.9901 57.6899L33.6882 58.1195C33.8214 57.903 33.9342 57.675 34.0267 57.4364L33.2625 57.1401ZM32.9901 57.6899L32.292 57.2603L32.1319 57.5206L32.8299 57.9501L33.528 58.3797L33.6882 58.1195L32.9901 57.6899ZM32.8299 57.9501L32.1319 57.5206L31.9717 57.7808L32.6698 58.2104L33.3679 58.64L33.528 58.3797L32.8299 57.9501ZM32.6698 58.2104L31.9717 57.7808C31.7279 58.177 31.6863 58.6422 31.8882 59.0807L32.6327 58.7379L33.3773 58.3951C33.3873 58.4168 33.4027 58.4653 33.3981 58.5298C33.3937 58.5929 33.373 58.6317 33.3679 58.64L32.6698 58.2104ZM32.6327 58.7379L31.8882 59.0807L32.0112 59.348L32.7558 59.0052L33.5004 58.6624L33.3773 58.3951L32.6327 58.7379ZM32.7558 59.0052L32.0112 59.348L32.1343 59.6153L32.8789 59.2725L33.6234 58.9298L33.5004 58.6624L32.7558 59.0052ZM32.8789 59.2725L32.1343 59.6153C32.2305 59.8242 32.3815 60.0202 32.6001 60.1629C32.8166 60.3043 33.0522 60.3628 33.2719 60.3731L33.3105 59.5544L33.3491 58.7356C33.3631 58.7363 33.4239 58.743 33.4965 58.7904C33.5712 58.8392 33.6093 58.8991 33.6234 58.9298L32.8789 59.2725ZM33.3105 59.5544L33.2719 60.3731L33.5804 60.3877L33.619 59.5689L33.6576 58.7502L33.3491 58.7356L33.3105 59.5544ZM33.619 59.5689L33.5804 60.3877L33.889 60.4022L33.9276 59.5835L33.9662 58.7647L33.6576 58.7502L33.619 59.5689ZM33.9276 59.5835L33.889 60.4022C33.9218 60.4038 33.8914 60.4054 33.8329 60.3897C33.8055 60.3823 33.7238 60.359 33.6298 60.2978C33.5354 60.2364 33.352 60.0844 33.2899 59.8052C33.2266 59.5213 33.3318 59.301 33.3987 59.1985C33.4634 59.0996 33.5332 59.0431 33.5568 59.0247C33.6073 58.9852 33.6387 58.9738 33.6095 58.9876L33.9599 59.7286L34.3103 60.4696C34.3732 60.4399 34.4723 60.3898 34.5661 60.3165C34.6114 60.2811 34.6968 60.2089 34.7709 60.0955C34.8474 59.9785 34.9559 59.7449 34.89 59.4489C34.8251 59.1576 34.633 58.9947 34.5238 58.9236C34.4148 58.8528 34.3122 58.8209 34.2577 58.8063C34.145 58.7761 34.0362 58.768 33.9662 58.7647L33.9276 59.5835ZM33.9599 59.7286L33.6095 58.9876L33.3333 59.1183L33.6837 59.8593L34.0341 60.6003L34.3103 60.4696L33.9599 59.7286ZM33.6837 59.8593L33.3333 59.1183L33.0571 59.2489L33.4075 59.9899L33.7579 60.7309L34.0341 60.6003L33.6837 59.8593ZM33.4075 59.9899L33.0571 59.2489C33.0544 59.2501 33.0547 59.2498 33.0574 59.2491C33.0601 59.2483 33.0635 59.2477 33.0668 59.2475C33.0701 59.2473 33.0713 59.2475 33.0698 59.2474C33.0681 59.2472 33.0624 59.2464 33.0523 59.2434L32.8222 60.0301L32.5921 60.8168C32.9794 60.9301 33.382 60.9086 33.7579 60.7309L33.4075 59.9899ZM32.8222 60.0301L33.0523 59.2434L32.7433 59.153L32.5132 59.9397L32.2831 60.7264L32.5921 60.8168L32.8222 60.0301ZM32.5132 59.9397L32.7433 59.153L32.4342 59.0626L32.2041 59.8493L31.974 60.636L32.2831 60.7264L32.5132 59.9397ZM32.2041 59.8493L32.4342 59.0626C32.0186 58.9411 31.5998 58.9885 31.2223 59.1852L31.6012 59.9121L31.98 60.639C31.9881 60.6347 31.992 60.6336 31.9918 60.6337C31.9914 60.6338 31.9885 60.6346 31.9837 60.6351C31.9789 60.6356 31.9746 60.6355 31.9717 60.6352C31.9689 60.635 31.9694 60.6347 31.974 60.636L32.2041 59.8493ZM31.6012 59.9121L31.2223 59.1852L30.9285 59.3384L31.3073 60.0653L31.6861 60.7922L31.98 60.639L31.6012 59.9121ZM31.3073 60.0653L30.9285 59.3384L30.6346 59.4916L31.0134 60.2185L31.3923 60.9453L31.6861 60.7922L31.3073 60.0653ZM31.0134 60.2185L30.6346 59.4916C30.5354 59.5433 30.4486 59.5648 30.3684 59.569L30.4106 60.3876L30.4527 61.2061C30.7844 61.189 31.0996 61.0979 31.3923 60.9453L31.0134 60.2185ZM30.4106 60.3876L30.3684 59.569L30.0594 59.5849L30.1016 60.4035L30.1438 61.2221L30.4527 61.2061L30.4106 60.3876ZM30.1016 60.4035L30.0594 59.5849L29.7504 59.6008L29.7926 60.4194L29.8348 61.238L30.1438 61.2221L30.1016 60.4035ZM29.7926 60.4194L29.7504 59.6008C29.46 59.6158 29.177 59.6749 28.9043 59.7767L29.191 60.5446L29.4777 61.3125C29.5951 61.2686 29.7132 61.2443 29.8348 61.238L29.7926 60.4194ZM29.191 60.5446L28.9043 59.7767L28.6117 59.8859L28.8984 60.6538L29.1851 61.4217L29.4777 61.3125L29.191 60.5446ZM28.8984 60.6538L28.6117 59.8859L28.3191 59.9952L28.6058 60.7631L28.8925 61.531L29.1851 61.4217L28.8984 60.6538ZM28.6058 60.7631L28.3191 59.9952C28.2555 60.0189 28.1887 60.0278 28.1052 60.0163L27.9934 60.8283L27.8816 61.6403C28.2246 61.6875 28.5659 61.6529 28.8925 61.531L28.6058 60.7631ZM27.9934 60.8283L28.1052 60.0163L27.7854 59.9722L27.6736 60.7842L27.5618 61.5963L27.8816 61.6403L27.9934 60.8283ZM27.6736 60.7842L27.7854 59.9722L27.4656 59.9282L27.3538 60.7402L27.242 61.5522L27.5618 61.5963L27.6736 60.7842ZM27.3538 60.7402L27.4656 59.9282C27.1696 59.8875 26.8736 59.8923 26.5814 59.9468L26.7317 60.7526L26.882 61.5584C26.9929 61.5377 27.1116 61.5343 27.242 61.5522L27.3538 60.7402ZM26.7317 60.7526L26.5814 59.9468L26.2791 60.0032L26.4294 60.809L26.5796 61.6148L26.882 61.5584L26.7317 60.7526ZM26.4294 60.809L26.2791 60.0032L25.9767 60.0596L26.127 60.8654L26.2773 61.6711L26.5796 61.6148L26.4294 60.809ZM26.127 60.8654L25.9767 60.0596C25.7873 60.0949 25.5968 60.126 25.4052 60.1529L25.519 60.9646L25.6328 61.7763C25.8488 61.7461 26.0636 61.711 26.2773 61.6711L26.127 60.8654ZM25.519 60.9646L25.4052 60.1529L25.0995 60.1957L25.2133 61.0075L25.3272 61.8192L25.6328 61.7763L25.519 60.9646ZM25.2133 61.0075L25.0995 60.1957L24.7939 60.2386L24.9077 61.0503L25.0215 61.8621L25.3272 61.8192L25.2133 61.0075ZM24.9077 61.0503L24.7939 60.2386C24.5065 60.2789 24.2021 60.37 23.9393 60.5627L24.4241 61.2237L24.9089 61.8846C24.895 61.8948 24.8924 61.8932 24.9105 61.8867C24.9291 61.88 24.9644 61.8701 25.0215 61.8621L24.9077 61.0503ZM24.4241 61.2237L23.9393 60.5627L23.7614 60.6932L24.2462 61.3542L24.7309 62.0151L24.9089 61.8846L24.4241 61.2237ZM24.2462 61.3542L23.7614 60.6932L23.5835 60.8237L24.0683 61.4847L24.553 62.1456L24.7309 62.0151L24.2462 61.3542ZM24.0683 61.4847L23.5835 60.8237C23.4201 60.9435 23.2554 61.0912 23.0908 61.2567L23.6719 61.8348L24.253 62.4128C24.3797 62.2855 24.4792 62.1997 24.553 62.1456L24.0683 61.4847ZM23.6719 61.8348L23.0908 61.2567L22.8723 61.4763L23.4534 62.0544L24.0345 62.6325L24.253 62.4128L23.6719 61.8348ZM23.4534 62.0544L22.8723 61.4763L22.6538 61.696L23.2349 62.274L23.816 62.8521L24.0345 62.6325L23.4534 62.0544ZM23.2349 62.274L22.6538 61.696C22.522 61.8285 22.3844 61.9573 22.241 62.0823L22.7797 62.7001L23.3184 63.3179C23.4906 63.1677 23.6565 63.0125 23.816 62.8521L23.2349 62.274ZM22.7797 62.7001L22.241 62.0823L22.0043 62.2888L22.543 62.9065L23.0817 63.5243L23.3184 63.3179L22.7797 62.7001ZM22.543 62.9065L22.0043 62.2888L21.7675 62.4952L22.3063 63.113L22.845 63.7307L23.0817 63.5243L22.543 62.9065ZM22.3063 63.113L21.7675 62.4952C21.7589 62.5027 21.8142 62.4502 21.9326 62.4291C22.0718 62.4043 22.2014 62.4397 22.2881 62.4926L21.8613 63.1924L21.4345 63.8921C21.66 64.0297 21.9332 64.0942 22.2207 64.0429C22.4874 63.9953 22.6958 63.8608 22.845 63.7307L22.3063 63.113ZM21.8613 63.1924L22.2881 62.4926L22.0799 62.3656L21.6531 63.0654L21.2263 63.7651L21.4345 63.8921L21.8613 63.1924ZM21.6531 63.0654L22.0799 62.3656L21.8717 62.2386L21.4448 62.9384L21.018 63.6381L21.2263 63.7651L21.6531 63.0654ZM21.4448 62.9384L21.8717 62.2386C21.9612 62.2932 22.088 62.419 22.1263 62.6191C22.1425 62.7035 22.1364 62.772 22.1283 62.8144C22.1205 62.8556 22.11 62.8778 22.1099 62.878L21.367 62.5316L20.6241 62.1853C20.5417 62.362 20.4585 62.6257 20.5162 62.9273C20.5804 63.2629 20.7896 63.4988 21.018 63.6381L21.4448 62.9384ZM21.367 62.5316L22.1099 62.878L22.2403 62.5983L21.4974 62.2519L20.7545 61.9056L20.6241 62.1853L21.367 62.5316ZM21.4974 62.2519L22.2403 62.5983L22.3707 62.3186L21.6278 61.9722L20.8849 61.6259L20.7545 61.9056L21.4974 62.2519ZM21.6278 61.9722L22.3707 62.3186C22.3934 62.2698 22.4253 62.2298 22.4822 62.191L22.0206 61.5137L21.559 60.8363C21.266 61.0361 21.036 61.3018 20.8849 61.6259L21.6278 61.9722ZM22.0206 61.5137L22.4822 62.191L22.7447 62.0122L22.2831 61.3348L21.8215 60.6575L21.559 60.8363L22.0206 61.5137ZM22.2831 61.3348L22.7447 62.0122L23.0071 61.8333L22.5456 61.156L22.084 60.4786L21.8215 60.6575L22.2831 61.3348ZM22.5456 61.156L23.0071 61.8333C23.248 61.6692 23.4618 61.4725 23.648 61.2463L23.015 60.7256L22.382 60.2048C22.2922 60.314 22.1931 60.4043 22.084 60.4786L22.5456 61.156ZM23.015 60.7256L23.648 61.2463L23.8549 60.9948L23.222 60.474L22.589 59.9532L22.382 60.2048L23.015 60.7256ZM23.222 60.474L23.8549 60.9948L24.0619 60.7433L23.4289 60.2225L22.7959 59.7017L22.589 59.9532L23.222 60.474ZM23.4289 60.2225L24.0619 60.7433C24.067 60.737 24.0692 60.7355 24.0678 60.7366C24.0662 60.7379 24.0623 60.7409 24.0562 60.7443C24.0501 60.7477 24.0439 60.7501 24.0388 60.7517C24.0337 60.7533 24.0317 60.7533 24.034 60.7531L23.9478 59.938L23.8615 59.1228C23.4308 59.1684 23.0646 59.3751 22.7959 59.7017L23.4289 60.2225ZM23.9478 59.938L24.034 60.7531L24.3459 60.7201L24.2596 59.905L24.1734 59.0898L23.8615 59.1228L23.9478 59.938ZM24.2596 59.905L24.3459 60.7201L24.6578 60.6871L24.5715 59.872L24.4853 59.0568L24.1734 59.0898L24.2596 59.905ZM24.5715 59.872L24.6578 60.6871C24.8724 60.6644 25.0853 60.6392 25.2965 60.6115L25.1899 59.7988L25.0833 58.9861C24.8858 59.012 24.6865 59.0356 24.4853 59.0568L24.5715 59.872ZM25.1899 59.7988L25.2965 60.6115L25.603 60.5713L25.4963 59.7586L25.3897 58.9459L25.0833 58.9861L25.1899 59.7988ZM25.4963 59.7586L25.603 60.5713L25.9094 60.5311L25.8028 59.7184L25.6962 58.9057L25.3897 58.9459L25.4963 59.7586ZM25.8028 59.7184L25.9094 60.5311C26.1332 60.5017 26.3554 60.4644 26.576 60.4191L26.4112 59.6162L26.2464 58.8133C26.0645 58.8506 25.8811 58.8814 25.6962 58.9057L25.8028 59.7184ZM26.4112 59.6162L26.576 60.4191L26.8779 60.3572L26.7131 59.5542L26.5483 58.7513L26.2464 58.8133L26.4112 59.6162ZM26.7131 59.5542L26.8779 60.3572L27.1798 60.2952L27.015 59.4923L26.8503 58.6893L26.5483 58.7513L26.7131 59.5542ZM27.015 59.4923L27.1798 60.2952C27.2765 60.2754 27.3804 60.2728 27.4972 60.2927L27.6354 59.4848L27.7736 58.6769C27.4658 58.6242 27.1561 58.6266 26.8503 58.6893L27.015 59.4923ZM27.6354 59.4848L27.4972 60.2927L27.8156 60.3472L27.9538 59.5393L28.092 58.7313L27.7736 58.6769L27.6354 59.4848ZM27.9538 59.5393L27.8156 60.3472L28.134 60.4017L28.2722 59.5937L28.4104 58.7858L28.092 58.7313L27.9538 59.5393ZM28.2722 59.5937L28.134 60.4017C28.4884 60.4623 28.8426 60.4295 29.1801 60.2994L28.8853 59.5346L28.5904 58.7698C28.5352 58.7911 28.4807 58.7978 28.4104 58.7858L28.2722 59.5937ZM28.8853 59.5346L29.1801 60.2994L29.4747 60.1858L29.1799 59.421L28.885 58.6562L28.5904 58.7698L28.8853 59.5346ZM29.1799 59.421L29.4747 60.1858L29.7693 60.0722L29.4745 59.3074L29.1796 58.5426L28.885 58.6562L29.1799 59.421ZM29.4745 59.3074L29.7693 60.0722C29.9116 60.0174 30.0534 59.9799 30.1955 59.9584L30.0731 59.148L29.9507 58.3375C29.6875 58.3772 29.4302 58.4461 29.1796 58.5426L29.4745 59.3074ZM30.0731 59.148L30.1955 59.9584L30.4995 59.9125L30.3771 59.102L30.2547 58.2916L29.9507 58.3375L30.0731 59.148ZM30.3771 59.102L30.4995 59.9125L30.8035 59.8666L30.6811 59.0561L30.5587 58.2456L30.2547 58.2916L30.3771 59.102ZM30.6811 59.0561L30.8035 59.8666C31.1448 59.815 31.4603 59.6802 31.7315 59.4596L31.2142 58.8238L30.6969 58.188C30.6626 58.2159 30.6227 58.236 30.5587 58.2456L30.6811 59.0561ZM31.2142 58.8238L31.7315 59.4596L31.9606 59.2732L31.4433 58.6374L30.926 58.0016L30.6969 58.188L31.2142 58.8238ZM31.4433 58.6374L31.9606 59.2732L32.1897 59.0868L31.6724 58.451L31.1551 57.8152L30.926 58.0016L31.4433 58.6374ZM31.6724 58.451L32.1897 59.0868C32.573 58.775 32.7305 58.3311 32.6891 57.8733L31.8727 57.9473L31.0564 58.0212C31.0564 58.0212 31.0535 57.9839 31.0754 57.9289C31.0983 57.8714 31.1329 57.8332 31.1551 57.8152L31.6724 58.451ZM31.8727 57.9473L32.6891 57.8733L32.6603 57.556L31.844 57.6299L31.0277 57.7039L31.0564 58.0212L31.8727 57.9473ZM31.844 57.6299L32.6603 57.556L32.6316 57.2386L31.8153 57.3126L30.9989 57.3865L31.0277 57.7039L31.844 57.6299ZM31.8153 57.3126L32.6316 57.2386C32.6208 57.12 32.6345 57.0474 32.6488 57.0054L31.8728 56.7415L31.0967 56.4777C30.996 56.7739 30.9713 57.082 30.9989 57.3865L31.8153 57.3126ZM31.8728 56.7415L32.6488 57.0054L32.7351 56.7517L31.959 56.4878L31.183 56.224L31.0967 56.4777L31.8728 56.7415ZM31.959 56.4878L32.7351 56.7517L32.8213 56.498L32.0453 56.2342L31.2692 55.9703L31.183 56.224L31.959 56.4878ZM32.0453 56.2342L32.8213 56.498C32.8723 56.348 32.9284 56.2013 32.9894 56.0578L32.2352 55.7368L31.481 55.4158C31.4038 55.5972 31.3332 55.7821 31.2692 55.9703L32.0453 56.2342ZM32.2352 55.7368L32.9894 56.0578L33.0931 55.8142L32.3389 55.4932L31.5847 55.1722L31.481 55.4158L32.2352 55.7368ZM32.3389 55.4932L33.0931 55.8142L33.1968 55.5706L32.4426 55.2496L31.6884 54.9286L31.5847 55.1722L32.3389 55.4932ZM32.4426 55.2496L33.1968 55.5706C33.2662 55.4076 33.3412 55.2308 33.4219 55.0402L32.6671 54.7206L31.9123 54.4011C31.8319 54.5909 31.7573 54.7667 31.6884 54.9286L32.4426 55.2496ZM32.6671 54.7206L33.4219 55.0402L33.5427 54.7549L32.7879 54.4353L32.033 54.1158L31.9123 54.4011L32.6671 54.7206ZM32.7879 54.4353L33.5427 54.7549L33.6635 54.4695L32.9087 54.15L32.1538 53.8305L32.033 54.1158L32.7879 54.4353ZM32.9087 54.15L33.6635 54.4695C33.7525 54.2592 33.8329 54.0458 33.9047 53.8295L33.1267 53.5714L32.3487 53.3133C32.2908 53.488 32.2258 53.6604 32.1538 53.8305L32.9087 54.15ZM33.1267 53.5714L33.9047 53.8295L34.002 53.5362L33.224 53.2781L32.446 53.02L32.3487 53.3133L33.1267 53.5714ZM33.224 53.2781L34.002 53.5362L34.0993 53.2429L33.3213 52.9848L32.5433 52.7267L32.446 53.02L33.224 53.2781ZM33.3213 52.9848L34.0993 53.2429C34.111 53.2077 34.1211 53.1805 34.1293 53.1603C34.1377 53.1396 34.1428 53.1295 34.1439 53.1273C34.1454 53.1244 34.1392 53.1369 34.1234 53.1582C34.1151 53.1693 34.1027 53.1848 34.0858 53.2027C34.0689 53.2206 34.0455 53.2429 34.0151 53.2665L33.5139 52.6179L33.0127 51.9693C32.8434 52.1001 32.7452 52.2647 32.6923 52.3655C32.6321 52.4802 32.5837 52.6051 32.5433 52.7267L33.3213 52.9848ZM33.5139 52.6179L34.0151 53.2665L34.1104 53.1928L33.6092 52.5442L33.108 51.8957L33.0127 51.9693L33.5139 52.6179ZM33.6092 52.5442L33.8772 53.3189L34.0324 53.2652L33.7644 52.4905L33.4965 51.7159L33.3412 51.7696L33.6092 52.5442ZM33.7644 52.4905L34.5313 52.78L34.5666 52.6864L33.7998 52.397L33.0329 52.1075L32.9976 52.2011L33.7644 52.4905Z" fill="#DCDCDC"/>
<path d="M41.0145 54.8677C41.1759 54.4447 40.9639 53.971 40.5409 53.8096C40.118 53.6482 39.6443 53.8603 39.4829 54.2832L40.2487 54.5754L41.0145 54.8677ZM40.213 54.6689L39.4472 54.3766L39.3901 54.5265L39.3936 54.6868L40.213 54.6689ZM40.2255 55.2382L41.045 55.2202L40.2255 55.2382ZM40.1292 56.1073L39.3587 55.8277L40.1292 56.1073ZM39.9116 56.7069L40.6821 56.9865L39.9116 56.7069ZM39.8595 57.319L40.666 57.1727L39.8595 57.319ZM39.9728 57.9437L39.1663 58.09L39.9728 57.9437ZM39.9868 58.5952L40.8001 58.6974L39.9868 58.5952ZM39.9015 59.2734L39.0882 59.1711L39.9015 59.2734ZM39.529 59.6734L39.3804 58.8673L39.529 59.6734ZM38.8693 59.795L38.7207 58.9889L38.8693 59.795ZM38.2554 59.9739L38.5702 60.7307L38.2554 59.9739ZM37.6873 60.2102L37.3726 59.4533L37.6873 60.2102ZM37.2016 60.5472L37.8045 61.1025V61.1025L37.2016 60.5472ZM36.7983 60.9851L36.1954 60.4297L36.7983 60.9851ZM36.4528 61.466L35.7343 61.0715L36.4528 61.466ZM36.3089 61.728L37.0274 62.1225L36.3089 61.728ZM36.165 61.99L36.8835 62.3845L36.165 61.99ZM35.72 62.3433L35.9577 63.1277L35.72 62.3433ZM35.1176 62.5258L34.8799 61.7414L35.1176 62.5258ZM34.5659 62.8353L34.0276 62.2171L34.5659 62.8353ZM34.0647 63.2716L34.6029 63.8898L34.0647 63.2716ZM33.5073 63.5289L33.4036 62.7158L33.5073 63.5289ZM32.8938 63.6072L32.7901 62.7941L32.8938 63.6072ZM32.1507 64.0255L32.6885 64.6442L32.1507 64.0255ZM31.9326 64.2152L31.3948 63.5966L31.9326 64.2152ZM31.4714 64.5937L31.9744 65.2409L31.4714 64.5937ZM30.9853 64.9715L30.4823 64.3244L30.9853 64.9715ZM30.945 65.1496L30.9012 64.3311L30.945 65.1496ZM31.1477 65.1388L31.1915 65.9573L31.1477 65.1388ZM31.3505 65.1279L31.3943 65.9465L31.3505 65.1279ZM31.7813 64.9044L31.2221 64.3051L31.7813 64.9044ZM32.0093 64.6917L31.4501 64.0924L32.0093 64.6917ZM32.719 64.0824L33.2 64.7461L32.719 64.0824ZM32.9727 63.8985L33.4537 64.5622L32.9727 63.8985ZM33.2264 63.7146L32.7454 63.051L33.2264 63.7146ZM33.8101 63.4749L33.9468 64.2831L33.8101 63.4749ZM34.4701 63.3633L34.6068 64.1715L34.4701 63.3633ZM34.9089 62.9828L35.6861 63.2433L34.9089 62.9828ZM35.0177 62.6582L34.2406 62.3977L35.0177 62.6582ZM35.1266 62.3335L34.3494 62.073L35.1266 62.3335ZM35.5248 61.8595L35.9006 62.588L35.5248 61.8595ZM36.1037 61.5609L35.7279 60.8325L36.1037 61.5609ZM36.6788 61.2818L37.0179 62.028V62.028L36.6788 61.2818ZM37.2502 61.0222L36.9111 60.2759L37.2502 61.0222ZM37.8568 60.9535L37.7034 61.7587L37.8568 60.9535ZM38.4988 61.0758L38.6522 60.2706L38.4988 61.0758ZM39.096 60.9484L39.5581 61.6253L39.096 60.9484ZM39.6485 60.5712L39.1863 59.8942L39.6485 60.5712ZM40.232 60.3478L40.1398 59.5333L40.232 60.3478ZM40.5394 60.313L40.4471 59.4985L40.5394 60.313ZM40.8467 60.2782L40.939 61.0926L40.8467 60.2782ZM41.4676 60.2302L41.4334 59.4112L41.4676 60.2302ZM41.7813 60.2171L41.8156 61.036L41.7813 60.2171ZM42.095 60.2039L42.0607 59.385L42.095 60.2039ZM42.7226 60.2506L42.8758 59.4454L42.7226 60.2506ZM43.0365 60.3104L42.8832 61.1156L43.0365 60.3104ZM43.3504 60.3701L43.5037 59.5649L43.3504 60.3701ZM43.842 61.3952L44.6482 61.2468L43.842 61.3952ZM44.1123 61.8046L43.7978 62.5615L44.1123 61.8046ZM44.3234 61.8923L44.6737 61.1513L44.656 61.1429L44.6379 61.1354L44.3234 61.8923ZM44.6479 62.0458L44.2976 62.7868L44.3796 62.8255L44.4681 62.8454L44.6479 62.0458ZM44.5656 62.8674C45.0073 62.9667 45.4459 62.6892 45.5452 62.2476C45.6445 61.8059 45.367 61.3673 44.9254 61.268L44.7455 62.0677L44.5656 62.8674ZM40.2487 54.5754L39.4829 54.2832L39.4472 54.3766L40.213 54.6689L40.9788 54.9611L41.0145 54.8677L40.2487 54.5754ZM40.213 54.6689L39.3936 54.6868L39.406 55.2562L40.2255 55.2382L41.045 55.2202L41.0325 54.6509L40.213 54.6689ZM40.2255 55.2382L39.406 55.2562C39.4136 55.6012 39.3795 55.7705 39.3587 55.8277L40.1292 56.1073L40.8997 56.3869C41.024 56.0444 41.0541 55.6343 41.045 55.2202L40.2255 55.2382ZM40.1292 56.1073L39.3587 55.8277L39.2499 56.1275L40.0204 56.4071L40.7909 56.6867L40.8997 56.3869L40.1292 56.1073ZM40.0204 56.4071L39.2499 56.1275L39.1411 56.4273L39.9116 56.7069L40.6821 56.9865L40.7909 56.6867L40.0204 56.4071ZM39.9116 56.7069L39.1411 56.4273C39.0194 56.7628 38.9892 57.1137 39.053 57.4653L39.8595 57.319L40.666 57.1727C40.6542 57.1079 40.6588 57.0508 40.6821 56.9865L39.9116 56.7069ZM39.8595 57.319L39.053 57.4653L39.1096 57.7777L39.9161 57.6314L40.7226 57.485L40.666 57.1727L39.8595 57.319ZM39.9161 57.6314L39.1096 57.7777L39.1663 58.09L39.9728 57.9437L40.7793 57.7974L40.7226 57.485L39.9161 57.6314ZM39.9728 57.9437L39.1663 58.09C39.1881 58.2101 39.1924 58.3432 39.1735 58.4929L39.9868 58.5952L40.8001 58.6974C40.8381 58.395 40.8331 58.0937 40.7793 57.7974L39.9728 57.9437ZM39.9868 58.5952L39.1735 58.4929L39.1309 58.832L39.9442 58.9343L40.7574 59.0366L40.8001 58.6974L39.9868 58.5952ZM39.9442 58.9343L39.1309 58.832L39.0882 59.1711L39.9015 59.2734L40.7148 59.3757L40.7574 59.0366L39.9442 58.9343ZM39.9015 59.2734L39.0882 59.1711C39.0901 59.1567 39.1054 59.0721 39.1872 58.9843C39.2702 58.8952 39.3574 58.8715 39.3804 58.8673L39.529 59.6734L39.6776 60.4794C39.9205 60.4347 40.1797 60.324 40.3869 60.1016C40.5928 59.8805 40.6845 59.6163 40.7148 59.3757L39.9015 59.2734ZM39.529 59.6734L39.3804 58.8673L39.0506 58.9281L39.1992 59.7342L39.3478 60.5403L39.6776 60.4794L39.529 59.6734ZM39.1992 59.7342L39.0506 58.9281L38.7207 58.9889L38.8693 59.795L39.0179 60.6011L39.3478 60.5403L39.1992 59.7342ZM38.8693 59.795L38.7207 58.9889C38.4489 59.039 38.1881 59.1142 37.9407 59.2171L38.2554 59.9739L38.5702 60.7307C38.7015 60.6761 38.8499 60.632 39.0179 60.6011L38.8693 59.795ZM38.2554 59.9739L37.9407 59.2171L37.6567 59.3352L37.9714 60.092L38.2861 60.8489L38.5702 60.7307L38.2554 59.9739ZM37.9714 60.092L37.6567 59.3352L37.3726 59.4533L37.6873 60.2102L38.002 60.967L38.2861 60.8489L37.9714 60.092ZM37.6873 60.2102L37.3726 59.4533C37.0775 59.576 36.8162 59.7557 36.5987 59.9919L37.2016 60.5472L37.8045 61.1025C37.8558 61.0468 37.9184 61.0018 38.002 60.967L37.6873 60.2102ZM37.2016 60.5472L36.5987 59.9919L36.397 60.2108L36.9999 60.7661L37.6028 61.3215L37.8045 61.1025L37.2016 60.5472ZM36.9999 60.7661L36.397 60.2108L36.1954 60.4297L36.7983 60.9851L37.4012 61.5404L37.6028 61.3215L36.9999 60.7661ZM36.7983 60.9851L36.1954 60.4297C36.0159 60.6246 35.8619 60.839 35.7343 61.0715L36.4528 61.466L37.1712 61.8605C37.2354 61.7437 37.3118 61.6374 37.4012 61.5404L36.7983 60.9851ZM36.4528 61.466L35.7343 61.0715L35.5904 61.3335L36.3089 61.728L37.0274 62.1225L37.1712 61.8605L36.4528 61.466ZM36.3089 61.728L35.5904 61.3335L35.4465 61.5955L36.165 61.99L36.8835 62.3845L37.0274 62.1225L36.3089 61.728ZM36.165 61.99L35.4465 61.5955C35.4469 61.5949 35.4492 61.5908 35.4542 61.5849C35.4592 61.5789 35.4654 61.5728 35.4722 61.5673C35.4872 61.5555 35.4945 61.5551 35.4823 61.5588L35.72 62.3433L35.9577 63.1277C36.3515 63.0084 36.6786 62.7577 36.8835 62.3845L36.165 61.99ZM35.72 62.3433L35.4823 61.5588L35.1811 61.6501L35.4188 62.4346L35.6565 63.219L35.9577 63.1277L35.72 62.3433ZM35.4188 62.4346L35.1811 61.6501L34.8799 61.7414L35.1176 62.5258L35.3553 63.3103L35.6565 63.219L35.4188 62.4346ZM35.1176 62.5258L34.8799 61.7414C34.5622 61.8377 34.277 61.9999 34.0276 62.2171L34.5659 62.8353L35.1041 63.4535C35.1888 63.3797 35.2715 63.3357 35.3553 63.3103L35.1176 62.5258ZM34.5659 62.8353L34.0276 62.2171L33.777 62.4352L34.3153 63.0534L34.8535 63.6716L35.1041 63.4535L34.5659 62.8353ZM34.3153 63.0534L33.777 62.4352L33.5265 62.6534L34.0647 63.2716L34.6029 63.8898L34.8535 63.6716L34.3153 63.0534ZM34.0647 63.2716L33.5265 62.6534C33.4722 62.7006 33.4351 62.7118 33.4036 62.7158L33.5073 63.5289L33.611 64.342C33.9886 64.2938 34.323 64.1335 34.6029 63.8898L34.0647 63.2716ZM33.5073 63.5289L33.4036 62.7158L33.0968 62.7549L33.2006 63.568L33.3043 64.3811L33.611 64.342L33.5073 63.5289ZM33.2006 63.568L33.0968 62.7549L32.7901 62.7941L32.8938 63.6072L32.9975 64.4202L33.3043 64.3811L33.2006 63.568ZM32.8938 63.6072L32.7901 62.7941C32.4366 62.8392 32.1075 62.977 31.8311 63.2173L32.3688 63.8359L32.9066 64.4545C32.9211 64.442 32.9419 64.4273 32.9975 64.4202L32.8938 63.6072ZM32.3688 63.8359L31.8311 63.2173L31.6129 63.4069L32.1507 64.0255L32.6885 64.6442L32.9066 64.4545L32.3688 63.8359ZM32.1507 64.0255L31.6129 63.4069L31.3948 63.5966L31.9326 64.2152L32.4703 64.8338L32.6885 64.6442L32.1507 64.0255ZM31.9326 64.2152L31.3948 63.5966C31.2614 63.7125 31.1193 63.8292 30.9684 63.9465L31.4714 64.5937L31.9744 65.2409C32.1475 65.1063 32.3129 64.9707 32.4703 64.8338L31.9326 64.2152ZM31.4714 64.5937L30.9684 63.9465L30.7253 64.1355L31.2283 64.7826L31.7313 65.4298L31.9744 65.2409L31.4714 64.5937ZM31.2283 64.7826L30.7253 64.1355L30.4823 64.3244L30.9853 64.9715L31.4883 65.6187L31.7313 65.4298L31.2283 64.7826ZM30.9853 64.9715L30.4823 64.3244C30.4261 64.368 30.3587 64.4241 30.2964 64.4899C30.2619 64.5263 30.11 64.6832 30.0542 64.9296C30.0194 65.0834 30.0158 65.3058 30.139 65.5276C30.257 65.74 30.433 65.8464 30.5488 65.896C30.7477 65.9812 30.934 65.971 30.9887 65.9681L30.945 65.1496L30.9012 64.3311C30.9111 64.3306 30.9395 64.3294 30.9797 64.3333C31.0147 64.3367 31.0961 64.3471 31.1941 64.3891C31.2947 64.4322 31.4602 64.53 31.5722 64.7317C31.6895 64.9429 31.6846 65.1524 31.6531 65.2914C31.6246 65.4174 31.5721 65.5031 31.548 65.5393C31.5206 65.5806 31.4963 65.607 31.4868 65.6171C31.4683 65.6366 31.4634 65.6381 31.4883 65.6187L30.9853 64.9715ZM30.945 65.1496L30.9887 65.9681L31.1915 65.9573L31.1477 65.1388L31.104 64.3203L30.9012 64.3311L30.945 65.1496ZM31.1477 65.1388L31.1915 65.9573L31.3943 65.9465L31.3505 65.1279L31.3068 64.3094L31.104 64.3203L31.1477 65.1388ZM31.3505 65.1279L31.3943 65.9465C31.8012 65.9247 32.1196 65.7097 32.3404 65.5038L31.7813 64.9044L31.2221 64.3051C31.1859 64.3388 31.1721 64.3443 31.182 64.3391C31.1939 64.333 31.2374 64.3132 31.3068 64.3094L31.3505 65.1279ZM31.7813 64.9044L32.3404 65.5038L32.5684 65.2911L32.0093 64.6917L31.4501 64.0924L31.2221 64.3051L31.7813 64.9044ZM32.0093 64.6917L32.5684 65.2911L32.7964 65.0784L32.2373 64.479L31.6781 63.8797L31.4501 64.0924L32.0093 64.6917ZM32.2373 64.479L32.7964 65.0784C32.9236 64.9597 33.0581 64.849 33.2 64.7461L32.719 64.0824L32.2379 63.4187C32.0416 63.561 31.8549 63.7147 31.6781 63.8797L32.2373 64.479ZM32.719 64.0824L33.2 64.7461L33.4537 64.5622L32.9727 63.8985L32.4917 63.2348L32.2379 63.4187L32.719 64.0824ZM32.9727 63.8985L33.4537 64.5622L33.7074 64.3783L33.2264 63.7146L32.7454 63.051L32.4917 63.2348L32.9727 63.8985ZM33.2264 63.7146L33.7074 64.3783C33.7676 64.3347 33.8425 64.3008 33.9468 64.2831L33.8101 63.4749L33.6734 62.6667C33.3377 62.7235 33.0235 62.8493 32.7454 63.051L33.2264 63.7146ZM33.8101 63.4749L33.9468 64.2831L34.2768 64.2273L34.1401 63.4191L34.0034 62.6109L33.6734 62.6667L33.8101 63.4749ZM34.1401 63.4191L34.2768 64.2273L34.6068 64.1715L34.4701 63.3633L34.3334 62.5551L34.0034 62.6109L34.1401 63.4191ZM34.4701 63.3633L34.6068 64.1715C34.842 64.1317 35.0786 64.0357 35.2818 63.8596C35.484 63.6842 35.6117 63.4654 35.6861 63.2433L34.9089 62.9828L34.1317 62.7223C34.1336 62.7167 34.1519 62.6695 34.2078 62.621C34.2647 62.5717 34.3182 62.5577 34.3334 62.5551L34.4701 63.3633ZM34.9089 62.9828L35.6861 63.2433L35.7949 62.9187L35.0177 62.6582L34.2406 62.3977L34.1317 62.7223L34.9089 62.9828ZM35.0177 62.6582L35.7949 62.9187L35.9037 62.594L35.1266 62.3335L34.3494 62.073L34.2406 62.3977L35.0177 62.6582ZM35.1266 62.3335L35.9037 62.594C35.9075 62.5829 35.9103 62.5775 35.911 62.5762C35.9116 62.5751 35.9108 62.5768 35.9081 62.58C35.9053 62.5833 35.9023 62.5861 35.8998 62.5881C35.8973 62.5901 35.8971 62.5898 35.9006 62.588L35.5248 61.8595L35.149 61.1311C34.756 61.3339 34.4859 61.6658 34.3494 62.073L35.1266 62.3335ZM35.5248 61.8595L35.9006 62.588L36.19 62.4387L35.8143 61.7102L35.4385 60.9818L35.149 61.1311L35.5248 61.8595ZM35.8143 61.7102L36.19 62.4387L36.4795 62.2894L36.1037 61.5609L35.7279 60.8325L35.4385 60.9818L35.8143 61.7102ZM36.1037 61.5609L36.4795 62.2894C36.6608 62.1959 36.8403 62.1088 37.0179 62.028L36.6788 61.2818L36.3397 60.5356C36.1364 60.628 35.9325 60.727 35.7279 60.8325L36.1037 61.5609ZM36.6788 61.2818L37.0179 62.028L37.3036 61.8982L36.9645 61.152L36.6254 60.4058L36.3397 60.5356L36.6788 61.2818ZM36.9645 61.152L37.3036 61.8982L37.5893 61.7684L37.2502 61.0222L36.9111 60.2759L36.6254 60.4058L36.9645 61.152ZM37.2502 61.0222L37.5893 61.7684C37.619 61.7549 37.6485 61.7482 37.7034 61.7587L37.8568 60.9535L38.0103 60.1483C37.6372 60.0772 37.2623 60.1163 36.9111 60.2759L37.2502 61.0222ZM37.8568 60.9535L37.7034 61.7587L38.0244 61.8198L38.1778 61.0147L38.3312 60.2095L38.0103 60.1483L37.8568 60.9535ZM38.1778 61.0147L38.0244 61.8198L38.3454 61.881L38.4988 61.0758L38.6522 60.2706L38.3312 60.2095L38.1778 61.0147ZM38.4988 61.0758L38.3454 61.881C38.779 61.9636 39.1988 61.8707 39.5581 61.6253L39.096 60.9484L38.6338 60.2714C38.627 60.2761 38.6242 60.2771 38.6257 60.2765C38.6272 60.2758 38.6314 60.2742 38.6375 60.2729C38.6437 60.2716 38.6492 60.2711 38.6531 60.2711C38.6568 60.2711 38.6568 60.2715 38.6522 60.2706L38.4988 61.0758ZM39.096 60.9484L39.5581 61.6253L39.8344 61.4368L39.3722 60.7598L38.9101 60.0828L38.6338 60.2714L39.096 60.9484ZM39.3722 60.7598L39.8344 61.4368L40.1106 61.2482L39.6485 60.5712L39.1863 59.8942L38.9101 60.0828L39.3722 60.7598ZM39.6485 60.5712L40.1106 61.2482C40.1937 61.1914 40.2627 61.1692 40.3243 61.1623L40.232 60.3478L40.1398 59.5333C39.7916 59.5728 39.4715 59.6995 39.1863 59.8942L39.6485 60.5712ZM40.232 60.3478L40.3243 61.1623L40.6316 61.1274L40.5394 60.313L40.4471 59.4985L40.1398 59.5333L40.232 60.3478ZM40.5394 60.313L40.6316 61.1274L40.939 61.0926L40.8467 60.2782L40.7544 59.4637L40.4471 59.4985L40.5394 60.313ZM40.8467 60.2782L40.939 61.0926C41.1243 61.0716 41.3119 61.0571 41.5019 61.0492L41.4676 60.2302L41.4334 59.4112C41.2052 59.4208 40.9788 59.4383 40.7544 59.4637L40.8467 60.2782ZM41.4676 60.2302L41.5019 61.0492L41.8156 61.036L41.7813 60.2171L41.747 59.3981L41.4334 59.4112L41.4676 60.2302ZM41.7813 60.2171L41.8156 61.036L42.1292 61.0229L42.095 60.2039L42.0607 59.385L41.747 59.3981L41.7813 60.2171ZM42.095 60.2039L42.1292 61.0229C42.2744 61.0168 42.4206 61.0275 42.5693 61.0558L42.7226 60.2506L42.8758 59.4454C42.6059 59.394 42.3338 59.3736 42.0607 59.385L42.095 60.2039ZM42.7226 60.2506L42.5693 61.0558L42.8832 61.1156L43.0365 60.3104L43.1898 59.5051L42.8758 59.4454L42.7226 60.2506ZM43.0365 60.3104L42.8832 61.1156L43.1972 61.1753L43.3504 60.3701L43.5037 59.5649L43.1898 59.5051L43.0365 60.3104ZM43.3504 60.3701L43.1972 61.1753C43.1704 61.1702 43.0912 61.1468 43.0147 61.0685C42.9394 60.9915 42.9205 60.9165 42.9175 60.9L43.7236 60.7516L44.5297 60.6033C44.4872 60.3723 44.3864 60.1264 44.1867 59.9222C43.9858 59.7168 43.7397 59.6098 43.5037 59.5649L43.3504 60.3701ZM43.7236 60.7516L42.9175 60.9L42.9767 61.2218L43.7828 61.0734L44.589 60.925L44.5297 60.6033L43.7236 60.7516ZM43.7828 61.0734L42.9767 61.2218L43.0359 61.5435L43.842 61.3952L44.6482 61.2468L44.589 60.925L43.7828 61.0734ZM43.842 61.3952L43.0359 61.5435C43.1021 61.9033 43.3004 62.3548 43.7978 62.5615L44.1123 61.8046L44.4268 61.0477C44.5186 61.0858 44.5853 61.1492 44.6233 61.2068C44.6555 61.2556 44.6543 61.28 44.6482 61.2468L43.842 61.3952ZM44.1123 61.8046L43.7978 62.5615L44.0089 62.6492L44.3234 61.8923L44.6379 61.1354L44.4268 61.0477L44.1123 61.8046ZM44.3234 61.8923L43.973 62.6333L44.2976 62.7868L44.6479 62.0458L44.9983 61.3047L44.6737 61.1513L44.3234 61.8923ZM44.6479 62.0458L44.4681 62.8454L44.5656 62.8674L44.7455 62.0677L44.9254 61.268L44.8278 61.2461L44.6479 62.0458Z" fill="#DCDCDC"/>
</svg>
