<svg width="81" height="66" viewBox="0 0 81 66" fill="none" xmlns="http://www.w3.org/2000/svg">
<path d="M54.7346 27.6079H51.1162V24.3752H52.7326V22.7588H51.1162V19.5261H54.7346V21.1425H56.3509V22.7588H57.9673V24.3752H56.3509V25.9916H54.7346V27.6079Z" fill="#DCDCDC"/>
<path d="M63.4107 17.909V14.6763H61.7943H60.178V16.2926H58.5616V17.909H56.9452V19.5254H55.3289V21.1417H53.7125V22.7581H52.0962V24.3744H53.7125V25.9908H55.3289V27.6072H56.9452V29.2235H58.5616V30.8399H60.178V32.4562H61.7943H63.4111L63.4107 29.2235V17.909Z" fill="#DCDCDC"/>
<path d="M67.3701 19.366V20.0945H68.0986V20.822H68.8262V21.5505H69.5547V22.2781H70.2822V23.0066H70.6201V22.2781H71.3486V21.5505H72.0762V20.822H72.8047V20.0945H73.5322V19.366H74.6514V20.4841H73.9229V21.2126H73.1953V21.9402H72.4668V22.6687H71.7393V23.3962H71.0107V23.7341H71.7393V24.4626H72.4668V25.1902H73.1953V25.9187H73.9229V26.6462H74.6514V27.7654H73.5322V27.0369H72.8047V26.3093H72.0762V25.5808H71.3486V24.8533H70.6201V24.1248H70.2822V24.8533H69.5547V25.5808H68.8262V26.3093H68.0986V27.0369H67.3701V27.7654H66.252V26.6462H66.9805V25.9187H67.708V25.1902H68.4365V24.4626H69.1641V23.7341H69.8926V23.3962H69.1641V22.6687H68.4365V21.9402H67.708V21.2126H66.9805V20.4841H66.252V19.366H67.3701Z" fill="#DCDCDC" stroke="#DCDCDC" stroke-width="0.390254"/>
<path d="M62.5537 53.769C62.6781 53.9002 62.8093 54.0095 62.9453 54.0991L63.4541 54.4341C63.649 54.5624 63.8317 54.7089 64.001 54.8716L64.4443 55.2983C64.6363 55.4827 64.791 55.6981 64.9072 55.9409L65.1816 56.5161C65.302 56.7676 65.3688 57.0334 65.377 57.3101L65.3945 57.9282C65.4032 58.2233 65.3345 58.5044 65.1904 58.7622L64.8867 59.3042C64.8545 59.3619 64.8191 59.4172 64.7822 59.4712L64.3623 59.1704C64.0921 58.9754 63.9718 58.8443 63.9316 58.7856L63.7529 58.5239L63.5732 58.2671C63.3834 57.9902 63.1364 57.7594 62.8438 57.5942L62.2939 57.2876C62.1774 57.2217 62.0739 57.1387 61.9795 57.0435L61.5313 56.5962C61.5186 56.5834 61.5095 56.5681 61.499 56.5571L61.5313 56.2632L61.25 55.9878L61.166 55.9048C60.8438 55.5885 60.3251 55.5901 60.0078 55.9106C59.7763 56.1465 59.7237 56.485 59.834 56.7749L59.8281 56.7935L59.8731 56.9546L59.9111 57.0688C59.9644 57.2453 60.0584 57.3889 60.1221 57.4731C60.1943 57.5684 60.2839 57.6595 60.3721 57.7485L60.5898 57.9731L60.8135 58.1968C61.0146 58.3998 61.2433 58.5748 61.4922 58.7153L61.7617 58.8696L62.0371 59.0229C62.1103 59.0643 62.1735 59.1172 62.2227 59.189L62.5811 59.7143C62.7799 60.0039 63.0793 60.2651 63.4072 60.5015L63.5732 60.6216C63.5515 60.6437 63.5293 60.6654 63.5078 60.688L63.1689 61.0435L62.7783 60.7524C62.5077 60.5504 62.3774 60.4159 62.3291 60.3491L62.1445 60.0942L61.9648 59.8433C61.793 59.6046 61.5871 59.396 61.3496 59.2222L61.0947 59.0366L60.8447 58.8511C60.7057 58.7493 60.5772 58.6465 60.4658 58.5376L60.2549 58.3325L60.1143 58.1919L60.1904 57.9868L59.832 57.6284L59.749 57.5386C59.4314 57.2177 58.912 57.2159 58.5898 57.5327C58.3982 57.7226 58.3364 57.9817 58.3721 58.23L58.3594 58.2681L58.418 58.5054L58.4434 58.6011C58.4934 58.8047 58.6036 58.9566 58.6602 59.0298C58.7305 59.1207 58.8137 59.2104 58.8975 59.2925L59.1094 59.5044L59.3203 59.7095C59.4906 59.8759 59.6799 60.0323 59.8779 60.1772L60.1279 60.3628L60.3828 60.5474C60.4812 60.6198 60.563 60.7072 60.6328 60.8042L60.8193 61.0542L60.9981 61.3032C61.1769 61.5517 61.4351 61.7903 61.7246 62.0132C61.5288 62.0992 61.3233 62.1534 61.1094 62.1714L60.4922 62.2231C60.3204 62.2376 60.1528 62.2683 59.9902 62.3169L59.4043 62.4927C59.1003 62.5835 58.7915 62.5677 58.4981 62.4477L57.9268 62.2143C57.6941 62.1192 57.4831 61.9952 57.3008 61.8384L56.8887 61.4839C56.7312 61.3484 56.5771 61.1925 56.4258 61.019L56.1953 60.7554C56.2669 60.6965 56.3308 60.6258 56.3809 60.5415L56.4453 60.438L56.4707 60.3931L56.4902 60.3423L56.541 60.2075L56.5469 60.2143L56.6113 60.0796C56.6761 59.9477 56.7465 59.7745 56.8164 59.5806L56.9189 59.2993L57.0215 59.0102C57.1026 58.7849 57.1633 58.551 57.2129 58.312L57.3418 57.6968C57.3545 57.6363 57.3736 57.5802 57.3975 57.5268C57.5207 57.4664 57.6306 57.375 57.7129 57.2534C57.8017 57.1219 57.8457 56.9736 57.8506 56.8257C57.888 56.7802 57.9296 56.7385 57.9814 56.7046L58.2441 56.5376L58.501 56.3657C58.742 56.2079 58.9556 56.0169 59.1406 55.7954L59.3457 55.5522L59.5449 55.3091C59.6877 55.1378 59.8281 54.9613 59.9609 54.7837L60.332 54.2847L60.3379 54.2778C60.3404 54.2768 60.3492 54.2741 60.3584 54.272L60.6709 54.2017L60.9922 54.1313C61.3175 54.0569 61.668 53.8948 62.0166 53.6948L62.3164 53.5181L62.5537 53.769ZM36.9668 0.0131774C37.2317 -0.047148 37.4086 0.114684 37.4707 0.194818C37.5264 0.266985 37.5494 0.338227 37.5566 0.36181L37.5762 0.443841L37.6094 0.635248C37.6297 0.753614 37.6296 0.891454 37.6231 1.0249L37.6045 1.39599C37.6018 1.45087 37.6096 1.50738 37.6318 1.56786L37.7656 1.92919C37.8178 2.07093 37.8599 2.21472 37.8906 2.35986L37.9678 2.72411C38.0009 2.88067 38.0159 3.03925 38.0137 3.19872L38.0088 3.56689C38.0073 3.67248 38.0112 3.77865 38.0205 3.88427L38.0527 4.25244C38.0628 4.36613 38.0757 4.47992 38.0918 4.59326L38.1445 4.96044C38.1635 5.09361 38.1779 5.22753 38.1875 5.36181L38.2139 5.73193C38.2266 5.91095 38.2086 6.08848 38.1621 6.2622L38.0635 6.63036C38.0486 6.68615 38.0461 6.73855 38.0547 6.7915L38.1162 7.16161C38.1421 7.31907 38.1509 7.47762 38.1426 7.63622L38.1231 8.00536C38.117 8.1201 38.1136 8.23532 38.1133 8.35009L38.1123 8.71923C38.1119 8.85534 38.106 8.99175 38.0947 9.12744L38.0645 9.4956C38.0522 9.64372 38.0283 9.79065 37.9932 9.93603L37.9053 10.3003C37.8986 10.3282 37.8975 10.3626 37.9131 10.4126L38.0332 10.7974C38.1167 11.0651 38.0789 11.3357 37.9316 11.5708L37.7139 11.9185C37.6853 11.964 37.6798 11.9953 37.6797 12.019L37.6787 12.3921C37.6785 12.4807 37.6879 12.5699 37.707 12.6587L37.7861 13.0278C37.8145 13.1591 37.8399 13.2912 37.8613 13.4233L37.9209 13.7944C37.9462 13.9507 37.9561 14.1078 37.9492 14.2651L37.9326 14.6352C37.9265 14.7765 37.913 14.9183 37.8916 15.0601L37.835 15.4351C37.8054 15.6303 37.7352 15.8129 37.6309 15.98L37.418 16.3208C37.4012 16.3477 37.4025 16.3581 37.4033 16.3657L37.4434 16.7397C37.4602 16.8986 37.4603 17.058 37.4434 17.2163L37.4033 17.5854C37.3952 17.6617 37.3982 17.7384 37.4121 17.8149L37.4785 18.1821C37.5054 18.3299 37.5212 18.479 37.5244 18.6284L37.5322 18.9985C37.5335 19.0585 37.5452 19.119 37.5713 19.1821L37.7178 19.5356C37.8119 19.763 37.8193 20.0024 37.751 20.2329L37.6367 20.6177C37.629 20.6436 37.632 20.6538 37.6367 20.6655L37.7813 21.0229C37.8736 21.2509 37.8818 21.4943 37.7988 21.729L37.6729 22.0854C37.6272 22.2147 37.5771 22.3409 37.5234 22.4643L37.377 22.8032C37.3487 22.8682 37.3296 22.9388 37.3213 23.0171L37.2813 23.397C37.2616 23.5819 37.2086 23.7615 37.1123 23.9253L36.958 24.186C36.9591 24.1939 36.9611 24.2069 36.9658 24.2251C36.9762 24.2649 36.9924 24.3108 37.0176 24.3794L37.0977 24.6147L37.0986 24.6167H37.0977C37.126 24.718 37.1786 24.7903 37.2676 24.8491L37.8301 25.2202C38.1305 25.4185 38.3224 25.7102 38.374 26.0698L38.4668 26.7153C38.4948 26.9108 38.5333 27.0996 38.583 27.2808L38.75 27.8872C38.8344 28.1947 38.8144 28.5049 38.6953 28.8003L38.457 29.3921C38.4283 29.4632 38.4326 29.5079 38.46 29.563L38.7363 30.1186C38.8368 30.3206 38.9243 30.5263 38.999 30.7349L39.2031 31.3052C39.241 31.4108 39.2861 31.5135 39.335 31.6147C39.2712 31.6812 39.2176 31.7595 39.1777 31.8481V31.854L38.8828 32.3286C38.7047 32.6145 38.5791 32.7572 38.5117 32.8149L38.2676 33.0259L38.0254 33.231C37.7263 33.485 37.5233 33.8199 37.4414 34.2056L37.3145 34.8188C37.2684 35.0357 37.2282 35.2542 37.1924 35.4663L37.0898 36.0688C37.0674 36.2016 37.0261 36.3337 36.9688 36.4653L36.8467 36.7544L36.7188 37.0425C36.6126 37.2862 36.5332 37.5381 36.4824 37.7974L36.4248 38.105L36.3662 38.4048C36.3141 38.6731 36.2919 38.9451 36.3086 39.2183L36.3281 39.5268L36.3477 39.8403C36.3597 40.0348 36.3679 40.2225 36.3731 40.4028L36.3857 40.6987L36.3916 40.9868C36.3999 41.2652 36.4511 41.5435 36.5391 41.813L36.6416 42.1196L36.7373 42.4214C36.8903 42.8894 37.2394 43.2186 37.6914 43.3618L38.0186 43.4585L38.3379 43.5601C38.457 43.5976 38.5399 43.6495 38.6006 43.7017L39.0625 44.0981C39.2858 44.2907 39.5378 44.4478 39.8115 44.5601L40.1064 44.6743L40.4004 44.7964C40.4605 44.8214 40.5085 44.8602 40.5547 44.9185L40.7598 45.1743L40.957 45.4243C41.1728 45.6989 41.4447 45.9161 41.7705 46.0513L42.0586 46.1665L42.3418 46.2886C42.5319 46.3673 42.7271 46.4462 42.917 46.5249L43.1992 46.6411L43.4873 46.7632C43.6796 46.8429 43.8791 46.9198 44.0772 46.9995L44.3711 47.1216L44.665 47.2368C44.6734 47.2404 44.6753 47.2471 44.6777 47.2495C44.6816 47.2532 44.6965 47.2616 44.7109 47.2876L44.8701 47.5893L45.0371 47.8833C45.2698 48.3054 45.6591 48.5765 46.1387 48.645L46.4707 48.6968L46.8106 48.7407C46.9117 48.7554 46.9731 48.7878 47.0156 48.8188L47.2656 48.9976L47.5098 49.1831C47.8052 49.4004 48.1489 49.5189 48.5137 49.5356L49.1289 49.561C49.185 49.5637 49.2464 49.5848 49.3213 49.6313L49.6025 49.8042L49.8779 49.977C50.2766 50.2248 50.7318 50.2663 51.166 50.1313L51.8184 49.9263C51.8951 49.9024 51.9379 49.9121 51.9658 49.9204L52.2676 50.0093L52.5674 50.105C52.7964 50.1746 53.0283 50.2298 53.2598 50.272L53.5596 50.3227L53.8613 50.3804C54.0999 50.4237 54.3433 50.4495 54.585 50.4575L54.8867 50.4712L55.1865 50.477C55.3335 50.482 55.4918 50.5047 55.6543 50.5415L56.2822 50.6821C56.5273 50.7376 56.9455 50.7893 57.3242 50.563C57.4803 50.6942 57.6313 50.8304 57.7754 50.9722L58.2129 51.4028C58.298 51.4865 58.4042 51.5503 58.54 51.5913L59.1621 51.7788C59.4261 51.8584 59.6677 51.9819 59.8799 52.1509L60.3613 52.5347C60.3811 52.5504 60.4019 52.5646 60.4229 52.5786L60.3125 52.606L60 52.6763C59.6074 52.7655 59.2638 52.9773 59.0186 53.3052L58.6777 53.7642L58.5674 53.7075C58.2918 53.5655 58.1567 53.4564 58.0996 53.3999L58.1699 53.394L57.9658 53.2661L57.8633 53.1499L57.6523 52.9077C57.4041 52.6331 57.0864 52.4419 56.7227 52.3491L56.4229 52.2729L56.3975 52.2661L56.1846 52.1313L56.083 52.0679C55.8208 51.9016 55.5048 51.9146 55.251 52.0552L54.917 52.0874L54.8213 52.7085L54.8154 52.7466C54.7687 53.0444 54.8931 53.271 54.9756 53.3804C55.0531 53.482 55.137 53.5438 55.1797 53.5727C55.2675 53.6319 55.3554 53.6716 55.3975 53.688C55.4942 53.7255 55.6109 53.7562 55.7188 53.7837L56.3193 53.937C56.3575 53.9468 56.3947 53.9641 56.4356 54.0093L56.6465 54.2515L56.8643 54.4878C57.0481 54.6911 57.2913 54.8688 57.5576 55.0249L57.3418 55.1685L57.085 55.3345C56.9593 55.4167 56.8438 55.5107 56.7383 55.6147C56.5678 55.4911 56.4718 55.4 56.4268 55.3452L56.2217 55.0962L56.0225 54.852C55.775 54.551 55.4473 54.3448 55.0684 54.2505L54.7617 54.1733L54.4473 54.0903L54.3516 54.0649L54.3125 54.0132L54.2295 53.9106L54.1201 53.8335L54.0244 53.77C53.6499 53.5171 53.1386 53.6151 52.8848 53.9888C52.6946 54.2706 52.7029 54.6301 52.8779 54.8979L53.1035 55.1274L53.1406 55.1792L53.1797 55.2173L53.2754 55.3071C53.414 55.4412 53.5722 55.5187 53.6787 55.563C53.7965 55.6119 53.9232 55.6535 54.0498 55.6851L54.3643 55.7612L54.6709 55.8384C54.7064 55.8472 54.729 55.86 54.7539 55.8901L55.1641 56.3892C55.3413 56.6042 55.5807 56.8041 55.8486 56.9917C55.8041 57.1123 55.7678 57.2363 55.7412 57.3638L55.6123 57.979C55.5776 58.1463 55.5329 58.3086 55.4785 58.4595L55.2734 59.0239C55.2128 59.1921 55.1673 59.2924 55.1426 59.3442C55.1242 59.3316 55.1048 59.3194 55.084 59.3081L54.5654 59.0278C54.4219 58.9501 54.2733 58.8875 54.1201 58.8413L53.5635 58.6733C53.2519 58.5792 53.0091 58.3789 52.8496 58.0991L52.5498 57.5718C52.4738 57.4385 52.378 57.316 52.2617 57.2046L51.8125 56.7739C51.6706 56.638 51.5254 56.508 51.3779 56.3843L50.9102 55.9917C50.7486 55.8561 50.5891 55.7163 50.4326 55.5727L49.9795 55.1558C49.8163 55.006 49.6603 54.8485 49.5127 54.6831L49.1016 54.2222C49.0236 54.1349 48.923 54.0664 48.7891 54.019L48.1689 53.7993C47.9409 53.7186 47.724 53.6237 47.5195 53.5151L46.9736 53.2261C46.7476 53.106 46.5426 52.9532 46.3604 52.77L45.915 52.3218C45.7653 52.1712 45.6178 52.0211 45.4736 51.8726L45.0449 51.4311C44.9058 51.2878 44.764 51.1457 44.6201 51.0063L44.1777 50.5776C44.0322 50.4366 43.8846 50.2967 43.7373 50.1587L43.542 49.9751L43.5732 50.1147C43.6303 50.3706 43.6455 50.6289 43.6191 50.8872L43.5566 51.5015C43.5357 51.7063 43.5143 51.9111 43.4932 52.1147L43.4297 52.7251C43.4093 52.9214 43.393 53.1186 43.3809 53.3159L43.3438 53.9292C43.33 54.1537 43.302 54.3783 43.2607 54.602L43.1484 55.2153C43.0981 55.4888 42.9788 55.7727 42.7217 55.9585L42.3721 56.2104C42.292 56.2683 42.1866 56.3204 42.0586 56.3364C41.9265 56.3528 41.8015 56.3269 41.6953 56.2749C41.5041 56.181 41.387 56.0123 41.3164 55.8872L40.9863 55.3013C40.9092 55.1646 40.8189 55.0669 40.7188 54.9976L40.2168 54.6509C40.0491 54.5348 39.8836 54.4202 39.7227 54.3081L39.2412 53.9722C39.0053 53.8078 38.8465 53.5815 38.7656 53.3149L38.7354 53.1987L38.6074 52.5903C38.5595 52.3636 38.5287 52.1349 38.5156 51.9048L38.4805 51.2886C38.469 51.0858 38.4558 50.883 38.4414 50.6811L38.3975 50.0679C38.3816 49.845 38.3785 49.6092 38.3857 49.3618L38.3916 49.1323L38.2461 49.2056C38.04 49.3083 37.822 49.3655 37.5977 49.3706L37.5967 49.3726C37.5248 49.4451 37.4347 49.5451 37.3408 49.6538C37.1473 49.8779 36.9739 50.0985 36.9356 50.1558L36.5967 50.6616C36.5072 50.7953 36.4336 50.9414 36.377 51.1011L36.168 51.6919C36.066 51.9793 35.8895 52.2203 35.6445 52.4018L35.1494 52.7681C34.8835 52.9651 34.5667 53.0514 34.2305 52.9761L33.6875 52.854C33.4196 52.7938 33.181 52.6667 32.9814 52.478L32.5742 52.0933C32.3959 51.9246 32.2483 51.7238 32.1279 51.4985L31.833 50.9468C31.6788 50.6581 31.6369 50.343 31.7051 50.0239L31.8389 49.3989C31.8684 49.2606 31.8794 49.0251 31.8496 48.6685L31.8027 48.1079L31.8008 48.0913V48.0561C31.8006 48.0444 31.8002 48.0269 31.7998 48.0054C31.7991 47.9616 31.7981 47.8989 31.7969 47.8237C31.7944 47.6725 31.7913 47.4696 31.7881 47.2642C31.7836 46.978 31.7787 46.6804 31.7764 46.5112C31.7426 46.4677 31.6986 46.4137 31.6494 46.3569C31.5922 46.2909 31.5343 46.2263 31.4902 46.1782L31.4375 46.1206C31.2226 45.956 31.0521 45.7509 30.9365 45.5044L30.6709 44.938C30.5827 44.75 30.4945 44.5637 30.4072 44.3804L30.1436 43.8267C30.0743 43.6813 29.9843 43.542 29.8731 43.4087L29.4639 42.9175C29.2695 42.6844 29.1471 42.413 29.1035 42.1128L29.0127 41.4829C28.9835 41.2817 28.9493 41.0851 28.9111 40.894L28.792 40.2935C28.7427 40.0467 28.729 39.7968 28.752 39.5454L28.8086 38.9311C28.8193 38.8132 28.8009 38.6923 28.7451 38.563L28.4863 37.9634C28.3762 37.7078 28.3158 37.4411 28.3115 37.1675L28.3027 36.5503C28.2992 36.324 28.3097 36.0973 28.335 35.8706L28.4043 35.2505C28.426 35.0566 28.4399 34.863 28.4463 34.6704L28.4668 34.0542C28.473 33.869 28.468 33.6865 28.4512 33.5073L28.4004 32.9731L28.1689 32.3667L28.1348 32.2768L28.1367 32.1802L28.1504 31.6235C28.1596 31.2364 28.1949 30.8992 28.2695 30.6333L28.4443 30.0093C28.4629 29.9429 28.4547 29.9116 28.4229 29.8686L28.0469 29.3618C27.9396 29.2173 27.82 29.0851 27.6895 28.9643L27.2295 28.5386C27.0141 28.3393 26.8584 28.096 26.7656 27.8169L26.5645 27.2095C26.4917 26.9904 26.432 26.7718 26.3867 26.5542L26.3135 26.2046L25.2617 25.7339C25.1062 25.6769 24.9465 25.6371 24.7822 25.6157L24.1719 25.5356C23.9998 25.5132 23.8254 25.5074 23.6494 25.5181L23.0293 25.5552C22.727 25.5734 22.4368 25.5062 22.1689 25.3628L21.5938 25.0542C21.4297 24.9664 21.2719 24.9031 21.1221 24.8608L20.5586 24.7017C20.4433 24.6693 20.3064 24.6589 20.1426 24.6802L19.4805 24.7661C19.221 24.7998 18.964 24.8013 18.7109 24.77L18.0801 24.6919C17.7557 24.6516 17.4723 24.5067 17.2402 24.2778L16.7598 23.8052C16.7061 23.7523 16.6547 23.7306 16.5645 23.7388L15.875 23.8013C15.5327 23.832 15.2082 23.7482 14.9316 23.5386L14.416 23.1479C14.3093 23.0671 14.2015 23.0238 14.0879 23.0093L13.4766 22.9311C13.2957 22.9081 13.111 22.8975 12.9229 22.8989L12.293 22.9038C12.0141 22.9059 11.7446 22.8505 11.4902 22.7378L10.9209 22.4849C10.7274 22.3991 10.5354 22.3114 10.3457 22.2212L9.78809 21.9556C9.68229 21.9053 9.56427 21.8813 9.42579 21.8901L8.77344 21.9321C8.46488 21.9517 8.16931 21.8869 7.89942 21.7368L7.34375 21.4282C7.20241 21.3496 7.05744 21.2967 6.90918 21.2681L6.30567 21.1518C6.14639 21.1211 5.98286 21.1108 5.81543 21.1216L5.19043 21.1616C4.89304 21.1807 4.60564 21.1206 4.33789 20.9878L3.75977 20.7007C3.60531 20.6241 3.45096 20.5727 3.29688 20.5435L2.93457 20.4731C2.7661 20.4664 2.60183 20.4343 2.44239 20.3774C2.3178 20.3511 2.19275 20.3228 2.06836 20.2925L1.46778 20.146C1.3258 20.1114 1.23618 20.1188 1.1836 20.1333L0.72266 20.2602C0.684325 20.2709 0.646443 20.2812 0.618168 20.2876C0.610626 20.2893 0.599775 20.2913 0.587895 20.2935C0.581889 20.2946 0.549305 20.3009 0.50977 20.3022C0.502312 20.3026 0.422491 20.3076 0.331059 20.2759C0.285629 20.2601 0.152008 20.2066 0.0654339 20.0561C-0.0385059 19.8752 0.00213123 19.6973 0.0459027 19.603C0.0839797 19.5211 0.135535 19.4704 0.154301 19.4526C0.17827 19.4299 0.199805 19.4142 0.211918 19.4058C0.23582 19.3891 0.2567 19.3782 0.265629 19.3735C0.309243 19.3506 0.365154 19.3303 0.380864 19.3247C0.413753 19.3129 0.457691 19.2984 0.50977 19.2808L1.12305 19.0727C1.45144 18.9617 1.78624 18.9849 2.09766 19.1343L2.69141 19.4194C2.69899 19.4231 2.70736 19.4259 2.71485 19.4292C2.76917 19.4403 2.82361 19.4521 2.87793 19.4624L3.03516 19.4917C3.04024 19.4914 3.04566 19.492 3.05079 19.4917L3.67579 19.4448C3.93944 19.4251 4.20087 19.4501 4.45704 19.519L5.06739 19.6841C5.15766 19.7084 5.25171 19.7046 5.36622 19.6567L5.99024 19.396C6.33333 19.2523 6.69038 19.2678 7.01954 19.4409L7.61817 19.7554C7.7431 19.8211 7.85323 19.8416 7.95704 19.8335L8.57325 19.7856C8.7997 19.7678 9.02666 19.7642 9.25293 19.7759L9.86817 19.8081C10.0736 19.8187 10.2792 19.8297 10.4844 19.8413L11.0986 19.8755C11.3665 19.8906 11.626 19.9566 11.874 20.0688L12.4609 20.3345C12.5892 20.3925 12.7154 20.4166 12.8438 20.4116L13.4668 20.3872C13.726 20.377 13.981 20.4079 14.2295 20.479L14.8232 20.6489C14.9371 20.6815 15.0642 20.6869 15.2119 20.6558L15.8701 20.5161C16.2095 20.4443 16.5429 20.4992 16.8379 20.687L17.3818 21.0337C17.5225 21.1233 17.6683 21.1873 17.8193 21.228L18.4229 21.3901C18.5788 21.4321 18.7367 21.452 18.8975 21.4487L19.5205 21.436C19.765 21.431 20.0066 21.4533 20.2441 21.5034L20.8457 21.6304C21.0759 21.6789 21.3022 21.7488 21.5225 21.8393L22.1016 22.0776C22.247 22.1375 22.3969 22.1728 22.5508 22.1841L23.1699 22.229C23.3422 22.2415 23.5164 22.2365 23.6924 22.2134L24.3193 22.1304C24.6034 22.093 24.8846 22.1211 25.1563 22.2134L25.7588 22.4185C25.8606 22.4531 26.0642 22.4761 26.4111 22.4419L26.9697 22.3872L27.1494 22.3696L27.2979 22.4722L27.3809 22.5288L27.751 22.4302C27.8733 22.3973 27.997 22.3345 28.1211 22.2319L28.6397 21.8032C28.8974 21.5903 29.2027 21.4764 29.5391 21.4819L29.6455 21.4829C29.6314 21.2846 29.6416 21.0839 29.7041 20.9018L29.8281 20.5405C29.8425 20.4987 29.8454 20.4603 29.8379 20.4185L29.7705 20.0444C29.7409 19.8791 29.732 19.7112 29.7441 19.5435L29.7725 19.1616C29.7864 18.9697 29.8371 18.7858 29.9258 18.6147L30.0977 18.2827C30.1282 18.2238 30.1465 18.1641 30.1543 18.1011L30.1992 17.7349C30.2099 17.6483 30.2114 17.5603 30.2031 17.4712L30.1689 17.0991C30.154 16.9379 30.1573 16.7767 30.1797 16.6167L30.2314 16.2495C30.2535 16.0919 30.2926 15.9365 30.3477 15.7847L30.4785 15.4224C30.4815 15.414 30.4824 15.4096 30.4824 15.4077C30.4824 15.4053 30.4818 15.3973 30.4766 15.3823L30.3418 15.0015C30.2643 14.7813 30.2549 14.5478 30.3281 14.3188L30.4424 13.9604C30.4642 13.8924 30.4743 13.8253 30.4727 13.7583L30.4629 13.3882C30.4579 13.1894 30.4976 12.9969 30.5772 12.8159L30.7334 12.4614C30.7595 12.402 30.7711 12.3472 30.7715 12.2935L30.7744 11.9224C30.7755 11.7909 30.7795 11.6593 30.7871 11.5278L30.8086 11.1567C30.8154 11.0387 30.8202 10.9198 30.8232 10.8003L30.833 10.4253C30.839 10.1891 30.9207 9.9743 31.0586 9.7915L31.293 9.47997L31.2197 9.10009C31.1753 8.87218 31.1979 8.64097 31.3008 8.42529L31.4639 8.08447C31.485 8.04024 31.4924 7.9987 31.4912 7.95458L31.4805 7.58349C31.4744 7.37239 31.5238 7.16971 31.6182 6.98388L31.791 6.64306L31.6553 6.26122C31.5778 6.04211 31.5651 5.80873 31.6357 5.57861L31.7461 5.21826C31.7819 5.10175 31.8163 4.98557 31.8486 4.8706L31.9492 4.51415C31.9785 4.40999 32.0031 4.30469 32.0225 4.19872L32.0889 3.83544C32.122 3.65492 32.187 3.48426 32.2803 3.32568L32.4766 2.99072C32.4957 2.95818 32.5021 2.93171 32.501 2.90087L32.4873 2.52099C32.4815 2.35702 32.4942 2.19425 32.5264 2.03466L32.5996 1.67236C32.6352 1.49576 32.7001 1.32902 32.7939 1.17529L32.9854 0.862787C33.0187 0.808191 33.0572 0.747862 33.0957 0.699701C33.1081 0.684249 33.1537 0.625739 33.2246 0.577631C33.2533 0.558166 33.3618 0.4874 33.5186 0.490716C33.609 0.492749 33.7064 0.519699 33.793 0.58056C33.8343 0.609633 33.8676 0.642183 33.8936 0.67431L33.9522 0.767084L33.9746 0.812006C34.0283 0.920369 34.0291 1.02688 34.0293 1.03466C34.0305 1.06853 34.0289 1.10081 34.0273 1.12548C34.0241 1.17667 34.0175 1.23787 34.0088 1.30322L33.959 1.67333C33.9408 1.80931 33.9177 1.94453 33.8887 2.07861L33.8096 2.44384C33.7965 2.50472 33.7945 2.56597 33.8047 2.63036L33.8643 3.00341C33.8872 3.14816 33.9007 3.29288 33.9043 3.43701L33.9131 3.80322C33.9172 3.96936 33.8988 4.13523 33.8604 4.29931L33.7734 4.67236C33.7744 4.67427 33.7756 4.67712 33.7773 4.68017L33.9883 5.03661C34.1356 5.28524 34.1608 5.5703 34.0459 5.84228L33.8887 6.21337C33.865 6.26954 33.8602 6.31324 33.8633 6.35009L33.8955 6.72021C33.901 6.78387 33.9175 6.85124 33.9502 6.92333L34.1143 7.28369C34.1868 7.44325 34.2369 7.60958 34.2598 7.78076L34.3076 8.1372C34.3326 8.32417 34.3187 8.51122 34.2725 8.69384L34.1748 9.07763C34.1587 9.14111 34.1582 9.19479 34.167 9.24169L34.2363 9.60595C34.2624 9.74445 34.2765 9.88462 34.2813 10.0249L34.3594 9.76415C34.388 9.66805 34.4105 9.56981 34.4258 9.47021L34.4814 9.10497C34.5 8.98401 34.5182 8.8628 34.5361 8.74169L34.5898 8.37548C34.6099 8.24016 34.6361 8.10613 34.667 7.97411L34.75 7.61865C34.7762 7.5068 34.7996 7.3935 34.8213 7.27978L34.8906 6.91845C34.9222 6.75283 34.9767 6.59305 35.0518 6.43994L35.2227 6.0913C35.2528 6.02986 35.2677 5.9723 35.2715 5.9165L35.2959 5.54833C35.3022 5.45379 35.3001 5.35592 35.29 5.25536L35.252 4.87548C35.2341 4.69722 35.2453 4.51937 35.2852 4.34521L35.3682 3.9829C35.4031 3.83067 35.4525 3.68255 35.5166 3.53954L35.6699 3.19677C35.7157 3.09482 35.7575 2.99216 35.7939 2.88915L35.917 2.5415C35.9584 2.42465 35.9999 2.30802 36.042 2.19189L36.167 1.84619C36.2069 1.73623 36.2453 1.62455 36.2822 1.51122L36.3984 1.15576C36.432 1.05278 36.459 0.951454 36.4805 0.852045L36.5566 0.501459C36.5643 0.466248 36.5732 0.428593 36.584 0.39306C36.5897 0.374027 36.6124 0.295501 36.6641 0.220209C36.6805 0.196259 36.7746 0.0571707 36.9668 0.0131774ZM56.8115 50.1362L57.0205 50.3091C56.8944 50.2579 56.7566 50.1681 56.6553 50.0034C56.7074 50.0475 56.7589 50.0925 56.8115 50.1362ZM40.3926 33.23C40.5511 33.4283 40.6778 33.6479 40.7725 33.8862L41.0049 34.4702C41.0539 34.5937 41.1267 34.6993 41.2275 34.7905L41.6973 35.2153C41.8703 35.3717 42.031 35.5377 42.1777 35.7134L42.5732 36.187C42.7431 36.3905 42.873 36.6204 42.9629 36.8726L43.1758 37.4702C43.2128 37.5742 43.2743 37.6582 43.3711 37.729L43.8955 38.1118C44.1086 38.2676 44.2925 38.4496 44.4434 38.6577L44.7998 39.1499C44.921 39.3171 45.0415 39.4874 45.1602 39.6597L45.5098 40.1675C45.6038 40.304 45.7145 40.4284 45.8408 40.5415L46.3057 40.9585C46.4987 41.1314 46.6604 41.3303 46.7891 41.5532L47.0957 42.0845C47.2128 42.2875 47.3145 42.5056 47.4004 42.7378L47.6318 43.3638C47.6442 43.397 47.6553 43.4082 47.6592 43.4116C47.6631 43.4149 47.6798 43.4275 47.7246 43.437L48.3965 43.5806C48.7452 43.6547 49.0319 43.8476 49.2266 44.1479L49.5918 44.7124C49.6706 44.834 49.7603 44.9122 49.8594 44.9624L50.4111 45.2417C50.5565 45.3152 50.7175 45.3732 50.8955 45.4136L51.54 45.5591C51.8346 45.6259 52.0976 45.7614 52.3193 45.9643L52.7891 46.3931C52.995 46.5817 53.1573 46.8077 53.2764 47.064L53.5547 47.6636C53.6076 47.7774 53.6778 47.8508 53.7656 47.9018L54.3076 48.2163C54.5005 48.3281 54.6869 48.4476 54.8662 48.5747L55.2354 48.8364L54.9365 48.8315L54.6357 48.8188C54.4754 48.8134 54.3155 48.7959 54.1563 48.7671L53.8555 48.7153L53.5537 48.6577C53.3868 48.6273 53.2175 48.5871 53.0479 48.5356L52.7461 48.4399L52.4463 48.3511C52.0739 48.2378 51.6921 48.2518 51.332 48.3638L51.0049 48.4653L50.7041 48.5561L50.4668 48.4087L50.1856 48.2349C49.8894 48.0509 49.5593 47.9449 49.2061 47.9282L48.8926 47.9087L48.585 47.896C48.5416 47.8938 48.5126 47.8856 48.4824 47.8638L48.2383 47.6782L47.9883 47.4985C47.7052 47.2903 47.3828 47.1704 47.042 47.1216L46.7022 47.0698L46.4326 47.0317L46.3115 46.7944L46.1455 46.5005C45.952 46.1493 45.6579 45.8741 45.2734 45.7192L44.9795 45.5972L44.6856 45.4819C44.4921 45.4041 44.3017 45.3233 44.1143 45.2456L43.8262 45.1294L43.5449 45.0073C43.3548 44.9285 43.1592 44.8499 42.9688 44.771L42.6875 44.6558L42.3984 44.5337C42.3442 44.5109 42.2946 44.4754 42.2451 44.4126L42.0459 44.1626L41.8477 43.9058C41.6292 43.628 41.3498 43.4137 41.0215 43.2788L40.7275 43.1567L40.4326 43.0425C40.3159 42.9946 40.2151 42.9286 40.1309 42.856L39.6709 42.4585C39.4247 42.2467 39.1403 42.0957 38.832 41.9985L38.5117 41.896L38.2676 41.8188L38.0957 41.2993C38.051 41.1616 38.0342 41.0394 38.0313 40.9351L38.0186 40.647L38.0127 40.3589C38.007 40.1579 37.9995 39.9506 37.9863 39.7378L37.9668 39.4302L37.9482 39.1167C37.9401 38.982 37.9484 38.85 37.9736 38.7192L38.0313 38.4126L38.0889 38.1108C38.1164 37.9705 38.1639 37.8317 38.2236 37.6948L38.3457 37.4067L38.4727 37.1186C38.5812 36.8693 38.6589 36.6105 38.7041 36.3442L38.8057 35.7417C38.8374 35.5537 38.8738 35.3591 38.915 35.1645L38.9795 34.852L39.0498 34.5435C39.0555 34.517 39.0627 34.5025 39.0879 34.481L39.5742 34.0708C39.8318 33.8521 40.0664 33.5413 40.2793 33.1997L40.3174 33.1362L40.3926 33.23ZM30.5762 23.2993C30.4027 23.2867 30.2304 23.3047 30.0615 23.3462L29.8809 23.3892L29.7041 23.4341C29.5928 23.4615 29.4872 23.4843 29.3887 23.5034L29.2236 23.5337L29.0635 23.5659C28.9206 23.5937 28.7735 23.6639 28.6592 23.7954C28.6042 23.8587 28.5638 23.9272 28.5361 23.9956L28.4834 24.1997L28.46 24.3804L28.4365 24.564C28.3996 24.8504 28.5027 25.1068 28.6973 25.2974L28.8389 25.436L28.9775 25.5747C29.0481 25.6437 29.1073 25.711 29.1514 25.7778L29.251 25.9282L29.3467 26.0786C29.4746 26.2732 29.6618 26.4149 29.8926 26.478L30.0576 26.5239L30.2236 26.5659C30.2944 26.5853 30.3742 26.6169 30.458 26.6616L30.626 26.7544L30.7949 26.8423C30.9833 26.9425 31.192 26.9919 31.4072 26.981L31.5908 26.9692L31.7744 26.9614C31.9271 26.9537 32.0799 26.9308 32.2285 26.896L32.4092 26.854L32.5859 26.812C32.7601 26.7711 32.9252 26.703 33.0742 26.604L33.2236 26.5044L33.3701 26.4087C33.3871 26.3974 33.4195 26.3825 33.4814 26.3784L33.6846 26.3618L33.8838 26.3511C33.9604 26.346 34.0546 26.3364 34.1387 26.313C34.1785 26.3018 34.2531 26.2784 34.3262 26.228C34.4007 26.1764 34.5345 26.0489 34.5498 25.8354L34.5537 25.7935L34.5566 25.7476C34.5637 25.6476 34.5394 25.5678 34.5264 25.5288C34.5112 25.4836 34.4912 25.4432 34.4756 25.4136C34.4447 25.3554 34.4072 25.2954 34.3682 25.2407L34.2647 25.0942L34.1611 24.9517C34.0887 24.8504 34.0125 24.7457 33.9307 24.6411L33.8115 24.4917L33.6963 24.3413C33.5627 24.1708 33.3884 24.0455 33.1856 23.9692L33.0088 23.9028L32.832 23.8345C32.6965 23.7836 32.5571 23.741 32.4209 23.7075L32.2481 23.6655L32.0713 23.6235C31.9669 23.5978 31.8624 23.5671 31.7598 23.5337L31.5908 23.477L31.417 23.4224C31.2646 23.3728 31.1061 23.3435 30.9453 23.3315L30.5762 23.2993ZM30.2959 24.2993C30.2587 24.5457 30.3163 24.8694 30.5107 25.1245L30.6221 25.2661L30.7295 25.4097C30.8127 25.5185 30.9427 25.6343 31.1279 25.6782C31.3148 25.7223 31.483 25.6757 31.6084 25.6118L31.9238 25.4517C31.9909 25.4173 32.1414 25.3346 32.2305 25.1704C32.2847 25.0694 32.2166 24.8051 32.1865 24.6636C32.2832 24.6874 32.385 24.7183 32.4863 24.7563L32.6631 24.8218L32.8398 24.8911C32.8731 24.9037 32.8976 24.9203 32.9199 24.9487L33.0391 25.0981L33.1543 25.2485C33.1988 25.3053 33.2415 25.3626 33.2822 25.4175C33.122 25.4444 32.9639 25.4958 32.8232 25.5893L32.6787 25.686L32.5283 25.7866C32.4814 25.8175 32.4274 25.8409 32.3633 25.856L32.002 25.9399C31.9113 25.9611 31.8192 25.9742 31.7256 25.979L31.54 25.9888L31.3564 25.9976C31.3252 25.9991 31.2935 25.9936 31.2568 25.9741L31.0869 25.8862L30.918 25.7935C30.7774 25.7186 30.633 25.6573 30.4844 25.6167L30.3193 25.5747L30.1611 25.5288L30.0732 25.3901L29.9736 25.2407C29.8869 25.1086 29.7818 24.9856 29.665 24.8716L29.4209 24.6255L29.4356 24.5063V24.4917L29.5742 24.4683C29.6908 24.4457 29.8126 24.4182 29.9385 24.3872L30.1191 24.3452L30.2959 24.2993ZM0.403325 19.3276C0.401859 19.328 0.400547 19.3286 0.400395 19.3286C0.400396 19.3286 0.401771 19.3283 0.404301 19.3276L0.405278 19.3267L0.403325 19.3276Z" fill="#DCDCDC"/>
<path d="M28.7243 32.1048C29.1578 31.9744 29.4036 31.5173 29.2732 31.0838C29.1428 30.6503 28.6857 30.4045 28.2522 30.5349L28.4882 31.3198L28.7243 32.1048ZM28.3925 31.3486L28.5855 32.1452L28.6072 32.14L28.6285 32.1336L28.3925 31.3486ZM26.9632 31.522L27.214 30.7416L26.9632 31.522ZM26.3496 31.3248L26.0988 32.1051L26.3496 31.3248ZM24.6173 31.9285L24.3059 31.1702L24.6173 31.9285ZM24.0589 32.1578L23.7475 31.3995L24.0589 32.1578ZM23.5149 32.3976L23.1646 31.6566L23.5149 32.3976ZM23.2502 32.5228L23.6005 33.2638L23.2502 32.5228ZM22.9854 32.6479L22.635 31.9069L22.9854 32.6479ZM22.496 33.3402L21.7339 33.0383L22.496 33.3402ZM22.4131 34.1422L21.7113 34.5656L22.4131 34.1422ZM22.6967 34.6123L21.9948 35.0357L22.6967 34.6123ZM23.0973 34.9249L22.8619 35.71L23.0973 34.9249ZM23.6149 35.0801L23.3795 35.8653L23.6149 35.0801ZM24.2003 35.2071L24.0778 36.0175L24.2003 35.2071ZM24.5268 35.2564L24.4043 36.0669L24.5268 35.2564ZM26.7285 33.8402L26.2078 33.2071L26.7285 33.8402ZM27.0802 33.3696L27.8268 33.7079L27.0802 33.3696ZM27.3422 32.7913L26.5956 32.453L27.3422 32.7913ZM27.7754 32.4123L28.009 33.198L27.7754 32.4123ZM28.6725 32.1221L29.4162 31.7774L28.6725 32.1221ZM28.6629 32.1013L29.4066 31.7567L29.1594 31.2232L28.5748 31.2864L28.6629 32.1013ZM28.5587 32.1126L28.126 31.4164L28.6467 32.9275L28.5587 32.1126ZM29.0764 32.7559C29.4608 32.5169 29.5788 32.0115 29.3398 31.6271C29.1008 31.2426 28.5954 31.1247 28.2109 31.3636L28.6436 32.0598L29.0764 32.7559ZM28.4882 31.3198L28.2522 30.5349L28.1564 30.5637L28.3925 31.3486L28.6285 32.1336L28.7243 32.1048L28.4882 31.3198ZM28.3925 31.3486L28.1995 30.552L27.6383 30.688L27.8313 31.4846L28.0243 32.2812L28.5855 32.1452L28.3925 31.3486ZM27.8313 31.4846L27.6383 30.688C27.4871 30.7246 27.3758 30.7397 27.2984 30.743C27.219 30.7464 27.198 30.7365 27.214 30.7416L26.9632 31.522L26.7124 32.3023C27.1344 32.4379 27.6037 32.3831 28.0243 32.2812L27.8313 31.4846ZM26.9632 31.522L27.214 30.7416L26.9072 30.643L26.6564 31.4234L26.4056 32.2037L26.7124 32.3023L26.9632 31.522ZM26.6564 31.4234L26.9072 30.643L26.6004 30.5444L26.3496 31.3248L26.0988 32.1051L26.4056 32.2037L26.6564 31.4234ZM26.3496 31.3248L26.6004 30.5444C26.1893 30.4123 25.7668 30.4466 25.3823 30.6437L25.7562 31.3731L26.1302 32.1025C26.1348 32.1001 26.1352 32.1004 26.1315 32.1015C26.1277 32.1026 26.1217 32.1039 26.1144 32.1045C26.1071 32.1051 26.101 32.1048 26.0971 32.1043C26.0934 32.1038 26.0938 32.1035 26.0988 32.1051L26.3496 31.3248ZM25.7562 31.3731L25.3823 30.6437L25.0957 30.7906L25.4697 31.52L25.8436 32.2494L26.1302 32.1025L25.7562 31.3731ZM25.4697 31.52L25.0957 30.7906L24.8091 30.9375L25.1831 31.6669L25.557 32.3963L25.8436 32.2494L25.4697 31.52ZM25.1831 31.6669L24.8091 30.9375C24.6372 31.0256 24.4694 31.1031 24.3059 31.1702L24.6173 31.9285L24.9286 32.6867C25.1374 32.601 25.3468 32.504 25.557 32.3963L25.1831 31.6669ZM24.6173 31.9285L24.3059 31.1702L24.0267 31.2849L24.3381 32.0431L24.6494 32.8013L24.9286 32.6867L24.6173 31.9285ZM24.3381 32.0431L24.0267 31.2849L23.7475 31.3995L24.0589 32.1578L24.3702 32.916L24.6494 32.8013L24.3381 32.0431ZM24.0589 32.1578L23.7475 31.3995C23.5486 31.4812 23.3543 31.5669 23.1646 31.6566L23.5149 32.3976L23.8653 33.1386C24.0285 33.0614 24.1969 32.9872 24.3702 32.916L24.0589 32.1578ZM23.5149 32.3976L23.1646 31.6566L22.8998 31.7817L23.2502 32.5228L23.6005 33.2638L23.8653 33.1386L23.5149 32.3976ZM23.2502 32.5228L22.8998 31.7817L22.635 31.9069L22.9854 32.6479L23.3357 33.389L23.6005 33.2638L23.2502 32.5228ZM22.9854 32.6479L22.635 31.9069C22.2622 32.0832 21.9942 32.3812 21.8463 32.7547L22.6083 33.0566L23.3703 33.3586C23.3725 33.3531 23.3733 33.3524 23.3717 33.355C23.3699 33.3578 23.3665 33.3627 23.3612 33.3685C23.3558 33.3744 23.35 33.3795 23.3445 33.3834C23.3419 33.3853 23.3397 33.3867 23.3381 33.3877C23.3365 33.3886 23.3357 33.389 23.3357 33.389L22.9854 32.6479ZM22.6083 33.0566L21.8463 32.7547L21.7339 33.0383L22.496 33.3402L23.258 33.6421L23.3703 33.3586L22.6083 33.0566ZM22.496 33.3402L21.7339 33.0383L21.6216 33.3218L22.3836 33.6237L23.1457 33.9256L23.258 33.6421L22.496 33.3402ZM22.3836 33.6237L21.6216 33.3218C21.4645 33.7184 21.4686 34.1634 21.7113 34.5656L22.4131 34.1422L23.115 33.7188C23.1326 33.748 23.1501 33.7941 23.1532 33.8486C23.1561 33.9 23.1445 33.9286 23.1457 33.9256L22.3836 33.6237ZM22.4131 34.1422L21.7113 34.5656L21.8531 34.8007L22.5549 34.3773L23.2567 33.9538L23.115 33.7188L22.4131 34.1422ZM22.5549 34.3773L21.8531 34.8007L21.9948 35.0357L22.6967 34.6123L23.3985 34.1889L23.2567 33.9538L22.5549 34.3773ZM22.6967 34.6123L21.9948 35.0357C22.1927 35.3636 22.4909 35.5988 22.8619 35.71L23.0973 34.9249L23.3327 34.1398C23.3377 34.1413 23.3536 34.1474 23.372 34.1618C23.3805 34.1684 23.3872 34.1749 23.392 34.1805C23.3968 34.186 23.3988 34.1892 23.3985 34.1889L22.6967 34.6123ZM23.0973 34.9249L22.8619 35.71L23.1207 35.7877L23.3561 35.0025L23.5915 34.2174L23.3327 34.1398L23.0973 34.9249ZM23.3561 35.0025L23.1207 35.7877L23.3795 35.8653L23.6149 35.0801L23.8504 34.295L23.5915 34.2174L23.3561 35.0025ZM23.6149 35.0801L23.3795 35.8653C23.5961 35.9302 23.83 35.9801 24.0778 36.0175L24.2003 35.2071L24.3227 34.3966C24.1352 34.3683 23.9788 34.3335 23.8504 34.295L23.6149 35.0801ZM24.2003 35.2071L24.0778 36.0175L24.4043 36.0669L24.5268 35.2564L24.6492 34.4459L24.3227 34.3966L24.2003 35.2071ZM24.5268 35.2564L24.4043 36.0669L24.7308 36.1162L24.8533 35.3058L24.9758 34.4953L24.6492 34.4459L24.5268 35.2564ZM24.8533 35.3058L24.7308 36.1162C25.2172 36.1897 25.6733 36.0301 26.0066 35.6654L25.4015 35.1125L24.7964 34.5596C24.8015 34.554 24.8293 34.5273 24.881 34.5091C24.9327 34.4909 24.9701 34.4944 24.9758 34.4953L24.8533 35.3058ZM25.4015 35.1125L26.0066 35.6654L26.2283 35.4228L25.6232 34.8699L25.0181 34.317L24.7964 34.5596L25.4015 35.1125ZM25.6232 34.8699L26.2283 35.4228L26.4499 35.1802L25.8448 34.6273L25.2397 34.0744L25.0181 34.317L25.6232 34.8699ZM25.8448 34.6273L26.4499 35.1802C26.5753 35.043 26.6948 34.9292 26.8079 34.8362L26.2872 34.2032L25.7665 33.5701C25.5853 33.7191 25.4099 33.8881 25.2397 34.0744L25.8448 34.6273ZM26.2872 34.2032L26.8079 34.8362L27.0285 34.6547L26.5078 34.0217L25.9872 33.3886L25.7665 33.5701L26.2872 34.2032ZM26.5078 34.0217L27.0285 34.6547L27.2492 34.4732L26.7285 33.8402L26.2078 33.2071L25.9872 33.3886L26.5078 34.0217ZM26.7285 33.8402L27.2492 34.4732C27.5035 34.2641 27.6935 34.002 27.8268 33.7079L27.0802 33.3696L26.3336 33.0313C26.2922 33.1226 26.2477 33.1743 26.2078 33.2071L26.7285 33.8402ZM27.0802 33.3696L27.8268 33.7079L27.9578 33.4187L27.2112 33.0804L26.4646 32.7421L26.3336 33.0313L27.0802 33.3696ZM27.2112 33.0804L27.9578 33.4187L28.0888 33.1296L27.3422 32.7913L26.5956 32.453L26.4646 32.7421L27.2112 33.0804ZM27.3422 32.7913L28.0888 33.1296C28.0892 33.1287 28.0803 33.1474 28.0557 33.1689C28.0444 33.1788 28.0332 33.1863 28.0235 33.1914C28.0141 33.1965 28.0086 33.1981 28.009 33.198L27.7754 32.4123L27.5419 31.6266C27.1109 31.7547 26.7803 32.0455 26.5956 32.453L27.3422 32.7913ZM27.7754 32.4123L28.009 33.198L28.3112 33.1082L28.0777 32.3225L27.8442 31.5368L27.5419 31.6266L27.7754 32.4123ZM28.0777 32.3225L28.3112 33.1082L28.6134 33.0184L28.3799 32.2327L28.1464 31.447L27.8442 31.5368L28.0777 32.3225ZM28.3799 32.2327L28.6134 33.0184C28.7182 32.9872 28.8163 32.9562 28.894 32.9269C28.9266 32.9145 28.9905 32.8897 29.0564 32.853C29.0811 32.8393 29.1655 32.7922 29.2501 32.7075C29.2821 32.6755 29.6566 32.2961 29.4162 31.7774L28.6725 32.1221L27.9288 32.4667C27.8183 32.2283 27.8439 31.9922 27.9097 31.8249C27.9666 31.6803 28.0504 31.5888 28.09 31.5492C28.1697 31.4694 28.246 31.4279 28.2592 31.4206C28.3023 31.3966 28.3305 31.3873 28.3144 31.3934C28.2945 31.4009 28.2431 31.4182 28.1464 31.447L28.3799 32.2327ZM28.6725 32.1221L29.4162 31.7774L29.4066 31.7567L28.6629 32.1013L27.9192 32.446L27.9288 32.4667L28.6725 32.1221ZM28.6629 32.1013L28.5748 31.2864L28.4707 31.2976L28.5587 32.1126L28.6467 32.9275L28.7509 32.9162L28.6629 32.1013ZM28.5587 32.1126L28.9914 32.8087L29.0764 32.7559L28.6436 32.0598L28.2109 31.3636L28.126 31.4164L28.5587 32.1126Z" fill="#DCDCDC"/>
<path d="M35.7732 53.1767C35.9453 52.758 35.7454 52.279 35.3267 52.1069C34.908 51.9348 34.4291 52.1347 34.257 52.5534L35.0151 52.865L35.7732 53.1767ZM34.9771 52.9575L34.2189 52.6458L34.2118 52.6633L34.2054 52.6811L34.9771 52.9575ZM34.786 53.4911L34.0143 53.2147L34.786 53.4911ZM34.3939 54.2725L33.7573 53.7561L34.3939 54.2725ZM33.9919 54.768L34.6285 55.2844L33.9919 54.768ZM33.743 55.3298L32.9327 55.2062L33.743 55.3298ZM33.6951 55.6439L34.5054 55.7675L33.6951 55.6439ZM33.6472 55.958L32.8369 55.8344V55.8344L33.6472 55.958ZM33.487 56.5617L32.7227 56.2654L33.487 56.5617ZM33.3747 56.8513L32.6105 56.555L33.3747 56.8513ZM33.2625 57.1408L34.0267 57.4371L33.2625 57.1408ZM32.9901 57.6907L32.292 57.2611L32.9901 57.6907ZM32.6698 58.2111L33.3679 58.6407L32.6698 58.2111ZM32.6327 58.7386L33.3773 58.3959L32.6327 58.7386ZM32.8789 59.2733L32.1343 59.616L32.8789 59.2733ZM33.3105 59.5551L33.2719 60.3739L33.3105 59.5551ZM33.9276 59.5842L33.9662 58.7654L33.9276 59.5842ZM33.9599 59.7294L34.3103 60.4704L33.9599 59.7294ZM33.4075 59.9906L33.0571 59.2496L33.4075 59.9906ZM32.8222 60.0308L33.0523 59.2441L32.8222 60.0308ZM32.2041 59.8501L32.4342 59.0634L32.2041 59.8501ZM31.6012 59.9128L31.2223 59.186V59.186L31.6012 59.9128ZM31.3073 60.066L31.6861 60.7929L31.3073 60.066ZM31.0134 60.2192L30.6346 59.4923L31.0134 60.2192ZM30.4106 60.3883L30.4527 61.2069V61.2069L30.4106 60.3883ZM30.1016 60.4042L30.0594 59.5856L30.1016 60.4042ZM29.7926 60.4201L29.8348 61.2387L29.7926 60.4201ZM29.191 60.5453L28.9043 59.7774L29.191 60.5453ZM28.8984 60.6545L28.6117 59.8867L28.8984 60.6545ZM28.6058 60.7638L28.8925 61.5317L28.6058 60.7638ZM27.9934 60.829L27.8816 61.641L27.9934 60.829ZM27.3538 60.741L27.242 61.553L27.3538 60.741ZM26.7317 60.7533L26.5814 59.9475L26.7317 60.7533ZM26.127 60.8661L26.2773 61.6719L26.127 60.8661ZM25.519 60.9653L25.6328 61.7771L25.519 60.9653ZM25.2133 61.0082L25.0995 60.1965L25.2133 61.0082ZM24.9077 61.0511L24.7939 60.2393L24.9077 61.0511ZM24.4241 61.2244L23.9393 60.5635L24.4241 61.2244ZM24.0683 61.4854L24.553 62.1463L24.0683 61.4854ZM23.6719 61.8355L23.0908 61.2574L23.6719 61.8355ZM23.2349 62.2748L22.6538 61.6967L23.2349 62.2748ZM22.7797 62.7008L23.3184 63.3186L22.7797 62.7008ZM22.3063 63.1137L21.7675 62.4959L22.3063 63.1137ZM21.8613 63.1931L22.2881 62.4933L21.8613 63.1931ZM21.4448 62.9391L21.018 63.6389L21.4448 62.9391ZM21.6278 61.973L20.8849 61.6267L21.6278 61.973ZM22.0206 61.5144L21.559 60.8371L22.0206 61.5144ZM22.2831 61.3355L22.7447 62.0129L22.2831 61.3355ZM22.5456 61.1567L22.084 60.4793L22.5456 61.1567ZM23.015 60.7263L22.382 60.2055L23.015 60.7263ZM23.4289 60.2232L24.0619 60.744L23.4289 60.2232ZM23.9478 59.9387L24.034 60.7538L23.9478 59.9387ZM24.2596 59.9057L24.1734 59.0906L24.2596 59.9057ZM24.5715 59.8727L24.6578 60.6878L24.5715 59.8727ZM25.1899 59.7995L25.0833 58.9868L25.1899 59.7995ZM25.8028 59.7191L25.9094 60.5318L25.8028 59.7191ZM26.4112 59.6169L26.2464 58.814L26.4112 59.6169ZM27.015 59.493L27.1798 60.296L27.015 59.493ZM28.8853 59.5353L29.1801 60.3001L28.8853 59.5353ZM29.1799 59.4218L29.4747 60.1866L29.1799 59.4218ZM29.4745 59.3082L29.1796 58.5434L29.4745 59.3082ZM30.0731 59.1487L30.1955 59.9592L30.0731 59.1487ZM30.3771 59.1028L30.4995 59.9132L30.3771 59.1028ZM30.6811 59.0568L30.5587 58.2464L30.6811 59.0568ZM31.2142 58.8245L30.6969 58.1887L31.2142 58.8245ZM31.6724 58.4517L32.1897 59.0876L31.6724 58.4517ZM31.8727 57.948L32.6891 57.8741L31.8727 57.948ZM31.8153 57.3133L32.6316 57.2394L31.8153 57.3133ZM31.8728 56.7423L32.6488 57.0061L31.8728 56.7423ZM31.959 56.4886L31.183 56.2247L31.959 56.4886ZM32.0453 56.2349L32.8213 56.4987L32.0453 56.2349ZM32.3389 55.4939L31.5847 55.1729L32.3389 55.4939ZM32.6671 54.7214L33.4219 55.0409L32.6671 54.7214ZM32.7879 54.436L32.033 54.1165L32.7879 54.436ZM32.9087 54.1507L32.1538 53.8312L32.9087 54.1507ZM33.1267 53.5721L32.3487 53.314L33.1267 53.5721ZM33.3213 52.9855L34.0993 53.2436L33.3213 52.9855ZM33.5139 52.6186L33.0127 51.97L33.5139 52.6186ZM33.6092 52.545L33.3412 51.7703L33.2143 51.8143L33.108 51.8964L33.6092 52.545ZM33.7644 52.4913L34.0324 53.2659L34.3956 53.1402L34.5313 52.7807L33.7644 52.4913ZM34.5666 52.6871C34.7265 52.2636 34.5127 51.7907 34.0892 51.6308C33.6657 51.471 33.1927 51.6847 33.0329 52.1083L33.7998 52.3977L34.5666 52.6871ZM35.0151 52.865L34.257 52.5534L34.2189 52.6458L34.9771 52.9575L35.7352 53.2691L35.7732 53.1767L35.0151 52.865ZM34.9771 52.9575L34.2054 52.6811L34.0143 53.2147L34.786 53.4911L35.5576 53.7675L35.7487 53.2339L34.9771 52.9575ZM34.786 53.4911L34.0143 53.2147C33.8978 53.5401 33.8044 53.698 33.7573 53.7561L34.3939 54.2725L35.0304 54.7888C35.2513 54.5166 35.4193 54.1536 35.5576 53.7675L34.786 53.4911ZM34.3939 54.2725L33.7573 53.7561L33.5563 54.0039L34.1929 54.5202L34.8295 55.0366L35.0304 54.7888L34.3939 54.2725ZM34.1929 54.5202L33.5563 54.0039L33.3554 54.2516L33.9919 54.768L34.6285 55.2844L34.8295 55.0366L34.1929 54.5202ZM33.9919 54.768L33.3554 54.2516C33.13 54.5294 32.9867 54.8522 32.9327 55.2062L33.743 55.3298L34.5533 55.4535C34.5632 55.3887 34.5859 55.3369 34.6285 55.2844L33.9919 54.768ZM33.743 55.3298L32.9327 55.2062L32.8848 55.5203L33.6951 55.6439L34.5054 55.7675L34.5533 55.4535L33.743 55.3298ZM33.6951 55.6439L32.8848 55.5203L32.8369 55.8344L33.6472 55.958L34.4575 56.0816L34.5054 55.7675L33.6951 55.6439ZM33.6472 55.958L32.8369 55.8344C32.8137 55.9861 32.7755 56.1293 32.7227 56.2654L33.487 56.5617L34.2513 56.8579C34.3482 56.6079 34.4167 56.3487 34.4575 56.0816L33.6472 55.958ZM33.487 56.5617L32.7227 56.2654L32.6105 56.555L33.3747 56.8513L34.139 57.1475L34.2513 56.8579L33.487 56.5617ZM33.3747 56.8513L32.6105 56.555L32.4982 56.8446L33.2625 57.1408L34.0267 57.4371L34.139 57.1475L33.3747 56.8513ZM33.2625 57.1408L32.4982 56.8446C32.4411 56.992 32.3723 57.1306 32.292 57.2611L32.9901 57.6907L33.6882 58.1202C33.8214 57.9037 33.9342 57.6758 34.0267 57.4371L33.2625 57.1408ZM32.9901 57.6907L32.292 57.2611L32.1319 57.5213L32.8299 57.9509L33.528 58.3805L33.6882 58.1202L32.9901 57.6907ZM32.8299 57.9509L32.1319 57.5213L31.9717 57.7815L32.6698 58.2111L33.3679 58.6407L33.528 58.3805L32.8299 57.9509ZM32.6698 58.2111L31.9717 57.7815C31.7279 58.1778 31.6863 58.643 31.8882 59.0814L32.6327 58.7386L33.3773 58.3959C33.3873 58.4175 33.4027 58.466 33.3981 58.5306C33.3937 58.5937 33.373 58.6324 33.3679 58.6407L32.6698 58.2111ZM32.6327 58.7386L31.8882 59.0814L32.0112 59.3487L32.7558 59.0059L33.5004 58.6632L33.3773 58.3959L32.6327 58.7386ZM32.7558 59.0059L32.0112 59.3487L32.1343 59.616L32.8789 59.2733L33.6234 58.9305L33.5004 58.6632L32.7558 59.0059ZM32.8789 59.2733L32.1343 59.616C32.2305 59.8249 32.3815 60.0209 32.6001 60.1637C32.8166 60.305 33.0522 60.3635 33.2719 60.3739L33.3105 59.5551L33.3491 58.7364C33.3631 58.737 33.4239 58.7437 33.4965 58.7911C33.5712 58.8399 33.6093 58.8998 33.6234 58.9305L32.8789 59.2733ZM33.3105 59.5551L33.2719 60.3739L33.5804 60.3884L33.619 59.5697L33.6576 58.7509L33.3491 58.7364L33.3105 59.5551ZM33.619 59.5697L33.5804 60.3884L33.889 60.403L33.9276 59.5842L33.9662 58.7654L33.6576 58.7509L33.619 59.5697ZM33.9276 59.5842L33.889 60.403C33.9218 60.4045 33.8914 60.4061 33.8329 60.3904C33.8055 60.383 33.7238 60.3597 33.6298 60.2985C33.5354 60.2371 33.352 60.0851 33.2899 59.806C33.2266 59.522 33.3318 59.3017 33.3987 59.1992C33.4634 59.1003 33.5332 59.0439 33.5568 59.0254C33.6073 58.9859 33.6387 58.9746 33.6095 58.9884L33.9599 59.7294L34.3103 60.4704C34.3732 60.4406 34.4723 60.3906 34.5661 60.3172C34.6114 60.2818 34.6968 60.2096 34.7709 60.0962C34.8474 59.9792 34.9559 59.7456 34.89 59.4496C34.8251 59.1583 34.633 58.9955 34.5238 58.9244C34.4148 58.8535 34.3122 58.8217 34.2577 58.8071C34.145 58.7768 34.0362 58.7687 33.9662 58.7654L33.9276 59.5842ZM33.9599 59.7294L33.6095 58.9884L33.3333 59.119L33.6837 59.86L34.0341 60.601L34.3103 60.4704L33.9599 59.7294ZM33.6837 59.86L33.3333 59.119L33.0571 59.2496L33.4075 59.9906L33.7579 60.7316L34.0341 60.601L33.6837 59.86ZM33.4075 59.9906L33.0571 59.2496C33.0544 59.2509 33.0547 59.2505 33.0574 59.2498C33.0601 59.2491 33.0635 59.2485 33.0668 59.2482C33.0701 59.248 33.0713 59.2483 33.0698 59.2481C33.0681 59.2479 33.0624 59.2471 33.0523 59.2441L32.8222 60.0308L32.5921 60.8176C32.9794 60.9308 33.382 60.9094 33.7579 60.7316L33.4075 59.9906ZM32.8222 60.0308L33.0523 59.2441L32.7433 59.1537L32.5132 59.9405L32.2831 60.7272L32.5921 60.8176L32.8222 60.0308ZM32.5132 59.9405L32.7433 59.1537L32.4342 59.0634L32.2041 59.8501L31.974 60.6368L32.2831 60.7272L32.5132 59.9405ZM32.2041 59.8501L32.4342 59.0634C32.0186 58.9418 31.5998 58.9892 31.2223 59.186L31.6012 59.9128L31.98 60.6397C31.9881 60.6355 31.992 60.6343 31.9918 60.6344C31.9914 60.6345 31.9885 60.6353 31.9837 60.6358C31.9789 60.6363 31.9746 60.6362 31.9717 60.636C31.9689 60.6357 31.9694 60.6354 31.974 60.6368L32.2041 59.8501ZM31.6012 59.9128L31.2223 59.186L30.9285 59.3392L31.3073 60.066L31.6861 60.7929L31.98 60.6397L31.6012 59.9128ZM31.3073 60.066L30.9285 59.3392L30.6346 59.4923L31.0134 60.2192L31.3923 60.9461L31.6861 60.7929L31.3073 60.066ZM31.0134 60.2192L30.6346 59.4923C30.5354 59.544 30.4486 59.5656 30.3684 59.5697L30.4106 60.3883L30.4527 61.2069C30.7844 61.1898 31.0996 61.0986 31.3923 60.9461L31.0134 60.2192ZM30.4106 60.3883L30.3684 59.5697L30.0594 59.5856L30.1016 60.4042L30.1438 61.2228L30.4527 61.2069L30.4106 60.3883ZM30.1016 60.4042L30.0594 59.5856L29.7504 59.6016L29.7926 60.4201L29.8348 61.2387L30.1438 61.2228L30.1016 60.4042ZM29.7926 60.4201L29.7504 59.6016C29.46 59.6165 29.177 59.6756 28.9043 59.7774L29.191 60.5453L29.4777 61.3132C29.5951 61.2694 29.7132 61.245 29.8348 61.2387L29.7926 60.4201ZM29.191 60.5453L28.9043 59.7774L28.6117 59.8867L28.8984 60.6545L29.1851 61.4224L29.4777 61.3132L29.191 60.5453ZM28.8984 60.6545L28.6117 59.8867L28.3191 59.9959L28.6058 60.7638L28.8925 61.5317L29.1851 61.4224L28.8984 60.6545ZM28.6058 60.7638L28.3191 59.9959C28.2555 60.0196 28.1887 60.0285 28.1052 60.017L27.9934 60.829L27.8816 61.641C28.2246 61.6882 28.5659 61.6536 28.8925 61.5317L28.6058 60.7638ZM27.9934 60.829L28.1052 60.017L27.7854 59.973L27.6736 60.785L27.5618 61.597L27.8816 61.641L27.9934 60.829ZM27.6736 60.785L27.7854 59.973L27.4656 59.9289L27.3538 60.741L27.242 61.553L27.5618 61.597L27.6736 60.785ZM27.3538 60.741L27.4656 59.9289C27.1696 59.8882 26.8736 59.893 26.5814 59.9475L26.7317 60.7533L26.882 61.5591C26.9929 61.5384 27.1116 61.535 27.242 61.553L27.3538 60.741ZM26.7317 60.7533L26.5814 59.9475L26.2791 60.0039L26.4294 60.8097L26.5796 61.6155L26.882 61.5591L26.7317 60.7533ZM26.4294 60.8097L26.2791 60.0039L25.9767 60.0603L26.127 60.8661L26.2773 61.6719L26.5796 61.6155L26.4294 60.8097ZM26.127 60.8661L25.9767 60.0603C25.7873 60.0957 25.5968 60.1268 25.4052 60.1536L25.519 60.9653L25.6328 61.7771C25.8488 61.7468 26.0636 61.7117 26.2773 61.6719L26.127 60.8661ZM25.519 60.9653L25.4052 60.1536L25.0995 60.1965L25.2133 61.0082L25.3272 61.8199L25.6328 61.7771L25.519 60.9653ZM25.2133 61.0082L25.0995 60.1965L24.7939 60.2393L24.9077 61.0511L25.0215 61.8628L25.3272 61.8199L25.2133 61.0082ZM24.9077 61.0511L24.7939 60.2393C24.5065 60.2796 24.2021 60.3707 23.9393 60.5635L24.4241 61.2244L24.9089 61.8854C24.895 61.8955 24.8924 61.8939 24.9105 61.8874C24.9291 61.8808 24.9644 61.8708 25.0215 61.8628L24.9077 61.0511ZM24.4241 61.2244L23.9393 60.5635L23.7614 60.6939L24.2462 61.3549L24.7309 62.0159L24.9089 61.8854L24.4241 61.2244ZM24.2462 61.3549L23.7614 60.6939L23.5835 60.8244L24.0683 61.4854L24.553 62.1463L24.7309 62.0159L24.2462 61.3549ZM24.0683 61.4854L23.5835 60.8244C23.4201 60.9443 23.2554 61.0919 23.0908 61.2574L23.6719 61.8355L24.253 62.4136C24.3797 62.2862 24.4792 62.2005 24.553 62.1463L24.0683 61.4854ZM23.6719 61.8355L23.0908 61.2574L22.8723 61.4771L23.4534 62.0551L24.0345 62.6332L24.253 62.4136L23.6719 61.8355ZM23.4534 62.0551L22.8723 61.4771L22.6538 61.6967L23.2349 62.2748L23.816 62.8529L24.0345 62.6332L23.4534 62.0551ZM23.2349 62.2748L22.6538 61.6967C22.522 61.8292 22.3844 61.958 22.241 62.0831L22.7797 62.7008L23.3184 63.3186C23.4906 63.1684 23.6565 63.0132 23.816 62.8529L23.2349 62.2748ZM22.7797 62.7008L22.241 62.0831L22.0043 62.2895L22.543 62.9073L23.0817 63.525L23.3184 63.3186L22.7797 62.7008ZM22.543 62.9073L22.0043 62.2895L21.7675 62.4959L22.3063 63.1137L22.845 63.7315L23.0817 63.525L22.543 62.9073ZM22.3063 63.1137L21.7675 62.4959C21.7589 62.5035 21.8142 62.451 21.9326 62.4298C22.0718 62.405 22.2014 62.4404 22.2881 62.4933L21.8613 63.1931L21.4345 63.8929C21.66 64.0305 21.9332 64.095 22.2207 64.0437C22.4874 63.9961 22.6958 63.8615 22.845 63.7315L22.3063 63.1137ZM21.8613 63.1931L22.2881 62.4933L22.0799 62.3663L21.6531 63.0661L21.2263 63.7659L21.4345 63.8929L21.8613 63.1931ZM21.6531 63.0661L22.0799 62.3663L21.8717 62.2393L21.4448 62.9391L21.018 63.6389L21.2263 63.7659L21.6531 63.0661ZM21.4448 62.9391L21.8717 62.2393C21.9612 62.2939 22.088 62.4198 22.1263 62.6198C22.1425 62.7042 22.1364 62.7727 22.1283 62.8152C22.1205 62.8563 22.11 62.8785 22.1099 62.8787L21.367 62.5324L20.6241 62.1861C20.5417 62.3628 20.4585 62.6264 20.5162 62.928C20.5804 63.2636 20.7896 63.4996 21.018 63.6389L21.4448 62.9391ZM21.367 62.5324L22.1099 62.8787L22.2403 62.599L21.4974 62.2527L20.7545 61.9064L20.6241 62.1861L21.367 62.5324ZM21.4974 62.2527L22.2403 62.599L22.3707 62.3193L21.6278 61.973L20.8849 61.6267L20.7545 61.9064L21.4974 62.2527ZM21.6278 61.973L22.3707 62.3193C22.3934 62.2705 22.4253 62.2305 22.4822 62.1918L22.0206 61.5144L21.559 60.8371C21.266 61.0368 21.036 61.3025 20.8849 61.6267L21.6278 61.973ZM22.0206 61.5144L22.4822 62.1918L22.7447 62.0129L22.2831 61.3355L21.8215 60.6582L21.559 60.8371L22.0206 61.5144ZM22.2831 61.3355L22.7447 62.0129L23.0071 61.834L22.5456 61.1567L22.084 60.4793L21.8215 60.6582L22.2831 61.3355ZM22.5456 61.1567L23.0071 61.834C23.248 61.6699 23.4618 61.4733 23.648 61.2471L23.015 60.7263L22.382 60.2055C22.2922 60.3147 22.1931 60.405 22.084 60.4793L22.5456 61.1567ZM23.015 60.7263L23.648 61.2471L23.8549 60.9955L23.222 60.4748L22.589 59.954L22.382 60.2055L23.015 60.7263ZM23.222 60.4748L23.8549 60.9955L24.0619 60.744L23.4289 60.2232L22.7959 59.7024L22.589 59.954L23.222 60.4748ZM23.4289 60.2232L24.0619 60.744C24.067 60.7378 24.0692 60.7362 24.0678 60.7374C24.0662 60.7387 24.0623 60.7417 24.0562 60.745C24.0501 60.7484 24.0439 60.7509 24.0388 60.7525C24.0337 60.754 24.0317 60.754 24.034 60.7538L23.9478 59.9387L23.8615 59.1236C23.4308 59.1691 23.0646 59.3759 22.7959 59.7024L23.4289 60.2232ZM23.9478 59.9387L24.034 60.7538L24.3459 60.7208L24.2596 59.9057L24.1734 59.0906L23.8615 59.1236L23.9478 59.9387ZM24.2596 59.9057L24.3459 60.7208L24.6578 60.6878L24.5715 59.8727L24.4853 59.0576L24.1734 59.0906L24.2596 59.9057ZM24.5715 59.8727L24.6578 60.6878C24.8724 60.6651 25.0853 60.6399 25.2965 60.6122L25.1899 59.7995L25.0833 58.9868C24.8858 59.0127 24.6865 59.0363 24.4853 59.0576L24.5715 59.8727ZM25.1899 59.7995L25.2965 60.6122L25.603 60.572L25.4963 59.7593L25.3897 58.9466L25.0833 58.9868L25.1899 59.7995ZM25.4963 59.7593L25.603 60.572L25.9094 60.5318L25.8028 59.7191L25.6962 58.9064L25.3897 58.9466L25.4963 59.7593ZM25.8028 59.7191L25.9094 60.5318C26.1332 60.5024 26.3554 60.4651 26.576 60.4199L26.4112 59.6169L26.2464 58.814C26.0645 58.8513 25.8811 58.8821 25.6962 58.9064L25.8028 59.7191ZM26.4112 59.6169L26.576 60.4199L26.8779 60.3579L26.7131 59.555L26.5483 58.752L26.2464 58.814L26.4112 59.6169ZM26.7131 59.555L26.8779 60.3579L27.1798 60.296L27.015 59.493L26.8503 58.6901L26.5483 58.752L26.7131 59.555ZM27.015 59.493L27.1798 60.296C27.2765 60.2761 27.3804 60.2735 27.4972 60.2935L27.6354 59.4855L27.7736 58.6776C27.4658 58.6249 27.1561 58.6273 26.8503 58.6901L27.015 59.493ZM27.6354 59.4855L27.4972 60.2935L27.8156 60.3479L27.9538 59.54L28.092 58.7321L27.7736 58.6776L27.6354 59.4855ZM27.9538 59.54L27.8156 60.3479L28.134 60.4024L28.2722 59.5945L28.4104 58.7865L28.092 58.7321L27.9538 59.54ZM28.2722 59.5945L28.134 60.4024C28.4884 60.463 28.8426 60.4303 29.1801 60.3001L28.8853 59.5353L28.5904 58.7705C28.5352 58.7918 28.4807 58.7985 28.4104 58.7865L28.2722 59.5945ZM28.8853 59.5353L29.1801 60.3001L29.4747 60.1866L29.1799 59.4218L28.885 58.657L28.5904 58.7705L28.8853 59.5353ZM29.1799 59.4218L29.4747 60.1866L29.7693 60.073L29.4745 59.3082L29.1796 58.5434L28.885 58.657L29.1799 59.4218ZM29.4745 59.3082L29.7693 60.073C29.9116 60.0181 30.0534 59.9806 30.1955 59.9592L30.0731 59.1487L29.9507 58.3382C29.6875 58.378 29.4302 58.4468 29.1796 58.5434L29.4745 59.3082ZM30.0731 59.1487L30.1955 59.9592L30.4995 59.9132L30.3771 59.1028L30.2547 58.2923L29.9507 58.3382L30.0731 59.1487ZM30.3771 59.1028L30.4995 59.9132L30.8035 59.8673L30.6811 59.0568L30.5587 58.2464L30.2547 58.2923L30.3771 59.1028ZM30.6811 59.0568L30.8035 59.8673C31.1448 59.8158 31.4603 59.681 31.7315 59.4603L31.2142 58.8245L30.6969 58.1887C30.6626 58.2166 30.6227 58.2367 30.5587 58.2464L30.6811 59.0568ZM31.2142 58.8245L31.7315 59.4603L31.9606 59.274L31.4433 58.6381L30.926 58.0023L30.6969 58.1887L31.2142 58.8245ZM31.4433 58.6381L31.9606 59.274L32.1897 59.0876L31.6724 58.4517L31.1551 57.8159L30.926 58.0023L31.4433 58.6381ZM31.6724 58.4517L32.1897 59.0876C32.573 58.7757 32.7305 58.3319 32.6891 57.8741L31.8727 57.948L31.0564 58.0219C31.0564 58.022 31.0535 57.9846 31.0754 57.9297C31.0983 57.8722 31.1329 57.834 31.1551 57.8159L31.6724 58.4517ZM31.8727 57.948L32.6891 57.8741L32.6603 57.5567L31.844 57.6306L31.0277 57.7046L31.0564 58.0219L31.8727 57.948ZM31.844 57.6306L32.6603 57.5567L32.6316 57.2394L31.8153 57.3133L30.9989 57.3872L31.0277 57.7046L31.844 57.6306ZM31.8153 57.3133L32.6316 57.2394C32.6208 57.1207 32.6345 57.0481 32.6488 57.0061L31.8728 56.7423L31.0967 56.4784C30.996 56.7746 30.9713 57.0828 30.9989 57.3872L31.8153 57.3133ZM31.8728 56.7423L32.6488 57.0061L32.7351 56.7524L31.959 56.4886L31.183 56.2247L31.0967 56.4784L31.8728 56.7423ZM31.959 56.4886L32.7351 56.7524L32.8213 56.4987L32.0453 56.2349L31.2692 55.971L31.183 56.2247L31.959 56.4886ZM32.0453 56.2349L32.8213 56.4987C32.8723 56.3487 32.9284 56.202 32.9894 56.0586L32.2352 55.7376L31.481 55.4166C31.4038 55.598 31.3332 55.7828 31.2692 55.971L32.0453 56.2349ZM32.2352 55.7376L32.9894 56.0586L33.0931 55.8149L32.3389 55.4939L31.5847 55.1729L31.481 55.4166L32.2352 55.7376ZM32.3389 55.4939L33.0931 55.8149L33.1968 55.5713L32.4426 55.2503L31.6884 54.9293L31.5847 55.1729L32.3389 55.4939ZM32.4426 55.2503L33.1968 55.5713C33.2662 55.4083 33.3412 55.2315 33.4219 55.0409L32.6671 54.7214L31.9123 54.4018C31.8319 54.5916 31.7573 54.7674 31.6884 54.9293L32.4426 55.2503ZM32.6671 54.7214L33.4219 55.0409L33.5427 54.7556L32.7879 54.436L32.033 54.1165L31.9123 54.4018L32.6671 54.7214ZM32.7879 54.436L33.5427 54.7556L33.6635 54.4703L32.9087 54.1507L32.1538 53.8312L32.033 54.1165L32.7879 54.436ZM32.9087 54.1507L33.6635 54.4703C33.7525 54.26 33.8329 54.0466 33.9047 53.8302L33.1267 53.5721L32.3487 53.314C32.2908 53.4887 32.2258 53.6611 32.1538 53.8312L32.9087 54.1507ZM33.1267 53.5721L33.9047 53.8302L34.002 53.5369L33.224 53.2788L32.446 53.0208L32.3487 53.314L33.1267 53.5721ZM33.224 53.2788L34.002 53.5369L34.0993 53.2436L33.3213 52.9855L32.5433 52.7275L32.446 53.0208L33.224 53.2788ZM33.3213 52.9855L34.0993 53.2436C34.111 53.2084 34.1211 53.1813 34.1293 53.161C34.1377 53.1403 34.1428 53.1302 34.1439 53.1281C34.1454 53.1251 34.1392 53.1376 34.1234 53.1589C34.1151 53.17 34.1027 53.1855 34.0858 53.2034C34.0689 53.2213 34.0455 53.2437 34.0151 53.2672L33.5139 52.6186L33.0127 51.97C32.8434 52.1008 32.7452 52.2655 32.6923 52.3662C32.6321 52.4809 32.5837 52.6058 32.5433 52.7275L33.3213 52.9855ZM33.5139 52.6186L34.0151 53.2672L34.1104 53.1935L33.6092 52.545L33.108 51.8964L33.0127 51.97L33.5139 52.6186ZM33.6092 52.545L33.8772 53.3196L34.0324 53.2659L33.7644 52.4913L33.4965 51.7166L33.3412 51.7703L33.6092 52.545ZM33.7644 52.4913L34.5313 52.7807L34.5666 52.6871L33.7998 52.3977L33.0329 52.1083L32.9976 52.2018L33.7644 52.4913Z" fill="#DCDCDC"/>
<path d="M41.0145 54.8684C41.1759 54.4455 40.9639 53.9718 40.5409 53.8104C40.118 53.649 39.6443 53.861 39.4829 54.2839L40.2487 54.5762L41.0145 54.8684ZM40.213 54.6696L39.4472 54.3774L39.3901 54.5272L39.3936 54.6876L40.213 54.6696ZM40.2255 55.2389L41.045 55.221L40.2255 55.2389ZM40.1292 56.108L39.3587 55.8284L40.1292 56.108ZM39.9116 56.7076L40.6821 56.9872L39.9116 56.7076ZM39.8595 57.3198L40.666 57.1734L39.8595 57.3198ZM39.9728 57.9444L39.1663 58.0907L39.9728 57.9444ZM39.9868 58.5959L40.8001 58.6982L39.9868 58.5959ZM39.9015 59.2742L39.0882 59.1719L39.9015 59.2742ZM39.529 59.6741L39.3804 58.868L39.529 59.6741ZM38.8693 59.7957L38.7207 58.9896L38.8693 59.7957ZM38.2554 59.9746L38.5702 60.7315L38.2554 59.9746ZM37.6873 60.2109L37.3726 59.454L37.6873 60.2109ZM37.2016 60.5479L37.8045 61.1033V61.1033L37.2016 60.5479ZM36.7983 60.9858L36.1954 60.4305L36.7983 60.9858ZM36.4528 61.4667L35.7343 61.0722L36.4528 61.4667ZM36.3089 61.7287L37.0274 62.1232L36.3089 61.7287ZM36.165 61.9907L36.8835 62.3852L36.165 61.9907ZM35.72 62.344L35.9577 63.1285L35.72 62.344ZM35.1176 62.5266L34.8799 61.7421L35.1176 62.5266ZM34.5659 62.836L34.0276 62.2178L34.5659 62.836ZM34.0647 63.2723L34.6029 63.8905L34.0647 63.2723ZM33.5073 63.5296L33.4036 62.7165L33.5073 63.5296ZM32.8938 63.6079L32.7901 62.7948L32.8938 63.6079ZM32.1507 64.0263L32.6885 64.6449L32.1507 64.0263ZM31.9326 64.2159L31.3948 63.5973L31.9326 64.2159ZM31.4714 64.5945L31.9744 65.2416L31.4714 64.5945ZM30.9853 64.9723L30.4823 64.3251L30.9853 64.9723ZM30.945 65.1504L30.9012 64.3319L30.945 65.1504ZM31.1477 65.1395L31.1915 65.958L31.1477 65.1395ZM31.3505 65.1287L31.3943 65.9472L31.3505 65.1287ZM31.7813 64.9051L31.2221 64.3058L31.7813 64.9051ZM32.0093 64.6924L31.4501 64.0931L32.0093 64.6924ZM32.719 64.0831L33.2 64.7468L32.719 64.0831ZM32.9727 63.8993L33.4537 64.5629L32.9727 63.8993ZM33.2264 63.7154L32.7454 63.0517L33.2264 63.7154ZM33.8101 63.4757L33.9468 64.2839L33.8101 63.4757ZM34.4701 63.364L34.6068 64.1722L34.4701 63.364ZM34.9089 62.9836L35.6861 63.2441L34.9089 62.9836ZM35.0177 62.6589L34.2406 62.3984L35.0177 62.6589ZM35.1266 62.3342L34.3494 62.0738L35.1266 62.3342ZM35.5248 61.8603L35.9006 62.5887L35.5248 61.8603ZM36.1037 61.5617L35.7279 60.8332L36.1037 61.5617ZM36.6788 61.2825L37.0179 62.0288V62.0288L36.6788 61.2825ZM37.2502 61.0229L36.9111 60.2767L37.2502 61.0229ZM37.8568 60.9542L37.7034 61.7594L37.8568 60.9542ZM38.4988 61.0765L38.6522 60.2714L38.4988 61.0765ZM39.096 60.9491L39.5581 61.6261L39.096 60.9491ZM39.6485 60.5719L39.1863 59.895L39.6485 60.5719ZM40.232 60.3485L40.1398 59.5341L40.232 60.3485ZM40.5394 60.3137L40.4471 59.4992L40.5394 60.3137ZM40.8467 60.2789L40.939 61.0933L40.8467 60.2789ZM41.4676 60.2309L41.4334 59.412L41.4676 60.2309ZM41.7813 60.2178L41.8156 61.0368L41.7813 60.2178ZM42.095 60.2047L42.0607 59.3857L42.095 60.2047ZM42.7226 60.2513L42.8758 59.4461L42.7226 60.2513ZM43.0365 60.3111L42.8832 61.1163L43.0365 60.3111ZM43.3504 60.3708L43.5037 59.5656L43.3504 60.3708ZM43.842 61.3959L44.6482 61.2475L43.842 61.3959ZM44.1123 61.8053L43.7978 62.5623L44.1123 61.8053ZM44.3234 61.893L44.6737 61.152L44.656 61.1436L44.6379 61.1361L44.3234 61.893ZM44.6479 62.0465L44.2976 62.7875L44.3796 62.8263L44.4681 62.8462L44.6479 62.0465ZM44.5656 62.8681C45.0073 62.9675 45.4459 62.69 45.5452 62.2483C45.6445 61.8066 45.367 61.3681 44.9254 61.2687L44.7455 62.0684L44.5656 62.8681ZM40.2487 54.5762L39.4829 54.2839L39.4472 54.3774L40.213 54.6696L40.9788 54.9618L41.0145 54.8684L40.2487 54.5762ZM40.213 54.6696L39.3936 54.6876L39.406 55.2569L40.2255 55.2389L41.045 55.221L41.0325 54.6516L40.213 54.6696ZM40.2255 55.2389L39.406 55.2569C39.4136 55.6019 39.3795 55.7712 39.3587 55.8284L40.1292 56.108L40.8997 56.3877C41.024 56.0452 41.0541 55.635 41.045 55.221L40.2255 55.2389ZM40.1292 56.108L39.3587 55.8284L39.2499 56.1282L40.0204 56.4078L40.7909 56.6875L40.8997 56.3877L40.1292 56.108ZM40.0204 56.4078L39.2499 56.1282L39.1411 56.428L39.9116 56.7076L40.6821 56.9872L40.7909 56.6875L40.0204 56.4078ZM39.9116 56.7076L39.1411 56.428C39.0194 56.7635 38.9892 57.1145 39.053 57.4661L39.8595 57.3198L40.666 57.1734C40.6542 57.1086 40.6588 57.0515 40.6821 56.9872L39.9116 56.7076ZM39.8595 57.3198L39.053 57.4661L39.1096 57.7784L39.9161 57.6321L40.7226 57.4858L40.666 57.1734L39.8595 57.3198ZM39.9161 57.6321L39.1096 57.7784L39.1663 58.0907L39.9728 57.9444L40.7793 57.7981L40.7226 57.4858L39.9161 57.6321ZM39.9728 57.9444L39.1663 58.0907C39.1881 58.2109 39.1924 58.3439 39.1735 58.4936L39.9868 58.5959L40.8001 58.6982C40.8381 58.3957 40.8331 58.0944 40.7793 57.7981L39.9728 57.9444ZM39.9868 58.5959L39.1735 58.4936L39.1309 58.8327L39.9442 58.935L40.7574 59.0373L40.8001 58.6982L39.9868 58.5959ZM39.9442 58.935L39.1309 58.8327L39.0882 59.1719L39.9015 59.2742L40.7148 59.3764L40.7574 59.0373L39.9442 58.935ZM39.9015 59.2742L39.0882 59.1719C39.0901 59.1574 39.1054 59.0729 39.1872 58.9851C39.2702 58.896 39.3574 58.8722 39.3804 58.868L39.529 59.6741L39.6776 60.4802C39.9205 60.4354 40.1797 60.3247 40.3869 60.1024C40.5928 59.8812 40.6845 59.617 40.7148 59.3764L39.9015 59.2742ZM39.529 59.6741L39.3804 58.868L39.0506 58.9288L39.1992 59.7349L39.3478 60.541L39.6776 60.4802L39.529 59.6741ZM39.1992 59.7349L39.0506 58.9288L38.7207 58.9896L38.8693 59.7957L39.0179 60.6018L39.3478 60.541L39.1992 59.7349ZM38.8693 59.7957L38.7207 58.9896C38.4489 59.0397 38.1881 59.1149 37.9407 59.2178L38.2554 59.9746L38.5702 60.7315C38.7015 60.6769 38.8499 60.6328 39.0179 60.6018L38.8693 59.7957ZM38.2554 59.9746L37.9407 59.2178L37.6567 59.3359L37.9714 60.0928L38.2861 60.8496L38.5702 60.7315L38.2554 59.9746ZM37.9714 60.0928L37.6567 59.3359L37.3726 59.454L37.6873 60.2109L38.002 60.9677L38.2861 60.8496L37.9714 60.0928ZM37.6873 60.2109L37.3726 59.454C37.0775 59.5768 36.8162 59.7565 36.5987 59.9926L37.2016 60.5479L37.8045 61.1033C37.8558 61.0475 37.9184 61.0025 38.002 60.9677L37.6873 60.2109ZM37.2016 60.5479L36.5987 59.9926L36.397 60.2115L36.9999 60.7669L37.6028 61.3222L37.8045 61.1033L37.2016 60.5479ZM36.9999 60.7669L36.397 60.2115L36.1954 60.4305L36.7983 60.9858L37.4012 61.5411L37.6028 61.3222L36.9999 60.7669ZM36.7983 60.9858L36.1954 60.4305C36.0159 60.6254 35.8619 60.8397 35.7343 61.0722L36.4528 61.4667L37.1712 61.8612C37.2354 61.7444 37.3118 61.6381 37.4012 61.5411L36.7983 60.9858ZM36.4528 61.4667L35.7343 61.0722L35.5904 61.3342L36.3089 61.7287L37.0274 62.1232L37.1712 61.8612L36.4528 61.4667ZM36.3089 61.7287L35.5904 61.3342L35.4465 61.5962L36.165 61.9907L36.8835 62.3852L37.0274 62.1232L36.3089 61.7287ZM36.165 61.9907L35.4465 61.5962C35.4469 61.5956 35.4492 61.5915 35.4542 61.5856C35.4592 61.5796 35.4654 61.5735 35.4722 61.5681C35.4872 61.5562 35.4945 61.5559 35.4823 61.5596L35.72 62.344L35.9577 63.1285C36.3515 63.0091 36.6786 62.7585 36.8835 62.3852L36.165 61.9907ZM35.72 62.344L35.4823 61.5596L35.1811 61.6509L35.4188 62.4353L35.6565 63.2197L35.9577 63.1285L35.72 62.344ZM35.4188 62.4353L35.1811 61.6509L34.8799 61.7421L35.1176 62.5266L35.3553 63.311L35.6565 63.2197L35.4188 62.4353ZM35.1176 62.5266L34.8799 61.7421C34.5622 61.8384 34.277 62.0007 34.0276 62.2178L34.5659 62.836L35.1041 63.4542C35.1888 63.3805 35.2715 63.3364 35.3553 63.311L35.1176 62.5266ZM34.5659 62.836L34.0276 62.2178L33.777 62.436L34.3153 63.0542L34.8535 63.6724L35.1041 63.4542L34.5659 62.836ZM34.3153 63.0542L33.777 62.436L33.5265 62.6541L34.0647 63.2723L34.6029 63.8905L34.8535 63.6724L34.3153 63.0542ZM34.0647 63.2723L33.5265 62.6541C33.4722 62.7014 33.4351 62.7125 33.4036 62.7165L33.5073 63.5296L33.611 64.3427C33.9886 64.2946 34.323 64.1342 34.6029 63.8905L34.0647 63.2723ZM33.5073 63.5296L33.4036 62.7165L33.0968 62.7557L33.2006 63.5688L33.3043 64.3818L33.611 64.3427L33.5073 63.5296ZM33.2006 63.5688L33.0968 62.7557L32.7901 62.7948L32.8938 63.6079L32.9975 64.421L33.3043 64.3818L33.2006 63.5688ZM32.8938 63.6079L32.7901 62.7948C32.4366 62.8399 32.1075 62.9778 31.8311 63.218L32.3688 63.8366L32.9066 64.4553C32.9211 64.4427 32.9419 64.4281 32.9975 64.421L32.8938 63.6079ZM32.3688 63.8366L31.8311 63.218L31.6129 63.4077L32.1507 64.0263L32.6885 64.6449L32.9066 64.4553L32.3688 63.8366ZM32.1507 64.0263L31.6129 63.4077L31.3948 63.5973L31.9326 64.2159L32.4703 64.8345L32.6885 64.6449L32.1507 64.0263ZM31.9326 64.2159L31.3948 63.5973C31.2614 63.7133 31.1193 63.8299 30.9684 63.9473L31.4714 64.5945L31.9744 65.2416C32.1475 65.1071 32.3129 64.9714 32.4703 64.8345L31.9326 64.2159ZM31.4714 64.5945L30.9684 63.9473L30.7253 64.1362L31.2283 64.7834L31.7313 65.4305L31.9744 65.2416L31.4714 64.5945ZM31.2283 64.7834L30.7253 64.1362L30.4823 64.3251L30.9853 64.9723L31.4883 65.6195L31.7313 65.4305L31.2283 64.7834ZM30.9853 64.9723L30.4823 64.3251C30.4261 64.3687 30.3587 64.4249 30.2964 64.4907C30.2619 64.5271 30.11 64.6839 30.0542 64.9304C30.0194 65.0842 30.0158 65.3065 30.139 65.5284C30.257 65.7407 30.433 65.8472 30.5488 65.8968C30.7477 65.9819 30.934 65.9718 30.9887 65.9689L30.945 65.1504L30.9012 64.3319C30.9111 64.3313 30.9395 64.3302 30.9797 64.334C31.0147 64.3374 31.0961 64.3478 31.1941 64.3898C31.2947 64.4329 31.4602 64.5307 31.5722 64.7324C31.6895 64.9436 31.6846 65.1532 31.6531 65.2921C31.6246 65.4181 31.5721 65.5038 31.548 65.54C31.5206 65.5813 31.4963 65.6077 31.4868 65.6178C31.4683 65.6373 31.4634 65.6388 31.4883 65.6195L30.9853 64.9723ZM30.945 65.1504L30.9887 65.9689L31.1915 65.958L31.1477 65.1395L31.104 64.321L30.9012 64.3319L30.945 65.1504ZM31.1477 65.1395L31.1915 65.958L31.3943 65.9472L31.3505 65.1287L31.3068 64.3102L31.104 64.321L31.1477 65.1395ZM31.3505 65.1287L31.3943 65.9472C31.8012 65.9254 32.1196 65.7105 32.3404 65.5045L31.7813 64.9051L31.2221 64.3058C31.1859 64.3396 31.1721 64.345 31.182 64.3398C31.1939 64.3337 31.2374 64.3139 31.3068 64.3102L31.3505 65.1287ZM31.7813 64.9051L32.3404 65.5045L32.5684 65.2918L32.0093 64.6924L31.4501 64.0931L31.2221 64.3058L31.7813 64.9051ZM32.0093 64.6924L32.5684 65.2918L32.7964 65.0791L32.2373 64.4797L31.6781 63.8804L31.4501 64.0931L32.0093 64.6924ZM32.2373 64.4797L32.7964 65.0791C32.9236 64.9604 33.0581 64.8497 33.2 64.7468L32.719 64.0831L32.2379 63.4195C32.0416 63.5618 31.8549 63.7154 31.6781 63.8804L32.2373 64.4797ZM32.719 64.0831L33.2 64.7468L33.4537 64.5629L32.9727 63.8993L32.4917 63.2356L32.2379 63.4195L32.719 64.0831ZM32.9727 63.8993L33.4537 64.5629L33.7074 64.379L33.2264 63.7154L32.7454 63.0517L32.4917 63.2356L32.9727 63.8993ZM33.2264 63.7154L33.7074 64.379C33.7676 64.3355 33.8425 64.3015 33.9468 64.2839L33.8101 63.4757L33.6734 62.6675C33.3377 62.7242 33.0235 62.8501 32.7454 63.0517L33.2264 63.7154ZM33.8101 63.4757L33.9468 64.2839L34.2768 64.228L34.1401 63.4199L34.0034 62.6117L33.6734 62.6675L33.8101 63.4757ZM34.1401 63.4199L34.2768 64.228L34.6068 64.1722L34.4701 63.364L34.3334 62.5558L34.0034 62.6117L34.1401 63.4199ZM34.4701 63.364L34.6068 64.1722C34.842 64.1325 35.0786 64.0365 35.2818 63.8603C35.484 63.685 35.6117 63.4661 35.6861 63.2441L34.9089 62.9836L34.1317 62.7231C34.1336 62.7175 34.1519 62.6703 34.2078 62.6217C34.2647 62.5724 34.3182 62.5584 34.3334 62.5558L34.4701 63.364ZM34.9089 62.9836L35.6861 63.2441L35.7949 62.9194L35.0177 62.6589L34.2406 62.3984L34.1317 62.7231L34.9089 62.9836ZM35.0177 62.6589L35.7949 62.9194L35.9037 62.5947L35.1266 62.3342L34.3494 62.0738L34.2406 62.3984L35.0177 62.6589ZM35.1266 62.3342L35.9037 62.5947C35.9075 62.5836 35.9103 62.5782 35.911 62.577C35.9116 62.5758 35.9108 62.5775 35.9081 62.5807C35.9053 62.584 35.9023 62.5868 35.8998 62.5889C35.8973 62.5908 35.8971 62.5906 35.9006 62.5887L35.5248 61.8603L35.149 61.1318C34.756 61.3346 34.4859 61.6665 34.3494 62.0738L35.1266 62.3342ZM35.5248 61.8603L35.9006 62.5887L36.19 62.4394L35.8143 61.711L35.4385 60.9825L35.149 61.1318L35.5248 61.8603ZM35.8143 61.711L36.19 62.4394L36.4795 62.2901L36.1037 61.5617L35.7279 60.8332L35.4385 60.9825L35.8143 61.711ZM36.1037 61.5617L36.4795 62.2901C36.6608 62.1966 36.8403 62.1095 37.0179 62.0288L36.6788 61.2825L36.3397 60.5363C36.1364 60.6287 35.9325 60.7277 35.7279 60.8332L36.1037 61.5617ZM36.6788 61.2825L37.0179 62.0288L37.3036 61.899L36.9645 61.1527L36.6254 60.4065L36.3397 60.5363L36.6788 61.2825ZM36.9645 61.1527L37.3036 61.899L37.5893 61.7691L37.2502 61.0229L36.9111 60.2767L36.6254 60.4065L36.9645 61.1527ZM37.2502 61.0229L37.5893 61.7691C37.619 61.7556 37.6485 61.7489 37.7034 61.7594L37.8568 60.9542L38.0103 60.149C37.6372 60.078 37.2623 60.1171 36.9111 60.2767L37.2502 61.0229ZM37.8568 60.9542L37.7034 61.7594L38.0244 61.8206L38.1778 61.0154L38.3312 60.2102L38.0103 60.149L37.8568 60.9542ZM38.1778 61.0154L38.0244 61.8206L38.3454 61.8817L38.4988 61.0765L38.6522 60.2714L38.3312 60.2102L38.1778 61.0154ZM38.4988 61.0765L38.3454 61.8817C38.779 61.9643 39.1988 61.8714 39.5581 61.6261L39.096 60.9491L38.6338 60.2721C38.627 60.2768 38.6242 60.2779 38.6257 60.2772C38.6272 60.2765 38.6314 60.2749 38.6375 60.2736C38.6437 60.2723 38.6492 60.2719 38.6531 60.2718C38.6568 60.2718 38.6568 60.2722 38.6522 60.2714L38.4988 61.0765ZM39.096 60.9491L39.5581 61.6261L39.8344 61.4375L39.3722 60.7605L38.9101 60.0836L38.6338 60.2721L39.096 60.9491ZM39.3722 60.7605L39.8344 61.4375L40.1106 61.2489L39.6485 60.5719L39.1863 59.895L38.9101 60.0836L39.3722 60.7605ZM39.6485 60.5719L40.1106 61.2489C40.1937 61.1922 40.2627 61.17 40.3243 61.163L40.232 60.3485L40.1398 59.5341C39.7916 59.5735 39.4715 59.7003 39.1863 59.895L39.6485 60.5719ZM40.232 60.3485L40.3243 61.163L40.6316 61.1282L40.5394 60.3137L40.4471 59.4992L40.1398 59.5341L40.232 60.3485ZM40.5394 60.3137L40.6316 61.1282L40.939 61.0933L40.8467 60.2789L40.7544 59.4644L40.4471 59.4992L40.5394 60.3137ZM40.8467 60.2789L40.939 61.0933C41.1243 61.0723 41.3119 61.0578 41.5019 61.0499L41.4676 60.2309L41.4334 59.412C41.2052 59.4215 40.9788 59.439 40.7544 59.4644L40.8467 60.2789ZM41.4676 60.2309L41.5019 61.0499L41.8156 61.0368L41.7813 60.2178L41.747 59.3989L41.4334 59.412L41.4676 60.2309ZM41.7813 60.2178L41.8156 61.0368L42.1292 61.0236L42.095 60.2047L42.0607 59.3857L41.747 59.3989L41.7813 60.2178ZM42.095 60.2047L42.1292 61.0236C42.2744 61.0176 42.4206 61.0282 42.5693 61.0565L42.7226 60.2513L42.8758 59.4461C42.6059 59.3947 42.3338 59.3743 42.0607 59.3857L42.095 60.2047ZM42.7226 60.2513L42.5693 61.0565L42.8832 61.1163L43.0365 60.3111L43.1898 59.5059L42.8758 59.4461L42.7226 60.2513ZM43.0365 60.3111L42.8832 61.1163L43.1972 61.1761L43.3504 60.3708L43.5037 59.5656L43.1898 59.5059L43.0365 60.3111ZM43.3504 60.3708L43.1972 61.1761C43.1704 61.171 43.0912 61.1475 43.0147 61.0693C42.9394 60.9923 42.9205 60.9173 42.9175 60.9007L43.7236 60.7524L44.5297 60.604C44.4872 60.373 44.3864 60.1271 44.1867 59.923C43.9858 59.7176 43.7397 59.6106 43.5037 59.5656L43.3504 60.3708ZM43.7236 60.7524L42.9175 60.9007L42.9767 61.2225L43.7828 61.0741L44.589 60.9258L44.5297 60.604L43.7236 60.7524ZM43.7828 61.0741L42.9767 61.2225L43.0359 61.5443L43.842 61.3959L44.6482 61.2475L44.589 60.9258L43.7828 61.0741ZM43.842 61.3959L43.0359 61.5443C43.1021 61.9041 43.3004 62.3556 43.7978 62.5623L44.1123 61.8053L44.4268 61.0484C44.5186 61.0865 44.5853 61.15 44.6233 61.2076C44.6555 61.2563 44.6543 61.2807 44.6482 61.2475L43.842 61.3959ZM44.1123 61.8053L43.7978 62.5623L44.0089 62.65L44.3234 61.893L44.6379 61.1361L44.4268 61.0484L44.1123 61.8053ZM44.3234 61.893L43.973 62.6341L44.2976 62.7875L44.6479 62.0465L44.9983 61.3055L44.6737 61.152L44.3234 61.893ZM44.6479 62.0465L44.4681 62.8462L44.5656 62.8681L44.7455 62.0684L44.9254 61.2687L44.8278 61.2468L44.6479 62.0465Z" fill="#DCDCDC"/>
<path d="M26.0822 26.9856C26.6595 26.8459 27.7237 26.5407 28.1928 26.3819C28.108 26.3823 28.175 27.5124 28.175 27.5124C22.5997 27.5382 17.0348 29.5362 11.5047 30.1426C10.507 30.252 9.53293 30.5257 8.52945 30.5805C7.69919 30.6259 5.84079 31.0335 6.5135 30.8058C6.61436 30.7716 6.94383 30.7884 7.42207 30.651C8.24246 30.4154 8.57148 30.4141 9.32099 30.1748C11.5056 29.4774 12.2731 29.2823 12.9633 29.1084C13.4493 28.986 13.8169 28.9368 14.1962 28.8576C14.5205 28.7899 14.9413 28.735 15.305 28.6488C15.7115 28.5526 16.4632 28.4039 17.5338 28.192L17.5906 28.1808C18.085 28.083 18.5093 28.0159 18.9023 27.9587C19.407 27.8853 20.284 27.9202 21.1528 27.7523C22.2075 27.5485 22.7919 27.511 23.6102 27.3922C24.2626 27.2976 25.2156 27.1952 26.0822 26.9856Z" fill="#DCDCDC"/>
<path d="M27.4915 26.6816L27.2271 26.0628L27.4915 26.6816ZM26.9964 26.7811L26.9973 26.1082L26.9964 26.7811ZM26.735 26.7807L26.736 26.1078L26.735 26.7807ZM26.4737 26.7804L26.4727 27.4533L26.4737 26.7804ZM25.9796 26.8946L25.6825 26.2908L25.9796 26.8946ZM25.5142 27.1236L25.2171 26.5199L25.5142 27.1236ZM25.0348 27.3021L24.8659 26.6507L25.0348 27.3021ZM24.788 27.3661L24.9569 28.0175L24.788 27.3661ZM24.5412 27.4301L24.7101 28.0815L24.5412 27.4301ZM24.0376 27.4777L24.0805 26.8061L24.0376 27.4777ZM23.5238 27.4448L23.5667 26.7733L23.5238 27.4448ZM23.0164 27.4582L23.0959 28.1265L23.0164 27.4582ZM22.5152 27.5179L22.5947 28.1861L22.5152 27.5179ZM20.0217 27.8973L19.8612 28.5508L20.0217 27.8973ZM19.507 27.7709L19.6674 27.1174L19.507 27.7709ZM18.7746 27.9892L18.4316 27.4103L18.7746 27.9892ZM18.5371 28.13L18.8801 28.7089L18.5371 28.13ZM18.0463 28.2827L18.0782 28.9549L18.0463 28.2827ZM17.793 28.2948L17.7611 27.6226L17.793 28.2948ZM17.5397 28.3068L17.5716 28.979L17.5397 28.3068ZM17.0475 28.4103L16.8068 27.7819L17.0475 28.4103ZM16.0676 28.6587L16.0013 29.3284L16.0676 28.6587ZM15.5412 28.6066L15.4749 29.2762L15.5412 28.6066ZM15.0348 28.6478L15.2143 29.2964L15.0348 28.6478ZM14.0617 28.9184L14.2443 29.5661L14.0617 28.9184ZM12.8656 29.3242L12.6003 28.7057L12.8656 29.3242ZM12.1252 29.4804L12.0192 30.145L12.1252 29.4804ZM11.0949 29.5329L10.6496 29.0283L11.0949 29.5329ZM9.69414 30.1328L9.73656 30.8044L9.69414 30.1328ZM8.96216 30.3499L8.69931 29.7304L8.96216 30.3499ZM8.72561 30.4503L8.46275 29.8308L8.72561 30.4503ZM7.68321 30.4526L7.60192 31.1206L7.68321 30.4526ZM6.99227 30.7428L6.58354 30.2082L6.99227 30.7428ZM7.4733 30.6022L7.41463 29.9318L7.4733 30.6022ZM8.48146 30.5009L8.57483 31.1673L8.48146 30.5009ZM8.97951 30.4311L9.07288 31.0975L8.97951 30.4311ZM9.75316 30.474L9.65447 31.1397L9.75316 30.474ZM10.0155 30.5129L9.91679 31.1785L10.0155 30.5129ZM11.4813 30.1135L11.5756 30.7798L11.4813 30.1135ZM11.981 30.0427L11.8867 29.3764L11.981 30.0427ZM12.4919 30.0452L12.3952 30.7112L12.4919 30.0452ZM13.0138 30.121L13.1104 29.455L13.0138 30.121ZM13.7409 29.881L13.3964 29.3029L13.7409 29.881ZM13.9739 29.7421L14.3184 30.3202L13.9739 29.7421ZM14.4607 29.5894L14.4974 30.2613L14.4607 29.5894ZM14.7144 29.5755L14.6777 28.9036L14.7144 29.5755ZM14.9681 29.5617L15.0048 30.2336L14.9681 29.5617ZM15.4769 29.5358L15.5087 30.2079L15.4769 29.5358ZM16.4783 29.3964L16.2092 28.7796L16.4783 29.3964ZM17.4335 29.0303L17.5844 29.6861L17.4335 29.0303ZM18.4365 28.8953L18.5242 28.2281L18.4365 28.8953ZM18.9672 28.9651L18.8795 29.6323L18.9672 28.9651ZM19.6779 28.6637L20.0834 29.2008L19.6779 28.6637ZM19.9006 28.4956L19.4952 27.9585V27.9585L19.9006 28.4956ZM20.3921 28.3839L20.2537 29.0425L20.3921 28.3839ZM20.9295 28.4969L21.0679 27.8383L20.9295 28.4969ZM21.4425 28.49L21.6115 29.1414L21.4425 28.49ZM21.6867 28.4266L21.5176 27.7753L21.6867 28.4266ZM21.9309 28.3632L21.7618 27.7119L21.9309 28.3632ZM22.4069 28.1579L22.7583 28.7319L22.4069 28.1579ZM22.8706 27.8741L22.5193 27.3002L22.8706 27.8741ZM23.3536 27.6963L23.2585 27.0301L23.3536 27.6963ZM23.856 27.6246L23.9511 28.2908L23.856 27.6246ZM24.3699 27.6523L24.528 26.9982L24.3699 27.6523ZM24.6327 27.7158L24.4746 28.3699L24.6327 27.7158ZM24.8954 27.7793L24.7373 28.4334L24.8954 27.7793ZM25.8992 27.6586L26.0615 28.3117L25.8992 27.6586ZM26.3979 27.5776L26.4502 28.2485L26.3979 27.5776ZM26.6496 27.558L26.5973 26.8871L26.6496 27.558ZM26.9013 27.5384L26.9536 28.2093L26.9013 27.5384ZM27.4056 27.5302L27.436 26.8579L27.4056 27.5302ZM27.9107 27.553L27.8803 28.2253L27.9107 27.553ZM28.1884 27.3043L28.8582 27.3691L28.1884 27.3043ZM28.2388 26.784L27.569 26.7192L28.2388 26.784ZM28.2462 26.4883L27.6445 26.7897L28.2462 26.4883ZM28.2284 26.4529L28.8301 26.1515L28.2284 26.4529ZM28.2106 26.4174L27.6089 26.7188L28.2106 26.4174ZM27.959 26.4818L28.2235 27.1006L27.959 26.4818ZM27.7253 26.5817L27.4608 25.9629L27.2271 26.0628L27.4915 26.6816L27.7559 27.3004L27.9897 27.2005L27.7253 26.5817ZM27.4915 26.6816L27.2271 26.0628C27.1574 26.0925 27.0829 26.1083 26.9973 26.1082L26.9964 26.7811L26.9954 27.454C27.2582 27.4544 27.5138 27.4038 27.7559 27.3004L27.4915 26.6816ZM26.9964 26.7811L26.9973 26.1082L26.736 26.1078L26.735 26.7807L26.7341 27.4537L26.9954 27.454L26.9964 26.7811ZM26.735 26.7807L26.736 26.1078L26.4746 26.1074L26.4737 26.7804L26.4727 27.4533L26.7341 27.4537L26.735 26.7807ZM26.4737 26.7804L26.4746 26.1074C26.1979 26.1071 25.9311 26.1684 25.6825 26.2908L25.9796 26.8946L26.2768 27.4983C26.3385 27.468 26.4011 27.4532 26.4727 27.4533L26.4737 26.7804ZM25.9796 26.8946L25.6825 26.2908L25.4498 26.4053L25.7469 27.0091L26.0441 27.6129L26.2768 27.4983L25.9796 26.8946ZM25.7469 27.0091L25.4498 26.4053L25.2171 26.5199L25.5142 27.1236L25.8114 27.7274L26.0441 27.6129L25.7469 27.0091ZM25.5142 27.1236L25.2171 26.5199C25.1023 26.5764 24.9854 26.6198 24.8659 26.6507L25.0348 27.3021L25.2037 27.9535C25.4132 27.8992 25.616 27.8236 25.8114 27.7274L25.5142 27.1236ZM25.0348 27.3021L24.8659 26.6507L24.6191 26.7147L24.788 27.3661L24.9569 28.0175L25.2037 27.9535L25.0348 27.3021ZM24.788 27.3661L24.6191 26.7147L24.3723 26.7787L24.5412 27.4301L24.7101 28.0815L24.9569 28.0175L24.788 27.3661ZM24.5412 27.4301L24.3723 26.7787C24.2776 26.8033 24.1812 26.8125 24.0805 26.8061L24.0376 27.4777L23.9946 28.1492C24.2364 28.1647 24.4758 28.1422 24.7101 28.0815L24.5412 27.4301ZM24.0376 27.4777L24.0805 26.8061L23.8236 26.7897L23.7807 27.4612L23.7378 28.1328L23.9946 28.1492L24.0376 27.4777ZM23.7807 27.4612L23.8236 26.7897L23.5667 26.7733L23.5238 27.4448L23.4809 28.1164L23.7378 28.1328L23.7807 27.4612ZM23.5238 27.4448L23.5667 26.7733C23.3555 26.7597 23.1453 26.7652 22.9368 26.79L23.0164 27.4582L23.0959 28.1265C23.2215 28.1115 23.3497 28.108 23.4809 28.1164L23.5238 27.4448ZM23.0164 27.4582L22.9368 26.79L22.6862 26.8198L22.7658 27.4881L22.8453 28.1563L23.0959 28.1265L23.0164 27.4582ZM22.7658 27.4881L22.6862 26.8198L22.4357 26.8497L22.5152 27.5179L22.5947 28.1861L22.8453 28.1563L22.7658 27.4881ZM22.5152 27.5179L22.4357 26.8497C22.2169 26.8757 22.0031 26.9267 21.7952 27.0019L22.0241 27.6347L22.253 28.2675C22.3657 28.2267 22.4793 28.1998 22.5947 28.1861L22.5152 27.5179ZM22.0241 27.6347L21.7952 27.0019L21.5546 27.0889L21.7835 27.7217L22.0124 28.3545L22.253 28.2675L22.0241 27.6347ZM21.7835 27.7217L21.5546 27.0889L21.3141 27.1759L21.543 27.8087L21.7719 28.4415L22.0124 28.3545L21.7835 27.7217ZM21.543 27.8087L21.3141 27.1759C21.2139 27.2122 21.1112 27.2335 21.0041 27.2403L21.0466 27.9119L21.089 28.5835C21.3232 28.5687 21.5514 28.5213 21.7719 28.4415L21.543 27.8087ZM21.0466 27.9119L21.0041 27.2403L20.7483 27.2565L20.7907 27.9281L20.8332 28.5997L21.089 28.5835L21.0466 27.9119ZM20.7907 27.9281L20.7483 27.2565L20.4924 27.2726L20.5349 27.9442L20.5773 28.6158L20.8332 28.5997L20.7907 27.9281ZM20.5349 27.9442L20.4924 27.2726C20.3922 27.279 20.2896 27.2701 20.1821 27.2437L20.0217 27.8973L19.8612 28.5508C20.0969 28.6086 20.3363 28.6311 20.5773 28.6158L20.5349 27.9442ZM20.0217 27.8973L20.1821 27.2437L19.9247 27.1806L19.7643 27.8341L19.6039 28.4876L19.8612 28.5508L20.0217 27.8973ZM19.7643 27.8341L19.9247 27.1806L19.6674 27.1174L19.507 27.7709L19.3466 28.4245L19.6039 28.4876L19.7643 27.8341ZM19.507 27.7709L19.6674 27.1174C19.3169 27.0314 18.972 27.0901 18.6691 27.2696L19.0121 27.8485L19.3551 28.4274C19.3587 28.4253 19.3614 28.424 19.3631 28.4231C19.3648 28.4223 19.3657 28.422 19.3657 28.422C19.3658 28.422 19.3651 28.4222 19.3638 28.4225C19.3626 28.4229 19.3609 28.4232 19.3588 28.4236C19.3545 28.4242 19.3503 28.4244 19.3471 28.4242C19.344 28.4241 19.3436 28.4237 19.3466 28.4245L19.507 27.7709ZM19.0121 27.8485L18.6691 27.2696L18.4316 27.4103L18.7746 27.9892L19.1176 28.5682L19.3551 28.4274L19.0121 27.8485ZM18.7746 27.9892L18.4316 27.4103L18.194 27.551L18.5371 28.13L18.8801 28.7089L19.1176 28.5682L18.7746 27.9892ZM18.5371 28.13L18.194 27.551C18.1216 27.5939 18.0639 27.6082 18.0143 27.6106L18.0463 28.2827L18.0782 28.9549C18.3664 28.9412 18.6358 28.8537 18.8801 28.7089L18.5371 28.13ZM18.0463 28.2827L18.0143 27.6106L17.7611 27.6226L17.793 28.2948L17.8249 28.9669L18.0782 28.9549L18.0463 28.2827ZM17.793 28.2948L17.7611 27.6226L17.5078 27.6346L17.5397 28.3068L17.5716 28.979L17.8249 28.9669L17.793 28.2948ZM17.5397 28.3068L17.5078 27.6346C17.2668 27.6461 17.0323 27.6955 16.8068 27.7819L17.0475 28.4103L17.2882 29.0388C17.3813 29.0031 17.4749 28.9836 17.5716 28.979L17.5397 28.3068ZM17.0475 28.4103L16.8068 27.7819L16.5679 27.8734L16.8086 28.5018L17.0493 29.1302L17.2882 29.0388L17.0475 28.4103ZM16.8086 28.5018L16.5679 27.8734L16.329 27.9649L16.5697 28.5933L16.8104 29.2217L17.0493 29.1302L16.8086 28.5018ZM16.5697 28.5933L16.329 27.9649C16.2709 27.9872 16.2089 27.9965 16.134 27.9891L16.0676 28.6587L16.0013 29.3284C16.2773 29.3557 16.55 29.3215 16.8104 29.2217L16.5697 28.5933ZM16.0676 28.6587L16.134 27.9891L15.8708 27.963L15.8044 28.6327L15.7381 29.3023L16.0013 29.3284L16.0676 28.6587ZM15.8044 28.6327L15.8708 27.963L15.6076 27.9369L15.5412 28.6066L15.4749 29.2762L15.7381 29.3023L15.8044 28.6327ZM15.5412 28.6066L15.6076 27.9369C15.3535 27.9118 15.1012 27.9312 14.8552 27.9993L15.0348 28.6478L15.2143 29.2964C15.2927 29.2747 15.378 29.2666 15.4749 29.2762L15.5412 28.6066ZM15.0348 28.6478L14.8552 27.9993L14.612 28.0666L14.7915 28.7152L14.971 29.3637L15.2143 29.2964L15.0348 28.6478ZM14.7915 28.7152L14.612 28.0666L14.3687 28.134L14.5482 28.7825L14.7278 29.4311L14.971 29.3637L14.7915 28.7152ZM14.5482 28.7825L14.3687 28.134C14.2055 28.1791 14.0423 28.2247 13.8791 28.2707L14.0617 28.9184L14.2443 29.5661C14.4054 29.5207 14.5666 29.4757 14.7278 29.4311L14.5482 28.7825ZM14.0617 28.9184L13.8791 28.2707L13.6358 28.3393L13.8184 28.987L14.001 29.6347L14.2443 29.5661L14.0617 28.9184ZM13.8184 28.987L13.6358 28.3393L13.3925 28.4079L13.5751 29.0556L13.7577 29.7033L14.001 29.6347L13.8184 28.987ZM13.5751 29.0556L13.3925 28.4079C13.2021 28.4616 13.0156 28.5276 12.8334 28.6057L13.0987 29.2242L13.364 29.8426C13.4926 29.7875 13.6238 29.7411 13.7577 29.7033L13.5751 29.0556ZM13.0987 29.2242L12.8334 28.6057L12.6003 28.7057L12.8656 29.3242L13.1308 29.9426L13.364 29.8426L13.0987 29.2242ZM12.8656 29.3242L12.6003 28.7057L12.3672 28.8057L12.6324 29.4242L12.8977 30.0426L13.1308 29.9426L12.8656 29.3242ZM12.6324 29.4242L12.3672 28.8057C12.3396 28.8176 12.3006 28.827 12.2313 28.8159L12.1252 29.4804L12.0192 30.145C12.3153 30.1922 12.6145 30.1641 12.8977 30.0426L12.6324 29.4242ZM12.1252 29.4804L12.2313 28.8159L11.9572 28.7722L11.8512 29.4367L11.7451 30.1012L12.0192 30.145L12.1252 29.4804ZM11.8512 29.4367L11.9572 28.7722L11.6831 28.7284L11.5771 29.393L11.4711 30.0575L11.7451 30.1012L11.8512 29.4367ZM11.5771 29.393L11.6831 28.7284C11.302 28.6676 10.939 28.7729 10.6496 29.0283L11.0949 29.5329L11.5402 30.0374C11.5424 30.0355 11.5404 30.0376 11.5339 30.0413C11.5273 30.045 11.5181 30.0491 11.507 30.0524C11.4959 30.0556 11.4859 30.057 11.4784 30.0574C11.471 30.0578 11.4682 30.0571 11.4711 30.0575L11.5771 29.393ZM11.0949 29.5329L10.6496 29.0283L10.4416 29.212L10.8869 29.7165L11.3322 30.221L11.5402 30.0374L11.0949 29.5329ZM10.8869 29.7165L10.4416 29.212L10.2335 29.3956L10.6788 29.9001L11.1241 30.4047L11.3322 30.221L10.8869 29.7165ZM10.6788 29.9001L10.2335 29.3956C10.1985 29.4265 10.1822 29.4277 10.1695 29.4285L10.2119 30.1001L10.2543 30.7717C10.5868 30.7507 10.8817 30.6186 11.1241 30.4047L10.6788 29.9001ZM10.2119 30.1001L10.1695 29.4285L9.91061 29.4448L9.95302 30.1165L9.99543 30.7881L10.2543 30.7717L10.2119 30.1001ZM9.95302 30.1165L9.91061 29.4448L9.65173 29.4612L9.69414 30.1328L9.73656 30.8044L9.99543 30.7881L9.95302 30.1165ZM9.69414 30.1328L9.65173 29.4612C9.40398 29.4768 9.16424 29.5331 8.93586 29.63L9.19871 30.2495L9.46157 30.869C9.54859 30.8321 9.63914 30.8106 9.73656 30.8044L9.69414 30.1328ZM9.19871 30.2495L8.93586 29.63L8.69931 29.7304L8.96216 30.3499L9.22502 30.9694L9.46157 30.869L9.19871 30.2495ZM8.96216 30.3499L8.69931 29.7304L8.46275 29.8308L8.72561 30.4503L8.98846 31.0697L9.22502 30.9694L8.96216 30.3499ZM8.72561 30.4503L8.46275 29.8308C8.41937 29.8492 8.37027 29.8583 8.30173 29.8499L8.22044 30.518L8.13915 31.186C8.42876 31.2212 8.71645 31.1852 8.98846 31.0697L8.72561 30.4503ZM8.22044 30.518L8.30173 29.8499L8.03311 29.8173L7.95182 30.4853L7.87054 31.1533L8.13915 31.186L8.22044 30.518ZM7.95182 30.4853L8.03311 29.8173L7.7645 29.7846L7.68321 30.4526L7.60192 31.1206L7.87054 31.1533L7.95182 30.4853ZM7.68321 30.4526L7.7645 29.7846C7.41444 29.742 7.07791 29.8302 6.7947 30.0468L7.20343 30.5813L7.61216 31.1159C7.61553 31.1134 7.61611 31.1134 7.61387 31.1145C7.61154 31.1157 7.60787 31.1172 7.60338 31.1184C7.59891 31.1196 7.59563 31.1199 7.59435 31.12C7.5932 31.1201 7.59549 31.1198 7.60192 31.1206L7.68321 30.4526ZM7.20343 30.5813L6.7947 30.0468L6.58354 30.2082L6.99227 30.7428L7.401 31.2774L7.61216 31.1159L7.20343 30.5813ZM6.99227 30.7428L6.58354 30.2082L6.37237 30.3696L6.7811 30.9042L7.18983 31.4388L7.401 31.2774L6.99227 30.7428ZM6.7811 30.9042L6.37237 30.3696C6.33597 30.3975 6.30477 30.4216 6.28036 30.441C6.27615 30.4444 6.21977 30.4877 6.17563 30.5341C6.16674 30.5435 6.14502 30.5667 6.12109 30.599C6.1092 30.6151 6.08821 30.6449 6.06697 30.6851C6.05054 30.7162 6.00624 30.8039 5.99282 30.9269C5.97741 31.0683 6.00247 31.3159 6.21691 31.5049C6.39582 31.6626 6.59232 31.6726 6.6573 31.6731C6.79186 31.674 6.89351 31.6322 6.89961 31.6299C6.95038 31.6108 6.9887 31.5891 6.9939 31.5862C7.0076 31.5786 7.01909 31.5717 7.02631 31.5672C7.05252 31.5512 7.08335 31.5305 7.11041 31.5122L6.73252 30.9554L6.35462 30.3985C6.32749 30.4169 6.3197 30.4218 6.32286 30.4198C6.32432 30.4189 6.33103 30.4148 6.34091 30.4093C6.34229 30.4086 6.37777 30.3882 6.42667 30.3699C6.43184 30.3679 6.5328 30.3263 6.6669 30.3272C6.73167 30.3277 6.92801 30.3376 7.10681 30.4952C7.32114 30.6841 7.34617 30.9317 7.33077 31.0728C7.31738 31.1956 7.27315 31.2832 7.25686 31.314C7.23577 31.3539 7.21498 31.3834 7.20335 31.3991C7.17995 31.4308 7.159 31.4531 7.15111 31.4614C7.11508 31.4993 7.08236 31.5228 7.1174 31.4949C7.13223 31.4832 7.15585 31.4648 7.18983 31.4388L6.7811 30.9042ZM6.73252 30.9554L7.11041 31.5122L7.27299 31.4018L6.89509 30.845L6.5172 30.2882L6.35462 30.3985L6.73252 30.9554ZM6.89509 30.845L7.27299 31.4018L7.43556 31.2915L7.05767 30.7347L6.67978 30.1779L6.5172 30.2882L6.89509 30.845ZM7.05767 30.7347L7.43556 31.2915C7.42512 31.2986 7.44499 31.2802 7.53196 31.2726L7.4733 30.6022L7.41463 29.9318C7.1642 29.9537 6.90699 30.0237 6.67978 30.1779L7.05767 30.7347ZM7.4733 30.6022L7.53196 31.2726L7.78501 31.2504L7.72634 30.5801L7.66768 29.9097L7.41463 29.9318L7.4733 30.6022ZM7.72634 30.5801L7.78501 31.2504L8.03806 31.2283L7.97939 30.5579L7.92072 29.8875L7.66768 29.9097L7.72634 30.5801ZM7.97939 30.5579L8.03806 31.2283C8.21824 31.2125 8.39717 31.1922 8.57483 31.1673L8.48146 30.5009L8.3881 29.8344C8.23373 29.8561 8.07794 29.8738 7.92072 29.8875L7.97939 30.5579ZM8.48146 30.5009L8.57483 31.1673L8.82385 31.1324L8.73049 30.466L8.63712 29.7996L8.3881 29.8344L8.48146 30.5009ZM8.73049 30.466L8.82385 31.1324L9.07288 31.0975L8.97951 30.4311L8.88614 29.7647L8.63712 29.7996L8.73049 30.466ZM8.97951 30.4311L9.07288 31.0975C9.17177 31.0837 9.27745 31.0838 9.39215 31.1008L9.49084 30.4351L9.58954 29.7694C9.35449 29.7346 9.11927 29.732 8.88614 29.7647L8.97951 30.4311ZM9.49084 30.4351L9.39215 31.1008L9.65447 31.1397L9.75316 30.474L9.85185 29.8083L9.58954 29.7694L9.49084 30.4351ZM9.75316 30.474L9.65447 31.1397L9.91679 31.1785L10.0155 30.5129L10.1142 29.8472L9.85185 29.8083L9.75316 30.474ZM10.0155 30.5129L9.91679 31.1785C10.2106 31.2221 10.5025 31.1874 10.7781 31.0709L10.5162 30.451L10.2543 29.8312C10.212 29.849 10.1701 29.8555 10.1142 29.8472L10.0155 30.5129ZM10.5162 30.451L10.7781 31.0709L11.0165 30.9702L10.7546 30.3503L10.4927 29.7304L10.2543 29.8312L10.5162 30.451ZM10.7546 30.3503L11.0165 30.9702L11.2549 30.8694L10.993 30.2496L10.7311 29.6297L10.4927 29.7304L10.7546 30.3503ZM10.993 30.2496L11.2549 30.8694C11.3616 30.8244 11.4681 30.795 11.5756 30.7798L11.4813 30.1135L11.387 29.4472C11.1613 29.4791 10.9423 29.5405 10.7311 29.6297L10.993 30.2496ZM11.4813 30.1135L11.5756 30.7798L11.8255 30.7444L11.7312 30.0781L11.6369 29.4118L11.387 29.4472L11.4813 30.1135ZM11.7312 30.0781L11.8255 30.7444L12.0753 30.709L11.981 30.0427L11.8867 29.3764L11.6369 29.4118L11.7312 30.0781ZM11.981 30.0427L12.0753 30.709C12.1758 30.6948 12.2817 30.6947 12.3952 30.7112L12.4919 30.0452L12.5885 29.3793C12.3541 29.3453 12.1194 29.3435 11.8867 29.3764L11.981 30.0427ZM12.4919 30.0452L12.3952 30.7112L12.6562 30.7491L12.7528 30.0831L12.8494 29.4171L12.5885 29.3793L12.4919 30.0452ZM12.7528 30.0831L12.6562 30.7491L12.9171 30.7869L13.0138 30.121L13.1104 29.455L12.8494 29.4171L12.7528 30.0831ZM13.0138 30.121L12.9171 30.7869C13.2486 30.835 13.5685 30.7671 13.8523 30.598L13.5078 30.0199L13.1633 29.4418C13.1455 29.4525 13.1358 29.4547 13.1329 29.4553C13.1302 29.4559 13.124 29.457 13.1104 29.455L13.0138 30.121ZM13.5078 30.0199L13.8523 30.598L14.0854 30.4591L13.7409 29.881L13.3964 29.3029L13.1633 29.4418L13.5078 30.0199ZM13.7409 29.881L14.0854 30.4591L14.3184 30.3202L13.9739 29.7421L13.6294 29.1641L13.3964 29.3029L13.7409 29.881ZM13.9739 29.7421L14.3184 30.3202C14.3868 30.2794 14.4443 30.2642 14.4974 30.2613L14.4607 29.5894L14.424 28.9174C14.1389 28.933 13.8718 29.0196 13.6294 29.1641L13.9739 29.7421ZM14.4607 29.5894L14.4974 30.2613L14.7511 30.2475L14.7144 29.5755L14.6777 28.9036L14.424 28.9174L14.4607 29.5894ZM14.7144 29.5755L14.7511 30.2475L15.0048 30.2336L14.9681 29.5617L14.9315 28.8897L14.6777 28.9036L14.7144 29.5755ZM14.9681 29.5617L15.0048 30.2336C15.1723 30.2245 15.3403 30.2159 15.5087 30.2079L15.4769 29.5358L15.4451 28.8636C15.2734 28.8717 15.1022 28.8804 14.9315 28.8897L14.9681 29.5617ZM15.4769 29.5358L15.5087 30.2079L15.7637 30.1959L15.7319 29.5237L15.7001 28.8515L15.4451 28.8636L15.4769 29.5358ZM15.7319 29.5237L15.7637 30.1959L16.0187 30.1838L15.9869 29.5116L15.9551 28.8394L15.7001 28.8515L15.7319 29.5237ZM15.9869 29.5116L16.0187 30.1838C16.2714 30.1719 16.5155 30.1143 16.7474 30.0132L16.4783 29.3964L16.2092 28.7796C16.1258 28.816 16.0424 28.8353 15.9551 28.8394L15.9869 29.5116ZM16.4783 29.3964L16.7474 30.0132L16.9839 29.91L16.7147 29.2932L16.4456 28.6764L16.2092 28.7796L16.4783 29.3964ZM16.7147 29.2932L16.9839 29.91L17.2203 29.8068L16.9512 29.19L16.682 28.5733L16.4456 28.6764L16.7147 29.2932ZM16.9512 29.19L17.2203 29.8068C17.3407 29.7543 17.4619 29.7143 17.5844 29.6861L17.4335 29.0303L17.2826 28.3745C17.0772 28.4217 16.8769 28.4882 16.682 28.5733L16.9512 29.19ZM17.4335 29.0303L17.5844 29.6861L17.8303 29.6295L17.6794 28.9737L17.5285 28.3179L17.2826 28.3745L17.4335 29.0303ZM17.6794 28.9737L17.8303 29.6295L18.0762 29.5729L17.9253 28.9171L17.7744 28.2613L17.5285 28.3179L17.6794 28.9737ZM17.9253 28.9171L18.0762 29.5729C18.1573 29.5542 18.2467 29.5491 18.3488 29.5625L18.4365 28.8953L18.5242 28.2281C18.2726 28.1951 18.0212 28.2045 17.7744 28.2613L17.9253 28.9171ZM18.4365 28.8953L18.3488 29.5625L18.6142 29.5974L18.7019 28.9302L18.7896 28.263L18.5242 28.2281L18.4365 28.8953ZM18.7019 28.9302L18.6142 29.5974L18.8795 29.6323L18.9672 28.9651L19.0549 28.2979L18.7896 28.263L18.7019 28.9302ZM18.9672 28.9651L18.8795 29.6323C19.2396 29.6796 19.578 29.5823 19.8607 29.3689L19.4552 28.8318L19.0498 28.2948C19.0428 28.3 19.0391 28.3019 19.0388 28.302C19.0386 28.3021 19.0407 28.3011 19.0446 28.3C19.0486 28.2989 19.0524 28.2984 19.0553 28.2982C19.0582 28.298 19.0583 28.2983 19.0549 28.2979L18.9672 28.9651ZM19.4552 28.8318L19.8607 29.3689L20.0834 29.2008L19.6779 28.6637L19.2725 28.1266L19.0498 28.2948L19.4552 28.8318ZM19.6779 28.6637L20.0834 29.2008L20.3061 29.0327L19.9006 28.4956L19.4952 27.9585L19.2725 28.1266L19.6779 28.6637ZM19.9006 28.4956L20.3061 29.0327C20.3099 29.0298 20.3096 29.0305 20.3051 29.0327C20.3004 29.0349 20.2932 29.0377 20.2839 29.0398C20.2747 29.0419 20.2662 29.0427 20.2597 29.0427C20.2534 29.0427 20.2511 29.0419 20.2537 29.0425L20.3921 28.3839L20.5305 27.7254C20.1575 27.647 19.796 27.7314 19.4952 27.9585L19.9006 28.4956ZM20.3921 28.3839L20.2537 29.0425L20.5224 29.099L20.6608 28.4404L20.7992 27.7819L20.5305 27.7254L20.3921 28.3839ZM20.6608 28.4404L20.5224 29.099L20.7911 29.1554L20.9295 28.4969L21.0679 27.8383L20.7992 27.7819L20.6608 28.4404ZM20.9295 28.4969L20.7911 29.1554C21.0628 29.2125 21.3395 29.212 21.6115 29.1414L21.4425 28.49L21.2734 27.8386C21.2198 27.8525 21.1546 27.8565 21.0679 27.8383L20.9295 28.4969ZM21.4425 28.49L21.6115 29.1414L21.8557 29.078L21.6867 28.4266L21.5176 27.7753L21.2734 27.8386L21.4425 28.49ZM21.6867 28.4266L21.8557 29.078L22.0999 29.0146L21.9309 28.3632L21.7618 27.7119L21.5176 27.7753L21.6867 28.4266ZM21.9309 28.3632L22.0999 29.0146C22.3318 28.9544 22.5515 28.8585 22.7583 28.7319L22.4069 28.1579L22.0556 27.584C21.9533 27.6466 21.8556 27.6875 21.7618 27.7119L21.9309 28.3632ZM22.4069 28.1579L22.7583 28.7319L22.9901 28.59L22.6388 28.016L22.2874 27.4421L22.0556 27.584L22.4069 28.1579ZM22.6388 28.016L22.9901 28.59L23.2219 28.448L22.8706 27.8741L22.5193 27.3002L22.2874 27.4421L22.6388 28.016ZM22.8706 27.8741L23.2219 28.448C23.3039 28.3979 23.3784 28.3726 23.4487 28.3625L23.3536 27.6963L23.2585 27.0301C22.9939 27.0679 22.7464 27.1611 22.5193 27.3002L22.8706 27.8741ZM23.3536 27.6963L23.4487 28.3625L23.6999 28.3267L23.6048 27.6605L23.5097 26.9943L23.2585 27.0301L23.3536 27.6963ZM23.6048 27.6605L23.6999 28.3267L23.9511 28.2908L23.856 27.6246L23.7609 26.9584L23.5097 26.9943L23.6048 27.6605ZM23.856 27.6246L23.9511 28.2908C24.0287 28.2797 24.1141 28.2828 24.2118 28.3064L24.3699 27.6523L24.528 26.9982C24.2754 26.9371 24.0181 26.9217 23.7609 26.9584L23.856 27.6246ZM24.3699 27.6523L24.2118 28.3064L24.4746 28.3699L24.6327 27.7158L24.7907 27.0617L24.528 26.9982L24.3699 27.6523ZM24.6327 27.7158L24.4746 28.3699L24.7373 28.4334L24.8954 27.7793L25.0535 27.1252L24.7907 27.0617L24.6327 27.7158ZM24.8954 27.7793L24.7373 28.4334C25.0111 28.4995 25.2911 28.5031 25.5675 28.4345L25.4052 27.7814L25.2429 27.1283C25.1899 27.1415 25.13 27.1437 25.0535 27.1252L24.8954 27.7793ZM25.4052 27.7814L25.5675 28.4345L25.8145 28.3731L25.6522 27.72L25.4899 27.0669L25.2429 27.1283L25.4052 27.7814ZM25.6522 27.72L25.8145 28.3731L26.0615 28.3117L25.8992 27.6586L25.7369 27.0055L25.4899 27.0669L25.6522 27.72ZM25.8992 27.6586L26.0615 28.3117C26.1903 28.2797 26.3198 28.2587 26.4502 28.2485L26.3979 27.5776L26.3456 26.9067C26.1404 26.9227 25.9374 26.9557 25.7369 27.0055L25.8992 27.6586ZM26.3979 27.5776L26.4502 28.2485L26.7019 28.2289L26.6496 27.558L26.5973 26.8871L26.3456 26.9067L26.3979 27.5776ZM26.6496 27.558L26.7019 28.2289L26.9536 28.2093L26.9013 27.5384L26.8491 26.8675L26.5973 26.8871L26.6496 27.558ZM26.9013 27.5384L26.9536 28.2093C27.0939 28.1983 27.2344 28.1961 27.3752 28.2024L27.4056 27.5302L27.436 26.8579C27.2401 26.8491 27.0444 26.8522 26.8491 26.8675L26.9013 27.5384ZM27.4056 27.5302L27.3752 28.2024L27.6277 28.2139L27.6581 27.5416L27.6886 26.8694L27.436 26.8579L27.4056 27.5302ZM27.6581 27.5416L27.6277 28.2139L27.8803 28.2253L27.9107 27.553L27.9411 26.8808L27.6886 26.8694L27.6581 27.5416ZM27.9107 27.553L27.8803 28.2253C28.0763 28.2342 28.3367 28.1937 28.5554 27.9979C28.7703 27.8054 28.8401 27.5562 28.8582 27.3691L28.1884 27.3043L27.5186 27.2395C27.5199 27.2259 27.5351 27.1048 27.6574 26.9953C27.7835 26.8824 27.9135 26.8795 27.9411 26.8808L27.9107 27.553ZM28.1884 27.3043L28.8582 27.3691L28.8834 27.109L28.2136 27.0442L27.5438 26.9793L27.5186 27.2395L28.1884 27.3043ZM28.2136 27.0442L28.8834 27.109L28.9086 26.8488L28.2388 26.784L27.569 26.7192L27.5438 26.9793L28.2136 27.0442ZM28.2388 26.784L28.9086 26.8488C28.9175 26.7562 28.9241 26.6698 28.9259 26.5968C28.9268 26.5613 28.927 26.516 28.9233 26.4686C28.922 26.4512 28.9154 26.3218 28.8478 26.187L28.2462 26.4883L27.6445 26.7897C27.6241 26.749 27.6118 26.7137 27.6045 26.6898C27.597 26.6651 27.5923 26.6443 27.5895 26.6296C27.5839 26.6013 27.5821 26.5802 27.5814 26.5717C27.5801 26.5548 27.5808 26.5494 27.5805 26.5632C27.5798 26.5888 27.5768 26.6383 27.569 26.7192L28.2388 26.784ZM28.2462 26.4883L28.8478 26.187L28.8301 26.1515L28.2284 26.4529L27.6267 26.7542L27.6445 26.7897L28.2462 26.4883ZM28.2284 26.4529L28.8301 26.1515L28.8123 26.116L28.2106 26.4174L27.6089 26.7188L27.6267 26.7542L28.2284 26.4529ZM28.2106 26.4174L28.8123 26.116C28.6291 25.7502 28.2603 25.7366 28.2036 25.7353C28.0995 25.7329 28.0127 25.7534 27.9719 25.7638C27.8785 25.7877 27.7803 25.8264 27.6946 25.863L27.959 26.4818L28.2235 27.1006C28.2937 27.0706 28.3153 27.0652 28.3057 27.0676C28.301 27.0689 28.2883 27.0719 28.2698 27.0748C28.2529 27.0774 28.2184 27.0819 28.1728 27.0809C28.1319 27.0799 28.0459 27.074 27.9451 27.0322C27.8338 26.9861 27.695 26.8906 27.6089 26.7188L28.2106 26.4174ZM27.959 26.4818L27.6946 25.863L27.4608 25.9629L27.7253 26.5817L27.9897 27.2005L28.2235 27.1006L27.959 26.4818Z" fill="#DCDCDC"/>
</svg>
