<svg width="81" height="66" viewBox="0 0 81 66" fill="none" xmlns="http://www.w3.org/2000/svg">
<path d="M54.7346 27.6057H51.1162V24.373H52.7326V22.7566H51.1162V19.5239H54.7346V21.1403H56.3509V22.7566H57.9673V24.373H56.3509V25.9894H54.7346V27.6057Z" fill="#DCDCDC"/>
<path d="M63.4107 17.908V14.6753H61.7943H60.178V16.2917H58.5616V17.908H56.9452V19.5244H55.3289V21.1407H53.7125V22.7571H52.0962V24.3735H53.7125V25.9898H55.3289V27.6062H56.9452V29.2225H58.5616V30.8389H60.178V32.4553H61.7943H63.4111L63.4107 29.2225V17.908Z" fill="#DCDCDC"/>
<path d="M68.2402 17.6851V18.7046H67.2207V20.7427H66.2061V21.7622H65.1875V25.3667H66.2061V26.3862H67.2207V28.4243H68.2402V29.4438H69.8057V27.8784H68.7861V26.8589H67.7725V24.8198H66.7529V23.8013H65.7334V23.3276H66.7529V22.3091H67.7725V20.27H68.7861V19.2505H69.8057V17.6851H68.2402Z" fill="#DCDCDC" stroke="#DCDCDC" stroke-width="0.546356"/>
<path d="M73.8916 16.5093V17.7329H72.668V20.1792H71.4512V21.4019H70.2285V25.7271H71.4512V26.9507H72.668V29.397H73.8916V30.6196H75.7705V28.7407H74.5469V27.5181H73.3301V25.0718H72.1074V23.8481H70.8838V23.2808H72.1074V22.0581H73.3301V19.6118H74.5469V18.3882H75.7705V16.5093H73.8916Z" fill="#DCDCDC" stroke="#DCDCDC" stroke-width="0.655627"/>
<path d="M62.5537 53.7691C62.6781 53.9003 62.8092 54.0095 62.9453 54.0991L63.4541 54.4341C63.6491 54.5625 63.8316 54.7088 64.001 54.8716L64.4443 55.2983C64.6363 55.4828 64.791 55.698 64.9072 55.9409L65.1816 56.5161C65.302 56.7676 65.3688 57.0334 65.377 57.3101L65.3945 57.9282C65.4031 58.2232 65.3344 58.5045 65.1904 58.7622L64.8867 59.3042C64.8545 59.3619 64.8191 59.4172 64.7822 59.4712L64.3623 59.1704C64.0921 58.9754 63.9718 58.8443 63.9316 58.7857L63.7529 58.523L63.5732 58.2661C63.3835 57.9894 63.1362 57.7594 62.8438 57.5942L62.2939 57.2866C62.1775 57.2207 62.0738 57.1386 61.9795 57.0435L61.5313 56.5952C61.5187 56.5825 61.5094 56.5681 61.499 56.5571L61.5313 56.2622L61.25 55.9868L61.166 55.9038C60.8438 55.5879 60.3251 55.5895 60.0078 55.9097C59.7763 56.1456 59.7236 56.485 59.834 56.7749L59.8281 56.7935L59.8731 56.9536L59.9111 57.0689C59.9645 57.2455 60.0584 57.3889 60.1221 57.4732C60.1943 57.5685 60.2839 57.6595 60.3721 57.7485L60.5898 57.9722L60.8135 58.1958C61.0147 58.3989 61.2432 58.5748 61.4922 58.7153L61.7617 58.8687L62.0371 59.022C62.1104 59.0633 62.1734 59.1172 62.2227 59.189L62.5811 59.7134C62.7799 60.0031 63.0792 60.2651 63.4072 60.5015L63.5732 60.6216C63.5515 60.6437 63.5293 60.6654 63.5078 60.688L63.1689 61.0435L62.7783 60.7525C62.5076 60.5503 62.3774 60.4159 62.3291 60.3491L62.1445 60.0933L61.9648 59.8433C61.7931 59.6046 61.587 59.396 61.3496 59.2222L61.0947 59.0366L60.8447 58.8501C60.7057 58.7483 60.5772 58.6465 60.4658 58.5376L60.2549 58.3325L60.1143 58.1919L60.1904 57.9868L59.832 57.6284L59.749 57.5376C59.4314 57.2168 58.912 57.215 58.5898 57.5317C58.398 57.7216 58.3364 57.9807 58.3721 58.229L58.3594 58.2681L58.418 58.5044L58.4434 58.6011C58.4935 58.8047 58.6037 58.9568 58.6602 59.0298C58.7305 59.1207 58.8137 59.2104 58.8975 59.2925L59.1094 59.5044L59.3203 59.7095C59.4905 59.8758 59.68 60.0323 59.8779 60.1773L60.1279 60.3618L60.3828 60.5474C60.4812 60.6198 60.563 60.7073 60.6328 60.8042L60.8193 61.0532L60.9981 61.3032C61.1769 61.5518 61.4351 61.7903 61.7246 62.0132C61.5288 62.0992 61.3233 62.1535 61.1094 62.1714L60.4922 62.2232C60.3204 62.2376 60.1527 62.2683 59.9902 62.3169L59.4043 62.4927C59.1004 62.5835 58.7914 62.5676 58.4981 62.4478L57.9268 62.2144C57.6941 62.1192 57.4832 61.9952 57.3008 61.8384L56.8887 61.4839C56.7311 61.3484 56.5772 61.1926 56.4258 61.0191L56.1943 60.7554C56.2663 60.6963 56.3306 60.6253 56.3809 60.5405L56.4453 60.437L56.4707 60.3931L56.4902 60.3413L56.541 60.2066L56.5469 60.2134L56.6113 60.0786C56.6761 59.9466 56.7464 59.7737 56.8164 59.5796L56.9189 59.2983L57.0215 59.0103C57.1026 58.785 57.1633 58.551 57.2129 58.312L57.3418 57.6968C57.3545 57.6361 57.3735 57.5793 57.3975 57.5259C57.5207 57.4654 57.6306 57.3741 57.7129 57.2525C57.8017 57.1209 57.8457 56.9728 57.8506 56.8247C57.888 56.7793 57.9296 56.7375 57.9814 56.7036L58.2441 56.5376L58.501 56.3648C58.742 56.2069 58.9556 56.016 59.1406 55.7944L59.3457 55.5523L59.5449 55.3081C59.6877 55.1368 59.8281 54.9604 59.9609 54.7827L60.332 54.2837L60.3379 54.2769C60.3404 54.2758 60.3492 54.2732 60.3584 54.271L60.6709 54.2007L60.9922 54.1304C61.3175 54.0559 61.668 53.8948 62.0166 53.6948L62.3164 53.5181L62.5537 53.7691ZM36.9668 0.0131923C37.232 -0.0471935 37.4088 0.114782 37.4707 0.194833C37.5265 0.267215 37.5494 0.338485 37.5566 0.361825L37.5762 0.443856L37.6094 0.635263C37.6297 0.753613 37.6296 0.891523 37.6231 1.02491L37.6045 1.396C37.6019 1.45085 37.6096 1.50743 37.6318 1.56788L37.7656 1.92921C37.8178 2.07095 37.8599 2.21473 37.8906 2.35987L37.9678 2.72413C38.0009 2.88066 38.016 3.0393 38.0137 3.19874L38.0088 3.5669C38.0073 3.67245 38.0112 3.77872 38.0205 3.88429L38.0527 4.25245C38.0628 4.36611 38.0757 4.47997 38.0918 4.59327L38.1445 4.96046C38.1635 5.09359 38.1779 5.22758 38.1875 5.36183L38.2139 5.73194C38.2266 5.91089 38.2086 6.08857 38.1621 6.26222L38.0635 6.63038C38.0487 6.68609 38.0461 6.73861 38.0547 6.79151L38.1162 7.16163C38.1421 7.31905 38.1509 7.47767 38.1426 7.63624L38.1231 8.00538C38.117 8.12005 38.1136 8.2354 38.1133 8.35011L38.1123 8.71925C38.1119 8.85529 38.106 8.99183 38.0947 9.12745L38.0645 9.49561C38.0522 9.64365 38.0283 9.79075 37.9932 9.93604L37.9053 10.3003C37.8986 10.3282 37.8975 10.3627 37.9131 10.4126L38.0332 10.7974C38.1167 11.0651 38.0788 11.3358 37.9316 11.5708L37.7139 11.9185C37.6854 11.9639 37.6798 11.9954 37.6797 12.0191L37.6787 12.3921C37.6785 12.4807 37.6879 12.57 37.707 12.6587L37.7861 13.0278C37.8145 13.1591 37.8399 13.2913 37.8613 13.4233L37.9209 13.7944C37.9462 13.9507 37.9561 14.1079 37.9492 14.2651L37.9326 14.6353C37.9264 14.7764 37.913 14.9184 37.8916 15.0601L37.835 15.4351C37.8054 15.6302 37.7351 15.813 37.6309 15.98L37.418 16.3208C37.4013 16.3477 37.4025 16.3582 37.4033 16.3657L37.4434 16.7398C37.4602 16.8986 37.4603 17.0581 37.4434 17.2163L37.4033 17.5855C37.3952 17.6617 37.3982 17.7385 37.4121 17.815L37.4785 18.1821C37.5053 18.3299 37.5213 18.479 37.5244 18.6284L37.5322 18.9985C37.5335 19.0585 37.5452 19.1191 37.5713 19.1821L37.7178 19.5357C37.8119 19.763 37.8193 20.0024 37.751 20.2329L37.6367 20.6177C37.6291 20.6435 37.632 20.6538 37.6367 20.6655L37.7813 21.023C37.8735 21.2509 37.8818 21.4943 37.7988 21.729L37.6729 22.0855C37.6272 22.2146 37.5771 22.3411 37.5234 22.4644L37.377 22.8032C37.3488 22.8682 37.3296 22.9389 37.3213 23.0171L37.2813 23.397C37.2616 23.5818 37.2085 23.7617 37.1123 23.9253L36.958 24.186C36.9592 24.194 36.9611 24.207 36.9658 24.2251C36.9762 24.2649 36.9924 24.3108 37.0176 24.3794L37.0977 24.6148L37.0986 24.6167H37.0977C37.126 24.718 37.1786 24.7903 37.2676 24.8491L37.8301 25.2202C38.1305 25.4186 38.3225 25.7101 38.374 26.0698L38.4668 26.7153C38.4948 26.9108 38.5333 27.0997 38.583 27.2808L38.75 27.8872C38.8343 28.1947 38.8144 28.505 38.6953 28.8003L38.457 29.3921C38.4285 29.4631 38.4325 29.5079 38.46 29.563L38.7363 30.1187C38.8368 30.3206 38.9243 30.5263 38.999 30.7349L39.2031 31.3052C39.2409 31.4105 39.2863 31.5128 39.335 31.6138C39.271 31.6804 39.2177 31.7592 39.1777 31.8482V31.854L38.8828 32.3286C38.7046 32.6146 38.5791 32.7573 38.5117 32.815L38.2676 33.0259L38.0254 33.231C37.7263 33.485 37.5233 33.819 37.4414 34.2046L37.3145 34.8189C37.2684 35.0356 37.2282 35.2534 37.1924 35.4653L37.0898 36.0679C37.0674 36.2009 37.0263 36.3335 36.9688 36.4653L36.8467 36.7534L36.7188 37.0415C36.6126 37.2853 36.5332 37.5371 36.4824 37.7964L36.4248 38.105L36.3662 38.4048C36.3141 38.6731 36.2919 38.9451 36.3086 39.2183L36.3281 39.5259L36.3477 39.8403C36.3597 40.0349 36.3679 40.2225 36.3731 40.4028L36.3857 40.6978L36.3916 40.9858C36.3998 41.2641 36.4512 41.5427 36.5391 41.812L36.6416 42.1196L36.7373 42.4204C36.8903 42.8886 37.2393 43.2186 37.6914 43.3618L38.0186 43.4575L38.3379 43.5601C38.4572 43.5976 38.5399 43.6494 38.6006 43.7017L39.0625 44.0972C39.2858 44.2898 39.5377 44.4468 39.8115 44.5591L40.1064 44.6743L40.4004 44.7964C40.4605 44.8214 40.5085 44.8593 40.5547 44.9175L40.7598 45.1733L40.957 45.4243C41.1729 45.6989 41.4446 45.9161 41.7705 46.0513L42.0586 46.1655L42.3418 46.2876C42.5319 46.3664 42.7271 46.4462 42.917 46.5249L43.1992 46.6401L43.4873 46.7622C43.6796 46.8419 43.8791 46.9198 44.0772 46.9995L44.3711 47.1206L44.665 47.2358C44.6732 47.2393 44.6754 47.246 44.6777 47.2485C44.6816 47.2522 44.6965 47.2615 44.7109 47.2876L44.8701 47.5884L45.0371 47.8823C45.2697 48.3046 45.659 48.5755 46.1387 48.6441L46.4707 48.6958L46.8106 48.7407C46.9116 48.7553 46.9731 48.7869 47.0156 48.8179L47.2656 48.9976L47.5098 49.1821C47.8052 49.3996 48.1488 49.518 48.5137 49.5347L49.1289 49.561C49.185 49.5637 49.2464 49.5848 49.3213 49.6314L49.6025 49.8032L49.8779 49.9771C50.2766 50.2247 50.7319 50.2654 51.166 50.1304L51.8184 49.9253C51.8949 49.9015 51.9379 49.9112 51.9658 49.9194L52.2676 50.0083L52.5674 50.105C52.7964 50.1746 53.0284 50.2289 53.2598 50.271L53.5596 50.3228L53.8613 50.3804C54.0999 50.4237 54.3433 50.4495 54.585 50.4575L54.8867 50.4702L55.1865 50.4761C55.3335 50.481 55.4918 50.5038 55.6543 50.5405L56.2822 50.6812C56.5273 50.7366 56.9455 50.7892 57.3242 50.563C57.4803 50.6943 57.6312 50.8303 57.7754 50.9722L58.2129 51.4028C58.2981 51.4866 58.4042 51.5503 58.54 51.5913L59.1621 51.7788C59.4262 51.8584 59.6677 51.9818 59.8799 52.1509L60.3613 52.5347C60.3811 52.5505 60.4019 52.5646 60.4229 52.5786L60.3125 52.606L60 52.6763C59.6074 52.7655 59.2638 52.9763 59.0186 53.3042L58.6768 53.7632L58.5674 53.7075C58.2916 53.5655 58.1567 53.4554 58.0996 53.3989L58.1699 53.3931L57.9658 53.2651L57.8633 53.1499L57.6523 52.9067C57.4041 52.6321 57.0864 52.4419 56.7227 52.3491L56.4229 52.273L56.3975 52.2661L56.1846 52.1314L56.083 52.0679C55.8207 51.9015 55.5048 51.9145 55.251 52.0552L54.917 52.0864L54.8213 52.7075L54.8154 52.7466C54.7687 53.0446 54.8931 53.2712 54.9756 53.3804C55.0531 53.482 55.137 53.5438 55.1797 53.5728C55.2673 53.6318 55.3554 53.6706 55.3975 53.687C55.4942 53.7246 55.6109 53.7562 55.7188 53.7837L56.3193 53.937C56.3574 53.9468 56.3948 53.9633 56.4356 54.0083L56.6465 54.2515L56.8643 54.4878C57.048 54.6911 57.2914 54.8679 57.5576 55.0239L57.3418 55.1675L57.085 55.3335C56.9592 55.4159 56.8439 55.5106 56.7383 55.6148C56.5679 55.4912 56.4719 55.4 56.4268 55.3452L56.2217 55.0952L56.0225 54.8521C55.775 54.551 55.4473 54.3448 55.0684 54.2505L54.7617 54.1733L54.4473 54.0903L54.3516 54.064L54.3125 54.0122L54.2295 53.9107L54.1201 53.8335L54.0244 53.77C53.6499 53.5171 53.1386 53.6141 52.8848 53.9878C52.6945 54.2696 52.703 54.6291 52.8779 54.897L53.1035 55.1275L53.1406 55.1782L53.1797 55.2173L53.2754 55.3062C53.4141 55.4404 53.5721 55.5187 53.6787 55.563C53.7965 55.6119 53.9232 55.6535 54.0498 55.6851L54.3643 55.7612L54.6709 55.8384C54.7065 55.8472 54.7289 55.8598 54.7539 55.8901L55.1641 56.3892C55.3414 56.6044 55.5815 56.803 55.8496 56.9907C55.8049 57.1117 55.7679 57.236 55.7412 57.3638L55.6123 57.979C55.5776 58.1464 55.5329 58.3086 55.4785 58.4595L55.2734 59.023C55.2126 59.1918 55.1672 59.2925 55.1426 59.3442C55.1242 59.3317 55.1048 59.3194 55.084 59.3081L54.5654 59.0278C54.4218 58.95 54.2733 58.8875 54.1201 58.8413L53.5635 58.6733C53.2518 58.5793 53.0091 58.3789 52.8496 58.0991L52.5498 57.5718C52.4738 57.4384 52.3781 57.3161 52.2617 57.2046L51.8125 56.7739C51.6706 56.6379 51.5254 56.5081 51.3779 56.3843L50.9102 55.9917C50.7486 55.8561 50.5892 55.7164 50.4326 55.5728L49.9795 55.1558C49.8162 55.006 49.6603 54.8486 49.5127 54.6831L49.1016 54.2222C49.0235 54.1348 48.9231 54.0665 48.7891 54.0191L48.1689 53.7993C47.9408 53.7186 47.7241 53.6237 47.5195 53.5151L46.9736 53.2261C46.7475 53.106 46.5427 52.9533 46.3604 52.77L45.915 52.3218C45.7652 52.1711 45.6179 52.0212 45.4736 51.8726L45.0449 51.4312C44.9057 51.2877 44.7641 51.1458 44.6201 51.0064L44.1777 50.5776C44.0321 50.4365 43.8847 50.2968 43.7373 50.1587L43.542 49.9751L43.5732 50.1148C43.6302 50.3706 43.6455 50.6289 43.6191 50.8872L43.5566 51.5015C43.5357 51.7063 43.5143 51.9112 43.4932 52.1148L43.4297 52.7251C43.4093 52.9214 43.3929 53.1187 43.3809 53.3159L43.3438 53.9292C43.33 54.1536 43.3019 54.3784 43.2607 54.6021L43.1484 55.2153C43.098 55.4887 42.9786 55.7728 42.7217 55.9585L42.3721 56.2105C42.292 56.2682 42.1865 56.3204 42.0586 56.3364C41.9265 56.3528 41.8014 56.3269 41.6953 56.2749C41.504 56.1811 41.387 56.0123 41.3164 55.8872L40.9863 55.3013C40.9092 55.1645 40.819 55.0669 40.7188 54.9976L40.2168 54.6509C40.049 54.5348 39.8837 54.4203 39.7227 54.3081L39.2412 53.9722C39.0052 53.8078 38.8465 53.5815 38.7656 53.315L38.7354 53.1987L38.6074 52.5903C38.5595 52.3637 38.5287 52.1349 38.5156 51.9048L38.4805 51.2886C38.469 51.0859 38.4558 50.883 38.4414 50.6812L38.3975 50.0679C38.3816 49.8451 38.3785 49.6092 38.3857 49.3618L38.3916 49.1323L38.2461 49.2056C38.04 49.3082 37.8219 49.3655 37.5977 49.3706L37.5967 49.3726C37.5249 49.4451 37.4346 49.5452 37.3408 49.6538C37.1474 49.8778 36.9739 50.0985 36.9356 50.1558L36.5967 50.6616C36.5073 50.7952 36.4336 50.9416 36.377 51.1011L36.168 51.6919C36.066 51.9791 35.8894 52.2204 35.6445 52.4019L35.1494 52.7681C34.8835 52.965 34.5666 53.0514 34.2305 52.9761L33.6875 52.854C33.4196 52.7939 33.181 52.6667 32.9814 52.478L32.5742 52.0933C32.3959 51.9246 32.2483 51.7238 32.1279 51.4985L31.833 50.9468C31.6788 50.6582 31.637 50.343 31.7051 50.0239L31.8389 49.3989C31.8684 49.2607 31.8794 49.025 31.8496 48.6685L31.8027 48.1079L31.8008 48.0913V48.0562C31.8006 48.0445 31.8002 48.0269 31.7998 48.0054C31.7991 47.9616 31.7981 47.8989 31.7969 47.8237C31.7944 47.6726 31.7913 47.4696 31.7881 47.2642C31.7836 46.9782 31.7787 46.6805 31.7764 46.5112C31.7426 46.4677 31.6987 46.4138 31.6494 46.3569C31.5922 46.2909 31.5344 46.2264 31.4902 46.1782L31.4375 46.1206C31.2225 45.9561 31.0522 45.7509 30.9365 45.5044L30.6709 44.938C30.5827 44.75 30.4945 44.5637 30.4072 44.3804L30.1436 43.8267C30.0742 43.6812 29.9843 43.5421 29.8731 43.4087L29.4639 42.9175C29.2695 42.6845 29.1471 42.413 29.1035 42.1128L29.0127 41.4829C28.9835 41.2817 28.9493 41.0851 28.9111 40.8941L28.792 40.2935C28.7427 40.0468 28.729 39.7967 28.752 39.5454L28.8086 38.9312C28.8194 38.8132 28.8009 38.6923 28.7451 38.563L28.4863 37.9634C28.3761 37.7079 28.3158 37.4411 28.3115 37.1675L28.3027 36.5503C28.2992 36.3241 28.3097 36.0972 28.335 35.8706L28.4043 35.2505C28.426 35.0567 28.4399 34.8629 28.4463 34.6704L28.4668 34.0542C28.473 33.8691 28.4679 33.6864 28.4512 33.5073L28.4004 32.9732L28.1689 32.3667L28.1348 32.2769L28.1367 32.1802L28.1504 31.6235C28.1595 31.2366 28.195 30.8992 28.2695 30.6333L28.4443 30.0093C28.463 29.9429 28.4547 29.9116 28.4229 29.8687L28.0469 29.3618C27.9396 29.2172 27.82 29.0852 27.6895 28.9644L27.2295 28.5386C27.0141 28.3393 26.8585 28.096 26.7656 27.8169L26.5645 27.2095C26.4916 26.9904 26.432 26.7718 26.3867 26.5542L26.3135 26.2046L25.2617 25.7339C25.1061 25.6769 24.9466 25.6372 24.7822 25.6157L24.1719 25.5357C23.9998 25.5132 23.8254 25.5075 23.6494 25.5181L23.0293 25.5552C22.727 25.5734 22.4368 25.5062 22.1689 25.3628L21.5938 25.0542C21.4296 24.9663 21.2719 24.9031 21.1221 24.8608L20.5586 24.7017C20.4433 24.6693 20.3064 24.6589 20.1426 24.6802L19.4805 24.7661C19.2211 24.7998 18.9639 24.8013 18.7109 24.77L18.0801 24.6919C17.7556 24.6517 17.4723 24.5067 17.2402 24.2778L16.7598 23.8052C16.706 23.7521 16.6548 23.7306 16.5645 23.7388L15.875 23.8013C15.5327 23.832 15.2082 23.7482 14.9316 23.5386L14.416 23.148C14.3092 23.067 14.2016 23.0239 14.0879 23.0093L13.4766 22.9312C13.2957 22.9081 13.111 22.8975 12.9229 22.8989L12.293 22.9038C12.0141 22.9059 11.7446 22.8505 11.4902 22.7378L10.9209 22.4849C10.7273 22.3991 10.5354 22.3114 10.3457 22.2212L9.78809 21.9556C9.68224 21.9053 9.56436 21.8813 9.42578 21.8901L8.77344 21.9321C8.46489 21.9517 8.1693 21.887 7.89942 21.7368L7.34375 21.4282C7.20234 21.3496 7.05751 21.2967 6.90918 21.2681L6.30567 21.1519C6.14636 21.1211 5.98289 21.1108 5.81543 21.1216L5.19043 21.1616C4.89305 21.1807 4.60563 21.1206 4.33789 20.9878L3.75977 20.7007C3.60525 20.6241 3.45102 20.5728 3.29688 20.5435L2.93457 20.4732C2.7661 20.4664 2.60184 20.4343 2.44239 20.3775C2.31777 20.3511 2.19278 20.3228 2.06836 20.2925L1.46778 20.146C1.32574 20.1114 1.23619 20.1188 1.1836 20.1333L0.72266 20.2603C0.684369 20.2709 0.64641 20.2812 0.618168 20.2876C0.610632 20.2893 0.599717 20.2913 0.587894 20.2935C0.581656 20.2946 0.549106 20.301 0.509769 20.3023C0.502153 20.3026 0.422384 20.3075 0.331058 20.2759C0.285784 20.2602 0.152105 20.2067 0.0654334 20.0562C-0.0385459 19.8754 0.00217767 19.6974 0.0459021 19.603C0.0838133 19.5215 0.13533 19.4706 0.154301 19.4526C0.178116 19.4301 0.199764 19.4142 0.211918 19.4058C0.235636 19.3893 0.25659 19.3783 0.265629 19.3735C0.309095 19.3507 0.364938 19.3304 0.380863 19.3247C0.41372 19.3129 0.457758 19.2984 0.509769 19.2808L1.12305 19.0728C1.4515 18.9617 1.78618 18.9848 2.09766 19.1343L2.69141 19.4194C2.69905 19.4231 2.70731 19.4259 2.71485 19.4292C2.7692 19.4404 2.82358 19.4521 2.87793 19.4624L3.03516 19.4917C3.04023 19.4914 3.04567 19.492 3.05078 19.4917L3.67578 19.4448C3.93948 19.4251 4.20084 19.4501 4.45703 19.5191L5.06739 19.6841C5.15761 19.7084 5.25179 19.7046 5.36621 19.6567L5.99024 19.396C6.3334 19.2523 6.69032 19.2677 7.01953 19.4409L7.61817 19.7554C7.74308 19.8211 7.85324 19.8416 7.95703 19.8335L8.57325 19.7857C8.7997 19.7678 9.02665 19.7642 9.25293 19.7759L9.86817 19.8081C10.0737 19.8187 10.2792 19.8297 10.4844 19.8413L11.0986 19.8755C11.3666 19.8906 11.6259 19.9566 11.874 20.0689L12.4609 20.3345C12.5892 20.3926 12.7154 20.4166 12.8438 20.4116L13.4668 20.3872C13.726 20.377 13.981 20.4079 14.2295 20.479L14.8232 20.6489C14.9371 20.6815 15.0643 20.6869 15.2119 20.6558L15.8701 20.5161C16.2095 20.4443 16.5429 20.4991 16.8379 20.687L17.3818 21.0337C17.5225 21.1233 17.6682 21.1873 17.8193 21.228L18.4229 21.3901C18.5788 21.4322 18.7367 21.452 18.8975 21.4487L19.5205 21.436C19.765 21.431 20.0066 21.4533 20.2441 21.5034L20.8457 21.6304C21.076 21.679 21.3021 21.7487 21.5225 21.8394L22.1016 22.0776C22.247 22.1375 22.3969 22.1729 22.5508 22.1841L23.1699 22.229C23.3422 22.2415 23.5164 22.2365 23.6924 22.2134L24.3193 22.1304C24.6034 22.093 24.8846 22.121 25.1563 22.2134L25.7588 22.4185C25.8606 22.4531 26.0642 22.4761 26.4111 22.4419L26.9697 22.3872L27.1494 22.3696L27.2979 22.4722L27.3809 22.5288L27.751 22.4302C27.8732 22.3973 27.9971 22.3344 28.1211 22.2319L28.6397 21.8032C28.8974 21.5903 29.2027 21.4764 29.5391 21.4819L29.6455 21.4829C29.6314 21.2846 29.6417 21.0839 29.7041 20.9019L29.8281 20.5405C29.8425 20.4988 29.8453 20.4603 29.8379 20.4185L29.7705 20.0444C29.7409 19.8792 29.7321 19.7112 29.7441 19.5435L29.7725 19.1616C29.7864 18.9698 29.8372 18.7858 29.9258 18.6148L30.0977 18.2827C30.1281 18.2239 30.1465 18.164 30.1543 18.1011L30.1992 17.7349C30.2099 17.6484 30.2114 17.5603 30.2031 17.4712L30.1689 17.0991C30.154 16.938 30.1574 16.7767 30.1797 16.6167L30.2314 16.2495C30.2535 16.092 30.2926 15.9364 30.3477 15.7847L30.4785 15.4224C30.4814 15.4145 30.4823 15.4098 30.4824 15.4077C30.4824 15.4055 30.4819 15.3976 30.4766 15.3823L30.3418 15.0015C30.2642 14.7813 30.255 14.5477 30.3281 14.3189L30.4424 13.9605C30.4641 13.8925 30.4743 13.8253 30.4727 13.7583L30.4629 13.3882C30.4579 13.1895 30.4977 12.9969 30.5772 12.8159L30.7334 12.4614C30.7594 12.4021 30.771 12.3471 30.7715 12.2935L30.7744 11.9224C30.7755 11.791 30.7795 11.6592 30.7871 11.5278L30.8086 11.1567C30.8154 11.0388 30.8202 10.9198 30.8232 10.8003L30.833 10.4253C30.839 10.1892 30.9208 9.97428 31.0586 9.79151L31.293 9.47999L31.2197 9.10011C31.1752 8.87226 31.198 8.64094 31.3008 8.4253L31.4639 8.08448C31.4849 8.04035 31.4924 7.9986 31.4912 7.9546L31.4805 7.5835C31.4744 7.37249 31.5239 7.16967 31.6182 6.9839L31.791 6.64308L31.6553 6.26124C31.5777 6.04217 31.5652 5.8087 31.6357 5.57862L31.7461 5.21827C31.7818 5.10187 31.8163 4.98548 31.8486 4.87061L31.9492 4.51417C31.9785 4.41009 32.0031 4.30461 32.0225 4.19874L32.0889 3.83546C32.1219 3.65503 32.1871 3.4842 32.2803 3.32569L32.4766 2.99073C32.4956 2.9583 32.502 2.93158 32.501 2.90089L32.4873 2.521C32.4815 2.35711 32.4943 2.19421 32.5264 2.03468L32.5996 1.67237C32.6352 1.49587 32.7002 1.32897 32.7939 1.1753L32.9854 0.862802C33.0186 0.808321 33.0573 0.747827 33.0957 0.699716C33.108 0.684281 33.1539 0.625724 33.2246 0.577645C33.2533 0.55818 33.3618 0.487413 33.5186 0.490731C33.6091 0.492766 33.7063 0.5196 33.793 0.580575C33.8344 0.60972 33.8675 0.642119 33.8936 0.674325L33.9522 0.767099L33.9746 0.81202C34.0287 0.921239 34.0291 1.0285 34.0293 1.03468C34.0305 1.0685 34.0289 1.10089 34.0273 1.1255C34.0241 1.17665 34.0175 1.23799 34.0088 1.30323L33.959 1.67335C33.9408 1.80924 33.9176 1.94463 33.8887 2.07862L33.8096 2.44386C33.7965 2.50467 33.7945 2.56604 33.8047 2.63038L33.8643 3.00343C33.8872 3.14814 33.9007 3.29293 33.9043 3.43702L33.9131 3.80323C33.9172 3.9693 33.8988 4.13532 33.8604 4.29933L33.7734 4.67237C33.7744 4.67432 33.7755 4.67711 33.7773 4.68018L33.9883 5.03663C34.1356 5.28524 34.1608 5.57034 34.0459 5.84229L33.8887 6.21339C33.8651 6.26946 33.8602 6.3133 33.8633 6.35011L33.8955 6.72022C33.901 6.78386 33.9174 6.85128 33.9502 6.92335L34.1143 7.2837C34.1868 7.44328 34.2369 7.60958 34.2598 7.78077L34.3076 8.13722C34.3326 8.32412 34.3187 8.5113 34.2725 8.69386L34.1748 9.07765C34.1588 9.14105 34.1582 9.19484 34.167 9.24171L34.2363 9.60597C34.2624 9.74444 34.2765 9.88467 34.2813 10.0249L34.3594 9.76417C34.388 9.66816 34.4105 9.56972 34.4258 9.47022L34.4814 9.10499C34.5 8.98411 34.5183 8.86273 34.5361 8.74171L34.5898 8.3755C34.6098 8.24026 34.6361 8.10607 34.667 7.97413L34.75 7.61866C34.7762 7.5069 34.7997 7.39342 34.8213 7.27979L34.8906 6.91847C34.9222 6.75294 34.9768 6.59298 35.0518 6.43995L35.2227 6.09132C35.2527 6.03 35.2677 5.97222 35.2715 5.91651L35.2959 5.54835C35.3022 5.45385 35.3001 5.35588 35.29 5.25538L35.252 4.8755C35.2341 4.6973 35.2453 4.51933 35.2852 4.34522L35.3682 3.98292C35.403 3.83079 35.4525 3.68248 35.5166 3.53956L35.6699 3.19679C35.7156 3.09495 35.7575 2.99206 35.7939 2.88917L35.917 2.54151C35.9583 2.42477 35.9999 2.30793 36.042 2.1919L36.167 1.8462C36.2068 1.73635 36.2453 1.62445 36.2822 1.51124L36.3984 1.15577C36.4319 1.0529 36.459 0.951371 36.4805 0.85206L36.5566 0.501474C36.5642 0.46636 36.5733 0.42853 36.584 0.393075C36.5897 0.374201 36.6125 0.295511 36.6641 0.220224C36.6805 0.196279 36.7747 0.0572139 36.9668 0.0131923ZM56.8115 50.1362L57.0176 50.3071C56.8924 50.2558 56.7558 50.1666 56.6553 50.0034C56.7074 50.0475 56.7589 50.0925 56.8115 50.1362ZM40.3926 33.23C40.5512 33.4284 40.6778 33.6478 40.7725 33.8862L41.0049 34.4702C41.054 34.5937 41.1267 34.6993 41.2275 34.7905L41.6973 35.2153C41.8703 35.3718 42.031 35.5377 42.1777 35.7134L42.5732 36.187C42.7431 36.3906 42.873 36.6204 42.9629 36.8726L43.1758 37.4702C43.2129 37.5742 43.2742 37.6582 43.3711 37.729L43.8955 38.1118C44.1087 38.2676 44.2924 38.4495 44.4434 38.6577L44.7998 39.1499C44.921 39.3172 45.0414 39.4873 45.1602 39.6597L45.5098 40.1675C45.6039 40.3041 45.7145 40.4283 45.8408 40.5415L46.3057 40.9585C46.4988 41.1315 46.6604 41.3302 46.7891 41.5532L47.0957 42.0845C47.2128 42.2875 47.3145 42.5056 47.4004 42.7378L47.6318 43.3638C47.6444 43.3976 47.6555 43.4085 47.6592 43.4116C47.6631 43.4149 47.6798 43.4275 47.7246 43.437L48.3965 43.5806C48.7453 43.6547 49.0319 43.8475 49.2266 44.148L49.5918 44.7124C49.6706 44.834 49.7602 44.9122 49.8594 44.9624L50.4111 45.2417C50.5565 45.3152 50.7175 45.3732 50.8955 45.4136L51.54 45.5591C51.8347 45.626 52.0976 45.7613 52.3193 45.9644L52.7891 46.3931C52.9951 46.5818 53.1573 46.8076 53.2764 47.064L53.5547 47.6636C53.6076 47.7774 53.6778 47.8508 53.7656 47.9019L54.3076 48.2163C54.5006 48.3282 54.6869 48.4476 54.8662 48.5747L55.2344 48.8355L54.9365 48.8306L54.6357 48.8179C54.4754 48.8125 54.3156 48.795 54.1563 48.7661L53.8555 48.7144L53.5537 48.6577C53.3869 48.6273 53.2175 48.5871 53.0479 48.5357L52.7461 48.439L52.4463 48.3501C52.074 48.2369 51.692 48.2509 51.332 48.3628L51.0049 48.4653L50.7041 48.5552L50.4668 48.4077L50.1856 48.2339C49.8895 48.0501 49.5592 47.9439 49.2061 47.9273L48.8926 47.9087L48.585 47.896C48.5415 47.8938 48.5127 47.8848 48.4824 47.8628L48.2383 47.6773L47.9883 47.4985C47.7051 47.2902 47.3829 47.1695 47.042 47.1206L46.7022 47.0698L46.4326 47.0308L46.3115 46.7944L46.1455 46.4995C45.952 46.1484 45.6579 45.8731 45.2734 45.7183L44.9795 45.5962L44.6856 45.4819C44.4921 45.4041 44.3017 45.3223 44.1143 45.2446L43.8262 45.1284L43.5449 45.0073C43.3547 44.9285 43.1592 44.849 42.9688 44.77L42.6875 44.6558L42.3984 44.5337C42.344 44.5109 42.2947 44.4746 42.2451 44.4116L42.0459 44.1616L41.8477 43.9058C41.6292 43.6279 41.3499 43.4137 41.0215 43.2788L40.7275 43.1567L40.4326 43.0415C40.3159 42.9936 40.2151 42.9277 40.1309 42.855L39.6709 42.4585C39.4247 42.2466 39.1403 42.0948 38.832 41.9976L38.5117 41.896L38.2676 41.8179L38.0957 41.2993C38.051 41.1617 38.0342 41.0394 38.0313 40.9351L38.0186 40.646L38.0127 40.3579C38.007 40.157 37.9995 39.9496 37.9863 39.7368L37.9668 39.4302L37.9482 39.1157C37.9401 38.9811 37.9484 38.849 37.9736 38.7183L38.0313 38.4116L38.0889 38.1108C38.1163 37.9705 38.1639 37.8317 38.2236 37.6948L38.3457 37.4058L38.4727 37.1177C38.5812 36.8682 38.6589 36.6097 38.7041 36.3433L38.8057 35.7407C38.8374 35.5529 38.8738 35.359 38.915 35.1646L38.9795 34.8511L39.0498 34.5435C39.0555 34.5167 39.0624 34.5017 39.0879 34.48L39.5742 34.0698C39.8318 33.8511 40.0664 33.5404 40.2793 33.1987L40.3174 33.1362L40.3926 33.23ZM30.5762 23.2993C30.4027 23.2867 30.2304 23.3047 30.0615 23.3462L29.8809 23.3882L29.7041 23.4341C29.5928 23.4615 29.4872 23.4843 29.3887 23.5034L29.2236 23.5337L29.0635 23.565C28.9207 23.5927 28.7735 23.6631 28.6592 23.7944C28.6041 23.8579 28.5638 23.9271 28.5361 23.9956L28.4834 24.1987L28.46 24.3794L28.4365 24.564C28.3997 24.8505 28.5026 25.1068 28.6973 25.2974L28.8389 25.4351L28.9775 25.5737C29.0483 25.6428 29.1073 25.7109 29.1514 25.7778L29.251 25.9273L29.3467 26.0776C29.4746 26.2723 29.6617 26.4139 29.8926 26.4771L30.0576 26.523L30.2236 26.565C30.2944 26.5843 30.3741 26.6169 30.458 26.6616L30.626 26.7534L30.7949 26.8413C30.9833 26.9415 31.192 26.9909 31.4072 26.98L31.5908 26.9683L31.7744 26.9614C31.9271 26.9537 32.0799 26.9308 32.2285 26.896L32.4092 26.853L32.5859 26.811C32.76 26.7702 32.9253 26.7029 33.0742 26.604L33.2236 26.5044L33.3701 26.4077C33.3872 26.3965 33.4198 26.3815 33.4814 26.3775L33.6846 26.3608L33.8838 26.3511C33.9604 26.346 34.0546 26.3354 34.1387 26.312C34.1785 26.3008 34.2532 26.2783 34.3262 26.228C34.4006 26.1766 34.5343 26.0489 34.5498 25.8355L34.5537 25.7925L34.5566 25.7476C34.5638 25.6474 34.5394 25.5668 34.5264 25.5278C34.5112 25.4828 34.4912 25.4431 34.4756 25.4136C34.4447 25.3552 34.4073 25.2946 34.3682 25.2398L34.2647 25.0933L34.1611 24.9517C34.0887 24.8504 34.0125 24.7457 33.9307 24.6411L33.8115 24.4907L33.6963 24.3413C33.5627 24.1707 33.3885 24.0446 33.1856 23.9683L33.0088 23.9028L32.832 23.8335C32.6965 23.7826 32.5572 23.7401 32.4209 23.7066L32.2481 23.6646L32.0713 23.6226C31.967 23.5969 31.8623 23.5671 31.7598 23.5337L31.5908 23.4761L31.417 23.4224C31.2645 23.3728 31.1061 23.3425 30.9453 23.3306L30.5762 23.2993ZM30.2959 24.2983C30.2587 24.5448 30.3163 24.8694 30.5107 25.1245L30.6221 25.2661L30.7295 25.4087C30.8127 25.5176 30.9427 25.6333 31.1279 25.6773C31.3148 25.7213 31.483 25.6757 31.6084 25.6118L31.9238 25.4507C31.991 25.4163 32.1415 25.3336 32.2305 25.1694C32.2844 25.0684 32.2167 24.8051 32.1865 24.6636C32.2832 24.6874 32.3851 24.7174 32.4863 24.7554L32.6631 24.8218L32.8398 24.8901C32.8731 24.9027 32.8976 24.9194 32.9199 24.9478L33.0391 25.0982L33.1543 25.2476C33.1988 25.3044 33.2415 25.3616 33.2822 25.4165C33.122 25.4434 32.9639 25.4958 32.8232 25.5894L32.6787 25.6851L32.5283 25.7857C32.4814 25.8166 32.4274 25.8399 32.3633 25.855L32.002 25.939C31.9113 25.9602 31.8192 25.9733 31.7256 25.978L31.54 25.9888L31.3564 25.9966C31.3251 25.9982 31.2936 25.9927 31.2568 25.9732L31.0869 25.8853L30.918 25.7925C30.7775 25.7177 30.6329 25.6563 30.4844 25.6157L30.3193 25.5737L30.1611 25.5278L30.0732 25.3901L29.9736 25.2398C29.8869 25.1077 29.7818 24.9847 29.665 24.8706L29.4209 24.6245L29.4356 24.5064V24.4907L29.5742 24.4673C29.6908 24.4447 29.8126 24.4172 29.9385 24.3862L30.1191 24.3442L30.2959 24.2983ZM0.403324 19.3276C0.401917 19.328 0.400543 19.3286 0.400394 19.3286C0.400395 19.3286 0.401854 19.3283 0.404301 19.3276L0.405277 19.3267L0.403324 19.3276Z" fill="#DCDCDC"/>
<path d="M28.7243 32.1043C29.1578 31.9739 29.4036 31.5168 29.2732 31.0833C29.1428 30.6498 28.6857 30.404 28.2522 30.5344L28.4882 31.3193L28.7243 32.1043ZM28.3925 31.3481L28.5855 32.1448L28.6072 32.1395L28.6285 32.1331L28.3925 31.3481ZM26.9632 31.5215L27.214 30.7411L26.9632 31.5215ZM26.3496 31.3243L26.0988 32.1046L26.3496 31.3243ZM24.6173 31.928L24.3059 31.1697L24.6173 31.928ZM24.0589 32.1573L23.7475 31.399L24.0589 32.1573ZM23.5149 32.3971L23.1646 31.6561L23.5149 32.3971ZM23.2502 32.5223L23.6005 33.2633L23.2502 32.5223ZM22.9854 32.6475L22.635 31.9064L22.9854 32.6475ZM22.496 33.3397L21.7339 33.0378L22.496 33.3397ZM22.4131 34.1417L21.7113 34.5652L22.4131 34.1417ZM22.6967 34.6118L21.9948 35.0352L22.6967 34.6118ZM23.0973 34.9244L22.8619 35.7096L23.0973 34.9244ZM23.6149 35.0796L23.3795 35.8648L23.6149 35.0796ZM24.2003 35.2066L24.0778 36.0171L24.2003 35.2066ZM24.5268 35.2559L24.4043 36.0664L24.5268 35.2559ZM26.7285 33.8397L26.2078 33.2067L26.7285 33.8397ZM27.0802 33.3691L27.8268 33.7074L27.0802 33.3691ZM27.3422 32.7908L26.5956 32.4525L27.3422 32.7908ZM27.7754 32.4118L28.009 33.1975L27.7754 32.4118ZM28.6725 32.1216L29.4162 31.7769L28.6725 32.1216ZM28.6629 32.1008L29.4066 31.7562L29.1594 31.2228L28.5748 31.2859L28.6629 32.1008ZM28.5587 32.1121L28.126 31.4159L28.6467 32.927L28.5587 32.1121ZM29.0764 32.7554C29.4608 32.5165 29.5788 32.011 29.3398 31.6266C29.1008 31.2421 28.5954 31.1242 28.2109 31.3632L28.6436 32.0593L29.0764 32.7554ZM28.4882 31.3193L28.2522 30.5344L28.1564 30.5632L28.3925 31.3481L28.6285 32.1331L28.7243 32.1043L28.4882 31.3193ZM28.3925 31.3481L28.1995 30.5515L27.6383 30.6875L27.8313 31.4841L28.0243 32.2807L28.5855 32.1448L28.3925 31.3481ZM27.8313 31.4841L27.6383 30.6875C27.4871 30.7241 27.3758 30.7392 27.2984 30.7425C27.219 30.7459 27.198 30.736 27.214 30.7411L26.9632 31.5215L26.7124 32.3018C27.1344 32.4375 27.6037 32.3826 28.0243 32.2807L27.8313 31.4841ZM26.9632 31.5215L27.214 30.7411L26.9072 30.6425L26.6564 31.4229L26.4056 32.2032L26.7124 32.3018L26.9632 31.5215ZM26.6564 31.4229L26.9072 30.6425L26.6004 30.5439L26.3496 31.3243L26.0988 32.1046L26.4056 32.2032L26.6564 31.4229ZM26.3496 31.3243L26.6004 30.5439C26.1893 30.4118 25.7668 30.4461 25.3823 30.6432L25.7562 31.3726L26.1302 32.102C26.1348 32.0996 26.1352 32.0999 26.1315 32.101C26.1277 32.1021 26.1217 32.1034 26.1144 32.104C26.1071 32.1046 26.101 32.1043 26.0971 32.1038C26.0934 32.1034 26.0938 32.103 26.0988 32.1046L26.3496 31.3243ZM25.7562 31.3726L25.3823 30.6432L25.0957 30.7901L25.4697 31.5195L25.8436 32.2489L26.1302 32.102L25.7562 31.3726ZM25.4697 31.5195L25.0957 30.7901L24.8091 30.937L25.1831 31.6664L25.557 32.3958L25.8436 32.2489L25.4697 31.5195ZM25.1831 31.6664L24.8091 30.937C24.6372 31.0251 24.4694 31.1026 24.3059 31.1697L24.6173 31.928L24.9286 32.6862C25.1374 32.6005 25.3468 32.5036 25.557 32.3958L25.1831 31.6664ZM24.6173 31.928L24.3059 31.1697L24.0267 31.2844L24.3381 32.0426L24.6494 32.8009L24.9286 32.6862L24.6173 31.928ZM24.3381 32.0426L24.0267 31.2844L23.7475 31.399L24.0589 32.1573L24.3702 32.9155L24.6494 32.8009L24.3381 32.0426ZM24.0589 32.1573L23.7475 31.399C23.5486 31.4807 23.3543 31.5664 23.1646 31.6561L23.5149 32.3971L23.8653 33.1381C24.0285 33.0609 24.1969 32.9867 24.3702 32.9155L24.0589 32.1573ZM23.5149 32.3971L23.1646 31.6561L22.8998 31.7813L23.2502 32.5223L23.6005 33.2633L23.8653 33.1381L23.5149 32.3971ZM23.2502 32.5223L22.8998 31.7813L22.635 31.9064L22.9854 32.6475L23.3357 33.3885L23.6005 33.2633L23.2502 32.5223ZM22.9854 32.6475L22.635 31.9064C22.2622 32.0827 21.9942 32.3808 21.8463 32.7542L22.6083 33.0562L23.3703 33.3581C23.3725 33.3526 23.3733 33.3519 23.3717 33.3545C23.3699 33.3573 23.3665 33.3622 23.3612 33.3681C23.3558 33.3739 23.35 33.379 23.3445 33.3829C23.3419 33.3848 23.3397 33.3862 23.3381 33.3872C23.3365 33.3881 23.3357 33.3885 23.3357 33.3885L22.9854 32.6475ZM22.6083 33.0562L21.8463 32.7542L21.7339 33.0378L22.496 33.3397L23.258 33.6416L23.3703 33.3581L22.6083 33.0562ZM22.496 33.3397L21.7339 33.0378L21.6216 33.3213L22.3836 33.6232L23.1457 33.9251L23.258 33.6416L22.496 33.3397ZM22.3836 33.6232L21.6216 33.3213C21.4645 33.7179 21.4686 34.1629 21.7113 34.5652L22.4131 34.1417L23.115 33.7183C23.1326 33.7476 23.1501 33.7937 23.1532 33.8481C23.1561 33.8995 23.1445 33.9281 23.1457 33.9251L22.3836 33.6232ZM22.4131 34.1417L21.7113 34.5652L21.8531 34.8002L22.5549 34.3768L23.2567 33.9534L23.115 33.7183L22.4131 34.1417ZM22.5549 34.3768L21.8531 34.8002L21.9948 35.0352L22.6967 34.6118L23.3985 34.1884L23.2567 33.9534L22.5549 34.3768ZM22.6967 34.6118L21.9948 35.0352C22.1927 35.3631 22.4909 35.5983 22.8619 35.7096L23.0973 34.9244L23.3327 34.1393C23.3377 34.1408 23.3536 34.1469 23.372 34.1613C23.3805 34.1679 23.3872 34.1744 23.392 34.18C23.3968 34.1855 23.3988 34.1888 23.3985 34.1884L22.6967 34.6118ZM23.0973 34.9244L22.8619 35.7096L23.1207 35.7872L23.3561 35.002L23.5915 34.2169L23.3327 34.1393L23.0973 34.9244ZM23.3561 35.002L23.1207 35.7872L23.3795 35.8648L23.6149 35.0796L23.8504 34.2945L23.5915 34.2169L23.3561 35.002ZM23.6149 35.0796L23.3795 35.8648C23.5961 35.9297 23.83 35.9796 24.0778 36.0171L24.2003 35.2066L24.3227 34.3961C24.1352 34.3678 23.9788 34.333 23.8504 34.2945L23.6149 35.0796ZM24.2003 35.2066L24.0778 36.0171L24.4043 36.0664L24.5268 35.2559L24.6492 34.4455L24.3227 34.3961L24.2003 35.2066ZM24.5268 35.2559L24.4043 36.0664L24.7308 36.1157L24.8533 35.3053L24.9758 34.4948L24.6492 34.4455L24.5268 35.2559ZM24.8533 35.3053L24.7308 36.1157C25.2172 36.1892 25.6733 36.0296 26.0066 35.6649L25.4015 35.112L24.7964 34.5591C24.8015 34.5535 24.8293 34.5268 24.881 34.5086C24.9327 34.4904 24.9701 34.4939 24.9758 34.4948L24.8533 35.3053ZM25.4015 35.112L26.0066 35.6649L26.2283 35.4223L25.6232 34.8694L25.0181 34.3165L24.7964 34.5591L25.4015 35.112ZM25.6232 34.8694L26.2283 35.4223L26.4499 35.1797L25.8448 34.6268L25.2397 34.0739L25.0181 34.3165L25.6232 34.8694ZM25.8448 34.6268L26.4499 35.1797C26.5753 35.0425 26.6948 34.9287 26.8079 34.8357L26.2872 34.2027L25.7665 33.5696C25.5853 33.7187 25.4099 33.8876 25.2397 34.0739L25.8448 34.6268ZM26.2872 34.2027L26.8079 34.8357L27.0285 34.6542L26.5078 34.0212L25.9872 33.3881L25.7665 33.5696L26.2872 34.2027ZM26.5078 34.0212L27.0285 34.6542L27.2492 34.4728L26.7285 33.8397L26.2078 33.2067L25.9872 33.3881L26.5078 34.0212ZM26.7285 33.8397L27.2492 34.4728C27.5035 34.2636 27.6935 34.0015 27.8268 33.7074L27.0802 33.3691L26.3336 33.0308C26.2922 33.1221 26.2477 33.1738 26.2078 33.2067L26.7285 33.8397ZM27.0802 33.3691L27.8268 33.7074L27.9578 33.4182L27.2112 33.0799L26.4646 32.7416L26.3336 33.0308L27.0802 33.3691ZM27.2112 33.0799L27.9578 33.4182L28.0888 33.1291L27.3422 32.7908L26.5956 32.4525L26.4646 32.7416L27.2112 33.0799ZM27.3422 32.7908L28.0888 33.1291C28.0892 33.1282 28.0803 33.1469 28.0557 33.1684C28.0444 33.1783 28.0332 33.1858 28.0235 33.191C28.0141 33.196 28.0086 33.1977 28.009 33.1975L27.7754 32.4118L27.5419 31.6261C27.1109 31.7543 26.7803 32.045 26.5956 32.4525L27.3422 32.7908ZM27.7754 32.4118L28.009 33.1975L28.3112 33.1077L28.0777 32.322L27.8442 31.5363L27.5419 31.6261L27.7754 32.4118ZM28.0777 32.322L28.3112 33.1077L28.6134 33.0179L28.3799 32.2322L28.1464 31.4465L27.8442 31.5363L28.0777 32.322ZM28.3799 32.2322L28.6134 33.0179C28.7182 32.9868 28.8163 32.9557 28.894 32.9264C28.9266 32.914 28.9905 32.8892 29.0564 32.8525C29.0811 32.8388 29.1655 32.7917 29.2501 32.707C29.2821 32.675 29.6566 32.2957 29.4162 31.7769L28.6725 32.1216L27.9288 32.4663C27.8183 32.2278 27.8439 31.9917 27.9097 31.8245C27.9666 31.6798 28.0504 31.5883 28.09 31.5487C28.1697 31.4689 28.246 31.4274 28.2592 31.4201C28.3023 31.3961 28.3305 31.3868 28.3144 31.3929C28.2945 31.4004 28.2431 31.4177 28.1464 31.4465L28.3799 32.2322ZM28.6725 32.1216L29.4162 31.7769L29.4066 31.7562L28.6629 32.1008L27.9192 32.4455L27.9288 32.4663L28.6725 32.1216ZM28.6629 32.1008L28.5748 31.2859L28.4707 31.2972L28.5587 32.1121L28.6467 32.927L28.7509 32.9158L28.6629 32.1008ZM28.5587 32.1121L28.9914 32.8082L29.0764 32.7554L28.6436 32.0593L28.2109 31.3632L28.126 31.4159L28.5587 32.1121Z" fill="#DCDCDC"/>
<path d="M35.7732 53.1762C35.9453 52.7575 35.7454 52.2785 35.3267 52.1064C34.908 51.9343 34.4291 52.1342 34.257 52.5529L35.0151 52.8645L35.7732 53.1762ZM34.9771 52.957L34.2189 52.6454L34.2118 52.6628L34.2054 52.6806L34.9771 52.957ZM34.786 53.4906L34.0143 53.2143L34.786 53.4906ZM34.3939 54.272L33.7573 53.7556L34.3939 54.272ZM33.9919 54.7675L34.6285 55.2839L33.9919 54.7675ZM33.743 55.3293L32.9327 55.2057L33.743 55.3293ZM33.6951 55.6434L34.5054 55.7671L33.6951 55.6434ZM33.6472 55.9575L32.8369 55.8339V55.8339L33.6472 55.9575ZM33.487 56.5612L32.7227 56.2649L33.487 56.5612ZM33.3747 56.8508L32.6105 56.5545L33.3747 56.8508ZM33.2625 57.1404L34.0267 57.4366L33.2625 57.1404ZM32.9901 57.6902L32.292 57.2606L32.9901 57.6902ZM32.6698 58.2106L33.3679 58.6402L32.6698 58.2106ZM32.6327 58.7381L33.3773 58.3954L32.6327 58.7381ZM32.8789 59.2728L32.1343 59.6156L32.8789 59.2728ZM33.3105 59.5546L33.2719 60.3734L33.3105 59.5546ZM33.9276 59.5837L33.9662 58.765L33.9276 59.5837ZM33.9599 59.7289L34.3103 60.4699L33.9599 59.7289ZM33.4075 59.9901L33.0571 59.2491L33.4075 59.9901ZM32.8222 60.0304L33.0523 59.2436L32.8222 60.0304ZM32.2041 59.8496L32.4342 59.0629L32.2041 59.8496ZM31.6012 59.9124L31.2223 59.1855V59.1855L31.6012 59.9124ZM31.3073 60.0655L31.6861 60.7924L31.3073 60.0655ZM31.0134 60.2187L30.6346 59.4918L31.0134 60.2187ZM30.4106 60.3878L30.4527 61.2064V61.2064L30.4106 60.3878ZM30.1016 60.4037L30.0594 59.5851L30.1016 60.4037ZM29.7926 60.4197L29.8348 61.2382L29.7926 60.4197ZM29.191 60.5448L28.9043 59.7769L29.191 60.5448ZM28.8984 60.6541L28.6117 59.8862L28.8984 60.6541ZM28.6058 60.7633L28.8925 61.5312L28.6058 60.7633ZM27.9934 60.8285L27.8816 61.6405L27.9934 60.8285ZM27.3538 60.7405L27.242 61.5525L27.3538 60.7405ZM26.7317 60.7528L26.5814 59.9471L26.7317 60.7528ZM26.127 60.8656L26.2773 61.6714L26.127 60.8656ZM25.519 60.9649L25.6328 61.7766L25.519 60.9649ZM25.2133 61.0077L25.0995 60.196L25.2133 61.0077ZM24.9077 61.0506L24.7939 60.2389L24.9077 61.0506ZM24.4241 61.2239L23.9393 60.563L24.4241 61.2239ZM24.0683 61.4849L24.553 62.1459L24.0683 61.4849ZM23.6719 61.835L23.0908 61.257L23.6719 61.835ZM23.2349 62.2743L22.6538 61.6962L23.2349 62.2743ZM22.7797 62.7004L23.3184 63.3181L22.7797 62.7004ZM22.3063 63.1132L21.7675 62.4954L22.3063 63.1132ZM21.8613 63.1926L22.2881 62.4928L21.8613 63.1926ZM21.4448 62.9386L21.018 63.6384L21.4448 62.9386ZM21.6278 61.9725L20.8849 61.6262L21.6278 61.9725ZM22.0206 61.5139L21.559 60.8366L22.0206 61.5139ZM22.2831 61.3351L22.7447 62.0124L22.2831 61.3351ZM22.5456 61.1562L22.084 60.4788L22.5456 61.1562ZM23.015 60.7258L22.382 60.205L23.015 60.7258ZM23.4289 60.2227L24.0619 60.7435L23.4289 60.2227ZM23.9478 59.9382L24.034 60.7533L23.9478 59.9382ZM24.2596 59.9052L24.1734 59.0901L24.2596 59.9052ZM24.5715 59.8722L24.6578 60.6873L24.5715 59.8722ZM25.1899 59.799L25.0833 58.9863L25.1899 59.799ZM25.8028 59.7186L25.9094 60.5313L25.8028 59.7186ZM26.4112 59.6164L26.2464 58.8135L26.4112 59.6164ZM27.015 59.4925L27.1798 60.2955L27.015 59.4925ZM28.8853 59.5349L29.1801 60.2997L28.8853 59.5349ZM29.1799 59.4213L29.4747 60.1861L29.1799 59.4213ZM29.4745 59.3077L29.1796 58.5429L29.4745 59.3077ZM30.0731 59.1482L30.1955 59.9587L30.0731 59.1482ZM30.3771 59.1023L30.4995 59.9128L30.3771 59.1023ZM30.6811 59.0564L30.5587 58.2459L30.6811 59.0564ZM31.2142 58.824L30.6969 58.1882L31.2142 58.824ZM31.6724 58.4512L32.1897 59.0871L31.6724 58.4512ZM31.8727 57.9475L32.6891 57.8736L31.8727 57.9475ZM31.8153 57.3128L32.6316 57.2389L31.8153 57.3128ZM31.8728 56.7418L32.6488 57.0056L31.8728 56.7418ZM31.959 56.4881L31.183 56.2242L31.959 56.4881ZM32.0453 56.2344L32.8213 56.4983L32.0453 56.2344ZM32.3389 55.4934L31.5847 55.1724L32.3389 55.4934ZM32.6671 54.7209L33.4219 55.0404L32.6671 54.7209ZM32.7879 54.4356L32.033 54.116L32.7879 54.4356ZM32.9087 54.1502L32.1538 53.8307L32.9087 54.1502ZM33.1267 53.5716L32.3487 53.3136L33.1267 53.5716ZM33.3213 52.985L34.0993 53.2431L33.3213 52.985ZM33.5139 52.6181L33.0127 51.9695L33.5139 52.6181ZM33.6092 52.5445L33.3412 51.7699L33.2143 51.8138L33.108 51.8959L33.6092 52.5445ZM33.7644 52.4908L34.0324 53.2654L34.3956 53.1398L34.5313 52.7802L33.7644 52.4908ZM34.5666 52.6867C34.7265 52.2631 34.5127 51.7902 34.0892 51.6303C33.6657 51.4705 33.1927 51.6842 33.0329 52.1078L33.7998 52.3972L34.5666 52.6867ZM35.0151 52.8645L34.257 52.5529L34.2189 52.6454L34.9771 52.957L35.7352 53.2687L35.7732 53.1762L35.0151 52.8645ZM34.9771 52.957L34.2054 52.6806L34.0143 53.2143L34.786 53.4906L35.5576 53.767L35.7487 53.2334L34.9771 52.957ZM34.786 53.4906L34.0143 53.2143C33.8978 53.5396 33.8044 53.6975 33.7573 53.7556L34.3939 54.272L35.0304 54.7883C35.2513 54.5161 35.4193 54.1531 35.5576 53.767L34.786 53.4906ZM34.3939 54.272L33.7573 53.7556L33.5563 54.0034L34.1929 54.5197L34.8295 55.0361L35.0304 54.7883L34.3939 54.272ZM34.1929 54.5197L33.5563 54.0034L33.3554 54.2511L33.9919 54.7675L34.6285 55.2839L34.8295 55.0361L34.1929 54.5197ZM33.9919 54.7675L33.3554 54.2511C33.13 54.529 32.9867 54.8517 32.9327 55.2057L33.743 55.3293L34.5533 55.453C34.5632 55.3882 34.5859 55.3364 34.6285 55.2839L33.9919 54.7675ZM33.743 55.3293L32.9327 55.2057L32.8848 55.5198L33.6951 55.6434L34.5054 55.7671L34.5533 55.453L33.743 55.3293ZM33.6951 55.6434L32.8848 55.5198L32.8369 55.8339L33.6472 55.9575L34.4575 56.0811L34.5054 55.7671L33.6951 55.6434ZM33.6472 55.9575L32.8369 55.8339C32.8137 55.9856 32.7755 56.1288 32.7227 56.2649L33.487 56.5612L34.2513 56.8575C34.3482 56.6074 34.4167 56.3482 34.4575 56.0811L33.6472 55.9575ZM33.487 56.5612L32.7227 56.2649L32.6105 56.5545L33.3747 56.8508L34.139 57.147L34.2513 56.8575L33.487 56.5612ZM33.3747 56.8508L32.6105 56.5545L32.4982 56.8441L33.2625 57.1404L34.0267 57.4366L34.139 57.147L33.3747 56.8508ZM33.2625 57.1404L32.4982 56.8441C32.4411 56.9916 32.3723 57.1301 32.292 57.2606L32.9901 57.6902L33.6882 58.1198C33.8214 57.9032 33.9342 57.6753 34.0267 57.4366L33.2625 57.1404ZM32.9901 57.6902L32.292 57.2606L32.1319 57.5208L32.8299 57.9504L33.528 58.38L33.6882 58.1198L32.9901 57.6902ZM32.8299 57.9504L32.1319 57.5208L31.9717 57.781L32.6698 58.2106L33.3679 58.6402L33.528 58.38L32.8299 57.9504ZM32.6698 58.2106L31.9717 57.781C31.7279 58.1773 31.6863 58.6425 31.8882 59.0809L32.6327 58.7381L33.3773 58.3954C33.3873 58.417 33.4027 58.4656 33.3981 58.5301C33.3937 58.5932 33.373 58.6319 33.3679 58.6402L32.6698 58.2106ZM32.6327 58.7381L31.8882 59.0809L32.0112 59.3482L32.7558 59.0055L33.5004 58.6627L33.3773 58.3954L32.6327 58.7381ZM32.7558 59.0055L32.0112 59.3482L32.1343 59.6156L32.8789 59.2728L33.6234 58.93L33.5004 58.6627L32.7558 59.0055ZM32.8789 59.2728L32.1343 59.6156C32.2305 59.8244 32.3815 60.0204 32.6001 60.1632C32.8166 60.3045 33.0522 60.363 33.2719 60.3734L33.3105 59.5546L33.3491 58.7359C33.3631 58.7365 33.4239 58.7432 33.4965 58.7906C33.5712 58.8394 33.6093 58.8993 33.6234 58.93L32.8789 59.2728ZM33.3105 59.5546L33.2719 60.3734L33.5804 60.3879L33.619 59.5692L33.6576 58.7504L33.3491 58.7359L33.3105 59.5546ZM33.619 59.5692L33.5804 60.3879L33.889 60.4025L33.9276 59.5837L33.9662 58.765L33.6576 58.7504L33.619 59.5692ZM33.9276 59.5837L33.889 60.4025C33.9218 60.404 33.8914 60.4056 33.8329 60.3899C33.8055 60.3826 33.7238 60.3592 33.6298 60.298C33.5354 60.2366 33.352 60.0846 33.2899 59.8055C33.2266 59.5215 33.3318 59.3012 33.3987 59.1988C33.4634 59.0998 33.5332 59.0434 33.5568 59.025C33.6073 58.9854 33.6387 58.9741 33.6095 58.9879L33.9599 59.7289L34.3103 60.4699C34.3732 60.4401 34.4723 60.3901 34.5661 60.3167C34.6114 60.2813 34.6968 60.2091 34.7709 60.0957C34.8474 59.9787 34.9559 59.7452 34.89 59.4491C34.8251 59.1579 34.633 58.995 34.5238 58.9239C34.4148 58.853 34.3122 58.8212 34.2577 58.8066C34.145 58.7763 34.0362 58.7683 33.9662 58.765L33.9276 59.5837ZM33.9599 59.7289L33.6095 58.9879L33.3333 59.1185L33.6837 59.8595L34.0341 60.6005L34.3103 60.4699L33.9599 59.7289ZM33.6837 59.8595L33.3333 59.1185L33.0571 59.2491L33.4075 59.9901L33.7579 60.7311L34.0341 60.6005L33.6837 59.8595ZM33.4075 59.9901L33.0571 59.2491C33.0544 59.2504 33.0547 59.25 33.0574 59.2493C33.0601 59.2486 33.0635 59.248 33.0668 59.2478C33.0701 59.2475 33.0713 59.2478 33.0698 59.2476C33.0681 59.2474 33.0624 59.2466 33.0523 59.2436L32.8222 60.0304L32.5921 60.8171C32.9794 60.9303 33.382 60.9089 33.7579 60.7311L33.4075 59.9901ZM32.8222 60.0304L33.0523 59.2436L32.7433 59.1533L32.5132 59.94L32.2831 60.7267L32.5921 60.8171L32.8222 60.0304ZM32.5132 59.94L32.7433 59.1533L32.4342 59.0629L32.2041 59.8496L31.974 60.6363L32.2831 60.7267L32.5132 59.94ZM32.2041 59.8496L32.4342 59.0629C32.0186 58.9413 31.5998 58.9887 31.2223 59.1855L31.6012 59.9124L31.98 60.6392C31.9881 60.635 31.992 60.6338 31.9918 60.6339C31.9914 60.634 31.9885 60.6348 31.9837 60.6353C31.9789 60.6358 31.9746 60.6358 31.9717 60.6355C31.9689 60.6352 31.9694 60.6349 31.974 60.6363L32.2041 59.8496ZM31.6012 59.9124L31.2223 59.1855L30.9285 59.3387L31.3073 60.0655L31.6861 60.7924L31.98 60.6392L31.6012 59.9124ZM31.3073 60.0655L30.9285 59.3387L30.6346 59.4918L31.0134 60.2187L31.3923 60.9456L31.6861 60.7924L31.3073 60.0655ZM31.0134 60.2187L30.6346 59.4918C30.5354 59.5435 30.4486 59.5651 30.3684 59.5692L30.4106 60.3878L30.4527 61.2064C30.7844 61.1893 31.0996 61.0981 31.3923 60.9456L31.0134 60.2187ZM30.4106 60.3878L30.3684 59.5692L30.0594 59.5851L30.1016 60.4037L30.1438 61.2223L30.4527 61.2064L30.4106 60.3878ZM30.1016 60.4037L30.0594 59.5851L29.7504 59.6011L29.7926 60.4197L29.8348 61.2382L30.1438 61.2223L30.1016 60.4037ZM29.7926 60.4197L29.7504 59.6011C29.46 59.616 29.177 59.6751 28.9043 59.7769L29.191 60.5448L29.4777 61.3127C29.5951 61.2689 29.7132 61.2445 29.8348 61.2382L29.7926 60.4197ZM29.191 60.5448L28.9043 59.7769L28.6117 59.8862L28.8984 60.6541L29.1851 61.422L29.4777 61.3127L29.191 60.5448ZM28.8984 60.6541L28.6117 59.8862L28.3191 59.9954L28.6058 60.7633L28.8925 61.5312L29.1851 61.422L28.8984 60.6541ZM28.6058 60.7633L28.3191 59.9954C28.2555 60.0191 28.1887 60.028 28.1052 60.0165L27.9934 60.8285L27.8816 61.6405C28.2246 61.6877 28.5659 61.6531 28.8925 61.5312L28.6058 60.7633ZM27.9934 60.8285L28.1052 60.0165L27.7854 59.9725L27.6736 60.7845L27.5618 61.5965L27.8816 61.6405L27.9934 60.8285ZM27.6736 60.7845L27.7854 59.9725L27.4656 59.9285L27.3538 60.7405L27.242 61.5525L27.5618 61.5965L27.6736 60.7845ZM27.3538 60.7405L27.4656 59.9285C27.1696 59.8877 26.8736 59.8926 26.5814 59.9471L26.7317 60.7528L26.882 61.5586C26.9929 61.5379 27.1116 61.5345 27.242 61.5525L27.3538 60.7405ZM26.7317 60.7528L26.5814 59.9471L26.2791 60.0034L26.4294 60.8092L26.5796 61.615L26.882 61.5586L26.7317 60.7528ZM26.4294 60.8092L26.2791 60.0034L25.9767 60.0598L26.127 60.8656L26.2773 61.6714L26.5796 61.615L26.4294 60.8092ZM26.127 60.8656L25.9767 60.0598C25.7873 60.0952 25.5968 60.1263 25.4052 60.1531L25.519 60.9649L25.6328 61.7766C25.8488 61.7463 26.0636 61.7112 26.2773 61.6714L26.127 60.8656ZM25.519 60.9649L25.4052 60.1531L25.0995 60.196L25.2133 61.0077L25.3272 61.8195L25.6328 61.7766L25.519 60.9649ZM25.2133 61.0077L25.0995 60.196L24.7939 60.2389L24.9077 61.0506L25.0215 61.8623L25.3272 61.8195L25.2133 61.0077ZM24.9077 61.0506L24.7939 60.2389C24.5065 60.2792 24.2021 60.3703 23.9393 60.563L24.4241 61.2239L24.9089 61.8849C24.895 61.895 24.8924 61.8934 24.9105 61.8869C24.9291 61.8803 24.9644 61.8703 25.0215 61.8623L24.9077 61.0506ZM24.4241 61.2239L23.9393 60.563L23.7614 60.6935L24.2462 61.3544L24.7309 62.0154L24.9089 61.8849L24.4241 61.2239ZM24.2462 61.3544L23.7614 60.6935L23.5835 60.8239L24.0683 61.4849L24.553 62.1459L24.7309 62.0154L24.2462 61.3544ZM24.0683 61.4849L23.5835 60.8239C23.4201 60.9438 23.2554 61.0915 23.0908 61.257L23.6719 61.835L24.253 62.4131C24.3797 62.2857 24.4792 62.2 24.553 62.1459L24.0683 61.4849ZM23.6719 61.835L23.0908 61.257L22.8723 61.4766L23.4534 62.0547L24.0345 62.6327L24.253 62.4131L23.6719 61.835ZM23.4534 62.0547L22.8723 61.4766L22.6538 61.6962L23.2349 62.2743L23.816 62.8524L24.0345 62.6327L23.4534 62.0547ZM23.2349 62.2743L22.6538 61.6962C22.522 61.8287 22.3844 61.9575 22.241 62.0826L22.7797 62.7004L23.3184 63.3181C23.4906 63.168 23.6565 63.0127 23.816 62.8524L23.2349 62.2743ZM22.7797 62.7004L22.241 62.0826L22.0043 62.289L22.543 62.9068L23.0817 63.5246L23.3184 63.3181L22.7797 62.7004ZM22.543 62.9068L22.0043 62.289L21.7675 62.4954L22.3063 63.1132L22.845 63.731L23.0817 63.5246L22.543 62.9068ZM22.3063 63.1132L21.7675 62.4954C21.7589 62.503 21.8142 62.4505 21.9326 62.4294C22.0718 62.4045 22.2014 62.4399 22.2881 62.4928L21.8613 63.1926L21.4345 63.8924C21.66 64.03 21.9332 64.0945 22.2207 64.0432C22.4874 63.9956 22.6958 63.8611 22.845 63.731L22.3063 63.1132ZM21.8613 63.1926L22.2881 62.4928L22.0799 62.3658L21.6531 63.0656L21.2263 63.7654L21.4345 63.8924L21.8613 63.1926ZM21.6531 63.0656L22.0799 62.3658L21.8717 62.2388L21.4448 62.9386L21.018 63.6384L21.2263 63.7654L21.6531 63.0656ZM21.4448 62.9386L21.8717 62.2388C21.9612 62.2935 22.088 62.4193 22.1263 62.6193C22.1425 62.7037 22.1364 62.7722 22.1283 62.8147C22.1205 62.8559 22.11 62.878 22.1099 62.8782L21.367 62.5319L20.6241 62.1856C20.5417 62.3623 20.4585 62.6259 20.5162 62.9275C20.5804 63.2631 20.7896 63.4991 21.018 63.6384L21.4448 62.9386ZM21.367 62.5319L22.1099 62.8782L22.2403 62.5985L21.4974 62.2522L20.7545 61.9059L20.6241 62.1856L21.367 62.5319ZM21.4974 62.2522L22.2403 62.5985L22.3707 62.3188L21.6278 61.9725L20.8849 61.6262L20.7545 61.9059L21.4974 62.2522ZM21.6278 61.9725L22.3707 62.3188C22.3934 62.27 22.4253 62.23 22.4822 62.1913L22.0206 61.5139L21.559 60.8366C21.266 61.0363 21.036 61.302 20.8849 61.6262L21.6278 61.9725ZM22.0206 61.5139L22.4822 62.1913L22.7447 62.0124L22.2831 61.3351L21.8215 60.6577L21.559 60.8366L22.0206 61.5139ZM22.2831 61.3351L22.7447 62.0124L23.0071 61.8335L22.5456 61.1562L22.084 60.4788L21.8215 60.6577L22.2831 61.3351ZM22.5456 61.1562L23.0071 61.8335C23.248 61.6694 23.4618 61.4728 23.648 61.2466L23.015 60.7258L22.382 60.205C22.2922 60.3142 22.1931 60.4045 22.084 60.4788L22.5456 61.1562ZM23.015 60.7258L23.648 61.2466L23.8549 60.9951L23.222 60.4743L22.589 59.9535L22.382 60.205L23.015 60.7258ZM23.222 60.4743L23.8549 60.9951L24.0619 60.7435L23.4289 60.2227L22.7959 59.7019L22.589 59.9535L23.222 60.4743ZM23.4289 60.2227L24.0619 60.7435C24.067 60.7373 24.0692 60.7357 24.0678 60.7369C24.0662 60.7382 24.0623 60.7412 24.0562 60.7445C24.0501 60.7479 24.0439 60.7504 24.0388 60.752C24.0337 60.7535 24.0317 60.7536 24.034 60.7533L23.9478 59.9382L23.8615 59.1231C23.4308 59.1686 23.0646 59.3754 22.7959 59.7019L23.4289 60.2227ZM23.9478 59.9382L24.034 60.7533L24.3459 60.7203L24.2596 59.9052L24.1734 59.0901L23.8615 59.1231L23.9478 59.9382ZM24.2596 59.9052L24.3459 60.7203L24.6578 60.6873L24.5715 59.8722L24.4853 59.0571L24.1734 59.0901L24.2596 59.9052ZM24.5715 59.8722L24.6578 60.6873C24.8724 60.6646 25.0853 60.6394 25.2965 60.6117L25.1899 59.799L25.0833 58.9863C24.8858 59.0122 24.6865 59.0358 24.4853 59.0571L24.5715 59.8722ZM25.1899 59.799L25.2965 60.6117L25.603 60.5715L25.4963 59.7588L25.3897 58.9461L25.0833 58.9863L25.1899 59.799ZM25.4963 59.7588L25.603 60.5715L25.9094 60.5313L25.8028 59.7186L25.6962 58.9059L25.3897 58.9461L25.4963 59.7588ZM25.8028 59.7186L25.9094 60.5313C26.1332 60.502 26.3554 60.4647 26.576 60.4194L26.4112 59.6164L26.2464 58.8135C26.0645 58.8508 25.8811 58.8816 25.6962 58.9059L25.8028 59.7186ZM26.4112 59.6164L26.576 60.4194L26.8779 60.3574L26.7131 59.5545L26.5483 58.7515L26.2464 58.8135L26.4112 59.6164ZM26.7131 59.5545L26.8779 60.3574L27.1798 60.2955L27.015 59.4925L26.8503 58.6896L26.5483 58.7515L26.7131 59.5545ZM27.015 59.4925L27.1798 60.2955C27.2765 60.2756 27.3804 60.273 27.4972 60.293L27.6354 59.485L27.7736 58.6771C27.4658 58.6244 27.1561 58.6268 26.8503 58.6896L27.015 59.4925ZM27.6354 59.485L27.4972 60.293L27.8156 60.3474L27.9538 59.5395L28.092 58.7316L27.7736 58.6771L27.6354 59.485ZM27.9538 59.5395L27.8156 60.3474L28.134 60.4019L28.2722 59.594L28.4104 58.786L28.092 58.7316L27.9538 59.5395ZM28.2722 59.594L28.134 60.4019C28.4884 60.4625 28.8426 60.4298 29.1801 60.2997L28.8853 59.5349L28.5904 58.7701C28.5352 58.7914 28.4807 58.798 28.4104 58.786L28.2722 59.594ZM28.8853 59.5349L29.1801 60.2997L29.4747 60.1861L29.1799 59.4213L28.885 58.6565L28.5904 58.7701L28.8853 59.5349ZM29.1799 59.4213L29.4747 60.1861L29.7693 60.0725L29.4745 59.3077L29.1796 58.5429L28.885 58.6565L29.1799 59.4213ZM29.4745 59.3077L29.7693 60.0725C29.9116 60.0176 30.0534 59.9801 30.1955 59.9587L30.0731 59.1482L29.9507 58.3377C29.6875 58.3775 29.4302 58.4463 29.1796 58.5429L29.4745 59.3077ZM30.0731 59.1482L30.1955 59.9587L30.4995 59.9128L30.3771 59.1023L30.2547 58.2918L29.9507 58.3377L30.0731 59.1482ZM30.3771 59.1023L30.4995 59.9128L30.8035 59.8668L30.6811 59.0564L30.5587 58.2459L30.2547 58.2918L30.3771 59.1023ZM30.6811 59.0564L30.8035 59.8668C31.1448 59.8153 31.4603 59.6805 31.7315 59.4599L31.2142 58.824L30.6969 58.1882C30.6626 58.2161 30.6227 58.2362 30.5587 58.2459L30.6811 59.0564ZM31.2142 58.824L31.7315 59.4599L31.9606 59.2735L31.4433 58.6376L30.926 58.0018L30.6969 58.1882L31.2142 58.824ZM31.4433 58.6376L31.9606 59.2735L32.1897 59.0871L31.6724 58.4512L31.1551 57.8154L30.926 58.0018L31.4433 58.6376ZM31.6724 58.4512L32.1897 59.0871C32.573 58.7752 32.7305 58.3314 32.6891 57.8736L31.8727 57.9475L31.0564 58.0214C31.0564 58.0215 31.0535 57.9841 31.0754 57.9292C31.0983 57.8717 31.1329 57.8335 31.1551 57.8154L31.6724 58.4512ZM31.8727 57.9475L32.6891 57.8736L32.6603 57.5562L31.844 57.6302L31.0277 57.7041L31.0564 58.0214L31.8727 57.9475ZM31.844 57.6302L32.6603 57.5562L32.6316 57.2389L31.8153 57.3128L30.9989 57.3867L31.0277 57.7041L31.844 57.6302ZM31.8153 57.3128L32.6316 57.2389C32.6208 57.1202 32.6345 57.0477 32.6488 57.0056L31.8728 56.7418L31.0967 56.4779C30.996 56.7741 30.9713 57.0823 30.9989 57.3867L31.8153 57.3128ZM31.8728 56.7418L32.6488 57.0056L32.7351 56.7519L31.959 56.4881L31.183 56.2242L31.0967 56.4779L31.8728 56.7418ZM31.959 56.4881L32.7351 56.7519L32.8213 56.4983L32.0453 56.2344L31.2692 55.9705L31.183 56.2242L31.959 56.4881ZM32.0453 56.2344L32.8213 56.4983C32.8723 56.3482 32.9284 56.2015 32.9894 56.0581L32.2352 55.7371L31.481 55.4161C31.4038 55.5975 31.3332 55.7823 31.2692 55.9705L32.0453 56.2344ZM32.2352 55.7371L32.9894 56.0581L33.0931 55.8144L32.3389 55.4934L31.5847 55.1724L31.481 55.4161L32.2352 55.7371ZM32.3389 55.4934L33.0931 55.8144L33.1968 55.5708L32.4426 55.2498L31.6884 54.9288L31.5847 55.1724L32.3389 55.4934ZM32.4426 55.2498L33.1968 55.5708C33.2662 55.4078 33.3412 55.231 33.4219 55.0404L32.6671 54.7209L31.9123 54.4013C31.8319 54.5911 31.7573 54.7669 31.6884 54.9288L32.4426 55.2498ZM32.6671 54.7209L33.4219 55.0404L33.5427 54.7551L32.7879 54.4356L32.033 54.116L31.9123 54.4013L32.6671 54.7209ZM32.7879 54.4356L33.5427 54.7551L33.6635 54.4698L32.9087 54.1502L32.1538 53.8307L32.033 54.116L32.7879 54.4356ZM32.9087 54.1502L33.6635 54.4698C33.7525 54.2595 33.8329 54.0461 33.9047 53.8297L33.1267 53.5716L32.3487 53.3136C32.2908 53.4882 32.2258 53.6606 32.1538 53.8307L32.9087 54.1502ZM33.1267 53.5716L33.9047 53.8297L34.002 53.5364L33.224 53.2783L32.446 53.0203L32.3487 53.3136L33.1267 53.5716ZM33.224 53.2783L34.002 53.5364L34.0993 53.2431L33.3213 52.985L32.5433 52.727L32.446 53.0203L33.224 53.2783ZM33.3213 52.985L34.0993 53.2431C34.111 53.208 34.1211 53.1808 34.1293 53.1605C34.1377 53.1399 34.1428 53.1297 34.1439 53.1276C34.1454 53.1247 34.1392 53.1372 34.1234 53.1584C34.1151 53.1695 34.1027 53.185 34.0858 53.203C34.0689 53.2208 34.0455 53.2432 34.0151 53.2667L33.5139 52.6181L33.0127 51.9695C32.8434 52.1004 32.7452 52.265 32.6923 52.3657C32.6321 52.4805 32.5837 52.6053 32.5433 52.727L33.3213 52.985ZM33.5139 52.6181L34.0151 53.2667L34.1104 53.1931L33.6092 52.5445L33.108 51.8959L33.0127 51.9695L33.5139 52.6181ZM33.6092 52.5445L33.8772 53.3191L34.0324 53.2654L33.7644 52.4908L33.4965 51.7161L33.3412 51.7699L33.6092 52.5445ZM33.7644 52.4908L34.5313 52.7802L34.5666 52.6867L33.7998 52.3972L33.0329 52.1078L32.9976 52.2013L33.7644 52.4908Z" fill="#DCDCDC"/>
<path d="M41.0145 54.8679C41.1759 54.445 40.9639 53.9713 40.5409 53.8099C40.118 53.6485 39.6443 53.8605 39.4829 54.2834L40.2487 54.5757L41.0145 54.8679ZM40.213 54.6691L39.4472 54.3769L39.3901 54.5267L39.3936 54.6871L40.213 54.6691ZM40.2255 55.2384L41.045 55.2205L40.2255 55.2384ZM40.1292 56.1076L39.3587 55.8279L40.1292 56.1076ZM39.9116 56.7071L40.6821 56.9868L39.9116 56.7071ZM39.8595 57.3193L40.666 57.173L39.8595 57.3193ZM39.9728 57.9439L39.1663 58.0903L39.9728 57.9439ZM39.9868 58.5954L40.8001 58.6977L39.9868 58.5954ZM39.9015 59.2737L39.0882 59.1714L39.9015 59.2737ZM39.529 59.6736L39.3804 58.8675L39.529 59.6736ZM38.8693 59.7952L38.7207 58.9891L38.8693 59.7952ZM38.2554 59.9741L38.5702 60.731L38.2554 59.9741ZM37.6873 60.2104L37.3726 59.4536L37.6873 60.2104ZM37.2016 60.5474L37.8045 61.1028V61.1028L37.2016 60.5474ZM36.7983 60.9853L36.1954 60.43L36.7983 60.9853ZM36.4528 61.4662L35.7343 61.0717L36.4528 61.4662ZM36.3089 61.7282L37.0274 62.1227L36.3089 61.7282ZM36.165 61.9902L36.8835 62.3848L36.165 61.9902ZM35.72 62.3435L35.9577 63.128L35.72 62.3435ZM35.1176 62.5261L34.8799 61.7416L35.1176 62.5261ZM34.5659 62.8355L34.0276 62.2173L34.5659 62.8355ZM34.0647 63.2719L34.6029 63.89L34.0647 63.2719ZM33.5073 63.5291L33.4036 62.7161L33.5073 63.5291ZM32.8938 63.6074L32.7901 62.7943L32.8938 63.6074ZM32.1507 64.0258L32.6885 64.6444L32.1507 64.0258ZM31.9326 64.2154L31.3948 63.5968L31.9326 64.2154ZM31.4714 64.594L31.9744 65.2411L31.4714 64.594ZM30.9853 64.9718L30.4823 64.3246L30.9853 64.9718ZM30.945 65.1499L30.9012 64.3314L30.945 65.1499ZM31.1477 65.139L31.1915 65.9575L31.1477 65.139ZM31.3505 65.1282L31.3943 65.9467L31.3505 65.1282ZM31.7813 64.9047L31.2221 64.3053L31.7813 64.9047ZM32.0093 64.692L31.4501 64.0926L32.0093 64.692ZM32.719 64.0827L33.2 64.7463L32.719 64.0827ZM32.9727 63.8988L33.4537 64.5624L32.9727 63.8988ZM33.2264 63.7149L32.7454 63.0512L33.2264 63.7149ZM33.8101 63.4752L33.9468 64.2834L33.8101 63.4752ZM34.4701 63.3636L34.6068 64.1717L34.4701 63.3636ZM34.9089 62.9831L35.6861 63.2436L34.9089 62.9831ZM35.0177 62.6584L34.2406 62.3979L35.0177 62.6584ZM35.1266 62.3338L34.3494 62.0733L35.1266 62.3338ZM35.5248 61.8598L35.9006 62.5883L35.5248 61.8598ZM36.1037 61.5612L35.7279 60.8327L36.1037 61.5612ZM36.6788 61.2821L37.0179 62.0283V62.0283L36.6788 61.2821ZM37.2502 61.0224L36.9111 60.2762L37.2502 61.0224ZM37.8568 60.9537L37.7034 61.7589L37.8568 60.9537ZM38.4988 61.076L38.6522 60.2709L38.4988 61.076ZM39.096 60.9486L39.5581 61.6256L39.096 60.9486ZM39.6485 60.5714L39.1863 59.8945L39.6485 60.5714ZM40.232 60.348L40.1398 59.5336L40.232 60.348ZM40.5394 60.3132L40.4471 59.4988L40.5394 60.3132ZM40.8467 60.2784L40.939 61.0929L40.8467 60.2784ZM41.4676 60.2304L41.4334 59.4115L41.4676 60.2304ZM41.7813 60.2173L41.8156 61.0363L41.7813 60.2173ZM42.095 60.2042L42.0607 59.3852L42.095 60.2042ZM42.7226 60.2508L42.8758 59.4456L42.7226 60.2508ZM43.0365 60.3106L42.8832 61.1158L43.0365 60.3106ZM43.3504 60.3704L43.5037 59.5652L43.3504 60.3704ZM43.842 61.3954L44.6482 61.247L43.842 61.3954ZM44.1123 61.8048L43.7978 62.5618L44.1123 61.8048ZM44.3234 61.8925L44.6737 61.1515L44.656 61.1431L44.6379 61.1356L44.3234 61.8925ZM44.6479 62.046L44.2976 62.787L44.3796 62.8258L44.4681 62.8457L44.6479 62.046ZM44.5656 62.8676C45.0073 62.967 45.4459 62.6895 45.5452 62.2478C45.6445 61.8061 45.367 61.3676 44.9254 61.2682L44.7455 62.0679L44.5656 62.8676ZM40.2487 54.5757L39.4829 54.2834L39.4472 54.3769L40.213 54.6691L40.9788 54.9614L41.0145 54.8679L40.2487 54.5757ZM40.213 54.6691L39.3936 54.6871L39.406 55.2564L40.2255 55.2384L41.045 55.2205L41.0325 54.6511L40.213 54.6691ZM40.2255 55.2384L39.406 55.2564C39.4136 55.6014 39.3795 55.7707 39.3587 55.8279L40.1292 56.1076L40.8997 56.3872C41.024 56.0447 41.0541 55.6345 41.045 55.2205L40.2255 55.2384ZM40.1292 56.1076L39.3587 55.8279L39.2499 56.1277L40.0204 56.4073L40.7909 56.687L40.8997 56.3872L40.1292 56.1076ZM40.0204 56.4073L39.2499 56.1277L39.1411 56.4275L39.9116 56.7071L40.6821 56.9868L40.7909 56.687L40.0204 56.4073ZM39.9116 56.7071L39.1411 56.4275C39.0194 56.763 38.9892 57.114 39.053 57.4656L39.8595 57.3193L40.666 57.173C40.6542 57.1081 40.6588 57.051 40.6821 56.9868L39.9116 56.7071ZM39.8595 57.3193L39.053 57.4656L39.1096 57.7779L39.9161 57.6316L40.7226 57.4853L40.666 57.173L39.8595 57.3193ZM39.9161 57.6316L39.1096 57.7779L39.1663 58.0903L39.9728 57.9439L40.7793 57.7976L40.7226 57.4853L39.9161 57.6316ZM39.9728 57.9439L39.1663 58.0903C39.1881 58.2104 39.1924 58.3434 39.1735 58.4931L39.9868 58.5954L40.8001 58.6977C40.8381 58.3952 40.8331 58.0939 40.7793 57.7976L39.9728 57.9439ZM39.9868 58.5954L39.1735 58.4931L39.1309 58.8322L39.9442 58.9345L40.7574 59.0368L40.8001 58.6977L39.9868 58.5954ZM39.9442 58.9345L39.1309 58.8322L39.0882 59.1714L39.9015 59.2737L40.7148 59.376L40.7574 59.0368L39.9442 58.9345ZM39.9015 59.2737L39.0882 59.1714C39.0901 59.1569 39.1054 59.0724 39.1872 58.9846C39.2702 58.8955 39.3574 58.8718 39.3804 58.8675L39.529 59.6736L39.6776 60.4797C39.9205 60.4349 40.1797 60.3243 40.3869 60.1019C40.5928 59.8807 40.6845 59.6165 40.7148 59.376L39.9015 59.2737ZM39.529 59.6736L39.3804 58.8675L39.0506 58.9283L39.1992 59.7344L39.3478 60.5405L39.6776 60.4797L39.529 59.6736ZM39.1992 59.7344L39.0506 58.9283L38.7207 58.9891L38.8693 59.7952L39.0179 60.6013L39.3478 60.5405L39.1992 59.7344ZM38.8693 59.7952L38.7207 58.9891C38.4489 59.0392 38.1881 59.1144 37.9407 59.2173L38.2554 59.9741L38.5702 60.731C38.7015 60.6764 38.8499 60.6323 39.0179 60.6013L38.8693 59.7952ZM38.2554 59.9741L37.9407 59.2173L37.6567 59.3354L37.9714 60.0923L38.2861 60.8491L38.5702 60.731L38.2554 59.9741ZM37.9714 60.0923L37.6567 59.3354L37.3726 59.4536L37.6873 60.2104L38.002 60.9672L38.2861 60.8491L37.9714 60.0923ZM37.6873 60.2104L37.3726 59.4536C37.0775 59.5763 36.8162 59.756 36.5987 59.9921L37.2016 60.5474L37.8045 61.1028C37.8558 61.047 37.9184 61.002 38.002 60.9672L37.6873 60.2104ZM37.2016 60.5474L36.5987 59.9921L36.397 60.211L36.9999 60.7664L37.6028 61.3217L37.8045 61.1028L37.2016 60.5474ZM36.9999 60.7664L36.397 60.211L36.1954 60.43L36.7983 60.9853L37.4012 61.5406L37.6028 61.3217L36.9999 60.7664ZM36.7983 60.9853L36.1954 60.43C36.0159 60.6249 35.8619 60.8392 35.7343 61.0717L36.4528 61.4662L37.1712 61.8607C37.2354 61.7439 37.3118 61.6376 37.4012 61.5406L36.7983 60.9853ZM36.4528 61.4662L35.7343 61.0717L35.5904 61.3337L36.3089 61.7282L37.0274 62.1227L37.1712 61.8607L36.4528 61.4662ZM36.3089 61.7282L35.5904 61.3337L35.4465 61.5957L36.165 61.9902L36.8835 62.3848L37.0274 62.1227L36.3089 61.7282ZM36.165 61.9902L35.4465 61.5957C35.4469 61.5951 35.4492 61.591 35.4542 61.5851C35.4592 61.5791 35.4654 61.573 35.4722 61.5676C35.4872 61.5557 35.4945 61.5554 35.4823 61.5591L35.72 62.3435L35.9577 63.128C36.3515 63.0086 36.6786 62.758 36.8835 62.3848L36.165 61.9902ZM35.72 62.3435L35.4823 61.5591L35.1811 61.6504L35.4188 62.4348L35.6565 63.2192L35.9577 63.128L35.72 62.3435ZM35.4188 62.4348L35.1811 61.6504L34.8799 61.7416L35.1176 62.5261L35.3553 63.3105L35.6565 63.2192L35.4188 62.4348ZM35.1176 62.5261L34.8799 61.7416C34.5622 61.8379 34.277 62.0002 34.0276 62.2173L34.5659 62.8355L35.1041 63.4537C35.1888 63.38 35.2715 63.3359 35.3553 63.3105L35.1176 62.5261ZM34.5659 62.8355L34.0276 62.2173L33.777 62.4355L34.3153 63.0537L34.8535 63.6719L35.1041 63.4537L34.5659 62.8355ZM34.3153 63.0537L33.777 62.4355L33.5265 62.6537L34.0647 63.2719L34.6029 63.89L34.8535 63.6719L34.3153 63.0537ZM34.0647 63.2719L33.5265 62.6537C33.4722 62.7009 33.4351 62.712 33.4036 62.7161L33.5073 63.5291L33.611 64.3422C33.9886 64.2941 34.323 64.1337 34.6029 63.89L34.0647 63.2719ZM33.5073 63.5291L33.4036 62.7161L33.0968 62.7552L33.2006 63.5683L33.3043 64.3814L33.611 64.3422L33.5073 63.5291ZM33.2006 63.5683L33.0968 62.7552L32.7901 62.7943L32.8938 63.6074L32.9975 64.4205L33.3043 64.3814L33.2006 63.5683ZM32.8938 63.6074L32.7901 62.7943C32.4366 62.8394 32.1075 62.9773 31.8311 63.2176L32.3688 63.8362L32.9066 64.4548C32.9211 64.4422 32.9419 64.4276 32.9975 64.4205L32.8938 63.6074ZM32.3688 63.8362L31.8311 63.2176L31.6129 63.4072L32.1507 64.0258L32.6885 64.6444L32.9066 64.4548L32.3688 63.8362ZM32.1507 64.0258L31.6129 63.4072L31.3948 63.5968L31.9326 64.2154L32.4703 64.834L32.6885 64.6444L32.1507 64.0258ZM31.9326 64.2154L31.3948 63.5968C31.2614 63.7128 31.1193 63.8295 30.9684 63.9468L31.4714 64.594L31.9744 65.2411C32.1475 65.1066 32.3129 64.9709 32.4703 64.834L31.9326 64.2154ZM31.4714 64.594L30.9684 63.9468L30.7253 64.1357L31.2283 64.7829L31.7313 65.4301L31.9744 65.2411L31.4714 64.594ZM31.2283 64.7829L30.7253 64.1357L30.4823 64.3246L30.9853 64.9718L31.4883 65.619L31.7313 65.4301L31.2283 64.7829ZM30.9853 64.9718L30.4823 64.3246C30.4261 64.3683 30.3587 64.4244 30.2964 64.4902C30.2619 64.5266 30.11 64.6834 30.0542 64.9299C30.0194 65.0837 30.0158 65.306 30.139 65.5279C30.257 65.7402 30.433 65.8467 30.5488 65.8963C30.7477 65.9815 30.934 65.9713 30.9887 65.9684L30.945 65.1499L30.9012 64.3314C30.9111 64.3308 30.9395 64.3297 30.9797 64.3335C31.0147 64.3369 31.0961 64.3473 31.1941 64.3893C31.2947 64.4324 31.4602 64.5302 31.5722 64.7319C31.6895 64.9431 31.6846 65.1527 31.6531 65.2916C31.6246 65.4176 31.5721 65.5033 31.548 65.5395C31.5206 65.5808 31.4963 65.6072 31.4868 65.6173C31.4683 65.6368 31.4634 65.6383 31.4883 65.619L30.9853 64.9718ZM30.945 65.1499L30.9887 65.9684L31.1915 65.9575L31.1477 65.139L31.104 64.3205L30.9012 64.3314L30.945 65.1499ZM31.1477 65.139L31.1915 65.9575L31.3943 65.9467L31.3505 65.1282L31.3068 64.3097L31.104 64.3205L31.1477 65.139ZM31.3505 65.1282L31.3943 65.9467C31.8012 65.925 32.1196 65.71 32.3404 65.504L31.7813 64.9047L31.2221 64.3053C31.1859 64.3391 31.1721 64.3445 31.182 64.3393C31.1939 64.3332 31.2374 64.3134 31.3068 64.3097L31.3505 65.1282ZM31.7813 64.9047L32.3404 65.504L32.5684 65.2913L32.0093 64.692L31.4501 64.0926L31.2221 64.3053L31.7813 64.9047ZM32.0093 64.692L32.5684 65.2913L32.7964 65.0786L32.2373 64.4793L31.6781 63.8799L31.4501 64.0926L32.0093 64.692ZM32.2373 64.4793L32.7964 65.0786C32.9236 64.9599 33.0581 64.8492 33.2 64.7463L32.719 64.0827L32.2379 63.419C32.0416 63.5613 31.8549 63.715 31.6781 63.8799L32.2373 64.4793ZM32.719 64.0827L33.2 64.7463L33.4537 64.5624L32.9727 63.8988L32.4917 63.2351L32.2379 63.419L32.719 64.0827ZM32.9727 63.8988L33.4537 64.5624L33.7074 64.3786L33.2264 63.7149L32.7454 63.0512L32.4917 63.2351L32.9727 63.8988ZM33.2264 63.7149L33.7074 64.3786C33.7676 64.335 33.8425 64.301 33.9468 64.2834L33.8101 63.4752L33.6734 62.667C33.3377 62.7238 33.0235 62.8496 32.7454 63.0512L33.2264 63.7149ZM33.8101 63.4752L33.9468 64.2834L34.2768 64.2276L34.1401 63.4194L34.0034 62.6112L33.6734 62.667L33.8101 63.4752ZM34.1401 63.4194L34.2768 64.2276L34.6068 64.1717L34.4701 63.3636L34.3334 62.5554L34.0034 62.6112L34.1401 63.4194ZM34.4701 63.3636L34.6068 64.1717C34.842 64.132 35.0786 64.036 35.2818 63.8598C35.484 63.6845 35.6117 63.4656 35.6861 63.2436L34.9089 62.9831L34.1317 62.7226C34.1336 62.717 34.1519 62.6698 34.2078 62.6212C34.2647 62.5719 34.3182 62.5579 34.3334 62.5554L34.4701 63.3636ZM34.9089 62.9831L35.6861 63.2436L35.7949 62.9189L35.0177 62.6584L34.2406 62.3979L34.1317 62.7226L34.9089 62.9831ZM35.0177 62.6584L35.7949 62.9189L35.9037 62.5943L35.1266 62.3338L34.3494 62.0733L34.2406 62.3979L35.0177 62.6584ZM35.1266 62.3338L35.9037 62.5943C35.9075 62.5832 35.9103 62.5777 35.911 62.5765C35.9116 62.5753 35.9108 62.577 35.9081 62.5802C35.9053 62.5835 35.9023 62.5864 35.8998 62.5884C35.8973 62.5903 35.8971 62.5901 35.9006 62.5883L35.5248 61.8598L35.149 61.1313C34.756 61.3341 34.4859 61.6661 34.3494 62.0733L35.1266 62.3338ZM35.5248 61.8598L35.9006 62.5883L36.19 62.439L35.8143 61.7105L35.4385 60.982L35.149 61.1313L35.5248 61.8598ZM35.8143 61.7105L36.19 62.439L36.4795 62.2896L36.1037 61.5612L35.7279 60.8327L35.4385 60.982L35.8143 61.7105ZM36.1037 61.5612L36.4795 62.2896C36.6608 62.1961 36.8403 62.109 37.0179 62.0283L36.6788 61.2821L36.3397 60.5358C36.1364 60.6282 35.9325 60.7272 35.7279 60.8327L36.1037 61.5612ZM36.6788 61.2821L37.0179 62.0283L37.3036 61.8985L36.9645 61.1522L36.6254 60.406L36.3397 60.5358L36.6788 61.2821ZM36.9645 61.1522L37.3036 61.8985L37.5893 61.7686L37.2502 61.0224L36.9111 60.2762L36.6254 60.406L36.9645 61.1522ZM37.2502 61.0224L37.5893 61.7686C37.619 61.7552 37.6485 61.7485 37.7034 61.7589L37.8568 60.9537L38.0103 60.1486C37.6372 60.0775 37.2623 60.1166 36.9111 60.2762L37.2502 61.0224ZM37.8568 60.9537L37.7034 61.7589L38.0244 61.8201L38.1778 61.0149L38.3312 60.2097L38.0103 60.1486L37.8568 60.9537ZM38.1778 61.0149L38.0244 61.8201L38.3454 61.8812L38.4988 61.076L38.6522 60.2709L38.3312 60.2097L38.1778 61.0149ZM38.4988 61.076L38.3454 61.8812C38.779 61.9639 39.1988 61.8709 39.5581 61.6256L39.096 60.9486L38.6338 60.2717C38.627 60.2764 38.6242 60.2774 38.6257 60.2767C38.6272 60.276 38.6314 60.2744 38.6375 60.2731C38.6437 60.2718 38.6492 60.2714 38.6531 60.2714C38.6568 60.2713 38.6568 60.2717 38.6522 60.2709L38.4988 61.076ZM39.096 60.9486L39.5581 61.6256L39.8344 61.437L39.3722 60.76L38.9101 60.0831L38.6338 60.2717L39.096 60.9486ZM39.3722 60.76L39.8344 61.437L40.1106 61.2484L39.6485 60.5714L39.1863 59.8945L38.9101 60.0831L39.3722 60.76ZM39.6485 60.5714L40.1106 61.2484C40.1937 61.1917 40.2627 61.1695 40.3243 61.1625L40.232 60.348L40.1398 59.5336C39.7916 59.573 39.4715 59.6998 39.1863 59.8945L39.6485 60.5714ZM40.232 60.348L40.3243 61.1625L40.6316 61.1277L40.5394 60.3132L40.4471 59.4988L40.1398 59.5336L40.232 60.348ZM40.5394 60.3132L40.6316 61.1277L40.939 61.0929L40.8467 60.2784L40.7544 59.4639L40.4471 59.4988L40.5394 60.3132ZM40.8467 60.2784L40.939 61.0929C41.1243 61.0719 41.3119 61.0574 41.5019 61.0494L41.4676 60.2304L41.4334 59.4115C41.2052 59.421 40.9788 59.4385 40.7544 59.4639L40.8467 60.2784ZM41.4676 60.2304L41.5019 61.0494L41.8156 61.0363L41.7813 60.2173L41.747 59.3984L41.4334 59.4115L41.4676 60.2304ZM41.7813 60.2173L41.8156 61.0363L42.1292 61.0231L42.095 60.2042L42.0607 59.3852L41.747 59.3984L41.7813 60.2173ZM42.095 60.2042L42.1292 61.0231C42.2744 61.0171 42.4206 61.0277 42.5693 61.056L42.7226 60.2508L42.8758 59.4456C42.6059 59.3942 42.3338 59.3738 42.0607 59.3852L42.095 60.2042ZM42.7226 60.2508L42.5693 61.056L42.8832 61.1158L43.0365 60.3106L43.1898 59.5054L42.8758 59.4456L42.7226 60.2508ZM43.0365 60.3106L42.8832 61.1158L43.1972 61.1756L43.3504 60.3704L43.5037 59.5652L43.1898 59.5054L43.0365 60.3106ZM43.3504 60.3704L43.1972 61.1756C43.1704 61.1705 43.0912 61.147 43.0147 61.0688C42.9394 60.9918 42.9205 60.9168 42.9175 60.9003L43.7236 60.7519L44.5297 60.6035C44.4872 60.3725 44.3864 60.1266 44.1867 59.9225C43.9858 59.7171 43.7397 59.6101 43.5037 59.5652L43.3504 60.3704ZM43.7236 60.7519L42.9175 60.9003L42.9767 61.222L43.7828 61.0736L44.589 60.9253L44.5297 60.6035L43.7236 60.7519ZM43.7828 61.0736L42.9767 61.222L43.0359 61.5438L43.842 61.3954L44.6482 61.247L44.589 60.9253L43.7828 61.0736ZM43.842 61.3954L43.0359 61.5438C43.1021 61.9036 43.3004 62.3551 43.7978 62.5618L44.1123 61.8048L44.4268 61.0479C44.5186 61.086 44.5853 61.1495 44.6233 61.2071C44.6555 61.2558 44.6543 61.2802 44.6482 61.247L43.842 61.3954ZM44.1123 61.8048L43.7978 62.5618L44.0089 62.6495L44.3234 61.8925L44.6379 61.1356L44.4268 61.0479L44.1123 61.8048ZM44.3234 61.8925L43.973 62.6336L44.2976 62.787L44.6479 62.046L44.9983 61.305L44.6737 61.1515L44.3234 61.8925ZM44.6479 62.046L44.4681 62.8457L44.5656 62.8676L44.7455 62.0679L44.9254 61.2682L44.8278 61.2463L44.6479 62.046Z" fill="#DCDCDC"/>
<path d="M26.0822 26.9851C26.6595 26.8455 27.7237 26.5402 28.1928 26.3814C28.108 26.3818 28.175 27.5119 28.175 27.5119C22.5997 27.5378 17.0348 29.5357 11.5047 30.1421C10.507 30.2515 9.53293 30.5252 8.52945 30.58C7.69919 30.6254 5.84079 31.033 6.5135 30.8053C6.61436 30.7711 6.94383 30.7879 7.42207 30.6505C8.24246 30.4149 8.57148 30.4136 9.32099 30.1743C11.5056 29.4769 12.2731 29.2819 12.9633 29.1079C13.4493 28.9855 13.8169 28.9364 14.1962 28.8572C14.5205 28.7894 14.9413 28.7345 15.305 28.6484C15.7115 28.5521 16.4632 28.4034 17.5338 28.1915L17.5906 28.1803C18.085 28.0825 18.5093 28.0154 18.9023 27.9582C19.407 27.8848 20.284 27.9197 21.1528 27.7519C22.2075 27.548 22.7919 27.5105 23.6102 27.3918C24.2626 27.2971 25.2156 27.1947 26.0822 26.9851Z" fill="#DCDCDC"/>
<path d="M27.4915 26.6811L27.2271 26.0623L27.4915 26.6811ZM26.9964 26.7806L26.9973 26.1077L26.9964 26.7806ZM26.735 26.7803L26.736 26.1073L26.735 26.7803ZM26.4737 26.7799L26.4727 27.4528L26.4737 26.7799ZM25.9796 26.8941L25.6825 26.2903L25.9796 26.8941ZM25.5142 27.1231L25.2171 26.5194L25.5142 27.1231ZM25.0348 27.3016L24.8659 26.6502L25.0348 27.3016ZM24.788 27.3656L24.9569 28.017L24.788 27.3656ZM24.5412 27.4296L24.7101 28.081L24.5412 27.4296ZM24.0376 27.4772L24.0805 26.8056L24.0376 27.4772ZM23.5238 27.4443L23.5667 26.7728L23.5238 27.4443ZM23.0164 27.4577L23.0959 28.126L23.0164 27.4577ZM22.5152 27.5174L22.5947 28.1856L22.5152 27.5174ZM20.0217 27.8968L19.8612 28.5503L20.0217 27.8968ZM19.507 27.7704L19.6674 27.1169L19.507 27.7704ZM18.7746 27.9887L18.4316 27.4098L18.7746 27.9887ZM18.5371 28.1295L18.8801 28.7084L18.5371 28.1295ZM18.0463 28.2822L18.0782 28.9544L18.0463 28.2822ZM17.793 28.2943L17.7611 27.6221L17.793 28.2943ZM17.5397 28.3063L17.5716 28.9785L17.5397 28.3063ZM17.0475 28.4098L16.8068 27.7814L17.0475 28.4098ZM16.0676 28.6582L16.0013 29.3279L16.0676 28.6582ZM15.5412 28.6061L15.4749 29.2758L15.5412 28.6061ZM15.0348 28.6474L15.2143 29.2959L15.0348 28.6474ZM14.0617 28.918L14.2443 29.5657L14.0617 28.918ZM12.8656 29.3237L12.6003 28.7052L12.8656 29.3237ZM12.1252 29.4799L12.0192 30.1445L12.1252 29.4799ZM11.0949 29.5324L10.6496 29.0279L11.0949 29.5324ZM9.69414 30.1323L9.73656 30.8039L9.69414 30.1323ZM8.96216 30.3494L8.69931 29.7299L8.96216 30.3494ZM8.72561 30.4498L8.46275 29.8303L8.72561 30.4498ZM7.68321 30.4521L7.60192 31.1201L7.68321 30.4521ZM6.99227 30.7423L6.58354 30.2077L6.99227 30.7423ZM7.4733 30.6017L7.41463 29.9313L7.4733 30.6017ZM8.48146 30.5004L8.57483 31.1668L8.48146 30.5004ZM8.97951 30.4306L9.07288 31.097L8.97951 30.4306ZM9.75316 30.4735L9.65447 31.1392L9.75316 30.4735ZM10.0155 30.5124L9.91679 31.1781L10.0155 30.5124ZM11.4813 30.113L11.5756 30.7793L11.4813 30.113ZM11.981 30.0423L11.8867 29.376L11.981 30.0423ZM12.4919 30.0448L12.3952 30.7107L12.4919 30.0448ZM13.0138 30.1205L13.1104 29.4545L13.0138 30.1205ZM13.7409 29.8805L13.3964 29.3025L13.7409 29.8805ZM13.9739 29.7416L14.3184 30.3197L13.9739 29.7416ZM14.4607 29.5889L14.4974 30.2608L14.4607 29.5889ZM14.7144 29.575L14.6777 28.9031L14.7144 29.575ZM14.9681 29.5612L15.0048 30.2331L14.9681 29.5612ZM15.4769 29.5353L15.5087 30.2074L15.4769 29.5353ZM16.4783 29.3959L16.2092 28.7791L16.4783 29.3959ZM17.4335 29.0298L17.5844 29.6856L17.4335 29.0298ZM18.4365 28.8948L18.5242 28.2276L18.4365 28.8948ZM18.9672 28.9646L18.8795 29.6318L18.9672 28.9646ZM19.6779 28.6632L20.0834 29.2003L19.6779 28.6632ZM19.9006 28.4951L19.4952 27.958V27.958L19.9006 28.4951ZM20.3921 28.3834L20.2537 29.042L20.3921 28.3834ZM20.9295 28.4964L21.0679 27.8379L20.9295 28.4964ZM21.4425 28.4895L21.6115 29.1409L21.4425 28.4895ZM21.6867 28.4261L21.5176 27.7748L21.6867 28.4261ZM21.9309 28.3627L21.7618 27.7114L21.9309 28.3627ZM22.4069 28.1575L22.7583 28.7314L22.4069 28.1575ZM22.8706 27.8736L22.5193 27.2997L22.8706 27.8736ZM23.3536 27.6958L23.2585 27.0297L23.3536 27.6958ZM23.856 27.6241L23.9511 28.2903L23.856 27.6241ZM24.3699 27.6518L24.528 26.9977L24.3699 27.6518ZM24.6327 27.7153L24.4746 28.3694L24.6327 27.7153ZM24.8954 27.7788L24.7373 28.4329L24.8954 27.7788ZM25.8992 27.6581L26.0615 28.3112L25.8992 27.6581ZM26.3979 27.5771L26.4502 28.248L26.3979 27.5771ZM26.6496 27.5575L26.5973 26.8866L26.6496 27.5575ZM26.9013 27.5379L26.9536 28.2088L26.9013 27.5379ZM27.4056 27.5297L27.436 26.8574L27.4056 27.5297ZM27.9107 27.5526L27.8803 28.2248L27.9107 27.5526ZM28.1884 27.3038L28.8582 27.3686L28.1884 27.3038ZM28.2388 26.7835L27.569 26.7187L28.2388 26.7835ZM28.2462 26.4879L27.6445 26.7892L28.2462 26.4879ZM28.2284 26.4524L28.8301 26.151L28.2284 26.4524ZM28.2106 26.4169L27.6089 26.7183L28.2106 26.4169ZM27.959 26.4813L28.2235 27.1001L27.959 26.4813ZM27.7253 26.5812L27.4608 25.9624L27.2271 26.0623L27.4915 26.6811L27.7559 27.2999L27.9897 27.2L27.7253 26.5812ZM27.4915 26.6811L27.2271 26.0623C27.1574 26.092 27.0829 26.1078 26.9973 26.1077L26.9964 26.7806L26.9954 27.4536C27.2582 27.4539 27.5138 27.4033 27.7559 27.2999L27.4915 26.6811ZM26.9964 26.7806L26.9973 26.1077L26.736 26.1073L26.735 26.7803L26.7341 27.4532L26.9954 27.4536L26.9964 26.7806ZM26.735 26.7803L26.736 26.1073L26.4746 26.107L26.4737 26.7799L26.4727 27.4528L26.7341 27.4532L26.735 26.7803ZM26.4737 26.7799L26.4746 26.107C26.1979 26.1066 25.9311 26.1679 25.6825 26.2903L25.9796 26.8941L26.2768 27.4978C26.3385 27.4675 26.4011 27.4527 26.4727 27.4528L26.4737 26.7799ZM25.9796 26.8941L25.6825 26.2903L25.4498 26.4048L25.7469 27.0086L26.0441 27.6124L26.2768 27.4978L25.9796 26.8941ZM25.7469 27.0086L25.4498 26.4048L25.2171 26.5194L25.5142 27.1231L25.8114 27.7269L26.0441 27.6124L25.7469 27.0086ZM25.5142 27.1231L25.2171 26.5194C25.1023 26.5759 24.9854 26.6193 24.8659 26.6502L25.0348 27.3016L25.2037 27.953C25.4132 27.8987 25.616 27.8231 25.8114 27.7269L25.5142 27.1231ZM25.0348 27.3016L24.8659 26.6502L24.6191 26.7142L24.788 27.3656L24.9569 28.017L25.2037 27.953L25.0348 27.3016ZM24.788 27.3656L24.6191 26.7142L24.3723 26.7782L24.5412 27.4296L24.7101 28.081L24.9569 28.017L24.788 27.3656ZM24.5412 27.4296L24.3723 26.7782C24.2776 26.8028 24.1812 26.812 24.0805 26.8056L24.0376 27.4772L23.9946 28.1487C24.2364 28.1642 24.4758 28.1417 24.7101 28.081L24.5412 27.4296ZM24.0376 27.4772L24.0805 26.8056L23.8236 26.7892L23.7807 27.4607L23.7378 28.1323L23.9946 28.1487L24.0376 27.4772ZM23.7807 27.4607L23.8236 26.7892L23.5667 26.7728L23.5238 27.4443L23.4809 28.1159L23.7378 28.1323L23.7807 27.4607ZM23.5238 27.4443L23.5667 26.7728C23.3555 26.7593 23.1453 26.7647 22.9368 26.7895L23.0164 27.4577L23.0959 28.126C23.2215 28.111 23.3497 28.1075 23.4809 28.1159L23.5238 27.4443ZM23.0164 27.4577L22.9368 26.7895L22.6862 26.8193L22.7658 27.4876L22.8453 28.1558L23.0959 28.126L23.0164 27.4577ZM22.7658 27.4876L22.6862 26.8193L22.4357 26.8492L22.5152 27.5174L22.5947 28.1856L22.8453 28.1558L22.7658 27.4876ZM22.5152 27.5174L22.4357 26.8492C22.2169 26.8752 22.0031 26.9262 21.7952 27.0014L22.0241 27.6342L22.253 28.267C22.3657 28.2263 22.4793 28.1993 22.5947 28.1856L22.5152 27.5174ZM22.0241 27.6342L21.7952 27.0014L21.5546 27.0884L21.7835 27.7212L22.0124 28.354L22.253 28.267L22.0241 27.6342ZM21.7835 27.7212L21.5546 27.0884L21.3141 27.1754L21.543 27.8082L21.7719 28.441L22.0124 28.354L21.7835 27.7212ZM21.543 27.8082L21.3141 27.1754C21.2139 27.2117 21.1112 27.233 21.0041 27.2398L21.0466 27.9114L21.089 28.583C21.3232 28.5682 21.5514 28.5208 21.7719 28.441L21.543 27.8082ZM21.0466 27.9114L21.0041 27.2398L20.7483 27.256L20.7907 27.9276L20.8332 28.5992L21.089 28.583L21.0466 27.9114ZM20.7907 27.9276L20.7483 27.256L20.4924 27.2722L20.5349 27.9438L20.5773 28.6154L20.8332 28.5992L20.7907 27.9276ZM20.5349 27.9438L20.4924 27.2722C20.3922 27.2785 20.2896 27.2696 20.1821 27.2432L20.0217 27.8968L19.8612 28.5503C20.0969 28.6081 20.3363 28.6306 20.5773 28.6154L20.5349 27.9438ZM20.0217 27.8968L20.1821 27.2432L19.9247 27.1801L19.7643 27.8336L19.6039 28.4871L19.8612 28.5503L20.0217 27.8968ZM19.7643 27.8336L19.9247 27.1801L19.6674 27.1169L19.507 27.7704L19.3466 28.424L19.6039 28.4871L19.7643 27.8336ZM19.507 27.7704L19.6674 27.1169C19.3169 27.0309 18.972 27.0896 18.6691 27.2691L19.0121 27.848L19.3551 28.427C19.3587 28.4248 19.3614 28.4235 19.3631 28.4226C19.3648 28.4218 19.3657 28.4215 19.3657 28.4215C19.3658 28.4215 19.3651 28.4217 19.3638 28.422C19.3626 28.4224 19.3609 28.4228 19.3588 28.4231C19.3545 28.4238 19.3503 28.4239 19.3471 28.4238C19.344 28.4236 19.3436 28.4233 19.3466 28.424L19.507 27.7704ZM19.0121 27.848L18.6691 27.2691L18.4316 27.4098L18.7746 27.9887L19.1176 28.5677L19.3551 28.427L19.0121 27.848ZM18.7746 27.9887L18.4316 27.4098L18.194 27.5505L18.5371 28.1295L18.8801 28.7084L19.1176 28.5677L18.7746 27.9887ZM18.5371 28.1295L18.194 27.5505C18.1216 27.5934 18.0639 27.6077 18.0143 27.6101L18.0463 28.2822L18.0782 28.9544C18.3664 28.9407 18.6358 28.8532 18.8801 28.7084L18.5371 28.1295ZM18.0463 28.2822L18.0143 27.6101L17.7611 27.6221L17.793 28.2943L17.8249 28.9665L18.0782 28.9544L18.0463 28.2822ZM17.793 28.2943L17.7611 27.6221L17.5078 27.6341L17.5397 28.3063L17.5716 28.9785L17.8249 28.9665L17.793 28.2943ZM17.5397 28.3063L17.5078 27.6341C17.2668 27.6456 17.0323 27.6951 16.8068 27.7814L17.0475 28.4098L17.2882 29.0383C17.3813 29.0026 17.4749 28.9831 17.5716 28.9785L17.5397 28.3063ZM17.0475 28.4098L16.8068 27.7814L16.5679 27.8729L16.8086 28.5013L17.0493 29.1298L17.2882 29.0383L17.0475 28.4098ZM16.8086 28.5013L16.5679 27.8729L16.329 27.9644L16.5697 28.5928L16.8104 29.2213L17.0493 29.1298L16.8086 28.5013ZM16.5697 28.5928L16.329 27.9644C16.2709 27.9867 16.2089 27.996 16.134 27.9886L16.0676 28.6582L16.0013 29.3279C16.2773 29.3552 16.55 29.321 16.8104 29.2213L16.5697 28.5928ZM16.0676 28.6582L16.134 27.9886L15.8708 27.9625L15.8044 28.6322L15.7381 29.3018L16.0013 29.3279L16.0676 28.6582ZM15.8044 28.6322L15.8708 27.9625L15.6076 27.9364L15.5412 28.6061L15.4749 29.2758L15.7381 29.3018L15.8044 28.6322ZM15.5412 28.6061L15.6076 27.9364C15.3535 27.9113 15.1012 27.9307 14.8552 27.9988L15.0348 28.6474L15.2143 29.2959C15.2927 29.2742 15.378 29.2662 15.4749 29.2758L15.5412 28.6061ZM15.0348 28.6474L14.8552 27.9988L14.612 28.0661L14.7915 28.7147L14.971 29.3632L15.2143 29.2959L15.0348 28.6474ZM14.7915 28.7147L14.612 28.0661L14.3687 28.1335L14.5482 28.782L14.7278 29.4306L14.971 29.3632L14.7915 28.7147ZM14.5482 28.782L14.3687 28.1335C14.2055 28.1787 14.0423 28.2243 13.8791 28.2703L14.0617 28.918L14.2443 29.5657C14.4054 29.5202 14.5666 29.4752 14.7278 29.4306L14.5482 28.782ZM14.0617 28.918L13.8791 28.2703L13.6358 28.3388L13.8184 28.9865L14.001 29.6342L14.2443 29.5657L14.0617 28.918ZM13.8184 28.9865L13.6358 28.3388L13.3925 28.4074L13.5751 29.0551L13.7577 29.7028L14.001 29.6342L13.8184 28.9865ZM13.5751 29.0551L13.3925 28.4074C13.2021 28.4611 13.0156 28.5271 12.8334 28.6052L13.0987 29.2237L13.364 29.8421C13.4926 29.787 13.6238 29.7406 13.7577 29.7028L13.5751 29.0551ZM13.0987 29.2237L12.8334 28.6052L12.6003 28.7052L12.8656 29.3237L13.1308 29.9421L13.364 29.8421L13.0987 29.2237ZM12.8656 29.3237L12.6003 28.7052L12.3672 28.8052L12.6324 29.4237L12.8977 30.0421L13.1308 29.9421L12.8656 29.3237ZM12.6324 29.4237L12.3672 28.8052C12.3396 28.8171 12.3006 28.8265 12.2313 28.8154L12.1252 29.4799L12.0192 30.1445C12.3153 30.1917 12.6145 30.1636 12.8977 30.0421L12.6324 29.4237ZM12.1252 29.4799L12.2313 28.8154L11.9572 28.7717L11.8512 29.4362L11.7451 30.1008L12.0192 30.1445L12.1252 29.4799ZM11.8512 29.4362L11.9572 28.7717L11.6831 28.728L11.5771 29.3925L11.4711 30.057L11.7451 30.1008L11.8512 29.4362ZM11.5771 29.3925L11.6831 28.728C11.302 28.6672 10.939 28.7724 10.6496 29.0279L11.0949 29.5324L11.5402 30.0369C11.5424 30.0351 11.5404 30.0372 11.5339 30.0408C11.5273 30.0445 11.5181 30.0487 11.507 30.0519C11.4959 30.0551 11.4859 30.0565 11.4784 30.0569C11.471 30.0573 11.4682 30.0566 11.4711 30.057L11.5771 29.3925ZM11.0949 29.5324L10.6496 29.0279L10.4416 29.2115L10.8869 29.716L11.3322 30.2206L11.5402 30.0369L11.0949 29.5324ZM10.8869 29.716L10.4416 29.2115L10.2335 29.3951L10.6788 29.8996L11.1241 30.4042L11.3322 30.2206L10.8869 29.716ZM10.6788 29.8996L10.2335 29.3951C10.1985 29.426 10.1822 29.4272 10.1695 29.428L10.2119 30.0996L10.2543 30.7712C10.5868 30.7502 10.8817 30.6181 11.1241 30.4042L10.6788 29.8996ZM10.2119 30.0996L10.1695 29.428L9.91061 29.4444L9.95302 30.116L9.99543 30.7876L10.2543 30.7712L10.2119 30.0996ZM9.95302 30.116L9.91061 29.4444L9.65173 29.4607L9.69414 30.1323L9.73656 30.8039L9.99543 30.7876L9.95302 30.116ZM9.69414 30.1323L9.65173 29.4607C9.40398 29.4764 9.16424 29.5326 8.93586 29.6296L9.19871 30.249L9.46157 30.8685C9.54859 30.8316 9.63914 30.8101 9.73656 30.8039L9.69414 30.1323ZM9.19871 30.249L8.93586 29.6296L8.69931 29.7299L8.96216 30.3494L9.22502 30.9689L9.46157 30.8685L9.19871 30.249ZM8.96216 30.3494L8.69931 29.7299L8.46275 29.8303L8.72561 30.4498L8.98846 31.0693L9.22502 30.9689L8.96216 30.3494ZM8.72561 30.4498L8.46275 29.8303C8.41937 29.8487 8.37027 29.8578 8.30173 29.8495L8.22044 30.5175L8.13915 31.1855C8.42876 31.2207 8.71645 31.1847 8.98846 31.0693L8.72561 30.4498ZM8.22044 30.5175L8.30173 29.8495L8.03311 29.8168L7.95182 30.4848L7.87054 31.1528L8.13915 31.1855L8.22044 30.5175ZM7.95182 30.4848L8.03311 29.8168L7.7645 29.7841L7.68321 30.4521L7.60192 31.1201L7.87054 31.1528L7.95182 30.4848ZM7.68321 30.4521L7.7645 29.7841C7.41444 29.7415 7.07791 29.8297 6.7947 30.0463L7.20343 30.5809L7.61216 31.1154C7.61553 31.1129 7.61611 31.1129 7.61387 31.114C7.61154 31.1152 7.60787 31.1167 7.60338 31.1179C7.59891 31.1191 7.59563 31.1194 7.59435 31.1195C7.5932 31.1196 7.59549 31.1193 7.60192 31.1201L7.68321 30.4521ZM7.20343 30.5809L6.7947 30.0463L6.58354 30.2077L6.99227 30.7423L7.401 31.2769L7.61216 31.1154L7.20343 30.5809ZM6.99227 30.7423L6.58354 30.2077L6.37237 30.3692L6.7811 30.9037L7.18983 31.4383L7.401 31.2769L6.99227 30.7423ZM6.7811 30.9037L6.37237 30.3692C6.33597 30.397 6.30477 30.4211 6.28036 30.4405C6.27615 30.4439 6.21977 30.4872 6.17563 30.5336C6.16674 30.543 6.14502 30.5662 6.12109 30.5986C6.1092 30.6146 6.08821 30.6444 6.06697 30.6846C6.05054 30.7157 6.00624 30.8034 5.99282 30.9264C5.97741 31.0678 6.00247 31.3154 6.21691 31.5044C6.39582 31.6621 6.59232 31.6721 6.6573 31.6726C6.79186 31.6735 6.89351 31.6317 6.89961 31.6294C6.95038 31.6104 6.9887 31.5886 6.9939 31.5857C7.0076 31.5781 7.01909 31.5712 7.02631 31.5667C7.05252 31.5507 7.08335 31.53 7.11041 31.5117L6.73252 30.9549L6.35462 30.398C6.32749 30.4165 6.3197 30.4213 6.32286 30.4193C6.32432 30.4184 6.33103 30.4143 6.34091 30.4089C6.34229 30.4081 6.37777 30.3877 6.42667 30.3694C6.43184 30.3674 6.5328 30.3258 6.6669 30.3267C6.73167 30.3272 6.92801 30.3371 7.10681 30.4947C7.32114 30.6837 7.34617 30.9312 7.33077 31.0723C7.31738 31.1952 7.27315 31.2827 7.25686 31.3135C7.23577 31.3534 7.21498 31.3829 7.20335 31.3986C7.17995 31.4303 7.159 31.4526 7.15111 31.4609C7.11508 31.4988 7.08236 31.5223 7.1174 31.4944C7.13223 31.4827 7.15585 31.4643 7.18983 31.4383L6.7811 30.9037ZM6.73252 30.9549L7.11041 31.5117L7.27299 31.4013L6.89509 30.8445L6.5172 30.2877L6.35462 30.398L6.73252 30.9549ZM6.89509 30.8445L7.27299 31.4013L7.43556 31.291L7.05767 30.7342L6.67978 30.1774L6.5172 30.2877L6.89509 30.8445ZM7.05767 30.7342L7.43556 31.291C7.42512 31.2981 7.44499 31.2797 7.53196 31.2721L7.4733 30.6017L7.41463 29.9313C7.1642 29.9532 6.90699 30.0232 6.67978 30.1774L7.05767 30.7342ZM7.4733 30.6017L7.53196 31.2721L7.78501 31.2499L7.72634 30.5796L7.66768 29.9092L7.41463 29.9313L7.4733 30.6017ZM7.72634 30.5796L7.78501 31.2499L8.03806 31.2278L7.97939 30.5574L7.92072 29.887L7.66768 29.9092L7.72634 30.5796ZM7.97939 30.5574L8.03806 31.2278C8.21824 31.212 8.39717 31.1917 8.57483 31.1668L8.48146 30.5004L8.3881 29.834C8.23373 29.8556 8.07794 29.8733 7.92072 29.887L7.97939 30.5574ZM8.48146 30.5004L8.57483 31.1668L8.82385 31.1319L8.73049 30.4655L8.63712 29.7991L8.3881 29.834L8.48146 30.5004ZM8.73049 30.4655L8.82385 31.1319L9.07288 31.097L8.97951 30.4306L8.88614 29.7642L8.63712 29.7991L8.73049 30.4655ZM8.97951 30.4306L9.07288 31.097C9.17177 31.0832 9.27745 31.0833 9.39215 31.1003L9.49084 30.4346L9.58954 29.7689C9.35449 29.7341 9.11927 29.7315 8.88614 29.7642L8.97951 30.4306ZM9.49084 30.4346L9.39215 31.1003L9.65447 31.1392L9.75316 30.4735L9.85185 29.8078L9.58954 29.7689L9.49084 30.4346ZM9.75316 30.4735L9.65447 31.1392L9.91679 31.1781L10.0155 30.5124L10.1142 29.8467L9.85185 29.8078L9.75316 30.4735ZM10.0155 30.5124L9.91679 31.1781C10.2106 31.2216 10.5025 31.1869 10.7781 31.0704L10.5162 30.4505L10.2543 29.8307C10.212 29.8485 10.1701 29.855 10.1142 29.8467L10.0155 30.5124ZM10.5162 30.4505L10.7781 31.0704L11.0165 30.9697L10.7546 30.3498L10.4927 29.7299L10.2543 29.8307L10.5162 30.4505ZM10.7546 30.3498L11.0165 30.9697L11.2549 30.869L10.993 30.2491L10.7311 29.6292L10.4927 29.7299L10.7546 30.3498ZM10.993 30.2491L11.2549 30.869C11.3616 30.8239 11.4681 30.7945 11.5756 30.7793L11.4813 30.113L11.387 29.4467C11.1613 29.4786 10.9423 29.54 10.7311 29.6292L10.993 30.2491ZM11.4813 30.113L11.5756 30.7793L11.8255 30.7439L11.7312 30.0776L11.6369 29.4113L11.387 29.4467L11.4813 30.113ZM11.7312 30.0776L11.8255 30.7439L12.0753 30.7086L11.981 30.0423L11.8867 29.376L11.6369 29.4113L11.7312 30.0776ZM11.981 30.0423L12.0753 30.7086C12.1758 30.6943 12.2817 30.6943 12.3952 30.7107L12.4919 30.0448L12.5885 29.3788C12.3541 29.3448 12.1194 29.343 11.8867 29.376L11.981 30.0423ZM12.4919 30.0448L12.3952 30.7107L12.6562 30.7486L12.7528 30.0826L12.8494 29.4166L12.5885 29.3788L12.4919 30.0448ZM12.7528 30.0826L12.6562 30.7486L12.9171 30.7864L13.0138 30.1205L13.1104 29.4545L12.8494 29.4166L12.7528 30.0826ZM13.0138 30.1205L12.9171 30.7864C13.2486 30.8345 13.5685 30.7666 13.8523 30.5975L13.5078 30.0194L13.1633 29.4414C13.1455 29.452 13.1358 29.4542 13.1329 29.4548C13.1302 29.4554 13.124 29.4565 13.1104 29.4545L13.0138 30.1205ZM13.5078 30.0194L13.8523 30.5975L14.0854 30.4586L13.7409 29.8805L13.3964 29.3025L13.1633 29.4414L13.5078 30.0194ZM13.7409 29.8805L14.0854 30.4586L14.3184 30.3197L13.9739 29.7416L13.6294 29.1636L13.3964 29.3025L13.7409 29.8805ZM13.9739 29.7416L14.3184 30.3197C14.3868 30.2789 14.4443 30.2637 14.4974 30.2608L14.4607 29.5889L14.424 28.9169C14.1389 28.9325 13.8718 29.0191 13.6294 29.1636L13.9739 29.7416ZM14.4607 29.5889L14.4974 30.2608L14.7511 30.247L14.7144 29.575L14.6777 28.9031L14.424 28.9169L14.4607 29.5889ZM14.7144 29.575L14.7511 30.247L15.0048 30.2331L14.9681 29.5612L14.9315 28.8892L14.6777 28.9031L14.7144 29.575ZM14.9681 29.5612L15.0048 30.2331C15.1723 30.224 15.3403 30.2154 15.5087 30.2074L15.4769 29.5353L15.4451 28.8631C15.2734 28.8712 15.1022 28.8799 14.9315 28.8892L14.9681 29.5612ZM15.4769 29.5353L15.5087 30.2074L15.7637 30.1954L15.7319 29.5232L15.7001 28.851L15.4451 28.8631L15.4769 29.5353ZM15.7319 29.5232L15.7637 30.1954L16.0187 30.1833L15.9869 29.5111L15.9551 28.8389L15.7001 28.851L15.7319 29.5232ZM15.9869 29.5111L16.0187 30.1833C16.2714 30.1714 16.5155 30.1139 16.7474 30.0127L16.4783 29.3959L16.2092 28.7791C16.1258 28.8155 16.0424 28.8348 15.9551 28.8389L15.9869 29.5111ZM16.4783 29.3959L16.7474 30.0127L16.9839 29.9095L16.7147 29.2927L16.4456 28.6759L16.2092 28.7791L16.4783 29.3959ZM16.7147 29.2927L16.9839 29.9095L17.2203 29.8063L16.9512 29.1895L16.682 28.5728L16.4456 28.6759L16.7147 29.2927ZM16.9512 29.1895L17.2203 29.8063C17.3407 29.7538 17.4619 29.7138 17.5844 29.6856L17.4335 29.0298L17.2826 28.374C17.0772 28.4212 16.8769 28.4877 16.682 28.5728L16.9512 29.1895ZM17.4335 29.0298L17.5844 29.6856L17.8303 29.629L17.6794 28.9732L17.5285 28.3174L17.2826 28.374L17.4335 29.0298ZM17.6794 28.9732L17.8303 29.629L18.0762 29.5724L17.9253 28.9166L17.7744 28.2608L17.5285 28.3174L17.6794 28.9732ZM17.9253 28.9166L18.0762 29.5724C18.1573 29.5537 18.2467 29.5486 18.3488 29.562L18.4365 28.8948L18.5242 28.2276C18.2726 28.1946 18.0212 28.204 17.7744 28.2608L17.9253 28.9166ZM18.4365 28.8948L18.3488 29.562L18.6142 29.5969L18.7019 28.9297L18.7896 28.2625L18.5242 28.2276L18.4365 28.8948ZM18.7019 28.9297L18.6142 29.5969L18.8795 29.6318L18.9672 28.9646L19.0549 28.2974L18.7896 28.2625L18.7019 28.9297ZM18.9672 28.9646L18.8795 29.6318C19.2396 29.6791 19.578 29.5818 19.8607 29.3684L19.4552 28.8313L19.0498 28.2943C19.0428 28.2995 19.0391 28.3014 19.0388 28.3015C19.0386 28.3016 19.0407 28.3006 19.0446 28.2995C19.0486 28.2985 19.0524 28.2979 19.0553 28.2977C19.0582 28.2975 19.0583 28.2978 19.0549 28.2974L18.9672 28.9646ZM19.4552 28.8313L19.8607 29.3684L20.0834 29.2003L19.6779 28.6632L19.2725 28.1261L19.0498 28.2943L19.4552 28.8313ZM19.6779 28.6632L20.0834 29.2003L20.3061 29.0322L19.9006 28.4951L19.4952 27.958L19.2725 28.1261L19.6779 28.6632ZM19.9006 28.4951L20.3061 29.0322C20.3099 29.0293 20.3096 29.03 20.3051 29.0322C20.3004 29.0344 20.2932 29.0372 20.2839 29.0393C20.2747 29.0414 20.2662 29.0422 20.2597 29.0422C20.2534 29.0422 20.2511 29.0415 20.2537 29.042L20.3921 28.3834L20.5305 27.7249C20.1575 27.6465 19.796 27.7309 19.4952 27.958L19.9006 28.4951ZM20.3921 28.3834L20.2537 29.042L20.5224 29.0985L20.6608 28.4399L20.7992 27.7814L20.5305 27.7249L20.3921 28.3834ZM20.6608 28.4399L20.5224 29.0985L20.7911 29.155L20.9295 28.4964L21.0679 27.8379L20.7992 27.7814L20.6608 28.4399ZM20.9295 28.4964L20.7911 29.155C21.0628 29.2121 21.3395 29.2115 21.6115 29.1409L21.4425 28.4895L21.2734 27.8381C21.2198 27.852 21.1546 27.8561 21.0679 27.8379L20.9295 28.4964ZM21.4425 28.4895L21.6115 29.1409L21.8557 29.0775L21.6867 28.4261L21.5176 27.7748L21.2734 27.8381L21.4425 28.4895ZM21.6867 28.4261L21.8557 29.0775L22.0999 29.0141L21.9309 28.3627L21.7618 27.7114L21.5176 27.7748L21.6867 28.4261ZM21.9309 28.3627L22.0999 29.0141C22.3318 28.9539 22.5515 28.858 22.7583 28.7314L22.4069 28.1575L22.0556 27.5835C21.9533 27.6461 21.8556 27.687 21.7618 27.7114L21.9309 28.3627ZM22.4069 28.1575L22.7583 28.7314L22.9901 28.5895L22.6388 28.0155L22.2874 27.4416L22.0556 27.5835L22.4069 28.1575ZM22.6388 28.0155L22.9901 28.5895L23.2219 28.4476L22.8706 27.8736L22.5193 27.2997L22.2874 27.4416L22.6388 28.0155ZM22.8706 27.8736L23.2219 28.4476C23.3039 28.3974 23.3784 28.3721 23.4487 28.362L23.3536 27.6958L23.2585 27.0297C22.9939 27.0674 22.7464 27.1606 22.5193 27.2997L22.8706 27.8736ZM23.3536 27.6958L23.4487 28.362L23.6999 28.3262L23.6048 27.66L23.5097 26.9938L23.2585 27.0297L23.3536 27.6958ZM23.6048 27.66L23.6999 28.3262L23.9511 28.2903L23.856 27.6241L23.7609 26.958L23.5097 26.9938L23.6048 27.66ZM23.856 27.6241L23.9511 28.2903C24.0287 28.2792 24.1141 28.2823 24.2118 28.3059L24.3699 27.6518L24.528 26.9977C24.2754 26.9366 24.0181 26.9212 23.7609 26.958L23.856 27.6241ZM24.3699 27.6518L24.2118 28.3059L24.4746 28.3694L24.6327 27.7153L24.7907 27.0612L24.528 26.9977L24.3699 27.6518ZM24.6327 27.7153L24.4746 28.3694L24.7373 28.4329L24.8954 27.7788L25.0535 27.1247L24.7907 27.0612L24.6327 27.7153ZM24.8954 27.7788L24.7373 28.4329C25.0111 28.499 25.2911 28.5026 25.5675 28.434L25.4052 27.7809L25.2429 27.1278C25.1899 27.141 25.13 27.1432 25.0535 27.1247L24.8954 27.7788ZM25.4052 27.7809L25.5675 28.434L25.8145 28.3726L25.6522 27.7195L25.4899 27.0664L25.2429 27.1278L25.4052 27.7809ZM25.6522 27.7195L25.8145 28.3726L26.0615 28.3112L25.8992 27.6581L25.7369 27.005L25.4899 27.0664L25.6522 27.7195ZM25.8992 27.6581L26.0615 28.3112C26.1903 28.2792 26.3198 28.2582 26.4502 28.248L26.3979 27.5771L26.3456 26.9062C26.1404 26.9222 25.9374 26.9552 25.7369 27.005L25.8992 27.6581ZM26.3979 27.5771L26.4502 28.248L26.7019 28.2284L26.6496 27.5575L26.5973 26.8866L26.3456 26.9062L26.3979 27.5771ZM26.6496 27.5575L26.7019 28.2284L26.9536 28.2088L26.9013 27.5379L26.8491 26.867L26.5973 26.8866L26.6496 27.5575ZM26.9013 27.5379L26.9536 28.2088C27.0939 28.1979 27.2344 28.1956 27.3752 28.2019L27.4056 27.5297L27.436 26.8574C27.2401 26.8486 27.0444 26.8517 26.8491 26.867L26.9013 27.5379ZM27.4056 27.5297L27.3752 28.2019L27.6277 28.2134L27.6581 27.5411L27.6886 26.8689L27.436 26.8574L27.4056 27.5297ZM27.6581 27.5411L27.6277 28.2134L27.8803 28.2248L27.9107 27.5526L27.9411 26.8803L27.6886 26.8689L27.6581 27.5411ZM27.9107 27.5526L27.8803 28.2248C28.0763 28.2337 28.3367 28.1932 28.5554 27.9974C28.7703 27.8049 28.8401 27.5557 28.8582 27.3686L28.1884 27.3038L27.5186 27.239C27.5199 27.2254 27.5351 27.1044 27.6574 26.9948C27.7835 26.8819 27.9135 26.879 27.9411 26.8803L27.9107 27.5526ZM28.1884 27.3038L28.8582 27.3686L28.8834 27.1085L28.2136 27.0437L27.5438 26.9788L27.5186 27.239L28.1884 27.3038ZM28.2136 27.0437L28.8834 27.1085L28.9086 26.8483L28.2388 26.7835L27.569 26.7187L27.5438 26.9788L28.2136 27.0437ZM28.2388 26.7835L28.9086 26.8483C28.9175 26.7557 28.9241 26.6693 28.9259 26.5963C28.9268 26.5608 28.927 26.5155 28.9233 26.4681C28.922 26.4507 28.9154 26.3213 28.8478 26.1865L28.2462 26.4879L27.6445 26.7892C27.6241 26.7485 27.6118 26.7132 27.6045 26.6893C27.597 26.6646 27.5923 26.6438 27.5895 26.6291C27.5839 26.6008 27.5821 26.5797 27.5814 26.5712C27.5801 26.5543 27.5808 26.5489 27.5805 26.5627C27.5798 26.5883 27.5768 26.6378 27.569 26.7187L28.2388 26.7835ZM28.2462 26.4879L28.8478 26.1865L28.8301 26.151L28.2284 26.4524L27.6267 26.7538L27.6445 26.7892L28.2462 26.4879ZM28.2284 26.4524L28.8301 26.151L28.8123 26.1155L28.2106 26.4169L27.6089 26.7183L27.6267 26.7538L28.2284 26.4524ZM28.2106 26.4169L28.8123 26.1155C28.6291 25.7497 28.2603 25.7361 28.2036 25.7348C28.0995 25.7325 28.0127 25.7529 27.9719 25.7633C27.8785 25.7872 27.7803 25.8259 27.6946 25.8625L27.959 26.4813L28.2235 27.1001C28.2937 27.0701 28.3153 27.0647 28.3057 27.0672C28.301 27.0684 28.2883 27.0715 28.2698 27.0743C28.2529 27.077 28.2184 27.0814 28.1728 27.0804C28.1319 27.0794 28.0459 27.0736 27.9451 27.0318C27.8338 26.9856 27.695 26.8901 27.6089 26.7183L28.2106 26.4169ZM27.959 26.4813L27.6946 25.8625L27.4608 25.9624L27.7253 26.5812L27.9897 27.2L28.2235 27.1001L27.959 26.4813Z" fill="#DCDCDC"/>
</svg>
