<svg width="41" height="33" viewBox="0 0 41 33" fill="none" xmlns="http://www.w3.org/2000/svg">
<path d="M28.9171 16.7984C28.7109 16.7324 28.4473 16.6998 28.3658 16.7492C28.3153 16.7819 28.1675 16.6667 28.1178 16.6501C28.0191 16.6172 27.7714 16.4021 27.3585 16.097C26.9308 15.8256 26.7346 15.6591 25.7907 15.0408C25.0517 14.5567 24.7514 14.4356 24.3666 14.3008C23.7305 14.0781 23.1426 13.8846 22.6011 13.8894C21.623 13.8981 21.1218 13.7363 20.1865 14.196L20.1846 14.1969C19.3131 14.6253 18.8575 14.8492 18.5137 15.4117C17.995 16.2602 17.6555 17.114 17.37 17.4761C17.2538 17.6235 17.1239 17.6646 16.9739 17.6724C16.6614 17.6888 16.4091 17.6996 16.3078 17.597C16.25 17.5384 16.2034 17.4395 16.1597 17.3411C15.9691 16.9114 15.7664 16.5543 15.6655 16.3529C15.5409 16.1044 15.2885 15.7003 15.0306 15.4216C14.7309 15.0977 14.2698 14.6422 13.8928 14.4989C13.4779 14.3411 12.9643 14.1127 12.5574 13.9962C12.211 13.8971 11.6509 13.7593 11.2557 13.7245C10.7899 13.6835 10.1315 13.6717 9.55689 13.7413C9.07897 13.7992 8.48395 13.8833 7.82274 13.9643C7.0155 14.0632 6.39531 14.1778 6.16177 14.2195C5.93159 14.2605 5.3328 14.3721 4.65138 14.7899C3.95416 15.2173 3.58291 15.5485 3.30293 15.9509C3.11354 16.2231 3.00217 16.4463 2.89943 16.6595C2.78421 16.8986 2.55375 17.1072 2.18119 17.8898C1.8447 18.5966 1.81453 19.1576 1.85335 19.6024C1.89513 20.0811 2.15494 20.7427 2.39778 21.1511C2.55478 21.4152 2.67419 21.8344 3.0992 22.1238C3.46165 22.3705 3.70385 22.4748 4.0219 22.6341C4.28546 22.7661 4.50499 22.9301 4.97873 23.071C5.50683 23.228 6.47096 23.4097 7.12057 23.5321C7.25186 23.5568 8.17758 23.6463 9.48148 23.5647C10.1372 23.5237 10.5315 23.4531 10.9531 23.3338C11.2745 23.2428 11.7853 23.114 12.3962 22.822C13.1753 22.4496 14.0104 22.0213 14.5222 21.8004C14.9999 21.5942 15.3298 21.1253 15.8484 20.9434C16.153 20.8366 16.4515 20.816 17.1232 20.7123C18.1364 20.5558 18.8284 20.4632 18.9303 20.516C19.1694 20.6398 19.3584 20.8158 19.6144 20.9941C19.9121 21.2016 20.4394 21.6289 20.8852 21.9018C21.5429 22.3043 21.8096 22.4298 22.0371 22.5433C22.3529 22.7008 23.006 22.9758 23.6155 22.9716C24.8559 22.9629 25.3084 23.0328 25.7794 22.8722C26.1426 22.7483 26.6124 22.5618 26.9243 22.3033C27.1642 22.1045 27.4087 21.8546 27.7899 21.5366C28.0374 21.3301 28.2637 21.065 28.457 20.7288C28.614 20.4559 28.5541 19.533 29.1208 19.4847C29.8873 19.4195 30.8444 19.1347 31.0449 19.4778C31.1853 19.7181 31.3487 20.0138 31.4899 20.2282C31.6966 20.5419 31.9428 20.884 32.3231 21.3499C32.6856 21.794 33.0537 22.0485 33.4535 22.3057C34.169 22.7661 34.4046 22.9989 35.398 23.3597C35.6683 23.4579 36.1359 23.5945 36.7168 23.4574C37.1359 23.3585 37.3944 23.3207 37.5639 23.1189C37.7787 22.863 38.0039 22.5303 38.2396 22.2041C38.4552 21.9057 38.6941 21.5496 38.8327 21.2233C38.9487 20.9504 39.2637 20.6091 39.2693 19.9928C39.277 19.1544 39.2467 18.8854 39.1865 18.6357C39.1287 18.3959 39.0814 18.1283 38.9885 17.8191C38.8664 17.4127 38.6793 17.0517 38.549 16.8003L38.5434 16.7895C38.4196 16.5505 38.3789 16.285 38.2055 16.0644C38.0566 15.875 37.4667 15.1414 36.9522 14.8697C36.6384 14.7041 36.2875 14.4527 36.0295 14.3342C35.8314 14.2432 35.444 14.0278 35.0071 13.9799C34.5587 13.9307 33.9595 13.9341 33.5645 14.0795C33.1603 14.2284 32.8491 14.3964 32.6173 14.5411C32.3533 14.706 32.0887 14.8019 31.8093 14.9699C31.48 15.1679 31.2518 15.3104 31.1091 15.5474C30.8204 16.0273 30.6685 16.8474 30.3086 16.9226C30.1914 16.947 29.994 16.9613 29.8556 16.9386C29.5021 16.8808 29.1957 16.8876 28.9171 16.7984Z" fill="#FF4500"/>
<path d="M10.028 12.5364L9.60801 12.6152L9.19676 12.6852C8.94417 12.7309 8.68753 12.7714 8.43551 12.7989L8.01551 12.8427L7.60426 12.8864C7.37862 12.911 7.13946 12.9194 6.89551 12.9127L6.02051 12.8952C5.47925 12.8802 5.01518 13.0748 4.66426 13.4114L4.34926 13.7964L4.09551 14.1902L3.83301 14.5927C3.68126 14.8283 3.55422 15.0038 3.44801 15.1264L2.99301 15.6514C2.9502 15.7007 2.83804 15.7954 2.61676 15.9227L2.18801 16.1764L1.75926 16.4214C1.2448 16.7172 0.862497 17.1654 0.674258 17.7427L0.525508 18.1889L0.376758 18.6439C0.270828 18.9703 0.241273 19.3422 0.350508 19.7202C0.45984 20.0954 0.680986 20.3943 0.928008 20.6127L1.30426 20.9452L1.68051 21.2689C1.71036 21.2953 1.73209 21.322 1.74176 21.4089L1.80301 21.9339L1.85551 22.4502C1.892 22.7781 2.01695 23.1965 2.36301 23.5264C2.72442 23.8707 3.16996 23.9635 3.53551 23.9552L4.00801 23.9464L4.48926 23.9377C4.72003 23.9325 4.9065 23.9596 5.05801 23.9989L5.46051 24.0952L5.85426 24.2002C6.05898 24.2533 6.27308 24.3315 6.49301 24.4277L6.90426 24.6027L7.30676 24.7777C7.80185 24.9942 8.33609 25.0455 8.86426 24.9089L9.28426 24.7952L9.70426 24.6902C10.0369 24.604 10.3572 24.4913 10.6668 24.3577L11.4368 24.0252C11.4807 24.0067 11.5649 23.9884 11.7168 24.0077L12.6793 24.1302C13.3475 24.2143 13.9868 23.9942 14.4468 23.4564L15.0418 22.7564C15.1661 22.6111 15.2961 22.5123 15.418 22.4414L16.1355 22.0214C16.1404 22.0215 16.1562 22.019 16.1705 22.0214L16.6168 22.1089L17.0543 22.1877C17.5599 22.2797 18.0603 22.2202 18.533 22.0302L18.9618 21.8639L19.198 21.7677L19.3205 21.8727L19.6355 22.1439C19.923 22.3859 20.2414 22.5887 20.5805 22.7477L20.9568 22.9227L21.3243 23.0977C21.6914 23.2697 22.0856 23.3797 22.4968 23.3952L22.8643 23.4039L23.2318 23.4214L23.2405 23.4302C23.2766 23.4444 23.3445 23.4733 23.433 23.5352L23.8618 23.8327L24.2993 24.1389C24.5733 24.3299 24.9706 24.5137 25.4455 24.4714C25.937 24.4266 26.3019 24.1615 26.5393 23.8852L26.8543 23.5089L27.1693 23.1414C27.3108 22.9762 27.4458 22.868 27.563 22.8002L27.9218 22.5902L28.2893 22.3802C28.889 22.0324 29.1954 21.4536 29.243 20.8227L29.2518 20.7177L29.6193 20.8052C30.0214 20.8941 30.4036 20.9508 30.7568 20.9714L31.1768 20.9977L31.3255 21.0064L31.378 21.1289L31.5443 21.5139C31.7138 21.9015 31.9554 22.2457 32.2618 22.5377L32.5593 22.8177L32.8568 23.1064C33.1019 23.34 33.3681 23.5529 33.653 23.7452L34.0118 23.9814L34.3618 24.2264C34.9348 24.6127 35.6136 24.6457 36.2255 24.3489L36.6105 24.1652L37.0043 23.9727C37.2775 23.8401 37.5224 23.7095 37.7393 23.5877L38.028 23.4302L38.3168 23.2639C38.8098 22.9869 39.1007 22.541 39.253 22.0827L39.5155 21.2952C39.5526 21.1836 39.6213 21.0542 39.743 20.9102L40.0493 20.5514L40.3468 20.1927C40.5664 19.9327 40.7553 19.5739 40.7668 19.1339C40.7772 18.6974 40.6094 18.3357 40.408 18.0664L40.128 17.6814L39.8393 17.3052C39.6665 17.0744 39.5207 16.8649 39.4018 16.6752L39.1918 16.3427L38.9818 16.0014C38.8481 15.788 38.7102 15.5613 38.5705 15.3277L38.3518 14.9689L38.1418 14.6014C37.8894 14.1802 37.5304 13.8527 37.0918 13.6302L36.7155 13.4377L36.348 13.2452C35.9806 13.0588 35.579 12.9756 35.1755 13.0089L34.773 13.0877L33.9855 13.2977C33.7219 13.37 33.4624 13.4433 33.2068 13.5164L32.8218 13.6302L32.4455 13.7352C32.1593 13.817 31.859 13.9236 31.5443 14.0414L31.1068 14.1989L30.6693 14.3652C30.239 14.5262 29.8751 14.8046 29.628 15.1877L29.418 15.6077L29.3305 15.8527L29.0855 15.7914C28.9315 15.7475 28.7701 15.7092 28.6218 15.6864C28.5618 15.6772 28.4796 15.6617 28.3855 15.6602L28.2193 15.5202L27.9043 15.2314C27.6403 14.9911 27.3589 14.775 27.0555 14.5927L26.688 14.3827L26.3293 14.1639C26.0257 13.9818 25.7077 13.8326 25.3755 13.7177L24.9818 13.5777L24.5968 13.4464C24.2508 13.3269 23.8918 13.2554 23.5293 13.2277L23.1355 13.1927L22.7418 13.1664C22.4936 13.1474 22.2391 13.1177 21.9805 13.0877L21.5693 13.0439L21.158 12.9914C20.6657 12.934 20.1821 13.024 19.7405 13.2452L19.373 13.4289L18.9968 13.6214C18.6286 13.8061 18.2975 14.0461 18.0168 14.3477L17.7368 14.6627L17.448 14.9689C17.1108 15.3312 16.9293 15.7705 16.8355 16.2289C16.696 16.138 16.5822 16.0714 16.5118 15.9927L16.2405 15.6777L15.9693 15.3714C15.8745 15.2647 15.7668 15.1183 15.6718 14.9077L15.4793 14.4614L15.278 14.0152C15.0198 13.4449 14.5426 12.9988 13.8693 12.8514L13.4493 12.7552L13.0293 12.6677C12.6919 12.5938 12.3502 12.5486 12.0055 12.5277L11.5768 12.5014L11.1393 12.4752C10.7656 12.4528 10.3946 12.4701 10.028 12.5364ZM11.8655 14.7589C12.0943 14.7727 12.3239 14.8062 12.548 14.8552L12.968 14.9427L13.2655 15.0039L13.4318 15.3802L13.633 15.8264C13.8043 16.2059 14.0206 16.556 14.2893 16.8589L14.5605 17.1652L14.8405 17.4802C15.116 17.7893 15.4529 18.0469 15.8205 18.2589L16.2405 18.5039L16.6693 18.7489C16.8964 18.8799 17.4609 19.1446 18.0693 18.8452C18.6647 18.5511 18.8076 17.9606 18.848 17.7077L19.0055 16.7102C19.0304 16.5581 19.0716 16.505 19.0843 16.4914L19.6618 15.8789C19.7631 15.7701 19.8755 15.6802 20.003 15.6164L20.3705 15.4327L20.7468 15.2489C20.8013 15.2216 20.842 15.2167 20.8955 15.2227L21.3068 15.2664L21.718 15.3189C22.0048 15.3523 22.288 15.3763 22.5668 15.3977L22.9693 15.4239L23.363 15.4589C23.5269 15.4716 23.6924 15.5057 23.8618 15.5639L24.2555 15.6952L24.6405 15.8352C24.8242 15.8987 25.0084 15.9753 25.183 16.0802L25.9005 16.5177C26.0743 16.6222 26.2423 16.7422 26.3993 16.8852L27.0293 17.4627C27.1485 17.5713 27.2947 17.6934 27.4405 17.7864C27.5085 17.8297 27.6358 17.9034 27.7993 17.9527C27.8992 17.9827 28.1767 18.0477 28.4993 17.9439L28.8843 18.0664L29.3043 18.1802C29.6172 18.269 30.0509 18.3051 30.4768 18.0839C30.8987 17.8635 31.1117 17.4913 31.2205 17.1914L31.378 16.7802L31.5005 16.4389L31.8855 16.2989L32.323 16.1327C32.5916 16.0321 32.8382 15.9506 33.058 15.8877L33.443 15.7827L33.8193 15.6777C34.0685 15.6064 34.3228 15.5296 34.5805 15.4589L34.9743 15.3539L35.3505 15.2489L35.7093 15.4327L36.0768 15.6252C36.1373 15.6559 36.1803 15.6954 36.2168 15.7564L36.4355 16.1152L36.6543 16.4827C36.8015 16.7288 36.9492 16.9638 37.0918 17.1914L37.293 17.5239L37.503 17.8564C37.6615 18.1094 37.8413 18.3801 38.0455 18.6527L38.3343 19.0289L38.3693 19.0639L38.3343 19.1077L38.0368 19.4664C37.755 19.8 37.5271 20.1724 37.3893 20.5864L37.258 20.9802L37.1355 21.3652L36.9343 21.4789L36.6455 21.6364C36.4769 21.7312 36.2695 21.8412 36.0243 21.9602L35.6305 22.1439L35.438 22.2402L35.263 22.1264L34.913 21.8902C34.7288 21.766 34.5568 21.6315 34.4055 21.4877L34.108 21.1989L33.8018 20.9189C33.7111 20.8325 33.6511 20.7287 33.6005 20.6127L33.268 19.8602L33.023 19.4489C32.9205 19.3179 32.7956 19.1932 32.6468 19.0902C32.3529 18.8876 32.0253 18.8018 31.7193 18.7839L31.308 18.7577L30.888 18.7314C30.6849 18.7196 30.4222 18.6888 30.1005 18.6177L29.0155 18.3727L28.4643 18.3289C28.2503 18.3421 28.0108 18.394 27.7818 18.5302C27.5228 18.6848 27.3557 18.894 27.248 19.1077L27.0818 19.7289L27.0468 20.1927L27.0293 20.5252L26.8018 20.6564L26.443 20.8664C26.0756 21.0791 25.7522 21.3617 25.4718 21.6889L25.1918 22.0214L25.148 21.9952L24.7105 21.6977C24.3196 21.4249 23.8447 21.2008 23.3105 21.1814L22.9518 21.1639L22.5843 21.1552C22.5088 21.1524 22.408 21.1285 22.278 21.0677L21.5255 20.7177C21.3677 20.6433 21.2186 20.5462 21.0793 20.4289L20.7555 20.1577L20.4405 19.8864C20.1893 19.6752 19.8726 19.5225 19.513 19.4752C19.3369 19.4523 19.1666 19.459 19.0055 19.4839L18.5505 19.6064L18.1218 19.7814L17.7018 19.9564C17.6088 19.9939 17.5333 19.9964 17.4568 19.9827L16.5818 19.8252C16.0457 19.727 15.5032 19.8043 15.0155 20.0877L14.648 20.2977L14.2893 20.5077C13.9305 20.7165 13.6162 20.9861 13.3443 21.3039L13.0468 21.6539L12.8455 21.8902L12.478 21.8464L11.9968 21.7852C11.5097 21.7235 11.0118 21.767 10.5443 21.9689L10.168 22.1352L9.78301 22.3014C9.5836 22.3875 9.36939 22.4617 9.14426 22.5202L8.72426 22.6252L8.30426 22.7389C8.27332 22.7469 8.25096 22.7484 8.20801 22.7302L7.79676 22.5464L7.39426 22.3714C7.07407 22.2314 6.74989 22.1151 6.42301 22.0302L6.02051 21.9339L5.61801 21.8289C5.23807 21.7306 4.84187 21.6885 4.43676 21.6977H4.03426L4.02551 21.6802L3.96426 21.1639C3.8965 20.555 3.62874 20.0035 3.15926 19.5889L2.79176 19.2652L2.59926 19.0814L2.66051 18.8889L2.80051 18.4339C2.80776 18.4119 2.81563 18.4018 2.81801 18.3989C2.82253 18.3937 2.84418 18.3841 2.87926 18.3639L3.30801 18.1102L3.73676 17.8652C4.08881 17.6626 4.42144 17.4211 4.68176 17.1214L5.13676 16.5964C5.33277 16.3707 5.52423 16.1038 5.71426 15.8089L5.97676 15.4064L6.15176 15.1264L6.39676 15.1439L6.83426 15.1527C7.17426 15.1621 7.51036 15.1535 7.84051 15.1177L8.26051 15.0739L8.68051 15.0214C8.98433 14.9882 9.28764 14.9449 9.59051 14.8902L10.0105 14.8202L10.4305 14.7414C10.6179 14.7078 10.8099 14.6944 11.008 14.7064L11.8655 14.7589Z" fill="#FF4500"/>
<path d="M33.3879 7.33403C33.1975 6.52416 33.0567 6.10236 32.9862 6.00391C32.9862 6.16261 33.0509 6.40358 33.0436 6.50224C33.0224 6.64292 33.1135 6.97142 33.1063 7.42038C33.0711 7.75901 32.9599 8.06284 32.9508 8.33931C32.9438 8.55127 32.7971 9.2189 32.6957 10.0743C32.6179 10.7311 32.6238 11.1448 32.3257 11.9662C32.1749 12.3819 31.9228 13.012 31.7751 13.3848C31.6275 13.7576 31.5854 13.8696 31.5644 13.9545C31.5434 14.0394 31.5405 14.1136 31.6589 14.1234C31.9983 14.1514 32.2639 14.1236 32.372 14.116C32.6764 14.0945 33.014 14.0507 33.2985 14.0311C33.61 14.0097 34.4514 14.2091 34.7687 13.8821C34.7965 13.8535 34.7825 13.8115 34.7611 13.7472C34.6548 13.4283 34.526 13.1275 34.2794 11.8546C34.1455 11.1636 34.1077 10.7662 34.0462 10.4623C33.9189 9.83323 33.7929 9.37187 33.6991 8.91048C33.6202 8.52199 33.5052 7.83335 33.3879 7.33403Z" fill="#FF4500"/>
<path d="M32.4654 8.87828L32.3911 9.07953L32.3123 9.27641C32.2193 9.51958 32.2085 9.77518 32.2686 10.0245L32.3211 10.2433L32.3561 10.3789L32.2161 10.5277L32.0411 10.7114C31.7849 10.9809 31.7009 11.3324 31.8092 11.687L31.8836 11.932L31.9536 12.1552L31.8617 12.2908L31.7348 12.4702C31.6416 12.6045 31.5583 12.7447 31.4811 12.8858L31.3804 13.0695L31.2754 13.2533C31.1514 13.4797 31.0725 13.8194 31.2798 14.1414L31.3629 14.2727L31.4461 14.3995C31.5626 14.5805 31.7578 14.7114 32.0017 14.7233C32.2033 14.7329 32.3716 14.6577 32.4786 14.5964L32.6798 14.4827L32.8811 14.3645C32.8868 14.3613 32.8917 14.3611 32.8942 14.3602H32.9029L33.1217 14.4083L33.3448 14.4564C33.5611 14.5029 33.7854 14.5068 34.0054 14.452L34.3817 14.3558C34.5911 14.3036 34.7934 14.204 34.9548 14.0364L35.1823 13.8002C35.3208 13.6565 35.408 13.4513 35.3836 13.2183C35.362 13.0156 35.2614 12.86 35.1779 12.7589L35.0336 12.5795L34.8892 12.4045C34.8339 12.3377 34.7954 12.2738 34.7754 12.212L34.7142 12.0064L34.6486 11.8052C34.63 11.7473 34.6235 11.6865 34.6311 11.617L34.6529 11.3983L34.6792 11.1795C34.7007 10.9802 34.6922 10.78 34.6529 10.5845L34.6092 10.3789L34.5698 10.1733C34.5298 9.97429 34.457 9.7856 34.3554 9.60891L34.2461 9.41641L34.1367 9.22828C34.1072 9.1771 34.0908 9.12628 34.0886 9.07516L34.0798 8.86078L34.0711 8.65078C34.0666 8.55014 34.0739 8.44165 34.0929 8.33141L34.1323 8.11266L34.1673 7.88953C34.2187 7.59158 34.1503 7.30201 33.9748 7.05828L33.9354 7.00141C33.9308 6.93637 33.9289 6.86806 33.9092 6.80016L33.7867 6.38016C33.7454 6.23825 33.6888 6.0761 33.6117 5.95141L33.5636 5.86828L33.5111 5.78953L33.4454 5.69766C33.4285 5.67858 33.3351 5.57481 33.1742 5.52703C33.076 5.49809 32.9442 5.48573 32.8067 5.54016C32.674 5.59289 32.5896 5.68283 32.5442 5.75016C32.4665 5.86582 32.4555 5.98278 32.4523 6.00828C32.4432 6.08299 32.4495 6.15033 32.4523 6.17891C32.4561 6.21838 32.4631 6.26061 32.4698 6.30141L32.5004 6.51141L32.5354 6.71703C32.5611 6.87241 32.6214 7.01391 32.6929 7.15016L32.4829 7.38641C32.3725 7.50944 32.2776 7.66452 32.2379 7.85016C32.1977 8.03872 32.2199 8.22416 32.2817 8.38828L32.3692 8.61578L32.4567 8.84766L32.4654 8.87828ZM33.5111 10.602L33.5548 10.8077C33.5705 10.8862 33.5734 10.9713 33.5636 11.0614L33.5417 11.2758L33.5154 11.4945C33.4914 11.7151 33.5132 11.9346 33.5811 12.1464L33.6467 12.352L33.7123 12.5533C33.779 12.7607 33.8841 12.9497 34.0229 13.1177L34.1454 13.2577C34.1404 13.2601 34.1293 13.2661 34.1104 13.2708L33.9223 13.3189L33.7342 13.3627C33.7035 13.3703 33.6555 13.3742 33.5811 13.3583L33.3623 13.3145L33.1392 13.2664C32.9332 13.2222 32.7305 13.2331 32.5398 13.297C32.5777 13.2344 32.6152 13.1705 32.6579 13.1089L32.9029 12.7502C33.1007 12.4652 33.1198 12.1392 33.0298 11.8445L32.9554 11.6039L32.9029 11.4245L33.0254 11.2977L33.2004 11.1139C33.3668 10.9389 33.4773 10.7176 33.4892 10.4708L33.5111 10.602Z" fill="#FF4500"/>
<path d="M36.04 13.4503C35.9278 14.1806 35.8853 14.4343 35.8289 14.6176L37.0595 16.1877C37.0739 16.0596 37.0879 16.0176 37.1022 15.9605C37.1304 15.8334 37.1728 15.6781 37.194 15.3802C37.2581 14.9826 37.3822 14.6184 37.392 13.6009C37.399 12.874 37.4294 12.4396 37.4344 12.2964C37.4414 12.0987 37.623 11.4325 37.6967 10.3451C37.7669 9.30819 37.8284 8.58937 37.8518 8.2365C37.8658 8.02538 37.9349 7.71218 38.0009 6.73261C38.0508 5.99318 38.1068 4.78888 38.1565 4.05688C38.1573 4.04391 38.1582 4.03109 38.1591 4.01841C38.1619 4.00308 38.1646 3.98789 38.1673 3.97286C38.3629 2.87702 38.3606 2.41168 38.41 2.18593C38.5389 1.59726 38.6296 0.940888 38.6508 0.791093C38.6608 0.720371 38.5312 1.13524 38.4253 1.62876C38.3026 2.20055 38.2901 2.62173 38.2691 2.89628C38.2558 3.0704 38.2078 3.31599 38.1591 4.01841C38.0206 4.78503 37.7755 5.91419 37.6307 6.52637C37.483 7.1508 37.441 7.23482 37.2685 7.86116C37.096 8.4875 36.8019 9.62178 36.5611 10.7228C36.3203 11.8237 36.1309 12.8588 36.04 13.4503Z" fill="#FF4500"/>
<path d="M38.3451 0.319453C38.1201 0.322671 37.9825 0.455349 37.9382 0.503203C37.8531 0.596007 37.8184 0.697079 37.8157 0.704453L37.7807 0.848828L37.7457 1.01945L37.7107 1.19445C37.657 1.46774 37.7272 1.72752 37.8289 1.94258L37.877 2.03883L37.8989 2.19195L37.9382 2.39758L37.9251 2.41508L37.6626 2.80883C37.5432 2.98739 37.444 3.19625 37.4176 3.4257L37.3826 3.76695C37.3743 3.83997 37.3624 3.96149 37.3914 4.08633C37.4067 4.15178 37.4413 4.26443 37.5314 4.36633C37.5529 4.39068 37.5852 4.40286 37.6101 4.4232L37.5751 4.60258C37.5486 4.74253 37.5263 4.88678 37.5007 5.02695L37.4614 5.23258L37.422 5.44258C37.4007 5.55908 37.3745 5.67609 37.3389 5.79258L37.2732 5.9982L37.212 6.20383C37.1904 6.27421 37.1789 6.34495 37.1726 6.41383L36.9889 6.58445C36.7424 6.81294 36.6131 7.12815 36.6695 7.48133L36.7045 7.70883L36.7439 7.93633C36.76 8.03737 36.7595 8.12618 36.7482 8.2032L36.687 8.6232C36.6768 8.69046 36.6509 8.75711 36.6126 8.82445L36.5076 9.01258L36.3982 9.2007C36.2995 9.37419 36.2307 9.56232 36.1882 9.75633L36.1401 9.95758L36.0964 10.1632C36.0541 10.3566 36.0404 10.5553 36.057 10.7538L36.0789 10.9726L36.0964 11.1913C36.1019 11.2573 36.0936 11.3138 36.0745 11.3663L36.0001 11.5676L35.9257 11.7645C35.8898 11.8618 35.8417 11.9621 35.7814 12.062L35.6676 12.2545L35.5495 12.447C35.3957 12.702 35.3507 12.9903 35.4182 13.2782L35.4707 13.5013L35.5232 13.7201C35.5347 13.7689 35.5322 13.8004 35.5232 13.8251L35.4489 14.0263L35.3745 14.2232C35.3502 14.29 35.324 14.372 35.3089 14.442C35.3046 14.4615 35.299 14.4928 35.2957 14.5295C35.2937 14.553 35.2876 14.6398 35.3176 14.7438C35.3327 14.796 35.3672 14.8825 35.4445 14.967V14.9845L35.4576 15.2032C35.4819 15.5517 35.6738 15.8286 35.9695 15.9863L36.1751 16.0913L36.3764 16.2007C36.4549 16.2425 36.538 16.2811 36.617 16.3101C36.6717 16.3301 36.8197 16.3821 36.9889 16.3582L37.1201 16.3407C37.3591 16.3068 37.502 16.1454 37.5445 16.0957C37.6086 16.0207 37.6627 15.934 37.7064 15.8551L37.8114 15.6626L37.9207 15.4701C38.0738 15.1934 38.0884 14.8865 37.9907 14.5995L37.9164 14.3763L37.8376 14.1576C37.8093 14.0743 37.8066 14.0078 37.8114 13.9563L37.8289 13.7463L37.8464 13.5407C37.8615 13.3758 37.8673 13.2084 37.8595 13.042L37.8507 12.832L37.8376 12.6176C37.831 12.4759 37.8236 12.331 37.8157 12.1845L37.807 11.9657L37.7982 11.7688C37.8007 11.7659 37.8033 11.7595 37.807 11.7557L37.9864 11.572L38.1657 11.3838C38.281 11.2631 38.3816 11.1038 38.4195 10.907C38.458 10.7063 38.419 10.5168 38.3451 10.3557L38.2445 10.137L38.1439 9.91383C38.134 9.89191 38.131 9.88084 38.1307 9.87883L38.2532 9.46758C38.3234 9.22518 38.3172 8.97668 38.2489 8.73695L38.1876 8.52258L38.1482 8.3782L38.2882 8.21195L38.4545 8.01945C38.5673 7.88673 38.6626 7.71149 38.682 7.5032C38.7013 7.2946 38.639 7.10819 38.5507 6.95633L38.4239 6.7332L38.3932 6.67633C38.4452 6.55632 38.478 6.42519 38.4807 6.28258L38.4851 6.06383L38.4895 5.84945C38.4906 5.79014 38.5015 5.73496 38.5289 5.67883L38.7214 5.28508C38.8238 5.07617 38.8792 4.84501 38.857 4.60258L38.8395 4.41445L38.822 4.22195L38.7957 4.06883C38.7917 4.05297 38.7735 4.00977 38.7476 3.95508L38.752 3.9507L38.8045 3.74945L38.857 3.54383C38.8877 3.42389 38.9238 3.30095 38.9664 3.1807L39.0407 2.97945L39.1107 2.77383C39.2158 2.47599 39.1774 2.17749 39.0539 1.91633L38.962 1.71945C38.9494 1.62779 38.9377 1.53486 38.9357 1.43945L38.927 0.993203C38.9262 0.951916 38.9265 0.907309 38.9226 0.866328C38.9207 0.846779 38.9168 0.813776 38.9095 0.778828C38.9058 0.761487 38.899 0.732554 38.8876 0.700078C38.8783 0.6737 38.8515 0.60449 38.7957 0.533828C38.74 0.463302 38.5897 0.316771 38.3451 0.319453ZM36.722 12.6701L36.7307 12.8845L36.7395 13.0945C36.7449 13.2094 36.741 13.3234 36.7307 13.4357L36.6957 13.8557C36.6753 14.0814 36.7064 14.3033 36.7789 14.5163L36.8532 14.7395L36.932 14.9495L36.8314 15.1201L36.8095 15.1595L36.7001 15.1026L36.5689 15.0326L36.5601 14.9057L36.547 14.687C36.5418 14.6106 36.5308 14.512 36.5076 14.4245C36.5068 14.4215 36.5049 14.4172 36.5032 14.4113V14.407L36.5732 14.2057C36.6614 13.9632 36.6702 13.7124 36.6126 13.4663L36.5645 13.2432L36.512 13.0201L36.6257 12.832L36.722 12.6701ZM37.2295 10.6007L37.2732 10.697L37.1901 10.7845L37.177 10.662C37.1722 10.6054 37.1807 10.5517 37.1857 10.5001L37.2295 10.6007Z" fill="#FF4500"/>
<path d="M25.9487 22.2962C25.6733 22.4358 25.5602 22.7729 25.6993 23.0487L25.7474 23.1362L25.7518 23.1449L25.918 23.4643C26.0431 23.7029 26.1853 23.9221 26.3512 24.0855L26.513 24.243L26.6618 24.3874L26.6574 24.6062L26.653 24.8337C26.6492 25.0513 26.6856 25.2644 26.7624 25.468L26.8368 25.6693L26.9155 25.8705C26.991 26.0701 27.1006 26.2505 27.2437 26.4087L27.388 26.5705L27.5324 26.728C27.6006 26.8034 27.6575 26.8856 27.703 26.9687L27.9043 27.3362C27.9503 27.4201 27.9892 27.5112 28.018 27.6118L28.0793 27.8218L28.1362 28.0318C28.1942 28.235 28.2889 28.4232 28.4162 28.5918L28.543 28.7624L28.6699 28.9287C28.7968 29.0963 28.9522 29.2371 29.1293 29.353L29.3218 29.4799L29.4487 29.5587L29.4399 29.7468L29.4312 29.9962C29.4233 30.2753 29.5008 30.5526 29.6937 30.7837L29.8293 30.9499L29.9693 31.1162C30.0197 31.1767 30.0568 31.2414 30.083 31.313L30.1574 31.5143L30.2318 31.7112C30.2924 31.8769 30.3958 32.0989 30.5949 32.2449L30.7874 32.3849C30.8243 32.4119 30.8863 32.4536 30.9537 32.4855C30.9801 32.498 31.0689 32.541 31.1855 32.5468C31.2512 32.5499 31.3661 32.5433 31.4874 32.4768C31.624 32.4018 31.7134 32.2802 31.7543 32.1574L31.7587 32.1355L31.8155 31.9737L31.7937 31.8993C31.7909 31.8082 31.7732 31.7165 31.7237 31.6324L31.6755 31.5449L30.9362 31.8599L30.7043 31.7812C30.7472 31.6708 30.8252 31.5606 30.9493 31.4924C31.067 31.4283 31.1775 31.424 31.238 31.4268C31.2687 31.4283 31.2966 31.4391 31.3212 31.4443L31.3518 31.4093L31.2949 31.3655C31.2909 31.3563 31.2869 31.3444 31.2818 31.3305L31.2074 31.1293L31.1374 30.928C31.0662 30.7333 30.9598 30.5535 30.8268 30.3943L30.6912 30.2324L30.5512 30.0662L30.5555 30.0705C30.5548 30.0679 30.5504 30.0543 30.5512 30.0268L30.5687 29.528C30.5784 29.1868 30.4334 28.8713 30.1268 28.6705L29.7418 28.4168C29.6624 28.3648 29.6044 28.3102 29.5624 28.2549L29.4355 28.0843L29.3087 27.918C29.2679 27.864 29.2384 27.8007 29.2168 27.7255L29.0943 27.3055C29.0436 27.128 28.9762 26.958 28.8887 26.798L28.6874 26.4305C28.5988 26.2688 28.4884 26.1179 28.3637 25.9799L28.0749 25.6562C28.0257 25.6016 27.9867 25.5439 27.9612 25.4768L27.8124 25.0743C27.7884 25.0105 27.7715 24.9355 27.773 24.8512L27.7774 24.628L27.7818 24.4005C27.7874 24.0966 27.6754 23.8184 27.458 23.6043L27.3005 23.4468L27.1387 23.2893C27.0902 23.2416 27.0106 23.1375 26.9112 22.948L26.7405 22.6243L26.7012 22.5412C26.5615 22.266 26.2244 22.1571 25.9487 22.2962ZM31.3212 31.4443C31.3838 31.4574 31.4249 31.4722 31.4305 31.4749C31.4643 31.4909 31.4752 31.4992 31.448 31.4793L31.3518 31.4093L31.3212 31.4443Z" fill="#FF4500"/>
<path d="M23.2527 22.9731C22.9537 23.0507 22.7731 23.3565 22.8502 23.6556L22.8634 23.6994L22.8852 24.0275C22.906 24.3204 22.9744 24.6301 23.1565 24.8763L23.4277 25.2438L23.4321 25.2525L23.4059 25.4756L23.384 25.6988C23.3636 25.8846 23.361 26.072 23.3796 26.2544L23.4234 26.6744C23.4467 26.9033 23.5206 27.119 23.6421 27.3131L23.7602 27.5013L23.8784 27.685C23.9284 27.7648 23.961 27.8461 23.9834 27.9256L24.0402 28.1313L24.0971 28.3325C24.1219 28.422 24.1376 28.518 24.1409 28.6213L24.1452 28.84L24.154 29.0588C24.1605 29.267 24.202 29.47 24.2809 29.6625L24.3596 29.855L24.4384 30.0431C24.5048 30.205 24.5883 30.3624 24.6877 30.5156L24.8102 30.7081L24.9109 30.8656L24.8409 31.0756L24.7665 31.3075C24.7364 31.3977 24.6997 31.5209 24.6965 31.6488C24.6951 31.7126 24.7003 31.8284 24.7577 31.9506C24.826 32.0955 24.956 32.2229 25.1384 32.2744L25.2127 32.2963L25.414 32.3531L25.4271 32.3444C25.497 32.3545 25.5688 32.3582 25.6415 32.34C25.9414 32.265 26.1232 31.9618 26.0484 31.6619L26.0265 31.5656L25.9521 31.2769L25.9827 31.1938C26.0829 30.8917 26.0562 30.5699 25.8734 30.2881L25.7509 30.1L25.624 29.9075C25.5585 29.8065 25.5082 29.7097 25.4709 29.6188L25.3965 29.4306L25.3177 29.2381C25.2929 29.1775 25.2766 29.1076 25.274 29.0238L25.2652 28.805L25.2609 28.5863C25.2549 28.3974 25.2277 28.2104 25.1777 28.0306L25.064 27.6281C25.0114 27.4388 24.9329 27.2578 24.8277 27.09L24.7096 26.9063L24.5915 26.7181C24.5582 26.6647 24.5399 26.613 24.5346 26.5606L24.5171 26.3506L24.4952 26.1406C24.4851 26.0408 24.483 25.9331 24.4952 25.8213L24.5215 25.5981L24.5434 25.375C24.5752 25.0845 24.502 24.8078 24.329 24.5744L24.1934 24.3906L24.0577 24.2113C24.0577 24.2111 24.0471 24.1971 24.0359 24.1588C24.0227 24.1134 24.012 24.0445 24.0052 23.9488L23.979 23.5725L23.9746 23.52L23.9352 23.3756C23.8577 23.0762 23.5521 22.8956 23.2527 22.9731Z" fill="#FF4500"/>
<path d="M21.4601 22.2627C21.1552 22.2171 20.8682 22.4303 20.8213 22.7352V22.7702L20.6988 23.0415C20.5809 23.3161 20.4989 23.6383 20.572 23.9559L20.6201 24.179L20.6726 24.4021L20.677 24.4152C20.6767 24.416 20.675 24.4195 20.6726 24.424L20.4538 24.8177C20.3637 24.9818 20.2919 25.1536 20.2395 25.3296L20.1782 25.5309L20.117 25.7365C20.0512 25.9571 20.0391 26.1844 20.0776 26.4102L20.117 26.629L20.152 26.8434C20.1678 26.9359 20.1707 27.0237 20.1607 27.1059L20.1082 27.5259C20.0981 27.6065 20.0753 27.6874 20.0382 27.7709L19.9507 27.9721L19.8588 28.1734C19.7711 28.3702 19.7209 28.5789 19.7145 28.7946L19.7057 29.2146C19.7002 29.3987 19.7137 29.5843 19.7495 29.7702L19.7932 29.9934L19.8282 30.1684L19.6751 30.3434L19.5088 30.5359C19.4442 30.6095 19.3603 30.7163 19.3076 30.8421C19.2807 30.9068 19.2406 31.0236 19.2551 31.1659C19.2724 31.3332 19.3599 31.4908 19.5001 31.5946L19.5657 31.6427L19.7145 31.7521H19.7232C19.7886 31.7961 19.8634 31.8307 19.9463 31.844C20.251 31.8917 20.5363 31.685 20.5851 31.3802L20.6026 31.2796L20.6595 30.9252L20.6857 30.8946C20.8963 30.6544 21.0001 30.3446 20.9351 30.0065L20.8913 29.7834L20.852 29.5602C20.8305 29.4487 20.8186 29.3448 20.8213 29.2496L20.8301 29.0396L20.8345 28.8296C20.8364 28.7656 20.8516 28.6976 20.8826 28.6284L20.9701 28.4315L21.062 28.2302C21.1432 28.0484 21.1953 27.858 21.2195 27.6615L21.2457 27.4515L21.272 27.2459C21.296 27.0502 21.2923 26.851 21.2588 26.6552L21.2195 26.4409L21.1845 26.2221C21.1738 26.1598 21.1781 26.1066 21.1932 26.0559L21.2501 25.8502L21.3113 25.649C21.3399 25.5531 21.3798 25.4541 21.4338 25.3559L21.6526 24.9621C21.7915 24.7086 21.8267 24.428 21.762 24.1484L21.7138 23.9252L21.6613 23.7065C21.6643 23.72 21.659 23.7106 21.6657 23.6715C21.6728 23.6311 21.6903 23.5688 21.727 23.4834L21.8757 23.1377L21.9063 23.0721L21.9151 23.0021L21.9326 22.9015C21.9782 22.5966 21.765 22.3096 21.4601 22.2627Z" fill="#FF4500"/>
<path d="M12.3754 24.8978L12.3579 25.3441C12.3521 25.5289 12.3669 25.7117 12.3973 25.8909L12.4323 26.1053L12.4673 26.3153C12.5084 26.5568 12.6139 26.7759 12.7692 26.9628L13.0492 27.3041C13.115 27.3833 13.1682 27.4633 13.2067 27.5447L13.2986 27.7372L13.3861 27.9253C13.4274 28.0129 13.46 28.1087 13.4823 28.2097L13.5304 28.4197L13.5742 28.6297C13.6172 28.8244 13.6888 29.0093 13.7886 29.1809L13.9986 29.5397C14.093 29.7019 14.2094 29.8543 14.3442 29.9947L14.5104 30.1653L14.6067 30.2616L14.5542 30.4322L14.4798 30.6728C14.4505 30.7677 14.4111 30.914 14.4229 31.0666C14.4295 31.148 14.4561 31.2819 14.5498 31.4078C14.6554 31.5491 14.8045 31.6265 14.9523 31.6484C14.9797 31.6644 15.0058 31.681 15.0354 31.6922L15.1536 31.8059L15.4817 31.6747L15.5079 31.6659C15.5323 31.6563 15.6461 31.609 15.7398 31.4909C15.7982 31.4167 15.8602 31.299 15.8623 31.1497C15.8643 31.0024 15.8078 30.8885 15.7573 30.8172C15.721 30.7661 15.6708 30.7404 15.6348 30.7122L15.6961 30.5241C15.7434 30.3708 15.765 30.1958 15.7267 30.0166C15.6876 29.8346 15.595 29.6795 15.4773 29.5572L15.3154 29.3909L15.1536 29.2203C15.0726 29.1362 15.01 29.056 14.9654 28.9797L14.8604 28.7959L14.7554 28.6166C14.7166 28.5494 14.6868 28.4744 14.6679 28.3891L14.6242 28.1791L14.5761 27.9647C14.5363 27.785 14.4746 27.6134 14.3967 27.4484L14.3092 27.2559L14.2173 27.0678C14.1363 26.8965 14.0338 26.7343 13.9111 26.5866L13.6311 26.2453C13.5975 26.2049 13.5812 26.1682 13.5742 26.1272L13.5348 25.9172L13.4998 25.7028C13.4825 25.6007 13.4744 25.4923 13.4779 25.3791L13.4867 25.1559L13.4911 24.9328C13.5004 24.6366 13.3996 24.3638 13.2023 24.1453L13.0536 23.9747L12.9004 23.8084C12.886 23.7925 12.8374 23.7248 12.7954 23.5503L12.7167 23.2134L12.7079 23.1784L12.6948 23.1434L12.6554 23.0472C12.5433 22.7603 12.2213 22.617 11.9336 22.7278C11.645 22.8392 11.5028 23.1655 11.6142 23.4541L11.6361 23.5066L11.7061 23.8084C11.771 24.0796 11.8808 24.3478 12.0692 24.5566L12.2223 24.7272L12.3711 24.8934L12.3754 24.8978ZM15.0704 30.6378L15.1886 30.9309L14.7598 31.2241C14.7554 31.1952 14.7419 31.1643 14.7423 31.1322C14.7449 30.9847 14.8029 30.8685 14.8604 30.7953C14.9364 30.699 15.0291 30.6563 15.0704 30.6378ZM15.2017 30.6291L15.1754 30.8303L15.1011 30.6509L15.1054 30.6028L15.2017 30.6291ZM15.1011 30.6509L15.1754 30.8303L15.2017 30.6291L15.1054 30.6028L15.1011 30.6509Z" fill="#FF4500"/>
<path d="M8.8859 23.3662C8.5786 23.3975 8.35638 23.6713 8.38715 23.9788L8.3959 24.0269L8.39152 24.0313L8.40027 24.4031C8.40638 24.6895 8.45223 24.9843 8.58402 25.23L8.68902 25.4313L8.7984 25.6238L8.73277 25.8338L8.66715 26.0481C8.61332 26.2245 8.57531 26.4022 8.55777 26.5819L8.5359 26.7963L8.51402 27.0063C8.49167 27.2372 8.5271 27.4648 8.61027 27.68L8.76777 28.0913C8.80683 28.1922 8.83617 28.2926 8.8509 28.3888L8.91215 28.8C8.92381 28.8761 8.92227 28.9577 8.90777 29.045L8.87277 29.2638L8.83777 29.4781C8.80205 29.6906 8.80366 29.9064 8.8509 30.1169L8.89902 30.3225L8.94277 30.5281C8.97146 30.6555 9.01844 30.7779 9.06965 30.9L9.11777 31.46L9.1309 31.5563C9.15888 31.8643 9.43101 32.0917 9.73902 32.0638C9.74519 32.0632 9.75043 32.0558 9.75652 32.055L9.77402 32.0638L9.96652 32.0113L10.0321 31.9938C10.2171 31.9449 10.3661 31.8119 10.4346 31.6306C10.4885 31.4874 10.4753 31.3591 10.4653 31.2981C10.4442 31.1721 10.3914 31.0529 10.3515 30.9744L10.1415 30.5631C10.0904 30.4625 10.056 30.3655 10.0365 30.2788L9.99277 30.0775L9.94465 29.8719C9.93062 29.8094 9.92776 29.7415 9.94027 29.6663L9.97965 29.4475L10.0146 29.2331C10.0482 29.0335 10.0493 28.8329 10.019 28.6338L9.9884 28.4238L9.95777 28.2181C9.93023 28.0383 9.88004 27.8612 9.8134 27.6888L9.6559 27.2775C9.63335 27.2192 9.62475 27.1667 9.62965 27.1156L9.65152 26.9056L9.6734 26.6913C9.68324 26.5902 9.70161 26.485 9.73465 26.3763L9.80027 26.1575L9.8659 25.9431C9.95354 25.6556 9.92401 25.3621 9.78277 25.0988L9.67777 24.9019L9.5684 24.7006C9.55701 24.6794 9.52475 24.5903 9.52027 24.3813L9.51152 24.0094V23.9656L9.4984 23.865C9.467 23.5579 9.19324 23.3355 8.8859 23.3662Z" fill="#FF4500"/>
<path d="M5.68605 22.8433C5.38265 22.7855 5.08812 22.9861 5.0298 23.2895L5.02105 23.3464L4.9248 23.7052C4.84911 23.9855 4.80897 24.2915 4.88543 24.5758L4.94668 24.7945L5.00355 25.0133C5.00533 25.0199 5.00776 25.0246 5.00793 25.0264L4.90293 25.2364L4.8023 25.4333C4.7316 25.5737 4.66838 25.7122 4.6098 25.8445L4.44355 26.212C4.35772 26.406 4.31579 26.6131 4.30793 26.8245L4.29918 27.0477L4.29043 27.2664C4.28668 27.3679 4.27262 27.4615 4.24668 27.5464L4.12418 27.9489C4.09769 28.0352 4.05823 28.1217 4.00605 28.207L3.8923 28.3908L3.77855 28.5789C3.66347 28.7671 3.5899 28.9725 3.5598 29.1914L3.52918 29.4058L3.49855 29.6158C3.47292 29.8042 3.47937 29.9974 3.50293 30.1933L3.41543 30.4864L3.38918 30.5827C3.31981 30.8189 3.4169 31.0566 3.60793 31.1908L3.6123 31.2039L3.73918 31.287L3.80043 31.322C3.85402 31.3555 3.95713 31.411 4.09793 31.4139C4.26213 31.4168 4.41091 31.3485 4.51355 31.2477C4.60123 31.1612 4.64068 31.0661 4.65793 31.0158C4.67646 30.9613 4.68467 30.9123 4.68855 30.8802C4.70188 30.769 4.68619 30.6478 4.67543 30.5652L4.61418 30.0752C4.5983 29.9531 4.59827 29.8491 4.6098 29.7645L4.64043 29.5545L4.66668 29.3445C4.67506 29.2831 4.69636 29.2245 4.7323 29.1652L4.9598 28.7889C5.05938 28.6261 5.14087 28.4534 5.19605 28.2727L5.2573 28.0758L5.31855 27.8745C5.37416 27.6925 5.40317 27.5027 5.41043 27.3102L5.41918 27.087L5.42793 26.8683C5.43098 26.7857 5.4445 26.7189 5.4673 26.667L5.63355 26.2995C5.68389 26.1858 5.74091 26.0621 5.80418 25.9364L5.9048 25.7395L6.00543 25.5383C6.13467 25.2808 6.15822 25.0005 6.08418 24.7245L6.0273 24.5058L5.96605 24.2827C5.96484 24.276 5.96333 24.2542 5.96605 24.2127C5.96939 24.162 5.9803 24.0915 6.00543 23.9983L6.10168 23.6395L6.10605 23.6177L6.11043 23.6002L6.1323 23.4995C6.19011 23.1961 5.98948 22.9016 5.68605 22.8433Z" fill="#FF4500"/>
</svg>
