<svg width="42" height="33" viewBox="0 0 42 33" fill="none" xmlns="http://www.w3.org/2000/svg">
<path d="M29.9161 16.943C29.7099 16.877 29.4464 16.8443 29.3648 16.8938C29.3143 16.9264 29.1665 16.8112 29.1168 16.7946C29.0181 16.7618 28.7704 16.5467 28.3575 16.2416C27.9298 15.9701 27.7337 15.8037 26.7898 15.1853C26.0508 14.7012 25.7504 14.5801 25.3657 14.4453C24.7295 14.2226 24.1416 14.0291 23.6001 14.0339C22.622 14.0426 22.1208 13.8809 21.1856 14.3405L21.1836 14.3415C20.3121 14.7698 19.8566 14.9937 19.5127 15.5562C18.994 16.4047 18.6545 17.2586 18.369 17.6207C18.2528 17.768 18.1229 17.8091 17.9729 17.817C17.6604 17.8333 17.4081 17.8441 17.3068 17.7416C17.249 17.683 17.2024 17.5841 17.1587 17.4857C16.9681 17.056 16.7655 16.6988 16.6645 16.4975C16.5399 16.249 16.2875 15.8449 16.0296 15.5661C15.7299 15.2422 15.2688 14.7867 14.8918 14.6434C14.4769 14.4856 13.9634 14.2572 13.5564 14.1407C13.21 14.0416 12.6499 13.9039 12.2547 13.869C11.7889 13.828 11.1305 13.8163 10.5559 13.8858C10.078 13.9437 9.48298 14.0278 8.82176 14.1089C8.01452 14.2078 7.39434 14.3224 7.1608 14.364C6.93062 14.405 6.33183 14.5166 5.6504 14.9344C4.95318 15.3619 4.58194 15.693 4.30195 16.0954C4.11256 16.3676 4.00119 16.5908 3.89845 16.804C3.78324 17.0431 3.55277 17.2517 3.18022 18.0343C2.84372 18.7412 2.81355 19.3022 2.85238 19.7469C2.89416 20.2256 3.15396 20.8872 3.3968 21.2957C3.5538 21.5597 3.67322 21.979 4.09822 22.2683C4.46068 22.5151 4.70288 22.6193 5.02093 22.7786C5.28448 22.9106 5.50402 23.0747 5.97775 23.2155C6.50586 23.3725 7.46998 23.5543 8.1196 23.6766C8.25089 23.7013 9.17661 23.7908 10.4805 23.7092C11.1362 23.6682 11.5305 23.5976 11.9521 23.4783C12.2735 23.3873 12.7843 23.2585 13.3952 22.9665C14.1743 22.5942 15.0094 22.1659 15.5213 21.9449C15.9989 21.7387 16.3289 21.2698 16.8475 21.088C17.1521 20.9812 17.4505 20.9606 18.1222 20.8568C19.1354 20.7003 19.8274 20.6077 19.9293 20.6605C20.1684 20.7844 20.3575 20.9603 20.6134 21.1387C20.9111 21.3461 21.4385 21.7734 21.8843 22.0463C22.5419 22.4488 22.8086 22.5744 23.0361 22.6879C23.3519 22.8454 24.0051 23.1203 24.6145 23.1161C25.8549 23.1074 26.3074 23.1773 26.7784 23.0167C27.1416 22.8928 27.6115 22.7063 27.9234 22.4478C28.1632 22.249 28.4077 21.9991 28.789 21.6811C29.0364 21.4747 29.2627 21.2095 29.456 20.8734C29.613 20.6004 29.5531 19.6775 30.1199 19.6293C30.8863 19.564 31.8434 19.2793 32.0439 19.6223C32.1843 19.8626 32.3477 20.1584 32.4889 20.3727C32.6956 20.6865 32.9418 21.0285 33.3221 21.4944C33.6846 21.9385 34.0527 22.193 34.4525 22.4503C35.168 22.9106 35.4036 23.1434 36.3971 23.5043C36.6673 23.6024 37.135 23.739 37.7158 23.6019C38.1349 23.503 38.3935 23.4652 38.5629 23.2635C38.7777 23.0076 39.0029 22.6749 39.2386 22.3487C39.4542 22.0502 39.6931 21.6942 39.8317 21.3679C39.9477 21.0949 40.2627 20.7536 40.2684 20.1373C40.276 19.2989 40.2458 19.0299 40.1855 18.7802C40.1277 18.5404 40.0804 18.2729 39.9875 17.9636C39.8654 17.5573 39.6783 17.1963 39.548 16.9448L39.5425 16.9341C39.4186 16.695 39.3779 16.4296 39.2045 16.2089C39.0556 16.0195 38.4657 15.2859 37.9512 15.0143C37.6375 14.8486 37.2865 14.5972 37.0285 14.4787C36.8305 14.3877 36.443 14.1723 36.0062 14.1244C35.5577 14.0752 34.9585 14.0786 34.5635 14.2241C34.1593 14.3729 33.8482 14.5409 33.6163 14.6857C33.3523 14.8506 33.0877 14.9464 32.8084 15.1144C32.479 15.3124 32.2508 15.455 32.1082 15.6919C31.8194 16.1718 31.6675 16.9919 31.3076 17.0671C31.1904 17.0916 30.993 17.1058 30.8547 17.0832C30.5011 17.0253 30.1947 17.0322 29.9161 16.943Z" fill="#FF4500"/>
<path d="M11.027 12.6809L10.607 12.7597L10.1958 12.8297C9.9432 12.8754 9.68656 12.916 9.43453 12.9434L9.01453 12.9872L8.60328 13.0309C8.37765 13.0555 8.13848 13.0639 7.89453 13.0572L7.01953 13.0397C6.47827 13.0247 6.0142 13.2193 5.66328 13.5559L5.34828 13.9409L5.09453 14.3347L4.83203 14.7372C4.68028 14.9729 4.55325 15.1484 4.44703 15.2709L3.99203 15.7959C3.94922 15.8452 3.83706 15.94 3.61578 16.0672L3.18703 16.3209L2.75828 16.5659C2.24382 16.8617 1.86152 17.31 1.67328 17.8872L1.52453 18.3334L1.37578 18.7884C1.26985 19.1148 1.2403 19.4867 1.34953 19.8647C1.45886 20.2399 1.68001 20.5388 1.92703 20.7572L2.30328 21.0897L2.67953 21.4134C2.70938 21.4398 2.73111 21.4665 2.74078 21.5534L2.80203 22.0784L2.85453 22.5947C2.89103 22.9227 3.01597 23.341 3.36203 23.6709C3.72344 24.0153 4.16898 24.108 4.53453 24.0997L5.00703 24.0909L5.48828 24.0822C5.71905 24.077 5.90552 24.1041 6.05703 24.1434L6.45953 24.2397L6.85328 24.3447C7.058 24.3978 7.27211 24.4761 7.49203 24.5722L7.90328 24.7472L8.30578 24.9222C8.80087 25.1387 9.33511 25.1901 9.86328 25.0534L10.2833 24.9397L10.7033 24.8347C11.0359 24.7485 11.3563 24.6358 11.6658 24.5022L12.4358 24.1697C12.4797 24.1513 12.5639 24.133 12.7158 24.1522L13.6783 24.2747C14.3465 24.3588 14.9859 24.1387 15.4458 23.6009L16.0408 22.9009C16.1651 22.7556 16.2952 22.6568 16.417 22.5859L17.1345 22.1659C17.1394 22.166 17.1552 22.1635 17.1695 22.1659L17.6158 22.2534L18.0533 22.3322C18.5589 22.4242 19.0593 22.3647 19.532 22.1747L19.9608 22.0084L20.197 21.9122L20.3195 22.0172L20.6345 22.2884C20.922 22.5305 21.2404 22.7332 21.5795 22.8922L21.9558 23.0672L22.3233 23.2422C22.6904 23.4143 23.0846 23.5242 23.4958 23.5397L23.8633 23.5484L24.2308 23.5659L24.2395 23.5747C24.2756 23.5889 24.3435 23.6179 24.432 23.6797L24.8608 23.9772L25.2983 24.2834C25.5723 24.4744 25.9696 24.6582 26.4445 24.6159C26.936 24.5711 27.301 24.306 27.5383 24.0297L27.8533 23.6534L28.1683 23.2859C28.3098 23.1208 28.4448 23.0125 28.562 22.9447L28.9208 22.7347L29.2883 22.5247C29.888 22.1769 30.1945 21.5981 30.242 20.9672L30.2508 20.8622L30.6183 20.9497C31.0204 21.0386 31.4026 21.0953 31.7558 21.1159L32.1758 21.1422L32.3245 21.1509L32.377 21.2734L32.5433 21.6584C32.7128 22.046 32.9544 22.3903 33.2608 22.6822L33.5583 22.9622L33.8558 23.2509C34.1009 23.4845 34.3672 23.6974 34.652 23.8897L35.0108 24.1259L35.3608 24.3709C35.9338 24.7572 36.6126 24.7902 37.2245 24.4934L37.6095 24.3097L38.0033 24.1172C38.2765 23.9846 38.5215 23.854 38.7383 23.7322L39.027 23.5747L39.3158 23.4084C39.8089 23.1314 40.0998 22.6855 40.252 22.2272L40.5145 21.4397C40.5516 21.3282 40.6204 21.1987 40.742 21.0547L41.0483 20.6959L41.3458 20.3372C41.5654 20.0772 41.7543 19.7185 41.7658 19.2784C41.7762 18.842 41.6084 18.4802 41.407 18.2109L41.127 17.8259L40.8383 17.4497C40.6655 17.219 40.5197 17.0094 40.4008 16.8197L40.1908 16.4872L39.9808 16.1459C39.8471 15.9325 39.7093 15.7059 39.5695 15.4722L39.3508 15.1134L39.1408 14.7459C38.8885 14.3247 38.5294 13.9972 38.0908 13.7747L37.7145 13.5822L37.347 13.3897C36.9796 13.2033 36.5781 13.1201 36.1745 13.1534L35.772 13.2322L34.9845 13.4422C34.721 13.5145 34.4615 13.5878 34.2058 13.6609L33.8208 13.7747L33.4445 13.8797C33.1583 13.9615 32.858 14.0682 32.5433 14.1859L32.1058 14.3434L31.6683 14.5097C31.238 14.6707 30.8742 14.9491 30.627 15.3322L30.417 15.7522L30.3295 15.9972L30.0845 15.9359C29.9305 15.892 29.7691 15.8537 29.6208 15.8309C29.5609 15.8218 29.4786 15.8062 29.3845 15.8047L29.2183 15.6647L28.9033 15.3759C28.6393 15.1357 28.3579 14.9195 28.0545 14.7372L27.687 14.5272L27.3283 14.3084C27.0247 14.1263 26.7067 13.9772 26.3745 13.8622L25.9808 13.7222L25.5958 13.5909C25.2498 13.4714 24.8908 13.4 24.5283 13.3722L24.1345 13.3372L23.7408 13.3109C23.4926 13.2919 23.2381 13.2623 22.9795 13.2322L22.5683 13.1884L22.157 13.1359C21.6647 13.0786 21.1811 13.1685 20.7395 13.3897L20.372 13.5734L19.9958 13.7659C19.6277 13.9507 19.2965 14.1907 19.0158 14.4922L18.7358 14.8072L18.447 15.1134C18.1098 15.4758 17.9283 15.915 17.8345 16.3734C17.695 16.2826 17.5812 16.216 17.5108 16.1372L17.2395 15.8222L16.9683 15.5159C16.8736 15.4093 16.7658 15.2628 16.6708 15.0522L16.4783 14.6059L16.277 14.1597C16.0189 13.5894 15.5416 13.1434 14.8683 12.9959L14.4483 12.8997L14.0283 12.8122C13.6909 12.7383 13.3492 12.6931 13.0045 12.6722L12.5758 12.6459L12.1383 12.6197C11.7646 12.5973 11.3937 12.6146 11.027 12.6809ZM12.8645 14.9034C13.0934 14.9173 13.3229 14.9507 13.547 14.9997L13.967 15.0872L14.2645 15.1484L14.4308 15.5247L14.632 15.9709C14.8033 16.3505 15.0196 16.7005 15.2883 17.0034L15.5595 17.3097L15.8395 17.6247C16.115 17.9338 16.4519 18.1915 16.8195 18.4034L17.2395 18.6484L17.6683 18.8934C17.8955 19.0244 18.4599 19.2891 19.0683 18.9897C19.6637 18.6956 19.8066 18.1051 19.847 17.8522L20.0045 16.8547C20.0294 16.7027 20.0706 16.6496 20.0833 16.6359L20.6608 16.0234C20.7622 15.9146 20.8746 15.8248 21.002 15.7609L21.3695 15.5772L21.7458 15.3934C21.8003 15.3661 21.841 15.3613 21.8945 15.3672L22.3058 15.4109L22.717 15.4634C23.0038 15.4968 23.2871 15.5208 23.5658 15.5422L23.9683 15.5684L24.362 15.6034C24.5259 15.6161 24.6914 15.6502 24.8608 15.7084L25.2545 15.8397L25.6395 15.9797C25.8232 16.0432 26.0075 16.1199 26.182 16.2247L26.8995 16.6622C27.0733 16.7667 27.2413 16.8867 27.3983 17.0297L28.0283 17.6072C28.1475 17.7158 28.2937 17.8379 28.4395 17.9309C28.5075 17.9743 28.6348 18.0479 28.7983 18.0972C28.8982 18.1272 29.1757 18.1922 29.4983 18.0884L29.8833 18.2109L30.3033 18.3247C30.6162 18.4135 31.0499 18.4497 31.4758 18.2284C31.8978 18.008 32.1107 17.6358 32.2195 17.3359L32.377 16.9247L32.4995 16.5834L32.8845 16.4434L33.322 16.2772C33.5907 16.1766 33.8372 16.0951 34.057 16.0322L34.442 15.9272L34.8183 15.8222C35.0675 15.7509 35.3219 15.6741 35.5795 15.6034L35.9733 15.4984L36.3495 15.3934L36.7083 15.5772L37.0758 15.7697C37.1363 15.8004 37.1793 15.8399 37.2158 15.9009L37.4345 16.2597L37.6533 16.6272C37.8005 16.8733 37.9483 17.1084 38.0908 17.3359L38.292 17.6684L38.502 18.0009C38.6605 18.2539 38.8404 18.5247 39.0445 18.7972L39.3333 19.1734L39.3683 19.2084L39.3333 19.2522L39.0358 19.6109C38.754 19.9445 38.5261 20.3169 38.3883 20.7309L38.257 21.1247L38.1345 21.5097L37.9333 21.6234L37.6445 21.7809C37.4759 21.8757 37.2685 21.9857 37.0233 22.1047L36.6295 22.2884L36.437 22.3847L36.262 22.2709L35.912 22.0347C35.7278 21.9105 35.5558 21.776 35.4045 21.6322L35.107 21.3434L34.8008 21.0634C34.7101 20.977 34.6501 20.8732 34.5995 20.7572L34.267 20.0047L34.022 19.5934C33.9196 19.4624 33.7947 19.3377 33.6458 19.2347C33.352 19.0321 33.0244 18.9463 32.7183 18.9284L32.307 18.9022L31.887 18.8759C31.6839 18.8641 31.4212 18.8333 31.0995 18.7622L30.0145 18.5172L29.4633 18.4734C29.2494 18.4866 29.0098 18.5385 28.7808 18.6747C28.5218 18.8294 28.3547 19.0386 28.247 19.2522L28.0808 19.8734L28.0458 20.3372L28.0283 20.6697L27.8008 20.8009L27.442 21.0109C27.0746 21.2236 26.7512 21.5062 26.4708 21.8334L26.1908 22.1659L26.147 22.1397L25.7095 21.8422C25.3186 21.5694 24.8437 21.3453 24.3095 21.3259L23.9508 21.3084L23.5833 21.2997C23.5078 21.297 23.407 21.2731 23.277 21.2122L22.5245 20.8622C22.3667 20.7878 22.2177 20.6908 22.0783 20.5734L21.7545 20.3022L21.4395 20.0309C21.1884 19.8198 20.8716 19.6671 20.512 19.6197C20.3359 19.5968 20.1657 19.6036 20.0045 19.6284L19.5495 19.7509L19.1208 19.9259L18.7008 20.1009C18.6078 20.1384 18.5323 20.1409 18.4558 20.1272L17.5808 19.9697C17.0448 19.8716 16.5022 19.9488 16.0145 20.2322L15.647 20.4422L15.2883 20.6522C14.9295 20.8611 14.6152 21.1306 14.3433 21.4484L14.0458 21.7984L13.8445 22.0347L13.477 21.9909L12.9958 21.9297C12.5088 21.868 12.0109 21.9115 11.5433 22.1134L11.167 22.2797L10.782 22.4459C10.5826 22.5321 10.3684 22.6063 10.1433 22.6647L9.72328 22.7697L9.30328 22.8834C9.27234 22.8914 9.24998 22.8929 9.20703 22.8747L8.79578 22.6909L8.39328 22.5159C8.07309 22.3759 7.74891 22.2596 7.42203 22.1747L7.01953 22.0784L6.61703 21.9734C6.23709 21.8751 5.8409 21.833 5.43578 21.8422H5.03328L5.02453 21.8247L4.96328 21.3084C4.89553 20.6995 4.62776 20.1481 4.15828 19.7334L3.79078 19.4097L3.59828 19.2259L3.65953 19.0334L3.79953 18.5784C3.80679 18.5564 3.81466 18.5463 3.81703 18.5434C3.82155 18.5383 3.8432 18.5286 3.87828 18.5084L4.30703 18.2547L4.73578 18.0097C5.08784 17.8072 5.42046 17.5656 5.68078 17.2659L6.13578 16.7409C6.33179 16.5152 6.52325 16.2483 6.71328 15.9534L6.97578 15.5509L7.15078 15.2709L7.39578 15.2884L7.83328 15.2972C8.17329 15.3066 8.50939 15.298 8.83953 15.2622L9.25953 15.2184L9.67953 15.1659C9.98335 15.1328 10.2867 15.0895 10.5895 15.0347L11.0095 14.9647L11.4295 14.8859C11.6169 14.8523 11.8089 14.839 12.007 14.8509L12.8645 14.9034Z" fill="#FF4500"/>
<path d="M34.3869 7.47856C34.1966 6.66869 34.0557 6.24689 33.9852 6.14844C33.9852 6.30714 34.0499 6.54811 34.0427 6.64677C34.0215 6.78745 34.1125 7.11595 34.1053 7.56491C34.0701 7.90354 33.9589 8.20737 33.9498 8.48384C33.9428 8.6958 33.7962 9.36344 33.6948 10.2188C33.6169 10.8757 33.6228 11.2894 33.3247 12.1107C33.1739 12.5264 32.9218 13.1565 32.7741 13.5293C32.6265 13.9021 32.5845 14.0142 32.5635 14.099C32.5425 14.1839 32.5395 14.2582 32.6579 14.2679C32.9974 14.2959 33.2629 14.2681 33.371 14.2605C33.6755 14.2391 34.013 14.1952 34.2976 14.1756C34.609 14.1542 35.4504 14.3536 35.7677 14.0267C35.7955 13.998 35.7815 13.956 35.7601 13.8917C35.6538 13.5728 35.525 13.272 35.2784 11.9991C35.1446 11.3081 35.1068 10.9107 35.0453 10.6069C34.918 9.97776 34.7919 9.5164 34.6981 9.05501C34.6192 8.66652 34.5042 7.97788 34.3869 7.47856Z" fill="#FF4500"/>
<path d="M33.4645 9.02281L33.3901 9.22406L33.3113 9.42094C33.2183 9.66411 33.2075 9.91971 33.2676 10.1691L33.3201 10.3878L33.3551 10.5234L33.2151 10.6722L33.0401 10.8559C32.784 11.1255 32.6999 11.477 32.8082 11.8316L32.8826 12.0766L32.9526 12.2997L32.8607 12.4353L32.7338 12.6147C32.6407 12.749 32.5573 12.8893 32.4801 13.0303L32.3795 13.2141L32.2745 13.3978C32.1504 13.6242 32.0716 13.964 32.2788 14.2859L32.362 14.4172L32.4451 14.5441C32.5616 14.725 32.7568 14.8559 33.0007 14.8678C33.2023 14.8774 33.3706 14.8022 33.4776 14.7409L33.6788 14.6272L33.8801 14.5091C33.8858 14.5058 33.8907 14.5057 33.8932 14.5047H33.902L34.1207 14.5528L34.3438 14.6009C34.5601 14.6474 34.7845 14.6514 35.0045 14.5966L35.3807 14.5003C35.5902 14.4481 35.7924 14.3485 35.9538 14.1809L36.1813 13.9447C36.3198 13.801 36.407 13.5959 36.3826 13.3628C36.361 13.1601 36.2604 13.0045 36.177 12.9034L36.0326 12.7241L35.8882 12.5491C35.8329 12.4822 35.7944 12.4183 35.7745 12.3566L35.7132 12.1509L35.6476 11.9497C35.629 11.8918 35.6226 11.831 35.6301 11.7616L35.652 11.5428L35.6782 11.3241C35.6998 11.1247 35.6913 10.9246 35.652 10.7291L35.6082 10.5234L35.5688 10.3178C35.5288 10.1188 35.4561 9.93013 35.3545 9.75344L35.2451 9.56094L35.1357 9.37281C35.1062 9.32163 35.0899 9.27081 35.0876 9.21969L35.0788 9.00531L35.0701 8.79531C35.0656 8.69467 35.0729 8.58618 35.092 8.47594L35.1313 8.25719L35.1663 8.03406C35.2178 7.73611 35.1493 7.44654 34.9738 7.20281L34.9345 7.14594C34.9298 7.0809 34.9279 7.01259 34.9082 6.94469L34.7857 6.52469C34.7444 6.38278 34.6879 6.22063 34.6107 6.09594L34.5626 6.01281L34.5101 5.93406L34.4445 5.84219C34.4276 5.82311 34.3342 5.71934 34.1732 5.67156C34.075 5.64262 33.9433 5.63027 33.8057 5.68469C33.673 5.73742 33.5886 5.82736 33.5432 5.89469C33.4655 6.01036 33.4545 6.12731 33.4513 6.15281C33.4422 6.22752 33.4486 6.29487 33.4513 6.32344C33.4552 6.36291 33.4621 6.40514 33.4688 6.44594L33.4995 6.65594L33.5345 6.86156C33.5601 7.01695 33.6204 7.15844 33.692 7.29469L33.482 7.53094C33.3715 7.65397 33.2766 7.80905 33.237 7.99469C33.1967 8.18325 33.2189 8.36869 33.2807 8.53281L33.3682 8.76031L33.4557 8.99219L33.4645 9.02281ZM34.5101 10.7466L34.5538 10.9522C34.5695 11.0307 34.5724 11.1158 34.5626 11.2059L34.5407 11.4203L34.5145 11.6391C34.4904 11.8596 34.5123 12.0792 34.5801 12.2909L34.6457 12.4966L34.7113 12.6978C34.778 12.9052 34.8831 13.0942 35.022 13.2622L35.1445 13.4022C35.1395 13.4047 35.1283 13.4106 35.1095 13.4153L34.9213 13.4634L34.7332 13.5072C34.7025 13.5148 34.6545 13.5187 34.5801 13.5028L34.3613 13.4591L34.1382 13.4109C33.9322 13.3667 33.7295 13.3776 33.5388 13.4416C33.5767 13.3789 33.6142 13.3151 33.657 13.2534L33.902 12.8947C34.0997 12.6097 34.1188 12.2837 34.0288 11.9891L33.9545 11.7484L33.902 11.5691L34.0245 11.4422L34.1995 11.2584C34.3658 11.0834 34.4764 10.8622 34.4882 10.6153L34.5101 10.7466Z" fill="#FF4500"/>
<path d="M37.039 13.5948C36.9268 14.3251 36.8844 14.5788 36.8279 14.7622L38.0585 16.3323C38.073 16.2041 38.087 16.1621 38.1012 16.105C38.1294 15.9779 38.1718 15.8226 38.1931 15.5247C38.2571 15.1271 38.3812 14.7629 38.391 13.7454C38.398 13.0185 38.4284 12.5842 38.4334 12.441C38.4405 12.2432 38.622 11.577 38.6957 10.4896C38.7659 9.45272 38.8274 8.7339 38.8508 8.38103C38.8648 8.16991 38.9339 7.85671 39 6.87714C39.0498 6.13771 39.1058 4.93341 39.1555 4.20141C39.1564 4.18844 39.1572 4.17562 39.1581 4.16295C39.1609 4.14761 39.1636 4.13242 39.1663 4.11739C39.3619 3.02155 39.3596 2.55621 39.409 2.33046C39.5379 1.74179 39.6286 1.08542 39.6498 0.935624C39.6599 0.864902 39.5302 1.27977 39.4243 1.77329C39.3016 2.34508 39.2891 2.76626 39.2681 3.04082C39.2548 3.21493 39.2069 3.46052 39.1581 4.16295C39.0196 4.92956 38.7745 6.05872 38.6297 6.6709C38.482 7.29533 38.44 7.37935 38.2675 8.00569C38.095 8.63203 37.801 9.76631 37.5601 10.8673C37.3193 11.9683 37.1299 13.0033 37.039 13.5948Z" fill="#FF4500"/>
<path d="M39.3441 0.463984C39.1191 0.467203 38.9815 0.59988 38.9373 0.647734C38.8522 0.740538 38.8174 0.841611 38.8148 0.848984L38.7798 0.993359L38.7448 1.16398L38.7098 1.33898C38.6561 1.61227 38.7262 1.87205 38.8279 2.08711L38.876 2.18336L38.8979 2.33648L38.9373 2.54211L38.9241 2.55961L38.6616 2.95336C38.5422 3.13192 38.4431 3.34079 38.4166 3.57023L38.3816 3.91148C38.3733 3.9845 38.3615 4.10602 38.3904 4.23086C38.4058 4.29631 38.4403 4.40897 38.5304 4.51086C38.5519 4.53521 38.5842 4.54739 38.6091 4.56773L38.5741 4.74711C38.5476 4.88706 38.5253 5.03131 38.4998 5.17148L38.4604 5.37711L38.421 5.58711C38.3997 5.70362 38.3736 5.82063 38.3379 5.93711L38.2723 6.14273L38.211 6.34836C38.1895 6.41875 38.1779 6.48948 38.1716 6.55836L37.9879 6.72898C37.7414 6.95748 37.6121 7.27268 37.6685 7.62586L37.7035 7.85336L37.7429 8.08086C37.759 8.1819 37.7585 8.27071 37.7473 8.34773L37.686 8.76773C37.6759 8.83499 37.6499 8.90165 37.6116 8.96898L37.5066 9.15711L37.3973 9.34523C37.2986 9.51872 37.2297 9.70685 37.1873 9.90086L37.1391 10.1021L37.0954 10.3077C37.0531 10.5012 37.0395 10.6998 37.056 10.8984L37.0779 11.1171L37.0954 11.3359C37.1009 11.4018 37.0927 11.4583 37.0735 11.5109L36.9991 11.7121L36.9248 11.909C36.8888 12.0064 36.8407 12.1066 36.7804 12.2065L36.6666 12.399L36.5485 12.5915C36.3947 12.8465 36.3497 13.1348 36.4173 13.4227L36.4698 13.6459L36.5223 13.8646C36.5337 13.9135 36.5312 13.945 36.5223 13.9696L36.4479 14.1709L36.3735 14.3677C36.3492 14.4346 36.323 14.5166 36.3079 14.5865C36.3037 14.606 36.298 14.6373 36.2948 14.674C36.2927 14.6975 36.2867 14.7844 36.3166 14.8884C36.3317 14.9405 36.3663 15.027 36.4435 15.1115V15.129L36.4566 15.3477C36.4809 15.6962 36.6728 15.9732 36.9685 16.1309L37.1741 16.2359L37.3754 16.3452C37.4539 16.387 37.537 16.4257 37.616 16.4546C37.6707 16.4746 37.8187 16.5266 37.9879 16.5027L38.1191 16.4852C38.3581 16.4513 38.5011 16.2899 38.5435 16.2402C38.6076 16.1653 38.6617 16.0786 38.7054 15.9996L38.8104 15.8071L38.9198 15.6146C39.0729 15.338 39.0874 15.0311 38.9898 14.744L38.9154 14.5209L38.8366 14.3021C38.8083 14.2189 38.8057 14.1523 38.8104 14.1009L38.8279 13.8909L38.8454 13.6852C38.8605 13.5203 38.8663 13.353 38.8585 13.1865L38.8498 12.9765L38.8366 12.7621C38.83 12.6205 38.8227 12.4755 38.8148 12.329L38.806 12.1102L38.7973 11.9134C38.7998 11.9104 38.8024 11.9041 38.806 11.9002L38.9854 11.7165L39.1648 11.5284C39.2801 11.4076 39.3806 11.2483 39.4185 11.0515C39.457 10.8508 39.418 10.6613 39.3441 10.5002L39.2435 10.2815L39.1429 10.0584C39.133 10.0364 39.13 10.0254 39.1298 10.0234L39.2523 9.61211C39.3224 9.36971 39.3162 9.12121 39.2479 8.88148L39.1866 8.66711L39.1473 8.52273L39.2873 8.35648L39.4535 8.16398C39.5663 8.03126 39.6616 7.85602 39.681 7.64773C39.7003 7.43913 39.638 7.25272 39.5498 7.10086L39.4229 6.87773L39.3923 6.82086C39.4443 6.70085 39.4771 6.56973 39.4798 6.42711L39.4841 6.20836L39.4885 5.99398C39.4896 5.93467 39.5006 5.87949 39.5279 5.82336L39.7204 5.42961C39.8228 5.2207 39.8782 4.98954 39.856 4.74711L39.8385 4.55898L39.821 4.36648L39.7948 4.21336C39.7907 4.1975 39.7725 4.1543 39.7466 4.09961L39.751 4.09523L39.8035 3.89398L39.856 3.68836C39.8867 3.56842 39.9228 3.44548 39.9654 3.32523L40.0398 3.12398L40.1098 2.91836C40.2148 2.62052 40.1764 2.32202 40.0529 2.06086L39.961 1.86398C39.9485 1.77232 39.9367 1.67939 39.9348 1.58398L39.926 1.13773C39.9252 1.09645 39.9255 1.05184 39.9216 1.01086C39.9198 0.99131 39.9158 0.958307 39.9085 0.923359C39.9049 0.906019 39.898 0.877085 39.8866 0.844609C39.8773 0.818231 39.8506 0.749021 39.7948 0.678359C39.7391 0.607833 39.5887 0.461302 39.3441 0.463984ZM37.721 12.8146L37.7298 13.029L37.7385 13.239C37.7439 13.3539 37.74 13.4679 37.7298 13.5802L37.6948 14.0002C37.6743 14.226 37.7054 14.4478 37.7779 14.6609L37.8523 14.884L37.931 15.094L37.8304 15.2646L37.8085 15.304L37.6991 15.2471L37.5679 15.1771L37.5591 15.0502L37.546 14.8315C37.5408 14.7551 37.5298 14.6565 37.5066 14.569C37.5059 14.566 37.5039 14.5617 37.5023 14.5559V14.5515L37.5723 14.3502C37.6604 14.1077 37.6693 13.8569 37.6116 13.6109L37.5635 13.3877L37.511 13.1646L37.6248 12.9765L37.721 12.8146ZM38.2285 10.7452L38.2723 10.8415L38.1891 10.929L38.176 10.8065C38.1713 10.7499 38.1797 10.6962 38.1848 10.6446L38.2285 10.7452Z" fill="#FF4500"/>
<path d="M27.3341 22.4105C27.1191 22.6321 27.1219 22.9877 27.3432 23.2032L27.4172 23.2703L27.4241 23.2771L27.6853 23.525C27.8811 23.71 28.0869 23.871 28.297 23.9716L28.5013 24.0678L28.6889 24.1559L28.7559 24.3642L28.8258 24.5807C28.893 24.7878 28.9968 24.9775 29.1357 25.145L29.2715 25.3111L29.4114 25.4758C29.5477 25.6399 29.71 25.7748 29.8968 25.8779L30.086 25.984L30.2737 26.0859C30.3627 26.135 30.4433 26.1942 30.5134 26.2579L30.8233 26.5399C30.894 26.6044 30.9605 26.6778 31.0205 26.7636L31.1467 26.9422L31.2688 27.1223C31.3898 27.2955 31.5406 27.4427 31.7158 27.5607L31.8913 27.6807L32.0654 27.7967C32.2399 27.9139 32.4327 27.9965 32.6378 28.0485L32.8611 28.1058L33.0067 28.139L33.0597 28.3197L33.1325 28.5584C33.2159 28.8249 33.3794 29.0619 33.637 29.2176L33.8193 29.3307L34.0058 29.4424C34.0732 29.4832 34.1293 29.5323 34.1774 29.5915L34.3132 29.7576L34.4476 29.9196C34.5589 30.0566 34.7289 30.2328 34.9647 30.3061L35.1922 30.3759C35.2359 30.3894 35.308 30.4086 35.3822 30.4169C35.4112 30.4201 35.5092 30.4319 35.6214 30.3994C35.6845 30.3809 35.791 30.3373 35.884 30.235C35.9888 30.1196 36.0337 29.9755 36.0325 29.8461L36.0295 29.824L36.0306 29.6525L35.9857 29.5893C35.9535 29.504 35.9069 29.423 35.8327 29.3597L35.7587 29.2926L35.1621 29.831L34.9172 29.832C34.9218 29.7137 34.9597 29.5841 35.0549 29.4793C35.1454 29.3803 35.2484 29.3403 35.3066 29.3233C35.336 29.3147 35.366 29.3159 35.3909 29.3128L35.4085 29.2697L35.3404 29.2468C35.3336 29.2394 35.326 29.2295 35.3166 29.218L35.1808 29.0519L35.0492 28.8844C34.9185 28.7234 34.7593 28.588 34.5818 28.4807L34.4009 28.3718L34.2144 28.2602L34.2199 28.2629C34.2184 28.2606 34.2097 28.2492 34.2016 28.2229L34.0558 27.7456C33.954 27.4198 33.7142 27.1686 33.359 27.0786L32.9124 26.9639C32.8204 26.9405 32.7478 26.9078 32.6901 26.8692L32.5146 26.7491L32.3405 26.6332C32.2844 26.5954 32.2359 26.5451 32.191 26.4811L31.9385 26.1238C31.8328 25.9724 31.7138 25.8336 31.579 25.7108L31.2691 25.4288C31.1326 25.3047 30.9792 25.1979 30.8163 25.108L30.438 24.8958C30.3737 24.8603 30.318 24.8184 30.272 24.7632L30.0004 24.431C29.9569 24.3786 29.9166 24.3132 29.8906 24.2329L29.8221 24.0205L29.7522 23.8039C29.6586 23.5146 29.4622 23.288 29.187 23.1563L28.9868 23.0587L28.7825 22.9624C28.7212 22.933 28.612 22.8605 28.4564 22.7137L28.1897 22.4631L28.1254 22.3973C27.9038 22.1826 27.5496 22.1893 27.3341 22.4105ZM35.3909 29.3128C35.4543 29.3048 35.4981 29.3054 35.5043 29.3061C35.5413 29.3103 35.5544 29.3146 35.5222 29.3046L35.4085 29.2697L35.3909 29.3128Z" fill="#FF4500"/>
<path d="M26.7565 22.9657C26.4476 22.9689 26.1987 23.2222 26.2014 23.531L26.2036 23.5767L26.1458 23.9004C26.0953 24.1897 26.087 24.5067 26.2045 24.7895L26.3792 25.2115L26.3813 25.2211L26.302 25.4313L26.227 25.6426C26.1625 25.818 26.1148 25.9993 26.0889 26.1808L26.0301 26.5989C25.9976 26.8268 26.0174 27.0539 26.0885 27.2716L26.1578 27.4826L26.2282 27.6894C26.2575 27.779 26.2696 27.8658 26.2721 27.9483L26.2777 28.1615L26.2844 28.3706C26.2869 28.4634 26.279 28.5604 26.2573 28.6613L26.2088 28.8747L26.1646 29.0891C26.1208 29.2928 26.1121 29.4998 26.1422 29.7056L26.1723 29.9114L26.2034 30.113C26.2288 30.2861 26.272 30.459 26.3315 30.6317L26.404 30.848L26.4637 31.0251L26.3452 31.2121L26.2171 31.4192C26.1662 31.4995 26.1009 31.6102 26.0669 31.7335C26.0502 31.7952 26.0274 31.9088 26.0536 32.0413C26.085 32.1983 26.1804 32.3533 26.345 32.4472L26.4119 32.4863L26.5935 32.59L26.6084 32.5847C26.6738 32.6113 26.7426 32.6322 26.8175 32.6321C27.1267 32.6317 27.3761 32.3812 27.3758 32.072L27.3778 31.9734L27.3752 31.6752L27.4249 31.6019C27.5949 31.3329 27.6466 31.0142 27.537 30.6966L27.4635 30.4845L27.3867 30.2671C27.3476 30.1533 27.322 30.0472 27.3077 29.95L27.2809 29.7495L27.2508 29.5437C27.2413 29.4788 27.2424 29.4071 27.26 29.3251L27.3043 29.1106L27.3527 28.8973C27.3925 28.7125 27.4111 28.5246 27.406 28.338L27.3926 27.92C27.3871 27.7236 27.3546 27.5289 27.293 27.3408L27.2226 27.134L27.1533 26.9229C27.1339 26.8631 27.1286 26.8084 27.136 26.7563L27.1697 26.5483L27.1991 26.3392C27.2132 26.2399 27.2372 26.1349 27.276 26.0293L27.3553 25.819L27.4303 25.6078C27.5312 25.3335 27.5268 25.0473 27.4152 24.7791L27.3278 24.5681L27.2394 24.3613C27.2394 24.3611 27.2325 24.345 27.2308 24.3051C27.229 24.2579 27.2353 24.1884 27.2517 24.0939L27.3169 23.7224L27.3253 23.6704L27.3219 23.5208C27.3188 23.2115 27.0658 22.9626 26.7565 22.9657Z" fill="#FF4500"/>
<path d="M24.6975 22.9255C24.4262 22.7791 24.0839 22.8822 23.9363 23.1531L23.9244 23.186L23.7171 23.3996C23.5129 23.6179 23.3265 23.8931 23.2873 24.2166L23.2568 24.4428L23.2305 24.6705L23.2301 24.6843C23.2296 24.685 23.2268 24.6877 23.2231 24.6911L22.8836 24.9872C22.7431 25.1109 22.6174 25.2481 22.5082 25.3959L22.3823 25.5644L22.2549 25.737C22.1181 25.9223 22.0296 26.1319 21.9891 26.3574L21.9519 26.5765L21.9121 26.7901C21.8955 26.8825 21.8684 26.9661 21.8312 27.0399L21.6392 27.4172C21.6024 27.4896 21.5534 27.558 21.4902 27.6239L21.3396 27.7835L21.1848 27.9416C21.0355 28.0969 20.9174 28.2762 20.8381 28.4769L20.6873 28.869C20.6197 29.0403 20.5694 29.2195 20.5399 29.4065L20.5053 29.6312L20.4788 29.8077L20.2754 29.9203L20.0536 30.045C19.9678 30.0923 19.8526 30.1643 19.7604 30.2647C19.7131 30.3165 19.6358 30.4127 19.6011 30.5514C19.5606 30.7147 19.5893 30.8927 19.686 31.0379L19.7314 31.1054L19.8342 31.2588L19.8424 31.2618C19.889 31.3254 19.9476 31.3833 20.0211 31.4239C20.2915 31.5722 20.63 31.4747 20.7793 31.2046L20.83 31.1158L21.0037 30.8018L21.0388 30.7819C21.3185 30.6274 21.5213 30.3713 21.5749 30.0312L21.6095 29.8065L21.6482 29.5832C21.6659 29.4711 21.69 29.3693 21.7248 29.2807L21.8044 29.0861L21.8798 28.89C21.9033 28.8305 21.9407 28.7717 21.9933 28.7171L22.1425 28.5616L22.2972 28.4035C22.4353 28.26 22.549 28.0986 22.6384 27.922L22.7344 27.7334L22.8289 27.5489C22.918 27.373 22.9821 27.1844 23.0171 26.9889L23.0528 26.7738L23.0941 26.5562C23.1053 26.494 23.1274 26.4454 23.1588 26.4028L23.2821 26.2287L23.408 26.0602C23.4675 25.9797 23.5386 25.9002 23.6228 25.826L23.9622 25.5299C24.1789 25.3387 24.3073 25.0866 24.3413 24.8016L24.3718 24.5754L24.3967 24.3518C24.3949 24.3655 24.3931 24.3549 24.4127 24.3204C24.433 24.2849 24.4706 24.2321 24.5341 24.1642L24.7914 23.8896L24.8425 23.8383L24.8745 23.7754L24.9251 23.6867C25.0715 23.4155 24.9684 23.0731 24.6975 22.9255Z" fill="#FF4500"/>
<path d="M13.8323 24.4742L13.9553 24.9035C14.0076 25.0808 14.0788 25.2499 14.1638 25.4106L14.2642 25.6032L14.3631 25.7917C14.4778 26.0082 14.6464 26.1833 14.8525 26.3122L15.2252 26.5487C15.3125 26.6034 15.388 26.6627 15.4501 26.728L15.5976 26.882L15.7396 27.0333C15.8063 27.1036 15.8672 27.1843 15.92 27.2733L16.0314 27.4577L16.1387 27.6434C16.2405 27.815 16.3663 27.9681 16.5148 28.0999L16.8265 28.3749C16.967 28.4995 17.1252 28.6078 17.2972 28.6989L17.5085 28.8089L17.63 28.8702L17.6335 29.0487L17.6382 29.3005C17.64 29.3999 17.6484 29.5511 17.7074 29.6923C17.7391 29.7676 17.8063 29.8864 17.9347 29.9767C18.0792 30.0779 18.2451 30.1047 18.3923 30.0793C18.4233 30.0859 18.4533 30.0935 18.4849 30.0948L18.6327 30.1659L18.9033 29.9385L18.9255 29.922C18.9456 29.9052 19.0389 29.8247 19.0909 29.6832C19.1231 29.5944 19.1452 29.4632 19.1005 29.3208C19.0563 29.1802 18.967 29.0897 18.8967 29.0379C18.8463 29.0007 18.7905 28.992 18.7475 28.9765L18.7468 28.7786C18.7438 28.6183 18.7095 28.4453 18.6171 28.287C18.523 28.1264 18.3865 28.0081 18.2365 27.9288L18.0307 27.8215L17.8236 27.7101C17.7203 27.6556 17.6358 27.599 17.5696 27.5405L17.4123 27.3988L17.2565 27.2613C17.1986 27.2097 17.1468 27.1478 17.1022 27.0726L16.9949 26.8869L16.8821 26.6983C16.7881 26.5401 16.6758 26.3964 16.5502 26.2641L16.4068 26.1087L16.2607 25.9588C16.1302 25.8214 15.9821 25.6995 15.8192 25.5975L15.4465 25.361C15.4019 25.3331 15.375 25.3034 15.3555 25.2666L15.2524 25.0795L15.1521 24.8869C15.1037 24.7952 15.062 24.6949 15.03 24.5862L14.9685 24.3716L14.9028 24.1583C14.819 23.874 14.6379 23.6465 14.3821 23.5007L14.1874 23.3852L13.99 23.2752C13.9713 23.2646 13.9039 23.2155 13.8095 23.0629L13.6292 22.7676L13.61 22.7371L13.5866 22.708L13.519 22.6289C13.3228 22.3914 12.9721 22.3562 12.7335 22.5514C12.4943 22.7475 12.4614 23.102 12.6574 23.3412L12.6946 23.3842L12.8556 23.649C13.0021 23.8862 13.1904 24.1066 13.4346 24.2459L13.6334 24.36L13.8267 24.4714L13.8323 24.4742ZM18.1882 29.0825L18.3921 29.3239L18.0766 29.7365C18.0635 29.7104 18.0409 29.6854 18.0313 29.6547C17.9876 29.5138 18.0063 29.3852 18.038 29.2978C18.0801 29.1825 18.1547 29.1129 18.1882 29.0825ZM18.3101 29.0331L18.3482 29.2324L18.2214 29.0853L18.2105 29.0383L18.3101 29.0331ZM18.2214 29.0853L18.3482 29.2324L18.3101 29.0331L18.2105 29.0383L18.2214 29.0853Z" fill="#FF4500"/>
<path d="M9.88492 23.5108C9.57763 23.542 9.3554 23.8158 9.38617 24.1233L9.39492 24.1714L9.39055 24.1758L9.3993 24.5477C9.4054 24.834 9.45125 25.1288 9.58305 25.3745L9.68805 25.5758L9.79742 25.7683L9.7318 25.9783L9.66617 26.1927C9.61235 26.3691 9.57434 26.5468 9.5568 26.7264L9.53492 26.9408L9.51305 27.1508C9.49069 27.3817 9.52612 27.6093 9.6093 27.8245L9.7668 28.2358C9.80585 28.3367 9.8352 28.4371 9.84992 28.5333L9.91117 28.9445C9.92283 29.0207 9.92129 29.1022 9.9068 29.1895L9.8718 29.4083L9.8368 29.6227C9.80107 29.8351 9.80268 30.0509 9.84992 30.2614L9.89805 30.467L9.9418 30.6727C9.97048 30.8 10.0175 30.9224 10.0687 31.0445L10.1168 31.6045L10.1299 31.7008C10.1579 32.0088 10.43 32.2363 10.738 32.2083C10.7442 32.2077 10.7495 32.2003 10.7555 32.1995L10.773 32.2083L10.9655 32.1558L11.0312 32.1383C11.2161 32.0894 11.3652 31.9564 11.4337 31.7752C11.4875 31.6319 11.4744 31.5037 11.4643 31.4427C11.4433 31.3166 11.3904 31.1974 11.3505 31.1189L11.1405 30.7077C11.0894 30.607 11.055 30.51 11.0355 30.4233L10.9918 30.222L10.9437 30.0164C10.9296 29.9539 10.9268 29.886 10.9393 29.8108L10.9787 29.592L11.0137 29.3777C11.0472 29.1781 11.0483 28.9774 11.018 28.7783L10.9874 28.5683L10.9568 28.3627C10.9292 28.1828 10.8791 28.0058 10.8124 27.8333L10.6549 27.422C10.6324 27.3638 10.6238 27.3112 10.6287 27.2602L10.6505 27.0502L10.6724 26.8358C10.6823 26.7347 10.7006 26.6295 10.7337 26.5208L10.7993 26.302L10.8649 26.0877C10.9526 25.8001 10.923 25.5066 10.7818 25.2433L10.6768 25.0464L10.5674 24.8452C10.556 24.8239 10.5238 24.7348 10.5193 24.5258L10.5105 24.1539V24.1102L10.4974 24.0095C10.466 23.7024 10.1923 23.48 9.88492 23.5108Z" fill="#FF4500"/>
<path d="M7.59014 23.5587C7.37953 23.3328 7.02336 23.3206 6.79702 23.531L6.75635 23.5717L6.46672 23.8042C6.24001 23.9856 6.0268 24.2088 5.92048 24.4833L5.84063 24.696L5.75725 24.9061C5.75478 24.9124 5.75393 24.9177 5.75303 24.9192L5.54423 25.0266L5.34671 25.126C5.20669 25.1975 5.07384 25.2718 4.9484 25.344L4.59712 25.5422C4.41329 25.6479 4.25707 25.7903 4.12577 25.9562L3.98687 26.131L3.85054 26.3023C3.78752 26.382 3.7209 26.4492 3.64979 26.5024L3.31312 26.7547C3.24076 26.8087 3.1578 26.8551 3.0653 26.8931L2.86495 26.9741L2.66202 27.0587C2.45799 27.1425 2.27722 27.2648 2.12361 27.4235L1.97223 27.5784L1.82343 27.7297C1.69141 27.8666 1.58243 28.0263 1.4857 28.1982L1.2419 28.383L1.16385 28.4451C0.968258 28.5947 0.906158 28.8438 0.980972 29.0649L0.976746 29.0781L1.02998 29.2202L1.05871 29.2846C1.08215 29.3433 1.13254 29.449 1.24442 29.5345C1.37516 29.6339 1.53559 29.6666 1.67796 29.646C1.79978 29.628 1.88779 29.5746 1.93145 29.5442C1.9786 29.5112 2.0142 29.4765 2.0363 29.4529C2.11275 29.3711 2.17167 29.2641 2.21185 29.191L2.45199 28.7595C2.51132 28.6517 2.57271 28.5678 2.63201 28.5064L2.78081 28.3551L2.92608 28.2011C2.96916 28.1565 3.02097 28.1218 3.08502 28.0952L3.49088 27.9261C3.66744 27.8536 3.83523 27.7624 3.98653 27.6492L4.15228 27.5266L4.32062 27.4005C4.47305 27.2864 4.60857 27.1505 4.72823 26.9994L4.86714 26.8246L5.00346 26.6533C5.05474 26.5885 5.10509 26.5426 5.15415 26.5142L5.50543 26.316C5.61324 26.254 5.73237 26.1879 5.85765 26.1239L6.05517 26.0245L6.25527 25.9216C6.51168 25.7903 6.69631 25.5781 6.79966 25.3117L6.88304 25.1016L6.96547 24.8854C6.9684 24.8793 6.9801 24.8608 7.00684 24.8289C7.03947 24.79 7.08994 24.7396 7.16528 24.6792L7.45492 24.4467L7.47137 24.4316L7.48524 24.4201L7.56235 24.3519C7.78827 24.1412 7.80046 23.7851 7.59014 23.5587Z" fill="#FF4500"/>
</svg>
