<svg width="66" height="66" viewBox="0 0 66 66" fill="none" xmlns="http://www.w3.org/2000/svg">
<path d="M62.5538 53.7691C62.6782 53.9003 62.8092 54.0095 62.9454 54.0991L63.4542 54.4341C63.6492 54.5625 63.8317 54.7088 64.0011 54.8716L64.4444 55.2983C64.6364 55.4828 64.791 55.698 64.9073 55.9409L65.1817 56.5161C65.3021 56.7676 65.3689 57.0334 65.377 57.3101L65.3946 57.9282C65.4033 58.2233 65.3346 58.5045 65.1905 58.7622L64.8868 59.3042C64.8545 59.3619 64.8191 59.4172 64.7823 59.4712L64.3624 59.1704C64.0921 58.9754 63.9719 58.8443 63.9317 58.7857L63.753 58.523L63.5733 58.2671C63.3834 57.9901 63.1356 57.7594 62.8429 57.5942L62.294 57.2866C62.1775 57.2207 62.0739 57.1387 61.9796 57.0435L61.5304 56.5952C61.518 56.5825 61.5094 56.568 61.4991 56.5571L61.5304 56.2632L61.2491 55.9878L61.1661 55.9038C60.8438 55.5879 60.3241 55.5893 60.0069 55.9097C59.7754 56.1456 59.7237 56.485 59.8341 56.7749L59.8282 56.7935L59.8722 56.9546L59.9112 57.0689C59.9645 57.2454 60.0584 57.3889 60.1222 57.4732C60.1944 57.5685 60.2839 57.6595 60.3722 57.7485L60.5899 57.9722L60.8136 58.1968C61.0147 58.3998 61.2434 58.5749 61.4923 58.7153L61.7618 58.8687L62.0372 59.023C62.1102 59.0642 62.1726 59.1174 62.2218 59.189L62.5811 59.7144C62.7799 60.0039 63.0794 60.2652 63.4073 60.5015L63.5733 60.6216C63.5516 60.6437 63.5294 60.6654 63.5079 60.688L63.169 61.0435L62.7784 60.7524C62.5077 60.5503 62.3775 60.4159 62.3292 60.3491L62.1446 60.0942L61.9649 59.8433C61.7931 59.6046 61.5871 59.396 61.3497 59.2222L61.0938 59.0366L60.8448 58.8501C60.7058 58.7483 60.5773 58.6465 60.4659 58.5376L60.255 58.3325L60.1143 58.1919L60.1905 57.9868L59.8321 57.6284L59.7491 57.5376C59.4316 57.217 58.912 57.2152 58.5899 57.5317C58.3982 57.7216 58.3366 57.9807 58.3722 58.229L58.3595 58.2681L58.418 58.5044L58.4434 58.6011C58.4935 58.8048 58.6038 58.9567 58.6602 59.0298C58.7305 59.1207 58.8128 59.2104 58.8966 59.2925L59.1095 59.5044L59.3204 59.7095C59.4906 59.8759 59.68 60.0323 59.878 60.1773L60.127 60.3618L60.3829 60.5474C60.4813 60.6198 60.5631 60.7072 60.6329 60.8042L60.8184 61.0532L60.9981 61.3032C61.177 61.5518 61.4351 61.7903 61.7247 62.0132C61.5289 62.0993 61.3235 62.1534 61.1095 62.1714L60.4923 62.2232C60.3204 62.2376 60.1529 62.2683 59.9903 62.3169L59.4044 62.4927C59.1003 62.5836 58.7916 62.5677 58.4981 62.4478L57.9268 62.2144C57.6941 62.1192 57.4833 61.9953 57.3009 61.8384L56.8888 61.4839C56.7312 61.3484 56.5773 61.1926 56.4259 61.0191L56.1954 60.7554C56.267 60.6965 56.3309 60.625 56.3809 60.5405L56.4454 60.438L56.4708 60.3931L56.4893 60.3413L56.5411 60.2066L56.547 60.2144L56.6114 60.0796C56.6762 59.9476 56.7465 59.7737 56.8165 59.5796L56.919 59.2983L57.0216 59.0103C57.1027 58.7849 57.1634 58.5511 57.213 58.312L57.3419 57.6968C57.3545 57.6363 57.3737 57.5802 57.3975 57.5269C57.5207 57.4664 57.6307 57.375 57.713 57.2534C57.8017 57.122 57.8457 56.9736 57.8507 56.8257C57.8881 56.7802 57.9297 56.7386 57.9815 56.7046L58.2442 56.5376L58.5011 56.3657C58.7422 56.2078 58.9557 56.016 59.1407 55.7944L59.3458 55.5523L59.545 55.3081C59.6877 55.1369 59.8282 54.9612 59.961 54.7837L60.3321 54.2847L60.338 54.2769C60.3405 54.2758 60.3493 54.2732 60.3585 54.271L60.671 54.2007L60.9923 54.1304C61.3175 54.0559 61.6682 53.8948 62.0167 53.6948L62.3165 53.5181L62.5538 53.7691ZM36.9669 0.0131914C37.232 -0.0471913 37.4088 0.11478 37.4708 0.194832C37.5266 0.267229 37.5495 0.338469 37.5567 0.361824L37.5763 0.443855L37.6095 0.635262C37.6298 0.753667 37.6297 0.891416 37.6231 1.02491L37.6046 1.396C37.6019 1.45095 37.6096 1.5073 37.6319 1.56788L37.7657 1.92921C37.8179 2.07101 37.8599 2.21466 37.8907 2.35987L37.9679 2.72413C38.001 2.88074 38.016 3.03921 38.0138 3.19874L38.0089 3.5669C38.0073 3.67256 38.0112 3.77861 38.0206 3.88429L38.0528 4.25245C38.0629 4.36621 38.0758 4.47987 38.0919 4.59327L38.1446 4.96046C38.1635 5.09368 38.178 5.22748 38.1876 5.36182L38.2139 5.73194C38.2267 5.91099 38.2087 6.08847 38.1622 6.26221L38.0636 6.63038C38.0487 6.68622 38.0461 6.73849 38.0548 6.79151L38.1163 7.16163C38.1422 7.31913 38.151 7.47758 38.1427 7.63624L38.1231 8.00538C38.1171 8.12017 38.1137 8.23529 38.1134 8.35011L38.1124 8.71925C38.112 8.8554 38.1061 8.99172 38.0948 9.12745L38.0645 9.49561C38.0522 9.64377 38.0284 9.79064 37.9932 9.93604L37.9054 10.3003C37.8986 10.3282 37.8975 10.3625 37.9132 10.4126L38.0333 10.7974C38.1168 11.0652 38.079 11.3358 37.9317 11.5708L37.7139 11.9185C37.6853 11.9641 37.6798 11.9953 37.6798 12.0191L37.6788 12.3921C37.6785 12.4808 37.6879 12.5699 37.7071 12.6587L37.7862 13.0278C37.8146 13.1591 37.84 13.2912 37.8614 13.4233L37.921 13.7944C37.9463 13.9508 37.9562 14.1078 37.9493 14.2651L37.9327 14.6353C37.9265 14.7765 37.9131 14.9183 37.8917 15.0601L37.835 15.4351C37.8055 15.6303 37.7353 15.8129 37.6309 15.98L37.418 16.3208C37.4011 16.3479 37.4026 16.3581 37.4034 16.3657L37.4434 16.7398C37.4603 16.8987 37.4604 17.058 37.4434 17.2163L37.4034 17.5855C37.3952 17.6618 37.3983 17.7384 37.4122 17.8149L37.4786 18.1821C37.5054 18.33 37.5213 18.479 37.5245 18.6284L37.5323 18.9985C37.5336 19.0586 37.5452 19.1189 37.5714 19.1821L37.7179 19.5357C37.812 19.7631 37.8194 20.0024 37.7511 20.2329L37.6368 20.6177C37.629 20.6438 37.632 20.6538 37.6368 20.6655L37.7813 21.023C37.8737 21.2509 37.8819 21.4943 37.7989 21.729L37.6729 22.0855C37.6272 22.2147 37.5772 22.3409 37.5235 22.4644L37.377 22.8032C37.3488 22.8683 37.3297 22.9388 37.3214 23.0171L37.2813 23.397C37.2617 23.5819 37.2086 23.7616 37.1124 23.9253L36.9581 24.186C36.9592 24.194 36.9612 24.2068 36.9659 24.2251C36.9762 24.265 36.9924 24.3107 37.0177 24.3794L37.0977 24.6148L37.0987 24.6167H37.0977C37.1261 24.7181 37.1785 24.7903 37.2677 24.8491L37.8302 25.2202C38.1306 25.4186 38.3225 25.7101 38.3741 26.0698L38.4669 26.7153C38.4949 26.9109 38.5333 27.0996 38.5831 27.2808L38.7501 27.8872C38.8345 28.1947 38.8145 28.5049 38.6954 28.8003L38.4571 29.3921C38.4284 29.4634 38.4326 29.5078 38.46 29.563L38.7364 30.1187C38.8369 30.3206 38.9243 30.5262 38.9991 30.7349L39.2032 31.3052C39.2411 31.4108 39.2862 31.5135 39.335 31.6148C39.2711 31.6813 39.2167 31.7593 39.1768 31.8482V31.854L38.8829 32.3286C38.7048 32.6145 38.5792 32.7572 38.5118 32.8149L38.2677 33.0259L38.0255 33.231C37.7265 33.4849 37.5234 33.8191 37.4415 34.2046L37.3136 34.8189C37.2675 35.0357 37.2283 35.2542 37.1925 35.4663L37.0899 36.0679C37.0675 36.2009 37.0254 36.3335 36.9679 36.4653L36.8468 36.7534L36.7188 37.0425C36.6127 37.2861 36.5323 37.5373 36.4815 37.7964L36.4249 38.105L36.3663 38.4048C36.3142 38.6732 36.2919 38.9451 36.3087 39.2183L36.3282 39.5269L36.3468 39.8403C36.3588 40.0349 36.368 40.2225 36.3731 40.4028L36.3858 40.6987L36.3917 40.9868C36.3999 41.2652 36.4512 41.5435 36.5391 41.813L36.6417 42.1196L36.7374 42.4214C36.8904 42.8894 37.2395 43.2186 37.6915 43.3618L38.0186 43.4585L38.338 43.5601C38.4572 43.5976 38.5399 43.6494 38.6007 43.7017L39.0626 44.0982C39.2858 44.2907 39.5379 44.4478 39.8116 44.5601L40.1065 44.6743L40.4005 44.7964C40.4606 44.8214 40.5076 44.8602 40.5538 44.9185L40.7589 45.1733L40.9571 45.4243C41.173 45.6989 41.4447 45.9161 41.7706 46.0513L42.0587 46.1665L42.3409 46.2886C42.5311 46.3674 42.7271 46.4461 42.9171 46.5249L43.1993 46.6411L43.4874 46.7632C43.6796 46.8429 43.8792 46.9199 44.0772 46.9995L44.3712 47.1216L44.6651 47.2358C44.6736 47.2395 44.6753 47.2472 44.6778 47.2495C44.6819 47.2532 44.6967 47.2617 44.711 47.2876L44.8702 47.5894L45.0362 47.8833C45.2688 48.3055 45.6583 48.5764 46.1378 48.645L46.4708 48.6968L46.8106 48.7407C46.9116 48.7553 46.9732 48.7869 47.0157 48.8179L47.2657 48.9976L47.5089 49.1831C47.8044 49.4007 48.1488 49.5189 48.5138 49.5357L49.129 49.561C49.185 49.5637 49.2466 49.5849 49.3214 49.6314L49.6026 49.8042L49.878 49.9771C50.2766 50.2247 50.7311 50.2653 51.1651 50.1304L51.8184 49.9253C51.8949 49.9016 51.938 49.9112 51.9659 49.9194L52.2667 50.0093L52.5675 50.105C52.7965 50.1746 53.0285 50.2289 53.2598 50.271L53.5597 50.3228L53.8604 50.3804C54.0992 50.4238 54.3432 50.4495 54.585 50.4575L54.8858 50.4702L55.1866 50.4761C55.3334 50.481 55.4911 50.5038 55.6534 50.5405L56.2823 50.6812C56.5274 50.7366 56.9455 50.7894 57.3243 50.563C57.4804 50.6943 57.6313 50.8303 57.7755 50.9722L58.213 51.4028C58.2982 51.4866 58.4042 51.5503 58.5401 51.5913L59.1622 51.7788C59.4262 51.8584 59.6678 51.9818 59.88 52.1509L60.3614 52.5347C60.3812 52.5505 60.402 52.5646 60.4229 52.5786L60.3126 52.606L59.9991 52.6763C59.6067 52.7655 59.2638 52.9765 59.0186 53.3042L58.6778 53.7642L58.5675 53.7075C58.292 53.5656 58.1569 53.4565 58.0997 53.3999L58.17 53.3941L57.9659 53.2661L57.8634 53.1499L57.6524 52.9077C57.4042 52.6331 57.0864 52.4419 56.7227 52.3491L56.4229 52.273L56.3966 52.2661L56.1847 52.1314L56.0831 52.0679C55.8208 51.9015 55.5049 51.9146 55.2511 52.0552L54.9171 52.0874L54.8204 52.7085L54.8145 52.7466C54.7678 53.0445 54.8931 53.2711 54.9757 53.3804C55.0532 53.482 55.1371 53.5438 55.1798 53.5728C55.2675 53.6318 55.3555 53.6716 55.3975 53.688C55.4943 53.7255 55.611 53.7562 55.7188 53.7837L56.3194 53.937C56.3576 53.9468 56.3948 53.9641 56.4356 54.0093L56.6466 54.2515L56.8643 54.4878C57.0482 54.6912 57.2913 54.8688 57.5577 55.0249L57.3419 55.1675L57.085 55.3345C56.9594 55.4168 56.8439 55.5107 56.7384 55.6148C56.5678 55.4912 56.4719 55.4 56.4268 55.3452L56.2218 55.0962L56.0225 54.8521C55.7751 54.551 55.4473 54.3448 55.0684 54.2505L54.7608 54.1733L54.4473 54.0903L54.3507 54.0649L54.3126 54.0132L54.2296 53.9107L54.1202 53.8335L54.0245 53.77C53.65 53.5171 53.1386 53.6151 52.8848 53.9888C52.6947 54.2706 52.703 54.6301 52.878 54.898L53.1026 55.1274L53.1407 55.1792L53.1788 55.2173L53.2755 55.3071C53.4141 55.4411 53.5723 55.5188 53.6788 55.563C53.7966 55.6119 53.9233 55.6535 54.0499 55.6851L54.3643 55.7612L54.671 55.8384C54.7065 55.8472 54.7291 55.8599 54.754 55.8901L55.1641 56.3892C55.3414 56.6042 55.5809 56.8032 55.8487 56.9907C55.804 57.1117 55.7679 57.236 55.7413 57.3638L55.6124 57.979C55.5777 58.1464 55.533 58.3086 55.4786 58.4595L55.2735 59.023C55.2128 59.1914 55.1674 59.2924 55.1427 59.3442C55.1242 59.3317 55.1049 59.3194 55.0841 59.3081L54.5655 59.0278C54.4219 58.95 54.2734 58.8875 54.1202 58.8413L53.5636 58.6733C53.2518 58.5793 53.0092 58.379 52.8497 58.0991L52.5499 57.5718C52.4739 57.4384 52.3781 57.3161 52.2618 57.2046L51.8126 56.7739C51.6706 56.6379 51.5255 56.5081 51.378 56.3843L50.9102 55.9917C50.7486 55.8561 50.5893 55.7164 50.4327 55.5728L49.9796 55.1558C49.8163 55.006 49.6604 54.8486 49.5128 54.6831L49.1016 54.2222C49.0236 54.1348 48.9232 54.0665 48.7891 54.0191L48.169 53.7993C47.9408 53.7186 47.7242 53.6237 47.5196 53.5151L46.9737 53.2261C46.7475 53.106 46.5428 52.9533 46.3604 52.77L45.9151 52.3218C45.7653 52.1711 45.6179 52.0212 45.4737 51.8726L45.045 51.4312C44.9058 51.2877 44.7641 51.1458 44.6202 51.0064L44.1778 50.5776C44.0322 50.4365 43.8848 50.2968 43.7374 50.1587L43.5421 49.9751L43.5733 50.1148C43.6304 50.3707 43.6456 50.6288 43.6192 50.8872L43.5567 51.5015C43.5358 51.7064 43.5144 51.9111 43.4932 52.1148L43.4298 52.7251C43.4094 52.9215 43.393 53.1186 43.3809 53.3159L43.3438 53.9292C43.3301 54.1537 43.302 54.3783 43.2608 54.6021L43.1485 55.2153C43.0981 55.4888 42.9788 55.7727 42.7218 55.9585L42.3722 56.2105C42.2921 56.2683 42.1867 56.3204 42.0587 56.3364C41.9265 56.3529 41.8016 56.327 41.6954 56.2749C41.504 56.181 41.3871 56.0123 41.3165 55.8872L40.9864 55.3013C40.9093 55.1645 40.8191 55.0669 40.7188 54.9976L40.2169 54.6509C40.0491 54.5348 39.8838 54.4203 39.7227 54.3081L39.2413 53.9722C39.0052 53.8078 38.8466 53.5816 38.7657 53.3149L38.7354 53.1987L38.6075 52.5903C38.5595 52.3636 38.5287 52.135 38.5157 51.9048L38.4805 51.2886C38.4691 51.0858 38.4559 50.8831 38.4415 50.6812L38.3975 50.0679C38.3816 49.845 38.3786 49.6093 38.3858 49.3618L38.3917 49.1323L38.2462 49.2056C38.04 49.3083 37.8221 49.3655 37.5977 49.3706L37.5968 49.3726C37.5249 49.4451 37.4348 49.545 37.3409 49.6538C37.1474 49.8779 36.974 50.0985 36.9356 50.1558L36.5968 50.6616C36.5072 50.7953 36.4337 50.9414 36.377 51.1011L36.168 51.6919C36.0661 51.9793 35.8896 52.2203 35.6446 52.4019L35.1495 52.7681C34.8835 52.9652 34.5668 53.0514 34.2305 52.9761L33.6876 52.854C33.4195 52.7939 33.1811 52.6668 32.9815 52.478L32.5743 52.0933C32.3959 51.9245 32.2484 51.7239 32.128 51.4985L31.8331 50.9468C31.6788 50.6581 31.637 50.3431 31.7052 50.0239L31.8389 49.3989C31.8685 49.2607 31.8795 49.0252 31.8497 48.6685L31.8028 48.1079L31.8009 48.0913V48.0562C31.8007 48.0444 31.8002 48.0271 31.7999 48.0054C31.7992 47.9616 31.7982 47.899 31.797 47.8237C31.7945 47.6725 31.7914 47.4697 31.7882 47.2642C31.7836 46.978 31.7788 46.6805 31.7764 46.5112C31.7427 46.4677 31.6988 46.4138 31.6495 46.3569C31.5922 46.2909 31.5345 46.2264 31.4903 46.1782L31.4376 46.1206C31.2225 45.956 31.0523 45.751 30.9366 45.5044L30.671 44.938C30.5828 44.75 30.4946 44.5637 30.4073 44.3804L30.1436 43.8267C30.0743 43.6812 29.9844 43.5421 29.8731 43.4087L29.4639 42.9175C29.2695 42.6844 29.1472 42.4131 29.1036 42.1128L29.0128 41.4829C28.9836 41.2816 28.9494 41.0852 28.9112 40.8941L28.7921 40.2935C28.7428 40.0466 28.729 39.7968 28.752 39.5454L28.8087 38.9312C28.8195 38.8132 28.801 38.6924 28.7452 38.563L28.4864 37.9634C28.3762 37.7078 28.3159 37.4412 28.3116 37.1675L28.3028 36.5503C28.2993 36.3239 28.3097 36.0973 28.335 35.8706L28.4044 35.2505C28.426 35.0566 28.4399 34.863 28.4464 34.6704L28.4669 34.0542C28.4731 33.869 28.468 33.6865 28.4513 33.5073L28.4005 32.9732L28.169 32.3667L28.1348 32.2769L28.1368 32.1802L28.1505 31.6235C28.1596 31.2364 28.195 30.8993 28.2696 30.6333L28.4444 30.0093C28.4631 29.9429 28.4548 29.9116 28.4229 29.8687L28.047 29.3618C27.9397 29.2172 27.8201 29.0852 27.6895 28.9644L27.2296 28.5386C27.0141 28.3393 26.8585 28.0961 26.7657 27.8169L26.5645 27.2095C26.4917 26.9903 26.4321 26.7719 26.3868 26.5542L26.3136 26.2046L25.2618 25.7339C25.1061 25.6768 24.9467 25.6372 24.7823 25.6157L24.172 25.5357C23.9998 25.5132 23.8256 25.5075 23.6495 25.5181L23.0294 25.5552C22.727 25.5734 22.437 25.5063 22.169 25.3628L21.5938 25.0542C21.4297 24.9663 21.272 24.9031 21.1222 24.8608L20.5587 24.7017C20.4433 24.6692 20.3066 24.6589 20.1427 24.6802L19.4805 24.7661C19.221 24.7998 18.9641 24.8013 18.711 24.77L18.0802 24.6919C17.7556 24.6517 17.4724 24.5068 17.2403 24.2778L16.7598 23.8052C16.7061 23.7521 16.6549 23.7306 16.5645 23.7388L15.8751 23.8013C15.5327 23.8321 15.2083 23.7483 14.9317 23.5386L14.4161 23.148C14.3093 23.067 14.2017 23.0239 14.088 23.0093L13.4766 22.9312C13.2957 22.9081 13.1111 22.8975 12.9229 22.8989L12.293 22.9038C12.0141 22.9059 11.7447 22.8505 11.4903 22.7378L10.921 22.4849C10.7274 22.3991 10.5355 22.3114 10.3458 22.2212L9.78817 21.9556C9.68229 21.9052 9.56448 21.8813 9.42586 21.8901L8.77352 21.9321C8.46486 21.9518 8.16947 21.887 7.89949 21.7368L7.34383 21.4282C7.2024 21.3496 7.05761 21.2967 6.90926 21.2681L6.30574 21.1519C6.14637 21.1211 5.98305 21.1108 5.81551 21.1216L5.19051 21.1616C4.89302 21.1808 4.6058 21.1207 4.33797 20.9878L3.75985 20.7007C3.60529 20.624 3.45113 20.5728 3.29696 20.5435L2.93465 20.4732C2.76608 20.4664 2.602 20.4343 2.44246 20.3774C2.31778 20.3511 2.19293 20.3228 2.06844 20.2925L1.46785 20.146C1.32571 20.1114 1.23629 20.1188 1.18367 20.1333L0.722737 20.2603C0.684327 20.2709 0.646573 20.2812 0.618245 20.2876C0.610689 20.2893 0.599973 20.2913 0.587971 20.2935C0.582651 20.2944 0.549949 20.3009 0.509846 20.3023C0.50437 20.3024 0.423865 20.308 0.331135 20.2759C0.285996 20.2602 0.152277 20.207 0.0655102 20.0562C-0.0386039 19.8751 0.00218816 19.6973 0.045979 19.603C0.0841012 19.521 0.135664 19.4704 0.154377 19.4526C0.178418 19.4299 0.199903 19.4142 0.211995 19.4058C0.236031 19.389 0.256863 19.3782 0.265706 19.3735C0.309502 19.3505 0.365505 19.3303 0.38094 19.3247C0.413871 19.3129 0.45768 19.2984 0.509846 19.2808L1.12313 19.0728C1.45161 18.9616 1.78623 18.9848 2.09774 19.1343L2.69149 19.4194C2.69917 19.4231 2.70735 19.4258 2.71492 19.4292C2.76935 19.4404 2.82358 19.4521 2.87801 19.4624L3.03524 19.4917C3.04041 19.4914 3.04565 19.4921 3.05086 19.4917L3.67586 19.4448C3.93962 19.4251 4.20085 19.45 4.45711 19.5191L5.06746 19.6841C5.15779 19.7084 5.2517 19.7047 5.36629 19.6567L5.99031 19.395C6.3334 19.2515 6.69049 19.2677 7.01961 19.4409L7.61824 19.7554C7.74328 19.8212 7.85323 19.8416 7.95711 19.8335L8.57332 19.7857C8.79987 19.7678 9.02664 19.7642 9.25301 19.7759L9.86824 19.8081C10.0738 19.8187 10.2792 19.8297 10.4845 19.8413L11.0987 19.8755C11.3667 19.8906 11.626 19.9565 11.8741 20.0689L12.461 20.3345C12.5894 20.3926 12.7154 20.4167 12.8438 20.4116L13.4669 20.3872C13.7261 20.377 13.981 20.4078 14.2296 20.479L14.8233 20.6489C14.9373 20.6816 15.0642 20.687 15.212 20.6558L15.8702 20.5161C16.2096 20.4443 16.5429 20.4991 16.838 20.687L17.3819 21.0337C17.5227 21.1233 17.6683 21.1873 17.8194 21.228L18.4229 21.3901C18.579 21.4322 18.7367 21.4521 18.8975 21.4487L19.5206 21.436C19.7652 21.431 20.0066 21.4533 20.2442 21.5034L20.8458 21.6304C21.0761 21.679 21.3021 21.7487 21.5225 21.8394L22.1016 22.0776C22.2472 22.1375 22.3969 22.1729 22.5509 22.1841L23.17 22.229C23.3424 22.2416 23.5164 22.2366 23.6925 22.2134L24.3194 22.1304C24.6036 22.093 24.8846 22.121 25.1563 22.2134L25.7589 22.4185C25.8607 22.4531 26.0641 22.4762 26.4112 22.4419L26.9698 22.3872L27.1495 22.3696L27.2979 22.4722L27.3809 22.5288L27.7511 22.4302C27.8734 22.3973 27.997 22.3345 28.1212 22.2319L28.6397 21.8032C28.8975 21.5903 29.2027 21.4763 29.5391 21.4819L29.6456 21.4829C29.6315 21.2845 29.6416 21.084 29.7042 20.9019L29.8282 20.5405C29.8426 20.4987 29.8455 20.4604 29.838 20.4185L29.7706 20.0444C29.7409 19.8791 29.7321 19.7113 29.7442 19.5435L29.7725 19.1616C29.7865 18.9697 29.8372 18.7859 29.9259 18.6148L30.0977 18.2827C30.1282 18.2238 30.1466 18.1641 30.1544 18.1011L30.1993 17.7349C30.2099 17.6483 30.2115 17.5604 30.2032 17.4712L30.169 17.0991C30.1541 16.9378 30.1574 16.7768 30.1798 16.6167L30.2315 16.2495C30.2536 16.0918 30.2926 15.9365 30.3477 15.7847L30.4786 15.4224C30.4816 15.414 30.4825 15.4096 30.4825 15.4077C30.4825 15.4055 30.482 15.3977 30.4766 15.3823L30.3419 15.0015C30.2643 14.7812 30.2549 14.5478 30.3282 14.3189L30.4425 13.9605C30.4642 13.8924 30.4744 13.8254 30.4727 13.7583L30.463 13.3882C30.458 13.1894 30.4976 12.997 30.5772 12.8159L30.7335 12.4614C30.7596 12.402 30.7711 12.3472 30.7716 12.2935L30.7745 11.9224C30.7756 11.7908 30.7796 11.6593 30.7872 11.5278L30.8087 11.1567C30.8155 11.0387 30.8203 10.9199 30.8233 10.8003L30.8331 10.4253C30.8391 10.1891 30.9207 9.97436 31.0587 9.79151L31.293 9.47999L31.2198 9.10011C31.1753 8.87212 31.198 8.64105 31.3009 8.4253L31.4639 8.08448C31.4851 8.04024 31.4925 7.99872 31.4913 7.9546L31.4805 7.5835C31.4744 7.37235 31.5239 7.16977 31.6182 6.98389L31.7911 6.64307L31.6554 6.26124C31.5778 6.04205 31.5652 5.80882 31.6358 5.57862L31.7462 5.21827C31.7819 5.10174 31.8164 4.9856 31.8487 4.87061L31.9493 4.51417C31.9786 4.40998 32.0031 4.30473 32.0225 4.19874L32.0889 3.83546C32.122 3.65489 32.1871 3.4843 32.2804 3.32569L32.4766 2.99073C32.4957 2.9582 32.5021 2.93172 32.5011 2.90089L32.4874 2.521C32.4815 2.35698 32.4943 2.19432 32.5264 2.03468L32.5997 1.67237C32.6353 1.49573 32.7002 1.32907 32.794 1.1753L32.9854 0.862801C33.0188 0.80819 33.0573 0.747883 33.0958 0.699715C33.1081 0.684258 33.1537 0.625768 33.2247 0.577644C33.2534 0.558163 33.3617 0.487323 33.5186 0.49073C33.6092 0.492765 33.7064 0.519581 33.793 0.580574C33.8345 0.609718 33.8676 0.642118 33.8936 0.674324L33.9522 0.767098L33.9747 0.812019C34.0288 0.921232 34.0291 1.0284 34.0294 1.03468C34.0306 1.06861 34.029 1.10081 34.0274 1.1255C34.0241 1.17672 34.0176 1.23784 34.0089 1.30323L33.9591 1.67335C33.9409 1.80936 33.9177 1.94452 33.8888 2.07862L33.8097 2.44386C33.7965 2.5048 33.7946 2.56592 33.8048 2.63038L33.8643 3.00343C33.8873 3.14823 33.9008 3.29284 33.9044 3.43702L33.9132 3.80323C33.9173 3.9694 33.8989 4.13521 33.8604 4.29932L33.7735 4.67237C33.7745 4.67433 33.7756 4.67703 33.7774 4.68018L33.9884 5.03663C34.1357 5.28526 34.1609 5.5703 34.046 5.84229L33.8888 6.21339C33.865 6.26965 33.8602 6.31322 33.8634 6.35011L33.8956 6.72022C33.9011 6.78396 33.9175 6.85117 33.9503 6.92335L34.1143 7.2837C34.1869 7.44333 34.2369 7.60952 34.2598 7.78077L34.3077 8.13721C34.3327 8.32421 34.3188 8.51121 34.2725 8.69386L34.1749 9.07764C34.1588 9.14121 34.1582 9.19475 34.1671 9.24171L34.2364 9.60596C34.2625 9.74452 34.2766 9.88458 34.2813 10.0249L34.3595 9.76417C34.3881 9.66804 34.4106 9.56984 34.4259 9.47022L34.4815 9.10499C34.5001 8.98398 34.5183 8.86284 34.5362 8.74171L34.5899 8.3755C34.6099 8.24013 34.6362 8.10618 34.6671 7.97413L34.7501 7.61866C34.7763 7.50678 34.7997 7.39354 34.8214 7.27979L34.8907 6.91846C34.9223 6.75281 34.9768 6.5931 35.0518 6.43995L35.2227 6.09132C35.2529 6.02987 35.2678 5.97232 35.2716 5.91651L35.296 5.54835C35.3023 5.45376 35.3002 5.35598 35.2901 5.25538L35.252 4.8755C35.2342 4.69717 35.2453 4.51944 35.2852 4.34522L35.3682 3.98292C35.4032 3.83065 35.4525 3.68259 35.5167 3.53956L35.67 3.19679C35.7157 3.09482 35.7576 2.99218 35.794 2.88917L35.9171 2.54151C35.9584 2.42465 36 2.30805 36.0421 2.1919L36.1671 1.8462C36.2069 1.73624 36.2454 1.62459 36.2823 1.51124L36.3985 1.15577C36.432 1.05278 36.4591 0.951495 36.4805 0.852059L36.5567 0.501473C36.5643 0.466236 36.5733 0.428638 36.5841 0.393074C36.5898 0.374156 36.6124 0.295608 36.6641 0.220223C36.6806 0.196245 36.7746 0.057122 36.9669 0.0131914ZM56.8116 50.1362L57.0206 50.3091C56.8942 50.2578 56.7558 50.1678 56.6544 50.0024C56.7069 50.0468 56.7586 50.0922 56.8116 50.1362ZM40.3927 33.23C40.5513 33.4284 40.6778 33.6478 40.7725 33.8862L41.005 34.4702C41.0541 34.5938 41.1267 34.6992 41.2276 34.7905L41.6973 35.2153C41.8704 35.3718 42.0311 35.5377 42.1778 35.7134L42.5733 36.187C42.7432 36.3906 42.8731 36.6203 42.963 36.8726L43.1759 37.4702C43.2129 37.5743 43.2742 37.6582 43.3712 37.729L43.8956 38.1118C44.1087 38.2676 44.2925 38.4495 44.4434 38.6577L44.7999 39.1499C44.9211 39.3172 45.0415 39.4873 45.1602 39.6597L45.5098 40.1675C45.604 40.3041 45.7145 40.4283 45.8409 40.5415L46.3057 40.9585C46.4989 41.1315 46.6605 41.3302 46.7891 41.5532L47.0958 42.0845C47.2129 42.2876 47.3146 42.5056 47.4005 42.7378L47.6319 43.3638C47.6445 43.3977 47.6556 43.4085 47.6593 43.4116C47.6632 43.4149 47.6797 43.4275 47.7247 43.437L48.3966 43.5806C48.7453 43.6547 49.032 43.8475 49.2266 44.148L49.5919 44.7124C49.6707 44.8341 49.7602 44.9122 49.8595 44.9624L50.4112 45.2417C50.5566 45.3152 50.7175 45.3732 50.8956 45.4136L51.5401 45.5591C51.8347 45.626 52.0976 45.7613 52.3194 45.9644L52.7891 46.3931C52.9952 46.5818 53.1573 46.8076 53.2764 47.064L53.5548 47.6636C53.6077 47.7775 53.6778 47.8508 53.7657 47.9019L54.3077 48.2163C54.5006 48.3282 54.6869 48.4476 54.8663 48.5747L55.2354 48.8364L54.9366 48.8316L54.6358 48.8179C54.4755 48.8125 54.3156 48.7959 54.1563 48.7671L53.8546 48.7153L53.5538 48.6577C53.3869 48.6273 53.2176 48.5871 53.0479 48.5357L52.7462 48.4399L52.4464 48.3511C52.074 48.2378 51.6922 48.2519 51.3321 48.3638L51.005 48.4653L50.7042 48.5562L50.4669 48.4077L50.1856 48.2349C49.8895 48.0509 49.5595 47.944 49.2061 47.9273L48.8917 47.9087L48.585 47.896C48.5414 47.8938 48.5119 47.8849 48.4815 47.8628L48.2384 47.6782L47.9884 47.4985C47.7053 47.2902 47.3829 47.1705 47.0421 47.1216L46.7022 47.0698L46.4327 47.0308L46.3116 46.7944L46.1456 46.5005C45.9521 46.1493 45.6581 45.8731 45.2735 45.7183L44.9796 45.5972L44.6847 45.4819C44.4913 45.4042 44.3016 45.3232 44.1143 45.2456L43.8263 45.1294L43.545 45.0073C43.3547 44.9284 43.1584 44.85 42.9679 44.771L42.6866 44.6558L42.3985 44.5337C42.3441 44.5109 42.2947 44.4747 42.2452 44.4116L42.046 44.1626L41.8477 43.9058C41.6293 43.6279 41.3499 43.4137 41.0216 43.2788L40.7276 43.1567L40.4327 43.0425C40.316 42.9946 40.2152 42.9286 40.1309 42.856L39.671 42.4585C39.4247 42.2466 39.1396 42.0948 38.8311 41.9976L38.5118 41.896L38.2677 41.8189L38.0958 41.2993C38.051 41.1616 38.0343 41.0395 38.0313 40.9351L38.0186 40.647L38.0128 40.3589C38.0071 40.158 37.9996 39.9506 37.9864 39.7378L37.9669 39.4302L37.9483 39.1167C37.9402 38.9821 37.9485 38.85 37.9737 38.7192L38.0313 38.4116L38.0889 38.1108C38.1164 37.9705 38.164 37.8318 38.2237 37.6948L38.3448 37.4067L38.4727 37.1187C38.5813 36.8692 38.659 36.6097 38.7042 36.3433L38.8057 35.7417C38.8375 35.5537 38.8739 35.3591 38.9151 35.1646L38.9796 34.8521L39.0499 34.5435C39.0556 34.5168 39.0624 34.5017 39.088 34.48L39.5743 34.0698C39.8317 33.8512 40.0656 33.5412 40.2784 33.1997L40.3175 33.1362L40.3927 33.23ZM30.5763 23.2993C30.4028 23.2867 30.2305 23.3047 30.0616 23.3462L29.8809 23.3882L29.7042 23.4341C29.5929 23.4615 29.4873 23.4843 29.3888 23.5034L29.2237 23.5337L29.0636 23.5659C28.9206 23.5937 28.7736 23.6638 28.6593 23.7954C28.6042 23.8588 28.5639 23.9272 28.5362 23.9956L28.4835 24.1997L28.46 24.3804L28.4366 24.564C28.3997 24.8505 28.5028 25.1068 28.6973 25.2974L28.8399 25.436L28.9776 25.5737C29.0483 25.6428 29.1073 25.7109 29.1514 25.7778L29.2511 25.9282L29.3468 26.0776C29.4747 26.2724 29.6617 26.4148 29.8927 26.478L30.0587 26.523L30.2237 26.5659C30.2945 26.5853 30.3742 26.6169 30.4581 26.6616L30.627 26.7544L30.795 26.8423C30.9834 26.9425 31.1921 26.9909 31.4073 26.98L31.5909 26.9683L31.7755 26.9614C31.9279 26.9537 32.0802 26.9308 32.2286 26.896L32.4093 26.854L32.586 26.812C32.7602 26.7712 32.9253 26.703 33.0743 26.604L33.2237 26.5044L33.3702 26.4087C33.3872 26.3974 33.4195 26.3825 33.4815 26.3784L33.6856 26.3618L33.8848 26.3511C33.9614 26.346 34.0548 26.3354 34.1388 26.312C34.1786 26.3008 34.2533 26.2783 34.3263 26.228C34.4007 26.1765 34.5345 26.049 34.5499 25.8355L34.5538 25.7935L34.5567 25.7476C34.5638 25.6477 34.5395 25.5678 34.5264 25.5288C34.5113 25.4837 34.4923 25.4432 34.4766 25.4136C34.4457 25.3552 34.4074 25.2946 34.3682 25.2398L34.2657 25.0933L34.1612 24.9517C34.0888 24.8504 34.0135 24.7457 33.9317 24.6411L33.8116 24.4917L33.6973 24.3413C33.5638 24.1707 33.3886 24.0446 33.1856 23.9683L33.0089 23.9028L32.8321 23.8335C32.6966 23.7826 32.5572 23.7411 32.421 23.7075L32.2481 23.6655L32.0714 23.6226C31.967 23.5969 31.8624 23.5671 31.7598 23.5337L31.5909 23.4761L31.418 23.4224C31.2654 23.3727 31.1063 23.3435 30.9454 23.3316L30.5763 23.2993ZM30.296 24.2993C30.2588 24.5457 30.3164 24.8694 30.5108 25.1245L30.6222 25.2661L30.7296 25.4097C30.8128 25.5185 30.9428 25.6343 31.128 25.6782C31.3149 25.7223 31.4831 25.6758 31.6085 25.6118L31.9239 25.4517C31.991 25.4173 32.1414 25.3346 32.2305 25.1704C32.2848 25.0694 32.2167 24.8051 32.1866 24.6636C32.2833 24.6874 32.3851 24.7183 32.4864 24.7564L32.6632 24.8218L32.8399 24.8911C32.8732 24.9037 32.8977 24.9204 32.92 24.9487L33.0391 25.0982L33.1544 25.2485C33.1988 25.3054 33.2416 25.3626 33.2823 25.4175C33.1223 25.4443 32.9648 25.4959 32.8243 25.5894L32.6788 25.6851L32.5284 25.7866C32.4815 25.8175 32.4273 25.8399 32.3634 25.855L32.002 25.9399C31.9114 25.9611 31.8193 25.9733 31.7257 25.978L31.5411 25.9888L31.3565 25.9976C31.3253 25.9991 31.2936 25.9936 31.2569 25.9741L31.087 25.8862L30.918 25.7935C30.7775 25.7186 30.6331 25.6573 30.4845 25.6167L30.3194 25.5737L30.1612 25.5288L30.0733 25.3901L29.9737 25.2398C29.887 25.1078 29.7827 24.9846 29.6661 24.8706L29.421 24.6245L29.4356 24.5064V24.4917L29.5743 24.4683C29.6909 24.4457 29.8127 24.4182 29.9386 24.3872L30.1192 24.3452L30.296 24.2993ZM0.403401 19.3276C0.401828 19.328 0.400643 19.3286 0.400471 19.3286C0.40054 19.3286 0.401766 19.3283 0.404377 19.3276L0.405354 19.3267L0.403401 19.3276Z" fill="#DCDCDC"/>
<path d="M28.7243 32.1048C29.1578 31.9744 29.4036 31.5173 29.2732 31.0838C29.1428 30.6503 28.6857 30.4045 28.2522 30.5349L28.4882 31.3198L28.7243 32.1048ZM28.3925 31.3486L28.5855 32.1452L28.6072 32.14L28.6285 32.1336L28.3925 31.3486ZM26.9632 31.522L27.214 30.7416L26.9632 31.522ZM26.3496 31.3248L26.0988 32.1051L26.3496 31.3248ZM24.6173 31.9285L24.3059 31.1702L24.6173 31.9285ZM24.0589 32.1578L23.7475 31.3995L24.0589 32.1578ZM23.5149 32.3976L23.1646 31.6566L23.5149 32.3976ZM23.2502 32.5228L23.6005 33.2638L23.2502 32.5228ZM22.9854 32.6479L22.635 31.9069L22.9854 32.6479ZM22.496 33.3402L21.7339 33.0383L22.496 33.3402ZM22.4131 34.1422L21.7113 34.5656L22.4131 34.1422ZM22.6967 34.6123L21.9948 35.0357L22.6967 34.6123ZM23.0973 34.9249L22.8619 35.71L23.0973 34.9249ZM23.6149 35.0801L23.3795 35.8653L23.6149 35.0801ZM24.2003 35.2071L24.0778 36.0175L24.2003 35.2071ZM24.5268 35.2564L24.4043 36.0669L24.5268 35.2564ZM26.7285 33.8402L26.2078 33.2071L26.7285 33.8402ZM27.0802 33.3696L27.8268 33.7079L27.0802 33.3696ZM27.3422 32.7913L26.5956 32.453L27.3422 32.7913ZM27.7754 32.4123L28.009 33.198L27.7754 32.4123ZM28.6725 32.1221L29.4162 31.7774L28.6725 32.1221ZM28.6629 32.1013L29.4066 31.7567L29.1594 31.2232L28.5748 31.2864L28.6629 32.1013ZM28.5587 32.1126L28.126 31.4164L28.6467 32.9275L28.5587 32.1126ZM29.0764 32.7559C29.4608 32.5169 29.5788 32.0115 29.3398 31.6271C29.1008 31.2426 28.5954 31.1247 28.2109 31.3636L28.6436 32.0598L29.0764 32.7559ZM28.4882 31.3198L28.2522 30.5349L28.1564 30.5637L28.3925 31.3486L28.6285 32.1336L28.7243 32.1048L28.4882 31.3198ZM28.3925 31.3486L28.1995 30.552L27.6383 30.688L27.8313 31.4846L28.0243 32.2812L28.5855 32.1452L28.3925 31.3486ZM27.8313 31.4846L27.6383 30.688C27.4871 30.7246 27.3758 30.7397 27.2984 30.743C27.219 30.7464 27.198 30.7365 27.214 30.7416L26.9632 31.522L26.7124 32.3023C27.1344 32.4379 27.6037 32.3831 28.0243 32.2812L27.8313 31.4846ZM26.9632 31.522L27.214 30.7416L26.9072 30.643L26.6564 31.4234L26.4056 32.2037L26.7124 32.3023L26.9632 31.522ZM26.6564 31.4234L26.9072 30.643L26.6004 30.5444L26.3496 31.3248L26.0988 32.1051L26.4056 32.2037L26.6564 31.4234ZM26.3496 31.3248L26.6004 30.5444C26.1893 30.4123 25.7668 30.4466 25.3823 30.6437L25.7562 31.3731L26.1302 32.1025C26.1348 32.1001 26.1352 32.1004 26.1315 32.1015C26.1277 32.1026 26.1217 32.1039 26.1144 32.1045C26.1071 32.1051 26.101 32.1048 26.0971 32.1043C26.0934 32.1038 26.0938 32.1035 26.0988 32.1051L26.3496 31.3248ZM25.7562 31.3731L25.3823 30.6437L25.0957 30.7906L25.4697 31.52L25.8436 32.2494L26.1302 32.1025L25.7562 31.3731ZM25.4697 31.52L25.0957 30.7906L24.8091 30.9375L25.1831 31.6669L25.557 32.3963L25.8436 32.2494L25.4697 31.52ZM25.1831 31.6669L24.8091 30.9375C24.6372 31.0256 24.4694 31.1031 24.3059 31.1702L24.6173 31.9285L24.9286 32.6867C25.1374 32.601 25.3468 32.504 25.557 32.3963L25.1831 31.6669ZM24.6173 31.9285L24.3059 31.1702L24.0267 31.2849L24.3381 32.0431L24.6494 32.8013L24.9286 32.6867L24.6173 31.9285ZM24.3381 32.0431L24.0267 31.2849L23.7475 31.3995L24.0589 32.1578L24.3702 32.916L24.6494 32.8013L24.3381 32.0431ZM24.0589 32.1578L23.7475 31.3995C23.5486 31.4812 23.3543 31.5669 23.1646 31.6566L23.5149 32.3976L23.8653 33.1386C24.0285 33.0614 24.1969 32.9872 24.3702 32.916L24.0589 32.1578ZM23.5149 32.3976L23.1646 31.6566L22.8998 31.7817L23.2502 32.5228L23.6005 33.2638L23.8653 33.1386L23.5149 32.3976ZM23.2502 32.5228L22.8998 31.7817L22.635 31.9069L22.9854 32.6479L23.3357 33.389L23.6005 33.2638L23.2502 32.5228ZM22.9854 32.6479L22.635 31.9069C22.2622 32.0832 21.9942 32.3812 21.8463 32.7547L22.6083 33.0566L23.3703 33.3586C23.3725 33.3531 23.3733 33.3524 23.3717 33.355C23.3699 33.3578 23.3665 33.3627 23.3612 33.3685C23.3558 33.3744 23.35 33.3795 23.3445 33.3834C23.3419 33.3853 23.3397 33.3867 23.3381 33.3877C23.3365 33.3886 23.3357 33.389 23.3357 33.389L22.9854 32.6479ZM22.6083 33.0566L21.8463 32.7547L21.7339 33.0383L22.496 33.3402L23.258 33.6421L23.3703 33.3586L22.6083 33.0566ZM22.496 33.3402L21.7339 33.0383L21.6216 33.3218L22.3836 33.6237L23.1457 33.9256L23.258 33.6421L22.496 33.3402ZM22.3836 33.6237L21.6216 33.3218C21.4645 33.7184 21.4686 34.1634 21.7113 34.5656L22.4131 34.1422L23.115 33.7188C23.1326 33.748 23.1501 33.7941 23.1532 33.8486C23.1561 33.9 23.1445 33.9286 23.1457 33.9256L22.3836 33.6237ZM22.4131 34.1422L21.7113 34.5656L21.8531 34.8007L22.5549 34.3773L23.2567 33.9538L23.115 33.7188L22.4131 34.1422ZM22.5549 34.3773L21.8531 34.8007L21.9948 35.0357L22.6967 34.6123L23.3985 34.1889L23.2567 33.9538L22.5549 34.3773ZM22.6967 34.6123L21.9948 35.0357C22.1927 35.3636 22.4909 35.5988 22.8619 35.71L23.0973 34.9249L23.3327 34.1398C23.3377 34.1413 23.3536 34.1474 23.372 34.1618C23.3805 34.1684 23.3872 34.1749 23.392 34.1805C23.3968 34.186 23.3988 34.1892 23.3985 34.1889L22.6967 34.6123ZM23.0973 34.9249L22.8619 35.71L23.1207 35.7877L23.3561 35.0025L23.5915 34.2174L23.3327 34.1398L23.0973 34.9249ZM23.3561 35.0025L23.1207 35.7877L23.3795 35.8653L23.6149 35.0801L23.8504 34.295L23.5915 34.2174L23.3561 35.0025ZM23.6149 35.0801L23.3795 35.8653C23.5961 35.9302 23.83 35.9801 24.0778 36.0175L24.2003 35.2071L24.3227 34.3966C24.1352 34.3683 23.9788 34.3335 23.8504 34.295L23.6149 35.0801ZM24.2003 35.2071L24.0778 36.0175L24.4043 36.0669L24.5268 35.2564L24.6492 34.4459L24.3227 34.3966L24.2003 35.2071ZM24.5268 35.2564L24.4043 36.0669L24.7308 36.1162L24.8533 35.3058L24.9758 34.4953L24.6492 34.4459L24.5268 35.2564ZM24.8533 35.3058L24.7308 36.1162C25.2172 36.1897 25.6733 36.0301 26.0066 35.6654L25.4015 35.1125L24.7964 34.5596C24.8015 34.554 24.8293 34.5273 24.881 34.5091C24.9327 34.4909 24.9701 34.4944 24.9758 34.4953L24.8533 35.3058ZM25.4015 35.1125L26.0066 35.6654L26.2283 35.4228L25.6232 34.8699L25.0181 34.317L24.7964 34.5596L25.4015 35.1125ZM25.6232 34.8699L26.2283 35.4228L26.4499 35.1802L25.8448 34.6273L25.2397 34.0744L25.0181 34.317L25.6232 34.8699ZM25.8448 34.6273L26.4499 35.1802C26.5753 35.043 26.6948 34.9292 26.8079 34.8362L26.2872 34.2032L25.7665 33.5701C25.5853 33.7191 25.4099 33.8881 25.2397 34.0744L25.8448 34.6273ZM26.2872 34.2032L26.8079 34.8362L27.0285 34.6547L26.5078 34.0217L25.9872 33.3886L25.7665 33.5701L26.2872 34.2032ZM26.5078 34.0217L27.0285 34.6547L27.2492 34.4732L26.7285 33.8402L26.2078 33.2071L25.9872 33.3886L26.5078 34.0217ZM26.7285 33.8402L27.2492 34.4732C27.5035 34.2641 27.6935 34.002 27.8268 33.7079L27.0802 33.3696L26.3336 33.0313C26.2922 33.1226 26.2477 33.1743 26.2078 33.2071L26.7285 33.8402ZM27.0802 33.3696L27.8268 33.7079L27.9578 33.4187L27.2112 33.0804L26.4646 32.7421L26.3336 33.0313L27.0802 33.3696ZM27.2112 33.0804L27.9578 33.4187L28.0888 33.1296L27.3422 32.7913L26.5956 32.453L26.4646 32.7421L27.2112 33.0804ZM27.3422 32.7913L28.0888 33.1296C28.0892 33.1287 28.0803 33.1474 28.0557 33.1689C28.0444 33.1788 28.0332 33.1863 28.0235 33.1914C28.0141 33.1965 28.0086 33.1981 28.009 33.198L27.7754 32.4123L27.5419 31.6266C27.1109 31.7547 26.7803 32.0455 26.5956 32.453L27.3422 32.7913ZM27.7754 32.4123L28.009 33.198L28.3112 33.1082L28.0777 32.3225L27.8442 31.5368L27.5419 31.6266L27.7754 32.4123ZM28.0777 32.3225L28.3112 33.1082L28.6134 33.0184L28.3799 32.2327L28.1464 31.447L27.8442 31.5368L28.0777 32.3225ZM28.3799 32.2327L28.6134 33.0184C28.7182 32.9872 28.8163 32.9562 28.894 32.9269C28.9266 32.9145 28.9905 32.8897 29.0564 32.853C29.0811 32.8393 29.1655 32.7922 29.2501 32.7075C29.2821 32.6755 29.6566 32.2961 29.4162 31.7774L28.6725 32.1221L27.9288 32.4667C27.8183 32.2283 27.8439 31.9922 27.9097 31.8249C27.9666 31.6803 28.0504 31.5888 28.09 31.5492C28.1697 31.4694 28.246 31.4279 28.2592 31.4206C28.3023 31.3966 28.3305 31.3873 28.3144 31.3934C28.2945 31.4009 28.2431 31.4182 28.1464 31.447L28.3799 32.2327ZM28.6725 32.1221L29.4162 31.7774L29.4066 31.7567L28.6629 32.1013L27.9192 32.446L27.9288 32.4667L28.6725 32.1221ZM28.6629 32.1013L28.5748 31.2864L28.4707 31.2976L28.5587 32.1126L28.6467 32.9275L28.7509 32.9162L28.6629 32.1013ZM28.5587 32.1126L28.9914 32.8087L29.0764 32.7559L28.6436 32.0598L28.2109 31.3636L28.126 31.4164L28.5587 32.1126Z" fill="#DCDCDC"/>
<path d="M35.7732 53.1764C35.9453 52.7577 35.7454 52.2788 35.3267 52.1066C34.908 51.9345 34.4291 52.1344 34.257 52.5531L35.0151 52.8648L35.7732 53.1764ZM34.9771 52.9572L34.2189 52.6456L34.2118 52.6631L34.2054 52.6809L34.9771 52.9572ZM34.786 53.4909L34.0143 53.2145L34.786 53.4909ZM34.3939 54.2722L33.7573 53.7559L34.3939 54.2722ZM33.9919 54.7677L34.6285 55.2841L33.9919 54.7677ZM33.743 55.3296L32.9327 55.206L33.743 55.3296ZM33.6951 55.6437L34.5054 55.7673L33.6951 55.6437ZM33.6472 55.9578L32.8369 55.8341V55.8341L33.6472 55.9578ZM33.487 56.5614L32.7227 56.2652L33.487 56.5614ZM33.3747 56.851L32.6105 56.5547L33.3747 56.851ZM33.2625 57.1406L34.0267 57.4369L33.2625 57.1406ZM32.9901 57.6904L32.292 57.2608L32.9901 57.6904ZM32.6698 58.2109L33.3679 58.6404L32.6698 58.2109ZM32.6327 58.7384L33.3773 58.3956L32.6327 58.7384ZM32.8789 59.273L32.1343 59.6158L32.8789 59.273ZM33.3105 59.5549L33.2719 60.3736L33.3105 59.5549ZM33.9276 59.584L33.9662 58.7652L33.9276 59.584ZM33.9599 59.7291L34.3103 60.4701L33.9599 59.7291ZM33.4075 59.9904L33.0571 59.2494L33.4075 59.9904ZM32.8222 60.0306L33.0523 59.2439L32.8222 60.0306ZM32.2041 59.8498L32.4342 59.0631L32.2041 59.8498ZM31.6012 59.9126L31.2223 59.1857V59.1857L31.6012 59.9126ZM31.3073 60.0658L31.6861 60.7926L31.3073 60.0658ZM31.0134 60.2189L30.6346 59.4921L31.0134 60.2189ZM30.4106 60.388L30.4527 61.2066V61.2066L30.4106 60.388ZM30.1016 60.404L30.0594 59.5854L30.1016 60.404ZM29.7926 60.4199L29.8348 61.2385L29.7926 60.4199ZM29.191 60.5451L28.9043 59.7772L29.191 60.5451ZM28.8984 60.6543L28.6117 59.8864L28.8984 60.6543ZM28.6058 60.7635L28.8925 61.5314L28.6058 60.7635ZM27.9934 60.8288L27.8816 61.6408L27.9934 60.8288ZM27.3538 60.7407L27.242 61.5527L27.3538 60.7407ZM26.7317 60.7531L26.5814 59.9473L26.7317 60.7531ZM26.127 60.8659L26.2773 61.6716L26.127 60.8659ZM25.519 60.9651L25.6328 61.7768L25.519 60.9651ZM25.2133 61.008L25.0995 60.1962L25.2133 61.008ZM24.9077 61.0508L24.7939 60.2391L24.9077 61.0508ZM24.4241 61.2242L23.9393 60.5632L24.4241 61.2242ZM24.0683 61.4851L24.553 62.1461L24.0683 61.4851ZM23.6719 61.8353L23.0908 61.2572L23.6719 61.8353ZM23.2349 62.2745L22.6538 61.6965L23.2349 62.2745ZM22.7797 62.7006L23.3184 63.3184L22.7797 62.7006ZM22.3063 63.1134L21.7675 62.4957L22.3063 63.1134ZM21.8613 63.1929L22.2881 62.4931L21.8613 63.1929ZM21.4448 62.9388L21.018 63.6386L21.4448 62.9388ZM21.6278 61.9727L20.8849 61.6264L21.6278 61.9727ZM22.0206 61.5142L21.559 60.8368L22.0206 61.5142ZM22.2831 61.3353L22.7447 62.0126L22.2831 61.3353ZM22.5456 61.1564L22.084 60.4791L22.5456 61.1564ZM23.015 60.726L22.382 60.2053L23.015 60.726ZM23.4289 60.223L24.0619 60.7438L23.4289 60.223ZM23.9478 59.9384L24.034 60.7536L23.9478 59.9384ZM24.2596 59.9054L24.1734 59.0903L24.2596 59.9054ZM24.5715 59.8725L24.6578 60.6876L24.5715 59.8725ZM25.1899 59.7993L25.0833 58.9865L25.1899 59.7993ZM25.8028 59.7188L25.9094 60.5316L25.8028 59.7188ZM26.4112 59.6167L26.2464 58.8137L26.4112 59.6167ZM27.015 59.4928L27.1798 60.2957L27.015 59.4928ZM28.8853 59.5351L29.1801 60.2999L28.8853 59.5351ZM29.1799 59.4215L29.4747 60.1863L29.1799 59.4215ZM29.4745 59.3079L29.1796 58.5431L29.4745 59.3079ZM30.0731 59.1484L30.1955 59.9589L30.0731 59.1484ZM30.3771 59.1025L30.4995 59.913L30.3771 59.1025ZM30.6811 59.0566L30.5587 58.2461L30.6811 59.0566ZM31.2142 58.8243L30.6969 58.1885L31.2142 58.8243ZM31.6724 58.4515L32.1897 59.0873L31.6724 58.4515ZM31.8727 57.9477L32.6891 57.8738L31.8727 57.9477ZM31.8153 57.3131L32.6316 57.2391L31.8153 57.3131ZM31.8728 56.742L32.6488 57.0059L31.8728 56.742ZM31.959 56.4883L31.183 56.2245L31.959 56.4883ZM32.0453 56.2346L32.8213 56.4985L32.0453 56.2346ZM32.3389 55.4937L31.5847 55.1727L32.3389 55.4937ZM32.6671 54.7211L33.4219 55.0407L32.6671 54.7211ZM32.7879 54.4358L32.033 54.1163L32.7879 54.4358ZM32.9087 54.1505L32.1538 53.8309L32.9087 54.1505ZM33.1267 53.5719L32.3487 53.3138L33.1267 53.5719ZM33.3213 52.9853L34.0993 53.2434L33.3213 52.9853ZM33.5139 52.6184L33.0127 51.9698L33.5139 52.6184ZM33.6092 52.5447L33.3412 51.7701L33.2143 51.814L33.108 51.8961L33.6092 52.5447ZM33.7644 52.491L34.0324 53.2656L34.3956 53.14L34.5313 52.7805L33.7644 52.491ZM34.5666 52.6869C34.7265 52.2634 34.5127 51.7904 34.0892 51.6306C33.6657 51.4707 33.1927 51.6845 33.0329 52.108L33.7998 52.3975L34.5666 52.6869ZM35.0151 52.8648L34.257 52.5531L34.2189 52.6456L34.9771 52.9572L35.7352 53.2689L35.7732 53.1764L35.0151 52.8648ZM34.9771 52.9572L34.2054 52.6809L34.0143 53.2145L34.786 53.4909L35.5576 53.7672L35.7487 53.2336L34.9771 52.9572ZM34.786 53.4909L34.0143 53.2145C33.8978 53.5398 33.8044 53.6978 33.7573 53.7559L34.3939 54.2722L35.0304 54.7886C35.2513 54.5163 35.4193 54.1534 35.5576 53.7672L34.786 53.4909ZM34.3939 54.2722L33.7573 53.7559L33.5563 54.0036L34.1929 54.52L34.8295 55.0364L35.0304 54.7886L34.3939 54.2722ZM34.1929 54.52L33.5563 54.0036L33.3554 54.2514L33.9919 54.7677L34.6285 55.2841L34.8295 55.0364L34.1929 54.52ZM33.9919 54.7677L33.3554 54.2514C33.13 54.5292 32.9867 54.8519 32.9327 55.206L33.743 55.3296L34.5533 55.4532C34.5632 55.3885 34.5859 55.3366 34.6285 55.2841L33.9919 54.7677ZM33.743 55.3296L32.9327 55.206L32.8848 55.52L33.6951 55.6437L34.5054 55.7673L34.5533 55.4532L33.743 55.3296ZM33.6951 55.6437L32.8848 55.52L32.8369 55.8341L33.6472 55.9578L34.4575 56.0814L34.5054 55.7673L33.6951 55.6437ZM33.6472 55.9578L32.8369 55.8341C32.8137 55.9858 32.7755 56.1291 32.7227 56.2652L33.487 56.5614L34.2513 56.8577C34.3482 56.6077 34.4167 56.3485 34.4575 56.0814L33.6472 55.9578ZM33.487 56.5614L32.7227 56.2652L32.6105 56.5547L33.3747 56.851L34.139 57.1473L34.2513 56.8577L33.487 56.5614ZM33.3747 56.851L32.6105 56.5547L32.4982 56.8443L33.2625 57.1406L34.0267 57.4369L34.139 57.1473L33.3747 56.851ZM33.2625 57.1406L32.4982 56.8443C32.4411 56.9918 32.3723 57.1304 32.292 57.2608L32.9901 57.6904L33.6882 58.12C33.8214 57.9035 33.9342 57.6755 34.0267 57.4369L33.2625 57.1406ZM32.9901 57.6904L32.292 57.2608L32.1319 57.521L32.8299 57.9506L33.528 58.3802L33.6882 58.12L32.9901 57.6904ZM32.8299 57.9506L32.1319 57.521L31.9717 57.7813L32.6698 58.2109L33.3679 58.6404L33.528 58.3802L32.8299 57.9506ZM32.6698 58.2109L31.9717 57.7813C31.7279 58.1775 31.6863 58.6427 31.8882 59.0812L32.6327 58.7384L33.3773 58.3956C33.3873 58.4172 33.4027 58.4658 33.3981 58.5303C33.3937 58.5934 33.373 58.6322 33.3679 58.6404L32.6698 58.2109ZM32.6327 58.7384L31.8882 59.0812L32.0112 59.3485L32.7558 59.0057L33.5004 58.6629L33.3773 58.3956L32.6327 58.7384ZM32.7558 59.0057L32.0112 59.3485L32.1343 59.6158L32.8789 59.273L33.6234 58.9302L33.5004 58.6629L32.7558 59.0057ZM32.8789 59.273L32.1343 59.6158C32.2305 59.8247 32.3815 60.0207 32.6001 60.1634C32.8166 60.3048 33.0522 60.3633 33.2719 60.3736L33.3105 59.5549L33.3491 58.7361C33.3631 58.7368 33.4239 58.7434 33.4965 58.7908C33.5712 58.8397 33.6093 58.8996 33.6234 58.9302L32.8789 59.273ZM33.3105 59.5549L33.2719 60.3736L33.5804 60.3882L33.619 59.5694L33.6576 58.7507L33.3491 58.7361L33.3105 59.5549ZM33.619 59.5694L33.5804 60.3882L33.889 60.4027L33.9276 59.584L33.9662 58.7652L33.6576 58.7507L33.619 59.5694ZM33.9276 59.584L33.889 60.4027C33.9218 60.4043 33.8914 60.4059 33.8329 60.3902C33.8055 60.3828 33.7238 60.3595 33.6298 60.2983C33.5354 60.2368 33.352 60.0848 33.2899 59.8057C33.2266 59.5217 33.3318 59.3015 33.3987 59.199C33.4634 59.1001 33.5332 59.0436 33.5568 59.0252C33.6073 58.9857 33.6387 58.9743 33.6095 58.9881L33.9599 59.7291L34.3103 60.4701C34.3732 60.4404 34.4723 60.3903 34.5661 60.3169C34.6114 60.2816 34.6968 60.2094 34.7709 60.096C34.8474 59.979 34.9559 59.7454 34.89 59.4493C34.8251 59.1581 34.633 58.9952 34.5238 58.9241C34.4148 58.8533 34.3122 58.8214 34.2577 58.8068C34.145 58.7766 34.0362 58.7685 33.9662 58.7652L33.9276 59.584ZM33.9599 59.7291L33.6095 58.9881L33.3333 59.1188L33.6837 59.8597L34.0341 60.6007L34.3103 60.4701L33.9599 59.7291ZM33.6837 59.8597L33.3333 59.1188L33.0571 59.2494L33.4075 59.9904L33.7579 60.7314L34.0341 60.6007L33.6837 59.8597ZM33.4075 59.9904L33.0571 59.2494C33.0544 59.2506 33.0547 59.2503 33.0574 59.2495C33.0601 59.2488 33.0635 59.2482 33.0668 59.248C33.0701 59.2478 33.0713 59.248 33.0698 59.2478C33.0681 59.2477 33.0624 59.2468 33.0523 59.2439L32.8222 60.0306L32.5921 60.8173C32.9794 60.9306 33.382 60.9091 33.7579 60.7314L33.4075 59.9904ZM32.8222 60.0306L33.0523 59.2439L32.7433 59.1535L32.5132 59.9402L32.2831 60.7269L32.5921 60.8173L32.8222 60.0306ZM32.5132 59.9402L32.7433 59.1535L32.4342 59.0631L32.2041 59.8498L31.974 60.6365L32.2831 60.7269L32.5132 59.9402ZM32.2041 59.8498L32.4342 59.0631C32.0186 58.9415 31.5998 58.989 31.2223 59.1857L31.6012 59.9126L31.98 60.6395C31.9881 60.6352 31.992 60.6341 31.9918 60.6341C31.9914 60.6343 31.9885 60.6351 31.9837 60.6356C31.9789 60.6361 31.9746 60.636 31.9717 60.6357C31.9689 60.6354 31.9694 60.6352 31.974 60.6365L32.2041 59.8498ZM31.6012 59.9126L31.2223 59.1857L30.9285 59.3389L31.3073 60.0658L31.6861 60.7926L31.98 60.6395L31.6012 59.9126ZM31.3073 60.0658L30.9285 59.3389L30.6346 59.4921L31.0134 60.2189L31.3923 60.9458L31.6861 60.7926L31.3073 60.0658ZM31.0134 60.2189L30.6346 59.4921C30.5354 59.5438 30.4486 59.5653 30.3684 59.5695L30.4106 60.388L30.4527 61.2066C30.7844 61.1895 31.0996 61.0984 31.3923 60.9458L31.0134 60.2189ZM30.4106 60.388L30.3684 59.5695L30.0594 59.5854L30.1016 60.404L30.1438 61.2226L30.4527 61.2066L30.4106 60.388ZM30.1016 60.404L30.0594 59.5854L29.7504 59.6013L29.7926 60.4199L29.8348 61.2385L30.1438 61.2226L30.1016 60.404ZM29.7926 60.4199L29.7504 59.6013C29.46 59.6163 29.177 59.6753 28.9043 59.7772L29.191 60.5451L29.4777 61.313C29.5951 61.2691 29.7132 61.2447 29.8348 61.2385L29.7926 60.4199ZM29.191 60.5451L28.9043 59.7772L28.6117 59.8864L28.8984 60.6543L29.1851 61.4222L29.4777 61.313L29.191 60.5451ZM28.8984 60.6543L28.6117 59.8864L28.3191 59.9956L28.6058 60.7635L28.8925 61.5314L29.1851 61.4222L28.8984 60.6543ZM28.6058 60.7635L28.3191 59.9956C28.2555 60.0194 28.1887 60.0282 28.1052 60.0167L27.9934 60.8288L27.8816 61.6408C28.2246 61.688 28.5659 61.6534 28.8925 61.5314L28.6058 60.7635ZM27.9934 60.8288L28.1052 60.0167L27.7854 59.9727L27.6736 60.7847L27.5618 61.5968L27.8816 61.6408L27.9934 60.8288ZM27.6736 60.7847L27.7854 59.9727L27.4656 59.9287L27.3538 60.7407L27.242 61.5527L27.5618 61.5968L27.6736 60.7847ZM27.3538 60.7407L27.4656 59.9287C27.1696 59.888 26.8736 59.8928 26.5814 59.9473L26.7317 60.7531L26.882 61.5589C26.9929 61.5382 27.1116 61.5348 27.242 61.5527L27.3538 60.7407ZM26.7317 60.7531L26.5814 59.9473L26.2791 60.0037L26.4294 60.8095L26.5796 61.6152L26.882 61.5589L26.7317 60.7531ZM26.4294 60.8095L26.2791 60.0037L25.9767 60.0601L26.127 60.8659L26.2773 61.6716L26.5796 61.6152L26.4294 60.8095ZM26.127 60.8659L25.9767 60.0601C25.7873 60.0954 25.5968 60.1265 25.4052 60.1534L25.519 60.9651L25.6328 61.7768C25.8488 61.7466 26.0636 61.7115 26.2773 61.6716L26.127 60.8659ZM25.519 60.9651L25.4052 60.1534L25.0995 60.1962L25.2133 61.008L25.3272 61.8197L25.6328 61.7768L25.519 60.9651ZM25.2133 61.008L25.0995 60.1962L24.7939 60.2391L24.9077 61.0508L25.0215 61.8626L25.3272 61.8197L25.2133 61.008ZM24.9077 61.0508L24.7939 60.2391C24.5065 60.2794 24.2021 60.3705 23.9393 60.5632L24.4241 61.2242L24.9089 61.8851C24.895 61.8953 24.8924 61.8937 24.9105 61.8872C24.9291 61.8805 24.9644 61.8706 25.0215 61.8626L24.9077 61.0508ZM24.4241 61.2242L23.9393 60.5632L23.7614 60.6937L24.2462 61.3547L24.7309 62.0156L24.9089 61.8851L24.4241 61.2242ZM24.2462 61.3547L23.7614 60.6937L23.5835 60.8242L24.0683 61.4851L24.553 62.1461L24.7309 62.0156L24.2462 61.3547ZM24.0683 61.4851L23.5835 60.8242C23.4201 60.944 23.2554 61.0917 23.0908 61.2572L23.6719 61.8353L24.253 62.4133C24.3797 62.286 24.4792 62.2002 24.553 62.1461L24.0683 61.4851ZM23.6719 61.8353L23.0908 61.2572L22.8723 61.4768L23.4534 62.0549L24.0345 62.633L24.253 62.4133L23.6719 61.8353ZM23.4534 62.0549L22.8723 61.4768L22.6538 61.6965L23.2349 62.2745L23.816 62.8526L24.0345 62.633L23.4534 62.0549ZM23.2349 62.2745L22.6538 61.6965C22.522 61.829 22.3844 61.9578 22.241 62.0828L22.7797 62.7006L23.3184 63.3184C23.4906 63.1682 23.6565 63.013 23.816 62.8526L23.2349 62.2745ZM22.7797 62.7006L22.241 62.0828L22.0043 62.2892L22.543 62.907L23.0817 63.5248L23.3184 63.3184L22.7797 62.7006ZM22.543 62.907L22.0043 62.2892L21.7675 62.4957L22.3063 63.1134L22.845 63.7312L23.0817 63.5248L22.543 62.907ZM22.3063 63.1134L21.7675 62.4957C21.7589 62.5032 21.8142 62.4507 21.9326 62.4296C22.0718 62.4048 22.2014 62.4402 22.2881 62.4931L21.8613 63.1929L21.4345 63.8926C21.66 64.0302 21.9332 64.0947 22.2207 64.0434C22.4874 63.9958 22.6958 63.8613 22.845 63.7312L22.3063 63.1134ZM21.8613 63.1929L22.2881 62.4931L22.0799 62.3661L21.6531 63.0659L21.2263 63.7656L21.4345 63.8926L21.8613 63.1929ZM21.6531 63.0659L22.0799 62.3661L21.8717 62.2391L21.4448 62.9388L21.018 63.6386L21.2263 63.7656L21.6531 63.0659ZM21.4448 62.9388L21.8717 62.2391C21.9612 62.2937 22.088 62.4195 22.1263 62.6196C22.1425 62.704 22.1364 62.7725 22.1283 62.8149C22.1205 62.8561 22.11 62.8783 22.1099 62.8784L21.367 62.5321L20.6241 62.1858C20.5417 62.3625 20.4585 62.6262 20.5162 62.9278C20.5804 63.2634 20.7896 63.4993 21.018 63.6386L21.4448 62.9388ZM21.367 62.5321L22.1099 62.8784L22.2403 62.5987L21.4974 62.2524L20.7545 61.9061L20.6241 62.1858L21.367 62.5321ZM21.4974 62.2524L22.2403 62.5987L22.3707 62.319L21.6278 61.9727L20.8849 61.6264L20.7545 61.9061L21.4974 62.2524ZM21.6278 61.9727L22.3707 62.319C22.3934 62.2702 22.4253 62.2303 22.4822 62.1915L22.0206 61.5142L21.559 60.8368C21.266 61.0365 21.036 61.3023 20.8849 61.6264L21.6278 61.9727ZM22.0206 61.5142L22.4822 62.1915L22.7447 62.0126L22.2831 61.3353L21.8215 60.6579L21.559 60.8368L22.0206 61.5142ZM22.2831 61.3353L22.7447 62.0126L23.0071 61.8338L22.5456 61.1564L22.084 60.4791L21.8215 60.6579L22.2831 61.3353ZM22.5456 61.1564L23.0071 61.8338C23.248 61.6696 23.4618 61.473 23.648 61.2468L23.015 60.726L22.382 60.2053C22.2922 60.3144 22.1931 60.4048 22.084 60.4791L22.5456 61.1564ZM23.015 60.726L23.648 61.2468L23.8549 60.9953L23.222 60.4745L22.589 59.9537L22.382 60.2053L23.015 60.726ZM23.222 60.4745L23.8549 60.9953L24.0619 60.7438L23.4289 60.223L22.7959 59.7022L22.589 59.9537L23.222 60.4745ZM23.4289 60.223L24.0619 60.7438C24.067 60.7375 24.0692 60.736 24.0678 60.7371C24.0662 60.7384 24.0623 60.7414 24.0562 60.7448C24.0501 60.7481 24.0439 60.7506 24.0388 60.7522C24.0337 60.7538 24.0317 60.7538 24.034 60.7536L23.9478 59.9384L23.8615 59.1233C23.4308 59.1689 23.0646 59.3756 22.7959 59.7022L23.4289 60.223ZM23.9478 59.9384L24.034 60.7536L24.3459 60.7206L24.2596 59.9054L24.1734 59.0903L23.8615 59.1233L23.9478 59.9384ZM24.2596 59.9054L24.3459 60.7206L24.6578 60.6876L24.5715 59.8725L24.4853 59.0573L24.1734 59.0903L24.2596 59.9054ZM24.5715 59.8725L24.6578 60.6876C24.8724 60.6649 25.0853 60.6397 25.2965 60.612L25.1899 59.7993L25.0833 58.9865C24.8858 59.0124 24.6865 59.036 24.4853 59.0573L24.5715 59.8725ZM25.1899 59.7993L25.2965 60.612L25.603 60.5718L25.4963 59.759L25.3897 58.9463L25.0833 58.9865L25.1899 59.7993ZM25.4963 59.759L25.603 60.5718L25.9094 60.5316L25.8028 59.7188L25.6962 58.9061L25.3897 58.9463L25.4963 59.759ZM25.8028 59.7188L25.9094 60.5316C26.1332 60.5022 26.3554 60.4649 26.576 60.4196L26.4112 59.6167L26.2464 58.8137C26.0645 58.8511 25.8811 58.8819 25.6962 58.9061L25.8028 59.7188ZM26.4112 59.6167L26.576 60.4196L26.8779 60.3577L26.7131 59.5547L26.5483 58.7518L26.2464 58.8137L26.4112 59.6167ZM26.7131 59.5547L26.8779 60.3577L27.1798 60.2957L27.015 59.4928L26.8503 58.6898L26.5483 58.7518L26.7131 59.5547ZM27.015 59.4928L27.1798 60.2957C27.2765 60.2759 27.3804 60.2732 27.4972 60.2932L27.6354 59.4853L27.7736 58.6773C27.4658 58.6247 27.1561 58.6271 26.8503 58.6898L27.015 59.4928ZM27.6354 59.4853L27.4972 60.2932L27.8156 60.3477L27.9538 59.5397L28.092 58.7318L27.7736 58.6773L27.6354 59.4853ZM27.9538 59.5397L27.8156 60.3477L28.134 60.4021L28.2722 59.5942L28.4104 58.7863L28.092 58.7318L27.9538 59.5397ZM28.2722 59.5942L28.134 60.4021C28.4884 60.4628 28.8426 60.43 29.1801 60.2999L28.8853 59.5351L28.5904 58.7703C28.5352 58.7916 28.4807 58.7983 28.4104 58.7863L28.2722 59.5942ZM28.8853 59.5351L29.1801 60.2999L29.4747 60.1863L29.1799 59.4215L28.885 58.6567L28.5904 58.7703L28.8853 59.5351ZM29.1799 59.4215L29.4747 60.1863L29.7693 60.0727L29.4745 59.3079L29.1796 58.5431L28.885 58.6567L29.1799 59.4215ZM29.4745 59.3079L29.7693 60.0727C29.9116 60.0179 30.0534 59.9804 30.1955 59.9589L30.0731 59.1484L29.9507 58.338C29.6875 58.3777 29.4302 58.4465 29.1796 58.5431L29.4745 59.3079ZM30.0731 59.1484L30.1955 59.9589L30.4995 59.913L30.3771 59.1025L30.2547 58.292L29.9507 58.338L30.0731 59.1484ZM30.3771 59.1025L30.4995 59.913L30.8035 59.8671L30.6811 59.0566L30.5587 58.2461L30.2547 58.292L30.3771 59.1025ZM30.6811 59.0566L30.8035 59.8671C31.1448 59.8155 31.4603 59.6807 31.7315 59.4601L31.2142 58.8243L30.6969 58.1885C30.6626 58.2164 30.6227 58.2365 30.5587 58.2461L30.6811 59.0566ZM31.2142 58.8243L31.7315 59.4601L31.9606 59.2737L31.4433 58.6379L30.926 58.0021L30.6969 58.1885L31.2142 58.8243ZM31.4433 58.6379L31.9606 59.2737L32.1897 59.0873L31.6724 58.4515L31.1551 57.8157L30.926 58.0021L31.4433 58.6379ZM31.6724 58.4515L32.1897 59.0873C32.573 58.7755 32.7305 58.3316 32.6891 57.8738L31.8727 57.9477L31.0564 58.0217C31.0564 58.0217 31.0535 57.9844 31.0754 57.9294C31.0983 57.8719 31.1329 57.8337 31.1551 57.8157L31.6724 58.4515ZM31.8727 57.9477L32.6891 57.8738L32.6603 57.5565L31.844 57.6304L31.0277 57.7043L31.0564 58.0217L31.8727 57.9477ZM31.844 57.6304L32.6603 57.5565L32.6316 57.2391L31.8153 57.3131L30.9989 57.387L31.0277 57.7043L31.844 57.6304ZM31.8153 57.3131L32.6316 57.2391C32.6208 57.1204 32.6345 57.0479 32.6488 57.0059L31.8728 56.742L31.0967 56.4782C30.996 56.7744 30.9713 57.0825 30.9989 57.387L31.8153 57.3131ZM31.8728 56.742L32.6488 57.0059L32.7351 56.7522L31.959 56.4883L31.183 56.2245L31.0967 56.4782L31.8728 56.742ZM31.959 56.4883L32.7351 56.7522L32.8213 56.4985L32.0453 56.2346L31.2692 55.9708L31.183 56.2245L31.959 56.4883ZM32.0453 56.2346L32.8213 56.4985C32.8723 56.3485 32.9284 56.2018 32.9894 56.0583L32.2352 55.7373L31.481 55.4163C31.4038 55.5977 31.3332 55.7826 31.2692 55.9708L32.0453 56.2346ZM32.2352 55.7373L32.9894 56.0583L33.0931 55.8147L32.3389 55.4937L31.5847 55.1727L31.481 55.4163L32.2352 55.7373ZM32.3389 55.4937L33.0931 55.8147L33.1968 55.5711L32.4426 55.2501L31.6884 54.9291L31.5847 55.1727L32.3389 55.4937ZM32.4426 55.2501L33.1968 55.5711C33.2662 55.4081 33.3412 55.2313 33.4219 55.0407L32.6671 54.7211L31.9123 54.4016C31.8319 54.5914 31.7573 54.7672 31.6884 54.9291L32.4426 55.2501ZM32.6671 54.7211L33.4219 55.0407L33.5427 54.7553L32.7879 54.4358L32.033 54.1163L31.9123 54.4016L32.6671 54.7211ZM32.7879 54.4358L33.5427 54.7553L33.6635 54.47L32.9087 54.1505L32.1538 53.8309L32.033 54.1163L32.7879 54.4358ZM32.9087 54.1505L33.6635 54.47C33.7525 54.2597 33.8329 54.0463 33.9047 53.83L33.1267 53.5719L32.3487 53.3138C32.2908 53.4885 32.2258 53.6609 32.1538 53.8309L32.9087 54.1505ZM33.1267 53.5719L33.9047 53.83L34.002 53.5367L33.224 53.2786L32.446 53.0205L32.3487 53.3138L33.1267 53.5719ZM33.224 53.2786L34.002 53.5367L34.0993 53.2434L33.3213 52.9853L32.5433 52.7272L32.446 53.0205L33.224 53.2786ZM33.3213 52.9853L34.0993 53.2434C34.111 53.2082 34.1211 53.181 34.1293 53.1607C34.1377 53.1401 34.1428 53.13 34.1439 53.1278C34.1454 53.1249 34.1392 53.1374 34.1234 53.1587C34.1151 53.1698 34.1027 53.1852 34.0858 53.2032C34.0689 53.2211 34.0455 53.2434 34.0151 53.2669L33.5139 52.6184L33.0127 51.9698C32.8434 52.1006 32.7452 52.2652 32.6923 52.366C32.6321 52.4807 32.5837 52.6056 32.5433 52.7272L33.3213 52.9853ZM33.5139 52.6184L34.0151 53.2669L34.1104 53.1933L33.6092 52.5447L33.108 51.8961L33.0127 51.9698L33.5139 52.6184ZM33.6092 52.5447L33.8772 53.3194L34.0324 53.2656L33.7644 52.491L33.4965 51.7164L33.3412 51.7701L33.6092 52.5447ZM33.7644 52.491L34.5313 52.7805L34.5666 52.6869L33.7998 52.3975L33.0329 52.108L32.9976 52.2016L33.7644 52.491Z" fill="#DCDCDC"/>
<path d="M41.0145 54.8684C41.1759 54.4455 40.9639 53.9718 40.5409 53.8104C40.118 53.649 39.6443 53.861 39.4829 54.2839L40.2487 54.5762L41.0145 54.8684ZM40.213 54.6696L39.4472 54.3774L39.3901 54.5272L39.3936 54.6876L40.213 54.6696ZM40.2255 55.2389L41.045 55.221L40.2255 55.2389ZM40.1292 56.108L39.3587 55.8284L40.1292 56.108ZM39.9116 56.7076L40.6821 56.9872L39.9116 56.7076ZM39.8595 57.3198L40.666 57.1734L39.8595 57.3198ZM39.9728 57.9444L39.1663 58.0907L39.9728 57.9444ZM39.9868 58.5959L40.8001 58.6982L39.9868 58.5959ZM39.9015 59.2742L39.0882 59.1719L39.9015 59.2742ZM39.529 59.6741L39.3804 58.868L39.529 59.6741ZM38.8693 59.7957L38.7207 58.9896L38.8693 59.7957ZM38.2554 59.9746L38.5702 60.7315L38.2554 59.9746ZM37.6873 60.2109L37.3726 59.454L37.6873 60.2109ZM37.2016 60.5479L37.8045 61.1033V61.1033L37.2016 60.5479ZM36.7983 60.9858L36.1954 60.4305L36.7983 60.9858ZM36.4528 61.4667L35.7343 61.0722L36.4528 61.4667ZM36.3089 61.7287L37.0274 62.1232L36.3089 61.7287ZM36.165 61.9907L36.8835 62.3852L36.165 61.9907ZM35.72 62.344L35.9577 63.1285L35.72 62.344ZM35.1176 62.5266L34.8799 61.7421L35.1176 62.5266ZM34.5659 62.836L34.0276 62.2178L34.5659 62.836ZM34.0647 63.2723L34.6029 63.8905L34.0647 63.2723ZM33.5073 63.5296L33.4036 62.7165L33.5073 63.5296ZM32.8938 63.6079L32.7901 62.7948L32.8938 63.6079ZM32.1507 64.0263L32.6885 64.6449L32.1507 64.0263ZM31.9326 64.2159L31.3948 63.5973L31.9326 64.2159ZM31.4714 64.5945L31.9744 65.2416L31.4714 64.5945ZM30.9853 64.9723L30.4823 64.3251L30.9853 64.9723ZM30.945 65.1504L30.9012 64.3319L30.945 65.1504ZM31.1477 65.1395L31.1915 65.958L31.1477 65.1395ZM31.3505 65.1287L31.3943 65.9472L31.3505 65.1287ZM31.7813 64.9051L31.2221 64.3058L31.7813 64.9051ZM32.0093 64.6924L31.4501 64.0931L32.0093 64.6924ZM32.719 64.0831L33.2 64.7468L32.719 64.0831ZM32.9727 63.8993L33.4537 64.5629L32.9727 63.8993ZM33.2264 63.7154L32.7454 63.0517L33.2264 63.7154ZM33.8101 63.4757L33.9468 64.2839L33.8101 63.4757ZM34.4701 63.364L34.6068 64.1722L34.4701 63.364ZM34.9089 62.9836L35.6861 63.2441L34.9089 62.9836ZM35.0177 62.6589L34.2406 62.3984L35.0177 62.6589ZM35.1266 62.3342L34.3494 62.0738L35.1266 62.3342ZM35.5248 61.8603L35.9006 62.5887L35.5248 61.8603ZM36.1037 61.5617L35.7279 60.8332L36.1037 61.5617ZM36.6788 61.2825L37.0179 62.0288V62.0288L36.6788 61.2825ZM37.2502 61.0229L36.9111 60.2767L37.2502 61.0229ZM37.8568 60.9542L37.7034 61.7594L37.8568 60.9542ZM38.4988 61.0765L38.6522 60.2714L38.4988 61.0765ZM39.096 60.9491L39.5581 61.6261L39.096 60.9491ZM39.6485 60.5719L39.1863 59.895L39.6485 60.5719ZM40.232 60.3485L40.1398 59.5341L40.232 60.3485ZM40.5394 60.3137L40.4471 59.4992L40.5394 60.3137ZM40.8467 60.2789L40.939 61.0933L40.8467 60.2789ZM41.4676 60.2309L41.4334 59.412L41.4676 60.2309ZM41.7813 60.2178L41.8156 61.0368L41.7813 60.2178ZM42.095 60.2047L42.0607 59.3857L42.095 60.2047ZM42.7226 60.2513L42.8758 59.4461L42.7226 60.2513ZM43.0365 60.3111L42.8832 61.1163L43.0365 60.3111ZM43.3504 60.3708L43.5037 59.5656L43.3504 60.3708ZM43.842 61.3959L44.6482 61.2475L43.842 61.3959ZM44.1123 61.8053L43.7978 62.5623L44.1123 61.8053ZM44.3234 61.893L44.6737 61.152L44.656 61.1436L44.6379 61.1361L44.3234 61.893ZM44.6479 62.0465L44.2976 62.7875L44.3796 62.8263L44.4681 62.8462L44.6479 62.0465ZM44.5656 62.8681C45.0073 62.9675 45.4459 62.69 45.5452 62.2483C45.6445 61.8066 45.367 61.3681 44.9254 61.2687L44.7455 62.0684L44.5656 62.8681ZM40.2487 54.5762L39.4829 54.2839L39.4472 54.3774L40.213 54.6696L40.9788 54.9618L41.0145 54.8684L40.2487 54.5762ZM40.213 54.6696L39.3936 54.6876L39.406 55.2569L40.2255 55.2389L41.045 55.221L41.0325 54.6516L40.213 54.6696ZM40.2255 55.2389L39.406 55.2569C39.4136 55.6019 39.3795 55.7712 39.3587 55.8284L40.1292 56.108L40.8997 56.3877C41.024 56.0452 41.0541 55.635 41.045 55.221L40.2255 55.2389ZM40.1292 56.108L39.3587 55.8284L39.2499 56.1282L40.0204 56.4078L40.7909 56.6875L40.8997 56.3877L40.1292 56.108ZM40.0204 56.4078L39.2499 56.1282L39.1411 56.428L39.9116 56.7076L40.6821 56.9872L40.7909 56.6875L40.0204 56.4078ZM39.9116 56.7076L39.1411 56.428C39.0194 56.7635 38.9892 57.1145 39.053 57.4661L39.8595 57.3198L40.666 57.1734C40.6542 57.1086 40.6588 57.0515 40.6821 56.9872L39.9116 56.7076ZM39.8595 57.3198L39.053 57.4661L39.1096 57.7784L39.9161 57.6321L40.7226 57.4858L40.666 57.1734L39.8595 57.3198ZM39.9161 57.6321L39.1096 57.7784L39.1663 58.0907L39.9728 57.9444L40.7793 57.7981L40.7226 57.4858L39.9161 57.6321ZM39.9728 57.9444L39.1663 58.0907C39.1881 58.2109 39.1924 58.3439 39.1735 58.4936L39.9868 58.5959L40.8001 58.6982C40.8381 58.3957 40.8331 58.0944 40.7793 57.7981L39.9728 57.9444ZM39.9868 58.5959L39.1735 58.4936L39.1309 58.8327L39.9442 58.935L40.7574 59.0373L40.8001 58.6982L39.9868 58.5959ZM39.9442 58.935L39.1309 58.8327L39.0882 59.1719L39.9015 59.2742L40.7148 59.3764L40.7574 59.0373L39.9442 58.935ZM39.9015 59.2742L39.0882 59.1719C39.0901 59.1574 39.1054 59.0729 39.1872 58.9851C39.2702 58.896 39.3574 58.8722 39.3804 58.868L39.529 59.6741L39.6776 60.4802C39.9205 60.4354 40.1797 60.3247 40.3869 60.1024C40.5928 59.8812 40.6845 59.617 40.7148 59.3764L39.9015 59.2742ZM39.529 59.6741L39.3804 58.868L39.0506 58.9288L39.1992 59.7349L39.3478 60.541L39.6776 60.4802L39.529 59.6741ZM39.1992 59.7349L39.0506 58.9288L38.7207 58.9896L38.8693 59.7957L39.0179 60.6018L39.3478 60.541L39.1992 59.7349ZM38.8693 59.7957L38.7207 58.9896C38.4489 59.0397 38.1881 59.1149 37.9407 59.2178L38.2554 59.9746L38.5702 60.7315C38.7015 60.6769 38.8499 60.6328 39.0179 60.6018L38.8693 59.7957ZM38.2554 59.9746L37.9407 59.2178L37.6567 59.3359L37.9714 60.0928L38.2861 60.8496L38.5702 60.7315L38.2554 59.9746ZM37.9714 60.0928L37.6567 59.3359L37.3726 59.454L37.6873 60.2109L38.002 60.9677L38.2861 60.8496L37.9714 60.0928ZM37.6873 60.2109L37.3726 59.454C37.0775 59.5768 36.8162 59.7565 36.5987 59.9926L37.2016 60.5479L37.8045 61.1033C37.8558 61.0475 37.9184 61.0025 38.002 60.9677L37.6873 60.2109ZM37.2016 60.5479L36.5987 59.9926L36.397 60.2115L36.9999 60.7669L37.6028 61.3222L37.8045 61.1033L37.2016 60.5479ZM36.9999 60.7669L36.397 60.2115L36.1954 60.4305L36.7983 60.9858L37.4012 61.5411L37.6028 61.3222L36.9999 60.7669ZM36.7983 60.9858L36.1954 60.4305C36.0159 60.6254 35.8619 60.8397 35.7343 61.0722L36.4528 61.4667L37.1712 61.8612C37.2354 61.7444 37.3118 61.6381 37.4012 61.5411L36.7983 60.9858ZM36.4528 61.4667L35.7343 61.0722L35.5904 61.3342L36.3089 61.7287L37.0274 62.1232L37.1712 61.8612L36.4528 61.4667ZM36.3089 61.7287L35.5904 61.3342L35.4465 61.5962L36.165 61.9907L36.8835 62.3852L37.0274 62.1232L36.3089 61.7287ZM36.165 61.9907L35.4465 61.5962C35.4469 61.5956 35.4492 61.5915 35.4542 61.5856C35.4592 61.5796 35.4654 61.5735 35.4722 61.5681C35.4872 61.5562 35.4945 61.5559 35.4823 61.5596L35.72 62.344L35.9577 63.1285C36.3515 63.0091 36.6786 62.7585 36.8835 62.3852L36.165 61.9907ZM35.72 62.344L35.4823 61.5596L35.1811 61.6509L35.4188 62.4353L35.6565 63.2197L35.9577 63.1285L35.72 62.344ZM35.4188 62.4353L35.1811 61.6509L34.8799 61.7421L35.1176 62.5266L35.3553 63.311L35.6565 63.2197L35.4188 62.4353ZM35.1176 62.5266L34.8799 61.7421C34.5622 61.8384 34.277 62.0007 34.0276 62.2178L34.5659 62.836L35.1041 63.4542C35.1888 63.3805 35.2715 63.3364 35.3553 63.311L35.1176 62.5266ZM34.5659 62.836L34.0276 62.2178L33.777 62.436L34.3153 63.0542L34.8535 63.6724L35.1041 63.4542L34.5659 62.836ZM34.3153 63.0542L33.777 62.436L33.5265 62.6541L34.0647 63.2723L34.6029 63.8905L34.8535 63.6724L34.3153 63.0542ZM34.0647 63.2723L33.5265 62.6541C33.4722 62.7014 33.4351 62.7125 33.4036 62.7165L33.5073 63.5296L33.611 64.3427C33.9886 64.2946 34.323 64.1342 34.6029 63.8905L34.0647 63.2723ZM33.5073 63.5296L33.4036 62.7165L33.0968 62.7557L33.2006 63.5688L33.3043 64.3818L33.611 64.3427L33.5073 63.5296ZM33.2006 63.5688L33.0968 62.7557L32.7901 62.7948L32.8938 63.6079L32.9975 64.421L33.3043 64.3818L33.2006 63.5688ZM32.8938 63.6079L32.7901 62.7948C32.4366 62.8399 32.1075 62.9778 31.8311 63.218L32.3688 63.8366L32.9066 64.4553C32.9211 64.4427 32.9419 64.4281 32.9975 64.421L32.8938 63.6079ZM32.3688 63.8366L31.8311 63.218L31.6129 63.4077L32.1507 64.0263L32.6885 64.6449L32.9066 64.4553L32.3688 63.8366ZM32.1507 64.0263L31.6129 63.4077L31.3948 63.5973L31.9326 64.2159L32.4703 64.8345L32.6885 64.6449L32.1507 64.0263ZM31.9326 64.2159L31.3948 63.5973C31.2614 63.7133 31.1193 63.8299 30.9684 63.9473L31.4714 64.5945L31.9744 65.2416C32.1475 65.1071 32.3129 64.9714 32.4703 64.8345L31.9326 64.2159ZM31.4714 64.5945L30.9684 63.9473L30.7253 64.1362L31.2283 64.7834L31.7313 65.4305L31.9744 65.2416L31.4714 64.5945ZM31.2283 64.7834L30.7253 64.1362L30.4823 64.3251L30.9853 64.9723L31.4883 65.6195L31.7313 65.4305L31.2283 64.7834ZM30.9853 64.9723L30.4823 64.3251C30.4261 64.3687 30.3587 64.4249 30.2964 64.4907C30.2619 64.5271 30.11 64.6839 30.0542 64.9304C30.0194 65.0842 30.0158 65.3065 30.139 65.5284C30.257 65.7407 30.433 65.8472 30.5488 65.8968C30.7477 65.9819 30.934 65.9718 30.9887 65.9689L30.945 65.1504L30.9012 64.3319C30.9111 64.3313 30.9395 64.3302 30.9797 64.334C31.0147 64.3374 31.0961 64.3478 31.1941 64.3898C31.2947 64.4329 31.4602 64.5307 31.5722 64.7324C31.6895 64.9436 31.6846 65.1532 31.6531 65.2921C31.6246 65.4181 31.5721 65.5038 31.548 65.54C31.5206 65.5813 31.4963 65.6077 31.4868 65.6178C31.4683 65.6373 31.4634 65.6388 31.4883 65.6195L30.9853 64.9723ZM30.945 65.1504L30.9887 65.9689L31.1915 65.958L31.1477 65.1395L31.104 64.321L30.9012 64.3319L30.945 65.1504ZM31.1477 65.1395L31.1915 65.958L31.3943 65.9472L31.3505 65.1287L31.3068 64.3102L31.104 64.321L31.1477 65.1395ZM31.3505 65.1287L31.3943 65.9472C31.8012 65.9254 32.1196 65.7105 32.3404 65.5045L31.7813 64.9051L31.2221 64.3058C31.1859 64.3396 31.1721 64.345 31.182 64.3398C31.1939 64.3337 31.2374 64.3139 31.3068 64.3102L31.3505 65.1287ZM31.7813 64.9051L32.3404 65.5045L32.5684 65.2918L32.0093 64.6924L31.4501 64.0931L31.2221 64.3058L31.7813 64.9051ZM32.0093 64.6924L32.5684 65.2918L32.7964 65.0791L32.2373 64.4797L31.6781 63.8804L31.4501 64.0931L32.0093 64.6924ZM32.2373 64.4797L32.7964 65.0791C32.9236 64.9604 33.0581 64.8497 33.2 64.7468L32.719 64.0831L32.2379 63.4195C32.0416 63.5618 31.8549 63.7154 31.6781 63.8804L32.2373 64.4797ZM32.719 64.0831L33.2 64.7468L33.4537 64.5629L32.9727 63.8993L32.4917 63.2356L32.2379 63.4195L32.719 64.0831ZM32.9727 63.8993L33.4537 64.5629L33.7074 64.379L33.2264 63.7154L32.7454 63.0517L32.4917 63.2356L32.9727 63.8993ZM33.2264 63.7154L33.7074 64.379C33.7676 64.3355 33.8425 64.3015 33.9468 64.2839L33.8101 63.4757L33.6734 62.6675C33.3377 62.7242 33.0235 62.8501 32.7454 63.0517L33.2264 63.7154ZM33.8101 63.4757L33.9468 64.2839L34.2768 64.228L34.1401 63.4199L34.0034 62.6117L33.6734 62.6675L33.8101 63.4757ZM34.1401 63.4199L34.2768 64.228L34.6068 64.1722L34.4701 63.364L34.3334 62.5558L34.0034 62.6117L34.1401 63.4199ZM34.4701 63.364L34.6068 64.1722C34.842 64.1325 35.0786 64.0365 35.2818 63.8603C35.484 63.685 35.6117 63.4661 35.6861 63.2441L34.9089 62.9836L34.1317 62.7231C34.1336 62.7175 34.1519 62.6703 34.2078 62.6217C34.2647 62.5724 34.3182 62.5584 34.3334 62.5558L34.4701 63.364ZM34.9089 62.9836L35.6861 63.2441L35.7949 62.9194L35.0177 62.6589L34.2406 62.3984L34.1317 62.7231L34.9089 62.9836ZM35.0177 62.6589L35.7949 62.9194L35.9037 62.5947L35.1266 62.3342L34.3494 62.0738L34.2406 62.3984L35.0177 62.6589ZM35.1266 62.3342L35.9037 62.5947C35.9075 62.5836 35.9103 62.5782 35.911 62.577C35.9116 62.5758 35.9108 62.5775 35.9081 62.5807C35.9053 62.584 35.9023 62.5868 35.8998 62.5889C35.8973 62.5908 35.8971 62.5906 35.9006 62.5887L35.5248 61.8603L35.149 61.1318C34.756 61.3346 34.4859 61.6665 34.3494 62.0738L35.1266 62.3342ZM35.5248 61.8603L35.9006 62.5887L36.19 62.4394L35.8143 61.711L35.4385 60.9825L35.149 61.1318L35.5248 61.8603ZM35.8143 61.711L36.19 62.4394L36.4795 62.2901L36.1037 61.5617L35.7279 60.8332L35.4385 60.9825L35.8143 61.711ZM36.1037 61.5617L36.4795 62.2901C36.6608 62.1966 36.8403 62.1095 37.0179 62.0288L36.6788 61.2825L36.3397 60.5363C36.1364 60.6287 35.9325 60.7277 35.7279 60.8332L36.1037 61.5617ZM36.6788 61.2825L37.0179 62.0288L37.3036 61.899L36.9645 61.1527L36.6254 60.4065L36.3397 60.5363L36.6788 61.2825ZM36.9645 61.1527L37.3036 61.899L37.5893 61.7691L37.2502 61.0229L36.9111 60.2767L36.6254 60.4065L36.9645 61.1527ZM37.2502 61.0229L37.5893 61.7691C37.619 61.7556 37.6485 61.7489 37.7034 61.7594L37.8568 60.9542L38.0103 60.149C37.6372 60.078 37.2623 60.1171 36.9111 60.2767L37.2502 61.0229ZM37.8568 60.9542L37.7034 61.7594L38.0244 61.8206L38.1778 61.0154L38.3312 60.2102L38.0103 60.149L37.8568 60.9542ZM38.1778 61.0154L38.0244 61.8206L38.3454 61.8817L38.4988 61.0765L38.6522 60.2714L38.3312 60.2102L38.1778 61.0154ZM38.4988 61.0765L38.3454 61.8817C38.779 61.9643 39.1988 61.8714 39.5581 61.6261L39.096 60.9491L38.6338 60.2721C38.627 60.2768 38.6242 60.2779 38.6257 60.2772C38.6272 60.2765 38.6314 60.2749 38.6375 60.2736C38.6437 60.2723 38.6492 60.2719 38.6531 60.2718C38.6568 60.2718 38.6568 60.2722 38.6522 60.2714L38.4988 61.0765ZM39.096 60.9491L39.5581 61.6261L39.8344 61.4375L39.3722 60.7605L38.9101 60.0836L38.6338 60.2721L39.096 60.9491ZM39.3722 60.7605L39.8344 61.4375L40.1106 61.2489L39.6485 60.5719L39.1863 59.895L38.9101 60.0836L39.3722 60.7605ZM39.6485 60.5719L40.1106 61.2489C40.1937 61.1922 40.2627 61.17 40.3243 61.163L40.232 60.3485L40.1398 59.5341C39.7916 59.5735 39.4715 59.7003 39.1863 59.895L39.6485 60.5719ZM40.232 60.3485L40.3243 61.163L40.6316 61.1282L40.5394 60.3137L40.4471 59.4992L40.1398 59.5341L40.232 60.3485ZM40.5394 60.3137L40.6316 61.1282L40.939 61.0933L40.8467 60.2789L40.7544 59.4644L40.4471 59.4992L40.5394 60.3137ZM40.8467 60.2789L40.939 61.0933C41.1243 61.0723 41.3119 61.0578 41.5019 61.0499L41.4676 60.2309L41.4334 59.412C41.2052 59.4215 40.9788 59.439 40.7544 59.4644L40.8467 60.2789ZM41.4676 60.2309L41.5019 61.0499L41.8156 61.0368L41.7813 60.2178L41.747 59.3989L41.4334 59.412L41.4676 60.2309ZM41.7813 60.2178L41.8156 61.0368L42.1292 61.0236L42.095 60.2047L42.0607 59.3857L41.747 59.3989L41.7813 60.2178ZM42.095 60.2047L42.1292 61.0236C42.2744 61.0176 42.4206 61.0282 42.5693 61.0565L42.7226 60.2513L42.8758 59.4461C42.6059 59.3947 42.3338 59.3743 42.0607 59.3857L42.095 60.2047ZM42.7226 60.2513L42.5693 61.0565L42.8832 61.1163L43.0365 60.3111L43.1898 59.5059L42.8758 59.4461L42.7226 60.2513ZM43.0365 60.3111L42.8832 61.1163L43.1972 61.1761L43.3504 60.3708L43.5037 59.5656L43.1898 59.5059L43.0365 60.3111ZM43.3504 60.3708L43.1972 61.1761C43.1704 61.171 43.0912 61.1475 43.0147 61.0693C42.9394 60.9923 42.9205 60.9173 42.9175 60.9007L43.7236 60.7524L44.5297 60.604C44.4872 60.373 44.3864 60.1271 44.1867 59.923C43.9858 59.7176 43.7397 59.6106 43.5037 59.5656L43.3504 60.3708ZM43.7236 60.7524L42.9175 60.9007L42.9767 61.2225L43.7828 61.0741L44.589 60.9258L44.5297 60.604L43.7236 60.7524ZM43.7828 61.0741L42.9767 61.2225L43.0359 61.5443L43.842 61.3959L44.6482 61.2475L44.589 60.9258L43.7828 61.0741ZM43.842 61.3959L43.0359 61.5443C43.1021 61.9041 43.3004 62.3556 43.7978 62.5623L44.1123 61.8053L44.4268 61.0484C44.5186 61.0865 44.5853 61.15 44.6233 61.2076C44.6555 61.2563 44.6543 61.2807 44.6482 61.2475L43.842 61.3959ZM44.1123 61.8053L43.7978 62.5623L44.0089 62.65L44.3234 61.893L44.6379 61.1361L44.4268 61.0484L44.1123 61.8053ZM44.3234 61.893L43.973 62.6341L44.2976 62.7875L44.6479 62.0465L44.9983 61.3055L44.6737 61.152L44.3234 61.893ZM44.6479 62.0465L44.4681 62.8462L44.5656 62.8681L44.7455 62.0684L44.9254 61.2687L44.8278 61.2468L44.6479 62.0465Z" fill="#DCDCDC"/>
</svg>
