<svg width="313" height="215" viewBox="0 0 313 215" fill="none" xmlns="http://www.w3.org/2000/svg">
<path d="M6.21676 208.165C3.74993 211.628 0.517481 214.625 0 214.807C1.11401 214.541 4.47537 214.284 5.3916 214.126C7.67119 213.738 9.9199 213.4 13.7359 212.58C19.5112 210.82 21.5076 209.463 24.6663 206.619C29.7601 202.033 31.0278 199.242 34.3667 194.25C34.9898 193.319 35.4038 193.465 36.114 193.729C39.226 194.888 44.1474 198.158 55.8797 199.096C61.3435 199.533 64.4459 199.399 66.054 199.329L66.0673 199.328C71.7799 199.081 77.3744 199.084 85.5853 193.506C89.3977 190.916 93.2775 188.408 100.205 188.187C108.486 187.923 114.528 187.951 116.612 189.097C119.433 190.647 122.547 192.545 126.053 193.834C129.916 195.254 133.132 196.363 138.4 196.261C142.512 196.182 149.374 195.836 155.525 194.893C161.676 193.949 166.998 192.568 170.552 191.293C175.998 189.339 181.511 187.891 184.77 187.145C186.879 186.662 191.432 186.92 205.187 189.789C210.903 190.981 219.082 192.297 229.102 192.952C239.122 193.607 250.645 193.839 256.995 193.435C264.528 192.957 266.622 192.566 269.24 192.236C273.46 191.703 278.741 191.44 282.652 189.697C286.662 187.909 290.913 185.412 292.59 182.335C294.225 179.336 295.794 173.227 298.234 162.22C299.02 158.675 300.139 155.427 302.922 151.842C306.253 147.553 310.502 143.575 312.159 138.382C314.113 132.256 310.355 110.952 310.744 88.7703C311.133 66.5884 314.904 48.9095 310.99 42.3505C309.945 40.6007 307.307 36.9038 302.354 32.818C299.346 30.3367 294.536 28.7674 288.56 24.795C282.43 20.7208 278.329 17.8172 276.683 15.508C274.573 12.5481 273.191 10.3622 272.303 9.77266C269.542 7.93914 265.19 4.03472 257.689 3.72598C254.037 3.57563 248.283 3.65888 240.058 4.68655C231.834 5.71422 221.453 7.62831 214.733 8.60296C208.012 9.57762 205.026 9.47766 202.629 9.83933C198.415 10.4754 192.574 9.58515 186.858 11.256C183.834 12.1398 180.976 12.8562 175.604 12.2695L175.54 12.2625C167.544 11.3893 160.656 10.6372 154.802 8.00033C145.075 3.61903 138.677 0.622792 137.31 0.423226C135.912 0.219206 130.21 -0.347886 122.519 0.305425C114.722 0.967712 106.064 2.83643 102.442 3.53008C99.6127 4.07173 95.4738 5.85496 89.2569 8.12166C85.8871 9.35027 81.0536 11.3893 75.8991 13.1794C73.1807 14.1235 69.4305 14.7681 64.4901 14.1893C61.0751 13.7892 56.7428 12.3484 50.447 13.2261C43.0015 14.2641 37.6209 15.2334 35.3425 16.2331C33.4788 17.0508 31.6771 17.9673 29.7921 20.0114C26.9874 23.0528 22.8695 28.4887 19.2604 37.3445C17.2459 42.2877 14.9493 48.1873 14.2985 51.7523C13.2152 57.6864 9.53673 63.8643 10.7042 86.0462C11.8717 108.228 17.5583 133.098 19.077 141.618C19.6973 145.098 19.7243 147.023 18.9151 154.255C18.1059 161.487 16.6544 173.68 15.6154 180.116C14.2509 188.567 13.1181 192.35 11.9424 195.773C9.80498 201.998 7.74289 206.023 6.21676 208.165Z" fill="#4D784F"/>
</svg>
