<svg width="496" height="244" viewBox="0 0 496 244" fill="none" xmlns="http://www.w3.org/2000/svg">

<g id="Cindy Website 2042">

<g id="Group 245">
<path id="Vector 6303" d="M9.77883 233.061C5.89857 238.508 0.813987 243.222 0 243.508C1.75232 243.089 7.03966 242.685 8.48088 242.437C12.0666 241.827 15.6038 241.295 21.6063 240.005C30.6907 237.237 33.831 235.102 38.7996 230.629C46.8121 223.416 48.806 219.025 54.0581 211.173C55.0383 209.708 55.6894 209.937 56.8065 210.353C61.7017 212.176 69.443 217.319 87.8977 218.795C96.4923 219.482 101.372 219.271 103.902 219.161L103.922 219.161C112.908 218.772 121.708 218.777 134.624 210.002C140.621 205.927 146.724 201.984 157.621 201.636C170.646 201.22 180.15 201.265 183.429 203.067C187.865 205.505 192.764 208.491 198.279 210.518C204.355 212.751 209.413 214.495 217.7 214.336C224.169 214.211 234.961 213.668 244.638 212.183C254.314 210.698 262.684 208.527 268.275 206.521C276.841 203.447 285.513 201.17 290.639 199.996C293.957 199.237 301.118 199.643 322.755 204.155C331.746 206.03 344.611 208.101 360.372 209.131C376.133 210.161 394.259 210.525 404.247 209.891C416.096 209.138 419.391 208.523 423.509 208.004C430.147 207.166 438.453 206.753 444.605 204.01C450.914 201.198 457.6 197.27 460.238 192.43C462.81 187.713 465.277 178.103 469.116 160.79C470.352 155.214 472.112 150.104 476.49 144.466C481.73 137.719 488.414 131.462 491.02 123.293C494.093 113.657 495.808 105.55 495.766 98.682C495.667 82.5832 495.338 76.9335 489.18 66.6165C487.538 63.864 483.388 58.0489 475.596 51.622C470.865 47.719 463.3 45.2504 453.898 39.002C444.256 32.5934 437.805 28.0261 435.216 24.3938C431.898 19.738 429.723 16.2995 428.327 15.3722C423.984 12.4881 417.138 6.34653 405.34 5.86088C399.595 5.62439 390.544 5.75534 377.607 7.37184C364.67 8.98834 348.341 11.9992 337.77 13.5323C327.199 15.0654 322.501 14.9082 318.732 15.4771C312.102 16.4775 302.915 15.0772 293.923 17.7054C289.166 19.0957 284.672 20.2226 276.221 19.2997L276.12 19.2887C263.542 17.9152 252.708 16.7321 243.5 12.5844C228.2 5.69267 218.136 0.979639 215.985 0.665726C213.786 0.344806 204.818 -0.547217 192.72 0.480427C180.456 1.52219 166.837 4.46164 161.138 5.55275C156.689 6.40475 150.178 9.20973 140.399 12.7752C135.099 14.7078 127.496 17.9151 119.388 20.7309C115.112 22.216 109.213 23.2299 101.442 22.3194C96.0699 21.69 89.2552 19.4237 79.3521 20.8044C67.6405 22.4371 59.1769 23.9618 55.593 25.5343C52.6615 26.8206 49.8273 28.2622 46.8623 31.4774C42.4506 36.2615 35.9733 44.8121 30.2963 58.7421C27.1274 66.5176 23.5149 75.7976 22.4912 81.4052C20.7872 90.7395 20.5259 94.172 22.1089 98.6156C23.9731 103.848 27.6189 114.981 30.0077 128.383C30.9835 133.857 31.026 136.885 29.7531 148.261C28.4801 159.637 26.1971 178.816 24.5626 188.939C22.4163 202.233 20.6344 208.183 18.7852 213.569C15.423 223.361 12.1794 229.69 9.77883 233.061Z" fill="#4D784F"/>
</g>
</g>
</svg>
