<svg width="47" height="25" viewBox="0 0 47 25" fill="none" xmlns="http://www.w3.org/2000/svg">
<path d="M24.2684 24.947C22.8222 24.947 21.2972 24.8024 19.6933 24.5132C18.0893 24.2503 16.5249 23.8296 14.9998 23.2511C13.4748 22.6463 12.1075 21.897 10.898 21.003H8.01884C6.59898 19.5042 5.88905 16.7828 5.88905 12.8388C5.88905 11.8396 5.98108 10.8536 6.16514 9.88074C6.34919 8.88158 6.59898 7.97445 6.91451 7.15934C7.23003 6.34424 7.585 5.71319 7.9794 5.2662C8.03199 5.2399 8.18975 5.2399 8.45269 5.2662C8.74192 5.29249 9.0443 5.31878 9.35982 5.34508C9.70164 5.34508 9.97773 5.34508 10.1881 5.34508C10.6614 5.34508 11.0558 5.31878 11.3713 5.2662C11.7131 5.18732 12.1075 5.01641 12.5545 4.75347C13.0015 4.49053 13.5931 4.06983 14.3293 3.49137C15.5651 2.5185 16.6432 1.84801 17.5635 1.4799C18.4837 1.11179 19.5355 0.927734 20.7187 0.927734C23.427 0.927734 25.6225 1.26955 27.3053 1.95319C28.173 2.29501 28.9355 2.57109 29.5928 2.78144C30.2765 2.99179 30.7892 3.14955 31.131 3.25473C31.6043 3.3599 32.025 3.55711 32.3931 3.84634C32.9716 3.87263 33.5369 3.91207 34.0891 3.96466C34.6675 4.01724 35.246 4.06983 35.8244 4.12242C36.7447 4.2276 37.7176 4.34592 38.743 4.47738C39.7948 4.58256 40.7282 4.68773 41.5433 4.79291C43.1735 4.97697 44.3436 5.31878 45.0535 5.81836C45.7898 6.31794 46.1579 7.04102 46.1579 7.9876C46.1579 9.80186 44.8695 10.709 42.2927 10.709C41.8457 10.709 41.2015 10.6958 40.3601 10.6696C39.545 10.617 38.7167 10.5907 37.8754 10.5907C37.2443 10.5907 36.6264 10.6038 36.0216 10.6301C35.4169 10.6564 34.8253 10.6958 34.2468 10.7484C34.6675 11.3532 34.8779 12.1157 34.8779 13.036C34.8779 14.2192 34.3126 15.0606 33.1819 15.5602C32.8138 15.7179 32.6298 15.9151 32.6298 16.1518C32.6298 16.3621 32.6955 16.6251 32.827 16.9406C32.9584 17.2298 33.0242 17.5585 33.0242 17.9266C33.0242 19.2939 32.38 20.201 31.0916 20.648C30.9075 20.7006 30.7892 20.7795 30.7366 20.8847C30.7103 20.9635 30.6972 21.1476 30.6972 21.4368C30.6972 22.62 30.145 23.5009 29.0407 24.0793C27.9626 24.6578 26.3719 24.947 24.2684 24.947ZM24.2684 23.6061H25.846C25.5305 23.5009 25.1492 23.3694 24.7022 23.2117C24.2815 23.0276 23.7688 22.7778 23.164 22.4623C22.3752 22.0416 21.6653 21.5814 21.0342 21.0819C20.4032 20.5823 19.943 20.1221 19.6538 19.7014C19.5749 19.4911 19.5355 19.2282 19.5355 18.9126C19.5355 18.6497 19.5881 18.4131 19.6933 18.2027C19.7984 17.9661 19.9167 17.7689 20.0482 17.6111C19.5486 17.3482 19.0885 17.0984 18.6678 16.8617C18.2734 16.6251 17.971 16.4147 17.7607 16.2307C17.6555 16.0992 17.5635 15.9414 17.4846 15.7574C17.4057 15.547 17.3531 15.3104 17.3268 15.0475C16.985 15.1526 16.6037 15.2315 16.183 15.2841C15.7886 15.3367 15.3679 15.363 14.9209 15.363C14.2636 15.363 13.672 15.2972 13.1461 15.1658V13.7854C13.3565 13.8379 13.6326 13.8774 13.9744 13.9037C14.3425 13.93 14.658 13.9431 14.9209 13.9431C15.4731 13.9431 15.9727 13.9168 16.4197 13.8642C16.8667 13.7854 17.2611 13.6539 17.6029 13.4698C17.9973 12.7862 18.5889 12.4049 19.3777 12.3261C19.2463 11.9317 19.1805 11.5504 19.1805 11.1823C19.1805 10.4986 19.3909 9.92018 19.8116 9.4469C20.2323 8.94732 20.8502 8.69753 21.6653 8.69753C21.9545 8.69753 22.2437 8.73697 22.533 8.81585C22.8485 8.89473 23.164 8.9999 23.4795 9.13137C23.5847 8.9999 23.6899 8.85529 23.7951 8.69753C23.9002 8.53976 24.0054 8.36885 24.1106 8.1848C23.2166 7.94815 22.6119 7.67207 22.2963 7.35655L23.3612 6.40997C23.4927 6.54144 23.8082 6.68606 24.3078 6.84382C24.8074 6.97529 25.399 7.10676 26.0826 7.23822C26.7663 7.36969 27.4367 7.48802 28.0941 7.59319C28.7514 7.67207 29.2773 7.71151 29.6717 7.71151C30.1976 7.71151 30.6709 7.5406 31.0916 7.19878C31.5386 6.85697 31.7621 6.31795 31.7621 5.58172V5.18731H31.7226C31.7226 5.13473 31.6174 5.0427 31.4071 4.91123C31.1967 4.77976 30.9864 4.68773 30.776 4.63515C30.4342 4.52997 29.9084 4.37221 29.1984 4.16186C28.4885 3.92522 27.6734 3.62284 26.7531 3.25473C25.2544 2.64997 23.2429 2.3476 20.7187 2.3476C19.6933 2.3476 18.7861 2.50536 17.9973 2.82088C17.2348 3.13641 16.3014 3.74116 15.197 4.63515C14.4345 5.2399 13.7903 5.70004 13.2644 6.01557C12.7386 6.33109 12.239 6.54144 11.7657 6.64662C11.3187 6.7255 10.7928 6.76494 10.1881 6.76494C10.004 6.76494 9.76738 6.76494 9.47815 6.76494C9.18891 6.73864 8.92598 6.71235 8.68933 6.68606C8.29493 7.36969 7.96626 8.27683 7.70332 9.40746C7.44038 10.5381 7.30892 11.6819 7.30892 12.8388C7.30892 15.9677 7.76905 18.2158 8.68933 19.5831H11.3713C12.3442 20.3982 13.5142 21.1082 14.8815 21.7129C16.2488 22.3177 17.7344 22.791 19.3383 23.1328C20.9422 23.4483 22.5856 23.6061 24.2684 23.6061ZM4.23255 22.3045C3.6015 22.3045 3.06248 22.0021 2.61549 21.3974C2.19479 20.7926 1.86612 20.017 1.62947 19.0704C1.39283 18.1238 1.22192 17.1247 1.11675 16.0729C1.01157 14.9949 0.958984 14.0089 0.958984 13.1149C0.958984 12.2209 1.01157 11.248 1.11675 10.1963C1.22192 9.11822 1.39283 8.10592 1.62947 7.15934C1.89241 6.21277 2.23423 5.43711 2.65493 4.83235C3.07563 4.2013 3.6015 3.88578 4.23255 3.88578H7.19059C7.71647 3.88578 7.9794 4.2013 7.9794 4.83235V4.91123C7.82164 4.72718 7.62444 4.63515 7.3878 4.63515C6.83563 4.63515 6.37549 4.91123 6.00738 5.4634C5.63926 5.98927 5.35003 6.68606 5.13968 7.55375C4.95563 8.39515 4.81101 9.31543 4.70584 10.3146C4.62696 11.2875 4.58752 12.2209 4.58752 13.1149C4.58752 14.0089 4.62696 14.9554 4.70584 15.9546C4.81101 16.9537 4.96877 17.8872 5.17912 18.7549C5.41577 19.5963 5.705 20.2931 6.04682 20.8452C6.41493 21.3711 6.86192 21.634 7.3878 21.634C7.62444 21.634 7.82164 21.5026 7.9794 21.2396V21.5157C7.9794 21.7261 7.91367 21.9101 7.7822 22.0679C7.67703 22.2256 7.47982 22.3045 7.19059 22.3045H4.23255ZM28.804 10.709C28.9355 10.2357 29.251 9.88074 29.7506 9.6441C30.2502 9.40745 30.7892 9.28913 31.3677 9.28913C31.7358 9.28913 32.025 9.30228 32.2353 9.32858C32.4457 9.32858 32.6429 9.35487 32.827 9.40746C33.6158 9.35487 34.4572 9.30228 35.3512 9.24969C36.2714 9.19711 37.1128 9.17081 37.8754 9.17081C38.7167 9.17081 39.5581 9.19711 40.3995 9.24969C41.2409 9.27599 41.872 9.28913 42.2927 9.28913C43.2393 9.28913 43.8835 9.18396 44.2253 8.97361C44.5671 8.76326 44.738 8.43459 44.738 7.9876C44.738 7.48801 44.4882 7.1199 43.9886 6.88326C43.5153 6.62032 42.6345 6.39683 41.3461 6.21277C40.5573 6.0813 39.6502 5.96298 38.6247 5.85781C37.6256 5.75263 36.6264 5.64746 35.6272 5.54228C35.2854 5.48969 34.891 5.45025 34.444 5.42396C34.0233 5.39767 33.5895 5.37137 33.1425 5.34508V5.54228C33.1425 6.67291 32.8007 7.55375 32.117 8.1848C31.4597 8.81585 30.6709 9.13137 29.7506 9.13137C29.251 9.13137 28.6068 9.07878 27.818 8.97361C27.0292 8.86843 26.2535 8.72382 25.491 8.53976C25.3858 8.72382 25.2807 8.90787 25.1755 9.09193C25.0703 9.27599 24.952 9.46004 24.8205 9.6441H24.86C25.2018 9.74927 25.6882 9.92018 26.3193 10.1568C26.9503 10.3672 27.7786 10.5512 28.804 10.709ZM30.1844 15.2447C30.7366 15.2447 31.486 14.9554 32.4326 14.377C32.8795 14.0877 33.1556 13.8774 33.2608 13.7459C33.3923 13.6144 33.458 13.4172 33.458 13.1543C33.458 12.681 33.4054 12.234 33.3002 11.8133C33.1951 11.3663 32.9584 10.9982 32.5903 10.709C32.4588 10.6827 32.3274 10.6696 32.1959 10.6696C32.0907 10.6696 31.9856 10.6696 31.8804 10.6696C31.1442 10.6696 30.6314 10.8142 30.3422 11.1034C30.0793 11.3663 29.9478 11.7607 29.9478 12.2866C28.6594 12.1551 27.6077 11.9711 26.7926 11.7344C26.0037 11.4715 25.2412 11.2086 24.505 10.9456C24.0054 10.7879 23.5058 10.5775 23.0063 10.3146C22.5067 10.0517 22.0334 9.94648 21.5864 9.99906C21.376 10.0254 21.1526 10.1174 20.9159 10.2751C20.6793 10.4066 20.5609 10.6564 20.5609 11.0245C20.5609 11.1823 20.5872 11.3663 20.6398 11.5767C20.7187 11.787 20.7713 11.9185 20.7976 11.9711C21.1657 12.2603 21.731 12.6284 22.4935 13.0754C23.2823 13.5224 24.3209 13.9694 25.6093 14.4164C26.3719 14.6793 27.2001 14.8897 28.0941 15.0475C28.9881 15.1789 29.6849 15.2447 30.1844 15.2447ZM29.5534 19.6226C30.1581 19.6226 30.6709 19.5042 31.0916 19.2676C31.5386 19.031 31.7621 18.6365 31.7621 18.0844C31.7621 17.7689 31.7226 17.4665 31.6437 17.1772C31.5912 16.888 31.5254 16.6514 31.4465 16.4673C31.131 16.5988 30.776 16.6645 30.3816 16.6645C30.0924 16.6645 29.6586 16.6251 29.0801 16.5462C28.5016 16.4673 27.8837 16.3621 27.2264 16.2307C26.5953 16.0992 25.9906 15.9414 25.4121 15.7574C24.5181 15.4682 23.6505 15.1263 22.8091 14.7319C21.9939 14.3375 21.2709 13.9431 20.6398 13.5487C20.298 13.4172 20.0088 13.3515 19.7721 13.3515C19.4303 13.3515 19.1542 13.483 18.9439 13.7459C18.7335 14.0089 18.6284 14.3112 18.6284 14.653C18.6284 14.9686 18.7204 15.271 18.9044 15.5602C19.1674 15.7442 19.5881 15.994 20.1665 16.3096C20.745 16.6251 21.376 16.9537 22.0597 17.2956C22.7696 17.6111 23.4138 17.8872 23.9923 18.1238C25.1492 18.5708 26.1747 18.9389 27.0686 19.2282C27.9889 19.4911 28.8172 19.6226 29.5534 19.6226ZM28.0546 22.6595C28.6857 22.6595 29.0801 22.4754 29.2379 22.1073C29.4219 21.7129 29.514 21.3711 29.514 21.0819C29.514 20.9767 29.5008 20.8978 29.4745 20.8452H29.1984C28.1204 20.8452 27.0949 20.6612 26.1221 20.2931C25.1755 19.8986 24.3341 19.5568 23.5979 19.2676C23.2823 19.1361 22.9274 18.9784 22.533 18.7943C22.1386 18.6103 21.7442 18.4262 21.3498 18.2421C21.0868 18.5051 20.9291 18.8337 20.8765 19.2282C21.0868 19.5174 21.4286 19.8592 21.9019 20.2536C22.3752 20.6217 22.8748 20.9504 23.4007 21.2396C23.874 21.5026 24.3078 21.7392 24.7022 21.9496C25.1229 22.1599 25.583 22.3308 26.0826 22.4623C26.6085 22.5938 27.2658 22.6595 28.0546 22.6595Z" fill="black"/>
</svg>
