<svg width="113" height="92" viewBox="0 0 113 92" fill="none" xmlns="http://www.w3.org/2000/svg">
<path d="M76.5076 38.336H71.5635V33.9188H73.7721V31.7102H71.5635V27.293H76.5076V29.5016H78.7162V31.7102H80.9248V33.9188H78.7162V36.1274H76.5076V38.336Z" fill="#FF4500"/>
<path d="M88.3627 25.0832V20.666H86.1541H83.9455V22.8746H81.7369V25.0832H79.5283V27.2918H77.3197V29.5004H75.1111V31.709H72.9025V33.9176H75.1111V36.1262H77.3197V38.3348H79.5283V40.5434H81.7369V42.752H83.9455V44.9606H86.1541H88.3633L88.3627 40.5434V25.0832Z" fill="#FF4500"/>
<path d="M93.7734 27.0752V28.0703H94.7676V29.0645H95.7627V30.0596H96.7578V31.0547H97.752V32.0488H98.2139V31.0547H99.209V30.0596H100.204V29.0645H101.198V28.0703H102.193V27.0752H103.722V28.6035H102.727V29.5977H101.731V30.5928H100.737V31.5879H99.7422V32.582H98.7471V33.0439H99.7422V34.0391H100.737V35.0342H101.731V36.0283H102.727V37.0234H103.722V38.5518H102.193V37.5566H101.198V36.5615H100.204V35.5674H99.209V34.5723H98.2139V33.5771H97.752V34.5723H96.7578V35.5674H95.7627V36.5615H94.7676V37.5566H93.7734V38.5518H92.2451V37.0234H93.2402V36.0283H94.2344V35.0342H95.2295V34.0391H96.2246V33.0439H97.2188V32.582H96.2246V31.5879H95.2295V30.5928H94.2344V29.5977H93.2402V28.6035H92.2451V27.0752H93.7734Z" fill="#FF4500" stroke="#FF4500" stroke-width="0.533244"/>
<path d="M45.9221 29.489L46.3246 29.6727L46.7359 29.8565C46.9684 29.9611 47.1958 30.0477 47.4184 30.119L47.8209 30.2502L48.2146 30.3815C48.5125 30.4768 48.8096 30.5835 49.0984 30.7052L49.4921 30.8715L49.8771 31.029C50.1766 31.1553 50.4754 31.3014 50.7696 31.4665L51.1546 31.6852L51.5484 31.904C52.0749 32.1994 52.4291 32.6709 52.5896 33.2427L52.7209 33.689L52.8434 34.1265C52.8483 34.1439 52.8494 34.1565 52.8521 34.1615C52.8528 34.1624 52.8645 34.1725 52.8871 34.1877L53.2721 34.4502L53.6571 34.704C54.0411 34.9582 54.3236 35.3065 54.4796 35.7277L54.5934 36.174L54.6546 36.6115L54.7246 37.0577C54.7602 37.3044 54.8113 37.54 54.8734 37.7665L54.9871 38.1865L55.1009 38.5977C55.2427 39.1137 55.2028 39.6364 55.0046 40.129L54.8471 40.5402L54.6984 40.8727L54.8559 41.1877L55.0484 41.564C55.193 41.8546 55.3166 42.1552 55.4246 42.4565L55.5646 42.8502L55.7046 43.2352C55.777 43.4371 55.8709 43.633 55.9759 43.8215L56.1771 44.189L56.3784 44.5477C56.4823 44.7342 56.6019 44.9121 56.7371 45.0815L56.9996 45.414L57.2621 45.7377C57.5073 46.0444 57.703 46.3865 57.8484 46.7527L58.0059 47.1465L58.1634 47.549C58.2049 47.6531 58.2686 47.7413 58.3559 47.8202L58.6709 48.109L58.9946 48.3977C59.2463 48.6252 59.4803 48.8673 59.6946 49.124L60.2371 49.7715C60.5037 50.0911 60.7011 50.4553 60.8409 50.8477L60.9896 51.2502L61.1384 51.6615C61.158 51.7161 61.1833 51.7572 61.2434 51.8015L61.9609 52.3265C62.2877 52.5652 62.574 52.8501 62.8096 53.1752L63.2996 53.8402C63.4674 54.0717 63.6342 54.3105 63.7984 54.549L64.0346 54.899L64.2709 55.2402C64.3792 55.3975 64.5092 55.5463 64.6559 55.6777L64.9709 55.9577L65.2859 56.2465C65.584 56.5135 65.8386 56.8193 66.0384 57.1652L66.2484 57.5327L66.4584 57.8915C66.632 58.1924 66.7793 58.5153 66.9046 58.854L67.0621 59.2827L67.1584 59.554L67.4821 59.624L67.9371 59.7202C68.5267 59.8455 69.0224 60.1795 69.3546 60.6915L69.6084 61.0765L69.8534 61.4615C69.9219 61.5672 69.9872 61.6242 70.0459 61.654L70.4221 61.8377L70.7984 62.0302C70.9618 62.1129 71.149 62.1838 71.3584 62.2315L71.8046 62.3277L72.2421 62.424C72.7176 62.5319 73.1481 62.7567 73.5109 63.089L73.8346 63.3777L74.1496 63.6752C74.4765 63.9746 74.733 64.3323 74.9196 64.734L75.1121 65.1452L75.3046 65.5477C75.3407 65.6253 75.3735 65.658 75.4096 65.679L75.7771 65.889L76.1446 66.1077C76.4202 66.2675 76.693 66.442 76.9496 66.624L77.2909 66.8602L77.6321 67.1052C77.89 67.2881 78.1378 67.484 78.3759 67.6915L78.6909 67.9715L79.0146 68.2427C79.2182 68.4202 79.426 68.6021 79.6359 68.7765L80.2834 69.319C80.5228 69.5179 80.7544 69.7236 80.9746 69.9402L81.2721 70.2377L81.5784 70.5265C81.6391 70.5861 81.7142 70.639 81.8321 70.6752L82.6896 70.9377C83.1008 71.0621 83.4823 71.2562 83.8184 71.524L84.1421 71.7865L84.4746 72.049C84.5601 72.1169 84.6594 72.16 84.7809 72.189L85.2009 72.294L85.6209 72.3902C86.1199 72.5074 86.5576 72.7652 86.9071 73.134L87.2134 73.449L87.5196 73.7727C87.6674 73.9286 87.8192 74.0554 87.9746 74.1577L88.3246 74.3852L88.6659 74.6215C88.9554 74.8122 89.2287 75.0278 89.4796 75.269L89.7859 75.5577L90.0834 75.8465C90.3848 76.136 90.6286 76.4757 90.8096 76.8527L91.0021 77.2465L91.1859 77.6402C91.3766 78.0386 91.4879 78.4664 91.5009 78.909L91.5184 79.749C91.5326 80.2331 91.4217 80.7004 91.1859 81.1227L90.9759 81.499L90.7746 81.8665C90.5711 82.2305 90.3067 82.5523 89.9871 82.8202L89.6634 83.0827L89.3396 83.354C89.1601 83.5046 88.9895 83.6695 88.8234 83.844L88.5259 84.159L88.2284 84.4652C87.9522 84.7553 87.6353 84.9961 87.2834 85.1915L86.8984 85.4102L86.5134 85.6202C86.1238 85.8364 85.6991 85.9766 85.2534 86.014L84.4134 86.084C84.2092 86.1011 84.0105 86.1317 83.8184 86.189L83.0134 86.434C82.5004 86.5866 81.9758 86.5567 81.4821 86.3552L81.0884 86.1977L80.7034 86.0402C80.3465 85.8944 80.0139 85.6951 79.7234 85.4452L79.4434 85.209L79.1634 84.964C78.9295 84.7628 78.6997 84.5322 78.4809 84.2815L78.2009 83.9577L77.9121 83.634C77.687 83.3759 77.4885 83.1068 77.3171 82.829L77.1159 82.4965L76.9059 82.1727C76.8772 82.1262 76.8446 82.0796 76.7746 82.0415L76.4159 81.8577L76.0659 81.6652C75.8969 81.5736 75.7199 81.5007 75.5409 81.4465L75.1559 81.324L74.7796 81.2102C74.2391 81.0472 73.8182 80.6983 73.5459 80.2215L73.3359 79.8627L73.1346 79.504C73.0529 79.3605 72.9479 79.2245 72.8196 79.1015L72.5134 78.804L72.2071 78.5152C72.02 78.3359 71.8236 78.1618 71.6296 77.999L71.3146 77.7277L70.9909 77.4652C70.7653 77.2759 70.5444 77.0794 70.3259 76.879L70.0196 76.5902L69.7046 76.3102C69.4704 76.0953 69.2514 75.8651 69.0396 75.6277L68.4796 74.9977C68.4267 74.9384 68.3512 74.8904 68.2346 74.849L67.8146 74.7002L67.3859 74.5427C67.0558 74.4259 66.7402 74.2903 66.4409 74.1315L66.0646 73.9302L65.6971 73.7377C65.3473 73.552 65.0236 73.3107 64.7434 73.029L64.4459 72.7227L64.1396 72.4252C63.9343 72.2188 63.7336 72.0077 63.5359 71.804L63.2384 71.4977L62.9496 71.2002C62.7625 71.0074 62.5657 70.819 62.3721 70.6315L62.0746 70.334L61.7684 70.0452C61.7654 70.0937 61.7734 70.1455 61.7684 70.194L61.6809 71.034C61.6524 71.312 61.6221 71.589 61.5934 71.8652L61.5059 72.7052C61.4787 72.9667 61.4607 73.23 61.4446 73.4927L61.3921 74.3327C61.3722 74.6568 61.329 74.9818 61.2696 75.304L61.1121 76.144C61.0313 76.579 60.8362 77.0936 60.3596 77.439L60.1146 77.6052L59.8784 77.7802C59.7223 77.893 59.5057 78.0008 59.2396 78.034C58.9667 78.0675 58.7108 78.0163 58.4959 77.9115C58.111 77.7228 57.8891 77.3902 57.7784 77.194L57.5596 76.8002L57.3321 76.3977C57.2568 76.264 57.1804 76.179 57.1046 76.1265L56.7546 75.8902L56.4134 75.654C56.1849 75.4959 55.9591 75.3431 55.7396 75.1902L55.4071 74.954L55.0834 74.7265C54.6157 74.4007 54.3222 73.9342 54.2084 73.3965L54.1209 72.9765L54.0334 72.5652C53.9632 72.2332 53.9213 71.8965 53.9021 71.559L53.8496 70.719C53.8341 70.4442 53.8167 70.1701 53.7971 69.8965L53.7709 69.4765L53.7359 69.0565C53.7208 68.8444 53.7188 68.6254 53.7184 68.4002C53.3975 68.4929 53.0675 68.5437 52.7209 68.4965L52.3096 68.444L51.9071 68.3915C51.6124 68.351 51.3144 68.3019 51.0234 68.2427L50.6209 68.1552L50.2271 68.0765C49.8524 68.0003 49.4898 67.8715 49.1509 67.6915L48.7834 67.4902L48.4071 67.2977C48.2305 67.2038 48.0316 67.1182 47.8121 67.0527L47.3834 66.9302L46.9546 66.799C46.3292 66.6116 45.8701 66.1695 45.6421 65.5652L45.4759 65.1452L45.3184 64.7165C45.2875 64.635 45.2511 64.5917 45.2046 64.559L44.8459 64.314L44.4959 64.0602C44.1031 63.7837 43.7915 63.4207 43.5859 62.984L43.4021 62.5902L43.2184 62.2052C43.0984 61.9493 42.9785 61.6935 42.8596 61.444L42.6846 61.0677L42.5009 60.6915C42.423 60.5279 42.3239 60.3651 42.1946 60.2102L41.6346 59.5452C41.317 59.1645 41.1116 58.7154 41.0396 58.224L40.9784 57.7865L40.9171 57.3577C40.8784 57.0911 40.8363 56.8313 40.7859 56.579L40.6984 56.1677L40.6196 55.7565C40.5442 55.3781 40.5236 54.9949 40.5584 54.6102L40.5934 54.1902L40.6371 53.7702C40.6447 53.688 40.6331 53.5939 40.5846 53.4815L40.2346 52.659C40.063 52.2603 39.9617 51.8424 39.9546 51.4077L39.9459 50.9877V50.559C39.941 50.2323 39.9533 49.9056 39.9896 49.579L40.0334 49.1502L40.0859 48.7302C40.1142 48.4767 40.13 48.2205 40.1384 47.969L40.1559 47.549L40.1646 47.129C40.1725 46.8944 40.1683 46.6633 40.1471 46.4377L40.1121 46.0265L40.0684 45.6152C40.0652 45.5809 40.0711 45.5454 40.0684 45.5102C39.9616 45.3946 39.8749 45.2585 39.8234 45.099L39.7884 45.0027L39.7359 44.8277V44.6527L39.7446 43.8565C39.7505 43.2967 39.7921 42.7763 39.9109 42.3515L40.0334 41.9227L40.1209 41.599L39.9371 41.3452L39.6834 41.004C39.5531 40.8284 39.4039 40.6601 39.2459 40.514L38.9309 40.2252L38.6246 39.9365C38.2736 39.6118 38.0136 39.2156 37.8634 38.764L37.7321 38.344L37.5921 37.9327C37.4875 37.6179 37.404 37.3027 37.3384 36.9877L37.2509 36.5852L37.1634 36.174C37.1057 35.8967 37.0517 35.6135 36.9971 35.3252L36.9184 34.9052L36.8396 34.4765C36.7416 33.9579 36.8044 33.4451 37.0234 32.9715L37.2159 32.569L37.3996 32.1665C37.6532 31.6194 38.1026 31.2112 38.7121 31.0465L39.1146 30.9327L39.5259 30.8277C39.6241 30.8007 39.735 30.746 39.8584 30.644L40.2084 30.3552L40.5671 30.0577C40.9965 29.7035 41.5175 29.5057 42.0896 29.5152L42.5271 29.524L42.9559 29.5327C43.1694 29.5363 43.384 29.5196 43.5859 29.4802L44.0059 29.3927L44.4259 29.314C44.941 29.2143 45.4507 29.2769 45.9221 29.489ZM41.8796 45.2565C42.0356 45.1625 42.1414 45.0673 42.1859 45.0115C42.2393 44.9441 42.2722 44.88 42.2909 44.8452C42.3252 44.7813 42.3441 44.7277 42.3521 44.7052C42.36 44.683 42.3671 44.6617 42.3696 44.6527C42.3676 44.6624 42.3651 44.6827 42.3609 44.7052L42.3259 44.9065L42.2821 45.1077C42.2868 45.0831 42.291 45.0907 42.2909 45.1515C42.2909 45.2091 42.2893 45.2938 42.2996 45.4052L42.3434 45.8165L42.3784 46.2277C42.4085 46.5496 42.4156 46.8806 42.4046 47.2077L42.3959 47.6277L42.3784 48.0477C42.3681 48.3567 42.3429 48.6657 42.3084 48.9752L42.2646 49.404L42.2121 49.824C42.186 50.0584 42.1825 50.2921 42.1859 50.524V50.9527L42.1946 51.3727C42.1969 51.4977 42.2279 51.6292 42.2909 51.7752L42.6409 52.5977C42.8279 53.0319 42.912 53.4948 42.8684 53.9715L42.8246 54.3915L42.7896 54.8115C42.7739 54.9843 42.7826 55.1524 42.8159 55.319L42.8946 55.7302L42.9821 56.1415C43.0406 56.4345 43.0867 56.738 43.1309 57.0427L43.2009 57.4715L43.2621 57.9002C43.274 57.9794 43.2954 58.0452 43.3496 58.1102L43.9096 58.7752C44.1537 59.0678 44.3601 59.3888 44.5221 59.729L44.7059 60.1052L44.8809 60.4815C45.0015 60.7346 45.1267 60.9921 45.2484 61.2515L45.4321 61.6452L45.6159 62.0302C45.6525 62.1075 45.701 62.1743 45.7821 62.2315L46.1409 62.4765L46.4996 62.7302C46.9273 63.0322 47.2362 63.4458 47.4184 63.929L47.5759 64.349L47.6984 64.6815L48.0309 64.7777L48.4596 64.909C48.811 65.014 49.1502 65.1523 49.4659 65.3202L49.8334 65.5127L50.2009 65.714C50.3545 65.7956 50.5144 65.8479 50.6734 65.8802L51.0671 65.959L51.4696 66.0465C51.7135 66.0961 51.966 66.135 52.2134 66.169L52.6159 66.2215L53.0184 66.2827C53.0454 66.2864 53.0929 66.2884 53.1759 66.2477L53.9809 65.8452L54.5409 65.6702C54.8036 65.6414 55.1235 65.6838 55.4334 65.9065C55.7288 66.1193 55.8628 66.4069 55.9234 66.6152C55.9827 66.8193 55.9889 67.0125 55.9846 67.1577L55.9759 67.639L55.9584 68.1115C55.95 68.3978 55.959 68.6618 55.9759 68.899L56.0284 69.739C56.0487 70.0231 56.0735 70.3113 56.0896 70.5965L56.1071 71.0165L56.1334 71.4365C56.1461 71.6588 56.1742 71.8807 56.2209 72.1015L56.3084 72.5215L56.3871 72.9065L56.6934 73.1165L57.0171 73.3527C57.2357 73.505 57.4631 73.6588 57.6909 73.8165L58.3734 74.289C58.6406 74.4739 58.8576 74.7076 59.0471 74.9627L59.0646 74.8927C59.1078 74.6581 59.1379 74.4252 59.1521 74.1927L59.2046 73.3527C59.2227 73.0583 59.2442 72.7621 59.2746 72.469L59.3184 72.0577L59.3621 71.6377C59.3908 71.3617 59.4212 71.0843 59.4496 70.8065L59.5371 69.9665C59.5532 69.8093 59.5481 69.6434 59.5109 69.4765L59.3184 68.6365C59.2772 68.4516 59.231 68.1641 59.2834 67.8665C59.312 67.7063 59.3816 67.4886 59.5459 67.2802C59.7241 67.0542 59.9654 66.9071 60.2284 66.8427L60.5784 66.7552L61.1559 66.7377C61.3191 66.7695 61.457 66.8267 61.5584 66.8777C61.7707 66.9852 61.9503 67.1386 62.0921 67.2715L62.3984 67.5515L62.7046 67.8402C62.9129 68.0353 63.1202 68.236 63.3259 68.4352L63.6321 68.724L63.9384 69.0215C64.1475 69.2241 64.3486 69.4343 64.5509 69.6427L64.8484 69.9402L65.1371 70.2465C65.3284 70.4435 65.5243 70.6413 65.7234 70.8415L66.3359 71.454C66.4614 71.5801 66.6003 71.6823 66.7471 71.7602L67.1146 71.9527L67.4909 72.154C67.6858 72.2574 67.898 72.3518 68.1296 72.434L68.5584 72.5827L68.9784 72.7315C69.4264 72.89 69.83 73.1505 70.1509 73.5102L70.7109 74.1402C70.8719 74.3207 71.0406 74.4932 71.2184 74.6565L71.5334 74.9452L71.8396 75.2252C72.0343 75.4038 72.2342 75.582 72.4346 75.7502L72.7496 76.0127L73.0734 76.284C73.3058 76.479 73.5339 76.6837 73.7559 76.8965L74.0621 77.1852L74.3684 77.4827C74.6489 77.7516 74.8856 78.0565 75.0771 78.3927L75.2871 78.7515L75.4709 79.0752L75.8034 79.1802L76.1884 79.294C76.5156 79.3927 76.8317 79.533 77.1334 79.6965L77.4834 79.8802L77.8421 80.0727C78.2416 80.2896 78.5714 80.6003 78.8134 80.9915L79.0146 81.324L79.2246 81.6565C79.3243 81.8176 79.4485 81.9894 79.6009 82.164L79.8809 82.4877L80.1696 82.8115C80.3283 82.9932 80.4755 83.1455 80.6159 83.2665L80.9046 83.5115L81.1846 83.7477C81.2688 83.8201 81.3813 83.9 81.5434 83.9665L82.3309 84.2815L82.3484 84.2902C82.3508 84.2899 82.3652 84.293 82.3746 84.2902L83.1796 84.0452C83.5207 83.9435 83.8737 83.8738 84.2296 83.844L85.0696 83.774C85.1851 83.7641 85.3041 83.7379 85.4284 83.669L85.8134 83.4502L86.1984 83.2402C86.3588 83.1512 86.4951 83.0454 86.6096 82.9252L86.8984 82.6102L87.1959 82.304C87.4204 82.0678 87.6577 81.846 87.9046 81.639L88.2284 81.3677L88.5434 81.0965C88.6515 81.0058 88.7423 80.9017 88.8146 80.7727L89.0246 80.4052L89.2259 80.029C89.2654 79.9584 89.2806 79.897 89.2784 79.819L89.2696 79.399L89.2609 78.9702C89.257 78.8512 89.2238 78.7353 89.1646 78.6115L88.9809 78.2177L88.7884 77.824C88.7193 77.68 88.6359 77.5627 88.5346 77.4652L88.2284 77.1765L87.9309 76.879C87.7775 76.7316 87.6063 76.5999 87.4321 76.4852L87.0909 76.2577L86.7409 76.0302C86.4329 75.8274 86.1507 75.5855 85.8921 75.3127L85.5859 74.9977L85.2796 74.674C85.2227 74.6139 85.1751 74.5835 85.1134 74.569L84.2734 74.3765C83.8371 74.2741 83.4354 74.0788 83.0834 73.799L82.4184 73.274C82.317 73.1935 82.1958 73.128 82.0421 73.0815L81.6134 72.9502L81.1934 72.819C80.747 72.6844 80.3398 72.4585 80.0034 72.1277L79.7059 71.8302L79.4084 71.5415C79.2321 71.368 79.0416 71.1945 78.8484 71.034L78.5246 70.7715L78.2009 70.5002C77.9769 70.3142 77.7534 70.1212 77.5359 69.9315L77.2209 69.6602L76.9059 69.3802C76.7242 69.2218 76.5341 69.0737 76.3371 68.934L75.6546 68.444C75.4547 68.3022 75.2422 68.1676 75.0246 68.0415L74.6571 67.8315L74.2896 67.6127C73.8327 67.3478 73.4925 66.9617 73.2746 66.4927L73.0821 66.0815L72.8896 65.679C72.8223 65.5341 72.7361 65.4207 72.6359 65.329L72.3209 65.0315L71.9971 64.7427C71.9329 64.6839 71.8548 64.6368 71.7434 64.6115L71.3059 64.5152L70.8684 64.4102C70.4917 64.3248 70.1305 64.1964 69.7921 64.0252L69.4159 63.8415L69.0396 63.649C68.5962 63.4247 68.2453 63.086 67.9809 62.6777L67.7271 62.2927L67.4821 61.9165H67.4734L67.0184 61.8115L66.5546 61.7152C65.8887 61.573 65.3634 61.1463 65.1196 60.4902L64.8046 59.6327C64.7193 59.402 64.6214 59.1943 64.5159 59.0115L64.3059 58.6527L64.0959 58.2852C64.0168 58.1488 63.9229 58.0205 63.7984 57.909L63.4746 57.629L63.1596 57.3402C62.8837 57.0929 62.6342 56.8217 62.4246 56.5177L61.9521 55.8177C61.7981 55.5941 61.6366 55.3781 61.4796 55.1615L61.2346 54.8202L60.9984 54.4877C60.9094 54.3648 60.7897 54.2475 60.6396 54.1377L59.9221 53.6127C59.5071 53.3093 59.2039 52.9021 59.0296 52.414L58.8809 52.0027L58.7321 51.6002C58.6782 51.4488 58.606 51.3174 58.5134 51.2065L57.9709 50.559C57.826 50.3857 57.6649 50.2186 57.4896 50.0602L57.1746 49.7715L56.8509 49.4827C56.5107 49.1752 56.2503 48.7983 56.0809 48.3715L55.9234 47.9777L55.7659 47.5752C55.7005 47.4107 55.6151 47.2667 55.5121 47.1377L55.2496 46.814L54.9871 46.4815C54.7751 46.2161 54.5832 45.9371 54.4184 45.6415L54.2171 45.274L54.0159 44.9152C53.8517 44.6205 53.7096 44.3135 53.5959 43.9965L53.4559 43.6027L53.3159 43.2177C53.238 43.0003 53.1515 42.7762 53.0446 42.5615L52.8521 42.1852L52.6684 41.809C52.3952 41.2598 52.3825 40.6597 52.6071 40.1027L52.7646 39.7002L52.9309 39.2977C52.9493 39.252 52.949 39.2271 52.9396 39.1927L52.8259 38.7815L52.7121 38.3615C52.6238 38.0396 52.5506 37.7105 52.5021 37.3727L52.4409 36.9265L52.3796 36.5415L52.0384 36.314L51.6534 36.0602C51.173 35.743 50.8374 35.2855 50.6821 34.7302L50.4371 33.8552L50.0609 33.6452L49.6759 33.4265C49.4511 33.3003 49.2278 33.1856 49.0109 33.094L48.6171 32.9365L48.2321 32.7702C48.005 32.6744 47.7745 32.5826 47.5409 32.5077L47.1384 32.3852L46.7359 32.254C46.4288 32.1557 46.1217 32.0409 45.8171 31.904L45.4059 31.7202L45.0034 31.5365C44.9377 31.5069 44.8965 31.5026 44.8546 31.5102L44.4346 31.5977L44.0146 31.6765C43.6564 31.7464 43.2881 31.7789 42.9209 31.7727L42.4834 31.764L42.0546 31.7552H42.0371L42.0284 31.764C42.022 31.7677 42.0081 31.7781 41.9934 31.7902L41.6346 32.079L41.2846 32.3677C40.9374 32.6547 40.542 32.8709 40.1034 32.989L39.7009 33.1027L39.3946 33.1815L39.2459 33.514L39.0621 33.9165C39.0347 33.9763 39.0282 34.0127 39.0359 34.0565L39.1146 34.4852L39.2021 34.9052C39.2544 35.1813 39.3047 35.4548 39.3596 35.719L39.4471 36.1215L39.5259 36.5327C39.5728 36.7582 39.64 36.9877 39.7184 37.224L39.8584 37.644L39.9896 38.0552C40.0228 38.1551 40.0717 38.2293 40.1384 38.2915L40.7684 38.869C41.0289 39.1099 41.265 39.3794 41.4771 39.6652L41.7396 40.0152L41.9934 40.3565C42.3772 40.8737 42.4778 41.4912 42.3084 42.0977L42.1946 42.5265L42.0721 42.9552C42.046 43.0483 42.0364 43.2043 42.0196 43.4365L42.2121 43.6377L42.2209 43.6552L42.3784 43.8652L42.4134 44.049C42.4436 44.1501 42.4745 44.2531 42.4746 44.364V44.469L41.9759 44.5127V44.6702C41.9923 44.878 41.9704 45.0766 41.8796 45.2565ZM56.4046 72.9415C56.4034 72.9386 56.4009 72.9318 56.3959 72.924L56.3871 72.9152L56.3959 72.9327L56.4046 72.9415Z" fill="#FF4500"/>
<path d="M83.68 72.8208C84.0986 72.3655 84.8084 72.3412 85.2638 72.7595C85.7191 73.1782 85.7524 73.8879 85.3338 74.3433L85.2638 74.4133L85.185 74.5008L85.0975 74.562L84.4588 75.0258C84.0261 75.3385 83.654 75.5922 83.3563 75.7608L82.9888 75.962L82.6213 76.172C82.5297 76.2243 82.4548 76.2985 82.385 76.3995L82.14 76.7495L81.895 77.1083C81.738 77.3356 81.5873 77.5575 81.4488 77.7733L81.0113 78.4558C80.8422 78.719 80.6536 78.9776 80.4513 79.2258L80.1888 79.5495L79.9175 79.8733C79.8207 79.9924 79.7516 80.1238 79.6988 80.267L79.55 80.6608L79.41 81.0633C79.3149 81.3241 79.2605 81.4671 79.2438 81.5183L79.2175 81.8245L79.0425 82.0695L78.9813 82.1483C78.6225 82.6518 77.9275 82.7692 77.4238 82.4108C77.0098 82.1158 76.8722 81.5993 77.03 81.142L77.0388 81.0633L77.0738 80.9408L77.1088 80.8358C77.1397 80.74 77.208 80.5488 77.3013 80.2933L77.45 79.8995L77.59 79.5058C77.7289 79.1253 77.9291 78.7698 78.185 78.4558L78.4475 78.132L78.7188 77.8083C78.8701 77.6226 78.9994 77.4295 79.1213 77.2395L79.5588 76.557C79.7115 76.3191 79.8787 76.0771 80.0488 75.8308L80.2938 75.4808L80.5388 75.122C80.7957 74.7501 81.1238 74.4445 81.5188 74.2208L81.8863 74.0108L82.2538 73.8095C82.4431 73.7023 82.7336 73.5041 83.1463 73.2058L83.68 72.8208Z" fill="#FF4500"/>
<path d="M81.7672 79.2233C82.2046 78.7859 82.9223 78.7859 83.3597 79.2233L83.4297 79.302L83.5172 79.3895L83.5872 79.5033L83.666 79.6258L83.736 79.7308L83.7535 79.7483C83.7964 79.7868 83.8658 79.8397 83.9635 79.9145L84.646 80.4395C85.0167 80.7234 85.3122 81.0858 85.5122 81.507L85.8797 82.2945C85.8561 82.2447 85.8525 82.2503 85.9235 82.312C85.9934 82.3726 86.1114 82.464 86.2997 82.5658L87.0085 82.942L87.1485 83.0208L87.341 83.2133C87.7753 83.6509 87.7773 84.3607 87.341 84.797C86.9581 85.1799 86.3758 85.2069 85.941 84.9195L85.2322 84.5345C84.7061 84.2501 84.141 83.8493 83.8585 83.257L83.6747 82.8633L83.4822 82.4695C83.4341 82.3682 83.3745 82.2901 83.2897 82.2245L82.9485 81.962L82.5985 81.6995C82.3818 81.5336 82.1061 81.3097 81.9335 81.0695L81.846 80.9383L81.8197 80.9033L81.8022 80.8683L81.7672 80.8158L81.5222 80.4395C81.3595 80.0356 81.4398 79.5507 81.7672 79.2233Z" fill="#FF4500"/>
<path d="M83.7466 76.9724C84.1997 76.553 84.9098 76.5811 85.3303 77.0337L85.4003 77.1037L86.2141 77.9874L86.1091 78.0662C86.126 78.0774 86.1433 78.0893 86.1616 78.1012L86.5291 78.3374L86.8878 78.5737C87.2838 78.8316 87.604 79.1771 87.8328 79.5887L88.0428 79.9649L88.2528 80.3499C88.2961 80.4279 88.4509 80.6219 88.8216 80.9362L89.4253 81.4524L89.4778 81.4962L89.5216 81.5399L89.5916 81.6187C90.0104 82.0719 89.9827 82.7821 89.5303 83.2024C89.0771 83.6221 88.3672 83.5938 87.9466 83.1412L87.9116 83.1062L87.3691 82.6424C86.9334 82.2727 86.533 81.8751 86.2928 81.4437L85.8728 80.6737C85.8179 80.5749 85.7474 80.5101 85.6628 80.4549L84.9453 79.9824C84.6825 79.8113 84.4379 79.635 84.2453 79.4574L84.0528 79.2824L83.8691 79.1074C83.7794 79.0247 83.6613 78.9028 83.5628 78.7574C83.4985 78.6623 83.2493 78.2879 83.3616 77.7862L83.3791 77.7074L83.4666 77.3312L83.5278 77.2874C83.5855 77.176 83.6494 77.0627 83.7466 76.9724Z" fill="#FF4500"/>
<path d="M75.2037 73.5839C75.3954 73.6479 75.5234 73.7519 75.5537 73.7764C75.6008 73.8145 75.6414 73.8462 75.6587 73.8639C75.6922 73.8983 75.7176 73.9291 75.7287 73.9427C75.7519 73.9713 75.7724 74.0005 75.7812 74.0127C75.8166 74.062 75.8648 74.1322 75.9124 74.2052L76.0612 74.4327L76.1224 74.5377L76.5424 74.6339L76.9624 74.7389C77.4804 74.8678 77.928 75.1497 78.2662 75.5614L78.5462 75.8939L78.8262 76.2352C78.904 76.3297 79.0994 76.5193 79.5087 76.7864L80.1737 77.2152L80.1999 77.2327L80.2174 77.2414L80.2962 77.3027C80.7984 77.6613 80.9154 78.3569 80.5587 78.8602C80.1996 79.3638 79.4961 79.4817 78.9924 79.1227L78.9487 79.0877L78.2924 78.6589C77.8187 78.3498 77.3883 78.0193 77.0937 77.6614L76.5337 76.9789C76.4996 76.9374 76.4685 76.921 76.4199 76.9089L75.9999 76.8039L75.5712 76.6989C75.1719 76.5992 74.6526 76.3889 74.3287 75.8939L74.1799 75.6577L74.1449 75.5964C74.0881 75.5313 74.0357 75.4698 73.9962 75.3952L73.9437 75.3339L73.8649 75.1764C73.86 75.1667 73.8352 75.1123 73.8124 75.0539C73.8052 75.0361 73.7594 74.9222 73.7424 74.7739C73.7368 74.7246 73.7223 74.6368 73.7337 74.5289C73.7442 74.4298 73.7827 74.2343 73.9174 74.0302C74.0762 73.7913 74.3336 73.6095 74.6349 73.5489C74.8914 73.4982 75.0981 73.549 75.2037 73.5839ZM75.9037 74.2927L74.5299 75.7102C74.6419 75.7441 74.835 75.7928 75.0724 75.7452C75.3736 75.6845 75.6225 75.5026 75.7812 75.2639C75.9174 75.0589 75.9544 74.8646 75.9649 74.7652C75.9764 74.6571 75.9705 74.5693 75.9649 74.5202C75.9539 74.4232 75.9296 74.3465 75.9212 74.3189C75.918 74.3085 75.9067 74.3016 75.9037 74.2927Z" fill="#FF4500"/>
<path d="M78.3498 71.7581L78.4285 71.8106L78.7698 72.0294L78.8135 72.0381L79.2248 72.1431C79.7217 72.2699 80.1543 72.5291 80.4935 72.9044L80.7823 73.2369L81.0798 73.5606C81.1423 73.6298 81.3383 73.7904 81.771 74.0156L82.4885 74.3919L82.5323 74.4094L82.5673 74.4356L82.6548 74.4881C83.1771 74.8195 83.3274 75.5146 82.996 76.0369C82.7469 76.4271 82.2971 76.6165 81.8673 76.5444L81.456 76.3781L80.7385 76.0019C80.2279 75.7362 79.7486 75.4323 79.4173 75.0656L79.1198 74.7419L78.831 74.4094C78.7753 74.3477 78.7256 74.3265 78.6735 74.3131L77.851 74.1031C77.7036 74.0655 77.5457 74.0232 77.4135 73.9719C77.3563 73.9496 77.2363 73.8955 77.116 73.8144C77.0578 73.7749 76.9423 73.6914 76.836 73.5519C76.7232 73.4026 76.5533 73.0929 76.6173 72.6856L76.626 72.6331L76.7135 72.0644L76.9585 71.9506C77.3197 71.5713 77.8907 71.4669 78.3498 71.7581Z" fill="#FF4500"/>
<path d="M52.0652 49.5314C52.0669 49.0255 52.2084 48.5459 52.4852 48.1227L52.7302 47.7639L52.9664 47.3964C53.0499 47.2679 53.1815 47.0022 53.3427 46.5389L53.5964 45.7952L53.6052 45.7689C53.77 45.173 54.383 44.8259 54.9789 44.9902C55.5751 45.155 55.9225 45.7677 55.7577 46.3639L55.7314 46.4602L55.7139 46.5302L55.4514 47.2739C55.2698 47.7959 55.0715 48.2652 54.8389 48.6214L54.6027 48.9889L54.3664 49.3477C54.3264 49.4089 54.3054 49.4678 54.3052 49.5402V50.4064C54.3041 50.7316 54.2858 51.0525 54.2527 51.3689L54.2089 51.7889L54.1652 52.2002C54.1251 52.5838 54.0295 52.9604 53.8852 53.3202L53.7277 53.7227L53.5702 54.1164C53.5019 54.2868 53.456 54.461 53.4389 54.6327L53.3952 55.0439L53.3602 55.4639C53.3508 55.5586 53.3617 55.6261 53.3864 55.6827L53.5527 56.0502L53.7102 56.4177C53.7895 56.5963 53.8851 56.7687 53.9989 56.9339L54.2352 57.2664L54.4627 57.5989C54.6159 57.8209 54.7773 58.058 54.9439 58.2989L55.1889 58.6577L55.4164 58.9814L55.8452 59.0427L56.3002 59.1127C56.7989 59.1863 57.2668 59.3883 57.6564 59.7252L58.3039 60.2852C58.4345 60.3981 58.5726 60.4791 58.7152 60.5389L59.1002 60.6964L59.4764 60.8627C59.8698 61.0276 60.223 61.2638 60.5264 61.5627L60.8414 61.8777L61.1564 62.1839C61.2675 62.2934 61.3849 62.3689 61.5064 62.4202L61.8914 62.5864L62.2764 62.7439C62.5632 62.8648 62.8483 63.0014 63.1252 63.1464L63.5014 63.3477L63.8777 63.5402C64.1272 63.6709 64.3812 63.8042 64.6302 63.9339L64.9977 64.1264L65.3739 64.3189C65.8023 64.542 66.149 64.8704 66.4152 65.2639L66.6777 65.6402L66.8089 65.8414L67.0627 65.8239L67.5264 65.7714C68.0101 65.7218 68.4911 65.7911 68.9439 65.9902L69.3377 66.1564L69.7314 66.3314C69.8755 66.3945 70.019 66.4342 70.1689 66.4452L70.5977 66.4714L71.0177 66.5064C71.462 66.5384 71.8861 66.6649 72.2777 66.8739L72.6627 67.0752L73.0389 67.2764H73.0477L73.4852 67.1452L73.9314 67.0139C74.3968 66.8769 74.8839 66.8598 75.3664 66.9789L75.7689 67.0752L76.1802 67.1802C76.4094 67.2367 76.6384 67.2751 76.8627 67.3027L77.2652 67.3552L77.6677 67.3989C77.8072 67.4161 77.9325 67.4361 78.0264 67.4514C78.0713 67.4587 78.1295 67.4652 78.1839 67.4777C78.2103 67.4837 78.2568 67.4965 78.3064 67.5127L78.6477 67.6964L78.6739 67.7139L79.9602 68.6939L78.8664 69.3677C78.6281 69.6369 78.2872 69.803 77.9039 69.7527L77.7989 69.7439L74.7189 69.3327L74.9552 69.1752L74.8327 69.1489C74.7728 69.1341 74.6852 69.1298 74.5614 69.1664L74.1239 69.2977L73.6777 69.4289C73.1147 69.5947 72.5287 69.5461 71.9977 69.2627L71.6127 69.0527L71.2189 68.8427C71.0933 68.7761 70.9754 68.7464 70.8602 68.7377L70.4314 68.7114L70.0114 68.6764C69.6012 68.6471 69.2071 68.5444 68.8302 68.3789L68.4364 68.2127L68.0427 68.0377C67.9727 68.0069 67.8836 67.9893 67.7539 68.0027L67.2989 68.0464L66.8352 68.0989C66.516 68.1318 66.1693 68.0951 65.8377 67.9414C65.5059 67.7874 65.2574 67.5441 65.0764 67.2764L64.8227 66.9002L64.5602 66.5152C64.485 66.4046 64.4117 66.3417 64.3414 66.3052L63.5889 65.9202C63.3389 65.7899 63.087 65.6577 62.8364 65.5264L62.4602 65.3252L62.0927 65.1327C61.8699 65.0159 61.64 64.9058 61.4102 64.8089L61.0252 64.6514L60.6314 64.4852C60.2365 64.3184 59.8863 64.0775 59.5814 63.7764L58.9514 63.1639C58.8391 63.053 58.7261 62.9762 58.6102 62.9277L58.2339 62.7702L57.8489 62.6039C57.4808 62.4496 57.1457 62.2359 56.8427 61.9739L56.5189 61.6939L56.1864 61.4139C56.1427 61.3769 56.0836 61.3422 55.9764 61.3264L55.5214 61.2564L55.0664 61.1952C54.4731 61.1076 53.9578 60.8023 53.6052 60.2939L53.3514 59.9352L53.0977 59.5677C52.9315 59.3274 52.7695 59.0981 52.6164 58.8764L52.3889 58.5439L52.1614 58.2027C51.9696 57.9245 51.7992 57.6349 51.6627 57.3277L51.5052 56.9602L51.3389 56.5927C51.1485 56.1629 51.0831 55.7063 51.1289 55.2452L51.1727 54.8252L51.2077 54.4052C51.2463 54.0199 51.3431 53.6459 51.4877 53.2852L51.6452 52.8827L51.8114 52.4889C51.8802 52.3175 51.9158 52.1438 51.9339 51.9727L52.0214 51.1327C52.0462 50.8946 52.0644 50.6492 52.0652 50.3977V49.5314Z" fill="#FF4500"/>
<path d="M45.1618 65.1966C45.6866 64.8693 46.3832 65.0306 46.7106 65.5554L46.8943 65.8616L46.9206 66.1241L47.0081 66.9116C47.0659 67.4778 47.0708 68.0296 46.9731 68.4866L46.8856 68.9154L46.7893 69.3354C46.7865 69.3487 46.7895 69.3668 46.7893 69.3704L46.7981 69.3791L47.2006 70.1316C47.2847 70.289 47.375 70.4071 47.4631 70.4904L47.7343 70.7529L48.0143 71.0154C48.0543 71.0531 48.0963 71.0743 48.1456 71.0854L48.5131 71.1641L48.7493 71.2166L49.0206 71.0241L49.3531 70.7704C49.3954 70.739 49.427 70.7093 49.4493 70.6479L49.5893 70.2366L49.7381 69.8341C49.8637 69.4808 50.0297 69.146 50.2368 68.8366L50.4643 68.4954L50.7006 68.1454C50.7212 68.1146 50.7484 68.0882 50.7706 68.0579L50.4468 67.9004L52.1706 66.8241L52.2581 66.7716C52.7081 66.4944 53.2644 66.5881 53.6231 66.9466L53.6931 66.9816L53.8593 67.2091L53.9118 67.2879C54.144 67.6086 54.2049 68.0433 54.0343 68.4341C53.9072 68.7227 53.6948 68.8846 53.6143 68.9416C53.4342 69.0683 53.2303 69.1389 53.1156 69.1779L52.8181 69.2829L52.5906 69.3529C52.5836 69.3612 52.5773 69.3773 52.5643 69.3966L52.3281 69.7379L52.1006 70.0879C51.9998 70.2385 51.9121 70.4027 51.8468 70.5866L51.7068 70.9891L51.5581 71.3916C51.3897 71.8662 51.0991 72.2708 50.6918 72.5729L50.3506 72.8266L50.0181 73.0716C49.5625 73.4093 48.9917 73.5652 48.3906 73.4304L48.0231 73.3516L47.6468 73.2641C47.2033 73.1638 46.804 72.9547 46.4743 72.6429L46.2031 72.3804L45.9231 72.1179C45.6404 71.8505 45.4077 71.5359 45.2231 71.1904L44.8206 70.4379C44.559 69.9483 44.4875 69.4085 44.6018 68.8716L44.6981 68.4429L44.7856 68.0141C44.8094 67.9008 44.8268 67.6289 44.7768 67.1391L44.7156 66.4829C44.563 66.0062 44.7178 65.4737 45.1618 65.1966Z" fill="#FF4500"/>
<path d="M47.2178 70.9736C47.243 70.9801 47.2635 71.0005 47.2878 71.0086L47.4978 70.9911L47.8653 71.4198L47.9003 71.4636C48.3864 72.0269 48.0975 72.6499 48.0666 72.7148C47.993 72.8686 47.8989 72.9811 47.8566 73.0298C47.7564 73.1451 47.6266 73.2582 47.5153 73.3536L47.2091 73.6073L46.9116 73.8698C46.9082 73.8727 46.8852 73.8898 46.8678 73.9661L46.6753 74.8236C46.641 74.9739 46.6387 75.095 46.6578 75.1998L46.7278 75.6023L46.7716 75.8561C46.8635 75.4486 47.031 75.0729 47.2966 74.7448L47.5678 74.4036L47.8478 74.0623C47.9119 73.9823 48.0435 73.7633 48.2066 73.3098L48.4691 72.5573L48.4778 72.5398L48.4866 72.5136L48.5303 72.4173C48.7667 71.8476 49.4206 71.5789 49.9916 71.8136C50.5617 72.0498 50.8301 72.7037 50.5953 73.2748L50.5691 73.3536L50.3153 74.0623C50.1237 74.5957 49.8899 75.0985 49.5891 75.4711L49.3091 75.8123L49.0378 76.1536C48.98 76.2248 48.9465 76.2935 48.9328 76.3811L48.8716 76.8098L48.8016 77.2386C48.7459 77.6035 48.654 77.9645 48.5216 78.3061L48.3641 78.6998L48.2153 79.0936C48.0889 79.4197 47.9336 79.734 47.7516 80.0298L47.5328 80.3798L47.4016 80.5811L47.4978 80.7648L47.6641 81.1323C47.7413 81.3 47.836 81.472 47.9616 81.6398L48.2241 81.9811L48.4778 82.3223C48.7057 82.6273 48.8893 82.9579 49.0291 83.3111L49.3441 84.0986C49.4184 84.2874 49.5132 84.5856 49.4841 84.9211C49.447 85.3457 49.2035 85.7862 48.7228 86.0061L48.5216 86.1023L48.3291 86.1898C48.187 86.2542 47.9707 86.3497 47.6903 86.4698L47.2703 86.6448L46.8503 86.8286C46.3991 87.0219 45.9116 87.0978 45.4153 87.0298L44.5753 86.9073C44.4103 86.8846 44.2432 86.888 44.0766 86.9161L43.6566 86.9948L43.2366 87.0648C42.774 87.1437 42.3072 87.11 41.8628 86.9686L41.4428 86.8286L41.0228 86.6973C40.8779 86.6516 40.746 86.6341 40.6203 86.6448L40.2003 86.6798L39.7803 86.7236L38.1003 86.8636C37.8503 86.8846 37.5986 86.9106 37.3478 86.9511L36.5078 87.0911C35.9891 87.1751 35.4839 87.0858 35.0203 86.8723L34.6003 86.6798L34.2241 86.5048L33.8478 86.6798L33.4278 86.8723C32.9364 87.0965 32.4022 87.1621 31.8616 87.0298L31.4416 86.9248L31.0216 86.8286C30.8773 86.7931 30.7375 86.7832 30.6016 86.8023L29.7616 86.9248C29.2866 86.9916 28.8145 86.9332 28.3703 86.7673L27.9503 86.6098L27.5478 86.4611L27.1541 86.6623L26.7341 86.8636C26.6521 86.9032 26.5619 86.9364 26.4803 86.9686C26.4329 86.9874 26.2671 87.0569 26.0691 87.0736C26.0245 87.0774 25.6092 87.1275 25.2378 86.8198C24.7032 86.376 24.8281 85.7651 24.8878 85.5861C24.9505 85.3984 25.0495 85.2673 25.0803 85.2273C25.1249 85.1695 25.1712 85.1197 25.2028 85.0873L25.5616 84.7286L25.9028 84.4573C26.2572 84.2517 26.6492 84.1995 26.9441 84.1948H27.3641L27.7753 84.1861C28.016 84.1823 28.2615 84.1624 28.5016 84.1336L28.9216 84.0898L29.3328 84.0373C29.7485 83.9874 30.167 84.0107 30.5753 84.1073L31.4328 84.3173C31.5228 84.3387 31.5967 84.3325 31.6691 84.3086L32.0803 84.1686L32.4916 84.0373C32.8357 83.924 33.1851 83.8406 33.5416 83.8011L34.3816 83.7136C34.7757 83.6704 35.1711 83.6904 35.5628 83.7661L35.9916 83.8448L36.4203 83.9323C36.4523 83.9385 36.4748 83.9319 36.5253 83.9061L36.9278 83.7048L37.3303 83.4948C37.7505 83.2782 38.2077 83.1636 38.6866 83.1711L39.1066 83.1798L39.5353 83.1886C39.8199 83.193 40.1074 83.1903 40.3928 83.1973L40.8128 83.2148L41.2416 83.2236C41.3828 83.2268 41.5215 83.2042 41.6616 83.1536L42.4666 82.8561C42.6837 82.7776 42.8368 82.7054 42.9303 82.6461L43.2016 82.4798L43.4728 82.3048L43.4553 82.3136C43.4692 82.2966 43.4991 82.2539 43.5341 82.1823L43.7266 81.7886L43.9103 81.3948L43.7616 80.9486L43.6128 80.5111C43.5074 80.1982 43.4716 79.8355 43.5691 79.4611C43.6674 79.0859 43.8842 78.79 44.1291 78.5686L44.4703 78.2536L44.7591 77.9911L44.7241 77.6148L44.6891 77.1511C44.6679 76.8775 44.642 76.6296 44.6016 76.4073L44.5228 76.0048L44.4528 75.6023C44.3749 75.175 44.3918 74.7459 44.4878 74.3248L44.6803 73.4673C44.7937 72.9709 45.047 72.5181 45.4503 72.1723L45.7566 71.9098L45.8353 71.8486L45.8528 71.7786C46.0071 71.1805 46.6192 70.8204 47.2178 70.9736ZM45.7391 82.7686L45.5466 83.1711C45.359 83.5543 45.0809 83.9345 44.6716 84.1948L44.1291 84.5448C44.025 84.6108 43.9016 84.6452 43.7878 84.7023C44.1507 84.649 44.5175 84.6433 44.8816 84.6936L45.3016 84.7548L45.7216 84.8073C45.7838 84.8156 45.86 84.8093 45.9666 84.7636L46.3866 84.5886L46.8066 84.4048C46.8835 84.3719 46.952 84.3365 47.0166 84.3086L46.9466 84.1336C46.8804 83.9667 46.7947 83.809 46.6841 83.6611L46.4303 83.3198L46.1678 82.9786C46.0508 82.822 45.9676 82.6461 45.8703 82.4798L45.7391 82.7686Z" fill="#FF4500"/>
<path d="M56.0521 73.9581C56.6697 73.9897 57.1422 74.5217 57.1108 75.1394V75.2356L57.1021 75.9794C57.0985 76.5475 57.0479 77.1007 56.8833 77.5544L56.5858 78.3769C56.5605 78.4486 56.5615 78.5071 56.5771 78.5781L56.6646 79.0069L56.7608 79.4269C56.827 79.7247 56.884 80.0248 56.9358 80.3194L57.0146 80.7306L57.0846 81.1506C57.1176 81.3388 57.1412 81.5501 57.1283 81.7631C57.1227 81.855 57.0984 81.9648 57.0671 82.0869L57.2508 82.2094L57.5921 82.4456C57.9572 82.6969 58.2611 83.0233 58.4933 83.3994L58.7208 83.7669L58.9571 84.1431L59.0796 84.1869C59.1125 84.1968 59.1707 84.2192 59.2371 84.2481C59.2702 84.2626 59.3298 84.2865 59.3946 84.3269C59.4438 84.3576 59.5778 84.451 59.7008 84.6156C59.8418 84.805 60.0305 85.2025 59.8583 85.6744C59.7174 86.0589 59.4227 86.2299 59.3333 86.2781C59.1443 86.3798 58.9672 86.4057 58.9396 86.4094C58.7771 86.4321 58.5715 86.4231 58.4583 86.4181L57.6183 86.3831C57.3771 86.3727 57.1333 86.3692 56.8921 86.3831L56.0521 86.4356C55.8242 86.4489 55.5972 86.4792 55.3696 86.5231L54.5296 86.6806C54.146 86.7546 53.7543 86.7719 53.3658 86.7331L52.9458 86.6894L52.5258 86.6544C52.1956 86.6213 51.8656 86.5651 51.5371 86.4881L51.1083 86.3831L50.6883 86.2869C50.6503 86.278 50.6181 86.2775 50.5571 86.3044L50.1458 86.4881L49.7346 86.6631C49.3178 86.8466 48.8723 86.9398 48.4133 86.9256L47.9933 86.9169L47.5733 86.8994C47.2644 86.8897 46.9475 86.8712 46.6371 86.8381L46.2171 86.7944L45.7883 86.7506C45.6653 86.7376 45.5704 86.7276 45.4996 86.7244C45.4544 86.7224 45.424 86.7242 45.4121 86.7244L45.2196 86.7419L45.0358 86.7594C45.0151 86.7614 44.984 86.7664 44.9571 86.7681C44.9444 86.7689 44.9259 86.7676 44.9046 86.7681C44.8924 86.7684 44.8254 86.7679 44.7471 86.7594C44.7221 86.7567 44.5957 86.7481 44.4496 86.6894C44.382 86.6622 44.198 86.5748 44.0296 86.3831C43.8138 86.1368 43.6825 85.7654 43.7846 85.3681C43.8646 85.0595 44.0503 84.8774 44.1171 84.8169C44.2006 84.7412 44.2803 84.6898 44.3183 84.6681C44.3945 84.6253 44.4626 84.6063 44.4846 84.5981C44.5598 84.5704 44.6274 84.5488 44.6421 84.5456C44.7165 84.529 44.8439 84.5063 44.9746 84.4844L45.3946 84.4144L45.8058 84.3444C46.0321 84.3065 46.256 84.2555 46.4708 84.1869L46.8733 84.0556L47.2758 83.9331C47.6036 83.8284 47.9392 83.7447 48.2821 83.6969L48.7021 83.6444L49.1221 83.5831C49.2388 83.5668 49.3521 83.5235 49.4633 83.4519L49.8308 83.2156L50.1983 82.9881C50.5099 82.7876 50.834 82.6145 51.1783 82.4894L51.5808 82.3494L51.9746 82.2094C52.3634 82.0684 52.7675 81.9932 53.1821 81.9906H54.0571C54.2536 81.9894 54.4033 81.9638 54.5121 81.9294L54.5208 81.9206L54.5296 81.7981L54.8358 81.4919L54.8621 81.4569L54.8096 81.1244L54.7308 80.7044C54.6849 80.4433 54.6325 80.1742 54.5733 79.9081L54.4771 79.4881L54.3896 79.0681C54.2804 78.5769 54.3057 78.0791 54.4771 77.6069L54.6258 77.1956L54.7746 76.7931C54.8079 76.7013 54.8591 76.4485 54.8621 75.9619L54.8708 75.1744V75.1219L54.8796 75.0169C54.9133 74.4013 55.4358 73.9268 56.0521 73.9581ZM55.5533 83.9419L55.1946 84.0556C54.8348 84.1706 54.4586 84.2281 54.0746 84.2306H53.1996C53.0298 84.2317 52.8743 84.2592 52.7358 84.3094L52.5346 84.3794C52.6074 84.3897 52.6811 84.4159 52.7533 84.4231L53.1733 84.4669L53.5933 84.5019C53.7655 84.519 53.9381 84.5175 54.1096 84.4844L54.5208 84.3969L54.9408 84.3181C55.267 84.2551 55.5996 84.2147 55.9296 84.1956L56.1571 84.1781L55.9733 84.0556L55.7283 83.8806L55.5533 83.9419Z" fill="#FF4500"/>
<path d="M2.67108 30.3186C3.08481 30.2128 3.51331 30.2324 3.92854 30.3743L4.36037 30.5264L4.71861 30.6519C4.78972 30.658 4.86129 30.6659 4.93227 30.671L5.09276 30.6875L5.47211 30.6168L5.89391 30.5322C6.29844 30.454 6.70728 30.4439 7.11514 30.5041L7.5455 30.5683L7.96717 30.6336C7.98809 30.6367 8.01954 30.6397 8.08682 30.602L8.49134 30.3697L8.8882 30.1471L9.32489 29.964C9.618 29.8744 9.92117 29.8477 10.2241 29.8941L10.679 30.0172L11.1128 30.1867L11.537 30.3486C11.6434 30.3897 11.7127 30.3931 11.7614 30.3841L12.1745 30.3005L12.5962 30.216C12.9178 30.1526 13.2422 30.1149 13.5686 30.0936L14.407 30.0309C14.6886 30.0126 14.9748 30.0014 15.2561 29.9845L15.6753 29.9532L16.0955 29.9305C16.5188 29.9052 16.9349 29.9647 17.3391 30.0935L17.7592 30.2206L18.1803 30.3564C18.298 30.3939 18.4003 30.4046 18.5013 30.3894L19.3489 30.2551C19.745 30.1932 20.1431 30.1923 20.5384 30.2571L20.9514 30.3234L21.3741 30.3973C21.455 30.4101 21.5558 30.4049 21.687 30.3608L22.5511 30.066C22.968 29.9256 23.4043 29.9056 23.8224 30.0143L24.2369 30.1685L24.6293 30.3605L25.0304 30.5515C25.1952 30.6309 25.3599 30.681 25.5241 30.7053L25.9458 30.7705L26.3665 30.8271C26.5431 30.8532 26.7203 30.8599 26.896 30.8357L27.3122 30.7783L27.737 30.7198C28.1016 30.6695 28.4695 30.6549 28.8345 30.6885L29.6718 30.7668C30.0179 30.7988 30.3607 30.8606 30.6981 30.9553L31.1085 31.0747L31.5276 31.1931C31.6882 31.2379 31.8483 31.2583 32.0101 31.2513L32.4303 31.2286L32.8602 31.2136C33.0645 31.2045 33.2687 31.1673 33.4742 31.1154L34.3137 30.9116C34.7604 30.7991 35.2175 30.789 35.6673 30.8856L36.5168 31.0683C36.5716 31.0792 36.7887 31.0884 37.2565 30.9906L38.0393 30.8287L38.1512 30.8068L38.2749 30.81L38.3715 30.8075C38.9881 30.8106 39.4892 31.3117 39.4891 31.9279C39.4869 32.5025 39.0461 32.9517 38.4884 33.0138L38.4981 33.0215L37.7154 33.1834C37.1485 33.3019 36.5568 33.3664 36.0412 33.2557L35.1917 33.0731C35.0761 33.0486 34.9675 33.0491 34.8574 33.0769L34.4387 33.1875L34.0189 33.2894C33.6683 33.3777 33.3129 33.4334 32.954 33.4491L32.5328 33.463L32.1039 33.4867C31.7025 33.5039 31.3027 33.4524 30.9155 33.3437L30.5061 33.2329L30.0957 33.1135C29.8859 33.0545 29.6749 33.0214 29.4661 33.0021L28.6288 32.9237C28.4362 32.906 28.2381 32.9123 28.0404 32.9396L27.6243 32.997L27.1994 33.0555C26.813 33.1087 26.4221 33.1076 26.036 33.0505L25.1927 32.92C24.7958 32.861 24.4133 32.7445 24.0504 32.5689L23.2656 32.1849L23.2666 32.1936L22.8345 32.341L22.4014 32.4797C22.1888 32.5513 21.9685 32.5946 21.7481 32.6177C21.8486 32.6623 21.9582 32.6927 22.0541 32.7493L22.4333 32.9781L22.8114 33.1982C22.8175 33.198 22.8374 33.1966 22.8548 33.1931L23.319 33.0948L23.7843 33.0052C24.2515 32.9075 24.7144 32.9558 25.1321 33.1561L25.5307 33.4002L25.8898 33.6842L26.2576 33.9672C26.3146 34.0113 26.3432 34.0154 26.369 34.0158L26.8097 34.0172L27.2416 34.0196C27.4315 34.0208 27.6336 34.0016 27.8413 33.9495L28.2774 33.8369L28.7222 33.7233C29.1432 33.6179 29.5779 33.5919 30.0099 33.6609L30.4045 33.7205L30.8001 33.7888C31.1495 33.8448 31.4963 33.9388 31.8376 34.0728L32.2531 34.2357L32.6695 34.4073C32.7637 34.4444 32.8375 34.4445 32.9016 34.433L33.3157 34.3582L33.7385 34.2824C34.0853 34.2207 34.4347 34.1906 34.7855 34.1953L35.2087 34.1987L35.6233 34.2031C35.9876 34.208 36.3512 34.255 36.7054 34.341L37.1137 34.443L37.4582 34.5261L37.8671 34.5576L37.9657 34.5725C38.5799 34.6199 39.0387 35.1506 38.9948 35.7649C38.9791 35.9749 38.891 36.1586 38.7776 36.3189L38.6946 36.6633L37.9977 36.8064L37.9456 36.8125C37.7462 36.8535 37.5665 36.8363 37.5427 36.8331C37.4805 36.8259 37.4134 36.811 37.3628 36.8013C37.2596 36.7815 37.1329 36.7554 36.9923 36.7213L36.1756 36.5172C35.9851 36.471 35.7904 36.4467 35.5944 36.4441L35.1799 36.4397L34.7566 36.4363C34.548 36.4335 34.3374 36.4459 34.1278 36.4833L33.7137 36.5582L33.2909 36.634C32.7986 36.7217 32.3137 36.6648 31.8551 36.4846L31.0242 36.1588C30.8142 36.0761 30.6162 36.0258 30.4416 35.9979L30.047 35.9382L29.6514 35.8699C29.5578 35.8555 29.4332 35.8557 29.267 35.8972L28.3773 36.1245C27.9969 36.2194 27.6083 36.2623 27.2214 36.2596L26.3575 36.2548C25.8057 36.251 25.3022 36.0624 24.8781 35.7317L24.519 35.4477L24.1997 35.2031L23.7779 35.2876L23.3136 35.3859C22.755 35.5019 22.1903 35.4273 21.6801 35.1275L21.2933 34.9084L20.9142 34.6796C20.8203 34.6243 20.7417 34.6035 20.6674 34.6027L20.2528 34.5983L19.8296 34.5949C19.6006 34.5925 19.3652 34.6033 19.1292 34.6327L18.7044 34.6912L18.2785 34.7409C17.8377 34.7958 17.3952 34.7613 16.9705 34.6295L16.5678 34.5003L16.1574 34.3809C15.8777 34.2941 15.5991 34.2018 15.3239 34.1083L14.9288 33.9694L14.5251 33.8316C14.4505 33.8067 14.3653 33.7988 14.2506 33.8196L13.3703 33.9754C12.8725 34.0658 12.3713 34.0246 11.8997 33.83L11.5016 33.6651L11.1025 33.4915C10.9404 33.4246 10.7796 33.3919 10.6226 33.3802L9.7874 33.3192C9.60496 33.3056 9.41602 33.315 9.22712 33.3494L8.80432 33.4253L8.3902 33.5001C7.91111 33.5875 7.43095 33.5458 6.97586 33.3834L6.55272 33.2303L6.13929 33.0848C5.95398 33.0185 5.77711 32.9831 5.60622 32.9708L5.18861 32.9404L4.95757 32.9233C4.79434 32.9228 4.63641 32.9034 4.47608 32.8738C4.2777 32.8562 4.07833 32.8447 3.87957 32.8202L3.45993 32.7723L3.03927 32.7158C2.9328 32.7026 2.88262 32.7152 2.87211 32.7177L2.26668 32.9646C2.21795 32.9844 2.16107 33.001 2.11431 33.0177C2.10139 33.0222 2.07953 33.0348 2.0555 33.0421C2.04604 33.045 1.97298 33.0664 1.88371 33.0798C1.8678 33.0824 1.69122 33.1127 1.47683 33.0657C1.37141 33.0424 1.05562 32.9577 0.819275 32.6404C0.535835 32.2583 0.581847 31.8447 0.655996 31.62C0.720561 31.4255 0.822332 31.2973 0.859738 31.2526C0.90772 31.1954 0.953207 31.1549 0.977916 31.1331C1.0263 31.0904 1.06331 31.0543 1.08176 31.0416C1.1697 30.9814 1.28087 30.9333 1.28888 30.9293L1.86519 30.6594L2.26509 30.4629L2.67108 30.3186Z" fill="#FF4500"/>
<path d="M51.2498 32.3102C51.7086 32.5117 51.9401 32.9833 51.8886 33.4565L51.9673 34.0865C52.0421 34.6782 52.0521 35.3519 51.7748 35.9152L51.5823 36.309L51.3898 36.694C51.3218 36.8319 51.2797 36.9717 51.2673 37.114L51.2323 37.5427L51.1973 37.9627C51.1598 38.3949 51.0383 38.8117 50.8386 39.1965L50.4361 39.9665C50.2162 40.3887 49.9037 40.7427 49.5086 41.0077L49.1498 41.244L48.7823 41.489C48.54 41.6515 48.3004 41.8083 48.0648 41.9615L47.3648 42.4165C47.132 42.5678 46.8883 42.723 46.6473 42.8802L45.9298 43.3527C45.5647 43.5909 45.1606 43.7575 44.7311 43.834L44.3111 43.904L43.8911 43.9827C43.5206 44.0484 43.1426 44.0675 42.7623 44.044L42.3161 44.0177L42.2111 44.009C42.1492 44.2476 42.0306 44.4717 41.8173 44.6302L41.7386 44.6915L40.6011 45.5227L40.5836 45.654L40.4873 46.109C40.3662 46.6745 40.0561 47.1693 39.5598 47.509L39.2011 47.754L38.8336 48.0077C38.6138 48.1583 38.4082 48.3049 38.2211 48.454L37.5911 48.9615C37.1845 49.2853 36.7004 49.4541 36.1823 49.4602L35.7711 49.469H35.3686C35.2479 49.4703 35.0959 49.4953 34.9136 49.5652L34.4761 49.7315L34.0473 49.8977C33.7766 50.0016 33.358 50.1001 32.9098 49.9415C32.4211 49.7668 32.1456 49.3783 32.0173 49.049L31.8773 48.6815L31.7286 48.3052C31.5876 47.9431 31.512 47.565 31.5011 47.1765L31.4836 46.7915L31.4748 46.4065C31.4611 45.8941 31.6216 45.4209 31.9123 45.0152L32.1486 44.6827L32.3848 44.359C32.6545 43.9835 33.0074 43.694 33.4173 43.4927L33.7936 43.309L34.1786 43.1165C34.6105 42.9051 35.0753 42.8146 35.5523 42.8452L35.9898 42.8715L36.4273 42.9065C36.6179 42.9187 36.7899 42.9049 36.9436 42.8715L37.7311 42.6965C38.1535 42.6047 38.5867 42.6038 39.0086 42.6877L39.4286 42.7752L39.7436 42.8277L40.0586 42.574L40.4261 42.2765C40.872 41.9097 41.4148 41.7155 42.0098 41.7515L42.9023 41.804C43.1121 41.8169 43.3099 41.8108 43.4973 41.7777L43.9173 41.699L44.3373 41.629C44.4659 41.6062 44.5876 41.5567 44.7048 41.4802L45.4223 41.0077C45.664 40.8501 45.9062 40.6958 46.1398 40.544L46.8398 40.089C47.0685 39.9403 47.3036 39.7837 47.5398 39.6252L47.8986 39.389L48.2573 39.144C48.3413 39.0876 48.4038 39.0217 48.4498 38.934L48.8523 38.164C48.9187 38.0362 48.9543 37.9054 48.9661 37.7702L49.0011 37.3415L49.0361 36.9215C49.073 36.4965 49.1886 36.0878 49.3773 35.7052L49.5698 35.3115L49.7623 34.9265C49.7459 34.9603 49.7631 34.9427 49.7711 34.839C49.7786 34.7369 49.7718 34.5805 49.7448 34.3665L49.6486 33.5702L49.6048 33.264L49.7361 32.984L49.7711 32.8877C50.0194 32.3212 50.6833 32.0619 51.2498 32.3102ZM38.2823 45.6627L38.2911 45.6452L38.3961 45.1815L38.4573 44.884C38.3673 44.8759 38.2874 44.8681 38.2123 44.884L37.8098 44.9715L37.4161 45.059C37.0438 45.1397 36.6633 45.1629 36.2786 45.1377L35.8411 45.1115L35.4123 45.0852C35.3142 45.0788 35.2323 45.0928 35.1586 45.129L34.7823 45.3127L34.3973 45.5052C34.3035 45.5519 34.2471 45.6045 34.2048 45.6627L33.9686 45.9952L33.7323 46.319L33.7148 46.3452L33.7236 46.7302L33.7411 47.1152C33.7446 47.2347 33.7678 47.358 33.8198 47.4915L33.8461 47.5702L34.1086 47.474C34.5047 47.322 34.9204 47.2335 35.3423 47.229H35.7448L36.1561 47.2202C36.1662 47.2201 36.1797 47.2207 36.1823 47.2202L36.1911 47.2115L36.5061 46.9577L36.8298 46.704C37.063 46.5183 37.3123 46.3315 37.5736 46.1527L38.2823 45.6627Z" fill="#FF4500"/>
<path d="M44.0034 32.4911C44.2237 32.5074 44.4404 32.5491 44.6492 32.6171L44.8854 32.6906L45.1164 32.7693C45.2567 32.815 45.399 32.8549 45.5417 32.8901L45.7832 32.9478L46.0194 33.0056C46.2057 33.0514 46.3958 33.1092 46.5812 33.1788L46.8227 33.2733L47.0642 33.3626C47.3418 33.4668 47.5798 33.6385 47.7624 33.8718L47.9199 34.0766L48.0827 34.2813C48.1948 34.4246 48.2984 34.5678 48.3977 34.7066L48.5394 34.9008L48.6812 35.1003C48.7347 35.1753 48.7859 35.2569 48.8282 35.3366C48.8496 35.3771 48.8757 35.4321 48.8964 35.4941C48.9143 35.5473 48.9482 35.6564 48.9384 35.7933L48.9332 35.8563L48.9279 35.9141C48.907 36.206 48.7252 36.3792 48.6234 36.4496C48.5232 36.5189 48.4206 36.5498 48.3662 36.5651C48.2513 36.5971 48.1244 36.6107 48.0197 36.6176L47.7467 36.6333L47.4684 36.6543C47.3834 36.66 47.3393 36.6809 47.3162 36.6963L47.1167 36.8276L46.9119 36.9641C46.7083 37.0994 46.4833 37.1918 46.2452 37.2476L46.0037 37.3053L45.7569 37.3631C45.5538 37.4107 45.3461 37.4417 45.1374 37.4523L44.8854 37.4628L44.6334 37.4786C44.3394 37.4935 44.0561 37.4265 43.7987 37.2896L43.5677 37.1688L43.3367 37.0428C43.2218 36.9816 43.1133 36.938 43.0164 36.9116L42.7907 36.8538L42.5649 36.7908C42.2493 36.7045 41.9943 36.511 41.8194 36.2448L41.6882 36.0401L41.5517 35.8353C41.4914 35.7439 41.4121 35.6515 41.3154 35.5571L41.1264 35.3681L40.9322 35.1791C40.6659 34.9186 40.5247 34.5681 40.5752 34.1763L40.6067 33.9243L40.6382 33.6776L40.7117 33.3993C40.7495 33.3058 40.8045 33.213 40.8797 33.1263C41.036 32.9465 41.2356 32.8493 41.4309 32.8113L41.6514 32.7693L41.8772 32.7273C42.0119 32.7012 42.1555 32.6703 42.3077 32.6328L42.5492 32.5698L42.7959 32.5121C43.0269 32.4553 43.2622 32.4317 43.4994 32.4491L44.0034 32.4911ZM43.1162 33.8141L42.8747 33.8771L42.6279 33.9348C42.4557 33.9772 42.2888 34.0142 42.1292 34.0451L41.9402 34.0766V34.0976L41.9192 34.2603L42.2552 34.5963C42.4147 34.7522 42.5566 34.9199 42.6752 35.1003L42.8117 35.3051L42.9324 35.4941L43.1477 35.5571L43.3734 35.6148C43.5768 35.6704 43.7744 35.7539 43.9667 35.8563L44.1977 35.9823L44.4287 36.1031C44.479 36.1299 44.5224 36.1368 44.5652 36.1346L44.8172 36.1241L45.0692 36.1083C45.1974 36.1018 45.3231 36.0849 45.4472 36.0558L45.9407 35.9403C46.0285 35.9197 46.1022 35.8882 46.1664 35.8458L46.3712 35.7093L46.5707 35.5781C46.7629 35.4502 46.9766 35.3786 47.1954 35.3418C47.1397 35.2668 47.083 35.1885 47.0222 35.1108L46.8647 34.9061L46.7019 34.7013C46.6712 34.6622 46.6377 34.6399 46.5917 34.6226L46.3502 34.5281L46.1087 34.4388C45.9701 34.3868 45.8314 34.3454 45.6992 34.3128L45.4629 34.2551L45.2214 34.1921C45.0467 34.1491 44.8731 34.1009 44.7017 34.0451L44.4654 33.9716L44.2344 33.8928C44.1305 33.859 44.0187 33.8384 43.9037 33.8298L43.6517 33.8088L43.3997 33.7931C43.3033 33.7862 43.2093 33.7912 43.1162 33.8141Z" fill="#FF4500"/>
<path d="M43.4134 32.8434C43.7091 32.6191 44.1341 32.679 44.3584 32.9747L44.4162 33.0534L44.5789 33.2634L44.5527 33.5259L44.5054 33.9407L44.5894 33.8829L44.5842 33.8987L44.7312 33.7884L44.7364 33.7779L44.8572 33.6939C44.8096 33.6475 44.7833 33.608 44.7784 33.6047L44.7942 33.5679L44.9044 33.5994C45.0118 33.6275 45.1072 33.6725 45.1932 33.7254L45.4242 33.9039L45.5239 34.0089L45.6237 34.1087C45.7001 34.1856 45.7949 34.3123 45.8337 34.4919C45.8748 34.6853 45.8343 34.8684 45.7602 35.0064C45.6384 35.231 45.4318 35.3427 45.3402 35.3897L44.9097 35.6102C44.7383 35.6976 44.5088 35.7597 44.2534 35.6994C43.9994 35.6394 43.8213 35.4811 43.7074 35.3319L43.5604 35.1377L43.4082 34.9434C43.1504 34.6052 43.1385 34.1757 43.1719 33.8357L43.1982 33.5889C43.1085 33.3232 43.1781 33.0226 43.4134 32.8434ZM44.7312 33.7884L44.5842 33.8987L44.5894 33.8829L44.7364 33.7779L44.7312 33.7884ZM44.7942 33.5679L44.7784 33.6047C44.7364 33.5765 44.6988 33.5559 44.6787 33.5469L44.6839 33.5417L44.7942 33.5679ZM44.6839 33.5417L44.6787 33.5469L44.6157 33.5259C44.6076 33.5233 44.6044 33.519 44.6104 33.5207C44.6223 33.524 44.6478 33.5323 44.6839 33.5417Z" fill="#FF4500"/>
<path d="M47.0134 2.80774C47.1719 2.24132 47.2168 1.87937 47.2848 1.78956L47.4209 1.44937C47.376 1.5868 47.3985 1.65416 47.4097 1.977C47.4209 2.86115 47.3978 3.49185 47.3641 3.68542C47.3297 4.24027 47.2036 5.75253 47.3532 6.6328C47.4209 7.03116 47.4253 7.44232 47.5005 7.89184C47.5345 8.09527 47.4813 9.27463 47.5686 10.8899C47.6026 11.5196 47.6586 11.7007 47.6934 11.9173C47.7611 12.3381 47.8719 12.7882 47.886 14.5969C47.8972 16.0407 47.8972 18.7125 47.8972 19.9559C47.8972 21.1993 47.8972 21.0197 47.9087 20.8952C47.9203 20.7706 47.9426 20.7033 47.9656 20.6118C48.0795 20.157 48.3716 19.219 48.4986 18.5251C48.5776 18.0941 48.6501 17.5926 48.7252 17.1531C48.8048 16.687 48.9237 16.051 48.9973 15.463C49.0314 15.1916 49.3271 14.2347 49.6335 12.9307C49.8485 12.0156 50.0071 11.3775 50.0859 10.9168C50.1424 10.5868 50.1826 10.0876 50.2788 9.6353C50.3465 9.31722 50.3793 8.99933 50.4261 8.65998C50.4826 8.25039 50.5425 7.65629 50.6871 6.93557C50.7779 6.48278 50.9392 5.89856 51.1409 5.04175C51.2773 4.46207 51.4896 3.73354 51.7195 3.04519C51.9808 2.2631 52.231 0.603317 52.5469 1.08673C52.5918 1.15545 52.5899 1.38423 52.6714 2.62029C52.7278 3.47689 52.7672 4.55789 52.8074 4.96589C52.8639 5.53842 53.0294 6.80129 53.0912 7.46252C53.2041 8.67087 53.2213 9.80414 53.1245 10.3184C53.0905 10.499 53.156 11.772 53.0565 13.5668C53 14.5847 52.9727 15.128 52.9204 15.4549C52.8639 15.808 52.7553 16.3934 52.7391 17.3603C52.7278 18.0301 52.7462 19.2656 52.7163 19.9287C52.6823 20.6822 52.687 20.8911 52.6482 21.0908C52.5686 21.5014 52.4437 22.0447 52.3761 22.4294C52.2965 22.8825 52.2298 24.5684 52.3084 25.7187C52.3659 26.5606 52.4502 27.3737 52.5241 27.9064C52.5918 28.3949 52.7013 28.8438 52.7166 29.8809C52.7278 30.6429 52.7278 32.0349 52.6931 32.7194C52.6584 33.4038 52.5911 33.3814 52.5227 33.3586C52.387 33.3134 52.248 33.2731 52.0798 33.1994C51.6147 32.9956 51.3112 32.8775 50.9912 32.7459C50.5493 32.5643 50.2156 32.4616 49.7668 32.2129C49.4607 32.0431 49.151 31.9355 48.1669 31.5209C47.7366 31.3396 47.4334 31.1331 46.8858 31.0681C46.3065 30.9994 45.85 30.909 45.3778 30.83C44.9022 30.7504 44.4788 30.7721 44.0405 30.6371C43.7455 30.5463 43.0831 30.7273 43.0546 30.3068C43.0216 29.8196 43.0503 28.362 43.1233 27.3016C43.1577 26.8029 43.4049 26.3843 43.5207 25.8163C43.6108 25.3741 43.6065 25.0529 43.6904 24.4443C43.7469 24.0351 43.7528 23.5355 43.8265 22.5954C43.883 21.8756 43.8575 20.9654 43.9857 20.3148C44.1551 19.4548 44.2312 18.9597 44.28 18.4118C44.3143 18.026 44.3708 17.6651 44.416 17.084C44.4735 16.3455 44.5751 15.7534 44.6998 15.1001C44.7906 14.6241 44.886 14.1267 45.0287 13.558C45.1539 13.0593 45.3649 12.1937 45.4594 11.5856C45.5159 11.2223 45.5239 10.8566 45.607 10.2119C45.72 9.33627 45.7353 8.65453 45.9731 7.55641C46.1581 6.70186 46.5342 5.13365 46.697 4.2981C46.8766 3.37619 46.9246 3.12494 47.0134 2.80774Z" fill="#FF4500"/>
<path d="M52.8113 0.32275C53.1763 0.416763 53.2945 0.731561 53.3153 0.79L53.3678 1.06825L53.394 1.36225L53.4203 1.651C53.4389 1.85748 53.4518 2.05515 53.457 2.239L53.4675 2.491L53.4728 2.743C53.4767 2.88478 53.4892 3.02706 53.5095 3.16825L53.583 3.67225C53.6109 3.86613 53.6271 4.06056 53.6303 4.255V4.507L53.6355 4.759C53.638 4.91255 53.6457 5.06651 53.6565 5.221L53.6723 5.473L53.6933 5.725C53.7055 5.89928 53.7129 6.0747 53.7195 6.25L53.7405 6.754C53.748 6.9511 53.743 7.1497 53.7248 7.34725L53.6985 7.6045L53.6775 7.8565C53.6647 7.9947 53.6603 8.13247 53.667 8.266L53.6775 8.518L53.6933 8.76475C53.6995 8.88761 53.7142 9.01761 53.7458 9.148L53.8718 9.652C53.9236 9.86633 53.9516 10.0862 53.9558 10.303L53.9663 10.7965C53.9709 11.0368 53.932 11.274 53.8613 11.5052L53.7878 11.7572L53.709 12.0092C53.6716 12.1316 53.6498 12.251 53.6408 12.3662L53.5988 12.8702C53.5861 13.0346 53.5787 13.1993 53.5673 13.3637L53.5463 13.6157L53.5305 13.8677C53.5203 14.0144 53.517 14.1614 53.52 14.3087L53.5305 14.8127C53.5343 14.9948 53.5336 15.177 53.5253 15.3587L53.5095 15.6107L53.499 15.8627C53.4907 16.0446 53.477 16.2273 53.457 16.4087L53.4308 16.6607L53.3993 16.9127C53.382 17.0695 53.3728 17.2277 53.3625 17.3852L53.3415 17.6372L53.3258 17.8892C53.3151 18.0539 53.3082 18.2185 53.2995 18.3827L53.2838 18.6347L53.2733 18.8867C53.2663 19.0189 53.2701 19.153 53.2838 19.2857L53.3363 19.7897C53.3574 19.9937 53.359 20.2001 53.3468 20.404L53.3153 20.908C53.3043 21.0903 53.2866 21.2722 53.2628 21.454L53.2313 21.706L53.1998 21.9527C53.1692 22.1851 53.1055 22.4133 53.0108 22.63L52.9005 22.8715L52.7955 23.1182C52.7772 23.1607 52.774 23.1928 52.7798 23.2285L52.827 23.4857L52.869 23.743C52.9092 23.9766 52.9136 24.2118 52.8848 24.4465L52.8533 24.6985L52.827 24.9505C52.8211 24.9988 52.8226 25.0513 52.848 25.1132L52.953 25.36L53.0528 25.6067C53.1516 25.8461 53.2037 26.0982 53.205 26.3575V26.6095L53.2103 26.8615C53.2108 27.0144 53.2152 27.1715 53.226 27.3235L53.2418 27.5702L53.2628 27.8222C53.275 27.993 53.2848 28.165 53.2943 28.3367L53.31 28.5887L53.3205 28.8407C53.3299 29.0103 53.3385 29.1811 53.3468 29.35L53.3625 29.602L53.373 29.854C53.3802 29.9982 53.3932 30.1442 53.415 30.2897L53.4518 30.5417L53.4938 30.7937C53.5372 31.085 53.5005 31.374 53.394 31.6442L53.2943 31.891L53.1945 32.143C53.152 32.251 53.1321 32.3467 53.1263 32.4317L53.1105 32.6785L53.0948 32.92C53.0857 33.0595 53.053 33.2479 52.9425 33.424C52.8164 33.6246 52.6148 33.7623 52.3755 33.8072L52.218 33.8387L52.0658 33.865C51.8027 33.9141 51.5452 33.8615 51.336 33.7915L51.0945 33.7127L50.8583 33.634C50.5891 33.5438 50.3543 33.3893 50.16 33.1877L49.971 32.9882L49.7873 32.8045L49.53 32.8097H49.2518C48.9068 32.811 48.5835 32.6934 48.3225 32.458L48.123 32.2795L47.9288 32.101C47.854 32.0336 47.7763 31.9845 47.6978 31.954L47.4615 31.8647L47.2253 31.7702C47.1572 31.7438 47.0845 31.7347 47.0048 31.7387L46.7475 31.7492L46.485 31.765C46.2329 31.7778 45.9849 31.7429 45.7448 31.6652L45.498 31.5865L45.2565 31.5077C45.1093 31.4601 44.962 31.4192 44.8155 31.3817L44.5688 31.3187L44.3273 31.2557C44.2785 31.2434 44.2075 31.2399 44.1068 31.261L43.8285 31.3187L43.545 31.3765C43.3619 31.4144 43.0515 31.4318 42.7785 31.2137C42.508 30.9975 42.4542 30.6931 42.4478 30.5102L42.4373 30.2162L42.4268 29.9275C42.4198 29.7271 42.4164 29.5369 42.4163 29.3605V28.8565C42.416 28.7332 42.4041 28.6073 42.3795 28.4785L42.3323 28.2212L42.2798 27.9692C42.2176 27.645 42.2684 27.3231 42.4215 27.0347L42.5475 26.8037L42.6735 26.5675C42.7302 26.4607 42.7694 26.3538 42.7943 26.2472L42.852 25.9952L42.9098 25.7485C42.9451 25.5964 42.9732 25.4439 42.999 25.2917L43.0463 25.0397L43.0883 24.793C43.1186 24.6139 43.1522 24.4317 43.1933 24.2522L43.251 24.0055L43.3088 23.7535C43.3136 23.7324 43.3163 23.7008 43.293 23.6432L43.188 23.386L43.083 23.1235C42.9497 22.7929 42.9434 22.4364 43.0883 22.0997L43.1933 21.8582L43.2983 21.6115C43.3285 21.5413 43.3389 21.4817 43.335 21.4277L43.314 21.1757L43.2983 20.9237C43.2773 20.6422 43.3261 20.3667 43.44 20.11L43.65 19.6375V19.627C43.6501 19.6251 43.6507 19.6158 43.6448 19.5955L43.566 19.3277L43.4925 19.0652C43.3875 18.7081 43.4331 18.3451 43.6238 18.0257L43.7655 17.7842L43.9073 17.548C43.938 17.4964 43.9403 17.4651 43.9388 17.443L43.923 17.191L43.902 16.9337C43.8887 16.7359 43.8904 16.5368 43.902 16.3405L43.9178 16.0885L43.9335 15.8417C43.944 15.6648 43.9576 15.4833 43.9755 15.3062L43.9965 15.0542L44.0228 14.8022C44.05 14.5367 44.1362 14.2869 44.2695 14.0567L44.4008 13.8257L44.532 13.6C44.57 13.5345 44.5906 13.4706 44.595 13.4057L44.6108 13.1537L44.6265 12.8965C44.6423 12.6664 44.6921 12.4423 44.7683 12.2245L44.8523 11.983L44.9363 11.7362C44.942 11.7194 44.946 11.6967 44.931 11.647L44.8523 11.3845L44.7735 11.1167C44.6772 10.7953 44.6886 10.4597 44.826 10.1455L44.9363 9.904L45.0413 9.6625C45.0921 9.54622 45.1255 9.43243 45.1463 9.32125L45.1935 9.0745L45.2408 8.8225C45.2625 8.70433 45.2692 8.58371 45.267 8.46025L45.2618 8.203V7.94575C45.2577 7.72217 45.2797 7.5015 45.33 7.28425L45.3878 7.0375L45.4403 6.79075C45.4884 6.58329 45.5619 6.38254 45.6503 6.187L45.7553 5.95075L45.8603 5.71975C45.9025 5.62621 45.9279 5.52885 45.939 5.431L45.9705 5.179L45.9968 4.927C46.0115 4.79723 46.0141 4.66442 46.0073 4.528L45.9968 4.2655L45.981 4.00825C45.9661 3.71375 46.0319 3.4284 46.17 3.16825L46.2908 2.93725L46.4168 2.70625C46.4641 2.61735 46.4922 2.5282 46.506 2.4385L46.5428 2.1865L46.5848 1.93975C46.6 1.8408 46.6182 1.73563 46.6478 1.6405C46.6671 1.57845 46.726 1.38887 46.8893 1.2415L46.947 1.189L46.9995 1.14175C47.0308 1.11364 47.0958 1.0624 47.1885 1.021C47.282 0.979254 47.4654 0.923382 47.682 0.99475C47.905 1.06851 48.0225 1.23096 48.0758 1.336C48.1257 1.43471 48.1436 1.52319 48.1493 1.567C48.1676 1.71106 48.1386 1.85487 48.1283 1.90825L48.0915 2.1025L48.0548 2.2915C48.0493 2.32087 48.0417 2.38795 48.06 2.5015L48.144 3.0055C48.1772 3.21112 48.1934 3.41842 48.1913 3.625L48.186 3.877V4.129C48.184 4.32357 48.1689 4.51915 48.144 4.71175L48.1125 4.9585L48.081 5.2105C48.0595 5.37708 48.0349 5.5453 48.0128 5.7145L47.9498 6.2185C47.9339 6.34003 47.9291 6.46262 47.9393 6.58075L47.9603 6.83275L47.9813 7.0795C47.9889 7.1675 48.0146 7.26515 48.06 7.36825L48.2805 7.86175C48.4065 8.14757 48.445 8.45787 48.3803 8.77L48.3278 9.022L48.27 9.274C48.2439 9.39907 48.2346 9.52458 48.2333 9.64675L48.228 9.89875V10.1507C48.2261 10.3524 48.2075 10.5569 48.1755 10.7597L48.1335 11.017L48.0915 11.2795C48.0857 11.3183 48.0942 11.3495 48.1125 11.3897L48.2228 11.6312L48.3278 11.8727C48.4351 12.1075 48.4999 12.355 48.5115 12.613L48.522 12.865L48.5325 13.1222C48.5411 13.3203 48.5349 13.5179 48.5168 13.7155L48.4958 13.9675L48.48 14.1512C48.5346 14.058 48.5924 13.9666 48.6638 13.8835L48.8475 13.6682L48.9998 13.4897L48.963 13.2587L48.9105 12.9857C48.8555 12.6855 48.8807 12.3811 49.005 12.0932L49.11 11.857L49.2098 11.6207C49.2613 11.5018 49.3023 11.3814 49.3305 11.2585L49.3883 11.0117L49.4408 10.765C49.4735 10.6223 49.5006 10.4791 49.5195 10.3345L49.551 10.0825L49.5878 9.83575C49.6116 9.65322 49.6397 9.47051 49.677 9.28975L49.7295 9.043L49.782 8.791C49.8018 8.69396 49.8075 8.59282 49.7978 8.4865L49.7715 8.22925L49.7505 7.972C49.7233 7.67815 49.7705 7.38718 49.8975 7.1215L50.013 6.8905L50.1233 6.65425C50.1782 6.5394 50.2175 6.42185 50.244 6.30775L50.3018 6.06625L50.3595 5.8195C50.396 5.6626 50.4326 5.50526 50.4645 5.347L50.5118 5.10025L50.5643 4.8535C50.6022 4.66567 50.6486 4.47945 50.706 4.297L50.7795 4.0555L50.8583 3.81925C50.9163 3.63486 50.9831 3.45113 51.063 3.27325L51.168 3.037L51.273 2.806C51.3129 2.71739 51.3417 2.6255 51.3518 2.52775L51.3728 2.2705L51.399 2.0185C51.427 1.74227 51.5229 1.47976 51.6615 1.2415L51.8033 0.99475L51.9503 0.748L52.1235 0.517C52.1734 0.467913 52.4294 0.224482 52.8113 0.32275ZM43.7603 29.3605C43.7604 29.5195 43.7643 29.6929 43.7708 29.8802V29.9537L43.8338 29.9432C44.1058 29.8864 44.3842 29.8843 44.658 29.9537L44.9048 30.0167L45.1463 30.0797C45.3217 30.1246 45.4966 30.1754 45.6713 30.232L45.9128 30.3107L46.1595 30.3895C46.241 30.4156 46.3256 30.4256 46.4168 30.421L46.674 30.4052L46.9365 30.3947C47.2017 30.3813 47.4604 30.4245 47.7083 30.5207L47.9498 30.61L48.186 30.7045C48.4234 30.797 48.6371 30.9327 48.8265 31.1035L49.2255 31.4605H49.2308C49.2336 31.4609 49.2384 31.4658 49.2465 31.4657H49.5248L49.7978 31.4605C50.0697 31.4595 50.3257 31.5371 50.5433 31.6862L50.7533 31.8647L50.937 32.059L51.126 32.2532C51.1824 32.3118 51.2352 32.342 51.2835 32.3582L51.5198 32.437L51.7613 32.521H51.7665L51.7823 32.3477C51.7978 32.1093 51.8563 31.8746 51.945 31.6495L52.0448 31.3975L52.1393 31.1507C52.1641 31.0877 52.1719 31.0375 52.1655 30.9932L52.1235 30.7412L52.0868 30.4892C52.0583 30.2994 52.0384 30.1072 52.029 29.917L52.008 29.413C51.9999 29.2474 51.991 29.0805 51.9818 28.9142L51.9503 28.4102L51.903 27.67L51.8873 27.418C51.8743 27.2357 51.8669 27.0499 51.8663 26.8667L51.861 26.6147V26.3627C51.8605 26.2876 51.8448 26.209 51.8085 26.1212L51.609 25.6277C51.4991 25.3615 51.4528 25.0768 51.4883 24.7877L51.5513 24.2837C51.5639 24.1813 51.5644 24.0752 51.546 23.9687L51.4988 23.7167L51.4568 23.4595C51.4044 23.1563 51.4446 22.857 51.567 22.5775L51.672 22.336L51.777 22.0892C51.8234 21.983 51.853 21.8801 51.8663 21.7795L51.8978 21.5275L51.9345 21.2807C51.9544 21.1294 51.9674 20.9753 51.9765 20.824L51.9923 20.572L52.008 20.3252C52.0158 20.1952 52.0111 20.0631 51.9975 19.9315L51.945 19.4275C51.9241 19.2251 51.9186 19.0212 51.9293 18.8185L51.945 18.5665L51.9555 18.3145C51.9645 18.1439 51.9759 17.9709 51.987 17.8L52.0185 17.296C52.0301 17.1188 52.0464 16.9421 52.0658 16.7657L52.092 16.5137L52.1235 16.2617C52.1404 16.1087 52.148 15.9529 52.155 15.7997L52.1708 15.553L52.1813 15.301C52.1883 15.1484 52.1897 14.992 52.1865 14.839L52.176 14.335C52.1722 14.1476 52.1787 13.96 52.1918 13.7732L52.2075 13.5212L52.2233 13.2745C52.235 13.1056 52.247 12.934 52.26 12.7652L52.281 12.5132L52.302 12.2665C52.3189 12.0479 52.3576 11.8283 52.4228 11.6155L52.5803 11.1115C52.6116 11.0083 52.624 10.9124 52.6223 10.8227L52.6118 10.3292C52.6096 10.216 52.5942 10.0955 52.5645 9.97225L52.5015 9.715L52.4438 9.463C52.3934 9.25486 52.3599 9.04311 52.3493 8.833L52.3388 8.58625L52.323 8.33425C52.313 8.13558 52.3202 7.93609 52.3388 7.73575L52.3598 7.4785L52.386 7.2265C52.399 7.08584 52.4017 6.94527 52.3965 6.8065L52.3755 6.3025C52.3694 6.14166 52.3605 5.97921 52.3493 5.8195L52.3178 5.3155C52.3052 5.13666 52.2943 4.95828 52.2915 4.78L52.2863 4.528V4.276C52.2843 4.15735 52.27 4.03873 52.2548 3.919C52.2129 4.01947 52.1714 4.12133 52.1393 4.2235L52.0658 4.45975L51.987 4.70125C51.9442 4.83722 51.9104 4.97572 51.882 5.116L51.8295 5.368L51.7823 5.61475C51.7478 5.78534 51.7061 5.95479 51.6668 6.124L51.6143 6.37075L51.5565 6.61225C51.507 6.82485 51.4313 7.03235 51.336 7.23175L51.2258 7.468L51.1103 7.70425C51.0875 7.75235 51.0794 7.79603 51.084 7.846L51.1365 8.3605C51.1584 8.59656 51.1422 8.83272 51.0945 9.064L51.042 9.31075L50.9948 9.56275C50.9642 9.71089 50.9355 9.85976 50.916 10.009L50.8845 10.2557L50.853 10.5077C50.8286 10.6947 50.7954 10.8802 50.7533 11.0642L50.6378 11.5577C50.5909 11.7623 50.5274 11.9626 50.4435 12.1562L50.3438 12.3925L50.2388 12.6287C50.2288 12.6527 50.2226 12.6852 50.2335 12.7442L50.2808 13.0172L50.3333 13.2902C50.4031 13.673 50.2999 14.0374 50.0498 14.3297L49.6823 14.7602C49.6288 14.8229 49.603 14.8751 49.593 14.923L49.5405 15.175L49.488 15.4322C49.4653 15.5424 49.4605 15.6528 49.467 15.763L49.4828 16.0202L49.4933 16.2722C49.5041 16.4547 49.513 16.6415 49.5143 16.8235V17.0755L49.5195 17.3327C49.521 17.541 49.5013 17.7476 49.467 17.9522L49.425 18.2042L49.383 18.451C49.3537 18.6253 49.3194 18.8014 49.2833 18.976L49.236 19.228L49.1835 19.48C49.1265 19.7555 49.0035 20.0061 48.8318 20.2255L48.6638 20.4407L48.5903 20.5247C48.5881 20.5347 48.5926 20.5466 48.5903 20.5562C48.5808 20.5951 48.5619 20.6763 48.5168 20.761C48.4942 20.8033 48.4436 20.88 48.3593 20.9552C48.2677 21.0368 48.1085 21.1377 47.892 21.1337L47.8553 21.1285H47.8185C47.7364 21.1268 47.6111 21.1111 47.4825 21.034C47.3425 20.9491 47.2479 20.8216 47.199 20.6927C47.1183 20.4801 47.1684 20.2969 47.178 20.2622C47.2075 20.1571 47.2583 20.0754 47.2725 20.0522C47.2838 20.0339 47.2962 20.0137 47.3093 19.9945L47.3198 19.8895L47.346 19.6375C47.3574 19.5231 47.357 19.4062 47.3408 19.291L47.2673 18.787C47.2377 18.576 47.228 18.3638 47.241 18.1517L47.2725 17.6477C47.278 17.5594 47.2689 17.4663 47.241 17.3695L47.1728 17.1175L47.0993 16.8655C47.0042 16.5355 47.0356 16.2042 47.1728 15.8995L47.283 15.6475L47.3985 15.3955L47.4038 15.385L47.3198 15.133L47.2305 14.881C47.1439 14.6284 47.1115 14.3657 47.136 14.0987L47.157 13.8467L47.1833 13.5947C47.196 13.4569 47.1946 13.3178 47.1885 13.18L47.1675 12.676C47.1641 12.5977 47.1486 12.5143 47.1098 12.4292L46.9995 12.193L46.8893 11.9515C46.7619 11.673 46.7208 11.3731 46.7685 11.0695L46.8053 10.8122L46.8473 10.5497C46.8693 10.4097 46.8828 10.2734 46.884 10.1402V9.88825L46.8893 9.63625C46.8913 9.4233 46.9136 9.21119 46.9575 9.001L47.0625 8.497C47.0673 8.47415 47.0657 8.45118 47.0468 8.40775L46.9365 8.15575L46.8315 7.909C46.7598 7.74641 46.7115 7.57731 46.6793 7.405L46.6373 7.58875C46.6123 7.69717 46.5983 7.81042 46.6005 7.92475L46.6058 8.17675L46.611 8.434C46.615 8.64804 46.5974 8.85974 46.5585 9.06925L46.5165 9.316L46.4693 9.56275C46.4289 9.78072 46.36 9.99696 46.2698 10.2032L46.0598 10.6862C46.0573 10.6918 46.0549 10.6952 46.0545 10.6967C46.0545 10.6976 46.0535 10.7128 46.0598 10.7335L46.1385 10.996L46.2225 11.2585C46.313 11.5598 46.3137 11.8767 46.2068 12.1825L46.1228 12.424L46.0335 12.6655C45.9968 12.7703 45.9781 12.8809 45.9705 12.991L45.9548 13.243L45.9338 13.5002C45.9149 13.775 45.8347 14.0345 45.6975 14.272L45.5663 14.503L45.4298 14.7287C45.3879 14.801 45.3686 14.8702 45.3615 14.9387L45.309 15.4427C45.293 15.6014 45.2817 15.7622 45.2723 15.9205L45.2565 16.1725L45.2408 16.4192C45.2325 16.5582 45.2365 16.7022 45.246 16.8445L45.2618 17.0965L45.2775 17.3537C45.2988 17.6711 45.2202 17.9705 45.0623 18.2357L44.9205 18.4772L44.7788 18.6925L44.8575 18.9497L44.9363 19.2175C45.0291 19.535 45.0167 19.8655 44.8785 20.1782L44.7735 20.4197L44.6685 20.656C44.6424 20.7152 44.6329 20.7692 44.637 20.824L44.658 21.076L44.6738 21.328C44.6947 21.6101 44.6479 21.8846 44.5373 22.1417L44.427 22.3885L44.3273 22.6195L44.4323 22.882L44.5373 23.1392C44.654 23.428 44.6877 23.7396 44.616 24.0527L44.5005 24.5567C44.4653 24.7107 44.4371 24.8663 44.4113 25.0187L44.3693 25.2655L44.3273 25.5175C44.2969 25.6966 44.2585 25.8748 44.217 26.053L44.1593 26.2997L44.1015 26.5517C44.0492 26.7761 43.9691 26.9921 43.86 27.1975L43.734 27.4337L43.608 27.6647C43.601 27.6781 43.5983 27.6872 43.5975 27.691C43.5972 27.6928 43.6007 27.7003 43.6028 27.712L43.6973 28.2265C43.7373 28.4359 43.76 28.6459 43.7603 28.8565V29.3605Z" fill="#FF4500"/>
<path d="M9.65342 41.557C9.95949 41.4052 10.298 41.3491 10.6466 41.3908L11.0098 41.4378L11.311 41.4763C11.3677 41.4692 11.425 41.4634 11.4814 41.4556L11.6097 41.4417L11.8947 41.323L12.2106 41.1865C12.5141 41.0578 12.8323 40.9817 13.1615 40.9608L13.5089 40.9392L13.8497 40.9199C13.8666 40.9189 13.8917 40.916 13.938 40.8753L14.2158 40.626L14.4892 40.3857L14.8003 40.1695C15.0147 40.0506 15.2474 39.9791 15.4922 39.9649L15.8686 39.9853L16.2364 40.0456L16.5952 40.1014C16.6853 40.1158 16.7401 40.1069 16.7767 40.0917L17.086 39.9575L17.4019 39.821C17.6429 39.7178 17.8904 39.6341 18.1423 39.563L18.7878 39.3741C19.0051 39.3128 19.2271 39.2563 19.4444 39.1961L19.7671 39.1017L20.0921 39.0138C20.4191 38.9235 20.7546 38.9005 21.0923 38.9339L21.4422 38.9633L21.7943 38.9993C21.8927 39.009 21.9745 39.0003 22.051 38.9715L22.6918 38.7251C22.9914 38.6105 23.3027 38.5434 23.6228 38.5282L23.957 38.5111L24.3 38.4985C24.3654 38.495 24.4435 38.4741 24.5387 38.4177L25.1657 38.0429C25.4684 37.8635 25.8064 37.775 26.1518 37.7904L26.5017 37.8419L26.8408 37.9266L27.1865 38.0091C27.3287 38.0438 27.4659 38.0555 27.5984 38.0471L27.9392 38.0278L28.2778 38.0019C28.4204 37.9929 28.5602 37.9685 28.6936 37.9202L29.0096 37.8059L29.3323 37.6893C29.6092 37.5891 29.8945 37.5163 30.1857 37.4817L30.8539 37.4033C31.13 37.3706 31.4086 37.3618 31.6883 37.3795L32.0293 37.4045L32.377 37.4272C32.5102 37.4355 32.6388 37.4247 32.7642 37.3922L33.0892 37.3044L33.4231 37.2209C33.5814 37.1797 33.7349 37.1166 33.8871 37.0417L34.5099 36.7422C34.8406 36.5796 35.1966 36.4955 35.5647 36.496L36.2598 36.4972C36.3042 36.4967 36.4717 36.4694 36.8123 36.3175L37.3845 36.0648L37.4751 36.0267L37.5702 36.0019L37.6675 35.9838C38.1504 35.8833 38.626 36.1918 38.7288 36.6739C38.8244 37.1311 38.5451 37.5631 38.1071 37.6973L38.1159 37.7017L37.5438 37.9544C37.1242 38.1415 36.6747 38.2886 36.2526 38.2881L35.5575 38.2868C35.463 38.287 35.378 38.3055 35.2966 38.3456L34.9874 38.502L34.676 38.6518C34.4164 38.7793 34.1476 38.8822 33.8694 38.9543L33.5422 39.0355L33.2105 39.1256C32.8994 39.206 32.5779 39.2325 32.2569 39.212L31.9181 39.1936L31.5771 39.1686C31.403 39.1575 31.2325 39.1668 31.0658 39.1865L30.3977 39.2649C30.244 39.2831 30.0901 39.3211 29.94 39.3754L29.624 39.4898L29.3013 39.6064C29.0078 39.7125 28.7018 39.7769 28.3902 39.7966L27.7086 39.8352C27.3882 39.8553 27.0695 39.8279 26.7563 39.751L26.0782 39.5815L26.0804 39.5882L25.7669 39.7755L25.4512 39.9563C25.2968 40.0478 25.1316 40.1185 24.963 40.1733C25.0491 40.1914 25.1399 40.197 25.2245 40.2252L25.5593 40.341L25.8918 40.4501C25.8966 40.4489 25.9119 40.4445 25.925 40.4389L26.2718 40.2846L26.6209 40.1368C26.9701 39.9824 27.3403 39.943 27.7006 40.03L28.0532 40.1545L28.3815 40.3168L28.7165 40.4769C28.7684 40.5019 28.7915 40.5004 28.8118 40.4963L29.1568 40.4239L29.4951 40.3537C29.6439 40.323 29.7988 40.2742 29.9526 40.1989L30.2751 40.038L30.6042 39.8749C30.916 39.7222 31.2517 39.6293 31.6013 39.6112L31.9199 39.5921L32.2409 39.5795C32.5236 39.565 32.8106 39.5807 33.1 39.6286L33.4522 39.6868L33.8067 39.7515C33.8865 39.7648 33.9443 39.7526 33.9925 39.733L34.3041 39.6053L34.6222 39.4755C34.8833 39.3694 35.1516 39.2875 35.4269 39.2327L35.7586 39.1647L36.0837 39.099C36.3696 39.042 36.6619 39.0182 36.9533 39.0264L37.2898 39.0381L37.5798 39.0434L37.9781 38.9973C38.4046 38.9402 38.7847 39.1961 38.9238 39.5861L39.509 40.2453L38.3758 40.7397L38.336 40.7532C38.1868 40.8186 38.0433 40.835 38.0242 40.8366C37.9744 40.8413 37.9194 40.8408 37.8782 40.8417C37.7941 40.8434 37.6906 40.8441 37.5749 40.8409L36.9018 40.8174C36.7451 40.813 36.5887 40.8266 36.435 40.8572L36.1099 40.9229L35.7781 40.9909C35.6145 41.0235 35.4517 41.0684 35.294 41.1326L34.9825 41.2602L34.6643 41.3901C34.2938 41.5408 33.9049 41.5772 33.516 41.5127L32.8116 41.3964C32.6334 41.3668 32.4702 41.3604 32.3289 41.3677L32.0102 41.3869L31.6893 41.3994C31.6136 41.4038 31.5162 41.4247 31.393 41.4849L30.7349 41.8112C30.4531 41.9489 30.1562 42.0472 29.853 42.1097L29.1763 42.2501C28.7439 42.3391 28.3185 42.2756 27.9315 42.0876L27.6031 41.9253L27.3125 41.7872L26.9966 41.9237L26.6498 42.078C26.2321 42.262 25.7778 42.2978 25.3286 42.1484L24.9894 42.0415L24.6546 41.9257C24.5719 41.8981 24.5069 41.895 24.4487 41.9067L24.1236 41.9724L23.7918 42.0404C23.6123 42.0767 23.4299 42.1244 23.2502 42.1868L22.9275 42.3034L22.6026 42.4134C22.2669 42.5299 21.9149 42.5766 21.5606 42.5444L21.224 42.5105L20.883 42.4855C20.6496 42.4643 20.4163 42.4386 20.1854 42.4113L19.8531 42.3686L19.5142 42.3281C19.4517 42.3211 19.3837 42.3291 19.2975 42.3645L18.6346 42.6332C18.2603 42.787 17.8613 42.8384 17.4598 42.7648L17.1208 42.7022L16.7796 42.633C16.6416 42.6077 16.5103 42.6089 16.3856 42.6259L15.7219 42.7176C15.5769 42.7374 15.4306 42.7762 15.2886 42.8347L14.9704 42.9645L14.6589 43.0922C14.2986 43.2405 13.916 43.288 13.5328 43.2369L13.1762 43.1876L12.8285 43.1427C12.6724 43.1218 12.5281 43.1236 12.3924 43.1425L12.0606 43.1883L11.8769 43.2135C11.7491 43.2404 11.6223 43.2516 11.492 43.2552C11.3338 43.2745 11.1759 43.2987 11.0163 43.3127L10.68 43.3453L10.3414 43.3712C10.2559 43.3787 10.2188 43.3969 10.211 43.4006L9.77845 43.6948C9.74363 43.7184 9.70189 43.7409 9.66808 43.7617C9.65873 43.7674 9.64372 43.7809 9.62615 43.7907C9.61923 43.7945 9.56564 43.8234 9.49803 43.8488C9.48603 43.8535 9.35292 43.9066 9.17732 43.9056C9.09096 43.905 8.82975 43.8914 8.59189 43.6826C8.30638 43.4309 8.27338 43.0996 8.2939 42.9114C8.31199 42.7485 8.37022 42.6312 8.39203 42.59C8.42003 42.5372 8.44886 42.498 8.46455 42.4767C8.49529 42.4353 8.51823 42.4009 8.53055 42.3879C8.58931 42.3261 8.66826 42.2699 8.67386 42.2655L9.07974 41.9581L9.35985 41.7377L9.65342 41.557Z" fill="#FF4500"/>
</svg>
