<svg width="113" height="92" viewBox="0 0 113 92" fill="none" xmlns="http://www.w3.org/2000/svg">
<path d="M76.8748 38.336H71.9307V33.9188H74.1393V31.7102H71.9307V27.293H76.8748V29.5016H79.0834V31.7102H81.292V33.9188H79.0834V36.1274H76.8748V38.336Z" fill="#FF4500"/>
<path d="M88.7298 25.0832V20.666H86.5212H84.3126V22.8746H82.104V25.0832H79.8954V27.2918H77.6869V29.5004H75.4782V31.709H73.2696V33.9176H75.4782V36.1262H77.6869V38.3348H79.8954V40.5434H82.104V42.752H84.3126V44.9606H86.5212H88.7305L88.7298 40.5434V25.0832Z" fill="#FF4500"/>
<path d="M95.3281 24.7793V26.1719H93.9346V28.957H92.5498V30.3496H91.1572V35.2744H92.5498V36.668H93.9346V39.4531H95.3281V40.8457H97.4668V38.7061H96.0742V37.3135H94.6885V34.5283H93.2959V33.1357H91.9033V32.4893H93.2959V31.0967H94.6885V28.3115H96.0742V26.918H97.4668V24.7793H95.3281Z" fill="#FF4500" stroke="#FF4500" stroke-width="0.746542"/>
<path d="M103.052 23.1729V24.8447H101.381V28.1875H99.7178V29.8584H98.0469V35.7676H99.7178V37.4395H101.381V40.7822H103.052V42.4531H105.619V39.8857H103.947V38.2148H102.285V34.8721H100.613V33.2012H98.9424V32.4258H100.613V30.7539H102.285V27.4111H103.947V25.7402H105.619V23.1729H103.052Z" fill="#FF4500" stroke="#FF4500" stroke-width="0.895851"/>
<path d="M46.2893 29.489L46.6918 29.6727L47.1031 29.8565C47.3355 29.9611 47.563 30.0477 47.7856 30.119L48.1881 30.2502L48.5818 30.3815C48.8797 30.4768 49.1768 30.5835 49.4656 30.7052L49.8593 30.8715L50.2443 31.029C50.5438 31.1553 50.8426 31.3014 51.1368 31.4665L51.5218 31.6852L51.9156 31.904C52.442 32.1994 52.7963 32.6709 52.9568 33.2427L53.0881 33.689L53.2106 34.1265C53.2155 34.1439 53.2166 34.1565 53.2193 34.1615C53.22 34.1624 53.2316 34.1725 53.2543 34.1877L53.6393 34.4502L54.0243 34.704C54.4083 34.9582 54.6908 35.3065 54.8468 35.7277L54.9606 36.174L55.0218 36.6115L55.0918 37.0577C55.1274 37.3044 55.1785 37.54 55.2406 37.7665L55.3543 38.1865L55.4681 38.5977C55.6098 39.1137 55.57 39.6364 55.3718 40.129L55.2143 40.5402L55.0656 40.8727L55.2231 41.1877L55.4156 41.564C55.5602 41.8546 55.6838 42.1552 55.7918 42.4565L55.9318 42.8502L56.0718 43.2352C56.1442 43.4371 56.2381 43.633 56.3431 43.8215L56.5443 44.189L56.7456 44.5477C56.8495 44.7342 56.9691 44.9121 57.1043 45.0815L57.3668 45.414L57.6293 45.7377C57.8745 46.0444 58.0702 46.3865 58.2156 46.7527L58.3731 47.1465L58.5306 47.549C58.5721 47.6531 58.6358 47.7413 58.7231 47.8202L59.0381 48.109L59.3618 48.3977C59.6135 48.6252 59.8475 48.8673 60.0618 49.124L60.6043 49.7715C60.8709 50.0911 61.0683 50.4553 61.2081 50.8477L61.3568 51.2502L61.5056 51.6615C61.5251 51.7161 61.5505 51.7572 61.6106 51.8015L62.3281 52.3265C62.6548 52.5652 62.9412 52.8501 63.1768 53.1752L63.6668 53.8402C63.8346 54.0717 64.0014 54.3105 64.1656 54.549L64.4018 54.899L64.6381 55.2402C64.7464 55.3975 64.8763 55.5463 65.0231 55.6777L65.3381 55.9577L65.6531 56.2465C65.9512 56.5135 66.2058 56.8193 66.4056 57.1652L66.6156 57.5327L66.8256 57.8915C66.9992 58.1924 67.1465 58.5153 67.2718 58.854L67.4293 59.2827L67.5256 59.554L67.8493 59.624L68.3043 59.7202C68.8939 59.8455 69.3896 60.1795 69.7218 60.6915L69.9756 61.0765L70.2206 61.4615C70.2891 61.5672 70.3544 61.6242 70.4131 61.654L70.7893 61.8377L71.1656 62.0302C71.329 62.1129 71.5162 62.1838 71.7256 62.2315L72.1718 62.3277L72.6093 62.424C73.0848 62.5319 73.5153 62.7567 73.8781 63.089L74.2018 63.3777L74.5168 63.6752C74.8437 63.9746 75.1002 64.3323 75.2868 64.734L75.4793 65.1452L75.6718 65.5477C75.7079 65.6253 75.7407 65.658 75.7768 65.679L76.1443 65.889L76.5118 66.1077C76.7874 66.2675 77.0602 66.442 77.3168 66.624L77.6581 66.8602L77.9993 67.1052C78.2572 67.2881 78.505 67.484 78.7431 67.6915L79.0581 67.9715L79.3818 68.2427C79.5854 68.4202 79.7932 68.6021 80.0031 68.7765L80.6506 69.319C80.89 69.5179 81.1216 69.7236 81.3418 69.9402L81.6393 70.2377L81.9456 70.5265C82.0062 70.5861 82.0814 70.639 82.1993 70.6752L83.0568 70.9377C83.4679 71.0621 83.8495 71.2562 84.1856 71.524L84.5093 71.7865L84.8418 72.049C84.9273 72.1169 85.0266 72.16 85.1481 72.189L85.5681 72.294L85.9881 72.3902C86.4871 72.5074 86.9247 72.7652 87.2743 73.134L87.5806 73.449L87.8868 73.7727C88.0346 73.9286 88.1864 74.0554 88.3418 74.1577L88.6918 74.3852L89.0331 74.6215C89.3226 74.8122 89.5958 75.0278 89.8468 75.269L90.1531 75.5577L90.4506 75.8465C90.752 76.136 90.9958 76.4757 91.1768 76.8527L91.3693 77.2465L91.5531 77.6402C91.7438 78.0386 91.8551 78.4664 91.8681 78.909L91.8856 79.749C91.8998 80.2331 91.7889 80.7004 91.5531 81.1227L91.3431 81.499L91.1418 81.8665C90.9383 82.2305 90.6739 82.5523 90.3543 82.8202L90.0306 83.0827L89.7068 83.354C89.5273 83.5046 89.3567 83.6695 89.1906 83.844L88.8931 84.159L88.5956 84.4652C88.3194 84.7553 88.0024 84.9961 87.6506 85.1915L87.2656 85.4102L86.8806 85.6202C86.491 85.8364 86.0663 85.9766 85.6206 86.014L84.7806 86.084C84.5764 86.1011 84.3777 86.1317 84.1856 86.189L83.3806 86.434C82.8676 86.5866 82.343 86.5567 81.8493 86.3552L81.4556 86.1977L81.0706 86.0402C80.7137 85.8944 80.3811 85.6951 80.0906 85.4452L79.8106 85.209L79.5306 84.964C79.2967 84.7628 79.0669 84.5322 78.8481 84.2815L78.5681 83.9577L78.2793 83.634C78.0542 83.3759 77.8557 83.1068 77.6843 82.829L77.4831 82.4965L77.2731 82.1727C77.2444 82.1262 77.2118 82.0796 77.1418 82.0415L76.7831 81.8577L76.4331 81.6652C76.264 81.5736 76.0871 81.5007 75.9081 81.4465L75.5231 81.324L75.1468 81.2102C74.6063 81.0472 74.1853 80.6983 73.9131 80.2215L73.7031 79.8627L73.5018 79.504C73.4201 79.3605 73.3151 79.2245 73.1868 79.1015L72.8806 78.804L72.5743 78.5152C72.3872 78.3359 72.1908 78.1618 71.9968 77.999L71.6818 77.7277L71.3581 77.4652C71.1325 77.2759 70.9116 77.0794 70.6931 76.879L70.3868 76.5902L70.0718 76.3102C69.8376 76.0953 69.6186 75.8651 69.4068 75.6277L68.8468 74.9977C68.7939 74.9384 68.7184 74.8904 68.6018 74.849L68.1818 74.7002L67.7531 74.5427C67.423 74.4259 67.1074 74.2903 66.8081 74.1315L66.4318 73.9302L66.0643 73.7377C65.7145 73.552 65.3908 73.3107 65.1106 73.029L64.8131 72.7227L64.5068 72.4252C64.3015 72.2188 64.1008 72.0077 63.9031 71.804L63.6056 71.4977L63.3168 71.2002C63.1297 71.0074 62.9328 70.819 62.7393 70.6315L62.4418 70.334L62.1356 70.0452C62.1325 70.0937 62.1405 70.1455 62.1356 70.194L62.0481 71.034C62.0196 71.312 61.9893 71.589 61.9606 71.8652L61.8731 72.7052C61.8459 72.9667 61.8279 73.23 61.8118 73.4927L61.7593 74.3327C61.7394 74.6568 61.6962 74.9818 61.6368 75.304L61.4793 76.144C61.3985 76.579 61.2034 77.0936 60.7268 77.439L60.4818 77.6052L60.2456 77.7802C60.0895 77.893 59.8729 78.0008 59.6068 78.034C59.3339 78.0675 59.078 78.0163 58.8631 77.9115C58.4781 77.7228 58.2562 77.3902 58.1456 77.194L57.9268 76.8002L57.6993 76.3977C57.6239 76.264 57.5476 76.179 57.4718 76.1265L57.1218 75.8902L56.7806 75.654C56.5521 75.4959 56.3263 75.3431 56.1068 75.1902L55.7743 74.954L55.4506 74.7265C54.9829 74.4007 54.6894 73.9342 54.5756 73.3965L54.4881 72.9765L54.4006 72.5652C54.3304 72.2332 54.2885 71.8965 54.2693 71.559L54.2168 70.719C54.2013 70.4442 54.1839 70.1701 54.1643 69.8965L54.1381 69.4765L54.1031 69.0565C54.088 68.8444 54.086 68.6254 54.0856 68.4002C53.7647 68.4929 53.4347 68.5437 53.0881 68.4965L52.6768 68.444L52.2743 68.3915C51.9796 68.351 51.6816 68.3019 51.3906 68.2427L50.9881 68.1552L50.5943 68.0765C50.2196 68.0003 49.857 67.8715 49.5181 67.6915L49.1506 67.4902L48.7743 67.2977C48.5977 67.2038 48.3988 67.1182 48.1793 67.0527L47.7506 66.9302L47.3218 66.799C46.6964 66.6116 46.2373 66.1695 46.0093 65.5652L45.8431 65.1452L45.6856 64.7165C45.6547 64.635 45.6183 64.5917 45.5718 64.559L45.2131 64.314L44.8631 64.0602C44.4703 63.7837 44.1587 63.4207 43.9531 62.984L43.7693 62.5902L43.5856 62.2052C43.4655 61.9493 43.3457 61.6935 43.2268 61.444L43.0518 61.0677L42.8681 60.6915C42.7902 60.5279 42.6911 60.3651 42.5618 60.2102L42.0018 59.5452C41.6842 59.1645 41.4788 58.7154 41.4068 58.224L41.3456 57.7865L41.2843 57.3577C41.2456 57.0911 41.2035 56.8313 41.1531 56.579L41.0656 56.1677L40.9868 55.7565C40.9114 55.3781 40.8907 54.9949 40.9256 54.6102L40.9606 54.1902L41.0043 53.7702C41.0119 53.688 41.0003 53.5939 40.9518 53.4815L40.6018 52.659C40.4302 52.2603 40.3289 51.8424 40.3218 51.4077L40.3131 50.9877V50.559C40.3082 50.2323 40.3205 49.9056 40.3568 49.579L40.4006 49.1502L40.4531 48.7302C40.4814 48.4767 40.4972 48.2205 40.5056 47.969L40.5231 47.549L40.5318 47.129C40.5397 46.8944 40.5355 46.6633 40.5143 46.4377L40.4793 46.0265L40.4356 45.6152C40.4324 45.5809 40.4383 45.5454 40.4356 45.5102C40.3288 45.3946 40.2421 45.2585 40.1906 45.099L40.1556 45.0027L40.1031 44.8277V44.6527L40.1118 43.8565C40.1177 43.2967 40.1593 42.7763 40.2781 42.3515L40.4006 41.9227L40.4881 41.599L40.3043 41.3452L40.0506 41.004C39.9203 40.8284 39.7711 40.6601 39.6131 40.514L39.2981 40.2252L38.9918 39.9365C38.6408 39.6118 38.3808 39.2156 38.2306 38.764L38.0993 38.344L37.9593 37.9327C37.8547 37.6179 37.7711 37.3027 37.7056 36.9877L37.6181 36.5852L37.5306 36.174C37.4729 35.8967 37.4189 35.6135 37.3643 35.3252L37.2856 34.9052L37.2068 34.4765C37.1087 33.9579 37.1715 33.4451 37.3906 32.9715L37.5831 32.569L37.7668 32.1665C38.0203 31.6194 38.4697 31.2112 39.0793 31.0465L39.4818 30.9327L39.8931 30.8277C39.9913 30.8007 40.1021 30.746 40.2256 30.644L40.5756 30.3552L40.9343 30.0577C41.3637 29.7035 41.8847 29.5057 42.4568 29.5152L42.8943 29.524L43.3231 29.5327C43.5366 29.5363 43.7512 29.5196 43.9531 29.4802L44.3731 29.3927L44.7931 29.314C45.3082 29.2143 45.8179 29.2769 46.2893 29.489ZM42.2468 45.2565C42.4028 45.1625 42.5086 45.0673 42.5531 45.0115C42.6065 44.9441 42.6394 44.88 42.6581 44.8452C42.6924 44.7813 42.7113 44.7277 42.7193 44.7052C42.7272 44.683 42.7343 44.6617 42.7368 44.6527C42.7348 44.6624 42.7323 44.6827 42.7281 44.7052L42.6931 44.9065L42.6493 45.1077C42.654 45.0831 42.6581 45.0907 42.6581 45.1515C42.6581 45.2091 42.6565 45.2938 42.6668 45.4052L42.7106 45.8165L42.7456 46.2277C42.7757 46.5496 42.7827 46.8806 42.7718 47.2077L42.7631 47.6277L42.7456 48.0477C42.7352 48.3567 42.7101 48.6657 42.6756 48.9752L42.6318 49.404L42.5793 49.824C42.5531 50.0584 42.5496 50.2921 42.5531 50.524V50.9527L42.5618 51.3727C42.5641 51.4977 42.5951 51.6292 42.6581 51.7752L43.0081 52.5977C43.1951 53.0319 43.2792 53.4948 43.2356 53.9715L43.1918 54.3915L43.1568 54.8115C43.1411 54.9843 43.1498 55.1524 43.1831 55.319L43.2618 55.7302L43.3493 56.1415C43.4078 56.4345 43.4539 56.738 43.4981 57.0427L43.5681 57.4715L43.6293 57.9002C43.6412 57.9794 43.6626 58.0452 43.7168 58.1102L44.2768 58.7752C44.5209 59.0678 44.7273 59.3888 44.8893 59.729L45.0731 60.1052L45.2481 60.4815C45.3686 60.7346 45.4939 60.9921 45.6156 61.2515L45.7993 61.6452L45.9831 62.0302C46.0197 62.1075 46.0681 62.1743 46.1493 62.2315L46.5081 62.4765L46.8668 62.7302C47.2945 63.0322 47.6033 63.4458 47.7856 63.929L47.9431 64.349L48.0656 64.6815L48.3981 64.7777L48.8268 64.909C49.1782 65.014 49.5174 65.1523 49.8331 65.3202L50.2006 65.5127L50.5681 65.714C50.7217 65.7956 50.8816 65.8479 51.0406 65.8802L51.4343 65.959L51.8368 66.0465C52.0807 66.0961 52.3332 66.135 52.5806 66.169L52.9831 66.2215L53.3856 66.2827C53.4125 66.2864 53.4601 66.2884 53.5431 66.2477L54.3481 65.8452L54.9081 65.6702C55.1708 65.6414 55.4907 65.6838 55.8006 65.9065C56.096 66.1193 56.23 66.4069 56.2906 66.6152C56.3499 66.8193 56.3561 67.0125 56.3518 67.1577L56.3431 67.639L56.3256 68.1115C56.3172 68.3978 56.3262 68.6618 56.3431 68.899L56.3956 69.739C56.4159 70.0231 56.4407 70.3113 56.4568 70.5965L56.4743 71.0165L56.5006 71.4365C56.5133 71.6588 56.5414 71.8807 56.5881 72.1015L56.6756 72.5215L56.7543 72.9065L57.0606 73.1165L57.3843 73.3527C57.6029 73.505 57.8302 73.6588 58.0581 73.8165L58.7406 74.289C59.0078 74.4739 59.2248 74.7076 59.4143 74.9627L59.4318 74.8927C59.475 74.6581 59.5051 74.4252 59.5193 74.1927L59.5718 73.3527C59.5899 73.0583 59.6114 72.7621 59.6418 72.469L59.6856 72.0577L59.7293 71.6377C59.758 71.3617 59.7884 71.0843 59.8168 70.8065L59.9043 69.9665C59.9204 69.8093 59.9153 69.6434 59.8781 69.4765L59.6856 68.6365C59.6444 68.4516 59.5981 68.1641 59.6506 67.8665C59.6792 67.7063 59.7488 67.4886 59.9131 67.2802C60.0913 67.0542 60.3326 66.9071 60.5956 66.8427L60.9456 66.7552L61.5231 66.7377C61.6863 66.7695 61.8242 66.8267 61.9256 66.8777C62.1379 66.9852 62.3175 67.1386 62.4593 67.2715L62.7656 67.5515L63.0718 67.8402C63.2801 68.0353 63.4874 68.236 63.6931 68.4352L63.9993 68.724L64.3056 69.0215C64.5147 69.2241 64.7157 69.4343 64.9181 69.6427L65.2156 69.9402L65.5043 70.2465C65.6956 70.4435 65.8915 70.6413 66.0906 70.8415L66.7031 71.454C66.8286 71.5801 66.9675 71.6823 67.1143 71.7602L67.4818 71.9527L67.8581 72.154C68.053 72.2574 68.2652 72.3518 68.4968 72.434L68.9256 72.5827L69.3456 72.7315C69.7936 72.89 70.1972 73.1505 70.5181 73.5102L71.0781 74.1402C71.2391 74.3207 71.4078 74.4932 71.5856 74.6565L71.9006 74.9452L72.2068 75.2252C72.4015 75.4038 72.6014 75.582 72.8018 75.7502L73.1168 76.0127L73.4406 76.284C73.6729 76.479 73.9011 76.6837 74.1231 76.8965L74.4293 77.1852L74.7356 77.4827C75.0161 77.7516 75.2528 78.0565 75.4443 78.3927L75.6543 78.7515L75.8381 79.0752L76.1706 79.1802L76.5556 79.294C76.8828 79.3927 77.1989 79.533 77.5006 79.6965L77.8506 79.8802L78.2093 80.0727C78.6088 80.2896 78.9385 80.6003 79.1806 80.9915L79.3818 81.324L79.5918 81.6565C79.6915 81.8176 79.8157 81.9894 79.9681 82.164L80.2481 82.4877L80.5368 82.8115C80.6955 82.9932 80.8427 83.1455 80.9831 83.2665L81.2718 83.5115L81.5518 83.7477C81.636 83.8201 81.7485 83.9 81.9106 83.9665L82.6981 84.2815L82.7156 84.2902C82.718 84.2899 82.7324 84.293 82.7418 84.2902L83.5468 84.0452C83.8879 83.9435 84.2409 83.8738 84.5968 83.844L85.4368 83.774C85.5523 83.7641 85.6713 83.7379 85.7956 83.669L86.1806 83.4502L86.5656 83.2402C86.726 83.1512 86.8623 83.0454 86.9768 82.9252L87.2656 82.6102L87.5631 82.304C87.7876 82.0678 88.0249 81.846 88.2718 81.639L88.5956 81.3677L88.9106 81.0965C89.0187 81.0058 89.1095 80.9017 89.1818 80.7727L89.3918 80.4052L89.5931 80.029C89.6326 79.9584 89.6478 79.897 89.6456 79.819L89.6368 79.399L89.6281 78.9702C89.6241 78.8512 89.591 78.7353 89.5318 78.6115L89.3481 78.2177L89.1556 77.824C89.0865 77.68 89.0031 77.5627 88.9018 77.4652L88.5956 77.1765L88.2981 76.879C88.1447 76.7316 87.9735 76.5999 87.7993 76.4852L87.4581 76.2577L87.1081 76.0302C86.8001 75.8274 86.5179 75.5855 86.2593 75.3127L85.9531 74.9977L85.6468 74.674C85.5899 74.6139 85.5423 74.5835 85.4806 74.569L84.6406 74.3765C84.2043 74.2741 83.8026 74.0788 83.4506 73.799L82.7856 73.274C82.6841 73.1935 82.563 73.128 82.4093 73.0815L81.9806 72.9502L81.5606 72.819C81.1141 72.6844 80.707 72.4585 80.3706 72.1277L80.0731 71.8302L79.7756 71.5415C79.5993 71.368 79.4088 71.1945 79.2156 71.034L78.8918 70.7715L78.5681 70.5002C78.3441 70.3142 78.1206 70.1212 77.9031 69.9315L77.5881 69.6602L77.2731 69.3802C77.0914 69.2218 76.9013 69.0737 76.7043 68.934L76.0218 68.444C75.8219 68.3022 75.6094 68.1676 75.3918 68.0415L75.0243 67.8315L74.6568 67.6127C74.1998 67.3478 73.8597 66.9617 73.6418 66.4927L73.4493 66.0815L73.2568 65.679C73.1895 65.5341 73.1033 65.4207 73.0031 65.329L72.6881 65.0315L72.3643 64.7427C72.3001 64.6839 72.222 64.6368 72.1106 64.6115L71.6731 64.5152L71.2356 64.4102C70.8589 64.3248 70.4977 64.1964 70.1593 64.0252L69.7831 63.8415L69.4068 63.649C68.9634 63.4247 68.6125 63.086 68.3481 62.6777L68.0943 62.2927L67.8493 61.9165H67.8406L67.3856 61.8115L66.9218 61.7152C66.2559 61.573 65.7306 61.1463 65.4868 60.4902L65.1718 59.6327C65.0865 59.402 64.9885 59.1943 64.8831 59.0115L64.6731 58.6527L64.4631 58.2852C64.384 58.1488 64.2901 58.0205 64.1656 57.909L63.8418 57.629L63.5268 57.3402C63.2509 57.0929 63.0014 56.8217 62.7918 56.5177L62.3193 55.8177C62.1653 55.5941 62.0038 55.3781 61.8468 55.1615L61.6018 54.8202L61.3656 54.4877C61.2765 54.3648 61.1568 54.2475 61.0068 54.1377L60.2893 53.6127C59.8743 53.3093 59.5711 52.9021 59.3968 52.414L59.2481 52.0027L59.0993 51.6002C59.0454 51.4488 58.9732 51.3174 58.8806 51.2065L58.3381 50.559C58.1932 50.3857 58.0321 50.2186 57.8568 50.0602L57.5418 49.7715L57.2181 49.4827C56.8779 49.1752 56.6175 48.7983 56.4481 48.3715L56.2906 47.9777L56.1331 47.5752C56.0677 47.4107 55.9823 47.2667 55.8793 47.1377L55.6168 46.814L55.3543 46.4815C55.1423 46.2161 54.9504 45.9371 54.7856 45.6415L54.5843 45.274L54.3831 44.9152C54.2189 44.6205 54.0768 44.3135 53.9631 43.9965L53.8231 43.6027L53.6831 43.2177C53.6052 43.0003 53.5187 42.7762 53.4118 42.5615L53.2193 42.1852L53.0356 41.809C52.7624 41.2598 52.7497 40.6597 52.9743 40.1027L53.1318 39.7002L53.2981 39.2977C53.3165 39.252 53.3162 39.2271 53.3068 39.1927L53.1931 38.7815L53.0793 38.3615C52.991 38.0396 52.9178 37.7105 52.8693 37.3727L52.8081 36.9265L52.7468 36.5415L52.4056 36.314L52.0206 36.0602C51.5402 35.743 51.2046 35.2855 51.0493 34.7302L50.8043 33.8552L50.4281 33.6452L50.0431 33.4265C49.8182 33.3003 49.595 33.1856 49.3781 33.094L48.9843 32.9365L48.5993 32.7702C48.3722 32.6744 48.1417 32.5826 47.9081 32.5077L47.5056 32.3852L47.1031 32.254C46.796 32.1557 46.4889 32.0409 46.1843 31.904L45.7731 31.7202L45.3706 31.5365C45.3049 31.5069 45.2637 31.5026 45.2218 31.5102L44.8018 31.5977L44.3818 31.6765C44.0236 31.7464 43.6553 31.7789 43.2881 31.7727L42.8506 31.764L42.4218 31.7552H42.4043L42.3956 31.764C42.3892 31.7677 42.3753 31.7781 42.3606 31.7902L42.0018 32.079L41.6518 32.3677C41.3046 32.6547 40.9091 32.8709 40.4706 32.989L40.0681 33.1027L39.7618 33.1815L39.6131 33.514L39.4293 33.9165C39.4019 33.9763 39.3954 34.0127 39.4031 34.0565L39.4818 34.4852L39.5693 34.9052C39.6216 35.1813 39.6719 35.4548 39.7268 35.719L39.8143 36.1215L39.8931 36.5327C39.94 36.7582 40.0071 36.9877 40.0856 37.224L40.2256 37.644L40.3568 38.0552C40.39 38.1551 40.4389 38.2293 40.5056 38.2915L41.1356 38.869C41.3961 39.1099 41.6322 39.3794 41.8443 39.6652L42.1068 40.0152L42.3606 40.3565C42.7444 40.8737 42.845 41.4912 42.6756 42.0977L42.5618 42.5265L42.4393 42.9552C42.4132 43.0483 42.4036 43.2043 42.3868 43.4365L42.5793 43.6377L42.5881 43.6552L42.7456 43.8652L42.7806 44.049C42.8108 44.1501 42.8417 44.2531 42.8418 44.364V44.469L42.3431 44.5127V44.6702C42.3595 44.878 42.3376 45.0766 42.2468 45.2565ZM56.7718 72.9415C56.7706 72.9386 56.7681 72.9318 56.7631 72.924L56.7543 72.9152L56.7631 72.9327L56.7718 72.9415Z" fill="#FF4500"/>
<path d="M84.0472 72.8208C84.4658 72.3655 85.1756 72.3412 85.631 72.7595C86.0863 73.1782 86.1196 73.8879 85.701 74.3433L85.631 74.4133L85.5522 74.5008L85.4647 74.562L84.826 75.0258C84.3933 75.3385 84.0212 75.5922 83.7235 75.7608L83.356 75.962L82.9885 76.172C82.8969 76.2243 82.822 76.2985 82.7522 76.3995L82.5072 76.7495L82.2622 77.1083C82.1052 77.3356 81.9544 77.5575 81.816 77.7733L81.3785 78.4558C81.2094 78.719 81.0207 78.9776 80.8185 79.2258L80.556 79.5495L80.2847 79.8733C80.1879 79.9924 80.1188 80.1238 80.066 80.267L79.9172 80.6608L79.7772 81.0633C79.682 81.3241 79.6277 81.4671 79.611 81.5183L79.5847 81.8245L79.4097 82.0695L79.3485 82.1483C78.9897 82.6518 78.2947 82.7692 77.791 82.4108C77.377 82.1158 77.2394 81.5993 77.3972 81.142L77.406 81.0633L77.441 80.9408L77.476 80.8358C77.5069 80.74 77.5752 80.5488 77.6685 80.2933L77.8172 79.8995L77.9572 79.5058C78.0961 79.1253 78.2963 78.7698 78.5522 78.4558L78.8147 78.132L79.086 77.8083C79.2373 77.6226 79.3666 77.4295 79.4885 77.2395L79.926 76.557C80.0787 76.3191 80.2459 76.0771 80.416 75.8308L80.661 75.4808L80.906 75.122C81.1629 74.7501 81.491 74.4445 81.886 74.2208L82.2535 74.0108L82.621 73.8095C82.8103 73.7023 83.1008 73.5041 83.5135 73.2058L84.0472 72.8208Z" fill="#FF4500"/>
<path d="M82.1344 79.2233C82.5718 78.7859 83.2895 78.7859 83.7269 79.2233L83.7969 79.302L83.8844 79.3895L83.9544 79.5033L84.0332 79.6258L84.1032 79.7308L84.1207 79.7483C84.1636 79.7868 84.233 79.8397 84.3307 79.9145L85.0132 80.4395C85.3839 80.7234 85.6794 81.0858 85.8794 81.507L86.2469 82.2945C86.2233 82.2447 86.2196 82.2503 86.2907 82.312C86.3606 82.3726 86.4786 82.464 86.6669 82.5658L87.3757 82.942L87.5157 83.0208L87.7082 83.2133C88.1425 83.6509 88.1445 84.3607 87.7082 84.797C87.3253 85.1799 86.7429 85.2069 86.3082 84.9195L85.5994 84.5345C85.0733 84.2501 84.5082 83.8493 84.2257 83.257L84.0419 82.8633L83.8494 82.4695C83.8013 82.3682 83.7417 82.2901 83.6569 82.2245L83.3157 81.962L82.9657 81.6995C82.749 81.5336 82.4733 81.3097 82.3007 81.0695L82.2132 80.9383L82.1869 80.9033L82.1694 80.8683L82.1344 80.8158L81.8894 80.4395C81.7267 80.0356 81.807 79.5507 82.1344 79.2233Z" fill="#FF4500"/>
<path d="M84.1137 76.9724C84.5669 76.553 85.2769 76.5811 85.6975 77.0337L85.7675 77.1037L86.5813 77.9874L86.4763 78.0662C86.4932 78.0774 86.5105 78.0893 86.5288 78.1012L86.8963 78.3374L87.255 78.5737C87.651 78.8316 87.9711 79.1771 88.2 79.5887L88.41 79.9649L88.62 80.3499C88.6633 80.4279 88.8181 80.6219 89.1888 80.9362L89.7925 81.4524L89.845 81.4962L89.8888 81.5399L89.9588 81.6187C90.3776 82.0719 90.3498 82.7821 89.8975 83.2024C89.4443 83.6221 88.7344 83.5938 88.3138 83.1412L88.2788 83.1062L87.7363 82.6424C87.3006 82.2727 86.9001 81.8751 86.66 81.4437L86.24 80.6737C86.1851 80.5749 86.1146 80.5101 86.03 80.4549L85.3125 79.9824C85.0496 79.8113 84.8051 79.635 84.6125 79.4574L84.42 79.2824L84.2362 79.1074C84.1466 79.0247 84.0285 78.9028 83.93 78.7574C83.8656 78.6623 83.6165 78.2879 83.7287 77.7862L83.7462 77.7074L83.8337 77.3312L83.895 77.2874C83.9527 77.176 84.0166 77.0627 84.1137 76.9724Z" fill="#FF4500"/>
<path d="M75.5709 73.5839C75.7626 73.6479 75.8906 73.7519 75.9209 73.7764C75.968 73.8145 76.0086 73.8462 76.0259 73.8639C76.0594 73.8983 76.0848 73.9291 76.0959 73.9427C76.1191 73.9713 76.1396 74.0005 76.1484 74.0127C76.1838 74.062 76.232 74.1322 76.2796 74.2052L76.4284 74.4327L76.4896 74.5377L76.9096 74.6339L77.3296 74.7389C77.8476 74.8678 78.2952 75.1497 78.6334 75.5614L78.9134 75.8939L79.1934 76.2352C79.2712 76.3297 79.4666 76.5193 79.8759 76.7864L80.5409 77.2152L80.5671 77.2327L80.5846 77.2414L80.6634 77.3027C81.1656 77.6613 81.2826 78.3569 80.9259 78.8602C80.5668 79.3638 79.8633 79.4817 79.3596 79.1227L79.3159 79.0877L78.6596 78.6589C78.1859 78.3498 77.7555 78.0193 77.4609 77.6614L76.9009 76.9789C76.8667 76.9374 76.8357 76.921 76.7871 76.9089L76.3671 76.8039L75.9384 76.6989C75.5391 76.5992 75.0198 76.3889 74.6959 75.8939L74.5471 75.6577L74.5121 75.5964C74.4553 75.5313 74.4029 75.4698 74.3634 75.3952L74.3109 75.3339L74.2321 75.1764C74.2272 75.1667 74.2024 75.1123 74.1796 75.0539C74.1724 75.0361 74.1265 74.9222 74.1096 74.7739C74.104 74.7246 74.0895 74.6368 74.1009 74.5289C74.1114 74.4298 74.1499 74.2343 74.2846 74.0302C74.4434 73.7913 74.7008 73.6095 75.0021 73.5489C75.2586 73.4982 75.4653 73.549 75.5709 73.5839ZM76.2709 74.2927L74.8971 75.7102C75.0091 75.7441 75.2022 75.7928 75.4396 75.7452C75.7408 75.6845 75.9897 75.5026 76.1484 75.2639C76.2845 75.0589 76.3215 74.8646 76.3321 74.7652C76.3436 74.6571 76.3377 74.5693 76.3321 74.5202C76.321 74.4232 76.2968 74.3465 76.2884 74.3189C76.2852 74.3085 76.2739 74.3016 76.2709 74.2927Z" fill="#FF4500"/>
<path d="M78.717 71.7581L78.7957 71.8106L79.137 72.0294L79.1807 72.0381L79.592 72.1431C80.0889 72.2699 80.5215 72.5291 80.8607 72.9044L81.1495 73.2369L81.447 73.5606C81.5095 73.6298 81.7055 73.7904 82.1382 74.0156L82.8557 74.3919L82.8995 74.4094L82.9345 74.4356L83.022 74.4881C83.5443 74.8195 83.6946 75.5146 83.3632 76.0369C83.1141 76.4271 82.6643 76.6165 82.2345 76.5444L81.8232 76.3781L81.1057 76.0019C80.5951 75.7362 80.1158 75.4323 79.7845 75.0656L79.487 74.7419L79.1982 74.4094C79.1424 74.3477 79.0928 74.3265 79.0407 74.3131L78.2182 74.1031C78.0708 74.0655 77.9129 74.0232 77.7807 73.9719C77.7234 73.9496 77.6035 73.8955 77.4832 73.8144C77.425 73.7749 77.3095 73.6914 77.2032 73.5519C77.0904 73.4026 76.9205 73.0929 76.9845 72.6856L76.9932 72.6331L77.0807 72.0644L77.3257 71.9506C77.6869 71.5713 78.2579 71.4669 78.717 71.7581Z" fill="#FF4500"/>
<path d="M52.4324 49.5314C52.4341 49.0255 52.5756 48.5459 52.8524 48.1227L53.0974 47.7639L53.3336 47.3964C53.4171 47.2679 53.5487 47.0022 53.7099 46.5389L53.9636 45.7952L53.9724 45.7689C54.1371 45.173 54.7502 44.8259 55.3461 44.9902C55.9423 45.155 56.2897 45.7677 56.1249 46.3639L56.0986 46.4602L56.0811 46.5302L55.8186 47.2739C55.637 47.7959 55.4387 48.2652 55.2061 48.6214L54.9699 48.9889L54.7336 49.3477C54.6936 49.4089 54.6726 49.4678 54.6724 49.5402V50.4064C54.6713 50.7316 54.6529 51.0525 54.6199 51.3689L54.5761 51.7889L54.5324 52.2002C54.4923 52.5838 54.3967 52.9604 54.2524 53.3202L54.0949 53.7227L53.9374 54.1164C53.869 54.2868 53.8232 54.461 53.8061 54.6327L53.7624 55.0439L53.7274 55.4639C53.7179 55.5586 53.7289 55.6261 53.7536 55.6827L53.9199 56.0502L54.0774 56.4177C54.1567 56.5963 54.2523 56.7687 54.3661 56.9339L54.6024 57.2664L54.8299 57.5989C54.9831 57.8209 55.1445 58.058 55.3111 58.2989L55.5561 58.6577L55.7836 58.9814L56.2124 59.0427L56.6674 59.1127C57.1661 59.1863 57.634 59.3883 58.0236 59.7252L58.6711 60.2852C58.8017 60.3981 58.9398 60.4791 59.0824 60.5389L59.4674 60.6964L59.8436 60.8627C60.237 61.0276 60.5902 61.2638 60.8936 61.5627L61.2086 61.8777L61.5236 62.1839C61.6347 62.2934 61.752 62.3689 61.8736 62.4202L62.2586 62.5864L62.6436 62.7439C62.9303 62.8648 63.2155 63.0014 63.4924 63.1464L63.8686 63.3477L64.2449 63.5402C64.4944 63.6709 64.7484 63.8042 64.9974 63.9339L65.3649 64.1264L65.7411 64.3189C66.1695 64.542 66.5162 64.8704 66.7824 65.2639L67.0449 65.6402L67.1761 65.8414L67.4299 65.8239L67.8936 65.7714C68.3773 65.7218 68.8583 65.7911 69.3111 65.9902L69.7049 66.1564L70.0986 66.3314C70.2427 66.3945 70.3862 66.4342 70.5361 66.4452L70.9649 66.4714L71.3849 66.5064C71.8292 66.5384 72.2533 66.6649 72.6449 66.8739L73.0299 67.0752L73.4061 67.2764H73.4149L73.8524 67.1452L74.2986 67.0139C74.764 66.8769 75.2511 66.8598 75.7336 66.9789L76.1361 67.0752L76.5474 67.1802C76.7765 67.2367 77.0055 67.2751 77.2299 67.3027L77.6324 67.3552L78.0349 67.3989C78.1744 67.4161 78.2997 67.4361 78.3936 67.4514C78.4385 67.4587 78.4967 67.4652 78.5511 67.4777C78.5775 67.4837 78.624 67.4965 78.6736 67.5127L79.0149 67.6964L79.0411 67.7139L80.3274 68.6939L79.2336 69.3677C78.9953 69.6369 78.6544 69.803 78.2711 69.7527L78.1661 69.7439L75.0861 69.3327L75.3224 69.1752L75.1999 69.1489C75.14 69.1341 75.0524 69.1298 74.9286 69.1664L74.4911 69.2977L74.0449 69.4289C73.4819 69.5947 72.8959 69.5461 72.3649 69.2627L71.9799 69.0527L71.5861 68.8427C71.4605 68.7761 71.3426 68.7464 71.2274 68.7377L70.7986 68.7114L70.3786 68.6764C69.9684 68.6471 69.5742 68.5444 69.1974 68.3789L68.8036 68.2127L68.4099 68.0377C68.3399 68.0069 68.2507 67.9893 68.1211 68.0027L67.6661 68.0464L67.2024 68.0989C66.8831 68.1318 66.5365 68.0951 66.2049 67.9414C65.8731 67.7874 65.6246 67.5441 65.4436 67.2764L65.1899 66.9002L64.9274 66.5152C64.8521 66.4046 64.7789 66.3417 64.7086 66.3052L63.9561 65.9202C63.7061 65.7899 63.4542 65.6577 63.2036 65.5264L62.8274 65.3252L62.4599 65.1327C62.2371 65.0159 62.0072 64.9058 61.7774 64.8089L61.3924 64.6514L60.9986 64.4852C60.6037 64.3184 60.2535 64.0775 59.9486 63.7764L59.3186 63.1639C59.2063 63.053 59.0932 62.9762 58.9774 62.9277L58.6011 62.7702L58.2161 62.6039C57.848 62.4496 57.5129 62.2359 57.2099 61.9739L56.8861 61.6939L56.5536 61.4139C56.5099 61.3769 56.4508 61.3422 56.3436 61.3264L55.8886 61.2564L55.4336 61.1952C54.8403 61.1076 54.325 60.8023 53.9724 60.2939L53.7186 59.9352L53.4649 59.5677C53.2987 59.3274 53.1366 59.0981 52.9836 58.8764L52.7561 58.5439L52.5286 58.2027C52.3368 57.9245 52.1664 57.6349 52.0299 57.3277L51.8724 56.9602L51.7061 56.5927C51.5157 56.1629 51.4503 55.7063 51.4961 55.2452L51.5399 54.8252L51.5749 54.4052C51.6134 54.0199 51.7103 53.6459 51.8549 53.2852L52.0124 52.8827L52.1786 52.4889C52.2474 52.3175 52.283 52.1438 52.3011 51.9727L52.3886 51.1327C52.4134 50.8946 52.4315 50.6492 52.4324 50.3977V49.5314Z" fill="#FF4500"/>
<path d="M45.529 65.1966C46.0538 64.8693 46.7504 65.0306 47.0778 65.5554L47.2615 65.8616L47.2878 66.1241L47.3753 66.9116C47.433 67.4778 47.438 68.0296 47.3403 68.4866L47.2528 68.9154L47.1565 69.3354C47.1537 69.3487 47.1567 69.3668 47.1565 69.3704L47.1653 69.3791L47.5678 70.1316C47.6519 70.289 47.7422 70.4071 47.8303 70.4904L48.1015 70.7529L48.3815 71.0154C48.4214 71.0531 48.4635 71.0743 48.5128 71.0854L48.8803 71.1641L49.1165 71.2166L49.3878 71.0241L49.7203 70.7704C49.7626 70.739 49.7942 70.7093 49.8165 70.6479L49.9565 70.2366L50.1053 69.8341C50.2309 69.4808 50.3969 69.146 50.604 68.8366L50.8315 68.4954L51.0678 68.1454C51.0884 68.1146 51.1156 68.0882 51.1378 68.0579L50.814 67.9004L52.5378 66.8241L52.6253 66.7716C53.0753 66.4944 53.6316 66.5881 53.9903 66.9466L54.0603 66.9816L54.2265 67.2091L54.279 67.2879C54.5112 67.6086 54.5721 68.0433 54.4015 68.4341C54.2744 68.7227 54.0619 68.8846 53.9815 68.9416C53.8014 69.0683 53.5975 69.1389 53.4828 69.1779L53.1853 69.2829L52.9578 69.3529C52.9508 69.3612 52.9445 69.3773 52.9315 69.3966L52.6953 69.7379L52.4678 70.0879C52.367 70.2385 52.2793 70.4027 52.214 70.5866L52.074 70.9891L51.9253 71.3916C51.7568 71.8662 51.4663 72.2708 51.059 72.5729L50.7178 72.8266L50.3853 73.0716C49.9297 73.4093 49.3589 73.5652 48.7578 73.4304L48.3903 73.3516L48.014 73.2641C47.5705 73.1638 47.1712 72.9547 46.8415 72.6429L46.5703 72.3804L46.2903 72.1179C46.0076 71.8505 45.7749 71.5359 45.5903 71.1904L45.1878 70.4379C44.9262 69.9483 44.8546 69.4085 44.969 68.8716L45.0653 68.4429L45.1528 68.0141C45.1766 67.9008 45.194 67.6289 45.144 67.1391L45.0828 66.4829C44.9301 66.0062 45.0849 65.4737 45.529 65.1966Z" fill="#FF4500"/>
<path d="M47.585 70.9736C47.6102 70.9801 47.6307 71.0005 47.655 71.0086L47.865 70.9911L48.2325 71.4198L48.2675 71.4636C48.7536 72.0269 48.4646 72.6499 48.4338 72.7148C48.3602 72.8686 48.2661 72.9811 48.2238 73.0298C48.1236 73.1451 47.9938 73.2582 47.8825 73.3536L47.5763 73.6073L47.2788 73.8698C47.2754 73.8727 47.2524 73.8898 47.235 73.9661L47.0425 74.8236C47.0082 74.9739 47.0059 75.095 47.025 75.1998L47.095 75.6023L47.1388 75.8561C47.2307 75.4486 47.3982 75.0729 47.6638 74.7448L47.935 74.4036L48.215 74.0623C48.279 73.9823 48.4106 73.7633 48.5738 73.3098L48.8363 72.5573L48.845 72.5398L48.8538 72.5136L48.8975 72.4173C49.1339 71.8476 49.7878 71.5789 50.3588 71.8136C50.9289 72.0498 51.1973 72.7037 50.9625 73.2748L50.9363 73.3536L50.6825 74.0623C50.4909 74.5957 50.2571 75.0985 49.9563 75.4711L49.6763 75.8123L49.405 76.1536C49.3472 76.2248 49.3137 76.2935 49.3 76.3811L49.2388 76.8098L49.1688 77.2386C49.1131 77.6035 49.0212 77.9645 48.8888 78.3061L48.7313 78.6998L48.5825 79.0936C48.4561 79.4197 48.3008 79.734 48.1188 80.0298L47.9 80.3798L47.7688 80.5811L47.865 80.7648L48.0313 81.1323C48.1085 81.3 48.2032 81.472 48.3288 81.6398L48.5913 81.9811L48.845 82.3223C49.0728 82.6273 49.2565 82.9579 49.3963 83.3111L49.7113 84.0986C49.7856 84.2874 49.8804 84.5856 49.8513 84.9211C49.8142 85.3457 49.5707 85.7862 49.09 86.0061L48.8888 86.1023L48.6963 86.1898C48.5541 86.2542 48.3379 86.3497 48.0575 86.4698L47.6375 86.6448L47.2175 86.8286C46.7663 87.0219 46.2788 87.0978 45.7825 87.0298L44.9425 86.9073C44.7775 86.8846 44.6104 86.888 44.4438 86.9161L44.0238 86.9948L43.6038 87.0648C43.1412 87.1437 42.6744 87.11 42.23 86.9686L41.81 86.8286L41.39 86.6973C41.2451 86.6516 41.1132 86.6341 40.9875 86.6448L40.5675 86.6798L40.1475 86.7236L38.4675 86.8636C38.2175 86.8846 37.9658 86.9106 37.715 86.9511L36.875 87.0911C36.3563 87.1751 35.8511 87.0858 35.3875 86.8723L34.9675 86.6798L34.5913 86.5048L34.215 86.6798L33.795 86.8723C33.3036 87.0965 32.7694 87.1621 32.2288 87.0298L31.8088 86.9248L31.3888 86.8286C31.2445 86.7931 31.1047 86.7832 30.9688 86.8023L30.1288 86.9248C29.6538 86.9916 29.1817 86.9332 28.7375 86.7673L28.3175 86.6098L27.915 86.4611L27.5213 86.6623L27.1013 86.8636C27.0193 86.9032 26.9291 86.9364 26.8475 86.9686C26.8001 86.9874 26.6343 87.0569 26.4363 87.0736C26.3917 87.0774 25.9764 87.1275 25.605 86.8198C25.0704 86.376 25.1953 85.7651 25.255 85.5861C25.3177 85.3984 25.4167 85.2673 25.4475 85.2273C25.4921 85.1695 25.5384 85.1197 25.57 85.0873L25.9288 84.7286L26.27 84.4573C26.6244 84.2517 27.0164 84.1995 27.3113 84.1948H27.7313L28.1425 84.1861C28.3832 84.1823 28.6286 84.1624 28.8688 84.1336L29.2888 84.0898L29.7 84.0373C30.1157 83.9874 30.5342 84.0107 30.9425 84.1073L31.8 84.3173C31.89 84.3387 31.9639 84.3325 32.0363 84.3086L32.4475 84.1686L32.8588 84.0373C33.2028 83.924 33.5523 83.8406 33.9088 83.8011L34.7488 83.7136C35.1429 83.6704 35.5383 83.6904 35.93 83.7661L36.3588 83.8448L36.7875 83.9323C36.8195 83.9385 36.842 83.9319 36.8925 83.9061L37.295 83.7048L37.6975 83.4948C38.1177 83.2782 38.5749 83.1636 39.0538 83.1711L39.4738 83.1798L39.9025 83.1886C40.1871 83.193 40.4746 83.1903 40.76 83.1973L41.18 83.2148L41.6088 83.2236C41.75 83.2268 41.8887 83.2042 42.0288 83.1536L42.8338 82.8561C43.0509 82.7776 43.204 82.7054 43.2975 82.6461L43.5688 82.4798L43.84 82.3048L43.8225 82.3136C43.8364 82.2966 43.8662 82.2539 43.9013 82.1823L44.0938 81.7886L44.2775 81.3948L44.1288 80.9486L43.98 80.5111C43.8746 80.1982 43.8388 79.8355 43.9363 79.4611C44.0346 79.0859 44.2514 78.79 44.4963 78.5686L44.8375 78.2536L45.1263 77.9911L45.0913 77.6148L45.0563 77.1511C45.0351 76.8775 45.0092 76.6296 44.9688 76.4073L44.89 76.0048L44.82 75.6023C44.7421 75.175 44.759 74.7459 44.855 74.3248L45.0475 73.4673C45.1609 72.9709 45.4142 72.5181 45.8175 72.1723L46.1238 71.9098L46.2025 71.8486L46.22 71.7786C46.3742 71.1805 46.9864 70.8204 47.585 70.9736ZM46.1063 82.7686L45.9138 83.1711C45.7262 83.5543 45.4481 83.9345 45.0388 84.1948L44.4963 84.5448C44.3922 84.6108 44.2687 84.6452 44.155 84.7023C44.5178 84.649 44.8847 84.6433 45.2488 84.6936L45.6688 84.7548L46.0888 84.8073C46.151 84.8156 46.2272 84.8093 46.3338 84.7636L46.7538 84.5886L47.1738 84.4048C47.2507 84.3719 47.3192 84.3365 47.3838 84.3086L47.3138 84.1336C47.2476 83.9667 47.1619 83.809 47.0513 83.6611L46.7975 83.3198L46.535 82.9786C46.418 82.822 46.3348 82.6461 46.2375 82.4798L46.1063 82.7686Z" fill="#FF4500"/>
<path d="M56.4193 73.9581C57.0369 73.9897 57.5094 74.5217 57.478 75.1394V75.2356L57.4693 75.9794C57.4657 76.5475 57.4151 77.1007 57.2505 77.5544L56.953 78.3769C56.9277 78.4486 56.9286 78.5071 56.9443 78.5781L57.0318 79.0069L57.128 79.4269C57.1942 79.7247 57.2512 80.0248 57.303 80.3194L57.3818 80.7306L57.4518 81.1506C57.4848 81.3388 57.5084 81.5501 57.4955 81.7631C57.4899 81.855 57.4656 81.9648 57.4343 82.0869L57.618 82.2094L57.9593 82.4456C58.3243 82.6969 58.6283 83.0233 58.8605 83.3994L59.088 83.7669L59.3243 84.1431L59.4468 84.1869C59.4796 84.1968 59.5379 84.2192 59.6043 84.2481C59.6374 84.2626 59.697 84.2865 59.7618 84.3269C59.811 84.3576 59.9449 84.451 60.068 84.6156C60.209 84.805 60.3977 85.2025 60.2255 85.6744C60.0846 86.0589 59.7898 86.2299 59.7005 86.2781C59.5115 86.3798 59.3344 86.4057 59.3068 86.4094C59.1443 86.4321 58.9386 86.4231 58.8255 86.4181L57.9855 86.3831C57.7443 86.3727 57.5005 86.3692 57.2593 86.3831L56.4193 86.4356C56.1913 86.4489 55.9644 86.4792 55.7368 86.5231L54.8968 86.6806C54.5132 86.7546 54.1215 86.7719 53.733 86.7331L53.313 86.6894L52.893 86.6544C52.5628 86.6213 52.2328 86.5651 51.9043 86.4881L51.4755 86.3831L51.0555 86.2869C51.0175 86.278 50.9853 86.2775 50.9243 86.3044L50.513 86.4881L50.1018 86.6631C49.685 86.8466 49.2395 86.9398 48.7805 86.9256L48.3605 86.9169L47.9405 86.8994C47.6316 86.8897 47.3147 86.8712 47.0043 86.8381L46.5843 86.7944L46.1555 86.7506C46.0325 86.7376 45.9376 86.7276 45.8668 86.7244C45.8216 86.7224 45.7912 86.7242 45.7793 86.7244L45.5868 86.7419L45.403 86.7594C45.3823 86.7614 45.3512 86.7664 45.3243 86.7681C45.3116 86.7689 45.2931 86.7676 45.2718 86.7681C45.2596 86.7684 45.1926 86.7679 45.1143 86.7594C45.0893 86.7567 44.9629 86.7481 44.8168 86.6894C44.7492 86.6622 44.5652 86.5748 44.3968 86.3831C44.181 86.1368 44.0497 85.7654 44.1518 85.3681C44.2318 85.0595 44.4175 84.8774 44.4843 84.8169C44.5678 84.7412 44.6475 84.6898 44.6855 84.6681C44.7617 84.6253 44.8298 84.6063 44.8518 84.5981C44.927 84.5704 44.9946 84.5488 45.0093 84.5456C45.0837 84.529 45.2111 84.5063 45.3418 84.4844L45.7618 84.4144L46.173 84.3444C46.3993 84.3065 46.6232 84.2555 46.838 84.1869L47.2405 84.0556L47.643 83.9331C47.9708 83.8284 48.3063 83.7447 48.6493 83.6969L49.0693 83.6444L49.4893 83.5831C49.606 83.5668 49.7193 83.5235 49.8305 83.4519L50.198 83.2156L50.5655 82.9881C50.8771 82.7876 51.2012 82.6145 51.5455 82.4894L51.948 82.3494L52.3418 82.2094C52.7306 82.0684 53.1347 81.9932 53.5493 81.9906H54.4243C54.6208 81.9894 54.7705 81.9638 54.8793 81.9294L54.888 81.9206L54.8968 81.7981L55.203 81.4919L55.2293 81.4569L55.1768 81.1244L55.098 80.7044C55.0521 80.4433 54.9997 80.1742 54.9405 79.9081L54.8443 79.4881L54.7568 79.0681C54.6475 78.5769 54.6729 78.0791 54.8443 77.6069L54.993 77.1956L55.1418 76.7931C55.1751 76.7013 55.2263 76.4485 55.2293 75.9619L55.238 75.1744V75.1219L55.2468 75.0169C55.2805 74.4013 55.803 73.9268 56.4193 73.9581ZM55.9205 83.9419L55.5618 84.0556C55.202 84.1706 54.8258 84.2281 54.4418 84.2306H53.5668C53.397 84.2317 53.2415 84.2592 53.103 84.3094L52.9018 84.3794C52.9746 84.3897 53.0483 84.4159 53.1205 84.4231L53.5405 84.4669L53.9605 84.5019C54.1327 84.519 54.3053 84.5175 54.4768 84.4844L54.888 84.3969L55.308 84.3181C55.6342 84.2551 55.9668 84.2147 56.2968 84.1956L56.5243 84.1781L56.3405 84.0556L56.0955 83.8806L55.9205 83.9419Z" fill="#FF4500"/>
<path d="M3.03827 30.3186C3.452 30.2128 3.8805 30.2324 4.29573 30.3743L4.72756 30.5264L5.08579 30.6519C5.15691 30.658 5.22847 30.6659 5.29945 30.671L5.45995 30.6875L5.8393 30.6168L6.26109 30.5322C6.66563 30.454 7.07447 30.4439 7.48233 30.5041L7.91269 30.5683L8.33436 30.6336C8.35528 30.6367 8.38672 30.6397 8.454 30.602L8.85853 30.3697L9.25538 30.1471L9.69208 29.964C9.98519 29.8744 10.2884 29.8477 10.5913 29.8941L11.0462 30.0172L11.48 30.1867L11.9042 30.3486C12.0106 30.3897 12.0799 30.3931 12.1285 30.3841L12.5416 30.3005L12.9634 30.216C13.285 30.1526 13.6094 30.1149 13.9358 30.0936L14.7742 30.0309C15.0558 30.0126 15.342 30.0014 15.6233 29.9845L16.0425 29.9532L16.4627 29.9305C16.886 29.9052 17.3021 29.9647 17.7063 30.0935L18.1264 30.2206L18.5475 30.3564C18.6652 30.3939 18.7675 30.4046 18.8685 30.3894L19.7161 30.2551C20.1122 30.1932 20.5103 30.1923 20.9056 30.2571L21.3186 30.3234L21.7413 30.3973C21.8222 30.4101 21.923 30.4049 22.0542 30.3608L22.9183 30.066C23.3351 29.9256 23.7715 29.9056 24.1896 30.0143L24.6041 30.1685L24.9965 30.3605L25.3976 30.5515C25.5624 30.6309 25.7271 30.681 25.8913 30.7053L26.313 30.7705L26.7336 30.8271C26.9103 30.8532 27.0875 30.8599 27.2632 30.8357L27.6794 30.7783L28.1042 30.7198C28.4688 30.6695 28.8367 30.6549 29.2017 30.6885L30.039 30.7668C30.385 30.7988 30.7279 30.8606 31.0653 30.9553L31.4757 31.0747L31.8947 31.1931C32.0554 31.2379 32.2155 31.2583 32.3773 31.2513L32.7975 31.2286L33.2274 31.2136C33.4317 31.2045 33.6358 31.1673 33.8414 31.1154L34.6809 30.9116C35.1276 30.7991 35.5846 30.789 36.0345 30.8856L36.884 31.0683C36.9388 31.0792 37.1559 31.0884 37.6237 30.9906L38.4065 30.8287L38.5184 30.8068L38.6421 30.81L38.7387 30.8075C39.3553 30.8106 39.8564 31.3117 39.8563 31.9279C39.8541 32.5025 39.4132 32.9517 38.8556 33.0138L38.8653 33.0215L38.0825 33.1834C37.5157 33.3019 36.924 33.3664 36.4084 33.2557L35.5589 33.0731C35.4433 33.0486 35.3347 33.0491 35.2246 33.0769L34.8059 33.1875L34.3861 33.2894C34.0355 33.3777 33.6801 33.4334 33.3212 33.4491L32.9 33.463L32.4711 33.4867C32.0697 33.5039 31.6698 33.4524 31.2827 33.3437L30.8733 33.2329L30.4629 33.1135C30.2531 33.0545 30.0421 33.0214 29.8332 33.0021L28.996 32.9237C28.8034 32.906 28.6053 32.9123 28.4076 32.9396L27.9915 32.997L27.5666 33.0555C27.1802 33.1087 26.7892 33.1076 26.4032 33.0505L25.5598 32.92C25.163 32.861 24.7805 32.7445 24.4176 32.5689L23.6328 32.1849L23.6338 32.1936L23.2017 32.341L22.7686 32.4797C22.556 32.5513 22.3357 32.5946 22.1152 32.6177C22.2158 32.6623 22.3253 32.6927 22.4213 32.7493L22.8004 32.9781L23.1785 33.1982C23.1847 33.198 23.2045 33.1966 23.222 33.1931L23.6862 33.0948L24.1515 33.0052C24.6187 32.9075 25.0816 32.9558 25.4993 33.1561L25.8979 33.4002L26.257 33.6842L26.6248 33.9672C26.6818 34.0113 26.7103 34.0154 26.7362 34.0158L27.1769 34.0172L27.6088 34.0196C27.7987 34.0208 28.0008 34.0016 28.2085 33.9495L28.6446 33.8369L29.0894 33.7233C29.5104 33.6179 29.9451 33.5919 30.3771 33.6609L30.7717 33.7205L31.1673 33.7888C31.5167 33.8448 31.8635 33.9388 32.2048 34.0728L32.6202 34.2357L33.0367 34.4073C33.1309 34.4444 33.2047 34.4445 33.2688 34.433L33.6829 34.3582L34.1057 34.2824C34.4525 34.2207 34.8019 34.1906 35.1527 34.1953L35.5759 34.1987L35.9905 34.2031C36.3548 34.208 36.7184 34.255 37.0725 34.341L37.4809 34.443L37.8254 34.5261L38.2343 34.5576L38.3329 34.5725C38.9471 34.6199 39.4059 35.1506 39.362 35.7649C39.3463 35.9749 39.2582 36.1586 39.1448 36.3189L39.0618 36.6633L38.3649 36.8064L38.3128 36.8125C38.1134 36.8535 37.9337 36.8363 37.9099 36.8331C37.8477 36.8259 37.7806 36.811 37.73 36.8013C37.6268 36.7815 37.5001 36.7554 37.3595 36.7213L36.5428 36.5172C36.3522 36.471 36.1576 36.4467 35.9616 36.4441L35.5471 36.4397L35.1238 36.4363C34.9152 36.4335 34.7046 36.4459 34.495 36.4833L34.0809 36.5582L33.6581 36.634C33.1658 36.7217 32.6809 36.6648 32.2223 36.4846L31.3914 36.1588C31.1814 36.0761 30.9834 36.0258 30.8088 35.9979L30.4142 35.9382L30.0186 35.8699C29.925 35.8555 29.8004 35.8557 29.6341 35.8972L28.7445 36.1245C28.3641 36.2194 27.9755 36.2623 27.5886 36.2596L26.7247 36.2548C26.1729 36.251 25.6694 36.0624 25.2453 35.7317L24.8861 35.4477L24.5669 35.2031L24.1451 35.2876L23.6808 35.3859C23.1222 35.5019 22.5575 35.4273 22.0473 35.1275L21.6605 34.9084L21.2814 34.6796C21.1875 34.6243 21.1089 34.6035 21.0346 34.6027L20.62 34.5983L20.1967 34.5949C19.9678 34.5925 19.7323 34.6033 19.4964 34.6327L19.0716 34.6912L18.6457 34.7409C18.2049 34.7958 17.7624 34.7613 17.3377 34.6295L16.935 34.5003L16.5246 34.3809C16.2449 34.2941 15.9663 34.2018 15.6911 34.1083L15.296 33.9694L14.8923 33.8316C14.8177 33.8067 14.7325 33.7988 14.6178 33.8196L13.7374 33.9754C13.2397 34.0658 12.7385 34.0246 12.2669 33.83L11.8688 33.6651L11.4697 33.4915C11.3076 33.4246 11.1468 33.3919 10.9898 33.3802L10.1546 33.3192C9.97215 33.3056 9.78321 33.315 9.59431 33.3494L9.1715 33.4253L8.75739 33.5001C8.27829 33.5875 7.79814 33.5458 7.34304 33.3834L6.91991 33.2303L6.50648 33.0848C6.32116 33.0185 6.1443 32.9831 5.97341 32.9708L5.5558 32.9404L5.32476 32.9233C5.16153 32.9228 5.0036 32.9034 4.84326 32.8738C4.64488 32.8562 4.44552 32.8447 4.24676 32.8202L3.82712 32.7723L3.40646 32.7158C3.29998 32.7026 3.24981 32.7152 3.2393 32.7177L2.63387 32.9646C2.58514 32.9844 2.52826 33.001 2.48149 33.0177C2.46857 33.0222 2.44672 33.0348 2.42269 33.0421C2.41323 33.045 2.34016 33.0664 2.2509 33.0798C2.23498 33.0824 2.05841 33.1127 1.84401 33.0657C1.7386 33.0424 1.4228 32.9577 1.18646 32.6404C0.903023 32.2583 0.949035 31.8447 1.02318 31.62C1.08775 31.4255 1.18952 31.2973 1.22693 31.2526C1.27491 31.1954 1.32039 31.1549 1.3451 31.1331C1.39349 31.0904 1.4305 31.0543 1.44895 31.0416C1.53689 30.9814 1.64806 30.9333 1.65606 30.9293L2.23238 30.6594L2.63228 30.4629L3.03827 30.3186Z" fill="#FF4500"/>
<path d="M51.617 32.3102C52.0758 32.5117 52.3073 32.9833 52.2557 33.4565L52.3345 34.0865C52.4093 34.6782 52.4193 35.3519 52.142 35.9152L51.9495 36.309L51.757 36.694C51.6889 36.8319 51.6469 36.9717 51.6345 37.114L51.5995 37.5427L51.5645 37.9627C51.527 38.3949 51.4055 38.8117 51.2057 39.1965L50.8032 39.9665C50.5834 40.3887 50.2709 40.7427 49.8757 41.0077L49.517 41.244L49.1495 41.489C48.9072 41.6515 48.6676 41.8083 48.432 41.9615L47.732 42.4165C47.4992 42.5678 47.2555 42.723 47.0145 42.8802L46.297 43.3527C45.9319 43.5909 45.5277 43.7575 45.0982 43.834L44.6782 43.904L44.2582 43.9827C43.8877 44.0484 43.5098 44.0675 43.1295 44.044L42.6832 44.0177L42.5782 44.009C42.5164 44.2476 42.3977 44.4717 42.1845 44.6302L42.1057 44.6915L40.9682 45.5227L40.9507 45.654L40.8545 46.109C40.7334 46.6745 40.4233 47.1693 39.927 47.509L39.5682 47.754L39.2007 48.0077C38.981 48.1583 38.7754 48.3049 38.5882 48.454L37.9582 48.9615C37.5517 49.2853 37.0675 49.4541 36.5495 49.4602L36.1382 49.469H35.7357C35.6151 49.4703 35.4631 49.4953 35.2807 49.5652L34.8432 49.7315L34.4145 49.8977C34.1438 50.0016 33.7252 50.1001 33.277 49.9415C32.7882 49.7668 32.5128 49.3783 32.3845 49.049L32.2445 48.6815L32.0957 48.3052C31.9548 47.9431 31.8792 47.565 31.8682 47.1765L31.8507 46.7915L31.842 46.4065C31.8283 45.8941 31.9888 45.4209 32.2795 45.0152L32.5157 44.6827L32.752 44.359C33.0217 43.9835 33.3746 43.694 33.7845 43.4927L34.1607 43.309L34.5457 43.1165C34.9777 42.9051 35.4425 42.8146 35.9195 42.8452L36.357 42.8715L36.7945 42.9065C36.9851 42.9187 37.1571 42.9049 37.3107 42.8715L38.0982 42.6965C38.5207 42.6047 38.9539 42.6038 39.3757 42.6877L39.7957 42.7752L40.1107 42.8277L40.4257 42.574L40.7932 42.2765C41.2392 41.9097 41.7819 41.7155 42.377 41.7515L43.2695 41.804C43.4793 41.8169 43.6771 41.8108 43.8645 41.7777L44.2845 41.699L44.7045 41.629C44.8331 41.6062 44.9548 41.5567 45.072 41.4802L45.7895 41.0077C46.0311 40.8501 46.2734 40.6958 46.507 40.544L47.207 40.089C47.4356 39.9403 47.6708 39.7837 47.907 39.6252L48.2657 39.389L48.6245 39.144C48.7085 39.0876 48.771 39.0217 48.817 38.934L49.2195 38.164C49.2859 38.0362 49.3215 37.9054 49.3332 37.7702L49.3682 37.3415L49.4032 36.9215C49.4401 36.4965 49.5558 36.0878 49.7445 35.7052L49.937 35.3115L50.1295 34.9265C50.1131 34.9603 50.1303 34.9427 50.1382 34.839C50.1458 34.7369 50.139 34.5805 50.112 34.3665L50.0157 33.5702L49.972 33.264L50.1032 32.984L50.1382 32.8877C50.3865 32.3212 51.0505 32.0619 51.617 32.3102ZM38.6495 45.6627L38.6582 45.6452L38.7632 45.1815L38.8245 44.884C38.7345 44.8759 38.6546 44.8681 38.5795 44.884L38.177 44.9715L37.7832 45.059C37.411 45.1397 37.0305 45.1629 36.6457 45.1377L36.2082 45.1115L35.7795 45.0852C35.6814 45.0788 35.5995 45.0928 35.5257 45.129L35.1495 45.3127L34.7645 45.5052C34.6707 45.5519 34.6143 45.6045 34.572 45.6627L34.3357 45.9952L34.0995 46.319L34.082 46.3452L34.0907 46.7302L34.1082 47.1152C34.1118 47.2347 34.135 47.358 34.187 47.4915L34.2132 47.5702L34.4757 47.474C34.8719 47.322 35.2876 47.2335 35.7095 47.229H36.112L36.5232 47.2202C36.5334 47.2201 36.5469 47.2207 36.5495 47.2202L36.5582 47.2115L36.8732 46.9577L37.197 46.704C37.4302 46.5183 37.6795 46.3315 37.9407 46.1527L38.6495 45.6627Z" fill="#FF4500"/>
<path d="M44.3706 32.4911C44.5908 32.5074 44.8076 32.5491 45.0164 32.6171L45.2526 32.6906L45.4836 32.7693C45.6239 32.815 45.7662 32.8549 45.9089 32.8901L46.1504 32.9478L46.3866 33.0056C46.5729 33.0514 46.763 33.1092 46.9484 33.1788L47.1899 33.2733L47.4314 33.3626C47.709 33.4668 47.947 33.6385 48.1296 33.8718L48.2871 34.0766L48.4499 34.2813C48.562 34.4246 48.6656 34.5678 48.7649 34.7066L48.9066 34.9008L49.0484 35.1003C49.1019 35.1753 49.1531 35.2569 49.1954 35.3366C49.2168 35.3771 49.2428 35.4321 49.2636 35.4941C49.2815 35.5473 49.3154 35.6564 49.3056 35.7933L49.3004 35.8563L49.2951 35.9141C49.2742 36.206 49.0924 36.3792 48.9906 36.4496C48.8904 36.5189 48.7878 36.5498 48.7334 36.5651C48.6185 36.5971 48.4915 36.6107 48.3869 36.6176L48.1139 36.6333L47.8356 36.6543C47.7506 36.66 47.7065 36.6809 47.6834 36.6963L47.4839 36.8276L47.2791 36.9641C47.0755 37.0994 46.8504 37.1918 46.6124 37.2476L46.3709 37.3053L46.1241 37.3631C45.921 37.4107 45.7133 37.4417 45.5046 37.4523L45.2526 37.4628L45.0006 37.4786C44.7066 37.4935 44.4233 37.4265 44.1659 37.2896L43.9349 37.1688L43.7039 37.0428C43.589 36.9816 43.4805 36.938 43.3836 36.9116L43.1579 36.8538L42.9321 36.7908C42.6165 36.7045 42.3615 36.511 42.1866 36.2448L42.0554 36.0401L41.9189 35.8353C41.8586 35.7439 41.7793 35.6515 41.6826 35.5571L41.4936 35.3681L41.2994 35.1791C41.0331 34.9186 40.8919 34.5681 40.9424 34.1763L40.9739 33.9243L41.0054 33.6776L41.0789 33.3993C41.1167 33.3058 41.1716 33.213 41.2469 33.1263C41.4032 32.9465 41.6028 32.8493 41.7981 32.8113L42.0186 32.7693L42.2444 32.7273C42.3791 32.7012 42.5227 32.6703 42.6749 32.6328L42.9164 32.5698L43.1631 32.5121C43.3941 32.4553 43.6294 32.4317 43.8666 32.4491L44.3706 32.4911ZM43.4834 33.8141L43.2419 33.8771L42.9951 33.9348C42.8229 33.9772 42.656 34.0142 42.4964 34.0451L42.3074 34.0766V34.0976L42.2864 34.2603L42.6224 34.5963C42.7819 34.7522 42.9238 34.9199 43.0424 35.1003L43.1789 35.3051L43.2996 35.4941L43.5149 35.5571L43.7406 35.6148C43.944 35.6704 44.1415 35.7539 44.3339 35.8563L44.5649 35.9823L44.7959 36.1031C44.8461 36.1299 44.8895 36.1368 44.9324 36.1346L45.1844 36.1241L45.4364 36.1083C45.5646 36.1018 45.6903 36.0849 45.8144 36.0558L46.3079 35.9403C46.3956 35.9197 46.4694 35.8882 46.5336 35.8458L46.7384 35.7093L46.9379 35.5781C47.13 35.4502 47.3438 35.3786 47.5626 35.3418C47.5069 35.2668 47.4502 35.1885 47.3894 35.1108L47.2319 34.9061L47.0691 34.7013C47.0384 34.6622 47.0049 34.6399 46.9589 34.6226L46.7174 34.5281L46.4759 34.4388C46.3373 34.3868 46.1986 34.3454 46.0664 34.3128L45.8301 34.2551L45.5886 34.1921C45.4139 34.1491 45.2403 34.1009 45.0689 34.0451L44.8326 33.9716L44.6016 33.8928C44.4977 33.859 44.3859 33.8384 44.2709 33.8298L44.0189 33.8088L43.7669 33.7931C43.6705 33.7862 43.5765 33.7912 43.4834 33.8141Z" fill="#FF4500"/>
<path d="M43.7806 32.8434C44.0763 32.6191 44.5013 32.679 44.7256 32.9747L44.7833 33.0534L44.9461 33.2634L44.9198 33.5259L44.8726 33.9407L44.9566 33.8829L44.9513 33.8987L45.0983 33.7884L45.1036 33.7779L45.2243 33.6939C45.1768 33.6475 45.1505 33.608 45.1456 33.6047L45.1613 33.5679L45.2716 33.5994C45.379 33.6275 45.4744 33.6725 45.5603 33.7254L45.7913 33.9039L45.8911 34.0089L45.9908 34.1087C46.0673 34.1856 46.1621 34.3123 46.2008 34.4919C46.242 34.6853 46.2015 34.8684 46.1273 35.0064C46.0055 35.231 45.799 35.3427 45.7073 35.3897L45.2768 35.6102C45.1055 35.6976 44.876 35.7597 44.6206 35.6994C44.3666 35.6394 44.1884 35.4811 44.0746 35.3319L43.9276 35.1377L43.7753 34.9434C43.5175 34.6052 43.5057 34.1757 43.5391 33.8357L43.5653 33.5889C43.4757 33.3232 43.5452 33.0226 43.7806 32.8434ZM45.0983 33.7884L44.9513 33.8987L44.9566 33.8829L45.1036 33.7779L45.0983 33.7884ZM45.1613 33.5679L45.1456 33.6047C45.1036 33.5765 45.066 33.5559 45.0458 33.5469L45.0511 33.5417L45.1613 33.5679ZM45.0511 33.5417L45.0458 33.5469L44.9828 33.5259C44.9748 33.5233 44.9715 33.519 44.9776 33.5207C44.9895 33.524 45.015 33.5323 45.0511 33.5417Z" fill="#FF4500"/>
<path d="M47.3806 2.80774C47.5391 2.24132 47.584 1.87937 47.652 1.78956L47.7881 1.44937C47.7432 1.5868 47.7657 1.65416 47.7769 1.977C47.7881 2.86115 47.765 3.49185 47.7313 3.68542C47.6969 4.24027 47.5708 5.75253 47.7204 6.6328C47.7881 7.03116 47.7925 7.44232 47.8677 7.89184C47.9017 8.09527 47.8485 9.27463 47.9357 10.8899C47.9698 11.5196 48.0258 11.7007 48.0606 11.9173C48.1283 12.3381 48.2391 12.7882 48.2531 14.5969C48.2644 16.0407 48.2644 18.7125 48.2644 19.9559C48.2644 21.1993 48.2644 21.0197 48.2759 20.8952C48.2875 20.7706 48.3098 20.7033 48.3327 20.6118C48.4467 20.157 48.7388 19.219 48.8658 18.5251C48.9447 18.0941 49.0173 17.5926 49.0924 17.1531C49.172 16.687 49.2908 16.051 49.3645 15.463C49.3986 15.1916 49.6943 14.2347 50.0007 12.9307C50.2157 12.0156 50.3743 11.3775 50.4531 10.9168C50.5096 10.5868 50.5497 10.0876 50.646 9.6353C50.7137 9.31722 50.7465 8.99933 50.7933 8.65998C50.8498 8.25039 50.9097 7.65629 51.0542 6.93557C51.1451 6.48278 51.3064 5.89856 51.5081 5.04175C51.6445 4.46207 51.8568 3.73354 52.0867 3.04519C52.348 2.2631 52.5982 0.603317 52.914 1.08673C52.959 1.15545 52.9571 1.38423 53.0386 2.62029C53.095 3.47689 53.1344 4.55789 53.1746 4.96589C53.2311 5.53842 53.3965 6.80129 53.4583 7.46252C53.5713 8.67087 53.5885 9.80414 53.4917 10.3184C53.4577 10.499 53.5232 11.772 53.4236 13.5668C53.3672 14.5847 53.3399 15.128 53.2876 15.4549C53.2311 15.808 53.1225 16.3934 53.1063 17.3603C53.095 18.0301 53.1134 19.2656 53.0835 19.9287C53.0494 20.6822 53.0541 20.8911 53.0154 21.0908C52.9358 21.5014 52.8108 22.0447 52.7433 22.4294C52.6637 22.8825 52.597 24.5684 52.6756 25.7187C52.7331 26.5606 52.8174 27.3737 52.8913 27.9064C52.959 28.3949 53.0685 28.8438 53.0838 29.8809C53.095 30.6429 53.095 32.0349 53.0603 32.7194C53.0256 33.4038 52.9583 33.3814 52.8899 33.3586C52.7542 33.3134 52.6152 33.2731 52.447 33.1994C51.9819 32.9956 51.6784 32.8775 51.3584 32.7459C50.9165 32.5643 50.5827 32.4616 50.134 32.2129C49.8279 32.0431 49.5182 31.9355 48.5341 31.5209C48.1038 31.3396 47.8006 31.1331 47.253 31.0681C46.6736 30.9994 46.2172 30.909 45.7449 30.83C45.2694 30.7504 44.8459 30.7721 44.4077 30.6371C44.1127 30.5463 43.4503 30.7273 43.4218 30.3068C43.3888 29.8196 43.4175 28.362 43.4905 27.3016C43.5249 26.8029 43.7721 26.3843 43.8879 25.8163C43.978 25.3741 43.9736 25.0529 44.0576 24.4443C44.1141 24.0351 44.1199 23.5355 44.1937 22.5954C44.2502 21.8756 44.2247 20.9654 44.3529 20.3148C44.5223 19.4548 44.5984 18.9597 44.6472 18.4118C44.6815 18.026 44.738 17.6651 44.7832 17.084C44.8407 16.3455 44.9422 15.7534 45.0669 15.1001C45.1578 14.6241 45.2532 14.1267 45.3959 13.558C45.5211 13.0593 45.7321 12.1937 45.8266 11.5856C45.8831 11.2223 45.8911 10.8566 45.9742 10.2119C46.0872 9.33627 46.1025 8.65453 46.3403 7.55641C46.5253 6.70186 46.9014 5.13365 47.0642 4.2981C47.2438 3.37619 47.2918 3.12494 47.3806 2.80774Z" fill="#FF4500"/>
<path d="M53.1785 0.32275C53.5435 0.416763 53.6617 0.731561 53.6825 0.79L53.735 1.06825L53.7612 1.36225L53.7875 1.651C53.8061 1.85748 53.819 2.05515 53.8242 2.239L53.8347 2.491L53.84 2.743C53.8439 2.88478 53.8564 3.02706 53.8767 3.16825L53.9502 3.67225C53.9781 3.86613 53.9943 4.06056 53.9975 4.255V4.507L54.0027 4.759C54.0052 4.91255 54.0129 5.06651 54.0237 5.221L54.0395 5.473L54.0605 5.725C54.0727 5.89928 54.0801 6.0747 54.0867 6.25L54.1077 6.754C54.1151 6.9511 54.1101 7.1497 54.092 7.34725L54.0657 7.6045L54.0447 7.8565C54.0319 7.9947 54.0275 8.13247 54.0342 8.266L54.0447 8.518L54.0605 8.76475C54.0667 8.88761 54.0814 9.01761 54.113 9.148L54.239 9.652C54.2908 9.86633 54.3188 10.0862 54.323 10.303L54.3335 10.7965C54.3381 11.0368 54.2992 11.274 54.2285 11.5052L54.155 11.7572L54.0762 12.0092C54.0387 12.1316 54.017 12.251 54.008 12.3662L53.966 12.8702C53.9533 13.0346 53.9459 13.1993 53.9345 13.3637L53.9135 13.6157L53.8977 13.8677C53.8875 14.0144 53.8841 14.1614 53.8872 14.3087L53.8977 14.8127C53.9015 14.9948 53.9007 15.177 53.8925 15.3587L53.8767 15.6107L53.8662 15.8627C53.8579 16.0446 53.8442 16.2273 53.8242 16.4087L53.798 16.6607L53.7665 16.9127C53.7492 17.0695 53.7399 17.2277 53.7297 17.3852L53.7087 17.6372L53.693 17.8892C53.6823 18.0539 53.6754 18.2185 53.6667 18.3827L53.651 18.6347L53.6405 18.8867C53.6335 19.0189 53.6373 19.153 53.651 19.2857L53.7035 19.7897C53.7246 19.9937 53.7262 20.2001 53.714 20.404L53.6825 20.908C53.6714 21.0903 53.6538 21.2722 53.63 21.454L53.5985 21.706L53.567 21.9527C53.5364 22.1851 53.4727 22.4133 53.378 22.63L53.2677 22.8715L53.1627 23.1182C53.1444 23.1607 53.1412 23.1928 53.147 23.2285L53.1942 23.4857L53.2362 23.743C53.2764 23.9766 53.2808 24.2118 53.252 24.4465L53.2205 24.6985L53.1942 24.9505C53.1883 24.9988 53.1898 25.0513 53.2152 25.1132L53.3202 25.36L53.42 25.6067C53.5188 25.8461 53.5709 26.0982 53.5722 26.3575V26.6095L53.5775 26.8615C53.578 27.0144 53.5824 27.1715 53.5932 27.3235L53.609 27.5702L53.63 27.8222C53.6421 27.993 53.652 28.165 53.6615 28.3367L53.6772 28.5887L53.6877 28.8407C53.6971 29.0103 53.7056 29.1811 53.714 29.35L53.7297 29.602L53.7402 29.854C53.7474 29.9982 53.7604 30.1442 53.7822 30.2897L53.819 30.5417L53.861 30.7937C53.9044 31.085 53.8677 31.374 53.7612 31.6442L53.6615 31.891L53.5617 32.143C53.5191 32.251 53.4993 32.3467 53.4935 32.4317L53.4777 32.6785L53.462 32.92C53.4528 33.0595 53.4202 33.2479 53.3097 33.424C53.1836 33.6246 52.982 33.7623 52.7427 33.8072L52.5852 33.8387L52.433 33.865C52.1699 33.9141 51.9124 33.8615 51.7032 33.7915L51.4617 33.7127L51.2255 33.634C50.9563 33.5438 50.7215 33.3893 50.5272 33.1877L50.3382 32.9882L50.1545 32.8045L49.8972 32.8097H49.619C49.274 32.811 48.9507 32.6934 48.6897 32.458L48.4902 32.2795L48.296 32.101C48.2212 32.0336 48.1435 31.9845 48.065 31.954L47.8287 31.8647L47.5925 31.7702C47.5244 31.7438 47.4517 31.7347 47.372 31.7387L47.1147 31.7492L46.8522 31.765C46.6001 31.7778 46.3521 31.7429 46.112 31.6652L45.8652 31.5865L45.6237 31.5077C45.4765 31.4601 45.3292 31.4192 45.1827 31.3817L44.936 31.3187L44.6945 31.2557C44.6457 31.2434 44.5747 31.2399 44.474 31.261L44.1957 31.3187L43.9122 31.3765C43.7291 31.4144 43.4187 31.4318 43.1457 31.2137C42.8752 30.9975 42.8213 30.6931 42.815 30.5102L42.8045 30.2162L42.794 29.9275C42.787 29.7271 42.7836 29.5369 42.7835 29.3605V28.8565C42.7832 28.7332 42.7713 28.6073 42.7467 28.4785L42.6995 28.2212L42.647 27.9692C42.5848 27.645 42.6356 27.3231 42.7887 27.0347L42.9147 26.8037L43.0407 26.5675C43.0974 26.4607 43.1366 26.3538 43.1615 26.2472L43.2192 25.9952L43.277 25.7485C43.3123 25.5964 43.3404 25.4439 43.3662 25.2917L43.4135 25.0397L43.4555 24.793C43.4858 24.6139 43.5194 24.4317 43.5605 24.2522L43.6182 24.0055L43.676 23.7535C43.6808 23.7324 43.6835 23.7008 43.6602 23.6432L43.5552 23.386L43.4502 23.1235C43.3169 22.7929 43.3106 22.4364 43.4555 22.0997L43.5605 21.8582L43.6655 21.6115C43.6957 21.5413 43.7061 21.4817 43.7022 21.4277L43.6812 21.1757L43.6655 20.9237C43.6444 20.6422 43.6933 20.3667 43.8072 20.11L44.0172 19.6375V19.627C44.0173 19.6251 44.0179 19.6158 44.012 19.5955L43.9332 19.3277L43.8597 19.0652C43.7547 18.7081 43.8003 18.3451 43.991 18.0257L44.1327 17.7842L44.2745 17.548C44.3052 17.4964 44.3074 17.4651 44.306 17.443L44.2902 17.191L44.2692 16.9337C44.2559 16.7359 44.2576 16.5368 44.2692 16.3405L44.285 16.0885L44.3007 15.8417C44.3112 15.6648 44.3248 15.4833 44.3427 15.3062L44.3637 15.0542L44.39 14.8022C44.4172 14.5367 44.5034 14.2869 44.6367 14.0567L44.768 13.8257L44.8992 13.6C44.9372 13.5345 44.9578 13.4706 44.9622 13.4057L44.978 13.1537L44.9937 12.8965C45.0095 12.6664 45.0593 12.4423 45.1355 12.2245L45.2195 11.983L45.3035 11.7362C45.3092 11.7194 45.3131 11.6967 45.2982 11.647L45.2195 11.3845L45.1407 11.1167C45.0443 10.7953 45.0558 10.4597 45.1932 10.1455L45.3035 9.904L45.4085 9.6625C45.4593 9.54622 45.4927 9.43243 45.5135 9.32125L45.5607 9.0745L45.608 8.8225C45.6297 8.70433 45.6364 8.58371 45.6342 8.46025L45.629 8.203V7.94575C45.6249 7.72217 45.6469 7.5015 45.6972 7.28425L45.755 7.0375L45.8075 6.79075C45.8556 6.58329 45.9291 6.38254 46.0175 6.187L46.1225 5.95075L46.2275 5.71975C46.2697 5.62621 46.295 5.52885 46.3062 5.431L46.3377 5.179L46.364 4.927C46.3787 4.79723 46.3812 4.66442 46.3745 4.528L46.364 4.2655L46.3482 4.00825C46.3333 3.71375 46.3991 3.4284 46.5372 3.16825L46.658 2.93725L46.784 2.70625C46.8313 2.61735 46.8594 2.5282 46.8732 2.4385L46.91 2.1865L46.952 1.93975C46.9672 1.8408 46.9854 1.73563 47.015 1.6405C47.0343 1.57845 47.0932 1.38887 47.2565 1.2415L47.3142 1.189L47.3667 1.14175C47.398 1.11364 47.463 1.0624 47.5557 1.021C47.6492 0.979254 47.8326 0.923382 48.0492 0.99475C48.2721 1.06851 48.3897 1.23096 48.443 1.336C48.4929 1.43471 48.5108 1.52319 48.5165 1.567C48.5348 1.71106 48.5058 1.85487 48.4955 1.90825L48.4587 2.1025L48.422 2.2915C48.4165 2.32087 48.4089 2.38795 48.4272 2.5015L48.5112 3.0055C48.5443 3.21112 48.5605 3.41842 48.5585 3.625L48.5532 3.877V4.129C48.5512 4.32357 48.5361 4.51915 48.5112 4.71175L48.4797 4.9585L48.4482 5.2105C48.4266 5.37708 48.4021 5.5453 48.38 5.7145L48.317 6.2185C48.301 6.34003 48.2963 6.46262 48.3065 6.58075L48.3275 6.83275L48.3485 7.0795C48.356 7.1675 48.3817 7.26515 48.4272 7.36825L48.6477 7.86175C48.7737 8.14757 48.8122 8.45787 48.7475 8.77L48.695 9.022L48.6372 9.274C48.6111 9.39907 48.6018 9.52458 48.6005 9.64675L48.5952 9.89875V10.1507C48.5933 10.3524 48.5747 10.5569 48.5427 10.7597L48.5007 11.017L48.4587 11.2795C48.4529 11.3183 48.4614 11.3495 48.4797 11.3897L48.59 11.6312L48.695 11.8727C48.8023 12.1075 48.8671 12.355 48.8787 12.613L48.8892 12.865L48.8997 13.1222C48.9083 13.3203 48.9021 13.5179 48.884 13.7155L48.863 13.9675L48.8472 14.1512C48.9018 14.058 48.9596 13.9666 49.031 13.8835L49.2147 13.6682L49.367 13.4897L49.3302 13.2587L49.2777 12.9857C49.2227 12.6855 49.2479 12.3811 49.3722 12.0932L49.4772 11.857L49.577 11.6207C49.6285 11.5018 49.6695 11.3814 49.6977 11.2585L49.7555 11.0117L49.808 10.765C49.8406 10.6223 49.8678 10.4791 49.8867 10.3345L49.9182 10.0825L49.955 9.83575C49.9787 9.65322 50.0069 9.47051 50.0442 9.28975L50.0967 9.043L50.1492 8.791C50.169 8.69396 50.1747 8.59282 50.165 8.4865L50.1387 8.22925L50.1177 7.972C50.0905 7.67815 50.1377 7.38718 50.2647 7.1215L50.3802 6.8905L50.4905 6.65425C50.5454 6.5394 50.5847 6.42185 50.6112 6.30775L50.669 6.06625L50.7267 5.8195C50.7632 5.6626 50.7997 5.50526 50.8317 5.347L50.879 5.10025L50.9315 4.8535C50.9694 4.66567 51.0157 4.47945 51.0732 4.297L51.1467 4.0555L51.2255 3.81925C51.2835 3.63486 51.3503 3.45113 51.4302 3.27325L51.5352 3.037L51.6402 2.806C51.6801 2.71739 51.7089 2.6255 51.719 2.52775L51.74 2.2705L51.7662 2.0185C51.7942 1.74227 51.8901 1.47976 52.0287 1.2415L52.1705 0.99475L52.3175 0.748L52.4907 0.517C52.5406 0.467913 52.7966 0.224482 53.1785 0.32275ZM44.1275 29.3605C44.1276 29.5195 44.1315 29.6929 44.138 29.8802V29.9537L44.201 29.9432C44.473 29.8864 44.7514 29.8843 45.0252 29.9537L45.272 30.0167L45.5135 30.0797C45.6889 30.1246 45.8638 30.1754 46.0385 30.232L46.28 30.3107L46.5267 30.3895C46.6082 30.4156 46.6928 30.4256 46.784 30.421L47.0412 30.4052L47.3037 30.3947C47.5688 30.3813 47.8275 30.4245 48.0755 30.5207L48.317 30.61L48.5532 30.7045C48.7905 30.797 49.0043 30.9327 49.1937 31.1035L49.5927 31.4605H49.598C49.6008 31.4609 49.6056 31.4658 49.6137 31.4657H49.892L50.165 31.4605C50.4369 31.4595 50.6929 31.5371 50.9105 31.6862L51.1205 31.8647L51.3042 32.059L51.4932 32.2532C51.5496 32.3118 51.6024 32.342 51.6507 32.3582L51.887 32.437L52.1285 32.521H52.1337L52.1495 32.3477C52.165 32.1093 52.2235 31.8746 52.3122 31.6495L52.412 31.3975L52.5065 31.1507C52.5313 31.0877 52.5391 31.0375 52.5327 30.9932L52.4907 30.7412L52.454 30.4892C52.4255 30.2994 52.4056 30.1072 52.3962 29.917L52.3752 29.413C52.3671 29.2474 52.3581 29.0805 52.349 28.9142L52.3175 28.4102L52.2702 27.67L52.2545 27.418C52.2414 27.2357 52.2341 27.0499 52.2335 26.8667L52.2282 26.6147V26.3627C52.2277 26.2876 52.2119 26.209 52.1757 26.1212L51.9762 25.6277C51.8663 25.3615 51.8199 25.0768 51.8555 24.7877L51.9185 24.2837C51.931 24.1813 51.9316 24.0752 51.9132 23.9687L51.866 23.7167L51.824 23.4595C51.7716 23.1563 51.8118 22.857 51.9342 22.5775L52.0392 22.336L52.1442 22.0892C52.1906 21.983 52.2202 21.8801 52.2335 21.7795L52.265 21.5275L52.3017 21.2807C52.3216 21.1294 52.3346 20.9753 52.3437 20.824L52.3595 20.572L52.3752 20.3252C52.383 20.1952 52.3783 20.0631 52.3647 19.9315L52.3122 19.4275C52.2913 19.2251 52.2858 19.0212 52.2965 18.8185L52.3122 18.5665L52.3227 18.3145C52.3317 18.1439 52.3431 17.9709 52.3542 17.8L52.3857 17.296C52.3972 17.1188 52.4135 16.9421 52.433 16.7657L52.4592 16.5137L52.4907 16.2617C52.5076 16.1087 52.5152 15.9529 52.5222 15.7997L52.538 15.553L52.5485 15.301C52.5555 15.1484 52.5569 14.992 52.5537 14.839L52.5432 14.335C52.5394 14.1476 52.5459 13.96 52.559 13.7732L52.5747 13.5212L52.5905 13.2745C52.6022 13.1056 52.6142 12.934 52.6272 12.7652L52.6482 12.5132L52.6692 12.2665C52.6861 12.0479 52.7248 11.8283 52.79 11.6155L52.9475 11.1115C52.9788 11.0083 52.9912 10.9124 52.9895 10.8227L52.979 10.3292C52.9768 10.216 52.9613 10.0955 52.9317 9.97225L52.8687 9.715L52.811 9.463C52.7606 9.25486 52.7271 9.04311 52.7165 8.833L52.706 8.58625L52.6902 8.33425C52.6802 8.13558 52.6874 7.93609 52.706 7.73575L52.727 7.4785L52.7532 7.2265C52.7662 7.08584 52.7689 6.94527 52.7637 6.8065L52.7427 6.3025C52.7366 6.14166 52.7276 5.97921 52.7165 5.8195L52.685 5.3155C52.6724 5.13666 52.6615 4.95828 52.6587 4.78L52.6535 4.528V4.276C52.6515 4.15735 52.6372 4.03873 52.622 3.919C52.5801 4.01947 52.5386 4.12133 52.5065 4.2235L52.433 4.45975L52.3542 4.70125C52.3114 4.83722 52.2776 4.97572 52.2492 5.116L52.1967 5.368L52.1495 5.61475C52.115 5.78534 52.0733 5.95479 52.034 6.124L51.9815 6.37075L51.9237 6.61225C51.8742 6.82485 51.7985 7.03235 51.7032 7.23175L51.593 7.468L51.4775 7.70425C51.4547 7.75235 51.4466 7.79603 51.4512 7.846L51.5037 8.3605C51.5255 8.59656 51.5094 8.83272 51.4617 9.064L51.4092 9.31075L51.362 9.56275C51.3314 9.71089 51.3027 9.85976 51.2832 10.009L51.2517 10.2557L51.2202 10.5077C51.1958 10.6947 51.1626 10.8802 51.1205 11.0642L51.005 11.5577C50.9581 11.7623 50.8946 11.9626 50.8107 12.1562L50.711 12.3925L50.606 12.6287C50.596 12.6527 50.5898 12.6852 50.6007 12.7442L50.648 13.0172L50.7005 13.2902C50.7702 13.673 50.6671 14.0374 50.417 14.3297L50.0495 14.7602C49.996 14.8229 49.9702 14.8751 49.9602 14.923L49.9077 15.175L49.8552 15.4322C49.8325 15.5424 49.8277 15.6528 49.8342 15.763L49.85 16.0202L49.8605 16.2722C49.8713 16.4547 49.8802 16.6415 49.8815 16.8235V17.0755L49.8867 17.3327C49.8881 17.541 49.8685 17.7476 49.8342 17.9522L49.7922 18.2042L49.7502 18.451C49.7209 18.6253 49.6866 18.8014 49.6505 18.976L49.6032 19.228L49.5507 19.48C49.4936 19.7555 49.3707 20.0061 49.199 20.2255L49.031 20.4407L48.9575 20.5247C48.9553 20.5347 48.9598 20.5466 48.9575 20.5562C48.948 20.5951 48.9291 20.6763 48.884 20.761C48.8614 20.8033 48.8108 20.88 48.7265 20.9552C48.6349 21.0368 48.4757 21.1377 48.2592 21.1337L48.2225 21.1285H48.1857C48.1036 21.1268 47.9783 21.1111 47.8497 21.034C47.7097 20.9491 47.6151 20.8216 47.5662 20.6927C47.4855 20.4801 47.5356 20.2969 47.5452 20.2622C47.5747 20.1571 47.6255 20.0754 47.6397 20.0522C47.6509 20.0339 47.6634 20.0137 47.6765 19.9945L47.687 19.8895L47.7132 19.6375C47.7246 19.5231 47.7242 19.4062 47.708 19.291L47.6345 18.787C47.6049 18.576 47.5952 18.3638 47.6082 18.1517L47.6397 17.6477C47.6452 17.5594 47.6361 17.4663 47.6082 17.3695L47.54 17.1175L47.4665 16.8655C47.3713 16.5355 47.4028 16.2042 47.54 15.8995L47.6502 15.6475L47.7657 15.3955L47.771 15.385L47.687 15.133L47.5977 14.881C47.5111 14.6284 47.4787 14.3657 47.5032 14.0987L47.5242 13.8467L47.5505 13.5947C47.5631 13.4569 47.5617 13.3178 47.5557 13.18L47.5347 12.676C47.5313 12.5977 47.5158 12.5143 47.477 12.4292L47.3667 12.193L47.2565 11.9515C47.1291 11.673 47.088 11.3731 47.1357 11.0695L47.1725 10.8122L47.2145 10.5497C47.2365 10.4097 47.2499 10.2734 47.2512 10.1402V9.88825L47.2565 9.63625C47.2585 9.4233 47.2808 9.21119 47.3247 9.001L47.4297 8.497C47.4345 8.47415 47.4329 8.45118 47.414 8.40775L47.3037 8.15575L47.1987 7.909C47.127 7.74641 47.0787 7.57731 47.0465 7.405L47.0045 7.58875C46.9795 7.69717 46.9655 7.81042 46.9677 7.92475L46.973 8.17675L46.9782 8.434C46.9822 8.64804 46.9645 8.85974 46.9257 9.06925L46.8837 9.316L46.8365 9.56275C46.796 9.78072 46.7272 9.99696 46.637 10.2032L46.427 10.6862C46.4245 10.6918 46.4221 10.6952 46.4217 10.6967C46.4217 10.6976 46.4207 10.7128 46.427 10.7335L46.5057 10.996L46.5897 11.2585C46.6802 11.5598 46.6809 11.8767 46.574 12.1825L46.49 12.424L46.4007 12.6655C46.364 12.7703 46.3452 12.8809 46.3377 12.991L46.322 13.243L46.301 13.5002C46.2821 13.775 46.2019 14.0345 46.0647 14.272L45.9335 14.503L45.797 14.7287C45.7551 14.801 45.7358 14.8702 45.7287 14.9387L45.6762 15.4427C45.6602 15.6014 45.6488 15.7622 45.6395 15.9205L45.6237 16.1725L45.608 16.4192C45.5997 16.5582 45.6036 16.7022 45.6132 16.8445L45.629 17.0965L45.6447 17.3537C45.666 17.6711 45.5873 17.9705 45.4295 18.2357L45.2877 18.4772L45.146 18.6925L45.2247 18.9497L45.3035 19.2175C45.3963 19.535 45.3839 19.8655 45.2457 20.1782L45.1407 20.4197L45.0357 20.656C45.0096 20.7152 45.0001 20.7692 45.0042 20.824L45.0252 21.076L45.041 21.328C45.0618 21.6101 45.0151 21.8846 44.9045 22.1417L44.7942 22.3885L44.6945 22.6195L44.7995 22.882L44.9045 23.1392C45.0212 23.428 45.0549 23.7396 44.9832 24.0527L44.8677 24.5567C44.8325 24.7107 44.8043 24.8663 44.7785 25.0187L44.7365 25.2655L44.6945 25.5175C44.6641 25.6966 44.6257 25.8748 44.5842 26.053L44.5265 26.2997L44.4687 26.5517C44.4164 26.7761 44.3363 26.9921 44.2272 27.1975L44.1012 27.4337L43.9752 27.6647C43.9681 27.6781 43.9655 27.6872 43.9647 27.691C43.9644 27.6928 43.9679 27.7003 43.97 27.712L44.0645 28.2265C44.1045 28.4359 44.1272 28.6459 44.1275 28.8565V29.3605Z" fill="#FF4500"/>
<path d="M10.0206 41.557C10.3267 41.4052 10.6652 41.3491 11.0138 41.3908L11.377 41.4378L11.6782 41.4763C11.7349 41.4692 11.7922 41.4634 11.8486 41.4556L11.9769 41.4417L12.2619 41.323L12.5778 41.1865C12.8813 41.0578 13.1995 40.9817 13.5286 40.9608L13.8761 40.9392L14.2169 40.9199C14.2338 40.9189 14.2589 40.916 14.3052 40.8753L14.583 40.626L14.8564 40.3857L15.1675 40.1695C15.3819 40.0506 15.6146 39.9791 15.8594 39.9649L16.2358 39.9853L16.6035 40.0456L16.9624 40.1014C17.0525 40.1158 17.1073 40.1069 17.1439 40.0917L17.4532 39.9575L17.7691 39.821C18.0101 39.7178 18.2576 39.6341 18.5094 39.563L19.1549 39.3741C19.3722 39.3128 19.5943 39.2563 19.8116 39.1961L20.1343 39.1017L20.4593 39.0138C20.7863 38.9235 21.1218 38.9005 21.4595 38.9339L21.8094 38.9633L22.1615 38.9993C22.2599 39.009 22.3417 39.0003 22.4182 38.9715L23.059 38.7251C23.3586 38.6105 23.6699 38.5434 23.99 38.5282L24.3242 38.5111L24.6672 38.4985C24.7326 38.495 24.8106 38.4741 24.9059 38.4177L25.5328 38.0429C25.8356 37.8635 26.1736 37.775 26.5189 37.7904L26.8689 37.8419L27.208 37.9266L27.5537 38.0091C27.6959 38.0438 27.8331 38.0555 27.9656 38.0471L28.3064 38.0278L28.645 38.0019C28.7875 37.9929 28.9273 37.9685 29.0608 37.9202L29.3768 37.8059L29.6994 37.6893C29.9763 37.5891 30.2617 37.5163 30.5529 37.4817L31.2211 37.4033C31.4972 37.3706 31.7758 37.3618 32.0555 37.3795L32.3965 37.4045L32.7442 37.4272C32.8773 37.4355 33.006 37.4247 33.1314 37.3922L33.4564 37.3044L33.7902 37.2209C33.9486 37.1797 34.1021 37.1166 34.2543 37.0417L34.8771 36.7422C35.2078 36.5796 35.5638 36.4955 35.9319 36.496L36.627 36.4972C36.6714 36.4967 36.8389 36.4694 37.1795 36.3175L37.7517 36.0648L37.8423 36.0267L37.9373 36.0019L38.0347 35.9838C38.5175 35.8833 38.9932 36.1918 39.096 36.6739C39.1916 37.1311 38.9123 37.5631 38.4743 37.6973L38.4831 37.7017L37.911 37.9544C37.4914 38.1415 37.0419 38.2886 36.6198 38.2881L35.9247 38.2868C35.8302 38.287 35.7452 38.3055 35.6638 38.3456L35.3546 38.502L35.0432 38.6518C34.7836 38.7793 34.5148 38.8822 34.2366 38.9543L33.9093 39.0355L33.5777 39.1256C33.2666 39.206 32.9451 39.2325 32.6241 39.212L32.2853 39.1936L31.9443 39.1686C31.7702 39.1575 31.5996 39.1668 31.433 39.1865L30.7649 39.2649C30.6112 39.2831 30.4573 39.3211 30.3072 39.3754L29.9911 39.4898L29.6685 39.6064C29.375 39.7125 29.0689 39.7769 28.7574 39.7966L28.0757 39.8352C27.7554 39.8553 27.4367 39.8279 27.1235 39.751L26.4453 39.5815L26.4476 39.5882L26.1341 39.7755L25.8184 39.9563C25.664 40.0478 25.4988 40.1185 25.3302 40.1733C25.4163 40.1914 25.5071 40.197 25.5917 40.2252L25.9265 40.341L26.259 40.4501C26.2638 40.4489 26.2791 40.4445 26.2922 40.4389L26.639 40.2846L26.988 40.1368C27.3373 39.9824 27.7075 39.943 28.0678 40.03L28.4203 40.1545L28.7487 40.3168L29.0837 40.4769C29.1356 40.5019 29.1587 40.5004 29.179 40.4963L29.524 40.4239L29.8623 40.3537C30.0111 40.323 30.166 40.2742 30.3198 40.1989L30.6423 40.038L30.9713 39.8749C31.2832 39.7222 31.6189 39.6293 31.9685 39.6112L32.2871 39.5921L32.6081 39.5795C32.8908 39.565 33.1778 39.5807 33.4672 39.6286L33.8194 39.6868L34.1739 39.7515C34.2537 39.7648 34.3115 39.7526 34.3597 39.733L34.6713 39.6053L34.9894 39.4755C35.2504 39.3694 35.5188 39.2875 35.7941 39.2327L36.1258 39.1647L36.4509 39.099C36.7368 39.042 37.0291 39.0182 37.3205 39.0264L37.657 39.0381L37.947 39.0434L38.3453 38.9973C38.7718 38.9402 39.1518 39.1961 39.291 39.5861L39.8762 40.2453L38.7429 40.7397L38.7032 40.7532C38.554 40.8186 38.4105 40.835 38.3914 40.8366C38.3415 40.8413 38.2866 40.8408 38.2454 40.8417C38.1613 40.8434 38.0578 40.8441 37.9421 40.8409L37.269 40.8174C37.1123 40.813 36.9559 40.8266 36.8021 40.8572L36.477 40.9229L36.1453 40.9909C35.9817 41.0235 35.8189 41.0684 35.6612 41.1326L35.3497 41.2602L35.0315 41.3901C34.6609 41.5408 34.2721 41.5772 33.8832 41.5127L33.1787 41.3964C33.0006 41.3668 32.8374 41.3604 32.696 41.3677L32.3774 41.3869L32.0564 41.3994C31.9808 41.4038 31.8834 41.4247 31.7602 41.4849L31.1021 41.8112C30.8203 41.9489 30.5234 42.0472 30.2202 42.1097L29.5435 42.2501C29.1111 42.3391 28.6857 42.2756 28.2987 42.0876L27.9703 41.9253L27.6797 41.7872L27.3638 41.9237L27.017 42.078C26.5993 42.262 26.145 42.2978 25.6958 42.1484L25.3566 42.0415L25.0218 41.9257C24.9391 41.8981 24.8741 41.895 24.8158 41.9067L24.4907 41.9724L24.159 42.0404C23.9795 42.0767 23.7971 42.1244 23.6174 42.1868L23.2947 42.3034L22.9698 42.4134C22.6341 42.5299 22.2821 42.5766 21.9278 42.5444L21.5912 42.5105L21.2502 42.4855C21.0168 42.4643 20.7835 42.4386 20.5525 42.4113L20.2203 42.3686L19.8814 42.3281C19.8189 42.3211 19.7509 42.3291 19.6647 42.3645L19.0018 42.6332C18.6275 42.787 18.2284 42.8384 17.827 42.7648L17.488 42.7022L17.1468 42.633C17.0088 42.6077 16.8775 42.6089 16.7528 42.6259L16.0891 42.7176C15.9441 42.7374 15.7978 42.7762 15.6558 42.8347L15.3376 42.9645L15.0261 43.0922C14.6658 43.2405 14.2832 43.288 13.9 43.2369L13.5434 43.1876L13.1957 43.1427C13.0396 43.1218 12.8953 43.1236 12.7596 43.1425L12.4277 43.1883L12.2441 43.2135C12.1163 43.2404 11.9895 43.2516 11.8592 43.2552C11.701 43.2745 11.5431 43.2987 11.3835 43.3127L11.0472 43.3453L10.7086 43.3712C10.6231 43.3787 10.5859 43.3969 10.5781 43.4006L10.1456 43.6948C10.1108 43.7184 10.0691 43.7409 10.0353 43.7617C10.0259 43.7674 10.0109 43.7809 9.99334 43.7907C9.98642 43.7945 9.93283 43.8234 9.86522 43.8488C9.85322 43.8535 9.72011 43.9066 9.54451 43.9056C9.45815 43.905 9.19693 43.8914 8.95908 43.6826C8.67357 43.4309 8.64057 43.0996 8.66109 42.9114C8.67917 42.7485 8.73741 42.6312 8.75921 42.59C8.78721 42.5372 8.81605 42.498 8.83174 42.4767C8.86248 42.4353 8.88542 42.4009 8.89773 42.3879C8.95649 42.3261 9.03545 42.2699 9.04105 42.2655L9.44693 41.9581L9.72704 41.7377L10.0206 41.557Z" fill="#FF4500"/>
</svg>
