<svg width="112" height="92" viewBox="0 0 112 92" fill="none" xmlns="http://www.w3.org/2000/svg">
<path d="M75.6912 38.336H70.7471V33.9188H72.9557V31.7102H70.7471V27.293H75.6912V29.5016H77.8998V31.7102H80.1084V33.9188H77.8998V36.1274H75.6912V38.336Z" fill="#FF4500"/>
<path d="M87.5463 25.0832V20.666H85.3377H83.1291V22.8746H80.9205V25.0832H78.7119V27.2918H76.5033V29.5004H74.2947V31.709H72.0861V33.9176H74.2947V36.1262H76.5033V38.3348H78.7119V40.5434H80.9205V42.752H83.1291V44.9606H85.3377H87.5469L87.5463 40.5434V25.0832Z" fill="#FF4500"/>
<path d="M94.1445 24.7793V26.1719H92.751V28.957H91.3662V30.3496H89.9736V35.2744H91.3662V36.668H92.751V39.4531H94.1445V40.8457H96.2832V38.7061H94.8906V37.3135H93.5049V34.5283H92.1123V33.1357H90.7197V32.4893H92.1123V31.0967H93.5049V28.3115H94.8906V26.918H96.2832V24.7793H94.1445Z" fill="#FF4500" stroke="#FF4500" stroke-width="0.746542"/>
<path d="M101.868 23.1729V24.8447H100.197V28.1875H98.5342V29.8584H96.8633V35.7676H98.5342V37.4395H100.197V40.7822H101.868V42.4531H104.436V39.8857H102.764V38.2148H101.102V34.8721H99.4297V33.2012H97.7588V32.4258H99.4297V30.7539H101.102V27.4111H102.764V25.7402H104.436V23.1729H101.868Z" fill="#FF4500" stroke="#FF4500" stroke-width="0.895851"/>
<path d="M45.1057 29.489L45.5082 29.6727L45.9195 29.8565C46.1519 29.9611 46.3794 30.0477 46.602 30.119L47.0045 30.2502L47.3982 30.3815C47.6961 30.4768 47.9932 30.5835 48.282 30.7052L48.6757 30.8715L49.0607 31.029C49.3602 31.1553 49.659 31.3014 49.9532 31.4665L50.3382 31.6852L50.732 31.904C51.2585 32.1994 51.6127 32.6709 51.7732 33.2427L51.9045 33.689L52.027 34.1265C52.0319 34.1439 52.033 34.1565 52.0357 34.1615C52.0364 34.1624 52.0481 34.1725 52.0707 34.1877L52.4557 34.4502L52.8407 34.704C53.2247 34.9582 53.5072 35.3065 53.6632 35.7277L53.777 36.174L53.8382 36.6115L53.9082 37.0577C53.9438 37.3044 53.9949 37.54 54.057 37.7665L54.1707 38.1865L54.2845 38.5977C54.4263 39.1137 54.3864 39.6364 54.1882 40.129L54.0307 40.5402L53.882 40.8727L54.0395 41.1877L54.232 41.564C54.3766 41.8546 54.5002 42.1552 54.6082 42.4565L54.7482 42.8502L54.8882 43.2352C54.9606 43.4371 55.0545 43.633 55.1595 43.8215L55.3607 44.189L55.562 44.5477C55.6659 44.7342 55.7855 44.9121 55.9207 45.0815L56.1832 45.414L56.4457 45.7377C56.6909 46.0444 56.8866 46.3865 57.032 46.7527L57.1895 47.1465L57.347 47.549C57.3885 47.6531 57.4522 47.7413 57.5395 47.8202L57.8545 48.109L58.1782 48.3977C58.4299 48.6252 58.6639 48.8673 58.8782 49.124L59.4207 49.7715C59.6873 50.0911 59.8847 50.4553 60.0245 50.8477L60.1732 51.2502L60.322 51.6615C60.3416 51.7161 60.3669 51.7572 60.427 51.8015L61.1445 52.3265C61.4713 52.5652 61.7576 52.8501 61.9932 53.1752L62.4832 53.8402C62.651 54.0717 62.8178 54.3105 62.982 54.549L63.2182 54.899L63.4545 55.2402C63.5628 55.3975 63.6928 55.5463 63.8395 55.6777L64.1545 55.9577L64.4695 56.2465C64.7676 56.5135 65.0222 56.8193 65.222 57.1652L65.432 57.5327L65.642 57.8915C65.8156 58.1924 65.9629 58.5153 66.0882 58.854L66.2457 59.2827L66.342 59.554L66.6657 59.624L67.1207 59.7202C67.7103 59.8455 68.206 60.1795 68.5382 60.6915L68.792 61.0765L69.037 61.4615C69.1055 61.5672 69.1708 61.6242 69.2295 61.654L69.6057 61.8377L69.982 62.0302C70.1454 62.1129 70.3326 62.1838 70.542 62.2315L70.9882 62.3277L71.4257 62.424C71.9012 62.5319 72.3317 62.7567 72.6945 63.089L73.0182 63.3777L73.3332 63.6752C73.6601 63.9746 73.9166 64.3323 74.1032 64.734L74.2957 65.1452L74.4882 65.5477C74.5243 65.6253 74.5571 65.658 74.5932 65.679L74.9607 65.889L75.3282 66.1077C75.6038 66.2675 75.8766 66.442 76.1332 66.624L76.4745 66.8602L76.8157 67.1052C77.0736 67.2881 77.3214 67.484 77.5595 67.6915L77.8745 67.9715L78.1982 68.2427C78.4018 68.4202 78.6096 68.6021 78.8195 68.7765L79.467 69.319C79.7064 69.5179 79.938 69.7236 80.1582 69.9402L80.4557 70.2377L80.762 70.5265C80.8226 70.5861 80.8978 70.639 81.0157 70.6752L81.8732 70.9377C82.2843 71.0621 82.6659 71.2562 83.002 71.524L83.3257 71.7865L83.6582 72.049C83.7437 72.1169 83.843 72.16 83.9645 72.189L84.3845 72.294L84.8045 72.3902C85.3035 72.5074 85.7412 72.7652 86.0907 73.134L86.397 73.449L86.7032 73.7727C86.851 73.9286 87.0028 74.0554 87.1582 74.1577L87.5082 74.3852L87.8495 74.6215C88.139 74.8122 88.4122 75.0278 88.6632 75.269L88.9695 75.5577L89.267 75.8465C89.5684 76.136 89.8122 76.4757 89.9932 76.8527L90.1857 77.2465L90.3695 77.6402C90.5602 78.0386 90.6715 78.4664 90.6845 78.909L90.702 79.749C90.7162 80.2331 90.6053 80.7004 90.3695 81.1227L90.1595 81.499L89.9582 81.8665C89.7547 82.2305 89.4903 82.5523 89.1707 82.8202L88.847 83.0827L88.5232 83.354C88.3437 83.5046 88.1731 83.6695 88.007 83.844L87.7095 84.159L87.412 84.4652C87.1358 84.7553 86.8189 84.9961 86.467 85.1915L86.082 85.4102L85.697 85.6202C85.3074 85.8364 84.8827 85.9766 84.437 86.014L83.597 86.084C83.3928 86.1011 83.1941 86.1317 83.002 86.189L82.197 86.434C81.684 86.5866 81.1594 86.5567 80.6657 86.3552L80.272 86.1977L79.887 86.0402C79.5301 85.8944 79.1975 85.6951 78.907 85.4452L78.627 85.209L78.347 84.964C78.1131 84.7628 77.8833 84.5322 77.6645 84.2815L77.3845 83.9577L77.0957 83.634C76.8706 83.3759 76.6721 83.1068 76.5007 82.829L76.2995 82.4965L76.0895 82.1727C76.0608 82.1262 76.0282 82.0796 75.9582 82.0415L75.5995 81.8577L75.2495 81.6652C75.0804 81.5736 74.9035 81.5007 74.7245 81.4465L74.3395 81.324L73.9632 81.2102C73.4227 81.0472 73.0018 80.6983 72.7295 80.2215L72.5195 79.8627L72.3182 79.504C72.2365 79.3605 72.1315 79.2245 72.0032 79.1015L71.697 78.804L71.3907 78.5152C71.2036 78.3359 71.0072 78.1618 70.8132 77.999L70.4982 77.7277L70.1745 77.4652C69.9489 77.2759 69.728 77.0794 69.5095 76.879L69.2032 76.5902L68.8882 76.3102C68.654 76.0953 68.435 75.8651 68.2232 75.6277L67.6632 74.9977C67.6103 74.9384 67.5348 74.8904 67.4182 74.849L66.9982 74.7002L66.5695 74.5427C66.2394 74.4259 65.9238 74.2903 65.6245 74.1315L65.2482 73.9302L64.8807 73.7377C64.5309 73.552 64.2072 73.3107 63.927 73.029L63.6295 72.7227L63.3232 72.4252C63.1179 72.2188 62.9172 72.0077 62.7195 71.804L62.422 71.4977L62.1332 71.2002C61.9461 71.0074 61.7493 70.819 61.5557 70.6315L61.2582 70.334L60.952 70.0452C60.949 70.0937 60.957 70.1455 60.952 70.194L60.8645 71.034C60.836 71.312 60.8057 71.589 60.777 71.8652L60.6895 72.7052C60.6623 72.9667 60.6443 73.23 60.6282 73.4927L60.5757 74.3327C60.5558 74.6568 60.5126 74.9818 60.4532 75.304L60.2957 76.144C60.2149 76.579 60.0198 77.0936 59.5432 77.439L59.2982 77.6052L59.062 77.7802C58.9059 77.893 58.6893 78.0008 58.4232 78.034C58.1503 78.0675 57.8944 78.0163 57.6795 77.9115C57.2946 77.7228 57.0726 77.3902 56.962 77.194L56.7432 76.8002L56.5157 76.3977C56.4404 76.264 56.364 76.179 56.2882 76.1265L55.9382 75.8902L55.597 75.654C55.3685 75.4959 55.1427 75.3431 54.9232 75.1902L54.5907 74.954L54.267 74.7265C53.7993 74.4007 53.5058 73.9342 53.392 73.3965L53.3045 72.9765L53.217 72.5652C53.1468 72.2332 53.1049 71.8965 53.0857 71.559L53.0332 70.719C53.0177 70.4442 53.0003 70.1701 52.9807 69.8965L52.9545 69.4765L52.9195 69.0565C52.9044 68.8444 52.9024 68.6254 52.902 68.4002C52.5811 68.4929 52.2511 68.5437 51.9045 68.4965L51.4932 68.444L51.0907 68.3915C50.796 68.351 50.498 68.3019 50.207 68.2427L49.8045 68.1552L49.4107 68.0765C49.036 68.0003 48.6734 67.8715 48.3345 67.6915L47.967 67.4902L47.5907 67.2977C47.4141 67.2038 47.2152 67.1182 46.9957 67.0527L46.567 66.9302L46.1382 66.799C45.5128 66.6116 45.0537 66.1695 44.8257 65.5652L44.6595 65.1452L44.502 64.7165C44.4711 64.635 44.4347 64.5917 44.3882 64.559L44.0295 64.314L43.6795 64.0602C43.2867 63.7837 42.9751 63.4207 42.7695 62.984L42.5857 62.5902L42.402 62.2052C42.2819 61.9493 42.1621 61.6935 42.0432 61.444L41.8682 61.0677L41.6845 60.6915C41.6066 60.5279 41.5075 60.3651 41.3782 60.2102L40.8182 59.5452C40.5006 59.1645 40.2952 58.7154 40.2232 58.224L40.162 57.7865L40.1007 57.3577C40.062 57.0911 40.0199 56.8313 39.9695 56.579L39.882 56.1677L39.8032 55.7565C39.7278 55.3781 39.7071 54.9949 39.742 54.6102L39.777 54.1902L39.8207 53.7702C39.8283 53.688 39.8167 53.5939 39.7682 53.4815L39.4182 52.659C39.2466 52.2603 39.1453 51.8424 39.1382 51.4077L39.1295 50.9877V50.559C39.1246 50.2323 39.1369 49.9056 39.1732 49.579L39.217 49.1502L39.2695 48.7302C39.2978 48.4767 39.3136 48.2205 39.322 47.969L39.3395 47.549L39.3482 47.129C39.3561 46.8944 39.3519 46.6633 39.3307 46.4377L39.2957 46.0265L39.252 45.6152C39.2488 45.5809 39.2547 45.5454 39.252 45.5102C39.1452 45.3946 39.0585 45.2585 39.007 45.099L38.972 45.0027L38.9195 44.8277V44.6527L38.9282 43.8565C38.9341 43.2967 38.9757 42.7763 39.0945 42.3515L39.217 41.9227L39.3045 41.599L39.1207 41.3452L38.867 41.004C38.7367 40.8284 38.5875 40.6601 38.4295 40.514L38.1145 40.2252L37.8082 39.9365C37.4572 39.6118 37.1972 39.2156 37.047 38.764L36.9157 38.344L36.7757 37.9327C36.6711 37.6179 36.5875 37.3027 36.522 36.9877L36.4345 36.5852L36.347 36.174C36.2893 35.8967 36.2353 35.6135 36.1807 35.3252L36.102 34.9052L36.0232 34.4765C35.9251 33.9579 35.9879 33.4451 36.207 32.9715L36.3995 32.569L36.5832 32.1665C36.8368 31.6194 37.2861 31.2112 37.8957 31.0465L38.2982 30.9327L38.7095 30.8277C38.8077 30.8007 38.9185 30.746 39.042 30.644L39.392 30.3552L39.7507 30.0577C40.1801 29.7035 40.7011 29.5057 41.2732 29.5152L41.7107 29.524L42.1395 29.5327C42.353 29.5363 42.5676 29.5196 42.7695 29.4802L43.1895 29.3927L43.6095 29.314C44.1246 29.2143 44.6343 29.2769 45.1057 29.489ZM41.0632 45.2565C41.2192 45.1625 41.325 45.0673 41.3695 45.0115C41.4229 44.9441 41.4558 44.88 41.4745 44.8452C41.5088 44.7813 41.5277 44.7277 41.5357 44.7052C41.5436 44.683 41.5507 44.6617 41.5532 44.6527C41.5512 44.6624 41.5487 44.6827 41.5445 44.7052L41.5095 44.9065L41.4657 45.1077C41.4704 45.0831 41.4745 45.0907 41.4745 45.1515C41.4745 45.2091 41.4729 45.2938 41.4832 45.4052L41.527 45.8165L41.562 46.2277C41.5921 46.5496 41.5992 46.8806 41.5882 47.2077L41.5795 47.6277L41.562 48.0477C41.5517 48.3567 41.5265 48.6657 41.492 48.9752L41.4482 49.404L41.3957 49.824C41.3695 50.0584 41.3661 50.2921 41.3695 50.524V50.9527L41.3782 51.3727C41.3805 51.4977 41.4115 51.6292 41.4745 51.7752L41.8245 52.5977C42.0115 53.0319 42.0956 53.4948 42.052 53.9715L42.0082 54.3915L41.9732 54.8115C41.9575 54.9843 41.9662 55.1524 41.9995 55.319L42.0782 55.7302L42.1657 56.1415C42.2242 56.4345 42.2703 56.738 42.3145 57.0427L42.3845 57.4715L42.4457 57.9002C42.4576 57.9794 42.479 58.0452 42.5332 58.1102L43.0932 58.7752C43.3373 59.0678 43.5437 59.3888 43.7057 59.729L43.8895 60.1052L44.0645 60.4815C44.1851 60.7346 44.3103 60.9921 44.432 61.2515L44.6157 61.6452L44.7995 62.0302C44.8361 62.1075 44.8846 62.1743 44.9657 62.2315L45.3245 62.4765L45.6832 62.7302C46.1109 63.0322 46.4197 63.4458 46.602 63.929L46.7595 64.349L46.882 64.6815L47.2145 64.7777L47.6432 64.909C47.9946 65.014 48.3338 65.1523 48.6495 65.3202L49.017 65.5127L49.3845 65.714C49.5381 65.7956 49.698 65.8479 49.857 65.8802L50.2507 65.959L50.6532 66.0465C50.8971 66.0961 51.1496 66.135 51.397 66.169L51.7995 66.2215L52.202 66.2827C52.2289 66.2864 52.2765 66.2884 52.3595 66.2477L53.1645 65.8452L53.7245 65.6702C53.9872 65.6414 54.3071 65.6838 54.617 65.9065C54.9124 66.1193 55.0464 66.4069 55.107 66.6152C55.1663 66.8193 55.1725 67.0125 55.1682 67.1577L55.1595 67.639L55.142 68.1115C55.1336 68.3978 55.1426 68.6618 55.1595 68.899L55.212 69.739C55.2323 70.0231 55.2571 70.3113 55.2732 70.5965L55.2907 71.0165L55.317 71.4365C55.3297 71.6588 55.3578 71.8807 55.4045 72.1015L55.492 72.5215L55.5707 72.9065L55.877 73.1165L56.2007 73.3527C56.4193 73.505 56.6466 73.6588 56.8745 73.8165L57.557 74.289C57.8242 74.4739 58.0412 74.7076 58.2307 74.9627L58.2482 74.8927C58.2914 74.6581 58.3215 74.4252 58.3357 74.1927L58.3882 73.3527C58.4063 73.0583 58.4278 72.7621 58.4582 72.469L58.502 72.0577L58.5457 71.6377C58.5744 71.3617 58.6048 71.0843 58.6332 70.8065L58.7207 69.9665C58.7368 69.8093 58.7317 69.6434 58.6945 69.4765L58.502 68.6365C58.4608 68.4516 58.4145 68.1641 58.467 67.8665C58.4956 67.7063 58.5652 67.4886 58.7295 67.2802C58.9077 67.0542 59.149 66.9071 59.412 66.8427L59.762 66.7552L60.3395 66.7377C60.5027 66.7695 60.6406 66.8267 60.742 66.8777C60.9543 66.9852 61.1339 67.1386 61.2757 67.2715L61.582 67.5515L61.8882 67.8402C62.0965 68.0353 62.3038 68.236 62.5095 68.4352L62.8157 68.724L63.122 69.0215C63.3311 69.2241 63.5321 69.4343 63.7345 69.6427L64.032 69.9402L64.3207 70.2465C64.512 70.4435 64.7079 70.6413 64.907 70.8415L65.5195 71.454C65.645 71.5801 65.7839 71.6823 65.9307 71.7602L66.2982 71.9527L66.6745 72.154C66.8694 72.2574 67.0816 72.3518 67.3132 72.434L67.742 72.5827L68.162 72.7315C68.61 72.89 69.0136 73.1505 69.3345 73.5102L69.8945 74.1402C70.0555 74.3207 70.2242 74.4932 70.402 74.6565L70.717 74.9452L71.0232 75.2252C71.2179 75.4038 71.4178 75.582 71.6182 75.7502L71.9332 76.0127L72.257 76.284C72.4893 76.479 72.7175 76.6837 72.9395 76.8965L73.2457 77.1852L73.552 77.4827C73.8325 77.7516 74.0692 78.0565 74.2607 78.3927L74.4707 78.7515L74.6545 79.0752L74.987 79.1802L75.372 79.294C75.6992 79.3927 76.0153 79.533 76.317 79.6965L76.667 79.8802L77.0257 80.0727C77.4252 80.2896 77.7549 80.6003 77.997 80.9915L78.1982 81.324L78.4082 81.6565C78.5079 81.8176 78.6321 81.9894 78.7845 82.164L79.0645 82.4877L79.3532 82.8115C79.5119 82.9932 79.6591 83.1455 79.7995 83.2665L80.0882 83.5115L80.3682 83.7477C80.4524 83.8201 80.5649 83.9 80.727 83.9665L81.5145 84.2815L81.532 84.2902C81.5344 84.2899 81.5488 84.293 81.5582 84.2902L82.3632 84.0452C82.7043 83.9435 83.0573 83.8738 83.4132 83.844L84.2532 83.774C84.3687 83.7641 84.4877 83.7379 84.612 83.669L84.997 83.4502L85.382 83.2402C85.5424 83.1512 85.6787 83.0454 85.7932 82.9252L86.082 82.6102L86.3795 82.304C86.604 82.0678 86.8413 81.846 87.0882 81.639L87.412 81.3677L87.727 81.0965C87.8351 81.0058 87.9259 80.9017 87.9982 80.7727L88.2082 80.4052L88.4095 80.029C88.449 79.9584 88.4642 79.897 88.462 79.819L88.4532 79.399L88.4445 78.9702C88.4405 78.8512 88.4074 78.7353 88.3482 78.6115L88.1645 78.2177L87.972 77.824C87.9029 77.68 87.8195 77.5627 87.7182 77.4652L87.412 77.1765L87.1145 76.879C86.9611 76.7316 86.7899 76.5999 86.6157 76.4852L86.2745 76.2577L85.9245 76.0302C85.6165 75.8274 85.3343 75.5855 85.0757 75.3127L84.7695 74.9977L84.4632 74.674C84.4063 74.6139 84.3587 74.5835 84.297 74.569L83.457 74.3765C83.0207 74.2741 82.619 74.0788 82.267 73.799L81.602 73.274C81.5006 73.1935 81.3794 73.128 81.2257 73.0815L80.797 72.9502L80.377 72.819C79.9306 72.6844 79.5234 72.4585 79.187 72.1277L78.8895 71.8302L78.592 71.5415C78.4157 71.368 78.2252 71.1945 78.032 71.034L77.7082 70.7715L77.3845 70.5002C77.1605 70.3142 76.937 70.1212 76.7195 69.9315L76.4045 69.6602L76.0895 69.3802C75.9078 69.2218 75.7177 69.0737 75.5207 68.934L74.8382 68.444C74.6383 68.3022 74.4258 68.1676 74.2082 68.0415L73.8407 67.8315L73.4732 67.6127C73.0162 67.3478 72.6761 66.9617 72.4582 66.4927L72.2657 66.0815L72.0732 65.679C72.0059 65.5341 71.9197 65.4207 71.8195 65.329L71.5045 65.0315L71.1807 64.7427C71.1165 64.6839 71.0384 64.6368 70.927 64.6115L70.4895 64.5152L70.052 64.4102C69.6753 64.3248 69.3141 64.1964 68.9757 64.0252L68.5995 63.8415L68.2232 63.649C67.7798 63.4247 67.4289 63.086 67.1645 62.6777L66.9107 62.2927L66.6657 61.9165H66.657L66.202 61.8115L65.7382 61.7152C65.0723 61.573 64.547 61.1463 64.3032 60.4902L63.9882 59.6327C63.9029 59.402 63.805 59.1943 63.6995 59.0115L63.4895 58.6527L63.2795 58.2852C63.2004 58.1488 63.1065 58.0205 62.982 57.909L62.6582 57.629L62.3432 57.3402C62.0673 57.0929 61.8178 56.8217 61.6082 56.5177L61.1357 55.8177C60.9817 55.5941 60.8202 55.3781 60.6632 55.1615L60.4182 54.8202L60.182 54.4877C60.0929 54.3648 59.9733 54.2475 59.8232 54.1377L59.1057 53.6127C58.6907 53.3093 58.3875 52.9021 58.2132 52.414L58.0645 52.0027L57.9157 51.6002C57.8618 51.4488 57.7896 51.3174 57.697 51.2065L57.1545 50.559C57.0096 50.3857 56.8485 50.2186 56.6732 50.0602L56.3582 49.7715L56.0345 49.4827C55.6943 49.1752 55.4339 48.7983 55.2645 48.3715L55.107 47.9777L54.9495 47.5752C54.8841 47.4107 54.7987 47.2667 54.6957 47.1377L54.4332 46.814L54.1707 46.4815C53.9587 46.2161 53.7668 45.9371 53.602 45.6415L53.4007 45.274L53.1995 44.9152C53.0353 44.6205 52.8932 44.3135 52.7795 43.9965L52.6395 43.6027L52.4995 43.2177C52.4216 43.0003 52.3351 42.7762 52.2282 42.5615L52.0357 42.1852L51.852 41.809C51.5788 41.2598 51.5661 40.6597 51.7907 40.1027L51.9482 39.7002L52.1145 39.2977C52.1329 39.252 52.1326 39.2271 52.1232 39.1927L52.0095 38.7815L51.8957 38.3615C51.8074 38.0396 51.7342 37.7105 51.6857 37.3727L51.6245 36.9265L51.5632 36.5415L51.222 36.314L50.837 36.0602C50.3566 35.743 50.021 35.2855 49.8657 34.7302L49.6207 33.8552L49.2445 33.6452L48.8595 33.4265C48.6346 33.3003 48.4114 33.1856 48.1945 33.094L47.8007 32.9365L47.4157 32.7702C47.1886 32.6744 46.9581 32.5826 46.7245 32.5077L46.322 32.3852L45.9195 32.254C45.6124 32.1557 45.3053 32.0409 45.0007 31.904L44.5895 31.7202L44.187 31.5365C44.1213 31.5069 44.0801 31.5026 44.0382 31.5102L43.6182 31.5977L43.1982 31.6765C42.84 31.7464 42.4717 31.7789 42.1045 31.7727L41.667 31.764L41.2382 31.7552H41.2207L41.212 31.764C41.2056 31.7677 41.1917 31.7781 41.177 31.7902L40.8182 32.079L40.4682 32.3677C40.121 32.6547 39.7256 32.8709 39.287 32.989L38.8845 33.1027L38.5782 33.1815L38.4295 33.514L38.2457 33.9165C38.2183 33.9763 38.2118 34.0127 38.2195 34.0565L38.2982 34.4852L38.3857 34.9052C38.438 35.1813 38.4883 35.4548 38.5432 35.719L38.6307 36.1215L38.7095 36.5327C38.7564 36.7582 38.8235 36.9877 38.902 37.224L39.042 37.644L39.1732 38.0552C39.2064 38.1551 39.2553 38.2293 39.322 38.2915L39.952 38.869C40.2125 39.1099 40.4486 39.3794 40.6607 39.6652L40.9232 40.0152L41.177 40.3565C41.5608 40.8737 41.6614 41.4912 41.492 42.0977L41.3782 42.5265L41.2557 42.9552C41.2296 43.0483 41.22 43.2043 41.2032 43.4365L41.3957 43.6377L41.4045 43.6552L41.562 43.8652L41.597 44.049C41.6272 44.1501 41.6581 44.2531 41.6582 44.364V44.469L41.1595 44.5127V44.6702C41.1759 44.878 41.154 45.0766 41.0632 45.2565ZM55.5882 72.9415C55.587 72.9386 55.5845 72.9318 55.5795 72.924L55.5707 72.9152L55.5795 72.9327L55.5882 72.9415Z" fill="#FF4500"/>
<path d="M82.8636 72.8208C83.2822 72.3655 83.992 72.3412 84.4474 72.7595C84.9027 73.1782 84.936 73.8879 84.5174 74.3433L84.4474 74.4133L84.3686 74.5008L84.2811 74.562L83.6424 75.0258C83.2097 75.3385 82.8376 75.5922 82.5399 75.7608L82.1724 75.962L81.8049 76.172C81.7133 76.2243 81.6384 76.2985 81.5686 76.3995L81.3236 76.7495L81.0786 77.1083C80.9216 77.3356 80.7709 77.5575 80.6324 77.7733L80.1949 78.4558C80.0258 78.719 79.8371 78.9776 79.6349 79.2258L79.3724 79.5495L79.1011 79.8733C79.0043 79.9924 78.9352 80.1238 78.8824 80.267L78.7336 80.6608L78.5936 81.0633C78.4984 81.3241 78.4441 81.4671 78.4274 81.5183L78.4011 81.8245L78.2261 82.0695L78.1649 82.1483C77.8061 82.6518 77.1111 82.7692 76.6074 82.4108C76.1934 82.1158 76.0558 81.5993 76.2136 81.142L76.2224 81.0633L76.2574 80.9408L76.2924 80.8358C76.3233 80.74 76.3916 80.5488 76.4849 80.2933L76.6336 79.8995L76.7736 79.5058C76.9125 79.1253 77.1127 78.7698 77.3686 78.4558L77.6311 78.132L77.9024 77.8083C78.0537 77.6226 78.183 77.4295 78.3049 77.2395L78.7424 76.557C78.8951 76.3191 79.0623 76.0771 79.2324 75.8308L79.4774 75.4808L79.7224 75.122C79.9793 74.7501 80.3074 74.4445 80.7024 74.2208L81.0699 74.0108L81.4374 73.8095C81.6267 73.7023 81.9172 73.5041 82.3299 73.2058L82.8636 72.8208Z" fill="#FF4500"/>
<path d="M80.9508 79.2233C81.3882 78.7859 82.1059 78.7859 82.5433 79.2233L82.6133 79.302L82.7008 79.3895L82.7708 79.5033L82.8496 79.6258L82.9196 79.7308L82.9371 79.7483C82.98 79.7868 83.0494 79.8397 83.1471 79.9145L83.8296 80.4395C84.2003 80.7234 84.4958 81.0858 84.6958 81.507L85.0633 82.2945C85.0397 82.2447 85.036 82.2503 85.1071 82.312C85.177 82.3726 85.295 82.464 85.4833 82.5658L86.1921 82.942L86.3321 83.0208L86.5246 83.2133C86.9589 83.6509 86.9609 84.3607 86.5246 84.797C86.1417 85.1799 85.5593 85.2069 85.1246 84.9195L84.4158 84.5345C83.8897 84.2501 83.3246 83.8493 83.0421 83.257L82.8583 82.8633L82.6658 82.4695C82.6177 82.3682 82.5581 82.2901 82.4733 82.2245L82.1321 81.962L81.7821 81.6995C81.5654 81.5336 81.2897 81.3097 81.1171 81.0695L81.0296 80.9383L81.0033 80.9033L80.9858 80.8683L80.9508 80.8158L80.7058 80.4395C80.5431 80.0356 80.6234 79.5507 80.9508 79.2233Z" fill="#FF4500"/>
<path d="M82.9302 76.9724C83.3833 76.553 84.0933 76.5811 84.5139 77.0337L84.5839 77.1037L85.3977 77.9874L85.2927 78.0662C85.3096 78.0774 85.3269 78.0893 85.3452 78.1012L85.7127 78.3374L86.0714 78.5737C86.4674 78.8316 86.7876 79.1771 87.0164 79.5887L87.2264 79.9649L87.4364 80.3499C87.4797 80.4279 87.6345 80.6219 88.0052 80.9362L88.6089 81.4524L88.6614 81.4962L88.7052 81.5399L88.7752 81.6187C89.194 82.0719 89.1663 82.7821 88.7139 83.2024C88.2607 83.6221 87.5508 83.5938 87.1302 83.1412L87.0952 83.1062L86.5527 82.6424C86.117 82.2727 85.7166 81.8751 85.4764 81.4437L85.0564 80.6737C85.0015 80.5749 84.931 80.5101 84.8464 80.4549L84.1289 79.9824C83.866 79.8113 83.6215 79.635 83.4289 79.4574L83.2364 79.2824L83.0527 79.1074C82.963 79.0247 82.8449 78.9028 82.7464 78.7574C82.6821 78.6623 82.4329 78.2879 82.5452 77.7862L82.5627 77.7074L82.6502 77.3312L82.7114 77.2874C82.7691 77.176 82.833 77.0627 82.9302 76.9724Z" fill="#FF4500"/>
<path d="M74.3873 73.5839C74.579 73.6479 74.707 73.7519 74.7373 73.7764C74.7844 73.8145 74.825 73.8462 74.8423 73.8639C74.8758 73.8983 74.9012 73.9291 74.9123 73.9427C74.9355 73.9713 74.956 74.0005 74.9648 74.0127C75.0002 74.062 75.0484 74.1322 75.096 74.2052L75.2448 74.4327L75.306 74.5377L75.726 74.6339L76.146 74.7389C76.664 74.8678 77.1116 75.1497 77.4498 75.5614L77.7298 75.8939L78.0098 76.2352C78.0876 76.3297 78.283 76.5193 78.6923 76.7864L79.3573 77.2152L79.3835 77.2327L79.401 77.2414L79.4798 77.3027C79.982 77.6613 80.099 78.3569 79.7423 78.8602C79.3832 79.3638 78.6797 79.4817 78.176 79.1227L78.1323 79.0877L77.476 78.6589C77.0023 78.3498 76.5719 78.0193 76.2773 77.6614L75.7173 76.9789C75.6832 76.9374 75.6521 76.921 75.6035 76.9089L75.1835 76.8039L74.7548 76.6989C74.3555 76.5992 73.8362 76.3889 73.5123 75.8939L73.3635 75.6577L73.3285 75.5964C73.2717 75.5313 73.2193 75.4698 73.1798 75.3952L73.1273 75.3339L73.0485 75.1764C73.0436 75.1667 73.0188 75.1123 72.996 75.0539C72.9888 75.0361 72.943 74.9222 72.926 74.7739C72.9204 74.7246 72.9059 74.6368 72.9173 74.5289C72.9278 74.4298 72.9663 74.2343 73.101 74.0302C73.2598 73.7913 73.5172 73.6095 73.8185 73.5489C74.075 73.4982 74.2817 73.549 74.3873 73.5839ZM75.0873 74.2927L73.7135 75.7102C73.8255 75.7441 74.0186 75.7928 74.256 75.7452C74.5572 75.6845 74.8061 75.5026 74.9648 75.2639C75.1009 75.0589 75.138 74.8646 75.1485 74.7652C75.16 74.6571 75.1541 74.5693 75.1485 74.5202C75.1375 74.4232 75.1132 74.3465 75.1048 74.3189C75.1016 74.3085 75.0903 74.3016 75.0873 74.2927Z" fill="#FF4500"/>
<path d="M77.5334 71.7581L77.6121 71.8106L77.9534 72.0294L77.9971 72.0381L78.4084 72.1431C78.9053 72.2699 79.3379 72.5291 79.6771 72.9044L79.9659 73.2369L80.2634 73.5606C80.3259 73.6298 80.5219 73.7904 80.9546 74.0156L81.6721 74.3919L81.7159 74.4094L81.7509 74.4356L81.8384 74.4881C82.3607 74.8195 82.511 75.5146 82.1796 76.0369C81.9305 76.4271 81.4807 76.6165 81.0509 76.5444L80.6396 76.3781L79.9221 76.0019C79.4115 75.7362 78.9322 75.4323 78.6009 75.0656L78.3034 74.7419L78.0146 74.4094C77.9588 74.3477 77.9092 74.3265 77.8571 74.3131L77.0346 74.1031C76.8872 74.0655 76.7293 74.0232 76.5971 73.9719C76.5399 73.9496 76.4199 73.8955 76.2996 73.8144C76.2414 73.7749 76.1259 73.6914 76.0196 73.5519C75.9068 73.4026 75.7369 73.0929 75.8009 72.6856L75.8096 72.6331L75.8971 72.0644L76.1421 71.9506C76.5033 71.5713 77.0743 71.4669 77.5334 71.7581Z" fill="#FF4500"/>
<path d="M51.2488 49.5314C51.2505 49.0255 51.392 48.5459 51.6688 48.1227L51.9138 47.7639L52.15 47.3964C52.2335 47.2679 52.3651 47.0022 52.5263 46.5389L52.78 45.7952L52.7888 45.7689C52.9536 45.173 53.5666 44.8259 54.1625 44.9902C54.7587 45.155 55.1061 45.7677 54.9413 46.3639L54.915 46.4602L54.8975 46.5302L54.635 47.2739C54.4534 47.7959 54.2551 48.2652 54.0225 48.6214L53.7863 48.9889L53.55 49.3477C53.51 49.4089 53.489 49.4678 53.4888 49.5402V50.4064C53.4877 50.7316 53.4694 51.0525 53.4363 51.3689L53.3925 51.7889L53.3488 52.2002C53.3087 52.5838 53.2131 52.9604 53.0688 53.3202L52.9113 53.7227L52.7538 54.1164C52.6854 54.2868 52.6396 54.461 52.6225 54.6327L52.5788 55.0439L52.5438 55.4639C52.5344 55.5586 52.5453 55.6261 52.57 55.6827L52.7363 56.0502L52.8938 56.4177C52.9731 56.5963 53.0687 56.7687 53.1825 56.9339L53.4188 57.2664L53.6463 57.5989C53.7995 57.8209 53.9609 58.058 54.1275 58.2989L54.3725 58.6577L54.6 58.9814L55.0288 59.0427L55.4838 59.1127C55.9825 59.1863 56.4504 59.3883 56.84 59.7252L57.4875 60.2852C57.6181 60.3981 57.7562 60.4791 57.8988 60.5389L58.2838 60.6964L58.66 60.8627C59.0534 61.0276 59.4066 61.2638 59.71 61.5627L60.025 61.8777L60.34 62.1839C60.4511 62.2934 60.5684 62.3689 60.69 62.4202L61.075 62.5864L61.46 62.7439C61.7467 62.8648 62.0319 63.0014 62.3088 63.1464L62.685 63.3477L63.0613 63.5402C63.3108 63.6709 63.5648 63.8042 63.8138 63.9339L64.1813 64.1264L64.5575 64.3189C64.9859 64.542 65.3326 64.8704 65.5988 65.2639L65.8613 65.6402L65.9925 65.8414L66.2463 65.8239L66.71 65.7714C67.1937 65.7218 67.6747 65.7911 68.1275 65.9902L68.5213 66.1564L68.915 66.3314C69.0591 66.3945 69.2026 66.4342 69.3525 66.4452L69.7813 66.4714L70.2013 66.5064C70.6456 66.5384 71.0697 66.6649 71.4613 66.8739L71.8463 67.0752L72.2225 67.2764H72.2313L72.6688 67.1452L73.115 67.0139C73.5804 66.8769 74.0675 66.8598 74.55 66.9789L74.9525 67.0752L75.3638 67.1802C75.5929 67.2367 75.8219 67.2751 76.0463 67.3027L76.4488 67.3552L76.8513 67.3989C76.9908 67.4161 77.1161 67.4361 77.21 67.4514C77.2549 67.4587 77.3131 67.4652 77.3675 67.4777C77.3939 67.4837 77.4404 67.4965 77.49 67.5127L77.8313 67.6964L77.8575 67.7139L79.1438 68.6939L78.05 69.3677C77.8117 69.6369 77.4708 69.803 77.0875 69.7527L76.9825 69.7439L73.9025 69.3327L74.1388 69.1752L74.0163 69.1489C73.9564 69.1341 73.8688 69.1298 73.745 69.1664L73.3075 69.2977L72.8613 69.4289C72.2983 69.5947 71.7123 69.5461 71.1813 69.2627L70.7963 69.0527L70.4025 68.8427C70.2769 68.7761 70.159 68.7464 70.0438 68.7377L69.615 68.7114L69.195 68.6764C68.7848 68.6471 68.3906 68.5444 68.0138 68.3789L67.62 68.2127L67.2263 68.0377C67.1563 68.0069 67.0671 67.9893 66.9375 68.0027L66.4825 68.0464L66.0188 68.0989C65.6996 68.1318 65.3529 68.0951 65.0213 67.9414C64.6895 67.7874 64.441 67.5441 64.26 67.2764L64.0063 66.9002L63.7438 66.5152C63.6686 66.4046 63.5953 66.3417 63.525 66.3052L62.7725 65.9202C62.5225 65.7899 62.2706 65.6577 62.02 65.5264L61.6438 65.3252L61.2763 65.1327C61.0535 65.0159 60.8236 64.9058 60.5938 64.8089L60.2088 64.6514L59.815 64.4852C59.4201 64.3184 59.0699 64.0775 58.765 63.7764L58.135 63.1639C58.0227 63.053 57.9097 62.9762 57.7938 62.9277L57.4175 62.7702L57.0325 62.6039C56.6644 62.4496 56.3293 62.2359 56.0263 61.9739L55.7025 61.6939L55.37 61.4139C55.3263 61.3769 55.2672 61.3422 55.16 61.3264L54.705 61.2564L54.25 61.1952C53.6567 61.1076 53.1414 60.8023 52.7888 60.2939L52.535 59.9352L52.2813 59.5677C52.1151 59.3274 51.9531 59.0981 51.8 58.8764L51.5725 58.5439L51.345 58.2027C51.1532 57.9245 50.9828 57.6349 50.8463 57.3277L50.6888 56.9602L50.5225 56.5927C50.3321 56.1629 50.2667 55.7063 50.3125 55.2452L50.3563 54.8252L50.3913 54.4052C50.4299 54.0199 50.5267 53.6459 50.6713 53.2852L50.8288 52.8827L50.995 52.4889C51.0638 52.3175 51.0994 52.1438 51.1175 51.9727L51.205 51.1327C51.2298 50.8946 51.2479 50.6492 51.2488 50.3977V49.5314Z" fill="#FF4500"/>
<path d="M44.3454 65.1966C44.8702 64.8693 45.5668 65.0306 45.8942 65.5554L46.0779 65.8616L46.1042 66.1241L46.1917 66.9116C46.2494 67.4778 46.2544 68.0296 46.1567 68.4866L46.0692 68.9154L45.9729 69.3354C45.9701 69.3487 45.9731 69.3668 45.9729 69.3704L45.9817 69.3791L46.3842 70.1316C46.4683 70.289 46.5586 70.4071 46.6467 70.4904L46.9179 70.7529L47.1979 71.0154C47.2378 71.0531 47.2799 71.0743 47.3292 71.0854L47.6967 71.1641L47.9329 71.2166L48.2042 71.0241L48.5367 70.7704C48.579 70.739 48.6106 70.7093 48.6329 70.6479L48.7729 70.2366L48.9217 69.8341C49.0473 69.4808 49.2133 69.146 49.4204 68.8366L49.6479 68.4954L49.8842 68.1454C49.9048 68.1146 49.932 68.0882 49.9542 68.0579L49.6304 67.9004L51.3542 66.8241L51.4417 66.7716C51.8917 66.4944 52.448 66.5881 52.8067 66.9466L52.8767 66.9816L53.0429 67.2091L53.0954 67.2879C53.3276 67.6086 53.3885 68.0433 53.2179 68.4341C53.0908 68.7227 52.8783 68.8846 52.7979 68.9416C52.6178 69.0683 52.4139 69.1389 52.2992 69.1779L52.0017 69.2829L51.7742 69.3529C51.7672 69.3612 51.7609 69.3773 51.7479 69.3966L51.5117 69.7379L51.2842 70.0879C51.1834 70.2385 51.0957 70.4027 51.0304 70.5866L50.8904 70.9891L50.7417 71.3916C50.5732 71.8662 50.2827 72.2708 49.8754 72.5729L49.5342 72.8266L49.2017 73.0716C48.7461 73.4093 48.1753 73.5652 47.5742 73.4304L47.2067 73.3516L46.8304 73.2641C46.3869 73.1638 45.9876 72.9547 45.6579 72.6429L45.3867 72.3804L45.1067 72.1179C44.824 71.8505 44.5913 71.5359 44.4067 71.1904L44.0042 70.4379C43.7426 69.9483 43.671 69.4085 43.7854 68.8716L43.8817 68.4429L43.9692 68.0141C43.993 67.9008 44.0104 67.6289 43.9604 67.1391L43.8992 66.4829C43.7466 66.0062 43.9013 65.4737 44.3454 65.1966Z" fill="#FF4500"/>
<path d="M46.4014 70.9736C46.4266 70.9801 46.4471 71.0005 46.4714 71.0086L46.6814 70.9911L47.0489 71.4198L47.0839 71.4636C47.57 72.0269 47.2811 72.6499 47.2502 72.7148C47.1766 72.8686 47.0825 72.9811 47.0402 73.0298C46.94 73.1451 46.8102 73.2582 46.6989 73.3536L46.3927 73.6073L46.0952 73.8698C46.0918 73.8727 46.0688 73.8898 46.0514 73.9661L45.8589 74.8236C45.8246 74.9739 45.8223 75.095 45.8414 75.1998L45.9114 75.6023L45.9552 75.8561C46.0471 75.4486 46.2146 75.0729 46.4802 74.7448L46.7514 74.4036L47.0314 74.0623C47.0955 73.9823 47.227 73.7633 47.3902 73.3098L47.6527 72.5573L47.6614 72.5398L47.6702 72.5136L47.7139 72.4173C47.9503 71.8476 48.6042 71.5789 49.1752 71.8136C49.7453 72.0498 50.0137 72.7037 49.7789 73.2748L49.7527 73.3536L49.4989 74.0623C49.3073 74.5957 49.0735 75.0985 48.7727 75.4711L48.4927 75.8123L48.2214 76.1536C48.1636 76.2248 48.1301 76.2935 48.1164 76.3811L48.0552 76.8098L47.9852 77.2386C47.9295 77.6035 47.8376 77.9645 47.7052 78.3061L47.5477 78.6998L47.3989 79.0936C47.2725 79.4197 47.1172 79.734 46.9352 80.0298L46.7164 80.3798L46.5852 80.5811L46.6814 80.7648L46.8477 81.1323C46.9249 81.3 47.0196 81.472 47.1452 81.6398L47.4077 81.9811L47.6614 82.3223C47.8892 82.6273 48.0729 82.9579 48.2127 83.3111L48.5277 84.0986C48.602 84.2874 48.6968 84.5856 48.6677 84.9211C48.6306 85.3457 48.3871 85.7862 47.9064 86.0061L47.7052 86.1023L47.5127 86.1898C47.3705 86.2542 47.1543 86.3497 46.8739 86.4698L46.4539 86.6448L46.0339 86.8286C45.5827 87.0219 45.0952 87.0978 44.5989 87.0298L43.7589 86.9073C43.5939 86.8846 43.4268 86.888 43.2602 86.9161L42.8402 86.9948L42.4202 87.0648C41.9576 87.1437 41.4908 87.11 41.0464 86.9686L40.6264 86.8286L40.2064 86.6973C40.0615 86.6516 39.9296 86.6341 39.8039 86.6448L39.3839 86.6798L38.9639 86.7236L37.2839 86.8636C37.0339 86.8846 36.7822 86.9106 36.5314 86.9511L35.6914 87.0911C35.1727 87.1751 34.6675 87.0858 34.2039 86.8723L33.7839 86.6798L33.4077 86.5048L33.0314 86.6798L32.6114 86.8723C32.12 87.0965 31.5858 87.1621 31.0452 87.0298L30.6252 86.9248L30.2052 86.8286C30.0609 86.7931 29.9211 86.7832 29.7852 86.8023L28.9452 86.9248C28.4702 86.9916 27.9981 86.9332 27.5539 86.7673L27.1339 86.6098L26.7314 86.4611L26.3377 86.6623L25.9177 86.8636C25.8357 86.9032 25.7455 86.9364 25.6639 86.9686C25.6165 86.9874 25.4507 87.0569 25.2527 87.0736C25.2081 87.0774 24.7928 87.1275 24.4214 86.8198C23.8868 86.376 24.0117 85.7651 24.0714 85.5861C24.1341 85.3984 24.2331 85.2673 24.2639 85.2273C24.3085 85.1695 24.3548 85.1197 24.3864 85.0873L24.7452 84.7286L25.0864 84.4573C25.4408 84.2517 25.8328 84.1995 26.1277 84.1948H26.5477L26.9589 84.1861C27.1996 84.1823 27.4451 84.1624 27.6852 84.1336L28.1052 84.0898L28.5164 84.0373C28.9321 83.9874 29.3506 84.0107 29.7589 84.1073L30.6164 84.3173C30.7064 84.3387 30.7803 84.3325 30.8527 84.3086L31.2639 84.1686L31.6752 84.0373C32.0192 83.924 32.3687 83.8406 32.7252 83.8011L33.5652 83.7136C33.9593 83.6704 34.3547 83.6904 34.7464 83.7661L35.1752 83.8448L35.6039 83.9323C35.6359 83.9385 35.6584 83.9319 35.7089 83.9061L36.1114 83.7048L36.5139 83.4948C36.9341 83.2782 37.3913 83.1636 37.8702 83.1711L38.2902 83.1798L38.7189 83.1886C39.0035 83.193 39.291 83.1903 39.5764 83.1973L39.9964 83.2148L40.4252 83.2236C40.5664 83.2268 40.7051 83.2042 40.8452 83.1536L41.6502 82.8561C41.8673 82.7776 42.0204 82.7054 42.1139 82.6461L42.3852 82.4798L42.6564 82.3048L42.6389 82.3136C42.6528 82.2966 42.6827 82.2539 42.7177 82.1823L42.9102 81.7886L43.0939 81.3948L42.9452 80.9486L42.7964 80.5111C42.691 80.1982 42.6552 79.8355 42.7527 79.4611C42.851 79.0859 43.0678 78.79 43.3127 78.5686L43.6539 78.2536L43.9427 77.9911L43.9077 77.6148L43.8727 77.1511C43.8515 76.8775 43.8256 76.6296 43.7852 76.4073L43.7064 76.0048L43.6364 75.6023C43.5585 75.175 43.5754 74.7459 43.6714 74.3248L43.8639 73.4673C43.9773 72.9709 44.2306 72.5181 44.6339 72.1723L44.9402 71.9098L45.0189 71.8486L45.0364 71.7786C45.1907 71.1805 45.8028 70.8204 46.4014 70.9736ZM44.9227 82.7686L44.7302 83.1711C44.5426 83.5543 44.2645 83.9345 43.8552 84.1948L43.3127 84.5448C43.2086 84.6108 43.0851 84.6452 42.9714 84.7023C43.3342 84.649 43.7011 84.6433 44.0652 84.6936L44.4852 84.7548L44.9052 84.8073C44.9674 84.8156 45.0436 84.8093 45.1502 84.7636L45.5702 84.5886L45.9902 84.4048C46.0671 84.3719 46.1356 84.3365 46.2002 84.3086L46.1302 84.1336C46.064 83.9667 45.9783 83.809 45.8677 83.6611L45.6139 83.3198L45.3514 82.9786C45.2344 82.822 45.1512 82.6461 45.0539 82.4798L44.9227 82.7686Z" fill="#FF4500"/>
<path d="M55.2357 73.9581C55.8533 73.9897 56.3258 74.5217 56.2944 75.1394V75.2356L56.2857 75.9794C56.2821 76.5475 56.2315 77.1007 56.0669 77.5544L55.7694 78.3769C55.7441 78.4486 55.7451 78.5071 55.7607 78.5781L55.8482 79.0069L55.9444 79.4269C56.0106 79.7247 56.0676 80.0248 56.1194 80.3194L56.1982 80.7306L56.2682 81.1506C56.3012 81.3388 56.3248 81.5501 56.3119 81.7631C56.3063 81.855 56.282 81.9648 56.2507 82.0869L56.4344 82.2094L56.7757 82.4456C57.1408 82.6969 57.4447 83.0233 57.6769 83.3994L57.9044 83.7669L58.1407 84.1431L58.2632 84.1869C58.2961 84.1968 58.3543 84.2192 58.4207 84.2481C58.4538 84.2626 58.5134 84.2865 58.5782 84.3269C58.6274 84.3576 58.7613 84.451 58.8844 84.6156C59.0254 84.805 59.2141 85.2025 59.0419 85.6744C58.901 86.0589 58.6062 86.2299 58.5169 86.2781C58.3279 86.3798 58.1508 86.4057 58.1232 86.4094C57.9607 86.4321 57.755 86.4231 57.6419 86.4181L56.8019 86.3831C56.5607 86.3727 56.3169 86.3692 56.0757 86.3831L55.2357 86.4356C55.0078 86.4489 54.7808 86.4792 54.5532 86.5231L53.7132 86.6806C53.3296 86.7546 52.9379 86.7719 52.5494 86.7331L52.1294 86.6894L51.7094 86.6544C51.3792 86.6213 51.0492 86.5651 50.7207 86.4881L50.2919 86.3831L49.8719 86.2869C49.8339 86.278 49.8017 86.2775 49.7407 86.3044L49.3294 86.4881L48.9182 86.6631C48.5014 86.8466 48.0559 86.9398 47.5969 86.9256L47.1769 86.9169L46.7569 86.8994C46.448 86.8897 46.1311 86.8712 45.8207 86.8381L45.4007 86.7944L44.9719 86.7506C44.8489 86.7376 44.754 86.7276 44.6832 86.7244C44.638 86.7224 44.6076 86.7242 44.5957 86.7244L44.4032 86.7419L44.2194 86.7594C44.1987 86.7614 44.1676 86.7664 44.1407 86.7681C44.128 86.7689 44.1095 86.7676 44.0882 86.7681C44.076 86.7684 44.009 86.7679 43.9307 86.7594C43.9057 86.7567 43.7793 86.7481 43.6332 86.6894C43.5656 86.6622 43.3816 86.5748 43.2132 86.3831C42.9974 86.1368 42.8661 85.7654 42.9682 85.3681C43.0482 85.0595 43.2339 84.8774 43.3007 84.8169C43.3842 84.7412 43.4639 84.6898 43.5019 84.6681C43.5781 84.6253 43.6462 84.6063 43.6682 84.5981C43.7434 84.5704 43.811 84.5488 43.8257 84.5456C43.9001 84.529 44.0275 84.5063 44.1582 84.4844L44.5782 84.4144L44.9894 84.3444C45.2157 84.3065 45.4396 84.2555 45.6544 84.1869L46.0569 84.0556L46.4594 83.9331C46.7872 83.8284 47.1228 83.7447 47.4657 83.6969L47.8857 83.6444L48.3057 83.5831C48.4224 83.5668 48.5357 83.5235 48.6469 83.4519L49.0144 83.2156L49.3819 82.9881C49.6935 82.7876 50.0176 82.6145 50.3619 82.4894L50.7644 82.3494L51.1582 82.2094C51.547 82.0684 51.9511 81.9932 52.3657 81.9906H53.2407C53.4372 81.9894 53.5869 81.9638 53.6957 81.9294L53.7044 81.9206L53.7132 81.7981L54.0194 81.4919L54.0457 81.4569L53.9932 81.1244L53.9144 80.7044C53.8685 80.4433 53.8161 80.1742 53.7569 79.9081L53.6607 79.4881L53.5732 79.0681C53.464 78.5769 53.4893 78.0791 53.6607 77.6069L53.8094 77.1956L53.9582 76.7931C53.9915 76.7013 54.0427 76.4485 54.0457 75.9619L54.0544 75.1744V75.1219L54.0632 75.0169C54.0969 74.4013 54.6194 73.9268 55.2357 73.9581ZM54.7369 83.9419L54.3782 84.0556C54.0184 84.1706 53.6422 84.2281 53.2582 84.2306H52.3832C52.2134 84.2317 52.0579 84.2592 51.9194 84.3094L51.7182 84.3794C51.791 84.3897 51.8647 84.4159 51.9369 84.4231L52.3569 84.4669L52.7769 84.5019C52.9491 84.519 53.1217 84.5175 53.2932 84.4844L53.7044 84.3969L54.1244 84.3181C54.4506 84.2551 54.7832 84.2147 55.1132 84.1956L55.3407 84.1781L55.1569 84.0556L54.9119 83.8806L54.7369 83.9419Z" fill="#FF4500"/>
<path d="M2.71484 26.1487C3.13805 26.0917 3.56138 26.1608 3.95734 26.3499L4.36859 26.5512L4.70984 26.7174C4.77977 26.7317 4.84993 26.7479 4.91984 26.7612L5.07734 26.7962L5.46234 26.7699L5.89109 26.7349C6.30197 26.7042 6.70923 26.7416 7.10734 26.8487L7.52734 26.9624L7.93859 27.0762C7.95901 27.0817 7.98988 27.0884 8.06109 27.0587L8.48984 26.8749L8.90984 26.6999L9.36484 26.5687C9.66637 26.5138 9.97059 26.5224 10.2661 26.6037L10.7036 26.7787L11.1148 26.9974L11.5173 27.2074C11.6183 27.2606 11.6867 27.272 11.7361 27.2687L12.1561 27.2337L12.5848 27.1987C12.9116 27.173 13.2382 27.1732 13.5648 27.1899L14.4048 27.2249C14.6867 27.2395 14.9722 27.2616 15.2536 27.2774L15.6736 27.2949L16.0936 27.3212C16.5169 27.3452 16.9234 27.4525 17.3098 27.6274L17.7123 27.8024L18.1148 27.9862C18.2274 28.0371 18.3278 28.0596 18.4298 28.0562L19.2873 28.0212C19.688 28.0056 20.0835 28.0509 20.4686 28.1612L20.8711 28.2749L21.2823 28.3974C21.3612 28.4195 21.4619 28.4261 21.5973 28.3974L22.4898 28.2049C22.9202 28.1139 23.3559 28.1446 23.7586 28.3012L24.1523 28.5024L24.5198 28.7387L24.8961 28.9749C25.0505 29.0729 25.2083 29.1417 25.3686 29.1849L25.7798 29.2987L26.1911 29.4037C26.3635 29.4501 26.5388 29.4773 26.7161 29.4737L27.1361 29.4649L27.5648 29.4562C27.9328 29.4486 28.2999 29.4767 28.6586 29.5524L29.4811 29.7274C29.8211 29.7993 30.1545 29.9005 30.4786 30.0337L30.8723 30.1999L31.2748 30.3662C31.4292 30.4293 31.5859 30.4682 31.7473 30.4799L32.1673 30.5062L32.5961 30.5412C32.8001 30.5558 33.0072 30.5426 33.2173 30.5149L34.0748 30.4099C34.5315 30.35 34.9867 30.393 35.4223 30.5412L36.2448 30.8212C36.298 30.8384 36.5126 30.8728 36.9886 30.8299L37.7848 30.7599L37.8986 30.7512L38.0211 30.7687L38.1173 30.7774C38.7293 30.852 39.1689 31.4079 39.0973 32.0199C39.0284 32.5904 38.5385 32.9854 37.9773 32.9824L37.9861 32.9912L37.1898 33.0612C36.613 33.1131 36.0179 33.1085 35.5186 32.9387L34.6961 32.6587C34.5841 32.621 34.4761 32.6088 34.3636 32.6237L33.9348 32.6849L33.5061 32.7374C33.1476 32.7844 32.7882 32.7985 32.4298 32.7724L32.0098 32.7374L31.5811 32.7112C31.1805 32.6817 30.7893 32.5841 30.4173 32.4312L30.0236 32.2737L29.6298 32.1074C29.4282 32.0245 29.2225 31.9671 29.0173 31.9237L28.1948 31.7487C28.0056 31.7087 27.8081 31.692 27.6086 31.6962L27.1886 31.7049L26.7598 31.7137C26.3698 31.7217 25.9817 31.6752 25.6048 31.5737L24.7823 31.3462C24.395 31.2416 24.0286 31.0815 23.6886 30.8649L22.9536 30.3924V30.4012L22.5073 30.4974L22.0611 30.5849C21.8416 30.6314 21.6177 30.6489 21.3961 30.6462C21.4908 30.7021 21.5961 30.7451 21.6848 30.8124L22.0348 31.0837L22.3848 31.3462C22.391 31.3467 22.4109 31.3476 22.4286 31.3462L22.9011 31.3024L23.3736 31.2674C23.849 31.2246 24.3031 31.3263 24.6948 31.5737L25.0623 31.8624L25.3861 32.1862L25.7186 32.5099C25.77 32.5603 25.7979 32.5678 25.8236 32.5712L26.2611 32.6237L26.6898 32.6762C26.8783 32.6994 27.0813 32.7037 27.2936 32.6762L27.7398 32.6149L28.1948 32.5537C28.6252 32.4979 29.06 32.5225 29.4811 32.6412L29.8661 32.7462L30.2511 32.8599C30.5916 32.9561 30.9252 33.0897 31.2486 33.2624L31.6423 33.4724L32.0361 33.6912C32.1253 33.7389 32.1986 33.7476 32.2636 33.7437L32.6836 33.7174L33.1123 33.6912C33.4639 33.6702 33.8145 33.6808 34.1623 33.7262L34.5823 33.7787L34.9936 33.8312C35.3549 33.8783 35.7106 33.9672 36.0523 34.0937L36.4461 34.2424L36.7786 34.3649L37.1811 34.4437L37.2773 34.4699C37.8819 34.5883 38.276 35.1686 38.1611 35.7737C38.1211 35.9804 38.0123 36.1526 37.8811 36.2987L37.7586 36.6312L37.0498 36.6924H36.9973C36.7945 36.71 36.6181 36.672 36.5948 36.6662C36.5339 36.6518 36.469 36.6291 36.4198 36.6137C36.3196 36.582 36.1968 36.5414 36.0611 36.4912L35.2736 36.1937C35.0897 36.1257 34.8992 36.079 34.7048 36.0537L34.2936 36.0012L33.8736 35.9487C33.6668 35.9217 33.4561 35.9096 33.2436 35.9224L32.8236 35.9487L32.3948 35.9749C31.8957 36.0049 31.4207 35.8921 30.9861 35.6599L30.1986 35.2399C29.9996 35.1334 29.8088 35.0604 29.6386 35.0124L29.2536 34.9074L28.8686 34.7937C28.7773 34.7685 28.6535 34.7542 28.4836 34.7762L27.5736 34.8987C27.1847 34.9488 26.7938 34.9462 26.4098 34.8987L25.5523 34.7937C25.0047 34.7258 24.5264 34.4801 24.1436 34.1024L23.8198 33.7787L23.5311 33.4987L23.1023 33.5337L22.6298 33.5774C22.0615 33.6278 21.5093 33.4881 21.0373 33.1312L20.6786 32.8687L20.3286 32.5974C20.2417 32.5315 20.1661 32.5018 20.0923 32.4924L19.6811 32.4399L19.2611 32.3874C19.034 32.3584 18.7989 32.3419 18.5611 32.3437L18.1323 32.3524H17.7036C17.2594 32.3558 16.8239 32.2701 16.4173 32.0899L16.0323 31.9149L15.6386 31.7487C15.3708 31.63 15.1049 31.506 14.8423 31.3812L14.4661 31.1974L14.0811 31.0137C14.0099 30.9803 13.9262 30.9626 13.8098 30.9699L12.9173 31.0224C12.4125 31.0545 11.9194 30.9554 11.4736 30.7074L11.0973 30.4974L10.7211 30.2787C10.5678 30.1934 10.4119 30.1423 10.2573 30.1124L9.43484 29.9549C9.25522 29.9202 9.06647 29.9076 8.87484 29.9199L8.44609 29.9462L8.02609 29.9724C7.54009 30.0037 7.06802 29.9065 6.63484 29.6924L6.23234 29.4912L5.83859 29.2987C5.66223 29.2113 5.49066 29.1557 5.32234 29.1237L4.91109 29.0449L4.68359 29.0012C4.52153 28.9817 4.36691 28.9442 4.21109 28.8962C4.0161 28.8556 3.81942 28.8211 3.62484 28.7737L3.21359 28.6774L2.80234 28.5724C2.69811 28.547 2.64682 28.5537 2.63609 28.5549L2.00609 28.7299C1.9554 28.7439 1.89698 28.7538 1.84859 28.7649C1.83523 28.768 1.81207 28.7779 1.78734 28.7824C1.77761 28.7842 1.70256 28.797 1.61234 28.7999C1.59624 28.8006 1.41734 28.8102 1.20984 28.7387C1.10784 28.7033 0.804018 28.5825 0.606094 28.2399C0.36891 27.8275 0.462618 27.422 0.562344 27.2074C0.649034 27.0218 0.764998 26.9063 0.807344 26.8662C0.861636 26.815 0.911516 26.78 0.938594 26.7612C0.991608 26.7244 1.03255 26.6929 1.05234 26.6824C1.14669 26.6328 1.26268 26.5979 1.27109 26.5949L1.87484 26.3937L2.29484 26.2449L2.71484 26.1487Z" fill="#FF4500"/>
<path d="M50.4334 32.3102C50.8922 32.5117 51.1237 32.9833 51.0721 33.4565L51.1509 34.0865C51.2257 34.6782 51.2357 35.3519 50.9584 35.9152L50.7659 36.309L50.5734 36.694C50.5053 36.8319 50.4633 36.9717 50.4509 37.114L50.4159 37.5427L50.3809 37.9627C50.3434 38.3949 50.2219 38.8117 50.0221 39.1965L49.6196 39.9665C49.3998 40.3887 49.0873 40.7427 48.6921 41.0077L48.3334 41.244L47.9659 41.489C47.7236 41.6515 47.484 41.8083 47.2484 41.9615L46.5484 42.4165C46.3156 42.5678 46.0719 42.723 45.8309 42.8802L45.1134 43.3527C44.7483 43.5909 44.3442 43.7575 43.9146 43.834L43.4946 43.904L43.0746 43.9827C42.7041 44.0484 42.3262 44.0675 41.9459 44.044L41.4996 44.0177L41.3946 44.009C41.3328 44.2476 41.2141 44.4717 41.0009 44.6302L40.9221 44.6915L39.7846 45.5227L39.7671 45.654L39.6709 46.109C39.5498 46.6745 39.2397 47.1693 38.7434 47.509L38.3846 47.754L38.0171 48.0077C37.7974 48.1583 37.5918 48.3049 37.4046 48.454L36.7746 48.9615C36.3681 49.2853 35.884 49.4541 35.3659 49.4602L34.9546 49.469H34.5521C34.4315 49.4703 34.2795 49.4953 34.0971 49.5652L33.6596 49.7315L33.2309 49.8977C32.9602 50.0016 32.5416 50.1001 32.0934 49.9415C31.6046 49.7668 31.3292 49.3783 31.2009 49.049L31.0609 48.6815L30.9121 48.3052C30.7712 47.9431 30.6956 47.565 30.6846 47.1765L30.6671 46.7915L30.6584 46.4065C30.6447 45.8941 30.8052 45.4209 31.0959 45.0152L31.3321 44.6827L31.5684 44.359C31.8381 43.9835 32.191 43.694 32.6009 43.4927L32.9771 43.309L33.3621 43.1165C33.7941 42.9051 34.2589 42.8146 34.7359 42.8452L35.1734 42.8715L35.6109 42.9065C35.8015 42.9187 35.9735 42.9049 36.1271 42.8715L36.9146 42.6965C37.3371 42.6047 37.7703 42.6038 38.1921 42.6877L38.6121 42.7752L38.9271 42.8277L39.2421 42.574L39.6096 42.2765C40.0556 41.9097 40.5983 41.7155 41.1934 41.7515L42.0859 41.804C42.2957 41.8169 42.4935 41.8108 42.6809 41.7777L43.1009 41.699L43.5209 41.629C43.6495 41.6062 43.7712 41.5567 43.8884 41.4802L44.6059 41.0077C44.8476 40.8501 45.0898 40.6958 45.3234 40.544L46.0234 40.089C46.2521 39.9403 46.4872 39.7837 46.7234 39.6252L47.0821 39.389L47.4409 39.144C47.5249 39.0876 47.5874 39.0217 47.6334 38.934L48.0359 38.164C48.1023 38.0362 48.1379 37.9054 48.1496 37.7702L48.1846 37.3415L48.2196 36.9215C48.2566 36.4965 48.3722 36.0878 48.5609 35.7052L48.7534 35.3115L48.9459 34.9265C48.9295 34.9603 48.9467 34.9427 48.9546 34.839C48.9622 34.7369 48.9554 34.5805 48.9284 34.3665L48.8321 33.5702L48.7884 33.264L48.9196 32.984L48.9546 32.8877C49.203 32.3212 49.8669 32.0619 50.4334 32.3102ZM37.4659 45.6627L37.4746 45.6452L37.5796 45.1815L37.6409 44.884C37.5509 44.8759 37.471 44.8681 37.3959 44.884L36.9934 44.9715L36.5996 45.059C36.2274 45.1397 35.8469 45.1629 35.4621 45.1377L35.0246 45.1115L34.5959 45.0852C34.4978 45.0788 34.4159 45.0928 34.3421 45.129L33.9659 45.3127L33.5809 45.5052C33.4871 45.5519 33.4307 45.6045 33.3884 45.6627L33.1521 45.9952L32.9159 46.319L32.8984 46.3452L32.9071 46.7302L32.9246 47.1152C32.9282 47.2347 32.9514 47.358 33.0034 47.4915L33.0296 47.5702L33.2921 47.474C33.6883 47.322 34.104 47.2335 34.5259 47.229H34.9284L35.3396 47.2202C35.3498 47.2201 35.3633 47.2207 35.3659 47.2202L35.3746 47.2115L35.6896 46.9577L36.0134 46.704C36.2466 46.5183 36.4959 46.3315 36.7571 46.1527L37.4659 45.6627Z" fill="#FF4500"/>
<path d="M43.187 32.4911C43.4073 32.5074 43.624 32.5491 43.8328 32.6171L44.069 32.6906L44.3 32.7693C44.4403 32.815 44.5826 32.8549 44.7253 32.8901L44.9668 32.9478L45.203 33.0056C45.3893 33.0514 45.5794 33.1092 45.7648 33.1788L46.0063 33.2733L46.2478 33.3626C46.5254 33.4668 46.7634 33.6385 46.946 33.8718L47.1035 34.0766L47.2663 34.2813C47.3784 34.4246 47.482 34.5678 47.5813 34.7066L47.723 34.9008L47.8648 35.1003C47.9183 35.1753 47.9695 35.2569 48.0118 35.3366C48.0332 35.3771 48.0592 35.4321 48.08 35.4941C48.0979 35.5473 48.1318 35.6564 48.122 35.7933L48.1168 35.8563L48.1115 35.9141C48.0906 36.206 47.9088 36.3792 47.807 36.4496C47.7068 36.5189 47.6042 36.5498 47.5498 36.5651C47.4349 36.5971 47.308 36.6107 47.2033 36.6176L46.9303 36.6333L46.652 36.6543C46.567 36.66 46.5229 36.6809 46.4998 36.6963L46.3003 36.8276L46.0955 36.9641C45.8919 37.0994 45.6669 37.1918 45.4288 37.2476L45.1873 37.3053L44.9405 37.3631C44.7374 37.4107 44.5297 37.4417 44.321 37.4523L44.069 37.4628L43.817 37.4786C43.523 37.4935 43.2397 37.4265 42.9823 37.2896L42.7513 37.1688L42.5203 37.0428C42.4054 36.9816 42.2969 36.938 42.2 36.9116L41.9743 36.8538L41.7485 36.7908C41.4329 36.7045 41.1779 36.511 41.003 36.2448L40.8718 36.0401L40.7353 35.8353C40.675 35.7439 40.5957 35.6515 40.499 35.5571L40.31 35.3681L40.1158 35.1791C39.8495 34.9186 39.7083 34.5681 39.7588 34.1763L39.7903 33.9243L39.8218 33.6776L39.8953 33.3993C39.9331 33.3058 39.9881 33.213 40.0633 33.1263C40.2196 32.9465 40.4192 32.8493 40.6145 32.8113L40.835 32.7693L41.0608 32.7273C41.1955 32.7012 41.3391 32.6703 41.4913 32.6328L41.7328 32.5698L41.9795 32.5121C42.2105 32.4553 42.4458 32.4317 42.683 32.4491L43.187 32.4911ZM42.2998 33.8141L42.0583 33.8771L41.8115 33.9348C41.6393 33.9772 41.4724 34.0142 41.3128 34.0451L41.1238 34.0766V34.0976L41.1028 34.2603L41.4388 34.5963C41.5983 34.7522 41.7402 34.9199 41.8588 35.1003L41.9953 35.3051L42.116 35.4941L42.3313 35.5571L42.557 35.6148C42.7604 35.6704 42.958 35.7539 43.1503 35.8563L43.3813 35.9823L43.6123 36.1031C43.6626 36.1299 43.7059 36.1368 43.7488 36.1346L44.0008 36.1241L44.2528 36.1083C44.381 36.1018 44.5067 36.0849 44.6308 36.0558L45.1243 35.9403C45.2121 35.9197 45.2858 35.8882 45.35 35.8458L45.5548 35.7093L45.7543 35.5781C45.9465 35.4502 46.1602 35.3786 46.379 35.3418C46.3233 35.2668 46.2666 35.1885 46.2058 35.1108L46.0483 34.9061L45.8855 34.7013C45.8548 34.6622 45.8213 34.6399 45.7753 34.6226L45.5338 34.5281L45.2923 34.4388C45.1537 34.3868 45.015 34.3454 44.8828 34.3128L44.6465 34.2551L44.405 34.1921C44.2303 34.1491 44.0567 34.1009 43.8853 34.0451L43.649 33.9716L43.418 33.8928C43.3141 33.859 43.2023 33.8384 43.0873 33.8298L42.8353 33.8088L42.5833 33.7931C42.4869 33.7862 42.3929 33.7912 42.2998 33.8141Z" fill="#FF4500"/>
<path d="M42.597 32.8434C42.8927 32.6191 43.3177 32.679 43.542 32.9747L43.5997 33.0534L43.7625 33.2634L43.7362 33.5259L43.689 33.9407L43.773 33.8829L43.7677 33.8987L43.9147 33.7884L43.92 33.7779L44.0407 33.6939C43.9932 33.6475 43.9669 33.608 43.962 33.6047L43.9777 33.5679L44.088 33.5994C44.1954 33.6275 44.2908 33.6725 44.3767 33.7254L44.6077 33.9039L44.7075 34.0089L44.8072 34.1087C44.8837 34.1856 44.9785 34.3123 45.0172 34.4919C45.0584 34.6853 45.0179 34.8684 44.9437 35.0064C44.822 35.231 44.6154 35.3427 44.5237 35.3897L44.0932 35.6102C43.9219 35.6976 43.6924 35.7597 43.437 35.6994C43.183 35.6394 43.0048 35.4811 42.891 35.3319L42.744 35.1377L42.5918 34.9434C42.334 34.6052 42.3221 34.1757 42.3555 33.8357L42.3818 33.5889C42.2921 33.3232 42.3616 33.0226 42.597 32.8434ZM43.9147 33.7884L43.7677 33.8987L43.773 33.8829L43.92 33.7779L43.9147 33.7884ZM43.9777 33.5679L43.962 33.6047C43.92 33.5765 43.8824 33.5559 43.8622 33.5469L43.8675 33.5417L43.9777 33.5679ZM43.8675 33.5417L43.8622 33.5469L43.7992 33.5259C43.7912 33.5233 43.7879 33.519 43.794 33.5207C43.8059 33.524 43.8314 33.5323 43.8675 33.5417Z" fill="#FF4500"/>
<path d="M46.197 2.80774C46.3555 2.24132 46.4004 1.87937 46.4684 1.78956L46.6045 1.44937C46.5596 1.5868 46.5821 1.65416 46.5933 1.977C46.6045 2.86115 46.5814 3.49185 46.5477 3.68542C46.5133 4.24027 46.3872 5.75253 46.5368 6.6328C46.6045 7.03116 46.6089 7.44232 46.6841 7.89184C46.7181 8.09527 46.6649 9.27463 46.7522 10.8899C46.7862 11.5196 46.8422 11.7007 46.877 11.9173C46.9447 12.3381 47.0555 12.7882 47.0695 14.5969C47.0808 16.0407 47.0808 18.7125 47.0808 19.9559C47.0808 21.1993 47.0808 21.0197 47.0923 20.8952C47.1039 20.7706 47.1262 20.7033 47.1491 20.6118C47.2631 20.157 47.5552 19.219 47.6822 18.5251C47.7611 18.0941 47.8337 17.5926 47.9088 17.1531C47.9884 16.687 48.1073 16.051 48.1809 15.463C48.215 15.1916 48.5107 14.2347 48.8171 12.9307C49.0321 12.0156 49.1907 11.3775 49.2695 10.9168C49.326 10.5868 49.3661 10.0876 49.4624 9.6353C49.5301 9.31722 49.5629 8.99933 49.6097 8.65998C49.6662 8.25039 49.7261 7.65629 49.8706 6.93557C49.9615 6.48278 50.1228 5.89856 50.3245 5.04175C50.4609 4.46207 50.6732 3.73354 50.9031 3.04519C51.1644 2.2631 51.4146 0.603317 51.7305 1.08673C51.7754 1.15545 51.7735 1.38423 51.855 2.62029C51.9114 3.47689 51.9508 4.55789 51.991 4.96589C52.0475 5.53842 52.2129 6.80129 52.2748 7.46252C52.3877 8.67087 52.4049 9.80414 52.3081 10.3184C52.2741 10.499 52.3396 11.772 52.2401 13.5668C52.1836 14.5847 52.1563 15.128 52.104 15.4549C52.0475 15.808 51.9389 16.3934 51.9227 17.3603C51.9114 18.0301 51.9298 19.2656 51.8999 19.9287C51.8658 20.6822 51.8705 20.8911 51.8318 21.0908C51.7522 21.5014 51.6273 22.0447 51.5597 22.4294C51.4801 22.8825 51.4134 24.5684 51.492 25.7187C51.5495 26.5606 51.6338 27.3737 51.7077 27.9064C51.7754 28.3949 51.8849 28.8438 51.9002 29.8809C51.9114 30.6429 51.9114 32.0349 51.8767 32.7194C51.842 33.4038 51.7747 33.3814 51.7063 33.3586C51.5706 33.3134 51.4316 33.2731 51.2634 33.1994C50.7983 32.9956 50.4948 32.8775 50.1748 32.7459C49.7329 32.5643 49.3992 32.4616 48.9504 32.2129C48.6443 32.0431 48.3346 31.9355 47.3505 31.5209C46.9202 31.3396 46.617 31.1331 46.0694 31.0681C45.4901 30.9994 45.0336 30.909 44.5613 30.83C44.0858 30.7504 43.6624 30.7721 43.2241 30.6371C42.9291 30.5463 42.2667 30.7273 42.2382 30.3068C42.2052 29.8196 42.2339 28.362 42.3069 27.3016C42.3413 26.8029 42.5885 26.3843 42.7043 25.8163C42.7944 25.3741 42.79 25.0529 42.874 24.4443C42.9305 24.0351 42.9363 23.5355 43.0101 22.5954C43.0666 21.8756 43.0411 20.9654 43.1693 20.3148C43.3387 19.4548 43.4148 18.9597 43.4636 18.4118C43.4979 18.026 43.5544 17.6651 43.5996 17.084C43.6571 16.3455 43.7587 15.7534 43.8834 15.1001C43.9742 14.6241 44.0696 14.1267 44.2123 13.558C44.3375 13.0593 44.5485 12.1937 44.643 11.5856C44.6995 11.2223 44.7075 10.8566 44.7906 10.2119C44.9036 9.33627 44.9189 8.65453 45.1567 7.55641C45.3417 6.70186 45.7178 5.13365 45.8806 4.2981C46.0602 3.37619 46.1082 3.12494 46.197 2.80774Z" fill="#FF4500"/>
<path d="M51.9949 0.32275C52.3599 0.416763 52.4781 0.731561 52.4989 0.79L52.5514 1.06825L52.5776 1.36225L52.6039 1.651C52.6225 1.85748 52.6354 2.05515 52.6406 2.239L52.6511 2.491L52.6564 2.743C52.6603 2.88478 52.6728 3.02706 52.6931 3.16825L52.7666 3.67225C52.7945 3.86613 52.8107 4.06056 52.8139 4.255V4.507L52.8191 4.759C52.8216 4.91255 52.8293 5.06651 52.8401 5.221L52.8559 5.473L52.8769 5.725C52.8891 5.89928 52.8965 6.0747 52.9031 6.25L52.9241 6.754C52.9316 6.9511 52.9266 7.1497 52.9084 7.34725L52.8821 7.6045L52.8611 7.8565C52.8483 7.9947 52.8439 8.13247 52.8506 8.266L52.8611 8.518L52.8769 8.76475C52.8831 8.88761 52.8978 9.01761 52.9294 9.148L53.0554 9.652C53.1072 9.86633 53.1352 10.0862 53.1394 10.303L53.1499 10.7965C53.1545 11.0368 53.1156 11.274 53.0449 11.5052L52.9714 11.7572L52.8926 12.0092C52.8551 12.1316 52.8334 12.251 52.8244 12.3662L52.7824 12.8702C52.7697 13.0346 52.7623 13.1993 52.7509 13.3637L52.7299 13.6157L52.7141 13.8677C52.7039 14.0144 52.7005 14.1614 52.7036 14.3087L52.7141 14.8127C52.7179 14.9948 52.7172 15.177 52.7089 15.3587L52.6931 15.6107L52.6826 15.8627C52.6743 16.0446 52.6606 16.2273 52.6406 16.4087L52.6144 16.6607L52.5829 16.9127C52.5656 17.0695 52.5564 17.2277 52.5461 17.3852L52.5251 17.6372L52.5094 17.8892C52.4987 18.0539 52.4918 18.2185 52.4831 18.3827L52.4674 18.6347L52.4569 18.8867C52.4499 19.0189 52.4537 19.153 52.4674 19.2857L52.5199 19.7897C52.541 19.9937 52.5426 20.2001 52.5304 20.404L52.4989 20.908C52.4879 21.0903 52.4702 21.2722 52.4464 21.454L52.4149 21.706L52.3834 21.9527C52.3528 22.1851 52.2891 22.4133 52.1944 22.63L52.0841 22.8715L51.9791 23.1182C51.9608 23.1607 51.9576 23.1928 51.9634 23.2285L52.0106 23.4857L52.0526 23.743C52.0928 23.9766 52.0972 24.2118 52.0684 24.4465L52.0369 24.6985L52.0106 24.9505C52.0047 24.9988 52.0062 25.0513 52.0316 25.1132L52.1366 25.36L52.2364 25.6067C52.3352 25.8461 52.3873 26.0982 52.3886 26.3575V26.6095L52.3939 26.8615C52.3944 27.0144 52.3988 27.1715 52.4096 27.3235L52.4254 27.5702L52.4464 27.8222C52.4585 27.993 52.4684 28.165 52.4779 28.3367L52.4936 28.5887L52.5041 28.8407C52.5135 29.0103 52.522 29.1811 52.5304 29.35L52.5461 29.602L52.5566 29.854C52.5638 29.9982 52.5768 30.1442 52.5986 30.2897L52.6354 30.5417L52.6774 30.7937C52.7208 31.085 52.6841 31.374 52.5776 31.6442L52.4779 31.891L52.3781 32.143C52.3355 32.251 52.3157 32.3467 52.3099 32.4317L52.2941 32.6785L52.2784 32.92C52.2693 33.0595 52.2366 33.2479 52.1261 33.424C52 33.6246 51.7984 33.7623 51.5591 33.8072L51.4016 33.8387L51.2494 33.865C50.9863 33.9141 50.7288 33.8615 50.5196 33.7915L50.2781 33.7127L50.0419 33.634C49.7727 33.5438 49.5379 33.3893 49.3436 33.1877L49.1546 32.9882L48.9709 32.8045L48.7136 32.8097H48.4354C48.0904 32.811 47.7671 32.6934 47.5061 32.458L47.3066 32.2795L47.1124 32.101C47.0376 32.0336 46.9599 31.9845 46.8814 31.954L46.6451 31.8647L46.4089 31.7702C46.3408 31.7438 46.2681 31.7347 46.1884 31.7387L45.9311 31.7492L45.6686 31.765C45.4165 31.7778 45.1685 31.7429 44.9284 31.6652L44.6816 31.5865L44.4401 31.5077C44.2929 31.4601 44.1456 31.4192 43.9991 31.3817L43.7524 31.3187L43.5109 31.2557C43.4621 31.2434 43.3911 31.2399 43.2904 31.261L43.0121 31.3187L42.7286 31.3765C42.5455 31.4144 42.2351 31.4318 41.9621 31.2137C41.6916 30.9975 41.6378 30.6931 41.6314 30.5102L41.6209 30.2162L41.6104 29.9275C41.6034 29.7271 41.6 29.5369 41.5999 29.3605V28.8565C41.5996 28.7332 41.5877 28.6073 41.5631 28.4785L41.5159 28.2212L41.4634 27.9692C41.4012 27.645 41.452 27.3231 41.6051 27.0347L41.7311 26.8037L41.8571 26.5675C41.9138 26.4607 41.953 26.3538 41.9779 26.2472L42.0356 25.9952L42.0934 25.7485C42.1287 25.5964 42.1568 25.4439 42.1826 25.2917L42.2299 25.0397L42.2719 24.793C42.3022 24.6139 42.3358 24.4317 42.3769 24.2522L42.4346 24.0055L42.4924 23.7535C42.4972 23.7324 42.4999 23.7008 42.4766 23.6432L42.3716 23.386L42.2666 23.1235C42.1333 22.7929 42.127 22.4364 42.2719 22.0997L42.3769 21.8582L42.4819 21.6115C42.5121 21.5413 42.5225 21.4817 42.5186 21.4277L42.4976 21.1757L42.4819 20.9237C42.4609 20.6422 42.5097 20.3667 42.6236 20.11L42.8336 19.6375V19.627C42.8337 19.6251 42.8343 19.6158 42.8284 19.5955L42.7496 19.3277L42.6761 19.0652C42.5711 18.7081 42.6167 18.3451 42.8074 18.0257L42.9491 17.7842L43.0909 17.548C43.1216 17.4964 43.1238 17.4651 43.1224 17.443L43.1066 17.191L43.0856 16.9337C43.0723 16.7359 43.074 16.5368 43.0856 16.3405L43.1014 16.0885L43.1171 15.8417C43.1276 15.6648 43.1412 15.4833 43.1591 15.3062L43.1801 15.0542L43.2064 14.8022C43.2336 14.5367 43.3198 14.2869 43.4531 14.0567L43.5844 13.8257L43.7156 13.6C43.7536 13.5345 43.7742 13.4706 43.7786 13.4057L43.7944 13.1537L43.8101 12.8965C43.8259 12.6664 43.8757 12.4423 43.9519 12.2245L44.0359 11.983L44.1199 11.7362C44.1256 11.7194 44.1295 11.6967 44.1146 11.647L44.0359 11.3845L43.9571 11.1167C43.8608 10.7953 43.8722 10.4597 44.0096 10.1455L44.1199 9.904L44.2249 9.6625C44.2757 9.54622 44.3091 9.43243 44.3299 9.32125L44.3771 9.0745L44.4244 8.8225C44.4461 8.70433 44.4528 8.58371 44.4506 8.46025L44.4454 8.203V7.94575C44.4413 7.72217 44.4633 7.5015 44.5136 7.28425L44.5714 7.0375L44.6239 6.79075C44.672 6.58329 44.7455 6.38254 44.8339 6.187L44.9389 5.95075L45.0439 5.71975C45.0861 5.62621 45.1114 5.52885 45.1226 5.431L45.1541 5.179L45.1804 4.927C45.1951 4.79723 45.1977 4.66442 45.1909 4.528L45.1804 4.2655L45.1646 4.00825C45.1497 3.71375 45.2155 3.4284 45.3536 3.16825L45.4744 2.93725L45.6004 2.70625C45.6477 2.61735 45.6758 2.5282 45.6896 2.4385L45.7264 2.1865L45.7684 1.93975C45.7836 1.8408 45.8018 1.73563 45.8314 1.6405C45.8507 1.57845 45.9096 1.38887 46.0729 1.2415L46.1306 1.189L46.1831 1.14175C46.2144 1.11364 46.2794 1.0624 46.3721 1.021C46.4656 0.979254 46.649 0.923382 46.8656 0.99475C47.0885 1.06851 47.2061 1.23096 47.2594 1.336C47.3093 1.43471 47.3272 1.52319 47.3329 1.567C47.3512 1.71106 47.3222 1.85487 47.3119 1.90825L47.2751 2.1025L47.2384 2.2915C47.2329 2.32087 47.2253 2.38795 47.2436 2.5015L47.3276 3.0055C47.3607 3.21112 47.3769 3.41842 47.3749 3.625L47.3696 3.877V4.129C47.3676 4.32357 47.3525 4.51915 47.3276 4.71175L47.2961 4.9585L47.2646 5.2105C47.2431 5.37708 47.2185 5.5453 47.1964 5.7145L47.1334 6.2185C47.1174 6.34003 47.1127 6.46262 47.1229 6.58075L47.1439 6.83275L47.1649 7.0795C47.1724 7.1675 47.1982 7.26515 47.2436 7.36825L47.4641 7.86175C47.5901 8.14757 47.6286 8.45787 47.5639 8.77L47.5114 9.022L47.4536 9.274C47.4275 9.39907 47.4182 9.52458 47.4169 9.64675L47.4116 9.89875V10.1507C47.4097 10.3524 47.3911 10.5569 47.3591 10.7597L47.3171 11.017L47.2751 11.2795C47.2693 11.3183 47.2778 11.3495 47.2961 11.3897L47.4064 11.6312L47.5114 11.8727C47.6187 12.1075 47.6835 12.355 47.6951 12.613L47.7056 12.865L47.7161 13.1222C47.7247 13.3203 47.7185 13.5179 47.7004 13.7155L47.6794 13.9675L47.6636 14.1512C47.7182 14.058 47.776 13.9666 47.8474 13.8835L48.0311 13.6682L48.1834 13.4897L48.1466 13.2587L48.0941 12.9857C48.0391 12.6855 48.0643 12.3811 48.1886 12.0932L48.2936 11.857L48.3934 11.6207C48.4449 11.5018 48.4859 11.3814 48.5141 11.2585L48.5719 11.0117L48.6244 10.765C48.657 10.6223 48.6842 10.4791 48.7031 10.3345L48.7346 10.0825L48.7714 9.83575C48.7952 9.65322 48.8233 9.47051 48.8606 9.28975L48.9131 9.043L48.9656 8.791C48.9854 8.69396 48.9911 8.59282 48.9814 8.4865L48.9551 8.22925L48.9341 7.972C48.9069 7.67815 48.9541 7.38718 49.0811 7.1215L49.1966 6.8905L49.3069 6.65425C49.3618 6.5394 49.4011 6.42185 49.4276 6.30775L49.4854 6.06625L49.5431 5.8195C49.5796 5.6626 49.6162 5.50526 49.6481 5.347L49.6954 5.10025L49.7479 4.8535C49.7858 4.66567 49.8322 4.47945 49.8896 4.297L49.9631 4.0555L50.0419 3.81925C50.0999 3.63486 50.1667 3.45113 50.2466 3.27325L50.3516 3.037L50.4566 2.806C50.4965 2.71739 50.5253 2.6255 50.5354 2.52775L50.5564 2.2705L50.5826 2.0185C50.6106 1.74227 50.7065 1.47976 50.8451 1.2415L50.9869 0.99475L51.1339 0.748L51.3071 0.517C51.357 0.467913 51.613 0.224482 51.9949 0.32275ZM42.9439 29.3605C42.944 29.5195 42.9479 29.6929 42.9544 29.8802V29.9537L43.0174 29.9432C43.2894 29.8864 43.5678 29.8843 43.8416 29.9537L44.0884 30.0167L44.3299 30.0797C44.5053 30.1246 44.6802 30.1754 44.8549 30.232L45.0964 30.3107L45.3431 30.3895C45.4246 30.4156 45.5092 30.4256 45.6004 30.421L45.8576 30.4052L46.1201 30.3947C46.3853 30.3813 46.6439 30.4245 46.8919 30.5207L47.1334 30.61L47.3696 30.7045C47.607 30.797 47.8207 30.9327 48.0101 31.1035L48.4091 31.4605H48.4144C48.4172 31.4609 48.422 31.4658 48.4301 31.4657H48.7084L48.9814 31.4605C49.2533 31.4595 49.5093 31.5371 49.7269 31.6862L49.9369 31.8647L50.1206 32.059L50.3096 32.2532C50.366 32.3118 50.4188 32.342 50.4671 32.3582L50.7034 32.437L50.9449 32.521H50.9501L50.9659 32.3477C50.9814 32.1093 51.0399 31.8746 51.1286 31.6495L51.2284 31.3975L51.3229 31.1507C51.3477 31.0877 51.3555 31.0375 51.3491 30.9932L51.3071 30.7412L51.2704 30.4892C51.2419 30.2994 51.222 30.1072 51.2126 29.917L51.1916 29.413C51.1835 29.2474 51.1745 29.0805 51.1654 28.9142L51.1339 28.4102L51.0866 27.67L51.0709 27.418C51.0578 27.2357 51.0505 27.0499 51.0499 26.8667L51.0446 26.6147V26.3627C51.0441 26.2876 51.0283 26.209 50.9921 26.1212L50.7926 25.6277C50.6827 25.3615 50.6364 25.0768 50.6719 24.7877L50.7349 24.2837C50.7474 24.1813 50.748 24.0752 50.7296 23.9687L50.6824 23.7167L50.6404 23.4595C50.588 23.1563 50.6282 22.857 50.7506 22.5775L50.8556 22.336L50.9606 22.0892C51.007 21.983 51.0366 21.8801 51.0499 21.7795L51.0814 21.5275L51.1181 21.2807C51.138 21.1294 51.151 20.9753 51.1601 20.824L51.1759 20.572L51.1916 20.3252C51.1994 20.1952 51.1947 20.0631 51.1811 19.9315L51.1286 19.4275C51.1077 19.2251 51.1022 19.0212 51.1129 18.8185L51.1286 18.5665L51.1391 18.3145C51.1481 18.1439 51.1595 17.9709 51.1706 17.8L51.2021 17.296C51.2136 17.1188 51.2299 16.9421 51.2494 16.7657L51.2756 16.5137L51.3071 16.2617C51.324 16.1087 51.3316 15.9529 51.3386 15.7997L51.3544 15.553L51.3649 15.301C51.3719 15.1484 51.3733 14.992 51.3701 14.839L51.3596 14.335C51.3558 14.1476 51.3623 13.96 51.3754 13.7732L51.3911 13.5212L51.4069 13.2745C51.4186 13.1056 51.4306 12.934 51.4436 12.7652L51.4646 12.5132L51.4856 12.2665C51.5025 12.0479 51.5412 11.8283 51.6064 11.6155L51.7639 11.1115C51.7952 11.0083 51.8076 10.9124 51.8059 10.8227L51.7954 10.3292C51.7932 10.216 51.7777 10.0955 51.7481 9.97225L51.6851 9.715L51.6274 9.463C51.577 9.25486 51.5435 9.04311 51.5329 8.833L51.5224 8.58625L51.5066 8.33425C51.4966 8.13558 51.5038 7.93609 51.5224 7.73575L51.5434 7.4785L51.5696 7.2265C51.5826 7.08584 51.5853 6.94527 51.5801 6.8065L51.5591 6.3025C51.553 6.14166 51.544 5.97921 51.5329 5.8195L51.5014 5.3155C51.4888 5.13666 51.4779 4.95828 51.4751 4.78L51.4699 4.528V4.276C51.4679 4.15735 51.4536 4.03873 51.4384 3.919C51.3965 4.01947 51.355 4.12133 51.3229 4.2235L51.2494 4.45975L51.1706 4.70125C51.1278 4.83722 51.094 4.97572 51.0656 5.116L51.0131 5.368L50.9659 5.61475C50.9314 5.78534 50.8897 5.95479 50.8504 6.124L50.7979 6.37075L50.7401 6.61225C50.6906 6.82485 50.6149 7.03235 50.5196 7.23175L50.4094 7.468L50.2939 7.70425C50.2711 7.75235 50.263 7.79603 50.2676 7.846L50.3201 8.3605C50.342 8.59656 50.3258 8.83272 50.2781 9.064L50.2256 9.31075L50.1784 9.56275C50.1478 9.71089 50.1191 9.85976 50.0996 10.009L50.0681 10.2557L50.0366 10.5077C50.0122 10.6947 49.979 10.8802 49.9369 11.0642L49.8214 11.5577C49.7745 11.7623 49.711 11.9626 49.6271 12.1562L49.5274 12.3925L49.4224 12.6287C49.4124 12.6527 49.4062 12.6852 49.4171 12.7442L49.4644 13.0172L49.5169 13.2902C49.5866 13.673 49.4835 14.0374 49.2334 14.3297L48.8659 14.7602C48.8124 14.8229 48.7866 14.8751 48.7766 14.923L48.7241 15.175L48.6716 15.4322C48.6489 15.5424 48.6441 15.6528 48.6506 15.763L48.6664 16.0202L48.6769 16.2722C48.6877 16.4547 48.6966 16.6415 48.6979 16.8235V17.0755L48.7031 17.3327C48.7045 17.541 48.6849 17.7476 48.6506 17.9522L48.6086 18.2042L48.5666 18.451C48.5373 18.6253 48.503 18.8014 48.4669 18.976L48.4196 19.228L48.3671 19.48C48.31 19.7555 48.1871 20.0061 48.0154 20.2255L47.8474 20.4407L47.7739 20.5247C47.7717 20.5347 47.7762 20.5466 47.7739 20.5562C47.7644 20.5951 47.7455 20.6763 47.7004 20.761C47.6778 20.8033 47.6272 20.88 47.5429 20.9552C47.4513 21.0368 47.2921 21.1377 47.0756 21.1337L47.0389 21.1285H47.0021C46.92 21.1268 46.7947 21.1111 46.6661 21.034C46.5261 20.9491 46.4315 20.8216 46.3826 20.6927C46.3019 20.4801 46.352 20.2969 46.3616 20.2622C46.3911 20.1571 46.4419 20.0754 46.4561 20.0522C46.4673 20.0339 46.4798 20.0137 46.4929 19.9945L46.5034 19.8895L46.5296 19.6375C46.541 19.5231 46.5406 19.4062 46.5244 19.291L46.4509 18.787C46.4213 18.576 46.4116 18.3638 46.4246 18.1517L46.4561 17.6477C46.4616 17.5594 46.4525 17.4663 46.4246 17.3695L46.3564 17.1175L46.2829 16.8655C46.1877 16.5355 46.2192 16.2042 46.3564 15.8995L46.4666 15.6475L46.5821 15.3955L46.5874 15.385L46.5034 15.133L46.4141 14.881C46.3275 14.6284 46.2951 14.3657 46.3196 14.0987L46.3406 13.8467L46.3669 13.5947C46.3795 13.4569 46.3781 13.3178 46.3721 13.18L46.3511 12.676C46.3477 12.5977 46.3322 12.5143 46.2934 12.4292L46.1831 12.193L46.0729 11.9515C45.9455 11.673 45.9044 11.3731 45.9521 11.0695L45.9889 10.8122L46.0309 10.5497C46.0529 10.4097 46.0664 10.2734 46.0676 10.1402V9.88825L46.0729 9.63625C46.0749 9.4233 46.0972 9.21119 46.1411 9.001L46.2461 8.497C46.2509 8.47415 46.2493 8.45118 46.2304 8.40775L46.1201 8.15575L46.0151 7.909C45.9434 7.74641 45.8951 7.57731 45.8629 7.405L45.8209 7.58875C45.7959 7.69717 45.7819 7.81042 45.7841 7.92475L45.7894 8.17675L45.7946 8.434C45.7986 8.64804 45.7809 8.85974 45.7421 9.06925L45.7001 9.316L45.6529 9.56275C45.6124 9.78072 45.5436 9.99696 45.4534 10.2032L45.2434 10.6862C45.2409 10.6918 45.2385 10.6952 45.2381 10.6967C45.2381 10.6976 45.2371 10.7128 45.2434 10.7335L45.3221 10.996L45.4061 11.2585C45.4966 11.5598 45.4973 11.8767 45.3904 12.1825L45.3064 12.424L45.2171 12.6655C45.1804 12.7703 45.1617 12.8809 45.1541 12.991L45.1384 13.243L45.1174 13.5002C45.0985 13.775 45.0183 14.0345 44.8811 14.272L44.7499 14.503L44.6134 14.7287C44.5715 14.801 44.5522 14.8702 44.5451 14.9387L44.4926 15.4427C44.4766 15.6014 44.4652 15.7622 44.4559 15.9205L44.4401 16.1725L44.4244 16.4192C44.4161 16.5582 44.4201 16.7022 44.4296 16.8445L44.4454 17.0965L44.4611 17.3537C44.4824 17.6711 44.4038 17.9705 44.2459 18.2357L44.1041 18.4772L43.9624 18.6925L44.0411 18.9497L44.1199 19.2175C44.2127 19.535 44.2003 19.8655 44.0621 20.1782L43.9571 20.4197L43.8521 20.656C43.826 20.7152 43.8165 20.7692 43.8206 20.824L43.8416 21.076L43.8574 21.328C43.8782 21.6101 43.8315 21.8846 43.7209 22.1417L43.6106 22.3885L43.5109 22.6195L43.6159 22.882L43.7209 23.1392C43.8376 23.428 43.8713 23.7396 43.7996 24.0527L43.6841 24.5567C43.6489 24.7107 43.6207 24.8663 43.5949 25.0187L43.5529 25.2655L43.5109 25.5175C43.4805 25.6966 43.4421 25.8748 43.4006 26.053L43.3429 26.2997L43.2851 26.5517C43.2328 26.7761 43.1527 26.9921 43.0436 27.1975L42.9176 27.4337L42.7916 27.6647C42.7845 27.6781 42.7819 27.6872 42.7811 27.691C42.7808 27.6928 42.7843 27.7003 42.7864 27.712L42.8809 28.2265C42.9209 28.4359 42.9436 28.6459 42.9439 28.8565V29.3605Z" fill="#FF4500"/>
<path d="M9.34387 45.1008C9.62685 44.9094 9.95481 44.8084 10.3058 44.8031L10.6721 44.801L10.9757 44.7988C11.0309 44.7841 11.087 44.7708 11.1418 44.7554L11.2671 44.7245L11.5336 44.5687L11.8284 44.3912C12.1119 44.223 12.4171 44.1049 12.7404 44.0401L13.0819 43.9722L13.417 43.9074C13.4336 43.9041 13.4581 43.898 13.4986 43.8513L13.7405 43.5672L13.9792 43.2924L14.2585 43.0365C14.4551 42.8899 14.6761 42.7878 14.9168 42.741L15.2926 42.7108L15.6651 42.7213L16.0282 42.7286C16.1194 42.7308 16.1725 42.7147 16.2067 42.6947L16.4952 42.5202L16.79 42.3426C17.015 42.2081 17.2491 42.092 17.4892 41.9878L18.1035 41.7141C18.3107 41.6243 18.5231 41.5386 18.7304 41.4499L19.0376 41.313L19.3479 41.1824C19.6598 41.0491 19.9892 40.9814 20.3284 40.9693L20.679 40.9515L21.0328 40.9401C21.1316 40.9365 21.2115 40.9169 21.2834 40.8782L21.8855 40.5481C22.167 40.3945 22.4665 40.2862 22.7817 40.2283L23.1106 40.1666L23.4489 40.1081C23.5132 40.0959 23.5878 40.0648 23.6746 39.9961L24.2457 39.5407C24.5217 39.3224 24.8448 39.1895 25.1891 39.1584L25.5428 39.1626L25.8902 39.2012L26.2438 39.2366C26.3894 39.2519 26.5269 39.2451 26.6571 39.2191L26.9923 39.1543L27.3243 39.0833C27.4644 39.0552 27.5996 39.0124 27.7254 38.9467L28.0233 38.791L28.3274 38.6323C28.5884 38.4959 28.8614 38.3856 29.1454 38.3122L29.797 38.1451C30.0663 38.0757 30.3411 38.0296 30.6207 38.0097L30.962 37.9888L31.3096 37.9648C31.4427 37.9551 31.5687 37.9272 31.6886 37.8782L31.9989 37.7477L32.3186 37.6203C32.47 37.5582 32.6137 37.4751 32.7545 37.3805L33.3316 37.0002C33.6375 36.7949 33.979 36.6638 34.3439 36.615L35.0328 36.5231C35.0768 36.5166 35.2392 36.4672 35.5564 36.2711L36.0895 35.9439L36.1742 35.8941L36.2651 35.8568L36.3591 35.8258C36.8242 35.6615 37.3369 35.9035 37.5033 36.3675C37.6593 36.8078 37.4403 37.2734 37.0242 37.465L37.0336 37.4681L36.5005 37.7953C36.1097 38.0369 35.684 38.2428 35.2656 38.2988L34.5766 38.3907C34.483 38.4035 34.4012 38.4332 34.3259 38.4839L34.0404 38.6803L33.7519 38.8704C33.5117 39.0316 33.2592 39.1695 32.9931 39.2783L32.6797 39.4026L32.3631 39.5363C32.0655 39.6576 31.7505 39.7269 31.4296 39.7495L31.0914 39.7767L30.7501 39.7976C30.5762 39.8099 30.4084 39.842 30.2459 39.8838L29.5942 40.051C29.4444 40.0897 29.297 40.1479 29.1555 40.2219L28.8576 40.3775L28.5535 40.5363C28.2769 40.6807 27.9822 40.7855 27.676 40.8468L27.0057 40.9763C26.691 41.0391 26.3715 41.0547 26.0508 41.0205L25.356 40.9433L25.3592 40.9496L25.0736 41.1773L24.785 41.3987C24.6442 41.51 24.49 41.6022 24.3302 41.6791C24.418 41.6855 24.5087 41.6789 24.5963 41.6955L24.9435 41.7654L25.2877 41.829C25.2923 41.8272 25.3069 41.8208 25.3191 41.8135L25.6421 41.6141L25.9682 41.4209C26.2937 41.2211 26.6553 41.1325 27.0239 41.1704L27.39 41.2466L27.7371 41.3635L28.0906 41.4772C28.1454 41.495 28.168 41.4904 28.1876 41.4838L28.5198 41.3658L28.8457 41.2509C28.989 41.2005 29.136 41.1314 29.2783 41.0361L29.5763 40.8335L29.8806 40.6278C30.1691 40.4348 30.4894 40.2977 30.8334 40.233L31.1466 40.1713L31.463 40.1159C31.7412 40.0637 32.0277 40.0408 32.3209 40.0495L32.6778 40.06L33.0377 40.0767C33.1186 40.0792 33.1742 40.0593 33.2194 40.0334L33.511 39.8652L33.8089 39.6939C34.0534 39.5538 34.3084 39.4367 34.5738 39.3455L34.8934 39.2337L35.2068 39.1251C35.4825 39.0303 35.769 38.9675 36.0589 38.9366L36.3939 38.9032L36.682 38.8696L37.0705 38.7705C37.4855 38.6568 37.8964 38.8595 38.0866 39.2274L38.7548 39.8022L37.698 40.444L37.6604 40.4627C37.5213 40.5474 37.3813 40.583 37.3626 40.5871C37.3138 40.5984 37.2592 40.6053 37.2185 40.6117C37.1354 40.6246 37.033 40.6392 36.9179 40.6515L36.2477 40.7184C36.0918 40.7351 35.9386 40.7694 35.7904 40.8204L35.477 40.929L35.1574 41.0408C34.9996 41.0951 34.8443 41.1613 34.6966 41.2461L34.405 41.4143L34.1071 41.5856C33.76 41.7846 33.3795 41.8727 32.9855 41.8609L32.2719 41.84C32.0914 41.8345 31.9287 41.85 31.7896 41.8762L31.4764 41.9379L31.1601 41.9933C31.0857 42.0077 30.9919 42.0415 30.878 42.1177L30.2694 42.5292C30.0086 42.7034 29.7276 42.8406 29.4355 42.9431L28.7837 43.1728C28.3671 43.319 27.937 43.313 27.5284 43.1786L27.1812 43.0617L26.8747 42.9638L26.5799 43.1414L26.2569 43.3408C25.8676 43.579 25.4222 43.6753 24.957 43.5874L24.6066 43.5269L24.2593 43.457C24.1736 43.4407 24.1088 43.4463 24.0526 43.4658L23.7393 43.5745L23.4196 43.6862C23.2466 43.7462 23.0722 43.818 22.9025 43.9038L22.5983 44.0626L22.2911 44.2151C21.974 44.3755 21.6315 44.469 21.276 44.4845L20.9379 44.496L20.5966 44.517C20.3625 44.5271 20.1279 44.5329 19.8953 44.5368L19.5604 44.539L19.2191 44.5442C19.1562 44.5456 19.0899 44.5627 19.0092 44.6094L18.3883 44.9644C18.0379 45.1669 17.6494 45.2714 17.2417 45.2522L16.8974 45.2355L16.55 45.2126C16.4098 45.206 16.2799 45.2248 16.1585 45.2584L15.5131 45.4381C15.3721 45.4772 15.2323 45.5352 15.0994 45.6122L14.8015 45.7835L14.5099 45.9517C14.1727 46.147 13.7999 46.2452 13.4133 46.2459L13.0533 46.2449L12.7027 46.247C12.5452 46.2471 12.4025 46.2682 12.2705 46.3052L11.9478 46.395L11.7692 46.4446C11.6462 46.4883 11.522 46.5164 11.3933 46.5374C11.2391 46.5777 11.0859 46.6229 10.9296 46.6581L10.6007 46.7354L10.2686 46.8065C10.1849 46.8253 10.1505 46.8484 10.1433 46.8531L9.75409 47.2025C9.72274 47.2306 9.68439 47.2585 9.65367 47.2836C9.64518 47.2906 9.63211 47.3059 9.61601 47.318C9.60966 47.3227 9.56042 47.3586 9.49683 47.3928C9.48556 47.399 9.36076 47.4695 9.18662 47.492C9.10095 47.503 8.84026 47.5244 8.57659 47.3494C8.25994 47.1383 8.18287 46.8143 8.178 46.6251C8.1741 46.4612 8.2161 46.3372 8.23218 46.2934C8.25287 46.2374 8.27619 46.1946 8.28889 46.1715C8.3138 46.1262 8.33193 46.0891 8.34239 46.0746C8.39234 46.0054 8.46307 45.9392 8.46802 45.9341L8.82908 45.5751L9.07714 45.3191L9.34387 45.1008Z" fill="#FF4500"/>
</svg>
