<svg width="230" height="120" viewBox="0 0 230 120" fill="none" xmlns="http://www.w3.org/2000/svg">

<g id="Cindy Website 2042">

<g id="cindy gravity wordmark">
<g id="Group 44">
<path id="Vector" d="M8.34963 47.551C3.2307 46.0722 0.652344 43.0006 0.652344 38.3367V26.4688C0.652344 24.4212 0.879852 22.8661 1.4107 21.8423C2.20698 20.0602 3.42036 18.5814 5.01292 17.4817L10.7765 13.4248L16.2365 23.7767L12.4828 26.0133L9.25981 20.136L7.66718 21.2735C6.07462 22.4111 5.27842 24.1558 5.27842 26.4688V38.3367C5.27842 40.2326 5.99879 41.5603 7.47759 42.3566L12.9757 38.0715L15.6677 41.8633L8.34963 47.551Z" fill="#DCDCDC" stroke="#DCDCDC" stroke-width="1.30435"/>
<g id="Group 43">
<path id="Vector_2" d="M27.8217 29.592V51.7217C27.8217 53.0531 28.0734 54.1688 28.5772 55.0684C29.0809 55.968 29.9447 56.8672 31.1322 57.6948L28.6492 61.2572C25.8425 59.4941 24.2233 57.4072 23.6836 54.9243C23.5037 54.1327 23.4316 53.2329 23.4316 52.2973V29.592H27.8217Z" fill="#DCDCDC" stroke="#DCDCDC" stroke-width="1.30435"/>
<path id="Vector_3" d="M23.4307 26.8892V21.42L27.8207 18.0375L27.6766 26.8534L23.4307 26.8892Z" fill="#DCDCDC" stroke="#DCDCDC" stroke-width="1.30435"/>
</g>
<path id="Vector_4" d="M55.6682 60.1429C55.6682 61.87 56.7836 63.5617 59.0146 65.2529L56.3878 68.7071C53.6531 66.6201 52.0339 64.4608 51.5301 62.3018C51.3502 61.5822 51.2782 60.7908 51.2782 59.8912C51.2782 59.0277 51.3143 58.0917 51.4222 57.1201C51.4942 56.1846 51.5659 55.2134 51.6738 54.3139C51.9257 51.831 52.0337 49.8519 52.0337 48.3766C52.0337 46.4335 51.386 44.4545 50.0546 42.4394L45.5209 46.0019V67.9875L41.095 71.0819V43.8063C41.095 42.7628 40.4833 41.6838 39.2958 40.6402C38.972 40.3524 38.6481 40.1365 38.3242 39.9206L40.7352 36.2499C42.9661 37.6892 44.3694 39.2368 44.9811 40.856L50.7384 36.3581C53.3652 39.2727 55.0924 42.2232 55.956 45.2098C56.2438 46.2533 56.3878 47.3331 56.3878 48.3766C56.3878 49.636 56.3158 51.1472 56.1359 52.9104C55.848 56.4007 55.6682 58.8115 55.6682 60.1429Z" fill="#DCDCDC" stroke="#DCDCDC" stroke-width="1.30435"/>
<path id="Vector_5" d="M67.7865 76.6219C67.7865 77.2696 68.0385 77.7732 68.5782 78.0971L73.5797 74.3554V57.191L69.9813 59.9979C68.506 61.1494 67.7865 62.6967 67.7865 64.6757V76.6219ZM78.7972 82.8831C76.9621 81.7676 75.6308 80.4719 74.8032 78.9966L69.5857 82.8831C66.8509 82.3793 64.9438 81.1558 63.9362 79.1407C63.5764 78.421 63.3965 77.5934 63.3965 76.6219V64.6757C63.3965 61.2214 64.6559 58.5223 67.1747 56.6512L73.256 52.5132V43.0858L77.9338 39.6316V73.3476C77.9338 74.6789 78.2218 75.7947 78.7255 76.6943C79.2293 77.5938 80.0928 78.493 81.2802 79.3206L78.7972 82.8831Z" fill="#DCDCDC" stroke="#DCDCDC" stroke-width="1.30435"/>
<path id="Vector_6" d="M98.444 98.0684C98.9478 98.2483 99.5237 98.3566 100.207 98.3566C100.891 98.3566 101.575 98.1765 102.258 97.8526C102.906 97.4928 103.482 97.0248 103.986 96.485C105.101 95.2976 105.641 93.8941 105.641 92.3828C105.641 91.3753 105.425 90.4403 105.029 89.5407C104.597 88.6051 104.309 87.9568 104.129 87.5251L97.9043 88.3888C97.5804 88.2089 97.2205 87.957 96.7528 87.6691L95.3134 86.8419C94.054 86.1583 92.8666 85.6181 91.7151 85.1503V68.1307C91.7151 67.2311 91.2835 66.3669 90.4199 65.5753C90.096 65.2515 89.7001 64.8916 89.1963 64.4958L92.1832 61.2573C93.6945 62.5887 94.6659 63.5967 95.0977 64.2084C95.7814 65.2159 96.1051 66.259 96.1051 67.3745V82.2716C96.357 82.3796 96.6448 82.5234 96.9327 82.6673C97.1846 82.8113 97.4364 82.9198 97.6523 83.0637L103.194 82.7039V73.2042C103.23 71.6209 103.626 69.5694 102.474 68.0941C102.114 67.6623 101.754 67.195 101.323 66.7272L99.1637 64.3883L102.618 61.6172L104.669 63.1647C106.288 64.3162 106.576 64.3165 107.08 65.0721C107.8 66.1516 107.584 71.1887 107.584 73.1318V82.5598C107.584 83.3874 107.692 84.1788 107.944 84.9704C108.196 85.762 108.483 86.5535 108.771 87.3451C109.599 89.5041 110.031 91.2313 110.031 92.5627C110.031 93.8941 109.743 95.1899 109.239 96.4133C108.735 97.7087 108.016 98.7879 107.152 99.7235C105.173 101.739 102.834 102.746 100.099 102.746C97.7246 102.746 95.6373 102.17 93.8741 100.983C91.7871 99.6155 90.7797 97.7807 90.7797 95.5137C90.7797 94.3263 91.1756 93.3186 92.0033 92.491C92.8309 91.6634 93.8382 91.2316 95.0256 91.2316C96.1771 91.2316 97.2208 91.6635 98.0484 92.4552C98.912 93.2828 99.3078 94.2545 99.3078 95.298C99.3078 96.3775 99.0198 97.3128 98.444 98.0684Z" fill="#DCDCDC" stroke="#DCDCDC" stroke-width="1.30435"/>
</g>
<g id="Group 40">
<g id="Group">
<path id="Vector_7" d="M96.6016 38.9142C97.1357 39.105 97.7462 39.2197 98.4711 39.2197C99.1959 39.2197 99.9209 39.0288 100.646 38.6855C101.332 38.304 101.981 37.8077 102.477 37.2355C103.621 35.9384 104.194 34.4885 104.194 32.8862C104.194 31.5891 103.698 29.7201 102.668 27.2404L97.4409 31.1694C94.5034 30.6353 92.4815 29.3 91.4132 27.1636C91.0317 26.4006 90.841 25.5231 90.841 24.4931V15.7572C90.841 12.0948 92.1763 9.27134 94.8468 7.24937L103.469 0.763794L106.292 2.17506V21.9373C106.292 22.8911 106.444 23.7687 106.711 24.5698C106.978 25.4091 107.245 26.2483 107.589 27.0876C108.466 29.3766 108.886 31.3222 108.886 32.8482C108.886 34.4123 108.619 35.8624 108.085 37.1595C107.551 38.5329 106.788 39.6771 105.834 40.669C104.232 42.3476 101.905 44.9036 100.493 46.4296C100.073 46.8492 99.0434 44.5987 98.3567 43.8738C96.6018 42.0807 93.6257 43.2632 91.7564 42.0043C89.5436 40.5546 88.4756 38.6092 88.4756 36.2057C88.4756 34.9467 88.8954 33.8784 89.7729 33.0009C90.6503 32.1235 91.7183 31.6657 92.9773 31.6657C94.1981 31.6657 95.3046 32.1236 96.182 32.9629C97.0977 33.8404 97.5173 34.8706 97.5173 35.977C97.5173 37.1215 97.212 38.1131 96.6016 38.9142ZM95.5334 24.4931C95.5334 25.2179 95.8005 25.7145 96.3728 26.0578L101.637 22.0133V7.82163L97.8224 10.7977C96.2964 12.0185 95.5334 13.6589 95.5334 15.7572V24.4931Z" fill="#DCDCDC" stroke="#DCDCDC" stroke-width="1.30435"/>
</g>
<g id="Group_2">
<path id="Vector_8" d="M118.451 14.771C120.25 15.8865 121.51 17.0378 122.193 18.2252L126.547 14.771C128.814 16.93 130.577 19.7724 131.909 23.2987L128.023 25.5301C127.447 23.9828 126.763 22.6872 125.936 21.6436L123.237 23.7668V44.3854L120.718 46.4004H118.847V22.3633C118.847 20.9959 117.911 19.7004 116.076 18.441L118.451 14.771Z" fill="#DCDCDC" stroke="#DCDCDC" stroke-width="1.30435"/>
</g>
<g id="Group_3">
<path id="Vector_9" d="M137.403 52.0716C137.403 52.7193 137.655 53.2229 138.194 53.5467L143.196 49.8051V32.6407L139.598 35.4476C138.122 36.5991 137.403 38.1464 137.403 40.1254V52.0716ZM148.413 58.3328C146.578 57.2173 145.247 55.9216 144.419 54.4463L139.202 58.3328C136.467 57.829 134.56 56.6055 133.552 54.5904C133.193 53.8707 133.013 53.0431 133.013 52.0716V40.1254C133.013 36.6711 134.2 33.9363 136.719 32.0292L143.916 26.1995L147.514 25.9838L147.55 48.7972C147.55 50.1286 147.838 51.2444 148.342 52.144C148.846 53.0435 149.709 53.9427 150.896 54.7703L148.413 58.3328Z" fill="#DCDCDC" stroke="#DCDCDC" stroke-width="1.30435"/>
</g>
<g id="Group_4">
<path id="Vector_10" d="M155.129 49.6069C155.093 48.9592 154.949 48.4551 154.697 48.0593C154.301 47.5555 153.006 46.4041 151.998 45.5405L154.733 41.8705C156.244 43.2378 158.043 45.0728 158.475 45.6846C159.159 46.6921 159.482 47.7359 159.482 48.8514V68.1741L164.412 63.8561C165.672 62.8485 166.283 61.1936 166.283 58.9267V52.6296C166.319 51.0463 165.744 49.4988 164.592 48.0235C164.232 47.5917 163.837 47.1243 163.405 46.6565L161.606 44.6409L164.268 40.8627L166.535 43.4897C167.867 44.965 168.766 46.1526 169.27 47.0522C170.206 48.7794 170.673 50.6141 170.673 52.5572V58.9267C170.673 62.525 169.522 65.2957 167.183 67.2028L158.079 75.1191L155.129 73.1759V49.6069Z" fill="#DCDCDC" stroke="#DCDCDC" stroke-width="1.30435"/>
</g>
<g id="Group 39">
<g id="Group_5">
<path id="Vector_11" d="M181.504 59.0356L177.366 57.6321L180.425 50.3997L184.491 52.9185L181.504 59.0356Z" fill="#DCDCDC" stroke="#DCDCDC" stroke-width="1.30435"/>
</g>
<g id="Group_6">
<path id="Vector_12" d="M177.153 60.8251V82.9547C177.153 84.2861 176.902 85.4019 176.399 86.3015C175.896 87.201 175.033 88.1002 173.847 88.9278L175.177 92.7784C177.944 91.0152 180.747 88.6402 181.286 86.1574C181.466 85.3657 181.538 84.4659 181.538 83.5303V62.1203L177.153 60.8251Z" fill="#DCDCDC" stroke="#DCDCDC" stroke-width="1.30435"/>
</g>
</g>
<g id="Group_7">
<path id="Vector_13" d="M193.71 74.5185C192.918 74.5185 191.874 75.0583 190.543 76.1378L189.931 76.6417L187.664 73.1509L189.103 72.1079C190.903 70.8126 192.558 70.1647 194.105 70.1647L196.408 62.2484L200.618 63.3638L198.675 70.1647H203.281L204.792 74.4103L198.063 74.5185V84.0541C198.063 85.9972 198.063 87.8686 198.063 89.5598C198.063 91.287 198.315 92.6184 198.855 93.5179C199.359 94.4175 200.222 95.3167 201.41 96.1443L198.927 99.7068C196.12 97.9436 194.465 95.8567 193.961 93.3739C193.781 92.5822 193.71 91.6824 193.71 90.7468V74.5185Z" fill="#DCDCDC" stroke="#DCDCDC" stroke-width="1.30435"/>
</g>
<g id="Group_8">
<path id="Vector_14" d="M217.215 114.008C217.718 114.188 218.294 114.296 218.978 114.296C219.662 114.296 220.345 114.116 221.029 113.793C221.677 113.433 222.252 112.965 222.756 112.425C223.872 111.237 224.411 109.834 224.411 108.323C224.411 107.315 224.195 106.38 223.799 105.481C223.368 104.545 223.08 103.897 222.9 103.465L216.675 104.329C216.351 104.149 215.991 103.897 215.523 103.609L214.084 102.782C212.825 102.098 211.637 101.558 210.486 101.09V84.0705C210.486 83.171 210.054 82.3068 209.19 81.5152C208.867 81.1913 208.471 80.8315 207.967 80.4357L210.558 76.8374C212.105 78.1687 213.436 79.5365 213.868 80.1482C214.552 81.1558 214.876 82.1989 214.876 83.3143V98.2115C215.128 98.3195 215.415 98.4633 215.703 98.6072C215.955 98.7511 216.207 98.8596 216.423 99.0036L221.964 98.6437V89.144C222 87.5608 222.396 85.5093 221.245 84.034C220.885 83.6022 220.525 83.1348 220.093 82.6671L217.934 80.3281L220.453 76.8015L223.188 79.5361C224.519 80.9754 225.419 82.1631 225.923 83.0627C226.858 84.8259 226.354 87.1285 226.354 89.0716V98.4997C226.354 99.3273 226.462 100.119 226.714 100.91C226.966 101.702 227.254 102.493 227.542 103.285C228.369 105.444 228.801 107.171 228.801 108.503C228.801 109.834 228.513 111.13 228.01 112.353C227.506 113.649 226.786 114.728 225.923 115.663C223.943 117.678 221.605 118.686 218.87 118.686C216.495 118.686 214.408 118.11 212.645 116.923C210.558 115.555 209.55 113.721 209.55 111.454C209.55 110.266 209.946 109.258 210.774 108.431C211.601 107.603 212.609 107.171 213.796 107.171C214.948 107.171 215.991 107.603 216.819 108.395C217.682 109.223 218.078 110.194 218.078 111.238C218.078 112.317 217.79 113.253 217.215 114.008Z" fill="#DCDCDC" stroke="#DCDCDC" stroke-width="1.30435"/>
</g>
</g>
</g>
</g>
</svg>
